<?xml version="1.0" encoding="utf-8" standalone="no"?>
<!DOCTYPE svg PUBLIC "-//W3C//DTD SVG 1.1//EN"
  "http://www.w3.org/Graphics/SVG/1.1/DTD/svg11.dtd">
<svg xmlns:xlink="http://www.w3.org/1999/xlink" width="367.2pt" height="223.2pt" viewBox="0 0 367.2 223.2" xmlns="http://www.w3.org/2000/svg" version="1.1">
 <metadata>
  <rdf:RDF xmlns:dc="http://purl.org/dc/elements/1.1/" xmlns:cc="http://creativecommons.org/ns#" xmlns:rdf="http://www.w3.org/1999/02/22-rdf-syntax-ns#">
   <cc:Work>
    <dc:type rdf:resource="http://purl.org/dc/dcmitype/StillImage"/>
    <dc:date>2025-06-01T01:11:17.560889</dc:date>
    <dc:format>image/svg+xml</dc:format>
    <dc:creator>
     <cc:Agent>
      <dc:title>Matplotlib v3.10.3, https://matplotlib.org/</dc:title>
     </cc:Agent>
    </dc:creator>
   </cc:Work>
  </rdf:RDF>
 </metadata>
 <defs>
  <style type="text/css">*{stroke-linejoin: round; stroke-linecap: butt}</style>
 </defs>
 <g id="figure_1">
  <g id="patch_1">
   <path d="M -0 223.2 
L 367.2 223.2 
L 367.2 0 
L -0 0 
z
" style="fill: #ffffff"/>
  </g>
  <g id="axes_1">
   <g id="patch_2">
    <path d="M 40.244285 187.434647 
L 360 187.434647 
L 360 7.2 
L 40.244285 7.2 
z
" style="fill: #ffffff"/>
   </g>
   <g id="patch_3">
    <path d="M 54.778635 187.434647 
L 85.111193 187.460182 
L 85.111193 186.704759 
L 87.638906 186.704759 
L 87.638906 186.510429 
L 90.16662 186.510429 
L 90.16662 186.354718 
L 92.694333 186.354718 
L 92.694333 182.74095 
L 95.222046 182.74095 
L 95.222046 178.94748 
L 97.749759 178.94748 
L 97.749759 173.253208 
L 100.277472 173.253208 
L 100.277472 166.773034 
L 102.805185 166.773034 
L 102.805185 164.733766 
L 105.332899 164.733766 
L 105.332899 165.157127 
L 107.860612 165.157127 
L 107.860612 161.215335 
L 110.388325 161.215335 
L 110.388325 153.293305 
L 112.916038 153.293305 
L 112.916038 158.344396 
L 115.443751 158.344396 
L 115.443751 154.217904 
L 117.971464 154.217904 
L 117.971464 149.956238 
L 120.499178 149.956238 
L 120.499178 145.948794 
L 123.026891 145.948794 
L 123.026891 147.258541 
L 125.554604 147.258541 
L 125.554604 138.770521 
L 128.082317 138.770521 
L 128.082317 135.351364 
L 130.61003 135.351364 
L 130.61003 127.419928 
L 133.137743 127.419928 
L 133.137743 123.704153 
L 135.665457 123.704153 
L 135.665457 117.039499 
L 138.19317 117.039499 
L 138.19317 109.421437 
L 140.720883 109.421437 
L 140.720883 114.522692 
L 143.248596 114.522692 
L 143.248596 102.984346 
L 145.776309 102.984346 
L 145.776309 100.084772 
L 148.304022 100.084772 
L 148.304022 104.13995 
L 150.831736 104.13995 
L 150.831736 91.615062 
L 153.359449 91.615062 
L 153.359449 92.516451 
L 155.887162 92.516451 
L 155.887162 81.497361 
L 158.414875 81.497361 
L 158.414875 86.819722 
L 160.942588 86.819722 
L 160.942588 80.622191 
L 163.470301 80.622191 
L 163.470301 81.712112 
L 165.998015 81.712112 
L 165.998015 72.770825 
L 168.525728 72.770825 
L 168.525728 76.312024 
L 171.053441 76.312024 
L 171.053441 64.579306 
L 173.581154 64.579306 
L 173.581154 66.324643 
L 176.108867 66.324643 
L 176.108867 61.89695 
L 178.63658 61.89695 
L 178.63658 62.706563 
L 181.164294 62.706563 
L 181.164294 55.255091 
L 183.692007 55.255091 
L 183.692007 51.688647 
L 186.21972 51.688647 
L 186.21972 62.597212 
L 188.747433 62.597212 
L 188.747433 50.029487 
L 191.275146 50.029487 
L 191.275146 55.697038 
L 193.802859 55.697038 
L 193.802859 52.217058 
L 196.330573 52.217058 
L 196.330573 48.328207 
L 198.858286 48.328207 
L 198.858286 45.630097 
L 201.385999 45.630097 
L 201.385999 35.200826 
L 203.913712 35.200826 
L 203.913712 45.606993 
L 206.441425 45.606993 
L 206.441425 30.809977 
L 208.969138 30.809977 
L 208.969138 42.703716 
L 211.496852 42.703716 
L 211.496852 29.160996 
L 214.024565 29.160996 
L 214.024565 32.16759 
L 216.552278 32.16759 
L 216.552278 33.779499 
L 219.079991 33.779499 
L 219.079991 30.517624 
L 221.607704 30.517624 
L 221.607704 34.093514 
L 224.135417 34.093514 
L 224.135417 31.78393 
L 226.663131 31.78393 
L 226.663131 33.089484 
L 229.190844 33.089484 
L 229.190844 22.344091 
L 231.718557 22.344091 
L 231.718557 22.53078 
L 234.24627 22.53078 
L 234.24627 38.422641 
L 236.773983 38.422641 
L 236.773983 28.826166 
L 241.82941 28.925968 
L 241.82941 27.795449 
L 244.357123 27.795449 
L 244.357123 28.57471 
L 246.884836 28.57471 
L 246.884836 37.017869 
L 249.412549 37.017869 
L 249.412549 41.100828 
L 251.940262 41.100828 
L 251.940262 33.163628 
L 254.467975 33.163628 
L 254.467975 44.586133 
L 256.995689 44.586133 
L 256.995689 41.730999 
L 259.523402 41.730999 
L 259.523402 34.272418 
L 262.051115 34.272418 
L 262.051115 47.252333 
L 264.578828 47.252333 
L 264.578828 67.244064 
L 267.106541 67.244064 
L 267.106541 68.711244 
L 269.634254 68.711244 
L 269.634254 76.157827 
L 272.161968 76.157827 
L 272.161968 78.672533 
L 274.689681 78.672533 
L 274.689681 81.50715 
L 277.217394 81.50715 
L 277.217394 84.038767 
L 279.745107 84.038767 
L 279.745107 97.345188 
L 282.27282 97.345188 
L 282.27282 97.69027 
L 284.800533 97.69027 
L 284.800533 97.542124 
L 287.328247 97.542124 
L 287.328247 105.71627 
L 289.85596 105.71627 
L 289.85596 110.923023 
L 292.383673 110.923023 
L 292.383673 117.491121 
L 294.911386 117.491121 
L 294.911386 129.51803 
L 297.439099 129.51803 
L 297.439099 131.770167 
L 299.966812 131.770167 
L 299.966812 140.251767 
L 302.494525 140.251767 
L 302.494525 149.168513 
L 305.022239 149.168513 
L 305.022239 157.60353 
L 307.549952 157.60353 
L 307.549952 154.899006 
L 310.077665 154.899006 
L 310.077665 166.843061 
L 312.605378 166.843061 
L 312.605378 169.159137 
L 315.133091 169.159137 
L 315.133091 168.798515 
L 317.660804 168.798515 
L 317.660804 171.195343 
L 320.188518 171.195343 
L 320.188518 180.538479 
L 322.716231 180.538479 
L 322.716231 180.763171 
L 325.243944 180.763171 
L 325.243944 180.888841 
L 327.771657 180.888841 
L 327.771657 184.967885 
L 330.29937 184.967885 
L 330.29937 186.714261 
L 332.827083 186.714261 
L 332.827083 186.911446 
L 335.354797 186.911446 
L 335.354797 186.429145 
L 337.88251 186.429145 
L 337.88251 187.421165 
L 345.465649 187.434647 
L 345.465649 187.434647 
" clip-path="url(#pc129bf283a)" style="fill: none; stroke: #377eb8; stroke-linejoin: miter"/>
   </g>
   <g id="matplotlib.axis_1">
    <g id="xtick_1">
     <g id="line2d_1">
      <defs>
       <path id="m84cdb6698e" d="M 0 0 
L 0 -4 
" style="stroke: #000000; stroke-width: 1.2"/>
      </defs>
      <g>
       <use xlink:href="#m84cdb6698e" x="67.417201" y="187.434647" style="stroke: #000000; stroke-width: 1.2"/>
      </g>
     </g>
     <g id="line2d_2">
      <defs>
       <path id="m314e554714" d="M 0 0 
L 0 4 
" style="stroke: #000000; stroke-width: 1.2"/>
      </defs>
      <g>
       <use xlink:href="#m314e554714" x="67.417201" y="7.2" style="stroke: #000000; stroke-width: 1.2"/>
      </g>
     </g>
     <g id="text_1">
      <!-- $\mathdefault{1.5}$ -->
      <g transform="translate(61.052162 197.853145) scale(0.1 -0.1)">
       <defs>
        <path id="CMR17-31" d="M 1702 4058 
C 1702 4192 1696 4192 1606 4192 
C 1357 3916 979 3827 621 3827 
C 602 3827 570 3827 563 3808 
C 557 3795 557 3782 557 3648 
C 755 3648 1088 3686 1344 3839 
L 1344 461 
C 1344 236 1331 160 781 160 
L 589 160 
L 589 0 
C 896 0 1216 0 1523 0 
C 1830 0 2150 0 2458 0 
L 2458 160 
L 2266 160 
C 1715 160 1702 230 1702 458 
L 1702 4058 
z
" transform="scale(0.015625)"/>
        <path id="CMMI12-3a" d="M 1178 307 
C 1178 492 1024 619 870 619 
C 685 619 557 466 557 313 
C 557 128 710 0 864 0 
C 1050 0 1178 153 1178 307 
z
" transform="scale(0.015625)"/>
        <path id="CMR17-35" d="M 730 3692 
C 794 3666 1056 3584 1325 3584 
C 1920 3584 2246 3911 2432 4100 
C 2432 4157 2432 4192 2394 4192 
C 2387 4192 2374 4192 2323 4163 
C 2099 4058 1837 3973 1517 3973 
C 1325 3973 1037 3999 723 4139 
C 653 4171 640 4171 634 4171 
C 602 4171 595 4164 595 4037 
L 595 2203 
C 595 2089 595 2057 659 2057 
C 691 2057 704 2070 736 2114 
C 941 2401 1222 2522 1542 2522 
C 1766 2522 2246 2382 2246 1289 
C 2246 1085 2246 715 2054 421 
C 1894 159 1645 25 1370 25 
C 947 25 518 320 403 814 
C 429 807 480 795 506 795 
C 589 795 749 840 749 1038 
C 749 1210 627 1280 506 1280 
C 358 1280 262 1190 262 1011 
C 262 454 704 -128 1382 -128 
C 2042 -128 2669 440 2669 1264 
C 2669 2030 2170 2624 1549 2624 
C 1222 2624 947 2503 730 2274 
L 730 3692 
z
" transform="scale(0.015625)"/>
       </defs>
       <use xlink:href="#CMR17-31" transform="scale(0.996264)"/>
       <use xlink:href="#CMMI12-3a" transform="translate(45.690477 0) scale(0.996264)"/>
       <use xlink:href="#CMR17-35" transform="translate(72.787654 0) scale(0.996264)"/>
      </g>
     </g>
    </g>
    <g id="xtick_2">
     <g id="line2d_3">
      <g>
       <use xlink:href="#m84cdb6698e" x="130.61003" y="187.434647" style="stroke: #000000; stroke-width: 1.2"/>
      </g>
     </g>
     <g id="line2d_4">
      <g>
       <use xlink:href="#m314e554714" x="130.61003" y="7.2" style="stroke: #000000; stroke-width: 1.2"/>
      </g>
     </g>
     <g id="text_2">
      <!-- $\mathdefault{2.0}$ -->
      <g transform="translate(124.244991 197.853145) scale(0.1 -0.1)">
       <defs>
        <path id="CMR17-32" d="M 2669 989 
L 2554 989 
C 2490 536 2438 459 2413 420 
C 2381 369 1920 369 1830 369 
L 602 369 
C 832 619 1280 1072 1824 1597 
C 2214 1967 2669 2402 2669 3035 
C 2669 3790 2067 4224 1395 4224 
C 691 4224 262 3604 262 3030 
C 262 2780 448 2748 525 2748 
C 589 2748 781 2787 781 3010 
C 781 3207 614 3264 525 3264 
C 486 3264 448 3258 422 3245 
C 544 3790 915 4058 1306 4058 
C 1862 4058 2227 3617 2227 3035 
C 2227 2479 1901 2000 1536 1584 
L 262 146 
L 262 0 
L 2515 0 
L 2669 989 
z
" transform="scale(0.015625)"/>
        <path id="CMR17-30" d="M 2688 2025 
C 2688 2416 2682 3080 2413 3591 
C 2176 4039 1798 4198 1466 4198 
C 1158 4198 768 4058 525 3597 
C 269 3118 243 2524 243 2025 
C 243 1661 250 1106 448 619 
C 723 -39 1216 -128 1466 -128 
C 1760 -128 2208 -7 2470 600 
C 2662 1042 2688 1559 2688 2025 
z
M 1466 -26 
C 1056 -26 813 325 723 812 
C 653 1188 653 1738 653 2096 
C 653 2588 653 2997 736 3387 
C 858 3929 1216 4096 1466 4096 
C 1728 4096 2067 3923 2189 3400 
C 2272 3036 2278 2607 2278 2096 
C 2278 1680 2278 1169 2202 792 
C 2067 95 1690 -26 1466 -26 
z
" transform="scale(0.015625)"/>
       </defs>
       <use xlink:href="#CMR17-32" transform="scale(0.996264)"/>
       <use xlink:href="#CMMI12-3a" transform="translate(45.690477 0) scale(0.996264)"/>
       <use xlink:href="#CMR17-30" transform="translate(72.787654 0) scale(0.996264)"/>
      </g>
     </g>
    </g>
    <g id="xtick_3">
     <g id="line2d_5">
      <g>
       <use xlink:href="#m84cdb6698e" x="193.802859" y="187.434647" style="stroke: #000000; stroke-width: 1.2"/>
      </g>
     </g>
     <g id="line2d_6">
      <g>
       <use xlink:href="#m314e554714" x="193.802859" y="7.2" style="stroke: #000000; stroke-width: 1.2"/>
      </g>
     </g>
     <g id="text_3">
      <!-- $\mathdefault{2.5}$ -->
      <g transform="translate(187.43782 197.853145) scale(0.1 -0.1)">
       <use xlink:href="#CMR17-32" transform="scale(0.996264)"/>
       <use xlink:href="#CMMI12-3a" transform="translate(45.690477 0) scale(0.996264)"/>
       <use xlink:href="#CMR17-35" transform="translate(72.787654 0) scale(0.996264)"/>
      </g>
     </g>
    </g>
    <g id="xtick_4">
     <g id="line2d_7">
      <g>
       <use xlink:href="#m84cdb6698e" x="256.995689" y="187.434647" style="stroke: #000000; stroke-width: 1.2"/>
      </g>
     </g>
     <g id="line2d_8">
      <g>
       <use xlink:href="#m314e554714" x="256.995689" y="7.2" style="stroke: #000000; stroke-width: 1.2"/>
      </g>
     </g>
     <g id="text_4">
      <!-- $\mathdefault{3.0}$ -->
      <g transform="translate(250.630649 197.853145) scale(0.1 -0.1)">
       <defs>
        <path id="CMR17-33" d="M 1414 2157 
C 1984 2157 2234 1662 2234 1090 
C 2234 320 1824 25 1453 25 
C 1114 25 563 194 390 693 
C 422 680 454 680 486 680 
C 640 680 755 782 755 948 
C 755 1133 614 1216 486 1216 
C 378 1216 211 1165 211 926 
C 211 335 787 -128 1466 -128 
C 2176 -128 2720 430 2720 1085 
C 2720 1707 2208 2157 1600 2227 
C 2086 2328 2554 2756 2554 3329 
C 2554 3820 2048 4179 1472 4179 
C 890 4179 378 3829 378 3329 
C 378 3110 544 3072 627 3072 
C 762 3072 877 3155 877 3321 
C 877 3486 762 3569 627 3569 
C 602 3569 570 3569 544 3557 
C 730 3959 1235 4032 1459 4032 
C 1683 4032 2106 3925 2106 3320 
C 2106 3143 2080 2828 1862 2550 
C 1670 2304 1453 2304 1242 2284 
C 1210 2284 1062 2269 1037 2269 
C 992 2263 966 2257 966 2208 
C 966 2163 973 2157 1101 2157 
L 1414 2157 
z
" transform="scale(0.015625)"/>
       </defs>
       <use xlink:href="#CMR17-33" transform="scale(0.996264)"/>
       <use xlink:href="#CMMI12-3a" transform="translate(45.690477 0) scale(0.996264)"/>
       <use xlink:href="#CMR17-30" transform="translate(72.787654 0) scale(0.996264)"/>
      </g>
     </g>
    </g>
    <g id="xtick_5">
     <g id="line2d_9">
      <g>
       <use xlink:href="#m84cdb6698e" x="320.188518" y="187.434647" style="stroke: #000000; stroke-width: 1.2"/>
      </g>
     </g>
     <g id="line2d_10">
      <g>
       <use xlink:href="#m314e554714" x="320.188518" y="7.2" style="stroke: #000000; stroke-width: 1.2"/>
      </g>
     </g>
     <g id="text_5">
      <!-- $\mathdefault{3.5}$ -->
      <g transform="translate(313.823478 197.853145) scale(0.1 -0.1)">
       <use xlink:href="#CMR17-33" transform="scale(0.996264)"/>
       <use xlink:href="#CMMI12-3a" transform="translate(45.690477 0) scale(0.996264)"/>
       <use xlink:href="#CMR17-35" transform="translate(72.787654 0) scale(0.996264)"/>
      </g>
     </g>
    </g>
    <g id="xtick_6">
     <g id="line2d_11">
      <defs>
       <path id="m1d1c34efc3" d="M 0 0 
L 0 -2.5 
" style="stroke: #000000; stroke-width: 0.8"/>
      </defs>
      <g>
       <use xlink:href="#m1d1c34efc3" x="42.140069" y="187.434647" style="stroke: #000000; stroke-width: 0.8"/>
      </g>
     </g>
     <g id="line2d_12">
      <defs>
       <path id="mc549a7c290" d="M 0 0 
L 0 2.5 
" style="stroke: #000000; stroke-width: 0.8"/>
      </defs>
      <g>
       <use xlink:href="#mc549a7c290" x="42.140069" y="7.2" style="stroke: #000000; stroke-width: 0.8"/>
      </g>
     </g>
    </g>
    <g id="xtick_7">
     <g id="line2d_13">
      <g>
       <use xlink:href="#m1d1c34efc3" x="54.778635" y="187.434647" style="stroke: #000000; stroke-width: 0.8"/>
      </g>
     </g>
     <g id="line2d_14">
      <g>
       <use xlink:href="#mc549a7c290" x="54.778635" y="7.2" style="stroke: #000000; stroke-width: 0.8"/>
      </g>
     </g>
    </g>
    <g id="xtick_8">
     <g id="line2d_15">
      <g>
       <use xlink:href="#m1d1c34efc3" x="80.055767" y="187.434647" style="stroke: #000000; stroke-width: 0.8"/>
      </g>
     </g>
     <g id="line2d_16">
      <g>
       <use xlink:href="#mc549a7c290" x="80.055767" y="7.2" style="stroke: #000000; stroke-width: 0.8"/>
      </g>
     </g>
    </g>
    <g id="xtick_9">
     <g id="line2d_17">
      <g>
       <use xlink:href="#m1d1c34efc3" x="92.694333" y="187.434647" style="stroke: #000000; stroke-width: 0.8"/>
      </g>
     </g>
     <g id="line2d_18">
      <g>
       <use xlink:href="#mc549a7c290" x="92.694333" y="7.2" style="stroke: #000000; stroke-width: 0.8"/>
      </g>
     </g>
    </g>
    <g id="xtick_10">
     <g id="line2d_19">
      <g>
       <use xlink:href="#m1d1c34efc3" x="105.332899" y="187.434647" style="stroke: #000000; stroke-width: 0.8"/>
      </g>
     </g>
     <g id="line2d_20">
      <g>
       <use xlink:href="#mc549a7c290" x="105.332899" y="7.2" style="stroke: #000000; stroke-width: 0.8"/>
      </g>
     </g>
    </g>
    <g id="xtick_11">
     <g id="line2d_21">
      <g>
       <use xlink:href="#m1d1c34efc3" x="117.971464" y="187.434647" style="stroke: #000000; stroke-width: 0.8"/>
      </g>
     </g>
     <g id="line2d_22">
      <g>
       <use xlink:href="#mc549a7c290" x="117.971464" y="7.2" style="stroke: #000000; stroke-width: 0.8"/>
      </g>
     </g>
    </g>
    <g id="xtick_12">
     <g id="line2d_23">
      <g>
       <use xlink:href="#m1d1c34efc3" x="143.248596" y="187.434647" style="stroke: #000000; stroke-width: 0.8"/>
      </g>
     </g>
     <g id="line2d_24">
      <g>
       <use xlink:href="#mc549a7c290" x="143.248596" y="7.2" style="stroke: #000000; stroke-width: 0.8"/>
      </g>
     </g>
    </g>
    <g id="xtick_13">
     <g id="line2d_25">
      <g>
       <use xlink:href="#m1d1c34efc3" x="155.887162" y="187.434647" style="stroke: #000000; stroke-width: 0.8"/>
      </g>
     </g>
     <g id="line2d_26">
      <g>
       <use xlink:href="#mc549a7c290" x="155.887162" y="7.2" style="stroke: #000000; stroke-width: 0.8"/>
      </g>
     </g>
    </g>
    <g id="xtick_14">
     <g id="line2d_27">
      <g>
       <use xlink:href="#m1d1c34efc3" x="168.525728" y="187.434647" style="stroke: #000000; stroke-width: 0.8"/>
      </g>
     </g>
     <g id="line2d_28">
      <g>
       <use xlink:href="#mc549a7c290" x="168.525728" y="7.2" style="stroke: #000000; stroke-width: 0.8"/>
      </g>
     </g>
    </g>
    <g id="xtick_15">
     <g id="line2d_29">
      <g>
       <use xlink:href="#m1d1c34efc3" x="181.164294" y="187.434647" style="stroke: #000000; stroke-width: 0.8"/>
      </g>
     </g>
     <g id="line2d_30">
      <g>
       <use xlink:href="#mc549a7c290" x="181.164294" y="7.2" style="stroke: #000000; stroke-width: 0.8"/>
      </g>
     </g>
    </g>
    <g id="xtick_16">
     <g id="line2d_31">
      <g>
       <use xlink:href="#m1d1c34efc3" x="206.441425" y="187.434647" style="stroke: #000000; stroke-width: 0.8"/>
      </g>
     </g>
     <g id="line2d_32">
      <g>
       <use xlink:href="#mc549a7c290" x="206.441425" y="7.2" style="stroke: #000000; stroke-width: 0.8"/>
      </g>
     </g>
    </g>
    <g id="xtick_17">
     <g id="line2d_33">
      <g>
       <use xlink:href="#m1d1c34efc3" x="219.079991" y="187.434647" style="stroke: #000000; stroke-width: 0.8"/>
      </g>
     </g>
     <g id="line2d_34">
      <g>
       <use xlink:href="#mc549a7c290" x="219.079991" y="7.2" style="stroke: #000000; stroke-width: 0.8"/>
      </g>
     </g>
    </g>
    <g id="xtick_18">
     <g id="line2d_35">
      <g>
       <use xlink:href="#m1d1c34efc3" x="231.718557" y="187.434647" style="stroke: #000000; stroke-width: 0.8"/>
      </g>
     </g>
     <g id="line2d_36">
      <g>
       <use xlink:href="#mc549a7c290" x="231.718557" y="7.2" style="stroke: #000000; stroke-width: 0.8"/>
      </g>
     </g>
    </g>
    <g id="xtick_19">
     <g id="line2d_37">
      <g>
       <use xlink:href="#m1d1c34efc3" x="244.357123" y="187.434647" style="stroke: #000000; stroke-width: 0.8"/>
      </g>
     </g>
     <g id="line2d_38">
      <g>
       <use xlink:href="#mc549a7c290" x="244.357123" y="7.2" style="stroke: #000000; stroke-width: 0.8"/>
      </g>
     </g>
    </g>
    <g id="xtick_20">
     <g id="line2d_39">
      <g>
       <use xlink:href="#m1d1c34efc3" x="269.634254" y="187.434647" style="stroke: #000000; stroke-width: 0.8"/>
      </g>
     </g>
     <g id="line2d_40">
      <g>
       <use xlink:href="#mc549a7c290" x="269.634254" y="7.2" style="stroke: #000000; stroke-width: 0.8"/>
      </g>
     </g>
    </g>
    <g id="xtick_21">
     <g id="line2d_41">
      <g>
       <use xlink:href="#m1d1c34efc3" x="282.27282" y="187.434647" style="stroke: #000000; stroke-width: 0.8"/>
      </g>
     </g>
     <g id="line2d_42">
      <g>
       <use xlink:href="#mc549a7c290" x="282.27282" y="7.2" style="stroke: #000000; stroke-width: 0.8"/>
      </g>
     </g>
    </g>
    <g id="xtick_22">
     <g id="line2d_43">
      <g>
       <use xlink:href="#m1d1c34efc3" x="294.911386" y="187.434647" style="stroke: #000000; stroke-width: 0.8"/>
      </g>
     </g>
     <g id="line2d_44">
      <g>
       <use xlink:href="#mc549a7c290" x="294.911386" y="7.2" style="stroke: #000000; stroke-width: 0.8"/>
      </g>
     </g>
    </g>
    <g id="xtick_23">
     <g id="line2d_45">
      <g>
       <use xlink:href="#m1d1c34efc3" x="307.549952" y="187.434647" style="stroke: #000000; stroke-width: 0.8"/>
      </g>
     </g>
     <g id="line2d_46">
      <g>
       <use xlink:href="#mc549a7c290" x="307.549952" y="7.2" style="stroke: #000000; stroke-width: 0.8"/>
      </g>
     </g>
    </g>
    <g id="xtick_24">
     <g id="line2d_47">
      <g>
       <use xlink:href="#m1d1c34efc3" x="332.827083" y="187.434647" style="stroke: #000000; stroke-width: 0.8"/>
      </g>
     </g>
     <g id="line2d_48">
      <g>
       <use xlink:href="#mc549a7c290" x="332.827083" y="7.2" style="stroke: #000000; stroke-width: 0.8"/>
      </g>
     </g>
    </g>
    <g id="xtick_25">
     <g id="line2d_49">
      <g>
       <use xlink:href="#m1d1c34efc3" x="345.465649" y="187.434647" style="stroke: #000000; stroke-width: 0.8"/>
      </g>
     </g>
     <g id="line2d_50">
      <g>
       <use xlink:href="#mc549a7c290" x="345.465649" y="7.2" style="stroke: #000000; stroke-width: 0.8"/>
      </g>
     </g>
    </g>
    <g id="xtick_26">
     <g id="line2d_51">
      <g>
       <use xlink:href="#m1d1c34efc3" x="358.104215" y="187.434647" style="stroke: #000000; stroke-width: 0.8"/>
      </g>
     </g>
     <g id="line2d_52">
      <g>
       <use xlink:href="#mc549a7c290" x="358.104215" y="7.2" style="stroke: #000000; stroke-width: 0.8"/>
      </g>
     </g>
    </g>
    <g id="text_6">
     <!-- Invariant Mass of $K_{S,B}^0 p$ (GeV/$c^2$) -->
     <g transform="translate(124.433562 211.899942) scale(0.1 -0.1)">
      <defs>
       <path id="CMR17-49" d="M 1261 3905 
C 1261 4192 1338 4192 1798 4192 
L 1798 4352 
C 1594 4352 1267 4352 1050 4352 
C 832 4352 506 4352 301 4352 
L 301 4192 
C 762 4192 838 4192 838 3905 
L 838 447 
C 838 160 762 160 301 160 
L 301 0 
C 506 0 832 0 1050 0 
C 1267 0 1594 0 1798 0 
L 1798 160 
C 1338 160 1261 160 1261 447 
L 1261 3905 
z
" transform="scale(0.015625)"/>
       <path id="CMR17-6e" d="M 2656 1933 
C 2656 2259 2592 2790 1837 2790 
C 1331 2790 1069 2400 973 2144 
L 966 2144 
L 966 2790 
L 211 2720 
L 211 2554 
C 589 2554 646 2515 646 2208 
L 646 428 
C 646 184 621 153 211 153 
L 211 -13 
C 365 0 646 0 813 0 
C 979 0 1267 0 1421 -13 
L 1421 153 
C 1011 153 986 178 986 428 
L 986 1658 
C 986 2247 1344 2688 1792 2688 
C 2266 2688 2317 2266 2317 1958 
L 2317 428 
C 2317 184 2291 153 1882 153 
L 1882 -13 
C 2035 0 2317 0 2483 0 
C 2650 0 2938 0 3091 -13 
L 3091 153 
C 2682 153 2656 178 2656 428 
L 2656 1933 
z
" transform="scale(0.015625)"/>
       <path id="CMR17-76" d="M 2502 2163 
C 2560 2304 2662 2560 3034 2560 
L 3034 2726 
C 2912 2726 2752 2726 2630 2726 
C 2496 2726 2285 2726 2157 2732 
L 2157 2566 
C 2317 2553 2406 2477 2406 2311 
C 2406 2253 2406 2240 2368 2151 
L 1664 377 
L 902 2286 
C 864 2369 864 2381 864 2407 
C 864 2560 1075 2560 1171 2560 
L 1171 2732 
C 1018 2726 736 2726 576 2726 
C 403 2726 205 2726 64 2732 
L 64 2560 
C 307 2560 442 2560 518 2362 
L 1446 44 
C 1485 -51 1491 -64 1549 -64 
C 1606 -64 1613 -51 1651 44 
L 2502 2163 
z
" transform="scale(0.015625)"/>
       <path id="CMR17-61" d="M 2304 1653 
C 2304 2072 2304 2294 2035 2543 
C 1798 2752 1523 2816 1306 2816 
C 800 2816 435 2407 435 1971 
C 435 1728 627 1728 666 1728 
C 749 1728 896 1778 896 1954 
C 896 2112 774 2181 666 2181 
C 640 2181 608 2174 589 2168 
C 723 2592 1069 2714 1293 2714 
C 1613 2714 1965 2429 1965 1885 
L 1965 1600 
C 1587 1600 1133 1549 774 1357 
C 371 1133 256 813 256 570 
C 256 77 832 -64 1171 -64 
C 1523 -64 1850 139 1990 511 
C 2003 233 2182 -18 2464 -18 
C 2598 -18 2938 70 2938 567 
L 2938 920 
L 2822 920 
L 2822 562 
C 2822 178 2650 128 2566 128 
C 2304 128 2304 458 2304 738 
L 2304 1653 
z
M 1965 870 
C 1965 317 1568 38 1216 38 
C 896 38 646 275 646 570 
C 646 761 730 1100 1101 1305 
C 1408 1478 1760 1504 1965 1504 
L 1965 870 
z
" transform="scale(0.015625)"/>
       <path id="CMR17-72" d="M 960 1497 
C 960 2112 1222 2688 1702 2688 
C 1747 2688 1792 2682 1837 2662 
C 1837 2662 1696 2617 1696 2452 
C 1696 2298 1818 2234 1914 2234 
C 1990 2234 2131 2279 2131 2458 
C 2131 2663 1926 2790 1709 2790 
C 1222 2790 1011 2317 947 2093 
L 941 2093 
L 941 2790 
L 198 2720 
L 198 2554 
C 576 2554 634 2515 634 2208 
L 634 428 
C 634 184 608 153 198 153 
L 198 -13 
C 352 0 646 0 813 0 
C 998 0 1325 0 1498 -13 
L 1498 153 
C 1037 153 960 153 960 440 
L 960 1497 
z
" transform="scale(0.015625)"/>
       <path id="CMR17-69" d="M 992 3909 
C 992 4049 877 4170 730 4170 
C 589 4170 467 4056 467 3909 
C 467 3769 582 3648 730 3648 
C 870 3648 992 3763 992 3909 
z
M 243 2706 
L 243 2541 
C 602 2541 653 2502 653 2197 
L 653 427 
C 653 184 627 153 218 153 
L 218 -13 
C 371 0 646 0 806 0 
C 960 0 1222 0 1370 -13 
L 1370 153 
C 992 153 979 191 979 420 
L 979 2776 
L 243 2706 
z
" transform="scale(0.015625)"/>
       <path id="CMR17-74" d="M 966 2560 
L 1862 2560 
L 1862 2725 
L 966 2725 
L 966 3904 
L 851 3904 
C 838 3245 614 2668 70 2668 
L 70 2560 
L 627 2560 
L 627 771 
C 627 650 627 -64 1370 -64 
C 1747 -64 1965 306 1965 777 
L 1965 1140 
L 1850 1140 
L 1850 783 
C 1850 344 1677 51 1408 51 
C 1222 51 966 178 966 758 
L 966 2560 
z
" transform="scale(0.015625)"/>
       <path id="CMR17-4d" d="M 1338 4224 
C 1299 4320 1293 4320 1158 4320 
L 339 4320 
L 339 4160 
C 781 4160 851 4160 851 3875 
L 851 610 
C 851 451 851 153 339 153 
L 339 -13 
C 486 0 755 0 915 0 
C 1075 0 1344 0 1491 -13 
L 1491 153 
C 979 153 979 451 979 610 
L 979 4135 
L 986 4135 
L 2490 89 
C 2515 25 2528 -13 2579 -13 
C 2630 -13 2643 25 2669 89 
L 4186 4166 
L 4192 4166 
L 4192 438 
C 4192 153 4122 153 3680 153 
L 3680 -13 
C 3853 0 4198 0 4384 0 
C 4570 0 4922 0 5094 -13 
L 5094 153 
C 4653 153 4582 153 4582 438 
L 4582 3875 
C 4582 4160 4653 4160 5094 4160 
L 5094 4320 
L 4282 4320 
C 4147 4320 4141 4314 4102 4218 
L 2720 502 
L 1338 4224 
z
" transform="scale(0.015625)"/>
       <path id="CMR17-73" d="M 1978 2697 
C 1978 2813 1971 2819 1933 2819 
C 1907 2819 1901 2813 1824 2717 
C 1805 2691 1747 2626 1728 2601 
C 1523 2819 1235 2819 1126 2819 
C 416 2819 160 2447 160 2076 
C 160 1498 813 1365 998 1325 
C 1402 1243 1542 1217 1677 1101 
C 1760 1025 1901 884 1901 654 
C 1901 384 1747 38 1158 38 
C 602 38 403 460 288 1021 
C 269 1110 269 1117 218 1117 
C 166 1117 160 1110 160 983 
L 160 63 
C 160 -51 166 -58 205 -58 
C 237 -58 243 -51 275 0 
C 314 57 410 211 448 276 
C 576 103 800 -64 1158 -64 
C 1792 -64 2131 283 2131 784 
C 2131 1112 1958 1285 1875 1362 
C 1683 1561 1459 1606 1190 1657 
C 838 1735 390 1825 390 2217 
C 390 2383 480 2737 1126 2737 
C 1811 2737 1850 2094 1862 1888 
C 1869 1856 1901 1849 1920 1849 
C 1978 1849 1978 1869 1978 1978 
L 1978 2697 
z
" transform="scale(0.015625)"/>
       <path id="CMR17-6f" d="M 2758 1356 
C 2758 2176 2163 2816 1466 2816 
C 768 2816 173 2176 173 1356 
C 173 551 768 -64 1466 -64 
C 2163 -64 2758 551 2758 1356 
z
M 1466 51 
C 1165 51 909 230 762 480 
C 602 767 582 1126 582 1408 
C 582 1677 595 2010 762 2298 
C 890 2509 1139 2714 1466 2714 
C 1754 2714 1997 2554 2150 2330 
C 2349 2029 2349 1607 2349 1408 
C 2349 1158 2336 775 2163 467 
C 1984 173 1709 51 1466 51 
z
" transform="scale(0.015625)"/>
       <path id="CMR17-66" d="M 979 2560 
L 1709 2560 
L 1709 2725 
L 966 2725 
L 966 3494 
C 966 4022 1235 4352 1510 4352 
C 1594 4352 1690 4327 1754 4282 
C 1702 4269 1568 4225 1568 4067 
C 1568 3901 1696 3850 1786 3850 
C 1875 3850 2003 3901 2003 4067 
C 2003 4308 1773 4454 1517 4454 
C 1152 4454 653 4156 653 3481 
L 653 2725 
L 141 2725 
L 141 2560 
L 653 2560 
L 653 427 
C 653 184 627 153 218 153 
L 218 -13 
C 371 0 666 0 832 0 
C 1018 0 1344 0 1517 -13 
L 1517 153 
C 1056 153 979 153 979 439 
L 979 2560 
z
" transform="scale(0.015625)"/>
       <path id="CMMI12-4b" d="M 3200 2571 
C 3194 2590 3168 2641 3168 2661 
C 3168 2667 3174 2673 3283 2756 
L 3904 3242 
C 4762 3905 5043 4128 5485 4167 
C 5530 4167 5594 4167 5594 4282 
C 5594 4320 5574 4352 5523 4352 
C 5453 4352 5376 4352 5306 4352 
L 5062 4352 
C 4864 4352 4653 4352 4461 4352 
C 4416 4352 4339 4352 4339 4237 
C 4339 4173 4384 4167 4422 4167 
C 4493 4160 4576 4135 4576 4046 
C 4576 3919 4384 3765 4333 3727 
L 1824 1784 
L 2355 3887 
C 2413 4103 2426 4167 2880 4167 
C 3002 4167 3059 4167 3059 4288 
C 3059 4352 2995 4352 2963 4352 
C 2848 4352 2714 4352 2592 4352 
L 1837 4352 
C 1722 4352 1581 4352 1466 4352 
C 1414 4352 1344 4352 1344 4231 
C 1344 4167 1402 4167 1498 4167 
C 1888 4167 1888 4116 1888 4046 
C 1888 4034 1888 3995 1862 3899 
L 998 472 
C 941 249 928 185 480 185 
C 358 185 294 185 294 70 
C 294 0 352 0 390 0 
C 512 0 640 0 762 0 
L 1510 0 
C 1632 0 1766 0 1888 0 
C 1939 0 2010 0 2010 121 
C 2010 185 1952 185 1856 185 
C 1466 185 1466 236 1466 300 
C 1466 345 1504 504 1530 606 
L 1779 1593 
L 2752 2351 
C 2938 1943 3277 1128 3539 505 
C 3558 466 3571 428 3571 383 
C 3571 185 3315 185 3258 185 
C 3200 185 3136 185 3136 64 
C 3136 0 3206 0 3226 0 
C 3450 0 3686 0 3910 0 
L 4218 0 
C 4314 0 4422 0 4518 0 
C 4557 0 4627 0 4627 121 
C 4627 185 4570 185 4506 185 
C 4269 185 4186 236 4090 466 
L 3200 2571 
z
" transform="scale(0.015625)"/>
       <path id="CMMI12-53" d="M 4064 4423 
C 4064 4480 4019 4480 4006 4480 
C 3981 4480 3974 4474 3898 4378 
C 3859 4333 3597 4001 3590 3995 
C 3379 4410 2957 4480 2688 4480 
C 1875 4480 1139 3743 1139 3025 
C 1139 2549 1427 2269 1741 2161 
C 1811 2135 2189 2033 2381 1989 
C 2707 1900 2790 1875 2925 1735 
C 2950 1703 3078 1557 3078 1258 
C 3078 667 2528 57 1888 57 
C 1363 57 781 280 781 991 
C 781 1112 806 1265 826 1328 
C 826 1348 832 1378 832 1391 
C 832 1417 819 1449 768 1449 
C 710 1449 704 1436 678 1328 
L 352 24 
C 352 18 326 -64 326 -71 
C 326 -128 378 -128 390 -128 
C 416 -128 422 -122 499 -26 
L 794 356 
C 947 126 1280 -128 1875 -128 
C 2701 -128 3456 666 3456 1460 
C 3456 1728 3392 1963 3149 2197 
C 3014 2331 2899 2363 2310 2516 
C 1882 2630 1824 2649 1709 2751 
C 1600 2858 1517 3011 1517 3227 
C 1517 3761 2061 4308 2669 4308 
C 3296 4308 3590 3926 3590 3323 
C 3590 3158 3558 2986 3558 2961 
C 3558 2903 3610 2903 3629 2903 
C 3686 2903 3693 2922 3718 3024 
L 4064 4423 
z
" transform="scale(0.015625)"/>
       <path id="CMMI12-3b" d="M 1248 -31 
C 1248 343 1126 619 864 619 
C 659 619 557 453 557 313 
C 557 172 653 0 870 0 
C 954 0 1024 26 1082 83 
C 1094 96 1101 96 1107 96 
C 1120 96 1120 5 1120 -27 
C 1120 -240 1082 -659 710 -1080 
C 640 -1157 640 -1170 640 -1183 
C 640 -1216 672 -1248 704 -1248 
C 755 -1248 1248 -771 1248 -31 
z
" transform="scale(0.015625)"/>
       <path id="CMMI12-42" d="M 2342 3921 
C 2400 4160 2426 4160 2675 4160 
L 3507 4160 
C 4230 4160 4230 3544 4230 3485 
C 4230 2966 3712 2304 2867 2304 
L 1946 2304 
L 2342 3921 
z
M 3424 2275 
C 4122 2402 4755 2886 4755 3473 
C 4755 3970 4314 4352 3590 4352 
L 1536 4352 
C 1414 4352 1357 4352 1357 4226 
C 1357 4160 1414 4160 1510 4160 
C 1901 4160 1901 4112 1901 4044 
C 1901 4032 1901 3993 1875 3897 
L 1011 472 
C 954 249 941 185 493 185 
C 371 185 307 185 307 70 
C 307 0 346 0 474 0 
L 2669 0 
C 3648 0 4403 739 4403 1383 
C 4403 1906 3942 2224 3424 2275 
z
M 2515 185 
L 1651 185 
C 1562 185 1549 185 1510 192 
C 1440 198 1434 211 1434 261 
C 1434 305 1446 343 1459 399 
L 1907 2176 
L 3110 2176 
C 3866 2176 3866 1483 3866 1433 
C 3866 828 3309 185 2515 185 
z
" transform="scale(0.015625)"/>
       <path id="CMMI12-70" d="M 275 -789 
C 230 -980 205 -1031 -58 -1031 
C -134 -1031 -198 -1031 -198 -1152 
C -198 -1165 -192 -1216 -122 -1216 
C -38 -1216 51 -1216 134 -1216 
L 410 -1216 
C 544 -1216 870 -1216 1005 -1216 
C 1043 -1216 1120 -1216 1120 -1101 
C 1120 -1031 1075 -1031 966 -1031 
C 672 -1031 653 -987 653 -937 
C 653 -861 941 219 979 364 
C 1050 185 1222 -64 1555 -64 
C 2278 -64 3059 875 3059 1814 
C 3059 2401 2726 2816 2246 2816 
C 1837 2816 1491 2420 1421 2331 
C 1370 2650 1120 2816 864 2816 
C 678 2816 531 2727 410 2484 
C 294 2254 205 1865 205 1839 
C 205 1814 230 1782 275 1782 
C 326 1782 333 1788 371 1935 
C 467 2312 589 2689 845 2689 
C 992 2689 1043 2587 1043 2397 
C 1043 2245 1024 2181 998 2067 
L 275 -789 
z
M 1382 1993 
C 1427 2171 1606 2357 1709 2446 
C 1779 2510 1990 2689 2234 2689 
C 2515 2689 2643 2408 2643 2076 
C 2643 1769 2464 1047 2304 715 
C 2144 370 1850 64 1555 64 
C 1120 64 1050 613 1050 639 
C 1050 658 1062 709 1069 741 
L 1382 1993 
z
" transform="scale(0.015625)"/>
       <path id="CMR17-28" d="M 1958 -1561 
C 1958 -1555 1958 -1542 1939 -1523 
C 1645 -1224 858 -407 858 1581 
C 858 3569 1632 4379 1946 4697 
C 1946 4704 1958 4717 1958 4736 
C 1958 4755 1939 4768 1914 4768 
C 1843 4768 1299 4296 986 3594 
C 666 2887 576 2199 576 1588 
C 576 1128 621 351 1005 -471 
C 1312 -1135 1837 -1600 1914 -1600 
C 1946 -1600 1958 -1587 1958 -1561 
z
" transform="scale(0.015625)"/>
       <path id="CMR17-47" d="M 3974 1233 
C 3974 1473 3994 1505 4390 1505 
L 4390 1670 
C 4237 1664 3891 1664 3718 1664 
C 3539 1664 3040 1664 2797 1664 
L 2797 1505 
L 2989 1505 
C 3539 1505 3552 1434 3552 1201 
L 3552 774 
C 3552 63 2720 63 2522 63 
C 1862 63 781 511 781 2160 
C 781 3808 1843 4250 2464 4250 
C 3187 4250 3712 3626 3834 2741 
C 3846 2664 3846 2651 3904 2651 
C 3974 2651 3974 2664 3974 2779 
L 3974 4288 
C 3974 4402 3968 4409 3930 4409 
C 3904 4409 3898 4402 3853 4326 
L 3571 3791 
C 3258 4187 2874 4416 2381 4416 
C 1286 4416 294 3456 294 2148 
C 294 845 1267 -128 2394 -128 
C 2912 -128 3418 56 3616 417 
C 3725 158 3904 -20 3936 -20 
C 3968 -20 3974 -13 3974 100 
L 3974 1233 
z
" transform="scale(0.015625)"/>
       <path id="CMR17-65" d="M 2438 1472 
C 2464 1498 2464 1511 2464 1576 
C 2464 2238 2118 2816 1389 2816 
C 710 2816 173 2169 173 1383 
C 173 551 781 -64 1459 -64 
C 2176 -64 2458 607 2458 740 
C 2458 784 2419 784 2406 784 
C 2362 784 2355 771 2330 696 
C 2189 265 1837 51 1504 51 
C 1229 51 954 203 781 480 
C 582 803 582 1176 582 1472 
L 2438 1472 
z
M 589 1568 
C 634 2505 1126 2714 1382 2714 
C 1818 2714 2112 2297 2118 1568 
L 589 1568 
z
" transform="scale(0.015625)"/>
       <path id="CMR17-56" d="M 3776 3745 
C 3834 3886 3936 4160 4365 4160 
L 4365 4332 
C 4218 4319 4051 4319 3891 4319 
C 3738 4319 3475 4319 3328 4332 
L 3328 4160 
C 3648 4160 3661 3936 3661 3898 
C 3661 3827 3642 3783 3622 3732 
L 2362 446 
L 1043 3886 
C 1024 3931 1011 3963 1011 3994 
C 1011 4160 1267 4160 1402 4160 
L 1402 4319 
C 1197 4319 896 4319 685 4319 
C 518 4319 218 4319 64 4332 
L 64 4160 
C 435 4160 506 4135 582 3931 
L 2106 -26 
C 2138 -115 2144 -128 2214 -128 
C 2285 -128 2291 -115 2323 -26 
L 3776 3745 
z
" transform="scale(0.015625)"/>
       <path id="CMR17-2f" d="M 2605 4545 
C 2637 4627 2637 4640 2637 4653 
C 2637 4729 2579 4768 2528 4768 
C 2451 4768 2426 4717 2400 4640 
L 326 -1377 
C 294 -1460 294 -1473 294 -1486 
C 294 -1562 352 -1600 403 -1600 
C 480 -1600 506 -1549 531 -1473 
L 2605 4545 
z
" transform="scale(0.015625)"/>
       <path id="CMMI12-63" d="M 2502 2431 
C 2381 2431 2323 2431 2234 2355 
C 2195 2323 2125 2227 2125 2125 
C 2125 1997 2221 1920 2342 1920 
C 2496 1920 2669 2044 2669 2292 
C 2669 2588 2374 2816 1933 2816 
C 1094 2816 256 1903 256 996 
C 256 441 602 -64 1254 -64 
C 2125 -64 2675 622 2675 706 
C 2675 744 2637 776 2611 776 
C 2592 776 2586 770 2528 713 
C 2118 162 1510 64 1267 64 
C 826 64 685 446 685 764 
C 685 988 794 1605 1024 2039 
C 1190 2338 1536 2682 1939 2682 
C 2022 2682 2374 2682 2502 2431 
z
" transform="scale(0.015625)"/>
       <path id="CMR17-29" d="M 1683 1581 
C 1683 2040 1638 2817 1254 3639 
C 947 4303 422 4768 346 4768 
C 326 4768 301 4761 301 4729 
C 301 4717 307 4710 314 4697 
C 621 4378 1402 3568 1402 1584 
C 1402 -407 627 -1217 314 -1537 
C 307 -1549 301 -1556 301 -1568 
C 301 -1600 326 -1600 346 -1600 
C 416 -1600 960 -1128 1274 -426 
C 1594 281 1683 969 1683 1581 
z
" transform="scale(0.015625)"/>
      </defs>
      <use xlink:href="#CMR17-49" transform="scale(0.996264)"/>
      <use xlink:href="#CMR17-6e" transform="translate(32.638409 0) scale(0.996264)"/>
      <use xlink:href="#CMR17-76" transform="translate(80.931325 0) scale(0.996264)"/>
      <use xlink:href="#CMR17-61" transform="translate(124.019424 0) scale(0.996264)"/>
      <use xlink:href="#CMR17-72" transform="translate(169.709901 0) scale(0.996264)"/>
      <use xlink:href="#CMR17-69" transform="translate(204.990669 0) scale(0.996264)"/>
      <use xlink:href="#CMR17-61" transform="translate(229.861728 0) scale(0.996264)"/>
      <use xlink:href="#CMR17-6e" transform="translate(275.552205 0) scale(0.996264)"/>
      <use xlink:href="#CMR17-74" transform="translate(323.845121 0) scale(0.996264)"/>
      <use xlink:href="#CMR17-4d" transform="translate(389.201855 0) scale(0.996264)"/>
      <use xlink:href="#CMR17-61" transform="translate(473.888795 0) scale(0.996264)"/>
      <use xlink:href="#CMR17-73" transform="translate(519.579272 0) scale(0.996264)"/>
      <use xlink:href="#CMR17-73" transform="translate(555.38061 0) scale(0.996264)"/>
      <use xlink:href="#CMR17-6f" transform="translate(621.257914 0) scale(0.996264)"/>
      <use xlink:href="#CMR17-66" transform="translate(666.948391 0) scale(0.996264)"/>
      <use xlink:href="#CMMI12-4b" transform="translate(724.49787 0) scale(0.996264)"/>
      <use xlink:href="#CMR17-30" transform="translate(814.645291 36.153639) scale(0.697382)"/>
      <use xlink:href="#CMMI12-53" transform="translate(807.490481 -27.44057) scale(0.697382)"/>
      <use xlink:href="#CMMI12-3b" transform="translate(849.752789 -27.44057) scale(0.697382)"/>
      <use xlink:href="#CMMI12-42" transform="translate(868.720721 -27.44057) scale(0.697382)"/>
      <use xlink:href="#CMMI12-70" transform="translate(924.613479 0) scale(0.996264)"/>
      <use xlink:href="#CMR17-28" transform="translate(1003.64896 0) scale(0.996264)"/>
      <use xlink:href="#CMR17-47" transform="translate(1038.929728 0) scale(0.996264)"/>
      <use xlink:href="#CMR17-65" transform="translate(1111.285074 0) scale(0.996264)"/>
      <use xlink:href="#CMR17-56" transform="translate(1151.770734 0) scale(0.996264)"/>
      <use xlink:href="#CMR17-2f" transform="translate(1220.843164 0) scale(0.996264)"/>
      <use xlink:href="#CMMI12-63" transform="translate(1266.533641 0) scale(0.996264)"/>
      <use xlink:href="#CMR17-32" transform="translate(1308.516875 36.153639) scale(0.697382)"/>
      <use xlink:href="#CMR17-29" transform="translate(1340.998189 0) scale(0.996264)"/>
     </g>
    </g>
   </g>
   <g id="matplotlib.axis_2">
    <g id="ytick_1">
     <g id="line2d_53">
      <defs>
       <path id="m49aa375bfc" d="M 0 0 
L 4 0 
" style="stroke: #000000; stroke-width: 1.2"/>
      </defs>
      <g>
       <use xlink:href="#m49aa375bfc" x="40.244285" y="187.434647" style="stroke: #000000; stroke-width: 1.2"/>
      </g>
     </g>
     <g id="line2d_54">
      <defs>
       <path id="m88e3fd77d9" d="M 0 0 
L -4 0 
" style="stroke: #000000; stroke-width: 1.2"/>
      </defs>
      <g>
       <use xlink:href="#m88e3fd77d9" x="360" y="187.434647" style="stroke: #000000; stroke-width: 1.2"/>
      </g>
     </g>
     <g id="text_7">
      <!-- $\mathdefault{0}$ -->
      <g transform="translate(31.762949 190.893896) scale(0.1 -0.1)">
       <use xlink:href="#CMR17-30" transform="scale(0.996264)"/>
      </g>
     </g>
    </g>
    <g id="ytick_2">
     <g id="line2d_55">
      <g>
       <use xlink:href="#m49aa375bfc" x="40.244285" y="149.918196" style="stroke: #000000; stroke-width: 1.2"/>
      </g>
     </g>
     <g id="line2d_56">
      <g>
       <use xlink:href="#m88e3fd77d9" x="360" y="149.918196" style="stroke: #000000; stroke-width: 1.2"/>
      </g>
     </g>
     <g id="text_8">
      <!-- $\mathdefault{200}$ -->
      <g transform="translate(21.800279 153.377445) scale(0.1 -0.1)">
       <use xlink:href="#CMR17-32" transform="scale(0.996264)"/>
       <use xlink:href="#CMR17-30" transform="translate(45.690477 0) scale(0.996264)"/>
       <use xlink:href="#CMR17-30" transform="translate(91.380954 0) scale(0.996264)"/>
      </g>
     </g>
    </g>
    <g id="ytick_3">
     <g id="line2d_57">
      <g>
       <use xlink:href="#m49aa375bfc" x="40.244285" y="112.401744" style="stroke: #000000; stroke-width: 1.2"/>
      </g>
     </g>
     <g id="line2d_58">
      <g>
       <use xlink:href="#m88e3fd77d9" x="360" y="112.401744" style="stroke: #000000; stroke-width: 1.2"/>
      </g>
     </g>
     <g id="text_9">
      <!-- $\mathdefault{400}$ -->
      <g transform="translate(21.800279 115.860993) scale(0.1 -0.1)">
       <defs>
        <path id="CMR17-34" d="M 2150 4122 
C 2150 4256 2144 4256 2029 4256 
L 128 1254 
L 128 1088 
L 1779 1088 
L 1779 457 
C 1779 224 1766 160 1318 160 
L 1197 160 
L 1197 0 
C 1402 0 1747 0 1965 0 
C 2182 0 2528 0 2733 0 
L 2733 160 
L 2611 160 
C 2163 160 2150 224 2150 457 
L 2150 1088 
L 2803 1088 
L 2803 1254 
L 2150 1254 
L 2150 4122 
z
M 1798 3703 
L 1798 1254 
L 256 1254 
L 1798 3703 
z
" transform="scale(0.015625)"/>
       </defs>
       <use xlink:href="#CMR17-34" transform="scale(0.996264)"/>
       <use xlink:href="#CMR17-30" transform="translate(45.690477 0) scale(0.996264)"/>
       <use xlink:href="#CMR17-30" transform="translate(91.380954 0) scale(0.996264)"/>
      </g>
     </g>
    </g>
    <g id="ytick_4">
     <g id="line2d_59">
      <g>
       <use xlink:href="#m49aa375bfc" x="40.244285" y="74.885293" style="stroke: #000000; stroke-width: 1.2"/>
      </g>
     </g>
     <g id="line2d_60">
      <g>
       <use xlink:href="#m88e3fd77d9" x="360" y="74.885293" style="stroke: #000000; stroke-width: 1.2"/>
      </g>
     </g>
     <g id="text_10">
      <!-- $\mathdefault{600}$ -->
      <g transform="translate(21.800279 78.344542) scale(0.1 -0.1)">
       <defs>
        <path id="CMR17-36" d="M 678 2176 
C 678 3690 1395 4032 1811 4032 
C 1946 4032 2272 4009 2400 3776 
C 2298 3776 2106 3776 2106 3553 
C 2106 3381 2246 3323 2336 3323 
C 2394 3323 2566 3348 2566 3560 
C 2566 3954 2246 4179 1805 4179 
C 1043 4179 243 3390 243 1984 
C 243 253 966 -128 1478 -128 
C 2099 -128 2688 427 2688 1283 
C 2688 2081 2170 2662 1517 2662 
C 1126 2662 838 2407 678 1960 
L 678 2176 
z
M 1478 25 
C 691 25 691 1200 691 1436 
C 691 1896 909 2560 1504 2560 
C 1613 2560 1926 2560 2138 2120 
C 2253 1870 2253 1609 2253 1289 
C 2253 944 2253 690 2118 434 
C 1978 171 1773 25 1478 25 
z
" transform="scale(0.015625)"/>
       </defs>
       <use xlink:href="#CMR17-36" transform="scale(0.996264)"/>
       <use xlink:href="#CMR17-30" transform="translate(45.690477 0) scale(0.996264)"/>
       <use xlink:href="#CMR17-30" transform="translate(91.380954 0) scale(0.996264)"/>
      </g>
     </g>
    </g>
    <g id="ytick_5">
     <g id="line2d_61">
      <g>
       <use xlink:href="#m49aa375bfc" x="40.244285" y="37.368841" style="stroke: #000000; stroke-width: 1.2"/>
      </g>
     </g>
     <g id="line2d_62">
      <g>
       <use xlink:href="#m88e3fd77d9" x="360" y="37.368841" style="stroke: #000000; stroke-width: 1.2"/>
      </g>
     </g>
     <g id="text_11">
      <!-- $\mathdefault{800}$ -->
      <g transform="translate(21.800279 40.828091) scale(0.1 -0.1)">
       <defs>
        <path id="CMR17-38" d="M 1741 2264 
C 2144 2467 2554 2773 2554 3263 
C 2554 3841 1990 4179 1472 4179 
C 890 4179 378 3759 378 3180 
C 378 3021 416 2747 666 2505 
C 730 2442 998 2251 1171 2130 
C 883 1983 211 1634 211 934 
C 211 279 838 -128 1459 -128 
C 2144 -128 2720 362 2720 1010 
C 2720 1590 2330 1857 2074 2029 
L 1741 2264 
z
M 902 2822 
C 851 2854 595 3051 595 3351 
C 595 3739 998 4032 1459 4032 
C 1965 4032 2336 3676 2336 3262 
C 2336 2669 1670 2331 1638 2331 
C 1632 2331 1626 2331 1574 2370 
L 902 2822 
z
M 2080 1519 
C 2176 1449 2483 1240 2483 851 
C 2483 381 2010 25 1472 25 
C 890 25 448 438 448 940 
C 448 1443 838 1862 1280 2060 
L 2080 1519 
z
" transform="scale(0.015625)"/>
       </defs>
       <use xlink:href="#CMR17-38" transform="scale(0.996264)"/>
       <use xlink:href="#CMR17-30" transform="translate(45.690477 0) scale(0.996264)"/>
       <use xlink:href="#CMR17-30" transform="translate(91.380954 0) scale(0.996264)"/>
      </g>
     </g>
    </g>
    <g id="ytick_6">
     <g id="line2d_63">
      <defs>
       <path id="m953228dc97" d="M 0 0 
L 2.5 0 
" style="stroke: #000000; stroke-width: 0.8"/>
      </defs>
      <g>
       <use xlink:href="#m953228dc97" x="40.244285" y="178.055534" style="stroke: #000000; stroke-width: 0.8"/>
      </g>
     </g>
     <g id="line2d_64">
      <defs>
       <path id="me557b6ec51" d="M 0 0 
L -2.5 0 
" style="stroke: #000000; stroke-width: 0.8"/>
      </defs>
      <g>
       <use xlink:href="#me557b6ec51" x="360" y="178.055534" style="stroke: #000000; stroke-width: 0.8"/>
      </g>
     </g>
    </g>
    <g id="ytick_7">
     <g id="line2d_65">
      <g>
       <use xlink:href="#m953228dc97" x="40.244285" y="168.676421" style="stroke: #000000; stroke-width: 0.8"/>
      </g>
     </g>
     <g id="line2d_66">
      <g>
       <use xlink:href="#me557b6ec51" x="360" y="168.676421" style="stroke: #000000; stroke-width: 0.8"/>
      </g>
     </g>
    </g>
    <g id="ytick_8">
     <g id="line2d_67">
      <g>
       <use xlink:href="#m953228dc97" x="40.244285" y="159.297308" style="stroke: #000000; stroke-width: 0.8"/>
      </g>
     </g>
     <g id="line2d_68">
      <g>
       <use xlink:href="#me557b6ec51" x="360" y="159.297308" style="stroke: #000000; stroke-width: 0.8"/>
      </g>
     </g>
    </g>
    <g id="ytick_9">
     <g id="line2d_69">
      <g>
       <use xlink:href="#m953228dc97" x="40.244285" y="140.539083" style="stroke: #000000; stroke-width: 0.8"/>
      </g>
     </g>
     <g id="line2d_70">
      <g>
       <use xlink:href="#me557b6ec51" x="360" y="140.539083" style="stroke: #000000; stroke-width: 0.8"/>
      </g>
     </g>
    </g>
    <g id="ytick_10">
     <g id="line2d_71">
      <g>
       <use xlink:href="#m953228dc97" x="40.244285" y="131.15997" style="stroke: #000000; stroke-width: 0.8"/>
      </g>
     </g>
     <g id="line2d_72">
      <g>
       <use xlink:href="#me557b6ec51" x="360" y="131.15997" style="stroke: #000000; stroke-width: 0.8"/>
      </g>
     </g>
    </g>
    <g id="ytick_11">
     <g id="line2d_73">
      <g>
       <use xlink:href="#m953228dc97" x="40.244285" y="121.780857" style="stroke: #000000; stroke-width: 0.8"/>
      </g>
     </g>
     <g id="line2d_74">
      <g>
       <use xlink:href="#me557b6ec51" x="360" y="121.780857" style="stroke: #000000; stroke-width: 0.8"/>
      </g>
     </g>
    </g>
    <g id="ytick_12">
     <g id="line2d_75">
      <g>
       <use xlink:href="#m953228dc97" x="40.244285" y="103.022631" style="stroke: #000000; stroke-width: 0.8"/>
      </g>
     </g>
     <g id="line2d_76">
      <g>
       <use xlink:href="#me557b6ec51" x="360" y="103.022631" style="stroke: #000000; stroke-width: 0.8"/>
      </g>
     </g>
    </g>
    <g id="ytick_13">
     <g id="line2d_77">
      <g>
       <use xlink:href="#m953228dc97" x="40.244285" y="93.643519" style="stroke: #000000; stroke-width: 0.8"/>
      </g>
     </g>
     <g id="line2d_78">
      <g>
       <use xlink:href="#me557b6ec51" x="360" y="93.643519" style="stroke: #000000; stroke-width: 0.8"/>
      </g>
     </g>
    </g>
    <g id="ytick_14">
     <g id="line2d_79">
      <g>
       <use xlink:href="#m953228dc97" x="40.244285" y="84.264406" style="stroke: #000000; stroke-width: 0.8"/>
      </g>
     </g>
     <g id="line2d_80">
      <g>
       <use xlink:href="#me557b6ec51" x="360" y="84.264406" style="stroke: #000000; stroke-width: 0.8"/>
      </g>
     </g>
    </g>
    <g id="ytick_15">
     <g id="line2d_81">
      <g>
       <use xlink:href="#m953228dc97" x="40.244285" y="65.50618" style="stroke: #000000; stroke-width: 0.8"/>
      </g>
     </g>
     <g id="line2d_82">
      <g>
       <use xlink:href="#me557b6ec51" x="360" y="65.50618" style="stroke: #000000; stroke-width: 0.8"/>
      </g>
     </g>
    </g>
    <g id="ytick_16">
     <g id="line2d_83">
      <g>
       <use xlink:href="#m953228dc97" x="40.244285" y="56.127067" style="stroke: #000000; stroke-width: 0.8"/>
      </g>
     </g>
     <g id="line2d_84">
      <g>
       <use xlink:href="#me557b6ec51" x="360" y="56.127067" style="stroke: #000000; stroke-width: 0.8"/>
      </g>
     </g>
    </g>
    <g id="ytick_17">
     <g id="line2d_85">
      <g>
       <use xlink:href="#m953228dc97" x="40.244285" y="46.747954" style="stroke: #000000; stroke-width: 0.8"/>
      </g>
     </g>
     <g id="line2d_86">
      <g>
       <use xlink:href="#me557b6ec51" x="360" y="46.747954" style="stroke: #000000; stroke-width: 0.8"/>
      </g>
     </g>
    </g>
    <g id="ytick_18">
     <g id="line2d_87">
      <g>
       <use xlink:href="#m953228dc97" x="40.244285" y="27.989729" style="stroke: #000000; stroke-width: 0.8"/>
      </g>
     </g>
     <g id="line2d_88">
      <g>
       <use xlink:href="#me557b6ec51" x="360" y="27.989729" style="stroke: #000000; stroke-width: 0.8"/>
      </g>
     </g>
    </g>
    <g id="ytick_19">
     <g id="line2d_89">
      <g>
       <use xlink:href="#m953228dc97" x="40.244285" y="18.610616" style="stroke: #000000; stroke-width: 0.8"/>
      </g>
     </g>
     <g id="line2d_90">
      <g>
       <use xlink:href="#me557b6ec51" x="360" y="18.610616" style="stroke: #000000; stroke-width: 0.8"/>
      </g>
     </g>
    </g>
    <g id="ytick_20">
     <g id="line2d_91">
      <g>
       <use xlink:href="#m953228dc97" x="40.244285" y="9.231503" style="stroke: #000000; stroke-width: 0.8"/>
      </g>
     </g>
     <g id="line2d_92">
      <g>
       <use xlink:href="#me557b6ec51" x="360" y="9.231503" style="stroke: #000000; stroke-width: 0.8"/>
      </g>
     </g>
    </g>
    <g id="text_12">
     <!-- Counts / 20 (MeV/$c^2$) -->
     <g transform="translate(15.309619 146.428969) rotate(-90) scale(0.1 -0.1)">
      <defs>
       <path id="CMR17-43" d="M 3974 4289 
C 3974 4403 3968 4410 3930 4410 
C 3904 4410 3898 4403 3853 4327 
L 3571 3792 
C 3258 4187 2874 4416 2381 4416 
C 1286 4416 294 3456 294 2148 
C 294 826 1286 -128 2387 -128 
C 3366 -128 3974 730 3974 1461 
C 3974 1524 3974 1550 3917 1550 
C 3866 1550 3866 1531 3859 1474 
C 3808 585 3168 38 2477 38 
C 1824 38 781 495 781 2147 
C 781 3805 1843 4250 2464 4250 
C 3187 4250 3712 3628 3834 2745 
C 3846 2668 3846 2655 3904 2655 
C 3974 2655 3974 2668 3974 2783 
L 3974 4289 
z
" transform="scale(0.015625)"/>
       <path id="CMR17-75" d="M 1882 2693 
L 1882 2528 
C 2259 2528 2317 2489 2317 2186 
L 2317 1032 
C 2317 500 2029 38 1555 38 
C 1030 38 986 348 986 678 
L 986 2763 
L 211 2693 
L 211 2528 
C 467 2528 640 2528 646 2274 
L 646 1058 
C 646 633 646 361 813 183 
C 896 101 1056 -64 1517 -64 
C 2061 -64 2272 377 2323 506 
L 2330 506 
L 2330 -63 
L 3091 -63 
L 3091 128 
C 2714 128 2656 166 2656 473 
L 2656 2763 
L 1882 2693 
z
" transform="scale(0.015625)"/>
      </defs>
      <use xlink:href="#CMR17-43" transform="scale(0.996264)"/>
      <use xlink:href="#CMR17-6f" transform="translate(66.509881 0) scale(0.996264)"/>
      <use xlink:href="#CMR17-75" transform="translate(112.200358 0) scale(0.996264)"/>
      <use xlink:href="#CMR17-6e" transform="translate(163.095727 0) scale(0.996264)"/>
      <use xlink:href="#CMR17-74" transform="translate(211.388643 0) scale(0.996264)"/>
      <use xlink:href="#CMR17-73" transform="translate(246.669411 0) scale(0.996264)"/>
      <use xlink:href="#CMR17-2f" transform="translate(312.546715 0) scale(0.996264)"/>
      <use xlink:href="#CMR17-32" transform="translate(388.313159 0) scale(0.996264)"/>
      <use xlink:href="#CMR17-30" transform="translate(434.003636 0) scale(0.996264)"/>
      <use xlink:href="#CMR17-28" transform="translate(509.770079 0) scale(0.996264)"/>
      <use xlink:href="#CMR17-4d" transform="translate(545.050847 0) scale(0.996264)"/>
      <use xlink:href="#CMR17-65" transform="translate(629.737787 0) scale(0.996264)"/>
      <use xlink:href="#CMR17-56" transform="translate(670.223448 0) scale(0.996264)"/>
      <use xlink:href="#CMR17-2f" transform="translate(739.295878 0) scale(0.996264)"/>
      <use xlink:href="#CMMI12-63" transform="translate(784.986355 0) scale(0.996264)"/>
      <use xlink:href="#CMR17-32" transform="translate(826.969589 36.153639) scale(0.697382)"/>
      <use xlink:href="#CMR17-29" transform="translate(859.450902 0) scale(0.996264)"/>
     </g>
    </g>
   </g>
   <g id="LineCollection_1">
    <path d="M 56.042492 187.434647 
L 56.042492 187.434647 
" clip-path="url(#pc129bf283a)" style="fill: none; stroke: #377eb8; stroke-width: 0.5"/>
    <path d="M 58.570205 187.434647 
L 58.570205 187.434647 
" clip-path="url(#pc129bf283a)" style="fill: none; stroke: #377eb8; stroke-width: 0.5"/>
    <path d="M 61.097918 187.434647 
L 61.097918 187.434647 
" clip-path="url(#pc129bf283a)" style="fill: none; stroke: #377eb8; stroke-width: 0.5"/>
    <path d="M 63.625631 187.434647 
L 63.625631 187.434647 
" clip-path="url(#pc129bf283a)" style="fill: none; stroke: #377eb8; stroke-width: 0.5"/>
    <path d="M 66.153345 187.434647 
L 66.153345 187.434647 
" clip-path="url(#pc129bf283a)" style="fill: none; stroke: #377eb8; stroke-width: 0.5"/>
    <path d="M 68.681058 187.434647 
L 68.681058 187.434647 
" clip-path="url(#pc129bf283a)" style="fill: none; stroke: #377eb8; stroke-width: 0.5"/>
    <path d="M 71.208771 187.434647 
L 71.208771 187.434647 
" clip-path="url(#pc129bf283a)" style="fill: none; stroke: #377eb8; stroke-width: 0.5"/>
    <path d="M 73.736484 187.434647 
L 73.736484 187.434647 
" clip-path="url(#pc129bf283a)" style="fill: none; stroke: #377eb8; stroke-width: 0.5"/>
    <path d="M 76.264197 187.490716 
L 76.264197 187.422516 
" clip-path="url(#pc129bf283a)" style="fill: none; stroke: #377eb8; stroke-width: 0.5"/>
    <path d="M 78.79191 187.434647 
L 78.79191 187.434647 
" clip-path="url(#pc129bf283a)" style="fill: none; stroke: #377eb8; stroke-width: 0.5"/>
    <path d="M 81.319624 187.434647 
L 81.319624 187.434647 
" clip-path="url(#pc129bf283a)" style="fill: none; stroke: #377eb8; stroke-width: 0.5"/>
    <path d="M 83.847337 187.491264 
L 83.847337 187.429099 
" clip-path="url(#pc129bf283a)" style="fill: none; stroke: #377eb8; stroke-width: 0.5"/>
    <path d="M 86.37505 187.09767 
L 86.37505 186.311848 
" clip-path="url(#pc129bf283a)" style="fill: none; stroke: #377eb8; stroke-width: 0.5"/>
    <path d="M 88.902763 187.012563 
L 88.902763 186.008296 
" clip-path="url(#pc129bf283a)" style="fill: none; stroke: #377eb8; stroke-width: 0.5"/>
    <path d="M 91.430476 186.935613 
L 91.430476 185.773823 
" clip-path="url(#pc129bf283a)" style="fill: none; stroke: #377eb8; stroke-width: 0.5"/>
    <path d="M 93.958189 183.824834 
L 93.958189 181.657065 
" clip-path="url(#pc129bf283a)" style="fill: none; stroke: #377eb8; stroke-width: 0.5"/>
    <path d="M 96.485903 180.439949 
L 96.485903 177.455011 
" clip-path="url(#pc129bf283a)" style="fill: none; stroke: #377eb8; stroke-width: 0.5"/>
    <path d="M 99.013616 175.211981 
L 99.013616 171.294435 
" clip-path="url(#pc129bf283a)" style="fill: none; stroke: #377eb8; stroke-width: 0.5"/>
    <path d="M 101.541329 169.176069 
L 101.541329 164.369998 
" clip-path="url(#pc129bf283a)" style="fill: none; stroke: #377eb8; stroke-width: 0.5"/>
    <path d="M 104.069042 167.189057 
L 104.069042 162.278476 
" clip-path="url(#pc129bf283a)" style="fill: none; stroke: #377eb8; stroke-width: 0.5"/>
    <path d="M 106.596755 167.676378 
L 106.596755 162.637877 
" clip-path="url(#pc129bf283a)" style="fill: none; stroke: #377eb8; stroke-width: 0.5"/>
    <path d="M 109.124468 163.984618 
L 109.124468 158.446053 
" clip-path="url(#pc129bf283a)" style="fill: none; stroke: #377eb8; stroke-width: 0.5"/>
    <path d="M 111.652182 156.291562 
L 111.652182 150.295049 
" clip-path="url(#pc129bf283a)" style="fill: none; stroke: #377eb8; stroke-width: 0.5"/>
    <path d="M 114.179895 161.181592 
L 114.179895 155.5072 
" clip-path="url(#pc129bf283a)" style="fill: none; stroke: #377eb8; stroke-width: 0.5"/>
    <path d="M 116.707608 157.293755 
L 116.707608 151.142053 
" clip-path="url(#pc129bf283a)" style="fill: none; stroke: #377eb8; stroke-width: 0.5"/>
    <path d="M 119.235321 153.186125 
L 119.235321 146.726351 
" clip-path="url(#pc129bf283a)" style="fill: none; stroke: #377eb8; stroke-width: 0.5"/>
    <path d="M 121.763034 149.310272 
L 121.763034 142.587316 
" clip-path="url(#pc129bf283a)" style="fill: none; stroke: #377eb8; stroke-width: 0.5"/>
    <path d="M 124.290747 150.654753 
L 124.290747 143.862329 
" clip-path="url(#pc129bf283a)" style="fill: none; stroke: #377eb8; stroke-width: 0.5"/>
    <path d="M 126.818461 142.463607 
L 126.818461 135.077436 
" clip-path="url(#pc129bf283a)" style="fill: none; stroke: #377eb8; stroke-width: 0.5"/>
    <path d="M 129.346174 139.157117 
L 129.346174 131.545611 
" clip-path="url(#pc129bf283a)" style="fill: none; stroke: #377eb8; stroke-width: 0.5"/>
    <path d="M 131.873887 131.480198 
L 131.873887 123.359659 
" clip-path="url(#pc129bf283a)" style="fill: none; stroke: #377eb8; stroke-width: 0.5"/>
    <path d="M 134.4016 127.974463 
L 134.4016 119.433844 
" clip-path="url(#pc129bf283a)" style="fill: none; stroke: #377eb8; stroke-width: 0.5"/>
    <path d="M 136.929313 121.508258 
L 136.929313 112.57074 
" clip-path="url(#pc129bf283a)" style="fill: none; stroke: #377eb8; stroke-width: 0.5"/>
    <path d="M 139.457026 114.017513 
L 139.457026 104.825361 
" clip-path="url(#pc129bf283a)" style="fill: none; stroke: #377eb8; stroke-width: 0.5"/>
    <path d="M 141.98474 118.993274 
L 141.98474 110.05211 
" clip-path="url(#pc129bf283a)" style="fill: none; stroke: #377eb8; stroke-width: 0.5"/>
    <path d="M 144.512453 107.711198 
L 144.512453 98.257493 
" clip-path="url(#pc129bf283a)" style="fill: none; stroke: #377eb8; stroke-width: 0.5"/>
    <path d="M 147.040166 104.948884 
L 147.040166 95.22066 
" clip-path="url(#pc129bf283a)" style="fill: none; stroke: #377eb8; stroke-width: 0.5"/>
    <path d="M 149.567879 108.905157 
L 149.567879 99.374744 
" clip-path="url(#pc129bf283a)" style="fill: none; stroke: #377eb8; stroke-width: 0.5"/>
    <path d="M 152.095592 96.695918 
L 152.095592 86.534207 
" clip-path="url(#pc129bf283a)" style="fill: none; stroke: #377eb8; stroke-width: 0.5"/>
    <path d="M 154.623305 97.576392 
L 154.623305 87.456509 
" clip-path="url(#pc129bf283a)" style="fill: none; stroke: #377eb8; stroke-width: 0.5"/>
    <path d="M 157.151019 86.788843 
L 157.151019 76.205879 
" clip-path="url(#pc129bf283a)" style="fill: none; stroke: #377eb8; stroke-width: 0.5"/>
    <path d="M 159.678732 92.008322 
L 159.678732 81.631121 
" clip-path="url(#pc129bf283a)" style="fill: none; stroke: #377eb8; stroke-width: 0.5"/>
    <path d="M 162.206445 85.952629 
L 162.206445 75.291753 
" clip-path="url(#pc129bf283a)" style="fill: none; stroke: #377eb8; stroke-width: 0.5"/>
    <path d="M 164.734158 87.075932 
L 164.734158 76.348293 
" clip-path="url(#pc129bf283a)" style="fill: none; stroke: #377eb8; stroke-width: 0.5"/>
    <path d="M 167.261871 78.31763 
L 167.261871 67.22402 
" clip-path="url(#pc129bf283a)" style="fill: none; stroke: #377eb8; stroke-width: 0.5"/>
    <path d="M 169.789584 81.823235 
L 169.789584 70.800813 
" clip-path="url(#pc129bf283a)" style="fill: none; stroke: #377eb8; stroke-width: 0.5"/>
    <path d="M 172.317297 70.250647 
L 172.317297 58.907964 
" clip-path="url(#pc129bf283a)" style="fill: none; stroke: #377eb8; stroke-width: 0.5"/>
    <path d="M 174.845011 72.031155 
L 174.845011 60.618131 
" clip-path="url(#pc129bf283a)" style="fill: none; stroke: #377eb8; stroke-width: 0.5"/>
    <path d="M 177.372724 67.719991 
L 177.372724 56.07391 
" clip-path="url(#pc129bf283a)" style="fill: none; stroke: #377eb8; stroke-width: 0.5"/>
    <path d="M 179.900437 68.550823 
L 179.900437 56.862303 
" clip-path="url(#pc129bf283a)" style="fill: none; stroke: #377eb8; stroke-width: 0.5"/>
    <path d="M 182.42815 61.217551 
L 182.42815 49.292632 
" clip-path="url(#pc129bf283a)" style="fill: none; stroke: #377eb8; stroke-width: 0.5"/>
    <path d="M 184.955863 57.708453 
L 184.955863 45.668841 
" clip-path="url(#pc129bf283a)" style="fill: none; stroke: #377eb8; stroke-width: 0.5"/>
    <path d="M 187.483576 68.404338 
L 187.483576 56.790087 
" clip-path="url(#pc129bf283a)" style="fill: none; stroke: #377eb8; stroke-width: 0.5"/>
    <path d="M 190.01129 56.063927 
L 190.01129 43.995048 
" clip-path="url(#pc129bf283a)" style="fill: none; stroke: #377eb8; stroke-width: 0.5"/>
    <path d="M 192.539003 61.693427 
L 192.539003 49.70065 
" clip-path="url(#pc129bf283a)" style="fill: none; stroke: #377eb8; stroke-width: 0.5"/>
    <path d="M 195.066716 58.259615 
L 195.066716 46.1745 
" clip-path="url(#pc129bf283a)" style="fill: none; stroke: #377eb8; stroke-width: 0.5"/>
    <path d="M 197.594429 54.432429 
L 197.594429 42.223984 
" clip-path="url(#pc129bf283a)" style="fill: none; stroke: #377eb8; stroke-width: 0.5"/>
    <path d="M 200.122142 51.772889 
L 200.122142 39.487306 
" clip-path="url(#pc129bf283a)" style="fill: none; stroke: #377eb8; stroke-width: 0.5"/>
    <path d="M 202.649855 41.524544 
L 202.649855 28.877108 
" clip-path="url(#pc129bf283a)" style="fill: none; stroke: #377eb8; stroke-width: 0.5"/>
    <path d="M 205.177569 51.79697 
L 205.177569 39.417016 
" clip-path="url(#pc129bf283a)" style="fill: none; stroke: #377eb8; stroke-width: 0.5"/>
    <path d="M 207.705282 37.213458 
L 207.705282 24.406496 
" clip-path="url(#pc129bf283a)" style="fill: none; stroke: #377eb8; stroke-width: 0.5"/>
    <path d="M 210.232995 48.903367 
L 210.232995 36.504064 
" clip-path="url(#pc129bf283a)" style="fill: none; stroke: #377eb8; stroke-width: 0.5"/>
    <path d="M 212.760708 35.638642 
L 212.760708 22.68335 
" clip-path="url(#pc129bf283a)" style="fill: none; stroke: #377eb8; stroke-width: 0.5"/>
    <path d="M 215.288421 38.571101 
L 215.288421 25.764078 
" clip-path="url(#pc129bf283a)" style="fill: none; stroke: #377eb8; stroke-width: 0.5"/>
    <path d="M 217.816134 40.159837 
L 217.816134 27.39916 
" clip-path="url(#pc129bf283a)" style="fill: none; stroke: #377eb8; stroke-width: 0.5"/>
    <path d="M 220.343848 36.985824 
L 220.343848 24.049424 
" clip-path="url(#pc129bf283a)" style="fill: none; stroke: #377eb8; stroke-width: 0.5"/>
    <path d="M 222.871561 40.503403 
L 222.871561 27.683624 
" clip-path="url(#pc129bf283a)" style="fill: none; stroke: #377eb8; stroke-width: 0.5"/>
    <path d="M 225.399274 38.212244 
L 225.399274 25.355616 
" clip-path="url(#pc129bf283a)" style="fill: none; stroke: #377eb8; stroke-width: 0.5"/>
    <path d="M 227.926987 39.521681 
L 227.926987 26.657287 
" clip-path="url(#pc129bf283a)" style="fill: none; stroke: #377eb8; stroke-width: 0.5"/>
    <path d="M 230.4547 28.902884 
L 230.4547 15.785298 
" clip-path="url(#pc129bf283a)" style="fill: none; stroke: #377eb8; stroke-width: 0.5"/>
    <path d="M 232.982413 29.138316 
L 232.982413 15.923244 
" clip-path="url(#pc129bf283a)" style="fill: none; stroke: #377eb8; stroke-width: 0.5"/>
    <path d="M 235.510127 44.812488 
L 235.510127 32.032794 
" clip-path="url(#pc129bf283a)" style="fill: none; stroke: #377eb8; stroke-width: 0.5"/>
    <path d="M 238.03784 35.373228 
L 238.03784 22.279105 
" clip-path="url(#pc129bf283a)" style="fill: none; stroke: #377eb8; stroke-width: 0.5"/>
    <path d="M 240.565553 35.446624 
L 240.565553 22.405312 
" clip-path="url(#pc129bf283a)" style="fill: none; stroke: #377eb8; stroke-width: 0.5"/>
    <path d="M 243.093266 34.331046 
L 243.093266 21.259852 
" clip-path="url(#pc129bf283a)" style="fill: none; stroke: #377eb8; stroke-width: 0.5"/>
    <path d="M 245.620979 35.002069 
L 245.620979 22.14735 
" clip-path="url(#pc129bf283a)" style="fill: none; stroke: #377eb8; stroke-width: 0.5"/>
    <path d="M 248.148692 43.390508 
L 248.148692 30.64523 
" clip-path="url(#pc129bf283a)" style="fill: none; stroke: #377eb8; stroke-width: 0.5"/>
    <path d="M 250.676406 47.338839 
L 250.676406 34.862818 
" clip-path="url(#pc129bf283a)" style="fill: none; stroke: #377eb8; stroke-width: 0.5"/>
    <path d="M 253.204119 39.537668 
L 253.204119 26.789589 
" clip-path="url(#pc129bf283a)" style="fill: none; stroke: #377eb8; stroke-width: 0.5"/>
    <path d="M 255.731832 50.754602 
L 255.731832 38.417664 
" clip-path="url(#pc129bf283a)" style="fill: none; stroke: #377eb8; stroke-width: 0.5"/>
    <path d="M 258.259545 47.978961 
L 258.259545 35.483037 
" clip-path="url(#pc129bf283a)" style="fill: none; stroke: #377eb8; stroke-width: 0.5"/>
    <path d="M 260.787258 40.622565 
L 260.787258 27.92227 
" clip-path="url(#pc129bf283a)" style="fill: none; stroke: #377eb8; stroke-width: 0.5"/>
    <path d="M 263.314971 53.330913 
L 263.314971 41.173754 
" clip-path="url(#pc129bf283a)" style="fill: none; stroke: #377eb8; stroke-width: 0.5"/>
    <path d="M 265.842685 72.954688 
L 265.842685 61.533439 
" clip-path="url(#pc129bf283a)" style="fill: none; stroke: #377eb8; stroke-width: 0.5"/>
    <path d="M 268.370398 74.415574 
L 268.370398 63.006915 
" clip-path="url(#pc129bf283a)" style="fill: none; stroke: #377eb8; stroke-width: 0.5"/>
    <path d="M 270.898111 81.699456 
L 270.898111 70.616198 
" clip-path="url(#pc129bf283a)" style="fill: none; stroke: #377eb8; stroke-width: 0.5"/>
    <path d="M 273.425824 84.126778 
L 273.425824 73.218288 
" clip-path="url(#pc129bf283a)" style="fill: none; stroke: #377eb8; stroke-width: 0.5"/>
    <path d="M 275.953537 86.890111 
L 275.953537 76.124189 
" clip-path="url(#pc129bf283a)" style="fill: none; stroke: #377eb8; stroke-width: 0.5"/>
    <path d="M 278.48125 89.328164 
L 278.48125 78.749369 
" clip-path="url(#pc129bf283a)" style="fill: none; stroke: #377eb8; stroke-width: 0.5"/>
    <path d="M 281.008964 102.331252 
L 281.008964 92.359125 
" clip-path="url(#pc129bf283a)" style="fill: none; stroke: #377eb8; stroke-width: 0.5"/>
    <path d="M 283.536677 102.629274 
L 283.536677 92.751266 
" clip-path="url(#pc129bf283a)" style="fill: none; stroke: #377eb8; stroke-width: 0.5"/>
    <path d="M 286.06439 102.42037 
L 286.06439 92.663879 
" clip-path="url(#pc129bf283a)" style="fill: none; stroke: #377eb8; stroke-width: 0.5"/>
    <path d="M 288.592103 110.408298 
L 288.592103 101.024241 
" clip-path="url(#pc129bf283a)" style="fill: none; stroke: #377eb8; stroke-width: 0.5"/>
    <path d="M 291.119816 115.424746 
L 291.119816 106.421299 
" clip-path="url(#pc129bf283a)" style="fill: none; stroke: #377eb8; stroke-width: 0.5"/>
    <path d="M 293.647529 121.809509 
L 293.647529 113.172733 
" clip-path="url(#pc129bf283a)" style="fill: none; stroke: #377eb8; stroke-width: 0.5"/>
    <path d="M 296.175243 133.490895 
L 296.175243 125.545165 
" clip-path="url(#pc129bf283a)" style="fill: none; stroke: #377eb8; stroke-width: 0.5"/>
    <path d="M 298.702956 135.613042 
L 298.702956 127.927293 
" clip-path="url(#pc129bf283a)" style="fill: none; stroke: #377eb8; stroke-width: 0.5"/>
    <path d="M 301.230669 143.833183 
L 301.230669 136.670352 
" clip-path="url(#pc129bf283a)" style="fill: none; stroke: #377eb8; stroke-width: 0.5"/>
    <path d="M 303.758382 152.438651 
L 303.758382 145.898376 
" clip-path="url(#pc129bf283a)" style="fill: none; stroke: #377eb8; stroke-width: 0.5"/>
    <path d="M 306.286095 160.481853 
L 306.286095 154.725206 
" clip-path="url(#pc129bf283a)" style="fill: none; stroke: #377eb8; stroke-width: 0.5"/>
    <path d="M 308.813808 157.834385 
L 308.813808 151.963627 
" clip-path="url(#pc129bf283a)" style="fill: none; stroke: #377eb8; stroke-width: 0.5"/>
    <path d="M 311.341522 169.29519 
L 311.341522 164.390932 
" clip-path="url(#pc129bf283a)" style="fill: none; stroke: #377eb8; stroke-width: 0.5"/>
    <path d="M 313.869235 171.409932 
L 313.869235 166.908343 
" clip-path="url(#pc129bf283a)" style="fill: none; stroke: #377eb8; stroke-width: 0.5"/>
    <path d="M 316.396948 170.999674 
L 316.396948 166.597355 
" clip-path="url(#pc129bf283a)" style="fill: none; stroke: #377eb8; stroke-width: 0.5"/>
    <path d="M 318.924661 173.268286 
L 318.924661 169.122401 
" clip-path="url(#pc129bf283a)" style="fill: none; stroke: #377eb8; stroke-width: 0.5"/>
    <path d="M 321.452374 181.994528 
L 321.452374 179.082429 
" clip-path="url(#pc129bf283a)" style="fill: none; stroke: #377eb8; stroke-width: 0.5"/>
    <path d="M 323.980087 182.108922 
L 323.980087 179.41742 
" clip-path="url(#pc129bf283a)" style="fill: none; stroke: #377eb8; stroke-width: 0.5"/>
    <path d="M 326.507801 182.176352 
L 326.507801 179.60133 
" clip-path="url(#pc129bf283a)" style="fill: none; stroke: #377eb8; stroke-width: 0.5"/>
    <path d="M 329.035514 185.794724 
L 329.035514 184.141045 
" clip-path="url(#pc129bf283a)" style="fill: none; stroke: #377eb8; stroke-width: 0.5"/>
    <path d="M 331.563227 187.257108 
L 331.563227 186.171413 
" clip-path="url(#pc129bf283a)" style="fill: none; stroke: #377eb8; stroke-width: 0.5"/>
    <path d="M 334.09094 187.274014 
L 334.09094 186.548877 
" clip-path="url(#pc129bf283a)" style="fill: none; stroke: #377eb8; stroke-width: 0.5"/>
    <path d="M 336.618653 186.870899 
L 336.618653 185.987391 
" clip-path="url(#pc129bf283a)" style="fill: none; stroke: #377eb8; stroke-width: 0.5"/>
    <path d="M 339.146366 187.429713 
L 339.146366 187.412617 
" clip-path="url(#pc129bf283a)" style="fill: none; stroke: #377eb8; stroke-width: 0.5"/>
    <path d="M 341.67408 187.434647 
L 341.67408 187.434647 
" clip-path="url(#pc129bf283a)" style="fill: none; stroke: #377eb8; stroke-width: 0.5"/>
    <path d="M 344.201793 187.434647 
L 344.201793 187.434647 
" clip-path="url(#pc129bf283a)" style="fill: none; stroke: #377eb8; stroke-width: 0.5"/>
   </g>
   <g id="line2d_93">
    <defs>
     <path id="mb00c2bb855" d="M 1 0 
L -1 -0 
" style="stroke: #377eb8"/>
    </defs>
    <g clip-path="url(#pc129bf283a)">
     <use xlink:href="#mb00c2bb855" x="56.042492" y="187.434647" style="fill: #377eb8; stroke: #377eb8"/>
     <use xlink:href="#mb00c2bb855" x="58.570205" y="187.434647" style="fill: #377eb8; stroke: #377eb8"/>
     <use xlink:href="#mb00c2bb855" x="61.097918" y="187.434647" style="fill: #377eb8; stroke: #377eb8"/>
     <use xlink:href="#mb00c2bb855" x="63.625631" y="187.434647" style="fill: #377eb8; stroke: #377eb8"/>
     <use xlink:href="#mb00c2bb855" x="66.153345" y="187.434647" style="fill: #377eb8; stroke: #377eb8"/>
     <use xlink:href="#mb00c2bb855" x="68.681058" y="187.434647" style="fill: #377eb8; stroke: #377eb8"/>
     <use xlink:href="#mb00c2bb855" x="71.208771" y="187.434647" style="fill: #377eb8; stroke: #377eb8"/>
     <use xlink:href="#mb00c2bb855" x="73.736484" y="187.434647" style="fill: #377eb8; stroke: #377eb8"/>
     <use xlink:href="#mb00c2bb855" x="76.264197" y="187.490716" style="fill: #377eb8; stroke: #377eb8"/>
     <use xlink:href="#mb00c2bb855" x="78.79191" y="187.434647" style="fill: #377eb8; stroke: #377eb8"/>
     <use xlink:href="#mb00c2bb855" x="81.319624" y="187.434647" style="fill: #377eb8; stroke: #377eb8"/>
     <use xlink:href="#mb00c2bb855" x="83.847337" y="187.491264" style="fill: #377eb8; stroke: #377eb8"/>
     <use xlink:href="#mb00c2bb855" x="86.37505" y="187.09767" style="fill: #377eb8; stroke: #377eb8"/>
     <use xlink:href="#mb00c2bb855" x="88.902763" y="187.012563" style="fill: #377eb8; stroke: #377eb8"/>
     <use xlink:href="#mb00c2bb855" x="91.430476" y="186.935613" style="fill: #377eb8; stroke: #377eb8"/>
     <use xlink:href="#mb00c2bb855" x="93.958189" y="183.824834" style="fill: #377eb8; stroke: #377eb8"/>
     <use xlink:href="#mb00c2bb855" x="96.485903" y="180.439949" style="fill: #377eb8; stroke: #377eb8"/>
     <use xlink:href="#mb00c2bb855" x="99.013616" y="175.211981" style="fill: #377eb8; stroke: #377eb8"/>
     <use xlink:href="#mb00c2bb855" x="101.541329" y="169.176069" style="fill: #377eb8; stroke: #377eb8"/>
     <use xlink:href="#mb00c2bb855" x="104.069042" y="167.189057" style="fill: #377eb8; stroke: #377eb8"/>
     <use xlink:href="#mb00c2bb855" x="106.596755" y="167.676378" style="fill: #377eb8; stroke: #377eb8"/>
     <use xlink:href="#mb00c2bb855" x="109.124468" y="163.984618" style="fill: #377eb8; stroke: #377eb8"/>
     <use xlink:href="#mb00c2bb855" x="111.652182" y="156.291562" style="fill: #377eb8; stroke: #377eb8"/>
     <use xlink:href="#mb00c2bb855" x="114.179895" y="161.181592" style="fill: #377eb8; stroke: #377eb8"/>
     <use xlink:href="#mb00c2bb855" x="116.707608" y="157.293755" style="fill: #377eb8; stroke: #377eb8"/>
     <use xlink:href="#mb00c2bb855" x="119.235321" y="153.186125" style="fill: #377eb8; stroke: #377eb8"/>
     <use xlink:href="#mb00c2bb855" x="121.763034" y="149.310272" style="fill: #377eb8; stroke: #377eb8"/>
     <use xlink:href="#mb00c2bb855" x="124.290747" y="150.654753" style="fill: #377eb8; stroke: #377eb8"/>
     <use xlink:href="#mb00c2bb855" x="126.818461" y="142.463607" style="fill: #377eb8; stroke: #377eb8"/>
     <use xlink:href="#mb00c2bb855" x="129.346174" y="139.157117" style="fill: #377eb8; stroke: #377eb8"/>
     <use xlink:href="#mb00c2bb855" x="131.873887" y="131.480198" style="fill: #377eb8; stroke: #377eb8"/>
     <use xlink:href="#mb00c2bb855" x="134.4016" y="127.974463" style="fill: #377eb8; stroke: #377eb8"/>
     <use xlink:href="#mb00c2bb855" x="136.929313" y="121.508258" style="fill: #377eb8; stroke: #377eb8"/>
     <use xlink:href="#mb00c2bb855" x="139.457026" y="114.017513" style="fill: #377eb8; stroke: #377eb8"/>
     <use xlink:href="#mb00c2bb855" x="141.98474" y="118.993274" style="fill: #377eb8; stroke: #377eb8"/>
     <use xlink:href="#mb00c2bb855" x="144.512453" y="107.711198" style="fill: #377eb8; stroke: #377eb8"/>
     <use xlink:href="#mb00c2bb855" x="147.040166" y="104.948884" style="fill: #377eb8; stroke: #377eb8"/>
     <use xlink:href="#mb00c2bb855" x="149.567879" y="108.905157" style="fill: #377eb8; stroke: #377eb8"/>
     <use xlink:href="#mb00c2bb855" x="152.095592" y="96.695918" style="fill: #377eb8; stroke: #377eb8"/>
     <use xlink:href="#mb00c2bb855" x="154.623305" y="97.576392" style="fill: #377eb8; stroke: #377eb8"/>
     <use xlink:href="#mb00c2bb855" x="157.151019" y="86.788843" style="fill: #377eb8; stroke: #377eb8"/>
     <use xlink:href="#mb00c2bb855" x="159.678732" y="92.008322" style="fill: #377eb8; stroke: #377eb8"/>
     <use xlink:href="#mb00c2bb855" x="162.206445" y="85.952629" style="fill: #377eb8; stroke: #377eb8"/>
     <use xlink:href="#mb00c2bb855" x="164.734158" y="87.075932" style="fill: #377eb8; stroke: #377eb8"/>
     <use xlink:href="#mb00c2bb855" x="167.261871" y="78.31763" style="fill: #377eb8; stroke: #377eb8"/>
     <use xlink:href="#mb00c2bb855" x="169.789584" y="81.823235" style="fill: #377eb8; stroke: #377eb8"/>
     <use xlink:href="#mb00c2bb855" x="172.317297" y="70.250647" style="fill: #377eb8; stroke: #377eb8"/>
     <use xlink:href="#mb00c2bb855" x="174.845011" y="72.031155" style="fill: #377eb8; stroke: #377eb8"/>
     <use xlink:href="#mb00c2bb855" x="177.372724" y="67.719991" style="fill: #377eb8; stroke: #377eb8"/>
     <use xlink:href="#mb00c2bb855" x="179.900437" y="68.550823" style="fill: #377eb8; stroke: #377eb8"/>
     <use xlink:href="#mb00c2bb855" x="182.42815" y="61.217551" style="fill: #377eb8; stroke: #377eb8"/>
     <use xlink:href="#mb00c2bb855" x="184.955863" y="57.708453" style="fill: #377eb8; stroke: #377eb8"/>
     <use xlink:href="#mb00c2bb855" x="187.483576" y="68.404338" style="fill: #377eb8; stroke: #377eb8"/>
     <use xlink:href="#mb00c2bb855" x="190.01129" y="56.063927" style="fill: #377eb8; stroke: #377eb8"/>
     <use xlink:href="#mb00c2bb855" x="192.539003" y="61.693427" style="fill: #377eb8; stroke: #377eb8"/>
     <use xlink:href="#mb00c2bb855" x="195.066716" y="58.259615" style="fill: #377eb8; stroke: #377eb8"/>
     <use xlink:href="#mb00c2bb855" x="197.594429" y="54.432429" style="fill: #377eb8; stroke: #377eb8"/>
     <use xlink:href="#mb00c2bb855" x="200.122142" y="51.772889" style="fill: #377eb8; stroke: #377eb8"/>
     <use xlink:href="#mb00c2bb855" x="202.649855" y="41.524544" style="fill: #377eb8; stroke: #377eb8"/>
     <use xlink:href="#mb00c2bb855" x="205.177569" y="51.79697" style="fill: #377eb8; stroke: #377eb8"/>
     <use xlink:href="#mb00c2bb855" x="207.705282" y="37.213458" style="fill: #377eb8; stroke: #377eb8"/>
     <use xlink:href="#mb00c2bb855" x="210.232995" y="48.903367" style="fill: #377eb8; stroke: #377eb8"/>
     <use xlink:href="#mb00c2bb855" x="212.760708" y="35.638642" style="fill: #377eb8; stroke: #377eb8"/>
     <use xlink:href="#mb00c2bb855" x="215.288421" y="38.571101" style="fill: #377eb8; stroke: #377eb8"/>
     <use xlink:href="#mb00c2bb855" x="217.816134" y="40.159837" style="fill: #377eb8; stroke: #377eb8"/>
     <use xlink:href="#mb00c2bb855" x="220.343848" y="36.985824" style="fill: #377eb8; stroke: #377eb8"/>
     <use xlink:href="#mb00c2bb855" x="222.871561" y="40.503403" style="fill: #377eb8; stroke: #377eb8"/>
     <use xlink:href="#mb00c2bb855" x="225.399274" y="38.212244" style="fill: #377eb8; stroke: #377eb8"/>
     <use xlink:href="#mb00c2bb855" x="227.926987" y="39.521681" style="fill: #377eb8; stroke: #377eb8"/>
     <use xlink:href="#mb00c2bb855" x="230.4547" y="28.902884" style="fill: #377eb8; stroke: #377eb8"/>
     <use xlink:href="#mb00c2bb855" x="232.982413" y="29.138316" style="fill: #377eb8; stroke: #377eb8"/>
     <use xlink:href="#mb00c2bb855" x="235.510127" y="44.812488" style="fill: #377eb8; stroke: #377eb8"/>
     <use xlink:href="#mb00c2bb855" x="238.03784" y="35.373228" style="fill: #377eb8; stroke: #377eb8"/>
     <use xlink:href="#mb00c2bb855" x="240.565553" y="35.446624" style="fill: #377eb8; stroke: #377eb8"/>
     <use xlink:href="#mb00c2bb855" x="243.093266" y="34.331046" style="fill: #377eb8; stroke: #377eb8"/>
     <use xlink:href="#mb00c2bb855" x="245.620979" y="35.002069" style="fill: #377eb8; stroke: #377eb8"/>
     <use xlink:href="#mb00c2bb855" x="248.148692" y="43.390508" style="fill: #377eb8; stroke: #377eb8"/>
     <use xlink:href="#mb00c2bb855" x="250.676406" y="47.338839" style="fill: #377eb8; stroke: #377eb8"/>
     <use xlink:href="#mb00c2bb855" x="253.204119" y="39.537668" style="fill: #377eb8; stroke: #377eb8"/>
     <use xlink:href="#mb00c2bb855" x="255.731832" y="50.754602" style="fill: #377eb8; stroke: #377eb8"/>
     <use xlink:href="#mb00c2bb855" x="258.259545" y="47.978961" style="fill: #377eb8; stroke: #377eb8"/>
     <use xlink:href="#mb00c2bb855" x="260.787258" y="40.622565" style="fill: #377eb8; stroke: #377eb8"/>
     <use xlink:href="#mb00c2bb855" x="263.314971" y="53.330913" style="fill: #377eb8; stroke: #377eb8"/>
     <use xlink:href="#mb00c2bb855" x="265.842685" y="72.954688" style="fill: #377eb8; stroke: #377eb8"/>
     <use xlink:href="#mb00c2bb855" x="268.370398" y="74.415574" style="fill: #377eb8; stroke: #377eb8"/>
     <use xlink:href="#mb00c2bb855" x="270.898111" y="81.699456" style="fill: #377eb8; stroke: #377eb8"/>
     <use xlink:href="#mb00c2bb855" x="273.425824" y="84.126778" style="fill: #377eb8; stroke: #377eb8"/>
     <use xlink:href="#mb00c2bb855" x="275.953537" y="86.890111" style="fill: #377eb8; stroke: #377eb8"/>
     <use xlink:href="#mb00c2bb855" x="278.48125" y="89.328164" style="fill: #377eb8; stroke: #377eb8"/>
     <use xlink:href="#mb00c2bb855" x="281.008964" y="102.331252" style="fill: #377eb8; stroke: #377eb8"/>
     <use xlink:href="#mb00c2bb855" x="283.536677" y="102.629274" style="fill: #377eb8; stroke: #377eb8"/>
     <use xlink:href="#mb00c2bb855" x="286.06439" y="102.42037" style="fill: #377eb8; stroke: #377eb8"/>
     <use xlink:href="#mb00c2bb855" x="288.592103" y="110.408298" style="fill: #377eb8; stroke: #377eb8"/>
     <use xlink:href="#mb00c2bb855" x="291.119816" y="115.424746" style="fill: #377eb8; stroke: #377eb8"/>
     <use xlink:href="#mb00c2bb855" x="293.647529" y="121.809509" style="fill: #377eb8; stroke: #377eb8"/>
     <use xlink:href="#mb00c2bb855" x="296.175243" y="133.490895" style="fill: #377eb8; stroke: #377eb8"/>
     <use xlink:href="#mb00c2bb855" x="298.702956" y="135.613042" style="fill: #377eb8; stroke: #377eb8"/>
     <use xlink:href="#mb00c2bb855" x="301.230669" y="143.833183" style="fill: #377eb8; stroke: #377eb8"/>
     <use xlink:href="#mb00c2bb855" x="303.758382" y="152.438651" style="fill: #377eb8; stroke: #377eb8"/>
     <use xlink:href="#mb00c2bb855" x="306.286095" y="160.481853" style="fill: #377eb8; stroke: #377eb8"/>
     <use xlink:href="#mb00c2bb855" x="308.813808" y="157.834385" style="fill: #377eb8; stroke: #377eb8"/>
     <use xlink:href="#mb00c2bb855" x="311.341522" y="169.29519" style="fill: #377eb8; stroke: #377eb8"/>
     <use xlink:href="#mb00c2bb855" x="313.869235" y="171.409932" style="fill: #377eb8; stroke: #377eb8"/>
     <use xlink:href="#mb00c2bb855" x="316.396948" y="170.999674" style="fill: #377eb8; stroke: #377eb8"/>
     <use xlink:href="#mb00c2bb855" x="318.924661" y="173.268286" style="fill: #377eb8; stroke: #377eb8"/>
     <use xlink:href="#mb00c2bb855" x="321.452374" y="181.994528" style="fill: #377eb8; stroke: #377eb8"/>
     <use xlink:href="#mb00c2bb855" x="323.980087" y="182.108922" style="fill: #377eb8; stroke: #377eb8"/>
     <use xlink:href="#mb00c2bb855" x="326.507801" y="182.176352" style="fill: #377eb8; stroke: #377eb8"/>
     <use xlink:href="#mb00c2bb855" x="329.035514" y="185.794724" style="fill: #377eb8; stroke: #377eb8"/>
     <use xlink:href="#mb00c2bb855" x="331.563227" y="187.257108" style="fill: #377eb8; stroke: #377eb8"/>
     <use xlink:href="#mb00c2bb855" x="334.09094" y="187.274014" style="fill: #377eb8; stroke: #377eb8"/>
     <use xlink:href="#mb00c2bb855" x="336.618653" y="186.870899" style="fill: #377eb8; stroke: #377eb8"/>
     <use xlink:href="#mb00c2bb855" x="339.146366" y="187.429713" style="fill: #377eb8; stroke: #377eb8"/>
     <use xlink:href="#mb00c2bb855" x="341.67408" y="187.434647" style="fill: #377eb8; stroke: #377eb8"/>
     <use xlink:href="#mb00c2bb855" x="344.201793" y="187.434647" style="fill: #377eb8; stroke: #377eb8"/>
    </g>
   </g>
   <g id="line2d_94">
    <g clip-path="url(#pc129bf283a)">
     <use xlink:href="#mb00c2bb855" x="56.042492" y="187.434647" style="fill: #377eb8; stroke: #377eb8"/>
     <use xlink:href="#mb00c2bb855" x="58.570205" y="187.434647" style="fill: #377eb8; stroke: #377eb8"/>
     <use xlink:href="#mb00c2bb855" x="61.097918" y="187.434647" style="fill: #377eb8; stroke: #377eb8"/>
     <use xlink:href="#mb00c2bb855" x="63.625631" y="187.434647" style="fill: #377eb8; stroke: #377eb8"/>
     <use xlink:href="#mb00c2bb855" x="66.153345" y="187.434647" style="fill: #377eb8; stroke: #377eb8"/>
     <use xlink:href="#mb00c2bb855" x="68.681058" y="187.434647" style="fill: #377eb8; stroke: #377eb8"/>
     <use xlink:href="#mb00c2bb855" x="71.208771" y="187.434647" style="fill: #377eb8; stroke: #377eb8"/>
     <use xlink:href="#mb00c2bb855" x="73.736484" y="187.434647" style="fill: #377eb8; stroke: #377eb8"/>
     <use xlink:href="#mb00c2bb855" x="76.264197" y="187.422516" style="fill: #377eb8; stroke: #377eb8"/>
     <use xlink:href="#mb00c2bb855" x="78.79191" y="187.434647" style="fill: #377eb8; stroke: #377eb8"/>
     <use xlink:href="#mb00c2bb855" x="81.319624" y="187.434647" style="fill: #377eb8; stroke: #377eb8"/>
     <use xlink:href="#mb00c2bb855" x="83.847337" y="187.429099" style="fill: #377eb8; stroke: #377eb8"/>
     <use xlink:href="#mb00c2bb855" x="86.37505" y="186.311848" style="fill: #377eb8; stroke: #377eb8"/>
     <use xlink:href="#mb00c2bb855" x="88.902763" y="186.008296" style="fill: #377eb8; stroke: #377eb8"/>
     <use xlink:href="#mb00c2bb855" x="91.430476" y="185.773823" style="fill: #377eb8; stroke: #377eb8"/>
     <use xlink:href="#mb00c2bb855" x="93.958189" y="181.657065" style="fill: #377eb8; stroke: #377eb8"/>
     <use xlink:href="#mb00c2bb855" x="96.485903" y="177.455011" style="fill: #377eb8; stroke: #377eb8"/>
     <use xlink:href="#mb00c2bb855" x="99.013616" y="171.294435" style="fill: #377eb8; stroke: #377eb8"/>
     <use xlink:href="#mb00c2bb855" x="101.541329" y="164.369998" style="fill: #377eb8; stroke: #377eb8"/>
     <use xlink:href="#mb00c2bb855" x="104.069042" y="162.278476" style="fill: #377eb8; stroke: #377eb8"/>
     <use xlink:href="#mb00c2bb855" x="106.596755" y="162.637877" style="fill: #377eb8; stroke: #377eb8"/>
     <use xlink:href="#mb00c2bb855" x="109.124468" y="158.446053" style="fill: #377eb8; stroke: #377eb8"/>
     <use xlink:href="#mb00c2bb855" x="111.652182" y="150.295049" style="fill: #377eb8; stroke: #377eb8"/>
     <use xlink:href="#mb00c2bb855" x="114.179895" y="155.5072" style="fill: #377eb8; stroke: #377eb8"/>
     <use xlink:href="#mb00c2bb855" x="116.707608" y="151.142053" style="fill: #377eb8; stroke: #377eb8"/>
     <use xlink:href="#mb00c2bb855" x="119.235321" y="146.726351" style="fill: #377eb8; stroke: #377eb8"/>
     <use xlink:href="#mb00c2bb855" x="121.763034" y="142.587316" style="fill: #377eb8; stroke: #377eb8"/>
     <use xlink:href="#mb00c2bb855" x="124.290747" y="143.862329" style="fill: #377eb8; stroke: #377eb8"/>
     <use xlink:href="#mb00c2bb855" x="126.818461" y="135.077436" style="fill: #377eb8; stroke: #377eb8"/>
     <use xlink:href="#mb00c2bb855" x="129.346174" y="131.545611" style="fill: #377eb8; stroke: #377eb8"/>
     <use xlink:href="#mb00c2bb855" x="131.873887" y="123.359659" style="fill: #377eb8; stroke: #377eb8"/>
     <use xlink:href="#mb00c2bb855" x="134.4016" y="119.433844" style="fill: #377eb8; stroke: #377eb8"/>
     <use xlink:href="#mb00c2bb855" x="136.929313" y="112.57074" style="fill: #377eb8; stroke: #377eb8"/>
     <use xlink:href="#mb00c2bb855" x="139.457026" y="104.825361" style="fill: #377eb8; stroke: #377eb8"/>
     <use xlink:href="#mb00c2bb855" x="141.98474" y="110.05211" style="fill: #377eb8; stroke: #377eb8"/>
     <use xlink:href="#mb00c2bb855" x="144.512453" y="98.257493" style="fill: #377eb8; stroke: #377eb8"/>
     <use xlink:href="#mb00c2bb855" x="147.040166" y="95.22066" style="fill: #377eb8; stroke: #377eb8"/>
     <use xlink:href="#mb00c2bb855" x="149.567879" y="99.374744" style="fill: #377eb8; stroke: #377eb8"/>
     <use xlink:href="#mb00c2bb855" x="152.095592" y="86.534207" style="fill: #377eb8; stroke: #377eb8"/>
     <use xlink:href="#mb00c2bb855" x="154.623305" y="87.456509" style="fill: #377eb8; stroke: #377eb8"/>
     <use xlink:href="#mb00c2bb855" x="157.151019" y="76.205879" style="fill: #377eb8; stroke: #377eb8"/>
     <use xlink:href="#mb00c2bb855" x="159.678732" y="81.631121" style="fill: #377eb8; stroke: #377eb8"/>
     <use xlink:href="#mb00c2bb855" x="162.206445" y="75.291753" style="fill: #377eb8; stroke: #377eb8"/>
     <use xlink:href="#mb00c2bb855" x="164.734158" y="76.348293" style="fill: #377eb8; stroke: #377eb8"/>
     <use xlink:href="#mb00c2bb855" x="167.261871" y="67.22402" style="fill: #377eb8; stroke: #377eb8"/>
     <use xlink:href="#mb00c2bb855" x="169.789584" y="70.800813" style="fill: #377eb8; stroke: #377eb8"/>
     <use xlink:href="#mb00c2bb855" x="172.317297" y="58.907964" style="fill: #377eb8; stroke: #377eb8"/>
     <use xlink:href="#mb00c2bb855" x="174.845011" y="60.618131" style="fill: #377eb8; stroke: #377eb8"/>
     <use xlink:href="#mb00c2bb855" x="177.372724" y="56.07391" style="fill: #377eb8; stroke: #377eb8"/>
     <use xlink:href="#mb00c2bb855" x="179.900437" y="56.862303" style="fill: #377eb8; stroke: #377eb8"/>
     <use xlink:href="#mb00c2bb855" x="182.42815" y="49.292632" style="fill: #377eb8; stroke: #377eb8"/>
     <use xlink:href="#mb00c2bb855" x="184.955863" y="45.668841" style="fill: #377eb8; stroke: #377eb8"/>
     <use xlink:href="#mb00c2bb855" x="187.483576" y="56.790087" style="fill: #377eb8; stroke: #377eb8"/>
     <use xlink:href="#mb00c2bb855" x="190.01129" y="43.995048" style="fill: #377eb8; stroke: #377eb8"/>
     <use xlink:href="#mb00c2bb855" x="192.539003" y="49.70065" style="fill: #377eb8; stroke: #377eb8"/>
     <use xlink:href="#mb00c2bb855" x="195.066716" y="46.1745" style="fill: #377eb8; stroke: #377eb8"/>
     <use xlink:href="#mb00c2bb855" x="197.594429" y="42.223984" style="fill: #377eb8; stroke: #377eb8"/>
     <use xlink:href="#mb00c2bb855" x="200.122142" y="39.487306" style="fill: #377eb8; stroke: #377eb8"/>
     <use xlink:href="#mb00c2bb855" x="202.649855" y="28.877108" style="fill: #377eb8; stroke: #377eb8"/>
     <use xlink:href="#mb00c2bb855" x="205.177569" y="39.417016" style="fill: #377eb8; stroke: #377eb8"/>
     <use xlink:href="#mb00c2bb855" x="207.705282" y="24.406496" style="fill: #377eb8; stroke: #377eb8"/>
     <use xlink:href="#mb00c2bb855" x="210.232995" y="36.504064" style="fill: #377eb8; stroke: #377eb8"/>
     <use xlink:href="#mb00c2bb855" x="212.760708" y="22.68335" style="fill: #377eb8; stroke: #377eb8"/>
     <use xlink:href="#mb00c2bb855" x="215.288421" y="25.764078" style="fill: #377eb8; stroke: #377eb8"/>
     <use xlink:href="#mb00c2bb855" x="217.816134" y="27.39916" style="fill: #377eb8; stroke: #377eb8"/>
     <use xlink:href="#mb00c2bb855" x="220.343848" y="24.049424" style="fill: #377eb8; stroke: #377eb8"/>
     <use xlink:href="#mb00c2bb855" x="222.871561" y="27.683624" style="fill: #377eb8; stroke: #377eb8"/>
     <use xlink:href="#mb00c2bb855" x="225.399274" y="25.355616" style="fill: #377eb8; stroke: #377eb8"/>
     <use xlink:href="#mb00c2bb855" x="227.926987" y="26.657287" style="fill: #377eb8; stroke: #377eb8"/>
     <use xlink:href="#mb00c2bb855" x="230.4547" y="15.785298" style="fill: #377eb8; stroke: #377eb8"/>
     <use xlink:href="#mb00c2bb855" x="232.982413" y="15.923244" style="fill: #377eb8; stroke: #377eb8"/>
     <use xlink:href="#mb00c2bb855" x="235.510127" y="32.032794" style="fill: #377eb8; stroke: #377eb8"/>
     <use xlink:href="#mb00c2bb855" x="238.03784" y="22.279105" style="fill: #377eb8; stroke: #377eb8"/>
     <use xlink:href="#mb00c2bb855" x="240.565553" y="22.405312" style="fill: #377eb8; stroke: #377eb8"/>
     <use xlink:href="#mb00c2bb855" x="243.093266" y="21.259852" style="fill: #377eb8; stroke: #377eb8"/>
     <use xlink:href="#mb00c2bb855" x="245.620979" y="22.14735" style="fill: #377eb8; stroke: #377eb8"/>
     <use xlink:href="#mb00c2bb855" x="248.148692" y="30.64523" style="fill: #377eb8; stroke: #377eb8"/>
     <use xlink:href="#mb00c2bb855" x="250.676406" y="34.862818" style="fill: #377eb8; stroke: #377eb8"/>
     <use xlink:href="#mb00c2bb855" x="253.204119" y="26.789589" style="fill: #377eb8; stroke: #377eb8"/>
     <use xlink:href="#mb00c2bb855" x="255.731832" y="38.417664" style="fill: #377eb8; stroke: #377eb8"/>
     <use xlink:href="#mb00c2bb855" x="258.259545" y="35.483037" style="fill: #377eb8; stroke: #377eb8"/>
     <use xlink:href="#mb00c2bb855" x="260.787258" y="27.92227" style="fill: #377eb8; stroke: #377eb8"/>
     <use xlink:href="#mb00c2bb855" x="263.314971" y="41.173754" style="fill: #377eb8; stroke: #377eb8"/>
     <use xlink:href="#mb00c2bb855" x="265.842685" y="61.533439" style="fill: #377eb8; stroke: #377eb8"/>
     <use xlink:href="#mb00c2bb855" x="268.370398" y="63.006915" style="fill: #377eb8; stroke: #377eb8"/>
     <use xlink:href="#mb00c2bb855" x="270.898111" y="70.616198" style="fill: #377eb8; stroke: #377eb8"/>
     <use xlink:href="#mb00c2bb855" x="273.425824" y="73.218288" style="fill: #377eb8; stroke: #377eb8"/>
     <use xlink:href="#mb00c2bb855" x="275.953537" y="76.124189" style="fill: #377eb8; stroke: #377eb8"/>
     <use xlink:href="#mb00c2bb855" x="278.48125" y="78.749369" style="fill: #377eb8; stroke: #377eb8"/>
     <use xlink:href="#mb00c2bb855" x="281.008964" y="92.359125" style="fill: #377eb8; stroke: #377eb8"/>
     <use xlink:href="#mb00c2bb855" x="283.536677" y="92.751266" style="fill: #377eb8; stroke: #377eb8"/>
     <use xlink:href="#mb00c2bb855" x="286.06439" y="92.663879" style="fill: #377eb8; stroke: #377eb8"/>
     <use xlink:href="#mb00c2bb855" x="288.592103" y="101.024241" style="fill: #377eb8; stroke: #377eb8"/>
     <use xlink:href="#mb00c2bb855" x="291.119816" y="106.421299" style="fill: #377eb8; stroke: #377eb8"/>
     <use xlink:href="#mb00c2bb855" x="293.647529" y="113.172733" style="fill: #377eb8; stroke: #377eb8"/>
     <use xlink:href="#mb00c2bb855" x="296.175243" y="125.545165" style="fill: #377eb8; stroke: #377eb8"/>
     <use xlink:href="#mb00c2bb855" x="298.702956" y="127.927293" style="fill: #377eb8; stroke: #377eb8"/>
     <use xlink:href="#mb00c2bb855" x="301.230669" y="136.670352" style="fill: #377eb8; stroke: #377eb8"/>
     <use xlink:href="#mb00c2bb855" x="303.758382" y="145.898376" style="fill: #377eb8; stroke: #377eb8"/>
     <use xlink:href="#mb00c2bb855" x="306.286095" y="154.725206" style="fill: #377eb8; stroke: #377eb8"/>
     <use xlink:href="#mb00c2bb855" x="308.813808" y="151.963627" style="fill: #377eb8; stroke: #377eb8"/>
     <use xlink:href="#mb00c2bb855" x="311.341522" y="164.390932" style="fill: #377eb8; stroke: #377eb8"/>
     <use xlink:href="#mb00c2bb855" x="313.869235" y="166.908343" style="fill: #377eb8; stroke: #377eb8"/>
     <use xlink:href="#mb00c2bb855" x="316.396948" y="166.597355" style="fill: #377eb8; stroke: #377eb8"/>
     <use xlink:href="#mb00c2bb855" x="318.924661" y="169.122401" style="fill: #377eb8; stroke: #377eb8"/>
     <use xlink:href="#mb00c2bb855" x="321.452374" y="179.082429" style="fill: #377eb8; stroke: #377eb8"/>
     <use xlink:href="#mb00c2bb855" x="323.980087" y="179.41742" style="fill: #377eb8; stroke: #377eb8"/>
     <use xlink:href="#mb00c2bb855" x="326.507801" y="179.60133" style="fill: #377eb8; stroke: #377eb8"/>
     <use xlink:href="#mb00c2bb855" x="329.035514" y="184.141045" style="fill: #377eb8; stroke: #377eb8"/>
     <use xlink:href="#mb00c2bb855" x="331.563227" y="186.171413" style="fill: #377eb8; stroke: #377eb8"/>
     <use xlink:href="#mb00c2bb855" x="334.09094" y="186.548877" style="fill: #377eb8; stroke: #377eb8"/>
     <use xlink:href="#mb00c2bb855" x="336.618653" y="185.987391" style="fill: #377eb8; stroke: #377eb8"/>
     <use xlink:href="#mb00c2bb855" x="339.146366" y="187.412617" style="fill: #377eb8; stroke: #377eb8"/>
     <use xlink:href="#mb00c2bb855" x="341.67408" y="187.434647" style="fill: #377eb8; stroke: #377eb8"/>
     <use xlink:href="#mb00c2bb855" x="344.201793" y="187.434647" style="fill: #377eb8; stroke: #377eb8"/>
    </g>
   </g>
   <g id="patch_4">
    <path d="M 40.244285 187.434647 
L 40.244285 7.2 
" style="fill: none; stroke: #000000; stroke-width: 0.8; stroke-linejoin: miter; stroke-linecap: square"/>
   </g>
   <g id="patch_5">
    <path d="M 360 187.434647 
L 360 7.2 
" style="fill: none; stroke: #000000; stroke-width: 0.8; stroke-linejoin: miter; stroke-linecap: square"/>
   </g>
   <g id="patch_6">
    <path d="M 40.244285 187.434647 
L 360 187.434647 
" style="fill: none; stroke: #000000; stroke-width: 0.8; stroke-linejoin: miter; stroke-linecap: square"/>
   </g>
   <g id="patch_7">
    <path d="M 40.244285 7.2 
L 360 7.2 
" style="fill: none; stroke: #000000; stroke-width: 0.8; stroke-linejoin: miter; stroke-linecap: square"/>
   </g>
  </g>
 </g>
 <defs>
  <clipPath id="pc129bf283a">
   <rect x="40.244285" y="7.2" width="319.755715" height="180.234647"/>
  </clipPath>
 </defs>
</svg>
