<?xml version="1.0" encoding="utf-8" standalone="no"?>
<!DOCTYPE svg PUBLIC "-//W3C//DTD SVG 1.1//EN"
  "http://www.w3.org/Graphics/SVG/1.1/DTD/svg11.dtd">
<svg xmlns:xlink="http://www.w3.org/1999/xlink" width="367.2pt" height="223.2pt" viewBox="0 0 367.2 223.2" xmlns="http://www.w3.org/2000/svg" version="1.1">
 <metadata>
  <rdf:RDF xmlns:dc="http://purl.org/dc/elements/1.1/" xmlns:cc="http://creativecommons.org/ns#" xmlns:rdf="http://www.w3.org/1999/02/22-rdf-syntax-ns#">
   <cc:Work>
    <dc:type rdf:resource="http://purl.org/dc/dcmitype/StillImage"/>
    <dc:date>2025-06-01T22:48:57.809351</dc:date>
    <dc:format>image/svg+xml</dc:format>
    <dc:creator>
     <cc:Agent>
      <dc:title>Matplotlib v3.10.3, https://matplotlib.org/</dc:title>
     </cc:Agent>
    </dc:creator>
   </cc:Work>
  </rdf:RDF>
 </metadata>
 <defs>
  <style type="text/css">*{stroke-linejoin: round; stroke-linecap: butt}</style>
 </defs>
 <g id="figure_1">
  <g id="patch_1">
   <path d="M 0 223.2 
L 367.2 223.2 
L 367.2 0 
L 0 0 
z
" style="fill: #ffffff"/>
  </g>
  <g id="axes_1">
   <g id="patch_2">
    <path d="M 40.244285 188.790661 
L 360 188.790661 
L 360 7.2 
L 40.244285 7.2 
z
" style="fill: #ffffff"/>
   </g>
   <g id="matplotlib.axis_1">
    <g id="xtick_1">
     <g id="line2d_1">
      <defs>
       <path id="ma258baf7c4" d="M 0 0 
L 0 -4 
" style="stroke: #000000; stroke-width: 1.2"/>
      </defs>
      <g>
       <use xlink:href="#ma258baf7c4" x="56.139289" y="188.790661" style="stroke: #000000; stroke-width: 1.2"/>
      </g>
     </g>
     <g id="line2d_2">
      <defs>
       <path id="m50ec34d13a" d="M 0 0 
L 0 4 
" style="stroke: #000000; stroke-width: 1.2"/>
      </defs>
      <g>
       <use xlink:href="#m50ec34d13a" x="56.139289" y="7.2" style="stroke: #000000; stroke-width: 1.2"/>
      </g>
     </g>
     <g id="text_1">
      <!-- $\mathdefault{1.0}$ -->
      <g transform="translate(49.774249 199.209159) scale(0.1 -0.1)">
       <defs>
        <path id="CMR17-31" d="M 1702 4058 
C 1702 4192 1696 4192 1606 4192 
C 1357 3916 979 3827 621 3827 
C 602 3827 570 3827 563 3808 
C 557 3795 557 3782 557 3648 
C 755 3648 1088 3686 1344 3839 
L 1344 461 
C 1344 236 1331 160 781 160 
L 589 160 
L 589 0 
C 896 0 1216 0 1523 0 
C 1830 0 2150 0 2458 0 
L 2458 160 
L 2266 160 
C 1715 160 1702 230 1702 458 
L 1702 4058 
z
" transform="scale(0.015625)"/>
        <path id="CMMI12-3a" d="M 1178 307 
C 1178 492 1024 619 870 619 
C 685 619 557 466 557 313 
C 557 128 710 0 864 0 
C 1050 0 1178 153 1178 307 
z
" transform="scale(0.015625)"/>
        <path id="CMR17-30" d="M 2688 2025 
C 2688 2416 2682 3080 2413 3591 
C 2176 4039 1798 4198 1466 4198 
C 1158 4198 768 4058 525 3597 
C 269 3118 243 2524 243 2025 
C 243 1661 250 1106 448 619 
C 723 -39 1216 -128 1466 -128 
C 1760 -128 2208 -7 2470 600 
C 2662 1042 2688 1559 2688 2025 
z
M 1466 -26 
C 1056 -26 813 325 723 812 
C 653 1188 653 1738 653 2096 
C 653 2588 653 2997 736 3387 
C 858 3929 1216 4096 1466 4096 
C 1728 4096 2067 3923 2189 3400 
C 2272 3036 2278 2607 2278 2096 
C 2278 1680 2278 1169 2202 792 
C 2067 95 1690 -26 1466 -26 
z
" transform="scale(0.015625)"/>
       </defs>
       <use xlink:href="#CMR17-31" transform="scale(0.996264)"/>
       <use xlink:href="#CMMI12-3a" transform="translate(45.690477 0) scale(0.996264)"/>
       <use xlink:href="#CMR17-30" transform="translate(72.787654 0) scale(0.996264)"/>
      </g>
     </g>
    </g>
    <g id="xtick_2">
     <g id="line2d_3">
      <g>
       <use xlink:href="#ma258baf7c4" x="114.005144" y="188.790661" style="stroke: #000000; stroke-width: 1.2"/>
      </g>
     </g>
     <g id="line2d_4">
      <g>
       <use xlink:href="#m50ec34d13a" x="114.005144" y="7.2" style="stroke: #000000; stroke-width: 1.2"/>
      </g>
     </g>
     <g id="text_2">
      <!-- $\mathdefault{1.2}$ -->
      <g transform="translate(107.640105 199.209159) scale(0.1 -0.1)">
       <defs>
        <path id="CMR17-32" d="M 2669 989 
L 2554 989 
C 2490 536 2438 459 2413 420 
C 2381 369 1920 369 1830 369 
L 602 369 
C 832 619 1280 1072 1824 1597 
C 2214 1967 2669 2402 2669 3035 
C 2669 3790 2067 4224 1395 4224 
C 691 4224 262 3604 262 3030 
C 262 2780 448 2748 525 2748 
C 589 2748 781 2787 781 3010 
C 781 3207 614 3264 525 3264 
C 486 3264 448 3258 422 3245 
C 544 3790 915 4058 1306 4058 
C 1862 4058 2227 3617 2227 3035 
C 2227 2479 1901 2000 1536 1584 
L 262 146 
L 262 0 
L 2515 0 
L 2669 989 
z
" transform="scale(0.015625)"/>
       </defs>
       <use xlink:href="#CMR17-31" transform="scale(0.996264)"/>
       <use xlink:href="#CMMI12-3a" transform="translate(45.690477 0) scale(0.996264)"/>
       <use xlink:href="#CMR17-32" transform="translate(72.787654 0) scale(0.996264)"/>
      </g>
     </g>
    </g>
    <g id="xtick_3">
     <g id="line2d_5">
      <g>
       <use xlink:href="#ma258baf7c4" x="171.871" y="188.790661" style="stroke: #000000; stroke-width: 1.2"/>
      </g>
     </g>
     <g id="line2d_6">
      <g>
       <use xlink:href="#m50ec34d13a" x="171.871" y="7.2" style="stroke: #000000; stroke-width: 1.2"/>
      </g>
     </g>
     <g id="text_3">
      <!-- $\mathdefault{1.4}$ -->
      <g transform="translate(165.50596 199.209159) scale(0.1 -0.1)">
       <defs>
        <path id="CMR17-34" d="M 2150 4122 
C 2150 4256 2144 4256 2029 4256 
L 128 1254 
L 128 1088 
L 1779 1088 
L 1779 457 
C 1779 224 1766 160 1318 160 
L 1197 160 
L 1197 0 
C 1402 0 1747 0 1965 0 
C 2182 0 2528 0 2733 0 
L 2733 160 
L 2611 160 
C 2163 160 2150 224 2150 457 
L 2150 1088 
L 2803 1088 
L 2803 1254 
L 2150 1254 
L 2150 4122 
z
M 1798 3703 
L 1798 1254 
L 256 1254 
L 1798 3703 
z
" transform="scale(0.015625)"/>
       </defs>
       <use xlink:href="#CMR17-31" transform="scale(0.996264)"/>
       <use xlink:href="#CMMI12-3a" transform="translate(45.690477 0) scale(0.996264)"/>
       <use xlink:href="#CMR17-34" transform="translate(72.787654 0) scale(0.996264)"/>
      </g>
     </g>
    </g>
    <g id="xtick_4">
     <g id="line2d_7">
      <g>
       <use xlink:href="#ma258baf7c4" x="229.736855" y="188.790661" style="stroke: #000000; stroke-width: 1.2"/>
      </g>
     </g>
     <g id="line2d_8">
      <g>
       <use xlink:href="#m50ec34d13a" x="229.736855" y="7.2" style="stroke: #000000; stroke-width: 1.2"/>
      </g>
     </g>
     <g id="text_4">
      <!-- $\mathdefault{1.6}$ -->
      <g transform="translate(223.371816 199.209159) scale(0.1 -0.1)">
       <defs>
        <path id="CMR17-36" d="M 678 2176 
C 678 3690 1395 4032 1811 4032 
C 1946 4032 2272 4009 2400 3776 
C 2298 3776 2106 3776 2106 3553 
C 2106 3381 2246 3323 2336 3323 
C 2394 3323 2566 3348 2566 3560 
C 2566 3954 2246 4179 1805 4179 
C 1043 4179 243 3390 243 1984 
C 243 253 966 -128 1478 -128 
C 2099 -128 2688 427 2688 1283 
C 2688 2081 2170 2662 1517 2662 
C 1126 2662 838 2407 678 1960 
L 678 2176 
z
M 1478 25 
C 691 25 691 1200 691 1436 
C 691 1896 909 2560 1504 2560 
C 1613 2560 1926 2560 2138 2120 
C 2253 1870 2253 1609 2253 1289 
C 2253 944 2253 690 2118 434 
C 1978 171 1773 25 1478 25 
z
" transform="scale(0.015625)"/>
       </defs>
       <use xlink:href="#CMR17-31" transform="scale(0.996264)"/>
       <use xlink:href="#CMMI12-3a" transform="translate(45.690477 0) scale(0.996264)"/>
       <use xlink:href="#CMR17-36" transform="translate(72.787654 0) scale(0.996264)"/>
      </g>
     </g>
    </g>
    <g id="xtick_5">
     <g id="line2d_9">
      <g>
       <use xlink:href="#ma258baf7c4" x="287.602711" y="188.790661" style="stroke: #000000; stroke-width: 1.2"/>
      </g>
     </g>
     <g id="line2d_10">
      <g>
       <use xlink:href="#m50ec34d13a" x="287.602711" y="7.2" style="stroke: #000000; stroke-width: 1.2"/>
      </g>
     </g>
     <g id="text_5">
      <!-- $\mathdefault{1.8}$ -->
      <g transform="translate(281.237671 199.209159) scale(0.1 -0.1)">
       <defs>
        <path id="CMR17-38" d="M 1741 2264 
C 2144 2467 2554 2773 2554 3263 
C 2554 3841 1990 4179 1472 4179 
C 890 4179 378 3759 378 3180 
C 378 3021 416 2747 666 2505 
C 730 2442 998 2251 1171 2130 
C 883 1983 211 1634 211 934 
C 211 279 838 -128 1459 -128 
C 2144 -128 2720 362 2720 1010 
C 2720 1590 2330 1857 2074 2029 
L 1741 2264 
z
M 902 2822 
C 851 2854 595 3051 595 3351 
C 595 3739 998 4032 1459 4032 
C 1965 4032 2336 3676 2336 3262 
C 2336 2669 1670 2331 1638 2331 
C 1632 2331 1626 2331 1574 2370 
L 902 2822 
z
M 2080 1519 
C 2176 1449 2483 1240 2483 851 
C 2483 381 2010 25 1472 25 
C 890 25 448 438 448 940 
C 448 1443 838 1862 1280 2060 
L 2080 1519 
z
" transform="scale(0.015625)"/>
       </defs>
       <use xlink:href="#CMR17-31" transform="scale(0.996264)"/>
       <use xlink:href="#CMMI12-3a" transform="translate(45.690477 0) scale(0.996264)"/>
       <use xlink:href="#CMR17-38" transform="translate(72.787654 0) scale(0.996264)"/>
      </g>
     </g>
    </g>
    <g id="xtick_6">
     <g id="line2d_11">
      <g>
       <use xlink:href="#ma258baf7c4" x="345.468566" y="188.790661" style="stroke: #000000; stroke-width: 1.2"/>
      </g>
     </g>
     <g id="line2d_12">
      <g>
       <use xlink:href="#m50ec34d13a" x="345.468566" y="7.2" style="stroke: #000000; stroke-width: 1.2"/>
      </g>
     </g>
     <g id="text_6">
      <!-- $\mathdefault{2.0}$ -->
      <g transform="translate(339.103527 199.209159) scale(0.1 -0.1)">
       <use xlink:href="#CMR17-32" transform="scale(0.996264)"/>
       <use xlink:href="#CMMI12-3a" transform="translate(45.690477 0) scale(0.996264)"/>
       <use xlink:href="#CMR17-30" transform="translate(72.787654 0) scale(0.996264)"/>
      </g>
     </g>
    </g>
    <g id="xtick_7">
     <g id="line2d_13">
      <defs>
       <path id="m53d672911c" d="M 0 0 
L 0 -2.5 
" style="stroke: #000000; stroke-width: 0.8"/>
      </defs>
      <g>
       <use xlink:href="#m53d672911c" x="41.672825" y="188.790661" style="stroke: #000000; stroke-width: 0.8"/>
      </g>
     </g>
     <g id="line2d_14">
      <defs>
       <path id="m6e08c8440f" d="M 0 0 
L 0 2.5 
" style="stroke: #000000; stroke-width: 0.8"/>
      </defs>
      <g>
       <use xlink:href="#m6e08c8440f" x="41.672825" y="7.2" style="stroke: #000000; stroke-width: 0.8"/>
      </g>
     </g>
    </g>
    <g id="xtick_8">
     <g id="line2d_15">
      <g>
       <use xlink:href="#m53d672911c" x="70.605753" y="188.790661" style="stroke: #000000; stroke-width: 0.8"/>
      </g>
     </g>
     <g id="line2d_16">
      <g>
       <use xlink:href="#m6e08c8440f" x="70.605753" y="7.2" style="stroke: #000000; stroke-width: 0.8"/>
      </g>
     </g>
    </g>
    <g id="xtick_9">
     <g id="line2d_17">
      <g>
       <use xlink:href="#m53d672911c" x="85.072217" y="188.790661" style="stroke: #000000; stroke-width: 0.8"/>
      </g>
     </g>
     <g id="line2d_18">
      <g>
       <use xlink:href="#m6e08c8440f" x="85.072217" y="7.2" style="stroke: #000000; stroke-width: 0.8"/>
      </g>
     </g>
    </g>
    <g id="xtick_10">
     <g id="line2d_19">
      <g>
       <use xlink:href="#m53d672911c" x="99.53868" y="188.790661" style="stroke: #000000; stroke-width: 0.8"/>
      </g>
     </g>
     <g id="line2d_20">
      <g>
       <use xlink:href="#m6e08c8440f" x="99.53868" y="7.2" style="stroke: #000000; stroke-width: 0.8"/>
      </g>
     </g>
    </g>
    <g id="xtick_11">
     <g id="line2d_21">
      <g>
       <use xlink:href="#m53d672911c" x="128.471608" y="188.790661" style="stroke: #000000; stroke-width: 0.8"/>
      </g>
     </g>
     <g id="line2d_22">
      <g>
       <use xlink:href="#m6e08c8440f" x="128.471608" y="7.2" style="stroke: #000000; stroke-width: 0.8"/>
      </g>
     </g>
    </g>
    <g id="xtick_12">
     <g id="line2d_23">
      <g>
       <use xlink:href="#m53d672911c" x="142.938072" y="188.790661" style="stroke: #000000; stroke-width: 0.8"/>
      </g>
     </g>
     <g id="line2d_24">
      <g>
       <use xlink:href="#m6e08c8440f" x="142.938072" y="7.2" style="stroke: #000000; stroke-width: 0.8"/>
      </g>
     </g>
    </g>
    <g id="xtick_13">
     <g id="line2d_25">
      <g>
       <use xlink:href="#m53d672911c" x="157.404536" y="188.790661" style="stroke: #000000; stroke-width: 0.8"/>
      </g>
     </g>
     <g id="line2d_26">
      <g>
       <use xlink:href="#m6e08c8440f" x="157.404536" y="7.2" style="stroke: #000000; stroke-width: 0.8"/>
      </g>
     </g>
    </g>
    <g id="xtick_14">
     <g id="line2d_27">
      <g>
       <use xlink:href="#m53d672911c" x="186.337464" y="188.790661" style="stroke: #000000; stroke-width: 0.8"/>
      </g>
     </g>
     <g id="line2d_28">
      <g>
       <use xlink:href="#m6e08c8440f" x="186.337464" y="7.2" style="stroke: #000000; stroke-width: 0.8"/>
      </g>
     </g>
    </g>
    <g id="xtick_15">
     <g id="line2d_29">
      <g>
       <use xlink:href="#m53d672911c" x="200.803928" y="188.790661" style="stroke: #000000; stroke-width: 0.8"/>
      </g>
     </g>
     <g id="line2d_30">
      <g>
       <use xlink:href="#m6e08c8440f" x="200.803928" y="7.2" style="stroke: #000000; stroke-width: 0.8"/>
      </g>
     </g>
    </g>
    <g id="xtick_16">
     <g id="line2d_31">
      <g>
       <use xlink:href="#m53d672911c" x="215.270391" y="188.790661" style="stroke: #000000; stroke-width: 0.8"/>
      </g>
     </g>
     <g id="line2d_32">
      <g>
       <use xlink:href="#m6e08c8440f" x="215.270391" y="7.2" style="stroke: #000000; stroke-width: 0.8"/>
      </g>
     </g>
    </g>
    <g id="xtick_17">
     <g id="line2d_33">
      <g>
       <use xlink:href="#m53d672911c" x="244.203319" y="188.790661" style="stroke: #000000; stroke-width: 0.8"/>
      </g>
     </g>
     <g id="line2d_34">
      <g>
       <use xlink:href="#m6e08c8440f" x="244.203319" y="7.2" style="stroke: #000000; stroke-width: 0.8"/>
      </g>
     </g>
    </g>
    <g id="xtick_18">
     <g id="line2d_35">
      <g>
       <use xlink:href="#m53d672911c" x="258.669783" y="188.790661" style="stroke: #000000; stroke-width: 0.8"/>
      </g>
     </g>
     <g id="line2d_36">
      <g>
       <use xlink:href="#m6e08c8440f" x="258.669783" y="7.2" style="stroke: #000000; stroke-width: 0.8"/>
      </g>
     </g>
    </g>
    <g id="xtick_19">
     <g id="line2d_37">
      <g>
       <use xlink:href="#m53d672911c" x="273.136247" y="188.790661" style="stroke: #000000; stroke-width: 0.8"/>
      </g>
     </g>
     <g id="line2d_38">
      <g>
       <use xlink:href="#m6e08c8440f" x="273.136247" y="7.2" style="stroke: #000000; stroke-width: 0.8"/>
      </g>
     </g>
    </g>
    <g id="xtick_20">
     <g id="line2d_39">
      <g>
       <use xlink:href="#m53d672911c" x="302.069175" y="188.790661" style="stroke: #000000; stroke-width: 0.8"/>
      </g>
     </g>
     <g id="line2d_40">
      <g>
       <use xlink:href="#m6e08c8440f" x="302.069175" y="7.2" style="stroke: #000000; stroke-width: 0.8"/>
      </g>
     </g>
    </g>
    <g id="xtick_21">
     <g id="line2d_41">
      <g>
       <use xlink:href="#m53d672911c" x="316.535639" y="188.790661" style="stroke: #000000; stroke-width: 0.8"/>
      </g>
     </g>
     <g id="line2d_42">
      <g>
       <use xlink:href="#m6e08c8440f" x="316.535639" y="7.2" style="stroke: #000000; stroke-width: 0.8"/>
      </g>
     </g>
    </g>
    <g id="xtick_22">
     <g id="line2d_43">
      <g>
       <use xlink:href="#m53d672911c" x="331.002102" y="188.790661" style="stroke: #000000; stroke-width: 0.8"/>
      </g>
     </g>
     <g id="line2d_44">
      <g>
       <use xlink:href="#m6e08c8440f" x="331.002102" y="7.2" style="stroke: #000000; stroke-width: 0.8"/>
      </g>
     </g>
    </g>
    <g id="xtick_23">
     <g id="line2d_45">
      <g>
       <use xlink:href="#m53d672911c" x="359.93503" y="188.790661" style="stroke: #000000; stroke-width: 0.8"/>
      </g>
     </g>
     <g id="line2d_46">
      <g>
       <use xlink:href="#m6e08c8440f" x="359.93503" y="7.2" style="stroke: #000000; stroke-width: 0.8"/>
      </g>
     </g>
    </g>
    <g id="text_7">
     <!-- Invariant Mass of $K_S^0K_S^0$ (GeV/$c^2$) -->
     <g transform="translate(123.971573 213.255957) scale(0.1 -0.1)">
      <defs>
       <path id="CMR17-49" d="M 1261 3905 
C 1261 4192 1338 4192 1798 4192 
L 1798 4352 
C 1594 4352 1267 4352 1050 4352 
C 832 4352 506 4352 301 4352 
L 301 4192 
C 762 4192 838 4192 838 3905 
L 838 447 
C 838 160 762 160 301 160 
L 301 0 
C 506 0 832 0 1050 0 
C 1267 0 1594 0 1798 0 
L 1798 160 
C 1338 160 1261 160 1261 447 
L 1261 3905 
z
" transform="scale(0.015625)"/>
       <path id="CMR17-6e" d="M 2656 1933 
C 2656 2259 2592 2790 1837 2790 
C 1331 2790 1069 2400 973 2144 
L 966 2144 
L 966 2790 
L 211 2720 
L 211 2554 
C 589 2554 646 2515 646 2208 
L 646 428 
C 646 184 621 153 211 153 
L 211 -13 
C 365 0 646 0 813 0 
C 979 0 1267 0 1421 -13 
L 1421 153 
C 1011 153 986 178 986 428 
L 986 1658 
C 986 2247 1344 2688 1792 2688 
C 2266 2688 2317 2266 2317 1958 
L 2317 428 
C 2317 184 2291 153 1882 153 
L 1882 -13 
C 2035 0 2317 0 2483 0 
C 2650 0 2938 0 3091 -13 
L 3091 153 
C 2682 153 2656 178 2656 428 
L 2656 1933 
z
" transform="scale(0.015625)"/>
       <path id="CMR17-76" d="M 2502 2163 
C 2560 2304 2662 2560 3034 2560 
L 3034 2726 
C 2912 2726 2752 2726 2630 2726 
C 2496 2726 2285 2726 2157 2732 
L 2157 2566 
C 2317 2553 2406 2477 2406 2311 
C 2406 2253 2406 2240 2368 2151 
L 1664 377 
L 902 2286 
C 864 2369 864 2381 864 2407 
C 864 2560 1075 2560 1171 2560 
L 1171 2732 
C 1018 2726 736 2726 576 2726 
C 403 2726 205 2726 64 2732 
L 64 2560 
C 307 2560 442 2560 518 2362 
L 1446 44 
C 1485 -51 1491 -64 1549 -64 
C 1606 -64 1613 -51 1651 44 
L 2502 2163 
z
" transform="scale(0.015625)"/>
       <path id="CMR17-61" d="M 2304 1653 
C 2304 2072 2304 2294 2035 2543 
C 1798 2752 1523 2816 1306 2816 
C 800 2816 435 2407 435 1971 
C 435 1728 627 1728 666 1728 
C 749 1728 896 1778 896 1954 
C 896 2112 774 2181 666 2181 
C 640 2181 608 2174 589 2168 
C 723 2592 1069 2714 1293 2714 
C 1613 2714 1965 2429 1965 1885 
L 1965 1600 
C 1587 1600 1133 1549 774 1357 
C 371 1133 256 813 256 570 
C 256 77 832 -64 1171 -64 
C 1523 -64 1850 139 1990 511 
C 2003 233 2182 -18 2464 -18 
C 2598 -18 2938 70 2938 567 
L 2938 920 
L 2822 920 
L 2822 562 
C 2822 178 2650 128 2566 128 
C 2304 128 2304 458 2304 738 
L 2304 1653 
z
M 1965 870 
C 1965 317 1568 38 1216 38 
C 896 38 646 275 646 570 
C 646 761 730 1100 1101 1305 
C 1408 1478 1760 1504 1965 1504 
L 1965 870 
z
" transform="scale(0.015625)"/>
       <path id="CMR17-72" d="M 960 1497 
C 960 2112 1222 2688 1702 2688 
C 1747 2688 1792 2682 1837 2662 
C 1837 2662 1696 2617 1696 2452 
C 1696 2298 1818 2234 1914 2234 
C 1990 2234 2131 2279 2131 2458 
C 2131 2663 1926 2790 1709 2790 
C 1222 2790 1011 2317 947 2093 
L 941 2093 
L 941 2790 
L 198 2720 
L 198 2554 
C 576 2554 634 2515 634 2208 
L 634 428 
C 634 184 608 153 198 153 
L 198 -13 
C 352 0 646 0 813 0 
C 998 0 1325 0 1498 -13 
L 1498 153 
C 1037 153 960 153 960 440 
L 960 1497 
z
" transform="scale(0.015625)"/>
       <path id="CMR17-69" d="M 992 3909 
C 992 4049 877 4170 730 4170 
C 589 4170 467 4056 467 3909 
C 467 3769 582 3648 730 3648 
C 870 3648 992 3763 992 3909 
z
M 243 2706 
L 243 2541 
C 602 2541 653 2502 653 2197 
L 653 427 
C 653 184 627 153 218 153 
L 218 -13 
C 371 0 646 0 806 0 
C 960 0 1222 0 1370 -13 
L 1370 153 
C 992 153 979 191 979 420 
L 979 2776 
L 243 2706 
z
" transform="scale(0.015625)"/>
       <path id="CMR17-74" d="M 966 2560 
L 1862 2560 
L 1862 2725 
L 966 2725 
L 966 3904 
L 851 3904 
C 838 3245 614 2668 70 2668 
L 70 2560 
L 627 2560 
L 627 771 
C 627 650 627 -64 1370 -64 
C 1747 -64 1965 306 1965 777 
L 1965 1140 
L 1850 1140 
L 1850 783 
C 1850 344 1677 51 1408 51 
C 1222 51 966 178 966 758 
L 966 2560 
z
" transform="scale(0.015625)"/>
       <path id="CMR17-4d" d="M 1338 4224 
C 1299 4320 1293 4320 1158 4320 
L 339 4320 
L 339 4160 
C 781 4160 851 4160 851 3875 
L 851 610 
C 851 451 851 153 339 153 
L 339 -13 
C 486 0 755 0 915 0 
C 1075 0 1344 0 1491 -13 
L 1491 153 
C 979 153 979 451 979 610 
L 979 4135 
L 986 4135 
L 2490 89 
C 2515 25 2528 -13 2579 -13 
C 2630 -13 2643 25 2669 89 
L 4186 4166 
L 4192 4166 
L 4192 438 
C 4192 153 4122 153 3680 153 
L 3680 -13 
C 3853 0 4198 0 4384 0 
C 4570 0 4922 0 5094 -13 
L 5094 153 
C 4653 153 4582 153 4582 438 
L 4582 3875 
C 4582 4160 4653 4160 5094 4160 
L 5094 4320 
L 4282 4320 
C 4147 4320 4141 4314 4102 4218 
L 2720 502 
L 1338 4224 
z
" transform="scale(0.015625)"/>
       <path id="CMR17-73" d="M 1978 2697 
C 1978 2813 1971 2819 1933 2819 
C 1907 2819 1901 2813 1824 2717 
C 1805 2691 1747 2626 1728 2601 
C 1523 2819 1235 2819 1126 2819 
C 416 2819 160 2447 160 2076 
C 160 1498 813 1365 998 1325 
C 1402 1243 1542 1217 1677 1101 
C 1760 1025 1901 884 1901 654 
C 1901 384 1747 38 1158 38 
C 602 38 403 460 288 1021 
C 269 1110 269 1117 218 1117 
C 166 1117 160 1110 160 983 
L 160 63 
C 160 -51 166 -58 205 -58 
C 237 -58 243 -51 275 0 
C 314 57 410 211 448 276 
C 576 103 800 -64 1158 -64 
C 1792 -64 2131 283 2131 784 
C 2131 1112 1958 1285 1875 1362 
C 1683 1561 1459 1606 1190 1657 
C 838 1735 390 1825 390 2217 
C 390 2383 480 2737 1126 2737 
C 1811 2737 1850 2094 1862 1888 
C 1869 1856 1901 1849 1920 1849 
C 1978 1849 1978 1869 1978 1978 
L 1978 2697 
z
" transform="scale(0.015625)"/>
       <path id="CMR17-6f" d="M 2758 1356 
C 2758 2176 2163 2816 1466 2816 
C 768 2816 173 2176 173 1356 
C 173 551 768 -64 1466 -64 
C 2163 -64 2758 551 2758 1356 
z
M 1466 51 
C 1165 51 909 230 762 480 
C 602 767 582 1126 582 1408 
C 582 1677 595 2010 762 2298 
C 890 2509 1139 2714 1466 2714 
C 1754 2714 1997 2554 2150 2330 
C 2349 2029 2349 1607 2349 1408 
C 2349 1158 2336 775 2163 467 
C 1984 173 1709 51 1466 51 
z
" transform="scale(0.015625)"/>
       <path id="CMR17-66" d="M 979 2560 
L 1709 2560 
L 1709 2725 
L 966 2725 
L 966 3494 
C 966 4022 1235 4352 1510 4352 
C 1594 4352 1690 4327 1754 4282 
C 1702 4269 1568 4225 1568 4067 
C 1568 3901 1696 3850 1786 3850 
C 1875 3850 2003 3901 2003 4067 
C 2003 4308 1773 4454 1517 4454 
C 1152 4454 653 4156 653 3481 
L 653 2725 
L 141 2725 
L 141 2560 
L 653 2560 
L 653 427 
C 653 184 627 153 218 153 
L 218 -13 
C 371 0 666 0 832 0 
C 1018 0 1344 0 1517 -13 
L 1517 153 
C 1056 153 979 153 979 439 
L 979 2560 
z
" transform="scale(0.015625)"/>
       <path id="CMMI12-4b" d="M 3200 2571 
C 3194 2590 3168 2641 3168 2661 
C 3168 2667 3174 2673 3283 2756 
L 3904 3242 
C 4762 3905 5043 4128 5485 4167 
C 5530 4167 5594 4167 5594 4282 
C 5594 4320 5574 4352 5523 4352 
C 5453 4352 5376 4352 5306 4352 
L 5062 4352 
C 4864 4352 4653 4352 4461 4352 
C 4416 4352 4339 4352 4339 4237 
C 4339 4173 4384 4167 4422 4167 
C 4493 4160 4576 4135 4576 4046 
C 4576 3919 4384 3765 4333 3727 
L 1824 1784 
L 2355 3887 
C 2413 4103 2426 4167 2880 4167 
C 3002 4167 3059 4167 3059 4288 
C 3059 4352 2995 4352 2963 4352 
C 2848 4352 2714 4352 2592 4352 
L 1837 4352 
C 1722 4352 1581 4352 1466 4352 
C 1414 4352 1344 4352 1344 4231 
C 1344 4167 1402 4167 1498 4167 
C 1888 4167 1888 4116 1888 4046 
C 1888 4034 1888 3995 1862 3899 
L 998 472 
C 941 249 928 185 480 185 
C 358 185 294 185 294 70 
C 294 0 352 0 390 0 
C 512 0 640 0 762 0 
L 1510 0 
C 1632 0 1766 0 1888 0 
C 1939 0 2010 0 2010 121 
C 2010 185 1952 185 1856 185 
C 1466 185 1466 236 1466 300 
C 1466 345 1504 504 1530 606 
L 1779 1593 
L 2752 2351 
C 2938 1943 3277 1128 3539 505 
C 3558 466 3571 428 3571 383 
C 3571 185 3315 185 3258 185 
C 3200 185 3136 185 3136 64 
C 3136 0 3206 0 3226 0 
C 3450 0 3686 0 3910 0 
L 4218 0 
C 4314 0 4422 0 4518 0 
C 4557 0 4627 0 4627 121 
C 4627 185 4570 185 4506 185 
C 4269 185 4186 236 4090 466 
L 3200 2571 
z
" transform="scale(0.015625)"/>
       <path id="CMMI12-53" d="M 4064 4423 
C 4064 4480 4019 4480 4006 4480 
C 3981 4480 3974 4474 3898 4378 
C 3859 4333 3597 4001 3590 3995 
C 3379 4410 2957 4480 2688 4480 
C 1875 4480 1139 3743 1139 3025 
C 1139 2549 1427 2269 1741 2161 
C 1811 2135 2189 2033 2381 1989 
C 2707 1900 2790 1875 2925 1735 
C 2950 1703 3078 1557 3078 1258 
C 3078 667 2528 57 1888 57 
C 1363 57 781 280 781 991 
C 781 1112 806 1265 826 1328 
C 826 1348 832 1378 832 1391 
C 832 1417 819 1449 768 1449 
C 710 1449 704 1436 678 1328 
L 352 24 
C 352 18 326 -64 326 -71 
C 326 -128 378 -128 390 -128 
C 416 -128 422 -122 499 -26 
L 794 356 
C 947 126 1280 -128 1875 -128 
C 2701 -128 3456 666 3456 1460 
C 3456 1728 3392 1963 3149 2197 
C 3014 2331 2899 2363 2310 2516 
C 1882 2630 1824 2649 1709 2751 
C 1600 2858 1517 3011 1517 3227 
C 1517 3761 2061 4308 2669 4308 
C 3296 4308 3590 3926 3590 3323 
C 3590 3158 3558 2986 3558 2961 
C 3558 2903 3610 2903 3629 2903 
C 3686 2903 3693 2922 3718 3024 
L 4064 4423 
z
" transform="scale(0.015625)"/>
       <path id="CMR17-28" d="M 1958 -1561 
C 1958 -1555 1958 -1542 1939 -1523 
C 1645 -1224 858 -407 858 1581 
C 858 3569 1632 4379 1946 4697 
C 1946 4704 1958 4717 1958 4736 
C 1958 4755 1939 4768 1914 4768 
C 1843 4768 1299 4296 986 3594 
C 666 2887 576 2199 576 1588 
C 576 1128 621 351 1005 -471 
C 1312 -1135 1837 -1600 1914 -1600 
C 1946 -1600 1958 -1587 1958 -1561 
z
" transform="scale(0.015625)"/>
       <path id="CMR17-47" d="M 3974 1233 
C 3974 1473 3994 1505 4390 1505 
L 4390 1670 
C 4237 1664 3891 1664 3718 1664 
C 3539 1664 3040 1664 2797 1664 
L 2797 1505 
L 2989 1505 
C 3539 1505 3552 1434 3552 1201 
L 3552 774 
C 3552 63 2720 63 2522 63 
C 1862 63 781 511 781 2160 
C 781 3808 1843 4250 2464 4250 
C 3187 4250 3712 3626 3834 2741 
C 3846 2664 3846 2651 3904 2651 
C 3974 2651 3974 2664 3974 2779 
L 3974 4288 
C 3974 4402 3968 4409 3930 4409 
C 3904 4409 3898 4402 3853 4326 
L 3571 3791 
C 3258 4187 2874 4416 2381 4416 
C 1286 4416 294 3456 294 2148 
C 294 845 1267 -128 2394 -128 
C 2912 -128 3418 56 3616 417 
C 3725 158 3904 -20 3936 -20 
C 3968 -20 3974 -13 3974 100 
L 3974 1233 
z
" transform="scale(0.015625)"/>
       <path id="CMR17-65" d="M 2438 1472 
C 2464 1498 2464 1511 2464 1576 
C 2464 2238 2118 2816 1389 2816 
C 710 2816 173 2169 173 1383 
C 173 551 781 -64 1459 -64 
C 2176 -64 2458 607 2458 740 
C 2458 784 2419 784 2406 784 
C 2362 784 2355 771 2330 696 
C 2189 265 1837 51 1504 51 
C 1229 51 954 203 781 480 
C 582 803 582 1176 582 1472 
L 2438 1472 
z
M 589 1568 
C 634 2505 1126 2714 1382 2714 
C 1818 2714 2112 2297 2118 1568 
L 589 1568 
z
" transform="scale(0.015625)"/>
       <path id="CMR17-56" d="M 3776 3745 
C 3834 3886 3936 4160 4365 4160 
L 4365 4332 
C 4218 4319 4051 4319 3891 4319 
C 3738 4319 3475 4319 3328 4332 
L 3328 4160 
C 3648 4160 3661 3936 3661 3898 
C 3661 3827 3642 3783 3622 3732 
L 2362 446 
L 1043 3886 
C 1024 3931 1011 3963 1011 3994 
C 1011 4160 1267 4160 1402 4160 
L 1402 4319 
C 1197 4319 896 4319 685 4319 
C 518 4319 218 4319 64 4332 
L 64 4160 
C 435 4160 506 4135 582 3931 
L 2106 -26 
C 2138 -115 2144 -128 2214 -128 
C 2285 -128 2291 -115 2323 -26 
L 3776 3745 
z
" transform="scale(0.015625)"/>
       <path id="CMR17-2f" d="M 2605 4545 
C 2637 4627 2637 4640 2637 4653 
C 2637 4729 2579 4768 2528 4768 
C 2451 4768 2426 4717 2400 4640 
L 326 -1377 
C 294 -1460 294 -1473 294 -1486 
C 294 -1562 352 -1600 403 -1600 
C 480 -1600 506 -1549 531 -1473 
L 2605 4545 
z
" transform="scale(0.015625)"/>
       <path id="CMMI12-63" d="M 2502 2431 
C 2381 2431 2323 2431 2234 2355 
C 2195 2323 2125 2227 2125 2125 
C 2125 1997 2221 1920 2342 1920 
C 2496 1920 2669 2044 2669 2292 
C 2669 2588 2374 2816 1933 2816 
C 1094 2816 256 1903 256 996 
C 256 441 602 -64 1254 -64 
C 2125 -64 2675 622 2675 706 
C 2675 744 2637 776 2611 776 
C 2592 776 2586 770 2528 713 
C 2118 162 1510 64 1267 64 
C 826 64 685 446 685 764 
C 685 988 794 1605 1024 2039 
C 1190 2338 1536 2682 1939 2682 
C 2022 2682 2374 2682 2502 2431 
z
" transform="scale(0.015625)"/>
       <path id="CMR17-29" d="M 1683 1581 
C 1683 2040 1638 2817 1254 3639 
C 947 4303 422 4768 346 4768 
C 326 4768 301 4761 301 4729 
C 301 4717 307 4710 314 4697 
C 621 4378 1402 3568 1402 1584 
C 1402 -407 627 -1217 314 -1537 
C 307 -1549 301 -1556 301 -1568 
C 301 -1600 326 -1600 346 -1600 
C 416 -1600 960 -1128 1274 -426 
C 1594 281 1683 969 1683 1581 
z
" transform="scale(0.015625)"/>
      </defs>
      <use xlink:href="#CMR17-49" transform="scale(0.996264)"/>
      <use xlink:href="#CMR17-6e" transform="translate(32.638409 0) scale(0.996264)"/>
      <use xlink:href="#CMR17-76" transform="translate(80.931325 0) scale(0.996264)"/>
      <use xlink:href="#CMR17-61" transform="translate(124.019424 0) scale(0.996264)"/>
      <use xlink:href="#CMR17-72" transform="translate(169.709901 0) scale(0.996264)"/>
      <use xlink:href="#CMR17-69" transform="translate(204.990669 0) scale(0.996264)"/>
      <use xlink:href="#CMR17-61" transform="translate(229.861728 0) scale(0.996264)"/>
      <use xlink:href="#CMR17-6e" transform="translate(275.552205 0) scale(0.996264)"/>
      <use xlink:href="#CMR17-74" transform="translate(323.845121 0) scale(0.996264)"/>
      <use xlink:href="#CMR17-4d" transform="translate(389.201855 0) scale(0.996264)"/>
      <use xlink:href="#CMR17-61" transform="translate(473.888795 0) scale(0.996264)"/>
      <use xlink:href="#CMR17-73" transform="translate(519.579272 0) scale(0.996264)"/>
      <use xlink:href="#CMR17-73" transform="translate(555.38061 0) scale(0.996264)"/>
      <use xlink:href="#CMR17-6f" transform="translate(621.257914 0) scale(0.996264)"/>
      <use xlink:href="#CMR17-66" transform="translate(666.948391 0) scale(0.996264)"/>
      <use xlink:href="#CMMI12-4b" transform="translate(724.49787 0) scale(0.996264)"/>
      <use xlink:href="#CMR17-30" transform="translate(814.645291 36.153639) scale(0.697382)"/>
      <use xlink:href="#CMMI12-53" transform="translate(807.490481 -27.44057) scale(0.697382)"/>
      <use xlink:href="#CMMI12-4b" transform="translate(854.04451 0) scale(0.996264)"/>
      <use xlink:href="#CMR17-30" transform="translate(944.191931 36.153639) scale(0.697382)"/>
      <use xlink:href="#CMMI12-53" transform="translate(937.037121 -27.44057) scale(0.697382)"/>
      <use xlink:href="#CMR17-28" transform="translate(1013.667117 0) scale(0.996264)"/>
      <use xlink:href="#CMR17-47" transform="translate(1048.947885 0) scale(0.996264)"/>
      <use xlink:href="#CMR17-65" transform="translate(1121.303231 0) scale(0.996264)"/>
      <use xlink:href="#CMR17-56" transform="translate(1161.788891 0) scale(0.996264)"/>
      <use xlink:href="#CMR17-2f" transform="translate(1230.861321 0) scale(0.996264)"/>
      <use xlink:href="#CMMI12-63" transform="translate(1276.551798 0) scale(0.996264)"/>
      <use xlink:href="#CMR17-32" transform="translate(1318.535032 36.153639) scale(0.697382)"/>
      <use xlink:href="#CMR17-29" transform="translate(1351.016346 0) scale(0.996264)"/>
     </g>
    </g>
   </g>
   <g id="matplotlib.axis_2">
    <g id="ytick_1">
     <g id="line2d_47">
      <defs>
       <path id="mb13d7c694c" d="M 0 0 
L 4 0 
" style="stroke: #000000; stroke-width: 1.2"/>
      </defs>
      <g>
       <use xlink:href="#mb13d7c694c" x="40.244285" y="180.753618" style="stroke: #000000; stroke-width: 1.2"/>
      </g>
     </g>
     <g id="line2d_48">
      <defs>
       <path id="md4d1ab8690" d="M 0 0 
L -4 0 
" style="stroke: #000000; stroke-width: 1.2"/>
      </defs>
      <g>
       <use xlink:href="#md4d1ab8690" x="360" y="180.753618" style="stroke: #000000; stroke-width: 1.2"/>
      </g>
     </g>
     <g id="text_8">
      <!-- $\mathdefault{70}$ -->
      <g transform="translate(26.781614 184.212867) scale(0.1 -0.1)">
       <defs>
        <path id="CMR17-37" d="M 2886 3941 
L 2886 4081 
L 1382 4081 
C 634 4081 621 4165 595 4288 
L 480 4288 
L 294 3094 
L 410 3094 
C 429 3215 474 3540 550 3661 
C 589 3712 1062 3712 1171 3712 
L 2579 3712 
L 1869 2661 
C 1395 1954 1069 999 1069 165 
C 1069 89 1069 -128 1299 -128 
C 1530 -128 1530 89 1530 171 
L 1530 465 
C 1530 1508 1709 2196 2003 2636 
L 2886 3941 
z
" transform="scale(0.015625)"/>
       </defs>
       <use xlink:href="#CMR17-37" transform="scale(0.996264)"/>
       <use xlink:href="#CMR17-30" transform="translate(45.690477 0) scale(0.996264)"/>
      </g>
     </g>
    </g>
    <g id="ytick_2">
     <g id="line2d_49">
      <g>
       <use xlink:href="#mb13d7c694c" x="40.244285" y="149.902625" style="stroke: #000000; stroke-width: 1.2"/>
      </g>
     </g>
     <g id="line2d_50">
      <g>
       <use xlink:href="#md4d1ab8690" x="360" y="149.902625" style="stroke: #000000; stroke-width: 1.2"/>
      </g>
     </g>
     <g id="text_9">
      <!-- $\mathdefault{80}$ -->
      <g transform="translate(26.781614 153.361874) scale(0.1 -0.1)">
       <use xlink:href="#CMR17-38" transform="scale(0.996264)"/>
       <use xlink:href="#CMR17-30" transform="translate(45.690477 0) scale(0.996264)"/>
      </g>
     </g>
    </g>
    <g id="ytick_3">
     <g id="line2d_51">
      <g>
       <use xlink:href="#mb13d7c694c" x="40.244285" y="119.051631" style="stroke: #000000; stroke-width: 1.2"/>
      </g>
     </g>
     <g id="line2d_52">
      <g>
       <use xlink:href="#md4d1ab8690" x="360" y="119.051631" style="stroke: #000000; stroke-width: 1.2"/>
      </g>
     </g>
     <g id="text_10">
      <!-- $\mathdefault{90}$ -->
      <g transform="translate(26.781614 122.51088) scale(0.1 -0.1)">
       <defs>
        <path id="CMR17-39" d="M 2253 1864 
C 2253 464 1670 31 1190 31 
C 1043 31 685 31 538 294 
C 704 268 826 357 826 518 
C 826 692 685 749 595 749 
C 538 749 365 723 365 506 
C 365 71 742 -128 1203 -128 
C 1939 -128 2688 674 2688 2073 
C 2688 3817 1971 4179 1485 4179 
C 851 4179 243 3628 243 2778 
C 243 1991 762 1408 1414 1408 
C 1952 1408 2189 1903 2253 2112 
L 2253 1864 
z
M 1427 1510 
C 1254 1510 1011 1542 813 1922 
C 678 2169 678 2461 678 2771 
C 678 3146 678 3405 858 3684 
C 947 3817 1114 4032 1485 4032 
C 2240 4032 2240 2885 2240 2632 
C 2240 2182 2035 1510 1427 1510 
z
" transform="scale(0.015625)"/>
       </defs>
       <use xlink:href="#CMR17-39" transform="scale(0.996264)"/>
       <use xlink:href="#CMR17-30" transform="translate(45.690477 0) scale(0.996264)"/>
      </g>
     </g>
    </g>
    <g id="ytick_4">
     <g id="line2d_53">
      <g>
       <use xlink:href="#mb13d7c694c" x="40.244285" y="88.200637" style="stroke: #000000; stroke-width: 1.2"/>
      </g>
     </g>
     <g id="line2d_54">
      <g>
       <use xlink:href="#md4d1ab8690" x="360" y="88.200637" style="stroke: #000000; stroke-width: 1.2"/>
      </g>
     </g>
     <g id="text_11">
      <!-- $\mathdefault{100}$ -->
      <g transform="translate(21.800279 91.659887) scale(0.1 -0.1)">
       <use xlink:href="#CMR17-31" transform="scale(0.996264)"/>
       <use xlink:href="#CMR17-30" transform="translate(45.690477 0) scale(0.996264)"/>
       <use xlink:href="#CMR17-30" transform="translate(91.380954 0) scale(0.996264)"/>
      </g>
     </g>
    </g>
    <g id="ytick_5">
     <g id="line2d_55">
      <g>
       <use xlink:href="#mb13d7c694c" x="40.244285" y="57.349644" style="stroke: #000000; stroke-width: 1.2"/>
      </g>
     </g>
     <g id="line2d_56">
      <g>
       <use xlink:href="#md4d1ab8690" x="360" y="57.349644" style="stroke: #000000; stroke-width: 1.2"/>
      </g>
     </g>
     <g id="text_12">
      <!-- $\mathdefault{110}$ -->
      <g transform="translate(21.800279 60.808893) scale(0.1 -0.1)">
       <use xlink:href="#CMR17-31" transform="scale(0.996264)"/>
       <use xlink:href="#CMR17-31" transform="translate(45.690477 0) scale(0.996264)"/>
       <use xlink:href="#CMR17-30" transform="translate(91.380954 0) scale(0.996264)"/>
      </g>
     </g>
    </g>
    <g id="ytick_6">
     <g id="line2d_57">
      <g>
       <use xlink:href="#mb13d7c694c" x="40.244285" y="26.49865" style="stroke: #000000; stroke-width: 1.2"/>
      </g>
     </g>
     <g id="line2d_58">
      <g>
       <use xlink:href="#md4d1ab8690" x="360" y="26.49865" style="stroke: #000000; stroke-width: 1.2"/>
      </g>
     </g>
     <g id="text_13">
      <!-- $\mathdefault{120}$ -->
      <g transform="translate(21.800279 29.957899) scale(0.1 -0.1)">
       <use xlink:href="#CMR17-31" transform="scale(0.996264)"/>
       <use xlink:href="#CMR17-32" transform="translate(45.690477 0) scale(0.996264)"/>
       <use xlink:href="#CMR17-30" transform="translate(91.380954 0) scale(0.996264)"/>
      </g>
     </g>
    </g>
    <g id="ytick_7">
     <g id="line2d_59">
      <defs>
       <path id="mb2cb29a054" d="M 0 0 
L 2.5 0 
" style="stroke: #000000; stroke-width: 0.8"/>
      </defs>
      <g>
       <use xlink:href="#mb2cb29a054" x="40.244285" y="186.923817" style="stroke: #000000; stroke-width: 0.8"/>
      </g>
     </g>
     <g id="line2d_60">
      <defs>
       <path id="m674f6645e3" d="M 0 0 
L -2.5 0 
" style="stroke: #000000; stroke-width: 0.8"/>
      </defs>
      <g>
       <use xlink:href="#m674f6645e3" x="360" y="186.923817" style="stroke: #000000; stroke-width: 0.8"/>
      </g>
     </g>
    </g>
    <g id="ytick_8">
     <g id="line2d_61">
      <g>
       <use xlink:href="#mb2cb29a054" x="40.244285" y="174.583419" style="stroke: #000000; stroke-width: 0.8"/>
      </g>
     </g>
     <g id="line2d_62">
      <g>
       <use xlink:href="#m674f6645e3" x="360" y="174.583419" style="stroke: #000000; stroke-width: 0.8"/>
      </g>
     </g>
    </g>
    <g id="ytick_9">
     <g id="line2d_63">
      <g>
       <use xlink:href="#mb2cb29a054" x="40.244285" y="168.413221" style="stroke: #000000; stroke-width: 0.8"/>
      </g>
     </g>
     <g id="line2d_64">
      <g>
       <use xlink:href="#m674f6645e3" x="360" y="168.413221" style="stroke: #000000; stroke-width: 0.8"/>
      </g>
     </g>
    </g>
    <g id="ytick_10">
     <g id="line2d_65">
      <g>
       <use xlink:href="#mb2cb29a054" x="40.244285" y="162.243022" style="stroke: #000000; stroke-width: 0.8"/>
      </g>
     </g>
     <g id="line2d_66">
      <g>
       <use xlink:href="#m674f6645e3" x="360" y="162.243022" style="stroke: #000000; stroke-width: 0.8"/>
      </g>
     </g>
    </g>
    <g id="ytick_11">
     <g id="line2d_67">
      <g>
       <use xlink:href="#mb2cb29a054" x="40.244285" y="156.072823" style="stroke: #000000; stroke-width: 0.8"/>
      </g>
     </g>
     <g id="line2d_68">
      <g>
       <use xlink:href="#m674f6645e3" x="360" y="156.072823" style="stroke: #000000; stroke-width: 0.8"/>
      </g>
     </g>
    </g>
    <g id="ytick_12">
     <g id="line2d_69">
      <g>
       <use xlink:href="#mb2cb29a054" x="40.244285" y="143.732426" style="stroke: #000000; stroke-width: 0.8"/>
      </g>
     </g>
     <g id="line2d_70">
      <g>
       <use xlink:href="#m674f6645e3" x="360" y="143.732426" style="stroke: #000000; stroke-width: 0.8"/>
      </g>
     </g>
    </g>
    <g id="ytick_13">
     <g id="line2d_71">
      <g>
       <use xlink:href="#mb2cb29a054" x="40.244285" y="137.562227" style="stroke: #000000; stroke-width: 0.8"/>
      </g>
     </g>
     <g id="line2d_72">
      <g>
       <use xlink:href="#m674f6645e3" x="360" y="137.562227" style="stroke: #000000; stroke-width: 0.8"/>
      </g>
     </g>
    </g>
    <g id="ytick_14">
     <g id="line2d_73">
      <g>
       <use xlink:href="#mb2cb29a054" x="40.244285" y="131.392028" style="stroke: #000000; stroke-width: 0.8"/>
      </g>
     </g>
     <g id="line2d_74">
      <g>
       <use xlink:href="#m674f6645e3" x="360" y="131.392028" style="stroke: #000000; stroke-width: 0.8"/>
      </g>
     </g>
    </g>
    <g id="ytick_15">
     <g id="line2d_75">
      <g>
       <use xlink:href="#mb2cb29a054" x="40.244285" y="125.22183" style="stroke: #000000; stroke-width: 0.8"/>
      </g>
     </g>
     <g id="line2d_76">
      <g>
       <use xlink:href="#m674f6645e3" x="360" y="125.22183" style="stroke: #000000; stroke-width: 0.8"/>
      </g>
     </g>
    </g>
    <g id="ytick_16">
     <g id="line2d_77">
      <g>
       <use xlink:href="#mb2cb29a054" x="40.244285" y="112.881432" style="stroke: #000000; stroke-width: 0.8"/>
      </g>
     </g>
     <g id="line2d_78">
      <g>
       <use xlink:href="#m674f6645e3" x="360" y="112.881432" style="stroke: #000000; stroke-width: 0.8"/>
      </g>
     </g>
    </g>
    <g id="ytick_17">
     <g id="line2d_79">
      <g>
       <use xlink:href="#mb2cb29a054" x="40.244285" y="106.711234" style="stroke: #000000; stroke-width: 0.8"/>
      </g>
     </g>
     <g id="line2d_80">
      <g>
       <use xlink:href="#m674f6645e3" x="360" y="106.711234" style="stroke: #000000; stroke-width: 0.8"/>
      </g>
     </g>
    </g>
    <g id="ytick_18">
     <g id="line2d_81">
      <g>
       <use xlink:href="#mb2cb29a054" x="40.244285" y="100.541035" style="stroke: #000000; stroke-width: 0.8"/>
      </g>
     </g>
     <g id="line2d_82">
      <g>
       <use xlink:href="#m674f6645e3" x="360" y="100.541035" style="stroke: #000000; stroke-width: 0.8"/>
      </g>
     </g>
    </g>
    <g id="ytick_19">
     <g id="line2d_83">
      <g>
       <use xlink:href="#mb2cb29a054" x="40.244285" y="94.370836" style="stroke: #000000; stroke-width: 0.8"/>
      </g>
     </g>
     <g id="line2d_84">
      <g>
       <use xlink:href="#m674f6645e3" x="360" y="94.370836" style="stroke: #000000; stroke-width: 0.8"/>
      </g>
     </g>
    </g>
    <g id="ytick_20">
     <g id="line2d_85">
      <g>
       <use xlink:href="#mb2cb29a054" x="40.244285" y="82.030439" style="stroke: #000000; stroke-width: 0.8"/>
      </g>
     </g>
     <g id="line2d_86">
      <g>
       <use xlink:href="#m674f6645e3" x="360" y="82.030439" style="stroke: #000000; stroke-width: 0.8"/>
      </g>
     </g>
    </g>
    <g id="ytick_21">
     <g id="line2d_87">
      <g>
       <use xlink:href="#mb2cb29a054" x="40.244285" y="75.86024" style="stroke: #000000; stroke-width: 0.8"/>
      </g>
     </g>
     <g id="line2d_88">
      <g>
       <use xlink:href="#m674f6645e3" x="360" y="75.86024" style="stroke: #000000; stroke-width: 0.8"/>
      </g>
     </g>
    </g>
    <g id="ytick_22">
     <g id="line2d_89">
      <g>
       <use xlink:href="#mb2cb29a054" x="40.244285" y="69.690041" style="stroke: #000000; stroke-width: 0.8"/>
      </g>
     </g>
     <g id="line2d_90">
      <g>
       <use xlink:href="#m674f6645e3" x="360" y="69.690041" style="stroke: #000000; stroke-width: 0.8"/>
      </g>
     </g>
    </g>
    <g id="ytick_23">
     <g id="line2d_91">
      <g>
       <use xlink:href="#mb2cb29a054" x="40.244285" y="63.519843" style="stroke: #000000; stroke-width: 0.8"/>
      </g>
     </g>
     <g id="line2d_92">
      <g>
       <use xlink:href="#m674f6645e3" x="360" y="63.519843" style="stroke: #000000; stroke-width: 0.8"/>
      </g>
     </g>
    </g>
    <g id="ytick_24">
     <g id="line2d_93">
      <g>
       <use xlink:href="#mb2cb29a054" x="40.244285" y="51.179445" style="stroke: #000000; stroke-width: 0.8"/>
      </g>
     </g>
     <g id="line2d_94">
      <g>
       <use xlink:href="#m674f6645e3" x="360" y="51.179445" style="stroke: #000000; stroke-width: 0.8"/>
      </g>
     </g>
    </g>
    <g id="ytick_25">
     <g id="line2d_95">
      <g>
       <use xlink:href="#mb2cb29a054" x="40.244285" y="45.009246" style="stroke: #000000; stroke-width: 0.8"/>
      </g>
     </g>
     <g id="line2d_96">
      <g>
       <use xlink:href="#m674f6645e3" x="360" y="45.009246" style="stroke: #000000; stroke-width: 0.8"/>
      </g>
     </g>
    </g>
    <g id="ytick_26">
     <g id="line2d_97">
      <g>
       <use xlink:href="#mb2cb29a054" x="40.244285" y="38.839048" style="stroke: #000000; stroke-width: 0.8"/>
      </g>
     </g>
     <g id="line2d_98">
      <g>
       <use xlink:href="#m674f6645e3" x="360" y="38.839048" style="stroke: #000000; stroke-width: 0.8"/>
      </g>
     </g>
    </g>
    <g id="ytick_27">
     <g id="line2d_99">
      <g>
       <use xlink:href="#mb2cb29a054" x="40.244285" y="32.668849" style="stroke: #000000; stroke-width: 0.8"/>
      </g>
     </g>
     <g id="line2d_100">
      <g>
       <use xlink:href="#m674f6645e3" x="360" y="32.668849" style="stroke: #000000; stroke-width: 0.8"/>
      </g>
     </g>
    </g>
    <g id="ytick_28">
     <g id="line2d_101">
      <g>
       <use xlink:href="#mb2cb29a054" x="40.244285" y="20.328451" style="stroke: #000000; stroke-width: 0.8"/>
      </g>
     </g>
     <g id="line2d_102">
      <g>
       <use xlink:href="#m674f6645e3" x="360" y="20.328451" style="stroke: #000000; stroke-width: 0.8"/>
      </g>
     </g>
    </g>
    <g id="ytick_29">
     <g id="line2d_103">
      <g>
       <use xlink:href="#mb2cb29a054" x="40.244285" y="14.158253" style="stroke: #000000; stroke-width: 0.8"/>
      </g>
     </g>
     <g id="line2d_104">
      <g>
       <use xlink:href="#m674f6645e3" x="360" y="14.158253" style="stroke: #000000; stroke-width: 0.8"/>
      </g>
     </g>
    </g>
    <g id="ytick_30">
     <g id="line2d_105">
      <g>
       <use xlink:href="#mb2cb29a054" x="40.244285" y="7.988054" style="stroke: #000000; stroke-width: 0.8"/>
      </g>
     </g>
     <g id="line2d_106">
      <g>
       <use xlink:href="#m674f6645e3" x="360" y="7.988054" style="stroke: #000000; stroke-width: 0.8"/>
      </g>
     </g>
    </g>
    <g id="text_14">
     <!-- $\lambda_B$ (ns${}^{-1}$) -->
     <g transform="translate(15.309619 119.944842) rotate(-90) scale(0.1 -0.1)">
      <defs>
       <path id="CMMI12-15" d="M 1978 3965 
C 1818 4416 1312 4416 1229 4416 
C 1190 4416 1120 4416 1120 4352 
C 1120 4302 1158 4295 1190 4289 
C 1286 4276 1363 4263 1466 4080 
C 1530 3959 2189 2059 2189 2046 
C 2189 2040 2182 2033 2131 1982 
L 467 311 
C 390 234 339 183 339 102 
C 339 12 416 -64 518 -64 
C 544 -64 614 -51 653 -13 
C 755 82 1670 1194 2253 1881 
C 2419 1383 2624 797 2822 261 
C 2854 166 2886 76 2976 -6 
C 3040 -64 3053 -64 3232 -64 
L 3354 -64 
C 3379 -64 3424 -64 3424 -13 
C 3424 13 3418 19 3392 45 
C 3334 115 3290 229 3264 306 
L 1978 3965 
z
" transform="scale(0.015625)"/>
       <path id="CMMI12-42" d="M 2342 3921 
C 2400 4160 2426 4160 2675 4160 
L 3507 4160 
C 4230 4160 4230 3544 4230 3485 
C 4230 2966 3712 2304 2867 2304 
L 1946 2304 
L 2342 3921 
z
M 3424 2275 
C 4122 2402 4755 2886 4755 3473 
C 4755 3970 4314 4352 3590 4352 
L 1536 4352 
C 1414 4352 1357 4352 1357 4226 
C 1357 4160 1414 4160 1510 4160 
C 1901 4160 1901 4112 1901 4044 
C 1901 4032 1901 3993 1875 3897 
L 1011 472 
C 954 249 941 185 493 185 
C 371 185 307 185 307 70 
C 307 0 346 0 474 0 
L 2669 0 
C 3648 0 4403 739 4403 1383 
C 4403 1906 3942 2224 3424 2275 
z
M 2515 185 
L 1651 185 
C 1562 185 1549 185 1510 192 
C 1440 198 1434 211 1434 261 
C 1434 305 1446 343 1459 399 
L 1907 2176 
L 3110 2176 
C 3866 2176 3866 1483 3866 1433 
C 3866 828 3309 185 2515 185 
z
" transform="scale(0.015625)"/>
       <path id="CMSY10-0" d="M 4218 1472 
C 4326 1472 4442 1472 4442 1600 
C 4442 1728 4326 1728 4218 1728 
L 755 1728 
C 646 1728 531 1728 531 1600 
C 531 1472 646 1472 755 1472 
L 4218 1472 
z
" transform="scale(0.015625)"/>
      </defs>
      <use xlink:href="#CMMI12-15" transform="scale(0.996264)"/>
      <use xlink:href="#CMMI12-42" transform="translate(56.904072 -14.943915) scale(0.697382)"/>
      <use xlink:href="#CMR17-28" transform="translate(142.872796 0) scale(0.996264)"/>
      <use xlink:href="#CMR17-6e" transform="translate(178.153564 0) scale(0.996264)"/>
      <use xlink:href="#CMR17-73" transform="translate(229.048934 0) scale(0.996264)"/>
      <use xlink:href="#CMSY10-0" transform="translate(264.850272 36.153639) scale(0.697382)"/>
      <use xlink:href="#CMR17-31" transform="translate(319.091265 36.153639) scale(0.697382)"/>
      <use xlink:href="#CMR17-29" transform="translate(351.572579 0) scale(0.996264)"/>
     </g>
    </g>
   </g>
   <g id="LineCollection_1">
    <path d="M 54.778635 188.790661 
L 54.778635 7.2 
" clip-path="url(#p0de2007b2e)" style="fill: none; stroke: #000000; stroke-width: 0.5"/>
    <path d="M 99.032198 188.790661 
L 99.032198 7.2 
" clip-path="url(#p0de2007b2e)" style="fill: none; stroke: #000000; stroke-width: 0.5"/>
    <path d="M 130.673597 188.790661 
L 130.673597 7.2 
" clip-path="url(#p0de2007b2e)" style="fill: none; stroke: #000000; stroke-width: 0.5"/>
    <path d="M 163.687299 188.790661 
L 163.687299 7.2 
" clip-path="url(#p0de2007b2e)" style="fill: none; stroke: #000000; stroke-width: 0.5"/>
    <path d="M 208.855514 188.790661 
L 208.855514 7.2 
" clip-path="url(#p0de2007b2e)" style="fill: none; stroke: #000000; stroke-width: 0.5"/>
    <path d="M 345.465649 188.790661 
L 345.465649 7.2 
" clip-path="url(#p0de2007b2e)" style="fill: none; stroke: #000000; stroke-width: 0.5"/>
   </g>
   <g id="LineCollection_2">
    <path d="M 76.905417 180.53654 
L 76.905417 76.099286 
" clip-path="url(#p0de2007b2e)" style="fill: none; stroke: #377eb8; stroke-width: 0.5"/>
   </g>
   <g id="line2d_107">
    <defs>
     <path id="m27da6b52d8" d="M 1 0 
L -1 -0 
" style="stroke: #377eb8"/>
    </defs>
    <g clip-path="url(#p0de2007b2e)">
     <use xlink:href="#m27da6b52d8" x="76.905417" y="180.53654" style="fill: #377eb8; stroke: #377eb8"/>
    </g>
   </g>
   <g id="line2d_108">
    <g clip-path="url(#p0de2007b2e)">
     <use xlink:href="#m27da6b52d8" x="76.905417" y="76.099286" style="fill: #377eb8; stroke: #377eb8"/>
    </g>
   </g>
   <g id="LineCollection_3">
    <path d="M 114.852897 154.843785 
L 114.852897 45.990499 
" clip-path="url(#p0de2007b2e)" style="fill: none; stroke: #377eb8; stroke-width: 0.5"/>
   </g>
   <g id="line2d_109">
    <g clip-path="url(#p0de2007b2e)">
     <use xlink:href="#m27da6b52d8" x="114.852897" y="154.843785" style="fill: #377eb8; stroke: #377eb8"/>
    </g>
   </g>
   <g id="line2d_110">
    <g clip-path="url(#p0de2007b2e)">
     <use xlink:href="#m27da6b52d8" x="114.852897" y="45.990499" style="fill: #377eb8; stroke: #377eb8"/>
    </g>
   </g>
   <g id="LineCollection_4">
    <path d="M 147.180448 106.329754 
L 147.180448 50.791832 
" clip-path="url(#p0de2007b2e)" style="fill: none; stroke: #377eb8; stroke-width: 0.5"/>
   </g>
   <g id="line2d_111">
    <g clip-path="url(#p0de2007b2e)">
     <use xlink:href="#m27da6b52d8" x="147.180448" y="106.329754" style="fill: #377eb8; stroke: #377eb8"/>
    </g>
   </g>
   <g id="line2d_112">
    <g clip-path="url(#p0de2007b2e)">
     <use xlink:href="#m27da6b52d8" x="147.180448" y="50.791832" style="fill: #377eb8; stroke: #377eb8"/>
    </g>
   </g>
   <g id="LineCollection_5">
    <path d="M 186.271407 99.909029 
L 186.271407 15.454121 
" clip-path="url(#p0de2007b2e)" style="fill: none; stroke: #377eb8; stroke-width: 0.5"/>
   </g>
   <g id="line2d_113">
    <g clip-path="url(#p0de2007b2e)">
     <use xlink:href="#m27da6b52d8" x="186.271407" y="99.909029" style="fill: #377eb8; stroke: #377eb8"/>
    </g>
   </g>
   <g id="line2d_114">
    <g clip-path="url(#p0de2007b2e)">
     <use xlink:href="#m27da6b52d8" x="186.271407" y="15.454121" style="fill: #377eb8; stroke: #377eb8"/>
    </g>
   </g>
   <g id="LineCollection_6">
    <path d="M 277.160582 93.931393 
L 277.160582 87.761195 
" clip-path="url(#p0de2007b2e)" style="fill: none; stroke: #377eb8; stroke-width: 0.5"/>
   </g>
   <g id="line2d_115">
    <g clip-path="url(#p0de2007b2e)">
     <use xlink:href="#m27da6b52d8" x="277.160582" y="93.931393" style="fill: #377eb8; stroke: #377eb8"/>
    </g>
   </g>
   <g id="line2d_116">
    <g clip-path="url(#p0de2007b2e)">
     <use xlink:href="#m27da6b52d8" x="277.160582" y="87.761195" style="fill: #377eb8; stroke: #377eb8"/>
    </g>
   </g>
   <g id="line2d_117">
    <defs>
     <path id="m30a4178569" d="M 0 1.5 
C 0.397805 1.5 0.77937 1.341951 1.06066 1.06066 
C 1.341951 0.77937 1.5 0.397805 1.5 0 
C 1.5 -0.397805 1.341951 -0.77937 1.06066 -1.06066 
C 0.77937 -1.341951 0.397805 -1.5 0 -1.5 
C -0.397805 -1.5 -0.77937 -1.341951 -1.06066 -1.06066 
C -1.341951 -0.77937 -1.5 -0.397805 -1.5 0 
C -1.5 0.397805 -1.341951 0.77937 -1.06066 1.06066 
C -0.77937 1.341951 -0.397805 1.5 0 1.5 
z
" style="stroke: #377eb8"/>
    </defs>
    <g clip-path="url(#p0de2007b2e)">
     <use xlink:href="#m30a4178569" x="76.905417" y="128.317913" style="fill: #377eb8; stroke: #377eb8"/>
    </g>
   </g>
   <g id="line2d_118">
    <g clip-path="url(#p0de2007b2e)">
     <use xlink:href="#m30a4178569" x="114.852897" y="100.417142" style="fill: #377eb8; stroke: #377eb8"/>
    </g>
   </g>
   <g id="line2d_119">
    <g clip-path="url(#p0de2007b2e)">
     <use xlink:href="#m30a4178569" x="147.180448" y="78.560793" style="fill: #377eb8; stroke: #377eb8"/>
    </g>
   </g>
   <g id="line2d_120">
    <g clip-path="url(#p0de2007b2e)">
     <use xlink:href="#m30a4178569" x="186.271407" y="57.681575" style="fill: #377eb8; stroke: #377eb8"/>
    </g>
   </g>
   <g id="line2d_121">
    <g clip-path="url(#p0de2007b2e)">
     <use xlink:href="#m30a4178569" x="277.160582" y="90.846294" style="fill: #377eb8; stroke: #377eb8"/>
    </g>
   </g>
   <g id="patch_3">
    <path d="M 40.244285 188.790661 
L 40.244285 7.2 
" style="fill: none; stroke: #000000; stroke-width: 0.8; stroke-linejoin: miter; stroke-linecap: square"/>
   </g>
   <g id="patch_4">
    <path d="M 360 188.790661 
L 360 7.2 
" style="fill: none; stroke: #000000; stroke-width: 0.8; stroke-linejoin: miter; stroke-linecap: square"/>
   </g>
   <g id="patch_5">
    <path d="M 40.244285 188.790661 
L 360 188.790661 
" style="fill: none; stroke: #000000; stroke-width: 0.8; stroke-linejoin: miter; stroke-linecap: square"/>
   </g>
   <g id="patch_6">
    <path d="M 40.244285 7.2 
L 360 7.2 
" style="fill: none; stroke: #000000; stroke-width: 0.8; stroke-linejoin: miter; stroke-linecap: square"/>
   </g>
  </g>
 </g>
 <defs>
  <clipPath id="p0de2007b2e">
   <rect x="40.244285" y="7.2" width="319.755715" height="181.590661"/>
  </clipPath>
 </defs>
</svg>
