<?xml version="1.0" encoding="utf-8" standalone="no"?>
<!DOCTYPE svg PUBLIC "-//W3C//DTD SVG 1.1//EN"
  "http://www.w3.org/Graphics/SVG/1.1/DTD/svg11.dtd">
<svg xmlns:xlink="http://www.w3.org/1999/xlink" width="372.181335pt" height="223.2pt" viewBox="0 0 372.181335 223.2" xmlns="http://www.w3.org/2000/svg" version="1.1">
 <metadata>
  <rdf:RDF xmlns:dc="http://purl.org/dc/elements/1.1/" xmlns:cc="http://creativecommons.org/ns#" xmlns:rdf="http://www.w3.org/1999/02/22-rdf-syntax-ns#">
   <cc:Work>
    <dc:type rdf:resource="http://purl.org/dc/dcmitype/StillImage"/>
    <dc:date>2025-05-27T13:03:21.544034</dc:date>
    <dc:format>image/svg+xml</dc:format>
    <dc:creator>
     <cc:Agent>
      <dc:title>Matplotlib v3.10.3, https://matplotlib.org/</dc:title>
     </cc:Agent>
    </dc:creator>
   </cc:Work>
  </rdf:RDF>
 </metadata>
 <defs>
  <style type="text/css">*{stroke-linejoin: round; stroke-linecap: butt}</style>
 </defs>
 <g id="figure_1">
  <g id="patch_1">
   <path d="M 0 223.2 
L 372.181335 223.2 
L 372.181335 0 
L 0 0 
z
" style="fill: #ffffff"/>
  </g>
  <g id="axes_1">
   <g id="patch_2">
    <path d="M 43.741151 188.314587 
L 364.981335 188.314587 
L 364.981335 7.2 
L 43.741151 7.2 
z
" style="fill: #ffffff"/>
   </g>
   <g id="matplotlib.axis_1">
    <g id="xtick_1">
     <g id="line2d_1">
      <defs>
       <path id="mcf8f13bb19" d="M 0 0 
L 0 -4 
" style="stroke: #000000; stroke-width: 1.2"/>
      </defs>
      <g>
       <use xlink:href="#mcf8f13bb19" x="58.342977" y="188.314587" style="stroke: #000000; stroke-width: 1.2"/>
      </g>
     </g>
     <g id="line2d_2">
      <defs>
       <path id="m05ee6b2686" d="M 0 0 
L 0 4 
" style="stroke: #000000; stroke-width: 1.2"/>
      </defs>
      <g>
       <use xlink:href="#m05ee6b2686" x="58.342977" y="7.2" style="stroke: #000000; stroke-width: 1.2"/>
      </g>
     </g>
     <g id="text_1">
      <!-- $\mathdefault{−1.00}$ -->
      <g transform="translate(45.612898 198.733085) scale(0.1 -0.1)">
       <defs>
        <path id="CMSY10-0" d="M 4218 1472 
C 4326 1472 4442 1472 4442 1600 
C 4442 1728 4326 1728 4218 1728 
L 755 1728 
C 646 1728 531 1728 531 1600 
C 531 1472 646 1472 755 1472 
L 4218 1472 
z
" transform="scale(0.015625)"/>
        <path id="CMR17-31" d="M 1702 4058 
C 1702 4192 1696 4192 1606 4192 
C 1357 3916 979 3827 621 3827 
C 602 3827 570 3827 563 3808 
C 557 3795 557 3782 557 3648 
C 755 3648 1088 3686 1344 3839 
L 1344 461 
C 1344 236 1331 160 781 160 
L 589 160 
L 589 0 
C 896 0 1216 0 1523 0 
C 1830 0 2150 0 2458 0 
L 2458 160 
L 2266 160 
C 1715 160 1702 230 1702 458 
L 1702 4058 
z
" transform="scale(0.015625)"/>
        <path id="CMMI12-3a" d="M 1178 307 
C 1178 492 1024 619 870 619 
C 685 619 557 466 557 313 
C 557 128 710 0 864 0 
C 1050 0 1178 153 1178 307 
z
" transform="scale(0.015625)"/>
        <path id="CMR17-30" d="M 2688 2025 
C 2688 2416 2682 3080 2413 3591 
C 2176 4039 1798 4198 1466 4198 
C 1158 4198 768 4058 525 3597 
C 269 3118 243 2524 243 2025 
C 243 1661 250 1106 448 619 
C 723 -39 1216 -128 1466 -128 
C 1760 -128 2208 -7 2470 600 
C 2662 1042 2688 1559 2688 2025 
z
M 1466 -26 
C 1056 -26 813 325 723 812 
C 653 1188 653 1738 653 2096 
C 653 2588 653 2997 736 3387 
C 858 3929 1216 4096 1466 4096 
C 1728 4096 2067 3923 2189 3400 
C 2272 3036 2278 2607 2278 2096 
C 2278 1680 2278 1169 2202 792 
C 2067 95 1690 -26 1466 -26 
z
" transform="scale(0.015625)"/>
       </defs>
       <use xlink:href="#CMSY10-0" transform="scale(0.996264)"/>
       <use xlink:href="#CMR17-31" transform="translate(77.487468 0) scale(0.996264)"/>
       <use xlink:href="#CMMI12-3a" transform="translate(123.177945 0) scale(0.996264)"/>
       <use xlink:href="#CMR17-30" transform="translate(150.275122 0) scale(0.996264)"/>
       <use xlink:href="#CMR17-30" transform="translate(195.965599 0) scale(0.996264)"/>
      </g>
     </g>
    </g>
    <g id="xtick_2">
     <g id="line2d_3">
      <g>
       <use xlink:href="#mcf8f13bb19" x="94.847544" y="188.314587" style="stroke: #000000; stroke-width: 1.2"/>
      </g>
     </g>
     <g id="line2d_4">
      <g>
       <use xlink:href="#m05ee6b2686" x="94.847544" y="7.2" style="stroke: #000000; stroke-width: 1.2"/>
      </g>
     </g>
     <g id="text_2">
      <!-- $\mathdefault{−0.75}$ -->
      <g transform="translate(82.117465 198.733085) scale(0.1 -0.1)">
       <defs>
        <path id="CMR17-37" d="M 2886 3941 
L 2886 4081 
L 1382 4081 
C 634 4081 621 4165 595 4288 
L 480 4288 
L 294 3094 
L 410 3094 
C 429 3215 474 3540 550 3661 
C 589 3712 1062 3712 1171 3712 
L 2579 3712 
L 1869 2661 
C 1395 1954 1069 999 1069 165 
C 1069 89 1069 -128 1299 -128 
C 1530 -128 1530 89 1530 171 
L 1530 465 
C 1530 1508 1709 2196 2003 2636 
L 2886 3941 
z
" transform="scale(0.015625)"/>
        <path id="CMR17-35" d="M 730 3692 
C 794 3666 1056 3584 1325 3584 
C 1920 3584 2246 3911 2432 4100 
C 2432 4157 2432 4192 2394 4192 
C 2387 4192 2374 4192 2323 4163 
C 2099 4058 1837 3973 1517 3973 
C 1325 3973 1037 3999 723 4139 
C 653 4171 640 4171 634 4171 
C 602 4171 595 4164 595 4037 
L 595 2203 
C 595 2089 595 2057 659 2057 
C 691 2057 704 2070 736 2114 
C 941 2401 1222 2522 1542 2522 
C 1766 2522 2246 2382 2246 1289 
C 2246 1085 2246 715 2054 421 
C 1894 159 1645 25 1370 25 
C 947 25 518 320 403 814 
C 429 807 480 795 506 795 
C 589 795 749 840 749 1038 
C 749 1210 627 1280 506 1280 
C 358 1280 262 1190 262 1011 
C 262 454 704 -128 1382 -128 
C 2042 -128 2669 440 2669 1264 
C 2669 2030 2170 2624 1549 2624 
C 1222 2624 947 2503 730 2274 
L 730 3692 
z
" transform="scale(0.015625)"/>
       </defs>
       <use xlink:href="#CMSY10-0" transform="scale(0.996264)"/>
       <use xlink:href="#CMR17-30" transform="translate(77.487468 0) scale(0.996264)"/>
       <use xlink:href="#CMMI12-3a" transform="translate(123.177945 0) scale(0.996264)"/>
       <use xlink:href="#CMR17-37" transform="translate(150.275122 0) scale(0.996264)"/>
       <use xlink:href="#CMR17-35" transform="translate(195.965599 0) scale(0.996264)"/>
      </g>
     </g>
    </g>
    <g id="xtick_3">
     <g id="line2d_5">
      <g>
       <use xlink:href="#mcf8f13bb19" x="131.35211" y="188.314587" style="stroke: #000000; stroke-width: 1.2"/>
      </g>
     </g>
     <g id="line2d_6">
      <g>
       <use xlink:href="#m05ee6b2686" x="131.35211" y="7.2" style="stroke: #000000; stroke-width: 1.2"/>
      </g>
     </g>
     <g id="text_3">
      <!-- $\mathdefault{−0.50}$ -->
      <g transform="translate(118.622031 198.733085) scale(0.1 -0.1)">
       <use xlink:href="#CMSY10-0" transform="scale(0.996264)"/>
       <use xlink:href="#CMR17-30" transform="translate(77.487468 0) scale(0.996264)"/>
       <use xlink:href="#CMMI12-3a" transform="translate(123.177945 0) scale(0.996264)"/>
       <use xlink:href="#CMR17-35" transform="translate(150.275122 0) scale(0.996264)"/>
       <use xlink:href="#CMR17-30" transform="translate(195.965599 0) scale(0.996264)"/>
      </g>
     </g>
    </g>
    <g id="xtick_4">
     <g id="line2d_7">
      <g>
       <use xlink:href="#mcf8f13bb19" x="167.856676" y="188.314587" style="stroke: #000000; stroke-width: 1.2"/>
      </g>
     </g>
     <g id="line2d_8">
      <g>
       <use xlink:href="#m05ee6b2686" x="167.856676" y="7.2" style="stroke: #000000; stroke-width: 1.2"/>
      </g>
     </g>
     <g id="text_4">
      <!-- $\mathdefault{−0.25}$ -->
      <g transform="translate(155.126598 198.733085) scale(0.1 -0.1)">
       <defs>
        <path id="CMR17-32" d="M 2669 989 
L 2554 989 
C 2490 536 2438 459 2413 420 
C 2381 369 1920 369 1830 369 
L 602 369 
C 832 619 1280 1072 1824 1597 
C 2214 1967 2669 2402 2669 3035 
C 2669 3790 2067 4224 1395 4224 
C 691 4224 262 3604 262 3030 
C 262 2780 448 2748 525 2748 
C 589 2748 781 2787 781 3010 
C 781 3207 614 3264 525 3264 
C 486 3264 448 3258 422 3245 
C 544 3790 915 4058 1306 4058 
C 1862 4058 2227 3617 2227 3035 
C 2227 2479 1901 2000 1536 1584 
L 262 146 
L 262 0 
L 2515 0 
L 2669 989 
z
" transform="scale(0.015625)"/>
       </defs>
       <use xlink:href="#CMSY10-0" transform="scale(0.996264)"/>
       <use xlink:href="#CMR17-30" transform="translate(77.487468 0) scale(0.996264)"/>
       <use xlink:href="#CMMI12-3a" transform="translate(123.177945 0) scale(0.996264)"/>
       <use xlink:href="#CMR17-32" transform="translate(150.275122 0) scale(0.996264)"/>
       <use xlink:href="#CMR17-35" transform="translate(195.965599 0) scale(0.996264)"/>
      </g>
     </g>
    </g>
    <g id="xtick_5">
     <g id="line2d_9">
      <g>
       <use xlink:href="#mcf8f13bb19" x="204.361243" y="188.314587" style="stroke: #000000; stroke-width: 1.2"/>
      </g>
     </g>
     <g id="line2d_10">
      <g>
       <use xlink:href="#m05ee6b2686" x="204.361243" y="7.2" style="stroke: #000000; stroke-width: 1.2"/>
      </g>
     </g>
     <g id="text_5">
      <!-- $\mathdefault{0.00}$ -->
      <g transform="translate(195.505536 198.733085) scale(0.1 -0.1)">
       <use xlink:href="#CMR17-30" transform="scale(0.996264)"/>
       <use xlink:href="#CMMI12-3a" transform="translate(45.690477 0) scale(0.996264)"/>
       <use xlink:href="#CMR17-30" transform="translate(72.787654 0) scale(0.996264)"/>
       <use xlink:href="#CMR17-30" transform="translate(118.478131 0) scale(0.996264)"/>
      </g>
     </g>
    </g>
    <g id="xtick_6">
     <g id="line2d_11">
      <g>
       <use xlink:href="#mcf8f13bb19" x="240.865809" y="188.314587" style="stroke: #000000; stroke-width: 1.2"/>
      </g>
     </g>
     <g id="line2d_12">
      <g>
       <use xlink:href="#m05ee6b2686" x="240.865809" y="7.2" style="stroke: #000000; stroke-width: 1.2"/>
      </g>
     </g>
     <g id="text_6">
      <!-- $\mathdefault{0.25}$ -->
      <g transform="translate(232.010102 198.733085) scale(0.1 -0.1)">
       <use xlink:href="#CMR17-30" transform="scale(0.996264)"/>
       <use xlink:href="#CMMI12-3a" transform="translate(45.690477 0) scale(0.996264)"/>
       <use xlink:href="#CMR17-32" transform="translate(72.787654 0) scale(0.996264)"/>
       <use xlink:href="#CMR17-35" transform="translate(118.478131 0) scale(0.996264)"/>
      </g>
     </g>
    </g>
    <g id="xtick_7">
     <g id="line2d_13">
      <g>
       <use xlink:href="#mcf8f13bb19" x="277.370376" y="188.314587" style="stroke: #000000; stroke-width: 1.2"/>
      </g>
     </g>
     <g id="line2d_14">
      <g>
       <use xlink:href="#m05ee6b2686" x="277.370376" y="7.2" style="stroke: #000000; stroke-width: 1.2"/>
      </g>
     </g>
     <g id="text_7">
      <!-- $\mathdefault{0.50}$ -->
      <g transform="translate(268.514669 198.733085) scale(0.1 -0.1)">
       <use xlink:href="#CMR17-30" transform="scale(0.996264)"/>
       <use xlink:href="#CMMI12-3a" transform="translate(45.690477 0) scale(0.996264)"/>
       <use xlink:href="#CMR17-35" transform="translate(72.787654 0) scale(0.996264)"/>
       <use xlink:href="#CMR17-30" transform="translate(118.478131 0) scale(0.996264)"/>
      </g>
     </g>
    </g>
    <g id="xtick_8">
     <g id="line2d_15">
      <g>
       <use xlink:href="#mcf8f13bb19" x="313.874942" y="188.314587" style="stroke: #000000; stroke-width: 1.2"/>
      </g>
     </g>
     <g id="line2d_16">
      <g>
       <use xlink:href="#m05ee6b2686" x="313.874942" y="7.2" style="stroke: #000000; stroke-width: 1.2"/>
      </g>
     </g>
     <g id="text_8">
      <!-- $\mathdefault{0.75}$ -->
      <g transform="translate(305.019235 198.733085) scale(0.1 -0.1)">
       <use xlink:href="#CMR17-30" transform="scale(0.996264)"/>
       <use xlink:href="#CMMI12-3a" transform="translate(45.690477 0) scale(0.996264)"/>
       <use xlink:href="#CMR17-37" transform="translate(72.787654 0) scale(0.996264)"/>
       <use xlink:href="#CMR17-35" transform="translate(118.478131 0) scale(0.996264)"/>
      </g>
     </g>
    </g>
    <g id="xtick_9">
     <g id="line2d_17">
      <g>
       <use xlink:href="#mcf8f13bb19" x="350.379509" y="188.314587" style="stroke: #000000; stroke-width: 1.2"/>
      </g>
     </g>
     <g id="line2d_18">
      <g>
       <use xlink:href="#m05ee6b2686" x="350.379509" y="7.2" style="stroke: #000000; stroke-width: 1.2"/>
      </g>
     </g>
     <g id="text_9">
      <!-- $\mathdefault{1.00}$ -->
      <g transform="translate(341.523802 198.733085) scale(0.1 -0.1)">
       <use xlink:href="#CMR17-31" transform="scale(0.996264)"/>
       <use xlink:href="#CMMI12-3a" transform="translate(45.690477 0) scale(0.996264)"/>
       <use xlink:href="#CMR17-30" transform="translate(72.787654 0) scale(0.996264)"/>
       <use xlink:href="#CMR17-30" transform="translate(118.478131 0) scale(0.996264)"/>
      </g>
     </g>
    </g>
    <g id="xtick_10">
     <g id="line2d_19">
      <defs>
       <path id="m4d9516bcf1" d="M 0 0 
L 0 -2.5 
" style="stroke: #000000; stroke-width: 0.8"/>
      </defs>
      <g>
       <use xlink:href="#m4d9516bcf1" x="43.741151" y="188.314587" style="stroke: #000000; stroke-width: 0.8"/>
      </g>
     </g>
     <g id="line2d_20">
      <defs>
       <path id="md129f5e764" d="M 0 0 
L 0 2.5 
" style="stroke: #000000; stroke-width: 0.8"/>
      </defs>
      <g>
       <use xlink:href="#md129f5e764" x="43.741151" y="7.2" style="stroke: #000000; stroke-width: 0.8"/>
      </g>
     </g>
    </g>
    <g id="xtick_11">
     <g id="line2d_21">
      <g>
       <use xlink:href="#m4d9516bcf1" x="51.042064" y="188.314587" style="stroke: #000000; stroke-width: 0.8"/>
      </g>
     </g>
     <g id="line2d_22">
      <g>
       <use xlink:href="#md129f5e764" x="51.042064" y="7.2" style="stroke: #000000; stroke-width: 0.8"/>
      </g>
     </g>
    </g>
    <g id="xtick_12">
     <g id="line2d_23">
      <g>
       <use xlink:href="#m4d9516bcf1" x="65.64389" y="188.314587" style="stroke: #000000; stroke-width: 0.8"/>
      </g>
     </g>
     <g id="line2d_24">
      <g>
       <use xlink:href="#md129f5e764" x="65.64389" y="7.2" style="stroke: #000000; stroke-width: 0.8"/>
      </g>
     </g>
    </g>
    <g id="xtick_13">
     <g id="line2d_25">
      <g>
       <use xlink:href="#m4d9516bcf1" x="72.944804" y="188.314587" style="stroke: #000000; stroke-width: 0.8"/>
      </g>
     </g>
     <g id="line2d_26">
      <g>
       <use xlink:href="#md129f5e764" x="72.944804" y="7.2" style="stroke: #000000; stroke-width: 0.8"/>
      </g>
     </g>
    </g>
    <g id="xtick_14">
     <g id="line2d_27">
      <g>
       <use xlink:href="#m4d9516bcf1" x="80.245717" y="188.314587" style="stroke: #000000; stroke-width: 0.8"/>
      </g>
     </g>
     <g id="line2d_28">
      <g>
       <use xlink:href="#md129f5e764" x="80.245717" y="7.2" style="stroke: #000000; stroke-width: 0.8"/>
      </g>
     </g>
    </g>
    <g id="xtick_15">
     <g id="line2d_29">
      <g>
       <use xlink:href="#m4d9516bcf1" x="87.54663" y="188.314587" style="stroke: #000000; stroke-width: 0.8"/>
      </g>
     </g>
     <g id="line2d_30">
      <g>
       <use xlink:href="#md129f5e764" x="87.54663" y="7.2" style="stroke: #000000; stroke-width: 0.8"/>
      </g>
     </g>
    </g>
    <g id="xtick_16">
     <g id="line2d_31">
      <g>
       <use xlink:href="#m4d9516bcf1" x="102.148457" y="188.314587" style="stroke: #000000; stroke-width: 0.8"/>
      </g>
     </g>
     <g id="line2d_32">
      <g>
       <use xlink:href="#md129f5e764" x="102.148457" y="7.2" style="stroke: #000000; stroke-width: 0.8"/>
      </g>
     </g>
    </g>
    <g id="xtick_17">
     <g id="line2d_33">
      <g>
       <use xlink:href="#m4d9516bcf1" x="109.44937" y="188.314587" style="stroke: #000000; stroke-width: 0.8"/>
      </g>
     </g>
     <g id="line2d_34">
      <g>
       <use xlink:href="#md129f5e764" x="109.44937" y="7.2" style="stroke: #000000; stroke-width: 0.8"/>
      </g>
     </g>
    </g>
    <g id="xtick_18">
     <g id="line2d_35">
      <g>
       <use xlink:href="#m4d9516bcf1" x="116.750283" y="188.314587" style="stroke: #000000; stroke-width: 0.8"/>
      </g>
     </g>
     <g id="line2d_36">
      <g>
       <use xlink:href="#md129f5e764" x="116.750283" y="7.2" style="stroke: #000000; stroke-width: 0.8"/>
      </g>
     </g>
    </g>
    <g id="xtick_19">
     <g id="line2d_37">
      <g>
       <use xlink:href="#m4d9516bcf1" x="124.051197" y="188.314587" style="stroke: #000000; stroke-width: 0.8"/>
      </g>
     </g>
     <g id="line2d_38">
      <g>
       <use xlink:href="#md129f5e764" x="124.051197" y="7.2" style="stroke: #000000; stroke-width: 0.8"/>
      </g>
     </g>
    </g>
    <g id="xtick_20">
     <g id="line2d_39">
      <g>
       <use xlink:href="#m4d9516bcf1" x="138.653023" y="188.314587" style="stroke: #000000; stroke-width: 0.8"/>
      </g>
     </g>
     <g id="line2d_40">
      <g>
       <use xlink:href="#md129f5e764" x="138.653023" y="7.2" style="stroke: #000000; stroke-width: 0.8"/>
      </g>
     </g>
    </g>
    <g id="xtick_21">
     <g id="line2d_41">
      <g>
       <use xlink:href="#m4d9516bcf1" x="145.953937" y="188.314587" style="stroke: #000000; stroke-width: 0.8"/>
      </g>
     </g>
     <g id="line2d_42">
      <g>
       <use xlink:href="#md129f5e764" x="145.953937" y="7.2" style="stroke: #000000; stroke-width: 0.8"/>
      </g>
     </g>
    </g>
    <g id="xtick_22">
     <g id="line2d_43">
      <g>
       <use xlink:href="#m4d9516bcf1" x="153.25485" y="188.314587" style="stroke: #000000; stroke-width: 0.8"/>
      </g>
     </g>
     <g id="line2d_44">
      <g>
       <use xlink:href="#md129f5e764" x="153.25485" y="7.2" style="stroke: #000000; stroke-width: 0.8"/>
      </g>
     </g>
    </g>
    <g id="xtick_23">
     <g id="line2d_45">
      <g>
       <use xlink:href="#m4d9516bcf1" x="160.555763" y="188.314587" style="stroke: #000000; stroke-width: 0.8"/>
      </g>
     </g>
     <g id="line2d_46">
      <g>
       <use xlink:href="#md129f5e764" x="160.555763" y="7.2" style="stroke: #000000; stroke-width: 0.8"/>
      </g>
     </g>
    </g>
    <g id="xtick_24">
     <g id="line2d_47">
      <g>
       <use xlink:href="#m4d9516bcf1" x="175.15759" y="188.314587" style="stroke: #000000; stroke-width: 0.8"/>
      </g>
     </g>
     <g id="line2d_48">
      <g>
       <use xlink:href="#md129f5e764" x="175.15759" y="7.2" style="stroke: #000000; stroke-width: 0.8"/>
      </g>
     </g>
    </g>
    <g id="xtick_25">
     <g id="line2d_49">
      <g>
       <use xlink:href="#m4d9516bcf1" x="182.458503" y="188.314587" style="stroke: #000000; stroke-width: 0.8"/>
      </g>
     </g>
     <g id="line2d_50">
      <g>
       <use xlink:href="#md129f5e764" x="182.458503" y="7.2" style="stroke: #000000; stroke-width: 0.8"/>
      </g>
     </g>
    </g>
    <g id="xtick_26">
     <g id="line2d_51">
      <g>
       <use xlink:href="#m4d9516bcf1" x="189.759416" y="188.314587" style="stroke: #000000; stroke-width: 0.8"/>
      </g>
     </g>
     <g id="line2d_52">
      <g>
       <use xlink:href="#md129f5e764" x="189.759416" y="7.2" style="stroke: #000000; stroke-width: 0.8"/>
      </g>
     </g>
    </g>
    <g id="xtick_27">
     <g id="line2d_53">
      <g>
       <use xlink:href="#m4d9516bcf1" x="197.06033" y="188.314587" style="stroke: #000000; stroke-width: 0.8"/>
      </g>
     </g>
     <g id="line2d_54">
      <g>
       <use xlink:href="#md129f5e764" x="197.06033" y="7.2" style="stroke: #000000; stroke-width: 0.8"/>
      </g>
     </g>
    </g>
    <g id="xtick_28">
     <g id="line2d_55">
      <g>
       <use xlink:href="#m4d9516bcf1" x="211.662156" y="188.314587" style="stroke: #000000; stroke-width: 0.8"/>
      </g>
     </g>
     <g id="line2d_56">
      <g>
       <use xlink:href="#md129f5e764" x="211.662156" y="7.2" style="stroke: #000000; stroke-width: 0.8"/>
      </g>
     </g>
    </g>
    <g id="xtick_29">
     <g id="line2d_57">
      <g>
       <use xlink:href="#m4d9516bcf1" x="218.96307" y="188.314587" style="stroke: #000000; stroke-width: 0.8"/>
      </g>
     </g>
     <g id="line2d_58">
      <g>
       <use xlink:href="#md129f5e764" x="218.96307" y="7.2" style="stroke: #000000; stroke-width: 0.8"/>
      </g>
     </g>
    </g>
    <g id="xtick_30">
     <g id="line2d_59">
      <g>
       <use xlink:href="#m4d9516bcf1" x="226.263983" y="188.314587" style="stroke: #000000; stroke-width: 0.8"/>
      </g>
     </g>
     <g id="line2d_60">
      <g>
       <use xlink:href="#md129f5e764" x="226.263983" y="7.2" style="stroke: #000000; stroke-width: 0.8"/>
      </g>
     </g>
    </g>
    <g id="xtick_31">
     <g id="line2d_61">
      <g>
       <use xlink:href="#m4d9516bcf1" x="233.564896" y="188.314587" style="stroke: #000000; stroke-width: 0.8"/>
      </g>
     </g>
     <g id="line2d_62">
      <g>
       <use xlink:href="#md129f5e764" x="233.564896" y="7.2" style="stroke: #000000; stroke-width: 0.8"/>
      </g>
     </g>
    </g>
    <g id="xtick_32">
     <g id="line2d_63">
      <g>
       <use xlink:href="#m4d9516bcf1" x="248.166723" y="188.314587" style="stroke: #000000; stroke-width: 0.8"/>
      </g>
     </g>
     <g id="line2d_64">
      <g>
       <use xlink:href="#md129f5e764" x="248.166723" y="7.2" style="stroke: #000000; stroke-width: 0.8"/>
      </g>
     </g>
    </g>
    <g id="xtick_33">
     <g id="line2d_65">
      <g>
       <use xlink:href="#m4d9516bcf1" x="255.467636" y="188.314587" style="stroke: #000000; stroke-width: 0.8"/>
      </g>
     </g>
     <g id="line2d_66">
      <g>
       <use xlink:href="#md129f5e764" x="255.467636" y="7.2" style="stroke: #000000; stroke-width: 0.8"/>
      </g>
     </g>
    </g>
    <g id="xtick_34">
     <g id="line2d_67">
      <g>
       <use xlink:href="#m4d9516bcf1" x="262.768549" y="188.314587" style="stroke: #000000; stroke-width: 0.8"/>
      </g>
     </g>
     <g id="line2d_68">
      <g>
       <use xlink:href="#md129f5e764" x="262.768549" y="7.2" style="stroke: #000000; stroke-width: 0.8"/>
      </g>
     </g>
    </g>
    <g id="xtick_35">
     <g id="line2d_69">
      <g>
       <use xlink:href="#m4d9516bcf1" x="270.069463" y="188.314587" style="stroke: #000000; stroke-width: 0.8"/>
      </g>
     </g>
     <g id="line2d_70">
      <g>
       <use xlink:href="#md129f5e764" x="270.069463" y="7.2" style="stroke: #000000; stroke-width: 0.8"/>
      </g>
     </g>
    </g>
    <g id="xtick_36">
     <g id="line2d_71">
      <g>
       <use xlink:href="#m4d9516bcf1" x="284.671289" y="188.314587" style="stroke: #000000; stroke-width: 0.8"/>
      </g>
     </g>
     <g id="line2d_72">
      <g>
       <use xlink:href="#md129f5e764" x="284.671289" y="7.2" style="stroke: #000000; stroke-width: 0.8"/>
      </g>
     </g>
    </g>
    <g id="xtick_37">
     <g id="line2d_73">
      <g>
       <use xlink:href="#m4d9516bcf1" x="291.972202" y="188.314587" style="stroke: #000000; stroke-width: 0.8"/>
      </g>
     </g>
     <g id="line2d_74">
      <g>
       <use xlink:href="#md129f5e764" x="291.972202" y="7.2" style="stroke: #000000; stroke-width: 0.8"/>
      </g>
     </g>
    </g>
    <g id="xtick_38">
     <g id="line2d_75">
      <g>
       <use xlink:href="#m4d9516bcf1" x="299.273116" y="188.314587" style="stroke: #000000; stroke-width: 0.8"/>
      </g>
     </g>
     <g id="line2d_76">
      <g>
       <use xlink:href="#md129f5e764" x="299.273116" y="7.2" style="stroke: #000000; stroke-width: 0.8"/>
      </g>
     </g>
    </g>
    <g id="xtick_39">
     <g id="line2d_77">
      <g>
       <use xlink:href="#m4d9516bcf1" x="306.574029" y="188.314587" style="stroke: #000000; stroke-width: 0.8"/>
      </g>
     </g>
     <g id="line2d_78">
      <g>
       <use xlink:href="#md129f5e764" x="306.574029" y="7.2" style="stroke: #000000; stroke-width: 0.8"/>
      </g>
     </g>
    </g>
    <g id="xtick_40">
     <g id="line2d_79">
      <g>
       <use xlink:href="#m4d9516bcf1" x="321.175856" y="188.314587" style="stroke: #000000; stroke-width: 0.8"/>
      </g>
     </g>
     <g id="line2d_80">
      <g>
       <use xlink:href="#md129f5e764" x="321.175856" y="7.2" style="stroke: #000000; stroke-width: 0.8"/>
      </g>
     </g>
    </g>
    <g id="xtick_41">
     <g id="line2d_81">
      <g>
       <use xlink:href="#m4d9516bcf1" x="328.476769" y="188.314587" style="stroke: #000000; stroke-width: 0.8"/>
      </g>
     </g>
     <g id="line2d_82">
      <g>
       <use xlink:href="#md129f5e764" x="328.476769" y="7.2" style="stroke: #000000; stroke-width: 0.8"/>
      </g>
     </g>
    </g>
    <g id="xtick_42">
     <g id="line2d_83">
      <g>
       <use xlink:href="#m4d9516bcf1" x="335.777682" y="188.314587" style="stroke: #000000; stroke-width: 0.8"/>
      </g>
     </g>
     <g id="line2d_84">
      <g>
       <use xlink:href="#md129f5e764" x="335.777682" y="7.2" style="stroke: #000000; stroke-width: 0.8"/>
      </g>
     </g>
    </g>
    <g id="xtick_43">
     <g id="line2d_85">
      <g>
       <use xlink:href="#m4d9516bcf1" x="343.078595" y="188.314587" style="stroke: #000000; stroke-width: 0.8"/>
      </g>
     </g>
     <g id="line2d_86">
      <g>
       <use xlink:href="#md129f5e764" x="343.078595" y="7.2" style="stroke: #000000; stroke-width: 0.8"/>
      </g>
     </g>
    </g>
    <g id="xtick_44">
     <g id="line2d_87">
      <g>
       <use xlink:href="#m4d9516bcf1" x="357.680422" y="188.314587" style="stroke: #000000; stroke-width: 0.8"/>
      </g>
     </g>
     <g id="line2d_88">
      <g>
       <use xlink:href="#md129f5e764" x="357.680422" y="7.2" style="stroke: #000000; stroke-width: 0.8"/>
      </g>
     </g>
    </g>
    <g id="xtick_45">
     <g id="line2d_89">
      <g>
       <use xlink:href="#m4d9516bcf1" x="364.981335" y="188.314587" style="stroke: #000000; stroke-width: 0.8"/>
      </g>
     </g>
     <g id="line2d_90">
      <g>
       <use xlink:href="#md129f5e764" x="364.981335" y="7.2" style="stroke: #000000; stroke-width: 0.8"/>
      </g>
     </g>
    </g>
    <g id="text_10">
     <!-- Missing Energy ($\text{{GeV}}^2$) -->
     <g transform="translate(153.108897 213.50934) scale(0.1 -0.1)">
      <defs>
       <path id="CMR17-4d" d="M 1338 4224 
C 1299 4320 1293 4320 1158 4320 
L 339 4320 
L 339 4160 
C 781 4160 851 4160 851 3875 
L 851 610 
C 851 451 851 153 339 153 
L 339 -13 
C 486 0 755 0 915 0 
C 1075 0 1344 0 1491 -13 
L 1491 153 
C 979 153 979 451 979 610 
L 979 4135 
L 986 4135 
L 2490 89 
C 2515 25 2528 -13 2579 -13 
C 2630 -13 2643 25 2669 89 
L 4186 4166 
L 4192 4166 
L 4192 438 
C 4192 153 4122 153 3680 153 
L 3680 -13 
C 3853 0 4198 0 4384 0 
C 4570 0 4922 0 5094 -13 
L 5094 153 
C 4653 153 4582 153 4582 438 
L 4582 3875 
C 4582 4160 4653 4160 5094 4160 
L 5094 4320 
L 4282 4320 
C 4147 4320 4141 4314 4102 4218 
L 2720 502 
L 1338 4224 
z
" transform="scale(0.015625)"/>
       <path id="CMR17-69" d="M 992 3909 
C 992 4049 877 4170 730 4170 
C 589 4170 467 4056 467 3909 
C 467 3769 582 3648 730 3648 
C 870 3648 992 3763 992 3909 
z
M 243 2706 
L 243 2541 
C 602 2541 653 2502 653 2197 
L 653 427 
C 653 184 627 153 218 153 
L 218 -13 
C 371 0 646 0 806 0 
C 960 0 1222 0 1370 -13 
L 1370 153 
C 992 153 979 191 979 420 
L 979 2776 
L 243 2706 
z
" transform="scale(0.015625)"/>
       <path id="CMR17-73" d="M 1978 2697 
C 1978 2813 1971 2819 1933 2819 
C 1907 2819 1901 2813 1824 2717 
C 1805 2691 1747 2626 1728 2601 
C 1523 2819 1235 2819 1126 2819 
C 416 2819 160 2447 160 2076 
C 160 1498 813 1365 998 1325 
C 1402 1243 1542 1217 1677 1101 
C 1760 1025 1901 884 1901 654 
C 1901 384 1747 38 1158 38 
C 602 38 403 460 288 1021 
C 269 1110 269 1117 218 1117 
C 166 1117 160 1110 160 983 
L 160 63 
C 160 -51 166 -58 205 -58 
C 237 -58 243 -51 275 0 
C 314 57 410 211 448 276 
C 576 103 800 -64 1158 -64 
C 1792 -64 2131 283 2131 784 
C 2131 1112 1958 1285 1875 1362 
C 1683 1561 1459 1606 1190 1657 
C 838 1735 390 1825 390 2217 
C 390 2383 480 2737 1126 2737 
C 1811 2737 1850 2094 1862 1888 
C 1869 1856 1901 1849 1920 1849 
C 1978 1849 1978 1869 1978 1978 
L 1978 2697 
z
" transform="scale(0.015625)"/>
       <path id="CMR17-6e" d="M 2656 1933 
C 2656 2259 2592 2790 1837 2790 
C 1331 2790 1069 2400 973 2144 
L 966 2144 
L 966 2790 
L 211 2720 
L 211 2554 
C 589 2554 646 2515 646 2208 
L 646 428 
C 646 184 621 153 211 153 
L 211 -13 
C 365 0 646 0 813 0 
C 979 0 1267 0 1421 -13 
L 1421 153 
C 1011 153 986 178 986 428 
L 986 1658 
C 986 2247 1344 2688 1792 2688 
C 2266 2688 2317 2266 2317 1958 
L 2317 428 
C 2317 184 2291 153 1882 153 
L 1882 -13 
C 2035 0 2317 0 2483 0 
C 2650 0 2938 0 3091 -13 
L 3091 153 
C 2682 153 2656 178 2656 428 
L 2656 1933 
z
" transform="scale(0.015625)"/>
       <path id="CMR17-67" d="M 710 1164 
C 832 1068 1043 960 1299 960 
C 1805 960 2240 1357 2240 1888 
C 2240 2054 2189 2310 1997 2509 
C 2176 2692 2438 2752 2586 2752 
C 2611 2752 2650 2752 2682 2734 
C 2656 2728 2598 2703 2598 2605 
C 2598 2527 2656 2471 2739 2471 
C 2835 2471 2886 2533 2886 2614 
C 2886 2731 2790 2854 2586 2854 
C 2330 2854 2106 2738 1926 2580 
C 1734 2753 1504 2816 1299 2816 
C 794 2816 358 2419 358 1888 
C 358 1522 570 1292 634 1228 
C 442 1004 442 743 442 711 
C 442 545 506 302 723 168 
C 390 85 128 -169 128 -486 
C 128 -943 736 -1280 1466 -1280 
C 2170 -1280 2803 -956 2803 -479 
C 2803 384 1856 384 1363 384 
C 1216 384 954 384 922 391 
C 723 423 589 602 589 826 
C 589 883 589 1024 710 1164 
z
M 1299 1068 
C 736 1068 736 1760 736 1889 
C 736 2016 736 2708 1299 2708 
C 1862 2708 1862 2016 1862 1889 
C 1862 1760 1862 1068 1299 1068 
z
M 1466 -1171 
C 826 -1171 384 -835 384 -486 
C 384 -289 493 -105 634 -4 
C 794 104 858 104 1293 104 
C 1818 104 2547 104 2547 -486 
C 2547 -835 2106 -1171 1466 -1171 
z
" transform="scale(0.015625)"/>
       <path id="CMR17-45" d="M 3885 1615 
L 3770 1615 
C 3629 676 3546 166 2419 166 
L 1530 166 
C 1274 166 1261 197 1261 414 
L 1261 2176 
L 1862 2176 
C 2464 2176 2522 1960 2522 1430 
L 2637 1430 
L 2637 3081 
L 2522 3081 
C 2522 2557 2464 2342 1862 2342 
L 1261 2342 
L 1261 3913 
C 1261 4128 1274 4160 1530 4160 
L 2406 4160 
C 3398 4160 3514 3769 3603 2929 
L 3718 2929 
L 3565 4325 
L 326 4325 
L 326 4160 
C 768 4160 838 4160 838 3874 
L 838 451 
C 838 166 768 166 326 166 
L 326 0 
L 3654 0 
L 3885 1615 
z
" transform="scale(0.015625)"/>
       <path id="CMR17-65" d="M 2438 1472 
C 2464 1498 2464 1511 2464 1576 
C 2464 2238 2118 2816 1389 2816 
C 710 2816 173 2169 173 1383 
C 173 551 781 -64 1459 -64 
C 2176 -64 2458 607 2458 740 
C 2458 784 2419 784 2406 784 
C 2362 784 2355 771 2330 696 
C 2189 265 1837 51 1504 51 
C 1229 51 954 203 781 480 
C 582 803 582 1176 582 1472 
L 2438 1472 
z
M 589 1568 
C 634 2505 1126 2714 1382 2714 
C 1818 2714 2112 2297 2118 1568 
L 589 1568 
z
" transform="scale(0.015625)"/>
       <path id="CMR17-72" d="M 960 1497 
C 960 2112 1222 2688 1702 2688 
C 1747 2688 1792 2682 1837 2662 
C 1837 2662 1696 2617 1696 2452 
C 1696 2298 1818 2234 1914 2234 
C 1990 2234 2131 2279 2131 2458 
C 2131 2663 1926 2790 1709 2790 
C 1222 2790 1011 2317 947 2093 
L 941 2093 
L 941 2790 
L 198 2720 
L 198 2554 
C 576 2554 634 2515 634 2208 
L 634 428 
C 634 184 608 153 198 153 
L 198 -13 
C 352 0 646 0 813 0 
C 998 0 1325 0 1498 -13 
L 1498 153 
C 1037 153 960 153 960 440 
L 960 1497 
z
" transform="scale(0.015625)"/>
       <path id="CMR17-79" d="M 2496 2197 
C 2656 2586 2944 2586 3034 2586 
L 3034 2752 
C 2912 2752 2752 2752 2630 2752 
C 2496 2752 2285 2752 2157 2758 
L 2157 2592 
C 2400 2573 2406 2394 2406 2343 
C 2406 2280 2394 2248 2362 2171 
L 1664 449 
L 902 2306 
C 870 2382 870 2426 870 2433 
C 870 2573 1018 2586 1171 2586 
L 1171 2758 
C 1018 2752 742 2752 582 2752 
C 410 2752 205 2752 64 2758 
L 64 2586 
C 410 2586 448 2554 531 2350 
L 1485 15 
C 1197 -738 1030 -1178 627 -1178 
C 557 -1178 397 -1159 282 -1044 
C 429 -1031 493 -942 493 -833 
C 493 -725 416 -629 288 -629 
C 147 -629 77 -725 77 -840 
C 77 -1095 339 -1280 627 -1280 
C 998 -1280 1229 -922 1357 -604 
L 2496 2197 
z
" transform="scale(0.015625)"/>
       <path id="CMR17-28" d="M 1958 -1561 
C 1958 -1555 1958 -1542 1939 -1523 
C 1645 -1224 858 -407 858 1581 
C 858 3569 1632 4379 1946 4697 
C 1946 4704 1958 4717 1958 4736 
C 1958 4755 1939 4768 1914 4768 
C 1843 4768 1299 4296 986 3594 
C 666 2887 576 2199 576 1588 
C 576 1128 621 351 1005 -471 
C 1312 -1135 1837 -1600 1914 -1600 
C 1946 -1600 1958 -1587 1958 -1561 
z
" transform="scale(0.015625)"/>
       <path id="CMR17-47" d="M 3974 1233 
C 3974 1473 3994 1505 4390 1505 
L 4390 1670 
C 4237 1664 3891 1664 3718 1664 
C 3539 1664 3040 1664 2797 1664 
L 2797 1505 
L 2989 1505 
C 3539 1505 3552 1434 3552 1201 
L 3552 774 
C 3552 63 2720 63 2522 63 
C 1862 63 781 511 781 2160 
C 781 3808 1843 4250 2464 4250 
C 3187 4250 3712 3626 3834 2741 
C 3846 2664 3846 2651 3904 2651 
C 3974 2651 3974 2664 3974 2779 
L 3974 4288 
C 3974 4402 3968 4409 3930 4409 
C 3904 4409 3898 4402 3853 4326 
L 3571 3791 
C 3258 4187 2874 4416 2381 4416 
C 1286 4416 294 3456 294 2148 
C 294 845 1267 -128 2394 -128 
C 2912 -128 3418 56 3616 417 
C 3725 158 3904 -20 3936 -20 
C 3968 -20 3974 -13 3974 100 
L 3974 1233 
z
" transform="scale(0.015625)"/>
       <path id="CMR17-56" d="M 3776 3745 
C 3834 3886 3936 4160 4365 4160 
L 4365 4332 
C 4218 4319 4051 4319 3891 4319 
C 3738 4319 3475 4319 3328 4332 
L 3328 4160 
C 3648 4160 3661 3936 3661 3898 
C 3661 3827 3642 3783 3622 3732 
L 2362 446 
L 1043 3886 
C 1024 3931 1011 3963 1011 3994 
C 1011 4160 1267 4160 1402 4160 
L 1402 4319 
C 1197 4319 896 4319 685 4319 
C 518 4319 218 4319 64 4332 
L 64 4160 
C 435 4160 506 4135 582 3931 
L 2106 -26 
C 2138 -115 2144 -128 2214 -128 
C 2285 -128 2291 -115 2323 -26 
L 3776 3745 
z
" transform="scale(0.015625)"/>
       <path id="CMR17-29" d="M 1683 1581 
C 1683 2040 1638 2817 1254 3639 
C 947 4303 422 4768 346 4768 
C 326 4768 301 4761 301 4729 
C 301 4717 307 4710 314 4697 
C 621 4378 1402 3568 1402 1584 
C 1402 -407 627 -1217 314 -1537 
C 307 -1549 301 -1556 301 -1568 
C 301 -1600 326 -1600 346 -1600 
C 416 -1600 960 -1128 1274 -426 
C 1594 281 1683 969 1683 1581 
z
" transform="scale(0.015625)"/>
      </defs>
      <use xlink:href="#CMR17-4d" transform="scale(0.996264)"/>
      <use xlink:href="#CMR17-69" transform="translate(84.686941 0) scale(0.996264)"/>
      <use xlink:href="#CMR17-73" transform="translate(109.557999 0) scale(0.996264)"/>
      <use xlink:href="#CMR17-73" transform="translate(145.359337 0) scale(0.996264)"/>
      <use xlink:href="#CMR17-69" transform="translate(181.160674 0) scale(0.996264)"/>
      <use xlink:href="#CMR17-6e" transform="translate(206.031733 0) scale(0.996264)"/>
      <use xlink:href="#CMR17-67" transform="translate(256.927103 0) scale(0.996264)"/>
      <use xlink:href="#CMR17-45" transform="translate(332.693546 0) scale(0.996264)"/>
      <use xlink:href="#CMR17-6e" transform="translate(395.279847 0) scale(0.996264)"/>
      <use xlink:href="#CMR17-65" transform="translate(446.175216 0) scale(0.996264)"/>
      <use xlink:href="#CMR17-72" transform="translate(486.660877 0) scale(0.996264)"/>
      <use xlink:href="#CMR17-67" transform="translate(521.941645 0) scale(0.996264)"/>
      <use xlink:href="#CMR17-79" transform="translate(567.632122 0) scale(0.996264)"/>
      <use xlink:href="#CMR17-28" transform="translate(646.001004 0) scale(0.996264)"/>
      <use xlink:href="#CMR17-47" transform="translate(681.281772 0) scale(0.996264)"/>
      <use xlink:href="#CMR17-65" transform="translate(753.637118 0) scale(0.996264)"/>
      <use xlink:href="#CMR17-56" transform="translate(794.122778 0) scale(0.996264)"/>
      <use xlink:href="#CMR17-32" transform="translate(863.195208 41.137482) scale(0.697382)"/>
      <use xlink:href="#CMR17-29" transform="translate(895.676522 0) scale(0.996264)"/>
     </g>
    </g>
   </g>
   <g id="matplotlib.axis_2">
    <g id="ytick_1">
     <g id="line2d_91">
      <defs>
       <path id="mde75769abb" d="M 0 0 
L 4 0 
" style="stroke: #000000; stroke-width: 1.2"/>
      </defs>
      <g>
       <use xlink:href="#mde75769abb" x="43.741151" y="188.314587" style="stroke: #000000; stroke-width: 1.2"/>
      </g>
     </g>
     <g id="line2d_92">
      <defs>
       <path id="m4ea78a931f" d="M 0 0 
L -4 0 
" style="stroke: #000000; stroke-width: 1.2"/>
      </defs>
      <g>
       <use xlink:href="#m4ea78a931f" x="364.981335" y="188.314587" style="stroke: #000000; stroke-width: 1.2"/>
      </g>
     </g>
     <g id="text_11">
      <!-- $\mathdefault{0.00}$ -->
      <g transform="translate(22.529736 191.773836) scale(0.1 -0.1)">
       <use xlink:href="#CMR17-30" transform="scale(0.996264)"/>
       <use xlink:href="#CMMI12-3a" transform="translate(45.690477 0) scale(0.996264)"/>
       <use xlink:href="#CMR17-30" transform="translate(72.787654 0) scale(0.996264)"/>
       <use xlink:href="#CMR17-30" transform="translate(118.478131 0) scale(0.996264)"/>
      </g>
     </g>
    </g>
    <g id="ytick_2">
     <g id="line2d_93">
      <g>
       <use xlink:href="#mde75769abb" x="43.741151" y="167.659418" style="stroke: #000000; stroke-width: 1.2"/>
      </g>
     </g>
     <g id="line2d_94">
      <g>
       <use xlink:href="#m4ea78a931f" x="364.981335" y="167.659418" style="stroke: #000000; stroke-width: 1.2"/>
      </g>
     </g>
     <g id="text_12">
      <!-- $\mathdefault{0.25}$ -->
      <g transform="translate(22.529736 171.118668) scale(0.1 -0.1)">
       <use xlink:href="#CMR17-30" transform="scale(0.996264)"/>
       <use xlink:href="#CMMI12-3a" transform="translate(45.690477 0) scale(0.996264)"/>
       <use xlink:href="#CMR17-32" transform="translate(72.787654 0) scale(0.996264)"/>
       <use xlink:href="#CMR17-35" transform="translate(118.478131 0) scale(0.996264)"/>
      </g>
     </g>
    </g>
    <g id="ytick_3">
     <g id="line2d_95">
      <g>
       <use xlink:href="#mde75769abb" x="43.741151" y="147.00425" style="stroke: #000000; stroke-width: 1.2"/>
      </g>
     </g>
     <g id="line2d_96">
      <g>
       <use xlink:href="#m4ea78a931f" x="364.981335" y="147.00425" style="stroke: #000000; stroke-width: 1.2"/>
      </g>
     </g>
     <g id="text_13">
      <!-- $\mathdefault{0.50}$ -->
      <g transform="translate(22.529736 150.463499) scale(0.1 -0.1)">
       <use xlink:href="#CMR17-30" transform="scale(0.996264)"/>
       <use xlink:href="#CMMI12-3a" transform="translate(45.690477 0) scale(0.996264)"/>
       <use xlink:href="#CMR17-35" transform="translate(72.787654 0) scale(0.996264)"/>
       <use xlink:href="#CMR17-30" transform="translate(118.478131 0) scale(0.996264)"/>
      </g>
     </g>
    </g>
    <g id="ytick_4">
     <g id="line2d_97">
      <g>
       <use xlink:href="#mde75769abb" x="43.741151" y="126.349082" style="stroke: #000000; stroke-width: 1.2"/>
      </g>
     </g>
     <g id="line2d_98">
      <g>
       <use xlink:href="#m4ea78a931f" x="364.981335" y="126.349082" style="stroke: #000000; stroke-width: 1.2"/>
      </g>
     </g>
     <g id="text_14">
      <!-- $\mathdefault{0.75}$ -->
      <g transform="translate(22.529736 129.808331) scale(0.1 -0.1)">
       <use xlink:href="#CMR17-30" transform="scale(0.996264)"/>
       <use xlink:href="#CMMI12-3a" transform="translate(45.690477 0) scale(0.996264)"/>
       <use xlink:href="#CMR17-37" transform="translate(72.787654 0) scale(0.996264)"/>
       <use xlink:href="#CMR17-35" transform="translate(118.478131 0) scale(0.996264)"/>
      </g>
     </g>
    </g>
    <g id="ytick_5">
     <g id="line2d_99">
      <g>
       <use xlink:href="#mde75769abb" x="43.741151" y="105.693913" style="stroke: #000000; stroke-width: 1.2"/>
      </g>
     </g>
     <g id="line2d_100">
      <g>
       <use xlink:href="#m4ea78a931f" x="364.981335" y="105.693913" style="stroke: #000000; stroke-width: 1.2"/>
      </g>
     </g>
     <g id="text_15">
      <!-- $\mathdefault{1.00}$ -->
      <g transform="translate(22.529736 109.153162) scale(0.1 -0.1)">
       <use xlink:href="#CMR17-31" transform="scale(0.996264)"/>
       <use xlink:href="#CMMI12-3a" transform="translate(45.690477 0) scale(0.996264)"/>
       <use xlink:href="#CMR17-30" transform="translate(72.787654 0) scale(0.996264)"/>
       <use xlink:href="#CMR17-30" transform="translate(118.478131 0) scale(0.996264)"/>
      </g>
     </g>
    </g>
    <g id="ytick_6">
     <g id="line2d_101">
      <g>
       <use xlink:href="#mde75769abb" x="43.741151" y="85.038745" style="stroke: #000000; stroke-width: 1.2"/>
      </g>
     </g>
     <g id="line2d_102">
      <g>
       <use xlink:href="#m4ea78a931f" x="364.981335" y="85.038745" style="stroke: #000000; stroke-width: 1.2"/>
      </g>
     </g>
     <g id="text_16">
      <!-- $\mathdefault{1.25}$ -->
      <g transform="translate(22.529736 88.497994) scale(0.1 -0.1)">
       <use xlink:href="#CMR17-31" transform="scale(0.996264)"/>
       <use xlink:href="#CMMI12-3a" transform="translate(45.690477 0) scale(0.996264)"/>
       <use xlink:href="#CMR17-32" transform="translate(72.787654 0) scale(0.996264)"/>
       <use xlink:href="#CMR17-35" transform="translate(118.478131 0) scale(0.996264)"/>
      </g>
     </g>
    </g>
    <g id="ytick_7">
     <g id="line2d_103">
      <g>
       <use xlink:href="#mde75769abb" x="43.741151" y="64.383576" style="stroke: #000000; stroke-width: 1.2"/>
      </g>
     </g>
     <g id="line2d_104">
      <g>
       <use xlink:href="#m4ea78a931f" x="364.981335" y="64.383576" style="stroke: #000000; stroke-width: 1.2"/>
      </g>
     </g>
     <g id="text_17">
      <!-- $\mathdefault{1.50}$ -->
      <g transform="translate(22.529736 67.842825) scale(0.1 -0.1)">
       <use xlink:href="#CMR17-31" transform="scale(0.996264)"/>
       <use xlink:href="#CMMI12-3a" transform="translate(45.690477 0) scale(0.996264)"/>
       <use xlink:href="#CMR17-35" transform="translate(72.787654 0) scale(0.996264)"/>
       <use xlink:href="#CMR17-30" transform="translate(118.478131 0) scale(0.996264)"/>
      </g>
     </g>
    </g>
    <g id="ytick_8">
     <g id="line2d_105">
      <g>
       <use xlink:href="#mde75769abb" x="43.741151" y="43.728408" style="stroke: #000000; stroke-width: 1.2"/>
      </g>
     </g>
     <g id="line2d_106">
      <g>
       <use xlink:href="#m4ea78a931f" x="364.981335" y="43.728408" style="stroke: #000000; stroke-width: 1.2"/>
      </g>
     </g>
     <g id="text_18">
      <!-- $\mathdefault{1.75}$ -->
      <g transform="translate(22.529736 47.187657) scale(0.1 -0.1)">
       <use xlink:href="#CMR17-31" transform="scale(0.996264)"/>
       <use xlink:href="#CMMI12-3a" transform="translate(45.690477 0) scale(0.996264)"/>
       <use xlink:href="#CMR17-37" transform="translate(72.787654 0) scale(0.996264)"/>
       <use xlink:href="#CMR17-35" transform="translate(118.478131 0) scale(0.996264)"/>
      </g>
     </g>
    </g>
    <g id="ytick_9">
     <g id="line2d_107">
      <g>
       <use xlink:href="#mde75769abb" x="43.741151" y="23.073239" style="stroke: #000000; stroke-width: 1.2"/>
      </g>
     </g>
     <g id="line2d_108">
      <g>
       <use xlink:href="#m4ea78a931f" x="364.981335" y="23.073239" style="stroke: #000000; stroke-width: 1.2"/>
      </g>
     </g>
     <g id="text_19">
      <!-- $\mathdefault{2.00}$ -->
      <g transform="translate(22.529736 26.532489) scale(0.1 -0.1)">
       <use xlink:href="#CMR17-32" transform="scale(0.996264)"/>
       <use xlink:href="#CMMI12-3a" transform="translate(45.690477 0) scale(0.996264)"/>
       <use xlink:href="#CMR17-30" transform="translate(72.787654 0) scale(0.996264)"/>
       <use xlink:href="#CMR17-30" transform="translate(118.478131 0) scale(0.996264)"/>
      </g>
     </g>
    </g>
    <g id="ytick_10">
     <g id="line2d_109">
      <defs>
       <path id="m8caf577bec" d="M 0 0 
L 2.5 0 
" style="stroke: #000000; stroke-width: 0.8"/>
      </defs>
      <g>
       <use xlink:href="#m8caf577bec" x="43.741151" y="184.183553" style="stroke: #000000; stroke-width: 0.8"/>
      </g>
     </g>
     <g id="line2d_110">
      <defs>
       <path id="m2d8235c7b2" d="M 0 0 
L -2.5 0 
" style="stroke: #000000; stroke-width: 0.8"/>
      </defs>
      <g>
       <use xlink:href="#m2d8235c7b2" x="364.981335" y="184.183553" style="stroke: #000000; stroke-width: 0.8"/>
      </g>
     </g>
    </g>
    <g id="ytick_11">
     <g id="line2d_111">
      <g>
       <use xlink:href="#m8caf577bec" x="43.741151" y="180.05252" style="stroke: #000000; stroke-width: 0.8"/>
      </g>
     </g>
     <g id="line2d_112">
      <g>
       <use xlink:href="#m2d8235c7b2" x="364.981335" y="180.05252" style="stroke: #000000; stroke-width: 0.8"/>
      </g>
     </g>
    </g>
    <g id="ytick_12">
     <g id="line2d_113">
      <g>
       <use xlink:href="#m8caf577bec" x="43.741151" y="175.921486" style="stroke: #000000; stroke-width: 0.8"/>
      </g>
     </g>
     <g id="line2d_114">
      <g>
       <use xlink:href="#m2d8235c7b2" x="364.981335" y="175.921486" style="stroke: #000000; stroke-width: 0.8"/>
      </g>
     </g>
    </g>
    <g id="ytick_13">
     <g id="line2d_115">
      <g>
       <use xlink:href="#m8caf577bec" x="43.741151" y="171.790452" style="stroke: #000000; stroke-width: 0.8"/>
      </g>
     </g>
     <g id="line2d_116">
      <g>
       <use xlink:href="#m2d8235c7b2" x="364.981335" y="171.790452" style="stroke: #000000; stroke-width: 0.8"/>
      </g>
     </g>
    </g>
    <g id="ytick_14">
     <g id="line2d_117">
      <g>
       <use xlink:href="#m8caf577bec" x="43.741151" y="163.528385" style="stroke: #000000; stroke-width: 0.8"/>
      </g>
     </g>
     <g id="line2d_118">
      <g>
       <use xlink:href="#m2d8235c7b2" x="364.981335" y="163.528385" style="stroke: #000000; stroke-width: 0.8"/>
      </g>
     </g>
    </g>
    <g id="ytick_15">
     <g id="line2d_119">
      <g>
       <use xlink:href="#m8caf577bec" x="43.741151" y="159.397351" style="stroke: #000000; stroke-width: 0.8"/>
      </g>
     </g>
     <g id="line2d_120">
      <g>
       <use xlink:href="#m2d8235c7b2" x="364.981335" y="159.397351" style="stroke: #000000; stroke-width: 0.8"/>
      </g>
     </g>
    </g>
    <g id="ytick_16">
     <g id="line2d_121">
      <g>
       <use xlink:href="#m8caf577bec" x="43.741151" y="155.266317" style="stroke: #000000; stroke-width: 0.8"/>
      </g>
     </g>
     <g id="line2d_122">
      <g>
       <use xlink:href="#m2d8235c7b2" x="364.981335" y="155.266317" style="stroke: #000000; stroke-width: 0.8"/>
      </g>
     </g>
    </g>
    <g id="ytick_17">
     <g id="line2d_123">
      <g>
       <use xlink:href="#m8caf577bec" x="43.741151" y="151.135284" style="stroke: #000000; stroke-width: 0.8"/>
      </g>
     </g>
     <g id="line2d_124">
      <g>
       <use xlink:href="#m2d8235c7b2" x="364.981335" y="151.135284" style="stroke: #000000; stroke-width: 0.8"/>
      </g>
     </g>
    </g>
    <g id="ytick_18">
     <g id="line2d_125">
      <g>
       <use xlink:href="#m8caf577bec" x="43.741151" y="142.873216" style="stroke: #000000; stroke-width: 0.8"/>
      </g>
     </g>
     <g id="line2d_126">
      <g>
       <use xlink:href="#m2d8235c7b2" x="364.981335" y="142.873216" style="stroke: #000000; stroke-width: 0.8"/>
      </g>
     </g>
    </g>
    <g id="ytick_19">
     <g id="line2d_127">
      <g>
       <use xlink:href="#m8caf577bec" x="43.741151" y="138.742183" style="stroke: #000000; stroke-width: 0.8"/>
      </g>
     </g>
     <g id="line2d_128">
      <g>
       <use xlink:href="#m2d8235c7b2" x="364.981335" y="138.742183" style="stroke: #000000; stroke-width: 0.8"/>
      </g>
     </g>
    </g>
    <g id="ytick_20">
     <g id="line2d_129">
      <g>
       <use xlink:href="#m8caf577bec" x="43.741151" y="134.611149" style="stroke: #000000; stroke-width: 0.8"/>
      </g>
     </g>
     <g id="line2d_130">
      <g>
       <use xlink:href="#m2d8235c7b2" x="364.981335" y="134.611149" style="stroke: #000000; stroke-width: 0.8"/>
      </g>
     </g>
    </g>
    <g id="ytick_21">
     <g id="line2d_131">
      <g>
       <use xlink:href="#m8caf577bec" x="43.741151" y="130.480115" style="stroke: #000000; stroke-width: 0.8"/>
      </g>
     </g>
     <g id="line2d_132">
      <g>
       <use xlink:href="#m2d8235c7b2" x="364.981335" y="130.480115" style="stroke: #000000; stroke-width: 0.8"/>
      </g>
     </g>
    </g>
    <g id="ytick_22">
     <g id="line2d_133">
      <g>
       <use xlink:href="#m8caf577bec" x="43.741151" y="122.218048" style="stroke: #000000; stroke-width: 0.8"/>
      </g>
     </g>
     <g id="line2d_134">
      <g>
       <use xlink:href="#m2d8235c7b2" x="364.981335" y="122.218048" style="stroke: #000000; stroke-width: 0.8"/>
      </g>
     </g>
    </g>
    <g id="ytick_23">
     <g id="line2d_135">
      <g>
       <use xlink:href="#m8caf577bec" x="43.741151" y="118.087014" style="stroke: #000000; stroke-width: 0.8"/>
      </g>
     </g>
     <g id="line2d_136">
      <g>
       <use xlink:href="#m2d8235c7b2" x="364.981335" y="118.087014" style="stroke: #000000; stroke-width: 0.8"/>
      </g>
     </g>
    </g>
    <g id="ytick_24">
     <g id="line2d_137">
      <g>
       <use xlink:href="#m8caf577bec" x="43.741151" y="113.955981" style="stroke: #000000; stroke-width: 0.8"/>
      </g>
     </g>
     <g id="line2d_138">
      <g>
       <use xlink:href="#m2d8235c7b2" x="364.981335" y="113.955981" style="stroke: #000000; stroke-width: 0.8"/>
      </g>
     </g>
    </g>
    <g id="ytick_25">
     <g id="line2d_139">
      <g>
       <use xlink:href="#m8caf577bec" x="43.741151" y="109.824947" style="stroke: #000000; stroke-width: 0.8"/>
      </g>
     </g>
     <g id="line2d_140">
      <g>
       <use xlink:href="#m2d8235c7b2" x="364.981335" y="109.824947" style="stroke: #000000; stroke-width: 0.8"/>
      </g>
     </g>
    </g>
    <g id="ytick_26">
     <g id="line2d_141">
      <g>
       <use xlink:href="#m8caf577bec" x="43.741151" y="101.562879" style="stroke: #000000; stroke-width: 0.8"/>
      </g>
     </g>
     <g id="line2d_142">
      <g>
       <use xlink:href="#m2d8235c7b2" x="364.981335" y="101.562879" style="stroke: #000000; stroke-width: 0.8"/>
      </g>
     </g>
    </g>
    <g id="ytick_27">
     <g id="line2d_143">
      <g>
       <use xlink:href="#m8caf577bec" x="43.741151" y="97.431846" style="stroke: #000000; stroke-width: 0.8"/>
      </g>
     </g>
     <g id="line2d_144">
      <g>
       <use xlink:href="#m2d8235c7b2" x="364.981335" y="97.431846" style="stroke: #000000; stroke-width: 0.8"/>
      </g>
     </g>
    </g>
    <g id="ytick_28">
     <g id="line2d_145">
      <g>
       <use xlink:href="#m8caf577bec" x="43.741151" y="93.300812" style="stroke: #000000; stroke-width: 0.8"/>
      </g>
     </g>
     <g id="line2d_146">
      <g>
       <use xlink:href="#m2d8235c7b2" x="364.981335" y="93.300812" style="stroke: #000000; stroke-width: 0.8"/>
      </g>
     </g>
    </g>
    <g id="ytick_29">
     <g id="line2d_147">
      <g>
       <use xlink:href="#m8caf577bec" x="43.741151" y="89.169778" style="stroke: #000000; stroke-width: 0.8"/>
      </g>
     </g>
     <g id="line2d_148">
      <g>
       <use xlink:href="#m2d8235c7b2" x="364.981335" y="89.169778" style="stroke: #000000; stroke-width: 0.8"/>
      </g>
     </g>
    </g>
    <g id="ytick_30">
     <g id="line2d_149">
      <g>
       <use xlink:href="#m8caf577bec" x="43.741151" y="80.907711" style="stroke: #000000; stroke-width: 0.8"/>
      </g>
     </g>
     <g id="line2d_150">
      <g>
       <use xlink:href="#m2d8235c7b2" x="364.981335" y="80.907711" style="stroke: #000000; stroke-width: 0.8"/>
      </g>
     </g>
    </g>
    <g id="ytick_31">
     <g id="line2d_151">
      <g>
       <use xlink:href="#m8caf577bec" x="43.741151" y="76.776677" style="stroke: #000000; stroke-width: 0.8"/>
      </g>
     </g>
     <g id="line2d_152">
      <g>
       <use xlink:href="#m2d8235c7b2" x="364.981335" y="76.776677" style="stroke: #000000; stroke-width: 0.8"/>
      </g>
     </g>
    </g>
    <g id="ytick_32">
     <g id="line2d_153">
      <g>
       <use xlink:href="#m8caf577bec" x="43.741151" y="72.645644" style="stroke: #000000; stroke-width: 0.8"/>
      </g>
     </g>
     <g id="line2d_154">
      <g>
       <use xlink:href="#m2d8235c7b2" x="364.981335" y="72.645644" style="stroke: #000000; stroke-width: 0.8"/>
      </g>
     </g>
    </g>
    <g id="ytick_33">
     <g id="line2d_155">
      <g>
       <use xlink:href="#m8caf577bec" x="43.741151" y="68.51461" style="stroke: #000000; stroke-width: 0.8"/>
      </g>
     </g>
     <g id="line2d_156">
      <g>
       <use xlink:href="#m2d8235c7b2" x="364.981335" y="68.51461" style="stroke: #000000; stroke-width: 0.8"/>
      </g>
     </g>
    </g>
    <g id="ytick_34">
     <g id="line2d_157">
      <g>
       <use xlink:href="#m8caf577bec" x="43.741151" y="60.252543" style="stroke: #000000; stroke-width: 0.8"/>
      </g>
     </g>
     <g id="line2d_158">
      <g>
       <use xlink:href="#m2d8235c7b2" x="364.981335" y="60.252543" style="stroke: #000000; stroke-width: 0.8"/>
      </g>
     </g>
    </g>
    <g id="ytick_35">
     <g id="line2d_159">
      <g>
       <use xlink:href="#m8caf577bec" x="43.741151" y="56.121509" style="stroke: #000000; stroke-width: 0.8"/>
      </g>
     </g>
     <g id="line2d_160">
      <g>
       <use xlink:href="#m2d8235c7b2" x="364.981335" y="56.121509" style="stroke: #000000; stroke-width: 0.8"/>
      </g>
     </g>
    </g>
    <g id="ytick_36">
     <g id="line2d_161">
      <g>
       <use xlink:href="#m8caf577bec" x="43.741151" y="51.990475" style="stroke: #000000; stroke-width: 0.8"/>
      </g>
     </g>
     <g id="line2d_162">
      <g>
       <use xlink:href="#m2d8235c7b2" x="364.981335" y="51.990475" style="stroke: #000000; stroke-width: 0.8"/>
      </g>
     </g>
    </g>
    <g id="ytick_37">
     <g id="line2d_163">
      <g>
       <use xlink:href="#m8caf577bec" x="43.741151" y="47.859442" style="stroke: #000000; stroke-width: 0.8"/>
      </g>
     </g>
     <g id="line2d_164">
      <g>
       <use xlink:href="#m2d8235c7b2" x="364.981335" y="47.859442" style="stroke: #000000; stroke-width: 0.8"/>
      </g>
     </g>
    </g>
    <g id="ytick_38">
     <g id="line2d_165">
      <g>
       <use xlink:href="#m8caf577bec" x="43.741151" y="39.597374" style="stroke: #000000; stroke-width: 0.8"/>
      </g>
     </g>
     <g id="line2d_166">
      <g>
       <use xlink:href="#m2d8235c7b2" x="364.981335" y="39.597374" style="stroke: #000000; stroke-width: 0.8"/>
      </g>
     </g>
    </g>
    <g id="ytick_39">
     <g id="line2d_167">
      <g>
       <use xlink:href="#m8caf577bec" x="43.741151" y="35.46634" style="stroke: #000000; stroke-width: 0.8"/>
      </g>
     </g>
     <g id="line2d_168">
      <g>
       <use xlink:href="#m2d8235c7b2" x="364.981335" y="35.46634" style="stroke: #000000; stroke-width: 0.8"/>
      </g>
     </g>
    </g>
    <g id="ytick_40">
     <g id="line2d_169">
      <g>
       <use xlink:href="#m8caf577bec" x="43.741151" y="31.335307" style="stroke: #000000; stroke-width: 0.8"/>
      </g>
     </g>
     <g id="line2d_170">
      <g>
       <use xlink:href="#m2d8235c7b2" x="364.981335" y="31.335307" style="stroke: #000000; stroke-width: 0.8"/>
      </g>
     </g>
    </g>
    <g id="ytick_41">
     <g id="line2d_171">
      <g>
       <use xlink:href="#m8caf577bec" x="43.741151" y="27.204273" style="stroke: #000000; stroke-width: 0.8"/>
      </g>
     </g>
     <g id="line2d_172">
      <g>
       <use xlink:href="#m2d8235c7b2" x="364.981335" y="27.204273" style="stroke: #000000; stroke-width: 0.8"/>
      </g>
     </g>
    </g>
    <g id="ytick_42">
     <g id="line2d_173">
      <g>
       <use xlink:href="#m8caf577bec" x="43.741151" y="18.942206" style="stroke: #000000; stroke-width: 0.8"/>
      </g>
     </g>
     <g id="line2d_174">
      <g>
       <use xlink:href="#m2d8235c7b2" x="364.981335" y="18.942206" style="stroke: #000000; stroke-width: 0.8"/>
      </g>
     </g>
    </g>
    <g id="ytick_43">
     <g id="line2d_175">
      <g>
       <use xlink:href="#m8caf577bec" x="43.741151" y="14.811172" style="stroke: #000000; stroke-width: 0.8"/>
      </g>
     </g>
     <g id="line2d_176">
      <g>
       <use xlink:href="#m2d8235c7b2" x="364.981335" y="14.811172" style="stroke: #000000; stroke-width: 0.8"/>
      </g>
     </g>
    </g>
    <g id="ytick_44">
     <g id="line2d_177">
      <g>
       <use xlink:href="#m8caf577bec" x="43.741151" y="10.680138" style="stroke: #000000; stroke-width: 0.8"/>
      </g>
     </g>
     <g id="line2d_178">
      <g>
       <use xlink:href="#m2d8235c7b2" x="364.981335" y="10.680138" style="stroke: #000000; stroke-width: 0.8"/>
      </g>
     </g>
    </g>
    <g id="text_20">
     <!-- Normalized Counts / 0.02 ($\text{GeV}^2$) -->
     <g transform="translate(16.039076 171.882241) rotate(-90) scale(0.1 -0.1)">
      <defs>
       <path id="CMR17-4e" d="M 1312 4250 
C 1267 4320 1261 4320 1139 4320 
L 326 4320 
L 326 4160 
L 448 4160 
C 704 4160 819 4129 838 4122 
L 838 610 
C 838 451 838 153 326 153 
L 326 -13 
C 474 0 742 0 902 0 
C 1062 0 1331 0 1478 -13 
L 1478 153 
C 966 153 966 451 966 610 
L 966 4033 
C 1011 3995 1011 3982 1056 3919 
L 3430 76 
C 3475 0 3494 0 3526 0 
C 3590 0 3590 19 3590 139 
L 3590 3705 
C 3590 3863 3590 4160 4102 4160 
L 4102 4326 
C 3955 4320 3686 4320 3526 4320 
C 3366 4320 3098 4320 2950 4326 
L 2950 4160 
C 3462 4160 3462 3862 3462 3703 
L 3462 763 
L 1312 4250 
z
" transform="scale(0.015625)"/>
       <path id="CMR17-6f" d="M 2758 1356 
C 2758 2176 2163 2816 1466 2816 
C 768 2816 173 2176 173 1356 
C 173 551 768 -64 1466 -64 
C 2163 -64 2758 551 2758 1356 
z
M 1466 51 
C 1165 51 909 230 762 480 
C 602 767 582 1126 582 1408 
C 582 1677 595 2010 762 2298 
C 890 2509 1139 2714 1466 2714 
C 1754 2714 1997 2554 2150 2330 
C 2349 2029 2349 1607 2349 1408 
C 2349 1158 2336 775 2163 467 
C 1984 173 1709 51 1466 51 
z
" transform="scale(0.015625)"/>
       <path id="CMR17-6d" d="M 4326 1933 
C 4326 2252 4269 2790 3507 2790 
C 3072 2790 2771 2496 2656 2151 
L 2650 2151 
C 2573 2676 2195 2790 1837 2790 
C 1331 2790 1069 2400 973 2144 
L 966 2144 
L 966 2790 
L 211 2720 
L 211 2554 
C 589 2554 646 2515 646 2208 
L 646 428 
C 646 184 621 153 211 153 
L 211 -13 
C 365 0 646 0 813 0 
C 979 0 1267 0 1421 -13 
L 1421 153 
C 1011 153 986 178 986 428 
L 986 1658 
C 986 2247 1344 2688 1792 2688 
C 2266 2688 2317 2266 2317 1958 
L 2317 428 
C 2317 184 2291 153 1882 153 
L 1882 -13 
C 2035 0 2317 0 2483 0 
C 2650 0 2938 0 3091 -13 
L 3091 153 
C 2682 153 2656 178 2656 428 
L 2656 1658 
C 2656 2247 3014 2688 3462 2688 
C 3936 2688 3987 2266 3987 1958 
L 3987 428 
C 3987 184 3962 153 3552 153 
L 3552 -13 
C 3706 0 3987 0 4154 0 
C 4320 0 4608 0 4762 -13 
L 4762 153 
C 4352 153 4326 178 4326 428 
L 4326 1933 
z
" transform="scale(0.015625)"/>
       <path id="CMR17-61" d="M 2304 1653 
C 2304 2072 2304 2294 2035 2543 
C 1798 2752 1523 2816 1306 2816 
C 800 2816 435 2407 435 1971 
C 435 1728 627 1728 666 1728 
C 749 1728 896 1778 896 1954 
C 896 2112 774 2181 666 2181 
C 640 2181 608 2174 589 2168 
C 723 2592 1069 2714 1293 2714 
C 1613 2714 1965 2429 1965 1885 
L 1965 1600 
C 1587 1600 1133 1549 774 1357 
C 371 1133 256 813 256 570 
C 256 77 832 -64 1171 -64 
C 1523 -64 1850 139 1990 511 
C 2003 233 2182 -18 2464 -18 
C 2598 -18 2938 70 2938 567 
L 2938 920 
L 2822 920 
L 2822 562 
C 2822 178 2650 128 2566 128 
C 2304 128 2304 458 2304 738 
L 2304 1653 
z
M 1965 870 
C 1965 317 1568 38 1216 38 
C 896 38 646 275 646 570 
C 646 761 730 1100 1101 1305 
C 1408 1478 1760 1504 1965 1504 
L 1965 870 
z
" transform="scale(0.015625)"/>
       <path id="CMR17-6c" d="M 979 4396 
L 218 4326 
L 218 4160 
C 595 4160 653 4122 653 3817 
L 653 426 
C 653 184 627 153 218 153 
L 218 -13 
C 371 0 653 0 813 0 
C 979 0 1261 0 1414 -13 
L 1414 153 
C 1005 153 979 178 979 426 
L 979 4396 
z
" transform="scale(0.015625)"/>
       <path id="CMR17-7a" d="M 2310 2605 
C 2362 2670 2362 2682 2362 2695 
C 2362 2752 2336 2752 2221 2752 
L 275 2752 
L 211 1760 
L 326 1760 
C 371 2381 442 2650 1178 2650 
L 1958 2650 
L 128 96 
C 128 0 134 0 269 0 
L 2291 0 
L 2381 1152 
L 2266 1152 
C 2214 442 2131 115 1350 115 
L 531 115 
L 2310 2605 
z
" transform="scale(0.015625)"/>
       <path id="CMR17-64" d="M 1869 4326 
L 1869 4160 
C 2246 4160 2304 4122 2304 3820 
L 2304 2345 
C 2278 2377 2016 2790 1498 2790 
C 845 2790 211 2208 211 1364 
C 211 525 806 -64 1434 -64 
C 1978 -64 2259 337 2291 380 
L 2291 -63 
L 3066 -63 
L 3066 128 
C 2688 128 2630 166 2630 473 
L 2630 4396 
L 1869 4326 
z
M 2291 755 
C 2291 563 2176 390 2029 262 
C 1811 70 1594 38 1472 38 
C 1286 38 621 134 621 1356 
C 621 2612 1363 2688 1530 2688 
C 1824 2688 2061 2522 2208 2291 
C 2291 2157 2291 2138 2291 2023 
L 2291 755 
z
" transform="scale(0.015625)"/>
       <path id="CMR17-43" d="M 3974 4289 
C 3974 4403 3968 4410 3930 4410 
C 3904 4410 3898 4403 3853 4327 
L 3571 3792 
C 3258 4187 2874 4416 2381 4416 
C 1286 4416 294 3456 294 2148 
C 294 826 1286 -128 2387 -128 
C 3366 -128 3974 730 3974 1461 
C 3974 1524 3974 1550 3917 1550 
C 3866 1550 3866 1531 3859 1474 
C 3808 585 3168 38 2477 38 
C 1824 38 781 495 781 2147 
C 781 3805 1843 4250 2464 4250 
C 3187 4250 3712 3628 3834 2745 
C 3846 2668 3846 2655 3904 2655 
C 3974 2655 3974 2668 3974 2783 
L 3974 4289 
z
" transform="scale(0.015625)"/>
       <path id="CMR17-75" d="M 1882 2693 
L 1882 2528 
C 2259 2528 2317 2489 2317 2186 
L 2317 1032 
C 2317 500 2029 38 1555 38 
C 1030 38 986 348 986 678 
L 986 2763 
L 211 2693 
L 211 2528 
C 467 2528 640 2528 646 2274 
L 646 1058 
C 646 633 646 361 813 183 
C 896 101 1056 -64 1517 -64 
C 2061 -64 2272 377 2323 506 
L 2330 506 
L 2330 -63 
L 3091 -63 
L 3091 128 
C 2714 128 2656 166 2656 473 
L 2656 2763 
L 1882 2693 
z
" transform="scale(0.015625)"/>
       <path id="CMR17-74" d="M 966 2560 
L 1862 2560 
L 1862 2725 
L 966 2725 
L 966 3904 
L 851 3904 
C 838 3245 614 2668 70 2668 
L 70 2560 
L 627 2560 
L 627 771 
C 627 650 627 -64 1370 -64 
C 1747 -64 1965 306 1965 777 
L 1965 1140 
L 1850 1140 
L 1850 783 
C 1850 344 1677 51 1408 51 
C 1222 51 966 178 966 758 
L 966 2560 
z
" transform="scale(0.015625)"/>
       <path id="CMR17-2f" d="M 2605 4545 
C 2637 4627 2637 4640 2637 4653 
C 2637 4729 2579 4768 2528 4768 
C 2451 4768 2426 4717 2400 4640 
L 326 -1377 
C 294 -1460 294 -1473 294 -1486 
C 294 -1562 352 -1600 403 -1600 
C 480 -1600 506 -1549 531 -1473 
L 2605 4545 
z
" transform="scale(0.015625)"/>
       <path id="CMR17-2e" d="M 1062 261 
C 1062 420 934 522 800 522 
C 672 522 538 420 538 261 
C 538 102 666 0 800 0 
C 928 0 1062 102 1062 261 
z
" transform="scale(0.015625)"/>
      </defs>
      <use xlink:href="#CMR17-4e" transform="scale(0.996264)"/>
      <use xlink:href="#CMR17-6f" transform="translate(69.07243 0) scale(0.996264)"/>
      <use xlink:href="#CMR17-72" transform="translate(114.762907 0) scale(0.996264)"/>
      <use xlink:href="#CMR17-6d" transform="translate(150.043675 0) scale(0.996264)"/>
      <use xlink:href="#CMR17-61" transform="translate(226.963265 0) scale(0.996264)"/>
      <use xlink:href="#CMR17-6c" transform="translate(272.653742 0) scale(0.996264)"/>
      <use xlink:href="#CMR17-69" transform="translate(297.5248 0) scale(0.996264)"/>
      <use xlink:href="#CMR17-7a" transform="translate(322.395859 0) scale(0.996264)"/>
      <use xlink:href="#CMR17-65" transform="translate(362.881519 0) scale(0.996264)"/>
      <use xlink:href="#CMR17-64" transform="translate(403.36718 0) scale(0.996264)"/>
      <use xlink:href="#CMR17-43" transform="translate(484.338516 0) scale(0.996264)"/>
      <use xlink:href="#CMR17-6f" transform="translate(550.848396 0) scale(0.996264)"/>
      <use xlink:href="#CMR17-75" transform="translate(596.538873 0) scale(0.996264)"/>
      <use xlink:href="#CMR17-6e" transform="translate(647.434243 0) scale(0.996264)"/>
      <use xlink:href="#CMR17-74" transform="translate(695.727159 0) scale(0.996264)"/>
      <use xlink:href="#CMR17-73" transform="translate(731.007927 0) scale(0.996264)"/>
      <use xlink:href="#CMR17-2f" transform="translate(796.885231 0) scale(0.996264)"/>
      <use xlink:href="#CMR17-30" transform="translate(872.651674 0) scale(0.996264)"/>
      <use xlink:href="#CMR17-2e" transform="translate(918.342151 0) scale(0.996264)"/>
      <use xlink:href="#CMR17-30" transform="translate(943.21321 0) scale(0.996264)"/>
      <use xlink:href="#CMR17-32" transform="translate(988.903687 0) scale(0.996264)"/>
      <use xlink:href="#CMR17-28" transform="translate(1064.67013 0) scale(0.996264)"/>
      <use xlink:href="#CMR17-47" transform="translate(1099.950898 0) scale(0.996264)"/>
      <use xlink:href="#CMR17-65" transform="translate(1172.306244 0) scale(0.996264)"/>
      <use xlink:href="#CMR17-56" transform="translate(1212.791905 0) scale(0.996264)"/>
      <use xlink:href="#CMR17-32" transform="translate(1281.864334 41.137482) scale(0.697382)"/>
      <use xlink:href="#CMR17-29" transform="translate(1314.345648 0) scale(0.996264)"/>
     </g>
    </g>
   </g>
   <g id="patch_3">
    <path d="M 58.342977 188.314587 
L 58.342977 184.174907 
L 64.183711 184.1762 
L 64.183711 183.868085 
L 67.104073 183.868085 
L 67.104073 183.441944 
L 70.024436 183.441944 
L 70.024436 183.202812 
L 72.944807 183.202812 
L 72.944807 182.980399 
L 75.86517 182.980399 
L 75.86517 182.747262 
L 78.785532 182.747262 
L 78.785532 182.273776 
L 84.626266 182.315105 
L 84.626266 182.067844 
L 87.546629 182.067844 
L 87.546629 181.745808 
L 90.467 181.745808 
L 90.467 181.149169 
L 93.387362 181.149169 
L 93.387362 180.877199 
L 96.307725 180.877199 
L 96.307725 180.426406 
L 99.228087 180.426406 
L 99.228087 180.019525 
L 102.148459 180.019525 
L 102.148459 179.372181 
L 105.068821 179.372181 
L 105.068821 178.698359 
L 107.989184 178.698359 
L 107.989184 177.943588 
L 110.909555 177.943588 
L 110.909555 177.506552 
L 113.829917 177.506552 
L 113.829917 176.854387 
L 116.75028 176.854387 
L 116.75028 175.996547 
L 119.670651 175.996547 
L 119.670651 174.905538 
L 122.591014 174.905538 
L 122.591014 174.122056 
L 125.511376 174.122056 
L 125.511376 172.981138 
L 128.431748 172.981138 
L 128.431748 171.716889 
L 131.35211 171.716889 
L 131.35211 170.807007 
L 134.272477 170.807007 
L 134.272477 169.512525 
L 137.192839 169.512525 
L 137.192839 167.640534 
L 140.113206 167.640534 
L 140.113206 166.187754 
L 143.033573 166.187754 
L 143.033573 163.892649 
L 145.953936 163.892649 
L 145.953936 161.866291 
L 148.874303 161.866291 
L 148.874303 159.433245 
L 151.794665 159.433245 
L 151.794665 156.766129 
L 154.715032 156.766129 
L 154.715032 153.633901 
L 157.635399 153.633901 
L 157.635399 150.482087 
L 160.555761 150.482087 
L 160.555761 146.566421 
L 163.476128 146.566421 
L 163.476128 142.199721 
L 166.396495 142.199721 
L 166.396495 137.531512 
L 169.31686 137.531512 
L 169.31686 132.47618 
L 172.237225 132.47618 
L 172.237225 127.49402 
L 175.157589 127.49402 
L 175.157589 121.813038 
L 178.077954 121.813038 
L 178.077954 115.73667 
L 180.998321 115.73667 
L 180.998321 109.890704 
L 183.918686 109.890704 
L 183.918686 104.467293 
L 186.839051 104.467293 
L 186.839051 99.285771 
L 189.759416 99.285771 
L 189.759416 95.028798 
L 192.679782 95.028798 
L 192.679782 91.245598 
L 195.600147 91.245598 
L 195.600147 88.802693 
L 198.520512 88.802693 
L 198.520512 88.253127 
L 201.440878 88.253127 
L 201.440878 88.466021 
L 204.361243 88.466021 
L 204.361243 89.355123 
L 207.281608 89.355123 
L 207.281608 91.980227 
L 210.201973 91.980227 
L 210.201973 94.607143 
L 213.122339 94.607143 
L 213.122339 98.362642 
L 216.042704 98.362642 
L 216.042704 102.280649 
L 218.96307 102.280649 
L 218.96307 105.768058 
L 221.883434 105.768058 
L 221.883434 109.662292 
L 224.8038 109.662292 
L 224.8038 113.297891 
L 227.724165 113.297891 
L 227.724165 116.817501 
L 230.644532 116.817501 
L 230.644532 119.323043 
L 233.564897 119.323043 
L 233.564897 121.692655 
L 236.485261 121.692655 
L 236.485261 124.931574 
L 239.405626 124.931574 
L 239.405626 127.10454 
L 242.325991 127.10454 
L 242.325991 128.553557 
L 245.246358 128.553557 
L 245.246358 130.850027 
L 248.166724 130.850027 
L 248.166724 132.289733 
L 251.087087 132.289733 
L 251.087087 134.283046 
L 254.007454 134.283046 
L 254.007454 135.119367 
L 256.927821 135.119367 
L 256.927821 136.801683 
L 259.848183 136.801683 
L 259.848183 137.82663 
L 262.76855 137.82663 
L 262.76855 138.610306 
L 265.688913 138.610306 
L 265.688913 139.674705 
L 268.60928 139.674705 
L 268.60928 140.769361 
L 271.529646 140.769361 
L 271.529646 141.980883 
L 274.450009 141.980883 
L 274.450009 143.279388 
L 277.370376 143.279388 
L 277.370376 143.770304 
L 280.290738 143.770304 
L 280.290738 145.012473 
L 283.21111 145.012473 
L 283.21111 146.306135 
L 286.131472 146.306135 
L 286.131472 147.025231 
L 289.051835 147.025231 
L 289.051835 147.837334 
L 291.972206 147.837334 
L 291.972206 149.021299 
L 294.892568 149.021299 
L 294.892568 149.962526 
L 297.812931 149.962526 
L 297.812931 150.319532 
L 300.733302 150.319532 
L 300.733302 151.452613 
L 303.653665 151.452613 
L 303.653665 151.997712 
L 306.574027 151.997712 
L 306.574027 152.863084 
L 309.494398 152.863084 
L 309.494398 153.644185 
L 312.414761 153.644185 
L 312.414761 153.853769 
L 315.335124 153.853769 
L 315.335124 154.762411 
L 318.255486 154.762411 
L 318.255486 155.482113 
L 321.175857 155.482113 
L 321.175857 156.176749 
L 324.09622 156.176749 
L 324.09622 156.312261 
L 327.016582 156.312261 
L 327.016582 157.191114 
L 329.936954 157.191114 
L 329.936954 157.864686 
L 332.857316 157.864686 
L 332.857316 158.56333 
L 335.777679 158.56333 
L 335.777679 159.176455 
L 338.69805 159.176455 
L 338.69805 159.472511 
L 341.618412 159.472511 
L 341.618412 160.264379 
L 344.538775 160.264379 
L 344.538775 160.69943 
L 347.459146 160.69943 
L 347.459146 161.1285 
L 350.379509 161.1285 
L 350.379509 188.314587 
L 350.379509 188.314587 
" clip-path="url(#pff6bc25eb9)" style="fill: none; stroke: #377eb8; stroke-linejoin: miter"/>
   </g>
   <g id="patch_4">
    <path d="M 58.342977 188.314587 
L 58.342977 183.604946 
L 61.26334 183.604946 
L 61.26334 183.365891 
L 64.183711 183.365891 
L 64.183711 183.161199 
L 67.104073 183.161199 
L 67.104073 183.040565 
L 70.024436 183.040565 
L 70.024436 182.746555 
L 72.944807 182.746555 
L 72.944807 182.415523 
L 75.86517 182.415523 
L 75.86517 182.180857 
L 78.785532 182.180857 
L 78.785532 181.90933 
L 81.705904 181.90933 
L 81.705904 181.637483 
L 84.626266 181.637483 
L 84.626266 181.24976 
L 87.546629 181.24976 
L 87.546629 180.874826 
L 90.467 180.874826 
L 90.467 180.508322 
L 93.387362 180.508322 
L 93.387362 180.163634 
L 96.307725 180.163634 
L 96.307725 179.705144 
L 99.228087 179.705144 
L 99.228087 179.154061 
L 102.148459 179.154061 
L 102.148459 178.67572 
L 105.068821 178.67572 
L 105.068821 178.077903 
L 107.989184 178.077903 
L 107.989184 177.297075 
L 110.909555 177.297075 
L 110.909555 176.791617 
L 113.829917 176.791617 
L 113.829917 175.925702 
L 116.75028 175.925702 
L 116.75028 175.179888 
L 119.670651 175.179888 
L 119.670651 174.3211 
L 122.591014 174.3211 
L 122.591014 173.291573 
L 125.511376 173.291573 
L 125.511376 172.323643 
L 128.431748 172.323643 
L 128.431748 170.986814 
L 131.35211 170.986814 
L 131.35211 169.656399 
L 134.272477 169.656399 
L 134.272477 168.313826 
L 137.192839 168.313826 
L 137.192839 166.621838 
L 140.113206 166.621838 
L 140.113206 164.652844 
L 143.033573 164.652844 
L 143.033573 162.623505 
L 145.953936 162.623505 
L 145.953936 160.365611 
L 148.874303 160.365611 
L 148.874303 157.530555 
L 151.794665 157.530555 
L 151.794665 154.361907 
L 154.715032 154.361907 
L 154.715032 150.806852 
L 157.635399 150.806852 
L 157.635399 146.861238 
L 160.555761 146.861238 
L 160.555761 142.366404 
L 163.476128 142.366404 
L 163.476128 136.848345 
L 166.396495 136.848345 
L 166.396495 130.661631 
L 169.31686 130.661631 
L 169.31686 123.619325 
L 172.237225 123.619325 
L 172.237225 115.685465 
L 175.157589 115.685465 
L 175.157589 106.445356 
L 178.077954 106.445356 
L 178.077954 96.008616 
L 180.998321 96.008616 
L 180.998321 84.500928 
L 183.918686 84.500928 
L 183.918686 72.466381 
L 186.839051 72.466381 
L 186.839051 59.938188 
L 189.759416 59.938188 
L 189.759416 47.172534 
L 192.679782 47.172534 
L 192.679782 35.007329 
L 195.600147 35.007329 
L 195.600147 25.753423 
L 198.520512 25.753423 
L 198.520512 18.725198 
L 201.440878 18.725198 
L 201.440878 15.824504 
L 204.361243 15.824504 
L 204.361243 17.710957 
L 207.281608 17.710957 
L 207.281608 22.934439 
L 210.201973 22.934439 
L 210.201973 31.779279 
L 213.122339 31.779279 
L 213.122339 42.948028 
L 216.042704 42.948028 
L 216.042704 55.609587 
L 218.96307 55.609587 
L 218.96307 68.097734 
L 221.883434 68.097734 
L 221.883434 80.709794 
L 224.8038 80.709794 
L 224.8038 92.410411 
L 227.724165 92.410411 
L 227.724165 102.886428 
L 230.644532 102.886428 
L 230.644532 112.522763 
L 233.564897 112.522763 
L 233.564897 121.125944 
L 236.485261 121.125944 
L 236.485261 128.266203 
L 239.405626 128.266203 
L 239.405626 134.727674 
L 242.325991 134.727674 
L 242.325991 140.250857 
L 245.246358 140.250857 
L 245.246358 145.080206 
L 248.166724 145.080206 
L 248.166724 149.306843 
L 251.087087 149.306843 
L 251.087087 153.037339 
L 254.007454 153.037339 
L 254.007454 156.266671 
L 256.927821 156.266671 
L 256.927821 159.145042 
L 259.848183 159.145042 
L 259.848183 161.730295 
L 262.76855 161.730295 
L 262.76855 163.982134 
L 265.688913 163.982134 
L 265.688913 165.856847 
L 268.60928 165.856847 
L 268.60928 167.69763 
L 271.529646 167.69763 
L 271.529646 169.228719 
L 274.450009 169.228719 
L 274.450009 170.593989 
L 277.370376 170.593989 
L 277.370376 171.88408 
L 280.290738 171.88408 
L 280.290738 173.098913 
L 283.21111 173.098913 
L 283.21111 174.135234 
L 286.131472 174.135234 
L 286.131472 175.05226 
L 289.051835 175.05226 
L 289.051835 175.811767 
L 291.972206 175.811767 
L 291.972206 176.64794 
L 294.892568 176.64794 
L 294.892568 177.434506 
L 297.812931 177.434506 
L 297.812931 178.057376 
L 300.733302 178.057376 
L 300.733302 178.614781 
L 303.653665 178.614781 
L 303.653665 179.3002 
L 306.574027 179.3002 
L 306.574027 179.804176 
L 309.494398 179.804176 
L 309.494398 180.373507 
L 312.414761 180.373507 
L 312.414761 180.727621 
L 315.335124 180.727621 
L 315.335124 181.052592 
L 318.255486 181.052592 
L 318.255486 181.60158 
L 321.175857 181.60158 
L 321.175857 181.868195 
L 324.09622 181.868195 
L 324.09622 182.250945 
L 327.016582 182.250945 
L 327.016582 182.572773 
L 329.936954 182.572773 
L 329.936954 182.791213 
L 332.857316 182.791213 
L 332.857316 183.070103 
L 335.777679 183.070103 
L 335.777679 183.33144 
L 338.69805 183.33144 
L 338.69805 183.625899 
L 341.618412 183.625899 
L 341.618412 183.750603 
L 344.538775 183.750603 
L 344.538775 184.000702 
L 347.459146 184.000702 
L 347.459146 184.253314 
L 350.379509 184.253314 
L 350.379509 188.314587 
L 350.379509 188.314587 
" clip-path="url(#pff6bc25eb9)" style="fill: none; stroke: #4daf4a; stroke-linejoin: miter"/>
   </g>
   <g id="patch_5">
    <path d="M 58.342977 188.314587 
L 58.342977 182.952394 
L 61.26334 182.952394 
L 61.26334 182.797976 
L 64.183711 182.797976 
L 64.183711 182.388416 
L 67.104073 182.388416 
L 67.104073 182.108871 
L 70.024436 182.108871 
L 70.024436 181.907538 
L 75.86517 181.812708 
L 75.86517 180.84114 
L 84.626266 180.778585 
L 84.626266 180.219494 
L 87.546629 180.219494 
L 87.546629 180.042604 
L 90.467 180.042604 
L 90.467 179.485443 
L 96.307725 179.48642 
L 96.307725 178.867705 
L 99.228087 178.867705 
L 99.228087 178.212856 
L 102.148459 178.212856 
L 102.148459 177.601931 
L 107.989184 177.565766 
L 107.989184 176.320554 
L 110.909555 176.320554 
L 110.909555 176.069318 
L 113.829917 176.069318 
L 113.829917 174.905194 
L 116.75028 174.905194 
L 116.75028 174.363738 
L 119.670651 174.363738 
L 119.670651 173.023639 
L 122.591014 173.023639 
L 122.591014 172.586725 
L 125.511376 172.586725 
L 125.511376 171.826331 
L 128.431748 171.826331 
L 128.431748 169.763903 
L 131.35211 169.763903 
L 131.35211 169.060179 
L 134.272477 169.060179 
L 134.272477 167.790469 
L 137.192839 167.790469 
L 137.192839 165.270681 
L 140.113206 165.270681 
L 140.113206 164.347987 
L 143.033573 164.347987 
L 143.033573 162.276768 
L 145.953936 162.276768 
L 145.953936 159.873309 
L 148.874303 159.873309 
L 148.874303 157.762987 
L 151.794665 157.762987 
L 151.794665 154.873748 
L 154.715032 154.873748 
L 154.715032 151.518232 
L 157.635399 151.518232 
L 157.635399 147.448153 
L 160.555761 147.448153 
L 160.555761 144.011562 
L 163.476128 144.011562 
L 163.476128 139.600424 
L 166.396495 139.600424 
L 166.396495 133.888266 
L 169.31686 133.888266 
L 169.31686 128.443002 
L 172.237225 128.443002 
L 172.237225 119.341166 
L 175.157589 119.341166 
L 175.157589 113.47853 
L 178.077954 113.47853 
L 178.077954 105.790122 
L 180.998321 105.790122 
L 180.998321 96.283551 
L 183.918686 96.283551 
L 183.918686 86.463329 
L 186.839051 86.463329 
L 186.839051 75.780955 
L 189.759416 75.780955 
L 189.759416 64.752642 
L 192.679782 64.752642 
L 192.679782 53.784855 
L 195.600147 53.784855 
L 195.600147 48.377728 
L 198.520512 48.377728 
L 198.520512 39.978642 
L 201.440878 39.978642 
L 201.440878 35.197045 
L 204.361243 35.197045 
L 204.361243 35.900807 
L 207.281608 35.900807 
L 207.281608 39.292486 
L 210.201973 39.292486 
L 210.201973 43.808207 
L 213.122339 43.808207 
L 213.122339 53.538542 
L 216.042704 53.538542 
L 216.042704 63.016724 
L 218.96307 63.016724 
L 218.96307 72.985482 
L 221.883434 72.985482 
L 221.883434 81.452063 
L 224.8038 81.452063 
L 224.8038 90.60565 
L 227.724165 90.60565 
L 227.724165 100.780782 
L 230.644532 100.780782 
L 230.644532 108.922713 
L 233.564897 108.922713 
L 233.564897 115.609329 
L 236.485261 115.609329 
L 236.485261 122.177662 
L 239.405626 122.177662 
L 239.405626 128.981565 
L 242.325991 128.981565 
L 242.325991 133.761245 
L 245.246358 133.761245 
L 245.246358 138.658173 
L 248.166724 138.658173 
L 248.166724 142.074221 
L 251.087087 142.074221 
L 251.087087 145.172755 
L 254.007454 145.172755 
L 254.007454 148.320081 
L 256.927821 148.320081 
L 256.927821 152.642224 
L 259.848183 152.642224 
L 259.848183 154.537514 
L 262.76855 154.537514 
L 262.76855 157.002551 
L 265.688913 157.002551 
L 265.688913 158.50197 
L 268.60928 158.50197 
L 268.60928 160.401122 
L 271.529646 160.401122 
L 271.529646 162.534813 
L 274.450009 162.534813 
L 274.450009 163.848521 
L 277.370376 163.848521 
L 277.370376 165.537487 
L 280.290738 165.537487 
L 280.290738 166.646938 
L 283.21111 166.646938 
L 283.21111 168.054373 
L 286.131472 168.054373 
L 286.131472 169.612401 
L 289.051835 169.612401 
L 289.051835 170.430567 
L 291.972206 170.430567 
L 291.972206 171.529144 
L 294.892568 171.529144 
L 294.892568 171.89666 
L 297.812931 171.89666 
L 297.812931 173.095036 
L 303.653665 173.176117 
L 303.653665 174.794744 
L 306.574027 174.794744 
L 306.574027 174.237651 
L 309.494398 174.237651 
L 309.494398 176.308786 
L 312.414761 176.308786 
L 312.414761 176.637204 
L 315.335124 176.637204 
L 315.335124 176.827804 
L 318.255486 176.827804 
L 318.255486 177.474896 
L 321.175857 177.474896 
L 321.175857 177.797416 
L 324.09622 177.797416 
L 324.09622 178.391696 
L 327.016582 178.391696 
L 327.016582 179.229382 
L 332.857316 179.154092 
L 332.857316 179.671155 
L 335.777679 179.671155 
L 335.777679 179.998619 
L 338.69805 179.998619 
L 338.69805 180.269343 
L 341.618412 180.269343 
L 341.618412 180.795201 
L 344.538775 180.795201 
L 344.538775 181.170557 
L 350.379509 181.069859 
L 350.379509 188.314587 
L 350.379509 188.314587 
" clip-path="url(#pff6bc25eb9)" style="fill: none; stroke: #e41a1c; stroke-linejoin: miter"/>
   </g>
   <g id="patch_6">
    <path d="M 43.741151 188.314587 
L 43.741151 7.2 
" style="fill: none; stroke: #000000; stroke-width: 0.8; stroke-linejoin: miter; stroke-linecap: square"/>
   </g>
   <g id="patch_7">
    <path d="M 364.981335 188.314587 
L 364.981335 7.2 
" style="fill: none; stroke: #000000; stroke-width: 0.8; stroke-linejoin: miter; stroke-linecap: square"/>
   </g>
   <g id="patch_8">
    <path d="M 43.741151 188.314587 
L 364.981335 188.314587 
" style="fill: none; stroke: #000000; stroke-width: 0.8; stroke-linejoin: miter; stroke-linecap: square"/>
   </g>
   <g id="patch_9">
    <path d="M 43.741151 7.2 
L 364.981335 7.2 
" style="fill: none; stroke: #000000; stroke-width: 0.8; stroke-linejoin: miter; stroke-linecap: square"/>
   </g>
   <g id="legend_1">
    <g id="patch_10">
     <path d="M 305.073966 39.500003 
L 360.781335 39.500003 
Q 361.981335 39.500003 361.981335 38.300003 
L 361.981335 11.4 
Q 361.981335 10.2 360.781335 10.2 
L 305.073966 10.2 
Q 303.873966 10.2 303.873966 11.4 
L 303.873966 38.300003 
Q 303.873966 39.500003 305.073966 39.500003 
z
" style="fill: #ffffff; opacity: 0.8; stroke: #cccccc; stroke-linejoin: miter"/>
    </g>
    <g id="patch_11">
     <path d="M 306.273966 16.8 
L 318.273966 16.8 
L 318.273966 12.6 
L 306.273966 12.6 
L 306.273966 16.8 
z
" style="fill: none; stroke: #377eb8; stroke-linejoin: miter"/>
    </g>
    <g id="text_21">
     <!-- Data -->
     <g transform="translate(323.073966 16.8) scale(0.06 -0.06)">
      <defs>
       <path id="CMR17-44" d="M 333 4352 
L 333 4186 
C 774 4186 845 4186 845 3900 
L 845 452 
C 845 166 774 166 333 166 
L 333 0 
L 2368 0 
C 3398 0 4224 943 4224 2141 
C 4224 3346 3411 4352 2368 4352 
L 333 4352 
z
M 1523 166 
C 1267 166 1254 197 1254 414 
L 1254 3938 
C 1254 4155 1267 4186 1523 4186 
L 2240 4186 
C 2771 4186 3750 3874 3750 2141 
C 3750 1242 3488 879 3366 707 
C 3213 510 2848 166 2240 166 
L 1523 166 
z
" transform="scale(0.015625)"/>
      </defs>
      <use xlink:href="#CMR17-44" transform="scale(0.996264)"/>
      <use xlink:href="#CMR17-61" transform="translate(70.393556 0) scale(0.996264)"/>
      <use xlink:href="#CMR17-74" transform="translate(116.084033 0) scale(0.996264)"/>
      <use xlink:href="#CMR17-61" transform="translate(151.364801 0) scale(0.996264)"/>
     </g>
    </g>
    <g id="patch_12">
     <path d="M 306.273966 26.680889 
L 318.273966 26.680889 
L 318.273966 22.480889 
L 306.273966 22.480889 
L 306.273966 26.680889 
z
" style="fill: none; stroke: #4daf4a; stroke-linejoin: miter"/>
    </g>
    <g id="text_22">
     <!-- $K_S^0 K_S^0$ MC -->
     <g transform="translate(323.073966 26.680889) scale(0.06 -0.06)">
      <defs>
       <path id="CMMI12-4b" d="M 3200 2571 
C 3194 2590 3168 2641 3168 2661 
C 3168 2667 3174 2673 3283 2756 
L 3904 3242 
C 4762 3905 5043 4128 5485 4167 
C 5530 4167 5594 4167 5594 4282 
C 5594 4320 5574 4352 5523 4352 
C 5453 4352 5376 4352 5306 4352 
L 5062 4352 
C 4864 4352 4653 4352 4461 4352 
C 4416 4352 4339 4352 4339 4237 
C 4339 4173 4384 4167 4422 4167 
C 4493 4160 4576 4135 4576 4046 
C 4576 3919 4384 3765 4333 3727 
L 1824 1784 
L 2355 3887 
C 2413 4103 2426 4167 2880 4167 
C 3002 4167 3059 4167 3059 4288 
C 3059 4352 2995 4352 2963 4352 
C 2848 4352 2714 4352 2592 4352 
L 1837 4352 
C 1722 4352 1581 4352 1466 4352 
C 1414 4352 1344 4352 1344 4231 
C 1344 4167 1402 4167 1498 4167 
C 1888 4167 1888 4116 1888 4046 
C 1888 4034 1888 3995 1862 3899 
L 998 472 
C 941 249 928 185 480 185 
C 358 185 294 185 294 70 
C 294 0 352 0 390 0 
C 512 0 640 0 762 0 
L 1510 0 
C 1632 0 1766 0 1888 0 
C 1939 0 2010 0 2010 121 
C 2010 185 1952 185 1856 185 
C 1466 185 1466 236 1466 300 
C 1466 345 1504 504 1530 606 
L 1779 1593 
L 2752 2351 
C 2938 1943 3277 1128 3539 505 
C 3558 466 3571 428 3571 383 
C 3571 185 3315 185 3258 185 
C 3200 185 3136 185 3136 64 
C 3136 0 3206 0 3226 0 
C 3450 0 3686 0 3910 0 
L 4218 0 
C 4314 0 4422 0 4518 0 
C 4557 0 4627 0 4627 121 
C 4627 185 4570 185 4506 185 
C 4269 185 4186 236 4090 466 
L 3200 2571 
z
" transform="scale(0.015625)"/>
       <path id="CMMI12-53" d="M 4064 4423 
C 4064 4480 4019 4480 4006 4480 
C 3981 4480 3974 4474 3898 4378 
C 3859 4333 3597 4001 3590 3995 
C 3379 4410 2957 4480 2688 4480 
C 1875 4480 1139 3743 1139 3025 
C 1139 2549 1427 2269 1741 2161 
C 1811 2135 2189 2033 2381 1989 
C 2707 1900 2790 1875 2925 1735 
C 2950 1703 3078 1557 3078 1258 
C 3078 667 2528 57 1888 57 
C 1363 57 781 280 781 991 
C 781 1112 806 1265 826 1328 
C 826 1348 832 1378 832 1391 
C 832 1417 819 1449 768 1449 
C 710 1449 704 1436 678 1328 
L 352 24 
C 352 18 326 -64 326 -71 
C 326 -128 378 -128 390 -128 
C 416 -128 422 -122 499 -26 
L 794 356 
C 947 126 1280 -128 1875 -128 
C 2701 -128 3456 666 3456 1460 
C 3456 1728 3392 1963 3149 2197 
C 3014 2331 2899 2363 2310 2516 
C 1882 2630 1824 2649 1709 2751 
C 1600 2858 1517 3011 1517 3227 
C 1517 3761 2061 4308 2669 4308 
C 3296 4308 3590 3926 3590 3323 
C 3590 3158 3558 2986 3558 2961 
C 3558 2903 3610 2903 3629 2903 
C 3686 2903 3693 2922 3718 3024 
L 4064 4423 
z
" transform="scale(0.015625)"/>
      </defs>
      <use xlink:href="#CMMI12-4b" transform="scale(0.996264)"/>
      <use xlink:href="#CMR17-30" transform="translate(90.147421 36.153639) scale(0.697382)"/>
      <use xlink:href="#CMMI12-53" transform="translate(82.992611 -27.44057) scale(0.697382)"/>
      <use xlink:href="#CMMI12-4b" transform="translate(129.54664 0) scale(0.996264)"/>
      <use xlink:href="#CMR17-30" transform="translate(219.694061 36.153639) scale(0.697382)"/>
      <use xlink:href="#CMMI12-53" transform="translate(212.539251 -27.44057) scale(0.697382)"/>
      <use xlink:href="#CMR17-4d" transform="translate(289.169247 0) scale(0.996264)"/>
      <use xlink:href="#CMR17-43" transform="translate(373.856187 0) scale(0.996264)"/>
     </g>
    </g>
    <g id="patch_13">
     <path d="M 306.273966 35.93769 
L 318.273966 35.93769 
L 318.273966 31.73769 
L 306.273966 31.73769 
L 306.273966 35.93769 
z
" style="fill: none; stroke: #e41a1c; stroke-linejoin: miter"/>
    </g>
    <g id="text_23">
     <!-- $4\pi$ MC -->
     <g transform="translate(323.073966 35.93769) scale(0.06 -0.06)">
      <defs>
       <path id="CMR17-34" d="M 2150 4122 
C 2150 4256 2144 4256 2029 4256 
L 128 1254 
L 128 1088 
L 1779 1088 
L 1779 457 
C 1779 224 1766 160 1318 160 
L 1197 160 
L 1197 0 
C 1402 0 1747 0 1965 0 
C 2182 0 2528 0 2733 0 
L 2733 160 
L 2611 160 
C 2163 160 2150 224 2150 457 
L 2150 1088 
L 2803 1088 
L 2803 1254 
L 2150 1254 
L 2150 4122 
z
M 1798 3703 
L 1798 1254 
L 256 1254 
L 1798 3703 
z
" transform="scale(0.015625)"/>
       <path id="CMMI12-19" d="M 1658 2408 
L 2381 2408 
C 2208 1692 2099 1226 2099 716 
C 2099 626 2099 -64 2362 -64 
C 2496 -64 2611 57 2611 166 
C 2611 197 2611 210 2566 306 
C 2394 747 2394 1296 2394 1341 
C 2394 1379 2394 1832 2528 2408 
L 3245 2408 
C 3328 2408 3539 2408 3539 2612 
C 3539 2752 3418 2752 3302 2752 
L 1197 2752 
C 1050 2752 832 2752 538 2440 
C 371 2254 166 1916 166 1878 
C 166 1840 198 1827 237 1827 
C 282 1827 288 1846 320 1884 
C 653 2408 986 2408 1146 2408 
L 1510 2408 
C 1370 1929 1210 1373 685 256 
C 634 154 634 140 634 102 
C 634 -32 749 -64 806 -64 
C 992 -64 1043 102 1120 370 
C 1222 696 1222 709 1286 964 
L 1658 2408 
z
" transform="scale(0.015625)"/>
      </defs>
      <use xlink:href="#CMR17-34" transform="scale(0.996264)"/>
      <use xlink:href="#CMMI12-19" transform="translate(45.690477 0) scale(0.996264)"/>
      <use xlink:href="#CMR17-4d" transform="translate(134.677044 0) scale(0.996264)"/>
      <use xlink:href="#CMR17-43" transform="translate(219.363985 0) scale(0.996264)"/>
     </g>
    </g>
   </g>
  </g>
 </g>
 <defs>
  <clipPath id="pff6bc25eb9">
   <rect x="43.741151" y="7.2" width="321.240185" height="181.114587"/>
  </clipPath>
 </defs>
</svg>
