<?xml version="1.0" encoding="utf-8" standalone="no"?>
<!DOCTYPE svg PUBLIC "-//W3C//DTD SVG 1.1//EN"
  "http://www.w3.org/Graphics/SVG/1.1/DTD/svg11.dtd">
<svg xmlns:xlink="http://www.w3.org/1999/xlink" width="362.218665pt" height="223.2pt" viewBox="0 0 362.218665 223.2" xmlns="http://www.w3.org/2000/svg" version="1.1">
 <metadata>
  <rdf:RDF xmlns:dc="http://purl.org/dc/elements/1.1/" xmlns:cc="http://creativecommons.org/ns#" xmlns:rdf="http://www.w3.org/1999/02/22-rdf-syntax-ns#">
   <cc:Work>
    <dc:type rdf:resource="http://purl.org/dc/dcmitype/StillImage"/>
    <dc:date>2025-05-27T13:08:01.906285</dc:date>
    <dc:format>image/svg+xml</dc:format>
    <dc:creator>
     <cc:Agent>
      <dc:title>Matplotlib v3.10.3, https://matplotlib.org/</dc:title>
     </cc:Agent>
    </dc:creator>
   </cc:Work>
  </rdf:RDF>
 </metadata>
 <defs>
  <style type="text/css">*{stroke-linejoin: round; stroke-linecap: butt}</style>
 </defs>
 <g id="figure_1">
  <g id="patch_1">
   <path d="M 0 223.2 
L 362.218665 223.2 
L 362.218665 0 
L 0 0 
z
" style="fill: #ffffff"/>
  </g>
  <g id="axes_1">
   <g id="patch_2">
    <path d="M 38.759815 188.314587 
L 355.018665 188.314587 
L 355.018665 7.2 
L 38.759815 7.2 
z
" style="fill: #ffffff"/>
   </g>
   <g id="matplotlib.axis_1">
    <g id="xtick_1">
     <g id="line2d_1">
      <defs>
       <path id="m89cac87a8d" d="M 0 0 
L 0 -4 
" style="stroke: #000000; stroke-width: 1.2"/>
      </defs>
      <g>
       <use xlink:href="#m89cac87a8d" x="53.135218" y="188.314587" style="stroke: #000000; stroke-width: 1.2"/>
      </g>
     </g>
     <g id="line2d_2">
      <defs>
       <path id="m8f523297a2" d="M 0 0 
L 0 4 
" style="stroke: #000000; stroke-width: 1.2"/>
      </defs>
      <g>
       <use xlink:href="#m8f523297a2" x="53.135218" y="7.2" style="stroke: #000000; stroke-width: 1.2"/>
      </g>
     </g>
     <g id="text_1">
      <!-- $\mathdefault{−1.00}$ -->
      <g transform="translate(40.405139 198.733085) scale(0.1 -0.1)">
       <defs>
        <path id="CMSY10-0" d="M 4218 1472 
C 4326 1472 4442 1472 4442 1600 
C 4442 1728 4326 1728 4218 1728 
L 755 1728 
C 646 1728 531 1728 531 1600 
C 531 1472 646 1472 755 1472 
L 4218 1472 
z
" transform="scale(0.015625)"/>
        <path id="CMR17-31" d="M 1702 4058 
C 1702 4192 1696 4192 1606 4192 
C 1357 3916 979 3827 621 3827 
C 602 3827 570 3827 563 3808 
C 557 3795 557 3782 557 3648 
C 755 3648 1088 3686 1344 3839 
L 1344 461 
C 1344 236 1331 160 781 160 
L 589 160 
L 589 0 
C 896 0 1216 0 1523 0 
C 1830 0 2150 0 2458 0 
L 2458 160 
L 2266 160 
C 1715 160 1702 230 1702 458 
L 1702 4058 
z
" transform="scale(0.015625)"/>
        <path id="CMMI12-3a" d="M 1178 307 
C 1178 492 1024 619 870 619 
C 685 619 557 466 557 313 
C 557 128 710 0 864 0 
C 1050 0 1178 153 1178 307 
z
" transform="scale(0.015625)"/>
        <path id="CMR17-30" d="M 2688 2025 
C 2688 2416 2682 3080 2413 3591 
C 2176 4039 1798 4198 1466 4198 
C 1158 4198 768 4058 525 3597 
C 269 3118 243 2524 243 2025 
C 243 1661 250 1106 448 619 
C 723 -39 1216 -128 1466 -128 
C 1760 -128 2208 -7 2470 600 
C 2662 1042 2688 1559 2688 2025 
z
M 1466 -26 
C 1056 -26 813 325 723 812 
C 653 1188 653 1738 653 2096 
C 653 2588 653 2997 736 3387 
C 858 3929 1216 4096 1466 4096 
C 1728 4096 2067 3923 2189 3400 
C 2272 3036 2278 2607 2278 2096 
C 2278 1680 2278 1169 2202 792 
C 2067 95 1690 -26 1466 -26 
z
" transform="scale(0.015625)"/>
       </defs>
       <use xlink:href="#CMSY10-0" transform="scale(0.996264)"/>
       <use xlink:href="#CMR17-31" transform="translate(77.487468 0) scale(0.996264)"/>
       <use xlink:href="#CMMI12-3a" transform="translate(123.177945 0) scale(0.996264)"/>
       <use xlink:href="#CMR17-30" transform="translate(150.275122 0) scale(0.996264)"/>
       <use xlink:href="#CMR17-30" transform="translate(195.965599 0) scale(0.996264)"/>
      </g>
     </g>
    </g>
    <g id="xtick_2">
     <g id="line2d_3">
      <g>
       <use xlink:href="#m89cac87a8d" x="89.073723" y="188.314587" style="stroke: #000000; stroke-width: 1.2"/>
      </g>
     </g>
     <g id="line2d_4">
      <g>
       <use xlink:href="#m8f523297a2" x="89.073723" y="7.2" style="stroke: #000000; stroke-width: 1.2"/>
      </g>
     </g>
     <g id="text_2">
      <!-- $\mathdefault{−0.75}$ -->
      <g transform="translate(76.343644 198.733085) scale(0.1 -0.1)">
       <defs>
        <path id="CMR17-37" d="M 2886 3941 
L 2886 4081 
L 1382 4081 
C 634 4081 621 4165 595 4288 
L 480 4288 
L 294 3094 
L 410 3094 
C 429 3215 474 3540 550 3661 
C 589 3712 1062 3712 1171 3712 
L 2579 3712 
L 1869 2661 
C 1395 1954 1069 999 1069 165 
C 1069 89 1069 -128 1299 -128 
C 1530 -128 1530 89 1530 171 
L 1530 465 
C 1530 1508 1709 2196 2003 2636 
L 2886 3941 
z
" transform="scale(0.015625)"/>
        <path id="CMR17-35" d="M 730 3692 
C 794 3666 1056 3584 1325 3584 
C 1920 3584 2246 3911 2432 4100 
C 2432 4157 2432 4192 2394 4192 
C 2387 4192 2374 4192 2323 4163 
C 2099 4058 1837 3973 1517 3973 
C 1325 3973 1037 3999 723 4139 
C 653 4171 640 4171 634 4171 
C 602 4171 595 4164 595 4037 
L 595 2203 
C 595 2089 595 2057 659 2057 
C 691 2057 704 2070 736 2114 
C 941 2401 1222 2522 1542 2522 
C 1766 2522 2246 2382 2246 1289 
C 2246 1085 2246 715 2054 421 
C 1894 159 1645 25 1370 25 
C 947 25 518 320 403 814 
C 429 807 480 795 506 795 
C 589 795 749 840 749 1038 
C 749 1210 627 1280 506 1280 
C 358 1280 262 1190 262 1011 
C 262 454 704 -128 1382 -128 
C 2042 -128 2669 440 2669 1264 
C 2669 2030 2170 2624 1549 2624 
C 1222 2624 947 2503 730 2274 
L 730 3692 
z
" transform="scale(0.015625)"/>
       </defs>
       <use xlink:href="#CMSY10-0" transform="scale(0.996264)"/>
       <use xlink:href="#CMR17-30" transform="translate(77.487468 0) scale(0.996264)"/>
       <use xlink:href="#CMMI12-3a" transform="translate(123.177945 0) scale(0.996264)"/>
       <use xlink:href="#CMR17-37" transform="translate(150.275122 0) scale(0.996264)"/>
       <use xlink:href="#CMR17-35" transform="translate(195.965599 0) scale(0.996264)"/>
      </g>
     </g>
    </g>
    <g id="xtick_3">
     <g id="line2d_5">
      <g>
       <use xlink:href="#m89cac87a8d" x="125.012229" y="188.314587" style="stroke: #000000; stroke-width: 1.2"/>
      </g>
     </g>
     <g id="line2d_6">
      <g>
       <use xlink:href="#m8f523297a2" x="125.012229" y="7.2" style="stroke: #000000; stroke-width: 1.2"/>
      </g>
     </g>
     <g id="text_3">
      <!-- $\mathdefault{−0.50}$ -->
      <g transform="translate(112.28215 198.733085) scale(0.1 -0.1)">
       <use xlink:href="#CMSY10-0" transform="scale(0.996264)"/>
       <use xlink:href="#CMR17-30" transform="translate(77.487468 0) scale(0.996264)"/>
       <use xlink:href="#CMMI12-3a" transform="translate(123.177945 0) scale(0.996264)"/>
       <use xlink:href="#CMR17-35" transform="translate(150.275122 0) scale(0.996264)"/>
       <use xlink:href="#CMR17-30" transform="translate(195.965599 0) scale(0.996264)"/>
      </g>
     </g>
    </g>
    <g id="xtick_4">
     <g id="line2d_7">
      <g>
       <use xlink:href="#m89cac87a8d" x="160.950734" y="188.314587" style="stroke: #000000; stroke-width: 1.2"/>
      </g>
     </g>
     <g id="line2d_8">
      <g>
       <use xlink:href="#m8f523297a2" x="160.950734" y="7.2" style="stroke: #000000; stroke-width: 1.2"/>
      </g>
     </g>
     <g id="text_4">
      <!-- $\mathdefault{−0.25}$ -->
      <g transform="translate(148.220655 198.733085) scale(0.1 -0.1)">
       <defs>
        <path id="CMR17-32" d="M 2669 989 
L 2554 989 
C 2490 536 2438 459 2413 420 
C 2381 369 1920 369 1830 369 
L 602 369 
C 832 619 1280 1072 1824 1597 
C 2214 1967 2669 2402 2669 3035 
C 2669 3790 2067 4224 1395 4224 
C 691 4224 262 3604 262 3030 
C 262 2780 448 2748 525 2748 
C 589 2748 781 2787 781 3010 
C 781 3207 614 3264 525 3264 
C 486 3264 448 3258 422 3245 
C 544 3790 915 4058 1306 4058 
C 1862 4058 2227 3617 2227 3035 
C 2227 2479 1901 2000 1536 1584 
L 262 146 
L 262 0 
L 2515 0 
L 2669 989 
z
" transform="scale(0.015625)"/>
       </defs>
       <use xlink:href="#CMSY10-0" transform="scale(0.996264)"/>
       <use xlink:href="#CMR17-30" transform="translate(77.487468 0) scale(0.996264)"/>
       <use xlink:href="#CMMI12-3a" transform="translate(123.177945 0) scale(0.996264)"/>
       <use xlink:href="#CMR17-32" transform="translate(150.275122 0) scale(0.996264)"/>
       <use xlink:href="#CMR17-35" transform="translate(195.965599 0) scale(0.996264)"/>
      </g>
     </g>
    </g>
    <g id="xtick_5">
     <g id="line2d_9">
      <g>
       <use xlink:href="#m89cac87a8d" x="196.88924" y="188.314587" style="stroke: #000000; stroke-width: 1.2"/>
      </g>
     </g>
     <g id="line2d_10">
      <g>
       <use xlink:href="#m8f523297a2" x="196.88924" y="7.2" style="stroke: #000000; stroke-width: 1.2"/>
      </g>
     </g>
     <g id="text_5">
      <!-- $\mathdefault{0.00}$ -->
      <g transform="translate(188.033533 198.733085) scale(0.1 -0.1)">
       <use xlink:href="#CMR17-30" transform="scale(0.996264)"/>
       <use xlink:href="#CMMI12-3a" transform="translate(45.690477 0) scale(0.996264)"/>
       <use xlink:href="#CMR17-30" transform="translate(72.787654 0) scale(0.996264)"/>
       <use xlink:href="#CMR17-30" transform="translate(118.478131 0) scale(0.996264)"/>
      </g>
     </g>
    </g>
    <g id="xtick_6">
     <g id="line2d_11">
      <g>
       <use xlink:href="#m89cac87a8d" x="232.827746" y="188.314587" style="stroke: #000000; stroke-width: 1.2"/>
      </g>
     </g>
     <g id="line2d_12">
      <g>
       <use xlink:href="#m8f523297a2" x="232.827746" y="7.2" style="stroke: #000000; stroke-width: 1.2"/>
      </g>
     </g>
     <g id="text_6">
      <!-- $\mathdefault{0.25}$ -->
      <g transform="translate(223.972039 198.733085) scale(0.1 -0.1)">
       <use xlink:href="#CMR17-30" transform="scale(0.996264)"/>
       <use xlink:href="#CMMI12-3a" transform="translate(45.690477 0) scale(0.996264)"/>
       <use xlink:href="#CMR17-32" transform="translate(72.787654 0) scale(0.996264)"/>
       <use xlink:href="#CMR17-35" transform="translate(118.478131 0) scale(0.996264)"/>
      </g>
     </g>
    </g>
    <g id="xtick_7">
     <g id="line2d_13">
      <g>
       <use xlink:href="#m89cac87a8d" x="268.766251" y="188.314587" style="stroke: #000000; stroke-width: 1.2"/>
      </g>
     </g>
     <g id="line2d_14">
      <g>
       <use xlink:href="#m8f523297a2" x="268.766251" y="7.2" style="stroke: #000000; stroke-width: 1.2"/>
      </g>
     </g>
     <g id="text_7">
      <!-- $\mathdefault{0.50}$ -->
      <g transform="translate(259.910544 198.733085) scale(0.1 -0.1)">
       <use xlink:href="#CMR17-30" transform="scale(0.996264)"/>
       <use xlink:href="#CMMI12-3a" transform="translate(45.690477 0) scale(0.996264)"/>
       <use xlink:href="#CMR17-35" transform="translate(72.787654 0) scale(0.996264)"/>
       <use xlink:href="#CMR17-30" transform="translate(118.478131 0) scale(0.996264)"/>
      </g>
     </g>
    </g>
    <g id="xtick_8">
     <g id="line2d_15">
      <g>
       <use xlink:href="#m89cac87a8d" x="304.704757" y="188.314587" style="stroke: #000000; stroke-width: 1.2"/>
      </g>
     </g>
     <g id="line2d_16">
      <g>
       <use xlink:href="#m8f523297a2" x="304.704757" y="7.2" style="stroke: #000000; stroke-width: 1.2"/>
      </g>
     </g>
     <g id="text_8">
      <!-- $\mathdefault{0.75}$ -->
      <g transform="translate(295.84905 198.733085) scale(0.1 -0.1)">
       <use xlink:href="#CMR17-30" transform="scale(0.996264)"/>
       <use xlink:href="#CMMI12-3a" transform="translate(45.690477 0) scale(0.996264)"/>
       <use xlink:href="#CMR17-37" transform="translate(72.787654 0) scale(0.996264)"/>
       <use xlink:href="#CMR17-35" transform="translate(118.478131 0) scale(0.996264)"/>
      </g>
     </g>
    </g>
    <g id="xtick_9">
     <g id="line2d_17">
      <g>
       <use xlink:href="#m89cac87a8d" x="340.643263" y="188.314587" style="stroke: #000000; stroke-width: 1.2"/>
      </g>
     </g>
     <g id="line2d_18">
      <g>
       <use xlink:href="#m8f523297a2" x="340.643263" y="7.2" style="stroke: #000000; stroke-width: 1.2"/>
      </g>
     </g>
     <g id="text_9">
      <!-- $\mathdefault{1.00}$ -->
      <g transform="translate(331.787555 198.733085) scale(0.1 -0.1)">
       <use xlink:href="#CMR17-31" transform="scale(0.996264)"/>
       <use xlink:href="#CMMI12-3a" transform="translate(45.690477 0) scale(0.996264)"/>
       <use xlink:href="#CMR17-30" transform="translate(72.787654 0) scale(0.996264)"/>
       <use xlink:href="#CMR17-30" transform="translate(118.478131 0) scale(0.996264)"/>
      </g>
     </g>
    </g>
    <g id="xtick_10">
     <g id="line2d_19">
      <defs>
       <path id="m998a8987dd" d="M 0 0 
L 0 -2.5 
" style="stroke: #000000; stroke-width: 0.8"/>
      </defs>
      <g>
       <use xlink:href="#m998a8987dd" x="38.759815" y="188.314587" style="stroke: #000000; stroke-width: 0.8"/>
      </g>
     </g>
     <g id="line2d_20">
      <defs>
       <path id="mc438dc9449" d="M 0 0 
L 0 2.5 
" style="stroke: #000000; stroke-width: 0.8"/>
      </defs>
      <g>
       <use xlink:href="#mc438dc9449" x="38.759815" y="7.2" style="stroke: #000000; stroke-width: 0.8"/>
      </g>
     </g>
    </g>
    <g id="xtick_11">
     <g id="line2d_21">
      <g>
       <use xlink:href="#m998a8987dd" x="45.947516" y="188.314587" style="stroke: #000000; stroke-width: 0.8"/>
      </g>
     </g>
     <g id="line2d_22">
      <g>
       <use xlink:href="#mc438dc9449" x="45.947516" y="7.2" style="stroke: #000000; stroke-width: 0.8"/>
      </g>
     </g>
    </g>
    <g id="xtick_12">
     <g id="line2d_23">
      <g>
       <use xlink:href="#m998a8987dd" x="60.322919" y="188.314587" style="stroke: #000000; stroke-width: 0.8"/>
      </g>
     </g>
     <g id="line2d_24">
      <g>
       <use xlink:href="#mc438dc9449" x="60.322919" y="7.2" style="stroke: #000000; stroke-width: 0.8"/>
      </g>
     </g>
    </g>
    <g id="xtick_13">
     <g id="line2d_25">
      <g>
       <use xlink:href="#m998a8987dd" x="67.51062" y="188.314587" style="stroke: #000000; stroke-width: 0.8"/>
      </g>
     </g>
     <g id="line2d_26">
      <g>
       <use xlink:href="#mc438dc9449" x="67.51062" y="7.2" style="stroke: #000000; stroke-width: 0.8"/>
      </g>
     </g>
    </g>
    <g id="xtick_14">
     <g id="line2d_27">
      <g>
       <use xlink:href="#m998a8987dd" x="74.698321" y="188.314587" style="stroke: #000000; stroke-width: 0.8"/>
      </g>
     </g>
     <g id="line2d_28">
      <g>
       <use xlink:href="#mc438dc9449" x="74.698321" y="7.2" style="stroke: #000000; stroke-width: 0.8"/>
      </g>
     </g>
    </g>
    <g id="xtick_15">
     <g id="line2d_29">
      <g>
       <use xlink:href="#m998a8987dd" x="81.886022" y="188.314587" style="stroke: #000000; stroke-width: 0.8"/>
      </g>
     </g>
     <g id="line2d_30">
      <g>
       <use xlink:href="#mc438dc9449" x="81.886022" y="7.2" style="stroke: #000000; stroke-width: 0.8"/>
      </g>
     </g>
    </g>
    <g id="xtick_16">
     <g id="line2d_31">
      <g>
       <use xlink:href="#m998a8987dd" x="96.261424" y="188.314587" style="stroke: #000000; stroke-width: 0.8"/>
      </g>
     </g>
     <g id="line2d_32">
      <g>
       <use xlink:href="#mc438dc9449" x="96.261424" y="7.2" style="stroke: #000000; stroke-width: 0.8"/>
      </g>
     </g>
    </g>
    <g id="xtick_17">
     <g id="line2d_33">
      <g>
       <use xlink:href="#m998a8987dd" x="103.449125" y="188.314587" style="stroke: #000000; stroke-width: 0.8"/>
      </g>
     </g>
     <g id="line2d_34">
      <g>
       <use xlink:href="#mc438dc9449" x="103.449125" y="7.2" style="stroke: #000000; stroke-width: 0.8"/>
      </g>
     </g>
    </g>
    <g id="xtick_18">
     <g id="line2d_35">
      <g>
       <use xlink:href="#m998a8987dd" x="110.636827" y="188.314587" style="stroke: #000000; stroke-width: 0.8"/>
      </g>
     </g>
     <g id="line2d_36">
      <g>
       <use xlink:href="#mc438dc9449" x="110.636827" y="7.2" style="stroke: #000000; stroke-width: 0.8"/>
      </g>
     </g>
    </g>
    <g id="xtick_19">
     <g id="line2d_37">
      <g>
       <use xlink:href="#m998a8987dd" x="117.824528" y="188.314587" style="stroke: #000000; stroke-width: 0.8"/>
      </g>
     </g>
     <g id="line2d_38">
      <g>
       <use xlink:href="#mc438dc9449" x="117.824528" y="7.2" style="stroke: #000000; stroke-width: 0.8"/>
      </g>
     </g>
    </g>
    <g id="xtick_20">
     <g id="line2d_39">
      <g>
       <use xlink:href="#m998a8987dd" x="132.19993" y="188.314587" style="stroke: #000000; stroke-width: 0.8"/>
      </g>
     </g>
     <g id="line2d_40">
      <g>
       <use xlink:href="#mc438dc9449" x="132.19993" y="7.2" style="stroke: #000000; stroke-width: 0.8"/>
      </g>
     </g>
    </g>
    <g id="xtick_21">
     <g id="line2d_41">
      <g>
       <use xlink:href="#m998a8987dd" x="139.387631" y="188.314587" style="stroke: #000000; stroke-width: 0.8"/>
      </g>
     </g>
     <g id="line2d_42">
      <g>
       <use xlink:href="#mc438dc9449" x="139.387631" y="7.2" style="stroke: #000000; stroke-width: 0.8"/>
      </g>
     </g>
    </g>
    <g id="xtick_22">
     <g id="line2d_43">
      <g>
       <use xlink:href="#m998a8987dd" x="146.575332" y="188.314587" style="stroke: #000000; stroke-width: 0.8"/>
      </g>
     </g>
     <g id="line2d_44">
      <g>
       <use xlink:href="#mc438dc9449" x="146.575332" y="7.2" style="stroke: #000000; stroke-width: 0.8"/>
      </g>
     </g>
    </g>
    <g id="xtick_23">
     <g id="line2d_45">
      <g>
       <use xlink:href="#m998a8987dd" x="153.763033" y="188.314587" style="stroke: #000000; stroke-width: 0.8"/>
      </g>
     </g>
     <g id="line2d_46">
      <g>
       <use xlink:href="#mc438dc9449" x="153.763033" y="7.2" style="stroke: #000000; stroke-width: 0.8"/>
      </g>
     </g>
    </g>
    <g id="xtick_24">
     <g id="line2d_47">
      <g>
       <use xlink:href="#m998a8987dd" x="168.138436" y="188.314587" style="stroke: #000000; stroke-width: 0.8"/>
      </g>
     </g>
     <g id="line2d_48">
      <g>
       <use xlink:href="#mc438dc9449" x="168.138436" y="7.2" style="stroke: #000000; stroke-width: 0.8"/>
      </g>
     </g>
    </g>
    <g id="xtick_25">
     <g id="line2d_49">
      <g>
       <use xlink:href="#m998a8987dd" x="175.326137" y="188.314587" style="stroke: #000000; stroke-width: 0.8"/>
      </g>
     </g>
     <g id="line2d_50">
      <g>
       <use xlink:href="#mc438dc9449" x="175.326137" y="7.2" style="stroke: #000000; stroke-width: 0.8"/>
      </g>
     </g>
    </g>
    <g id="xtick_26">
     <g id="line2d_51">
      <g>
       <use xlink:href="#m998a8987dd" x="182.513838" y="188.314587" style="stroke: #000000; stroke-width: 0.8"/>
      </g>
     </g>
     <g id="line2d_52">
      <g>
       <use xlink:href="#mc438dc9449" x="182.513838" y="7.2" style="stroke: #000000; stroke-width: 0.8"/>
      </g>
     </g>
    </g>
    <g id="xtick_27">
     <g id="line2d_53">
      <g>
       <use xlink:href="#m998a8987dd" x="189.701539" y="188.314587" style="stroke: #000000; stroke-width: 0.8"/>
      </g>
     </g>
     <g id="line2d_54">
      <g>
       <use xlink:href="#mc438dc9449" x="189.701539" y="7.2" style="stroke: #000000; stroke-width: 0.8"/>
      </g>
     </g>
    </g>
    <g id="xtick_28">
     <g id="line2d_55">
      <g>
       <use xlink:href="#m998a8987dd" x="204.076941" y="188.314587" style="stroke: #000000; stroke-width: 0.8"/>
      </g>
     </g>
     <g id="line2d_56">
      <g>
       <use xlink:href="#mc438dc9449" x="204.076941" y="7.2" style="stroke: #000000; stroke-width: 0.8"/>
      </g>
     </g>
    </g>
    <g id="xtick_29">
     <g id="line2d_57">
      <g>
       <use xlink:href="#m998a8987dd" x="211.264642" y="188.314587" style="stroke: #000000; stroke-width: 0.8"/>
      </g>
     </g>
     <g id="line2d_58">
      <g>
       <use xlink:href="#mc438dc9449" x="211.264642" y="7.2" style="stroke: #000000; stroke-width: 0.8"/>
      </g>
     </g>
    </g>
    <g id="xtick_30">
     <g id="line2d_59">
      <g>
       <use xlink:href="#m998a8987dd" x="218.452343" y="188.314587" style="stroke: #000000; stroke-width: 0.8"/>
      </g>
     </g>
     <g id="line2d_60">
      <g>
       <use xlink:href="#mc438dc9449" x="218.452343" y="7.2" style="stroke: #000000; stroke-width: 0.8"/>
      </g>
     </g>
    </g>
    <g id="xtick_31">
     <g id="line2d_61">
      <g>
       <use xlink:href="#m998a8987dd" x="225.640045" y="188.314587" style="stroke: #000000; stroke-width: 0.8"/>
      </g>
     </g>
     <g id="line2d_62">
      <g>
       <use xlink:href="#mc438dc9449" x="225.640045" y="7.2" style="stroke: #000000; stroke-width: 0.8"/>
      </g>
     </g>
    </g>
    <g id="xtick_32">
     <g id="line2d_63">
      <g>
       <use xlink:href="#m998a8987dd" x="240.015447" y="188.314587" style="stroke: #000000; stroke-width: 0.8"/>
      </g>
     </g>
     <g id="line2d_64">
      <g>
       <use xlink:href="#mc438dc9449" x="240.015447" y="7.2" style="stroke: #000000; stroke-width: 0.8"/>
      </g>
     </g>
    </g>
    <g id="xtick_33">
     <g id="line2d_65">
      <g>
       <use xlink:href="#m998a8987dd" x="247.203148" y="188.314587" style="stroke: #000000; stroke-width: 0.8"/>
      </g>
     </g>
     <g id="line2d_66">
      <g>
       <use xlink:href="#mc438dc9449" x="247.203148" y="7.2" style="stroke: #000000; stroke-width: 0.8"/>
      </g>
     </g>
    </g>
    <g id="xtick_34">
     <g id="line2d_67">
      <g>
       <use xlink:href="#m998a8987dd" x="254.390849" y="188.314587" style="stroke: #000000; stroke-width: 0.8"/>
      </g>
     </g>
     <g id="line2d_68">
      <g>
       <use xlink:href="#mc438dc9449" x="254.390849" y="7.2" style="stroke: #000000; stroke-width: 0.8"/>
      </g>
     </g>
    </g>
    <g id="xtick_35">
     <g id="line2d_69">
      <g>
       <use xlink:href="#m998a8987dd" x="261.57855" y="188.314587" style="stroke: #000000; stroke-width: 0.8"/>
      </g>
     </g>
     <g id="line2d_70">
      <g>
       <use xlink:href="#mc438dc9449" x="261.57855" y="7.2" style="stroke: #000000; stroke-width: 0.8"/>
      </g>
     </g>
    </g>
    <g id="xtick_36">
     <g id="line2d_71">
      <g>
       <use xlink:href="#m998a8987dd" x="275.953952" y="188.314587" style="stroke: #000000; stroke-width: 0.8"/>
      </g>
     </g>
     <g id="line2d_72">
      <g>
       <use xlink:href="#mc438dc9449" x="275.953952" y="7.2" style="stroke: #000000; stroke-width: 0.8"/>
      </g>
     </g>
    </g>
    <g id="xtick_37">
     <g id="line2d_73">
      <g>
       <use xlink:href="#m998a8987dd" x="283.141654" y="188.314587" style="stroke: #000000; stroke-width: 0.8"/>
      </g>
     </g>
     <g id="line2d_74">
      <g>
       <use xlink:href="#mc438dc9449" x="283.141654" y="7.2" style="stroke: #000000; stroke-width: 0.8"/>
      </g>
     </g>
    </g>
    <g id="xtick_38">
     <g id="line2d_75">
      <g>
       <use xlink:href="#m998a8987dd" x="290.329355" y="188.314587" style="stroke: #000000; stroke-width: 0.8"/>
      </g>
     </g>
     <g id="line2d_76">
      <g>
       <use xlink:href="#mc438dc9449" x="290.329355" y="7.2" style="stroke: #000000; stroke-width: 0.8"/>
      </g>
     </g>
    </g>
    <g id="xtick_39">
     <g id="line2d_77">
      <g>
       <use xlink:href="#m998a8987dd" x="297.517056" y="188.314587" style="stroke: #000000; stroke-width: 0.8"/>
      </g>
     </g>
     <g id="line2d_78">
      <g>
       <use xlink:href="#mc438dc9449" x="297.517056" y="7.2" style="stroke: #000000; stroke-width: 0.8"/>
      </g>
     </g>
    </g>
    <g id="xtick_40">
     <g id="line2d_79">
      <g>
       <use xlink:href="#m998a8987dd" x="311.892458" y="188.314587" style="stroke: #000000; stroke-width: 0.8"/>
      </g>
     </g>
     <g id="line2d_80">
      <g>
       <use xlink:href="#mc438dc9449" x="311.892458" y="7.2" style="stroke: #000000; stroke-width: 0.8"/>
      </g>
     </g>
    </g>
    <g id="xtick_41">
     <g id="line2d_81">
      <g>
       <use xlink:href="#m998a8987dd" x="319.080159" y="188.314587" style="stroke: #000000; stroke-width: 0.8"/>
      </g>
     </g>
     <g id="line2d_82">
      <g>
       <use xlink:href="#mc438dc9449" x="319.080159" y="7.2" style="stroke: #000000; stroke-width: 0.8"/>
      </g>
     </g>
    </g>
    <g id="xtick_42">
     <g id="line2d_83">
      <g>
       <use xlink:href="#m998a8987dd" x="326.26786" y="188.314587" style="stroke: #000000; stroke-width: 0.8"/>
      </g>
     </g>
     <g id="line2d_84">
      <g>
       <use xlink:href="#mc438dc9449" x="326.26786" y="7.2" style="stroke: #000000; stroke-width: 0.8"/>
      </g>
     </g>
    </g>
    <g id="xtick_43">
     <g id="line2d_85">
      <g>
       <use xlink:href="#m998a8987dd" x="333.455561" y="188.314587" style="stroke: #000000; stroke-width: 0.8"/>
      </g>
     </g>
     <g id="line2d_86">
      <g>
       <use xlink:href="#mc438dc9449" x="333.455561" y="7.2" style="stroke: #000000; stroke-width: 0.8"/>
      </g>
     </g>
    </g>
    <g id="xtick_44">
     <g id="line2d_87">
      <g>
       <use xlink:href="#m998a8987dd" x="347.830964" y="188.314587" style="stroke: #000000; stroke-width: 0.8"/>
      </g>
     </g>
     <g id="line2d_88">
      <g>
       <use xlink:href="#mc438dc9449" x="347.830964" y="7.2" style="stroke: #000000; stroke-width: 0.8"/>
      </g>
     </g>
    </g>
    <g id="xtick_45">
     <g id="line2d_89">
      <g>
       <use xlink:href="#m998a8987dd" x="355.018665" y="188.314587" style="stroke: #000000; stroke-width: 0.8"/>
      </g>
     </g>
     <g id="line2d_90">
      <g>
       <use xlink:href="#mc438dc9449" x="355.018665" y="7.2" style="stroke: #000000; stroke-width: 0.8"/>
      </g>
     </g>
    </g>
    <g id="text_10">
     <!-- Missing Energy ($\text{{GeV}}^2$) -->
     <g transform="translate(145.636894 213.50934) scale(0.1 -0.1)">
      <defs>
       <path id="CMR17-4d" d="M 1338 4224 
C 1299 4320 1293 4320 1158 4320 
L 339 4320 
L 339 4160 
C 781 4160 851 4160 851 3875 
L 851 610 
C 851 451 851 153 339 153 
L 339 -13 
C 486 0 755 0 915 0 
C 1075 0 1344 0 1491 -13 
L 1491 153 
C 979 153 979 451 979 610 
L 979 4135 
L 986 4135 
L 2490 89 
C 2515 25 2528 -13 2579 -13 
C 2630 -13 2643 25 2669 89 
L 4186 4166 
L 4192 4166 
L 4192 438 
C 4192 153 4122 153 3680 153 
L 3680 -13 
C 3853 0 4198 0 4384 0 
C 4570 0 4922 0 5094 -13 
L 5094 153 
C 4653 153 4582 153 4582 438 
L 4582 3875 
C 4582 4160 4653 4160 5094 4160 
L 5094 4320 
L 4282 4320 
C 4147 4320 4141 4314 4102 4218 
L 2720 502 
L 1338 4224 
z
" transform="scale(0.015625)"/>
       <path id="CMR17-69" d="M 992 3909 
C 992 4049 877 4170 730 4170 
C 589 4170 467 4056 467 3909 
C 467 3769 582 3648 730 3648 
C 870 3648 992 3763 992 3909 
z
M 243 2706 
L 243 2541 
C 602 2541 653 2502 653 2197 
L 653 427 
C 653 184 627 153 218 153 
L 218 -13 
C 371 0 646 0 806 0 
C 960 0 1222 0 1370 -13 
L 1370 153 
C 992 153 979 191 979 420 
L 979 2776 
L 243 2706 
z
" transform="scale(0.015625)"/>
       <path id="CMR17-73" d="M 1978 2697 
C 1978 2813 1971 2819 1933 2819 
C 1907 2819 1901 2813 1824 2717 
C 1805 2691 1747 2626 1728 2601 
C 1523 2819 1235 2819 1126 2819 
C 416 2819 160 2447 160 2076 
C 160 1498 813 1365 998 1325 
C 1402 1243 1542 1217 1677 1101 
C 1760 1025 1901 884 1901 654 
C 1901 384 1747 38 1158 38 
C 602 38 403 460 288 1021 
C 269 1110 269 1117 218 1117 
C 166 1117 160 1110 160 983 
L 160 63 
C 160 -51 166 -58 205 -58 
C 237 -58 243 -51 275 0 
C 314 57 410 211 448 276 
C 576 103 800 -64 1158 -64 
C 1792 -64 2131 283 2131 784 
C 2131 1112 1958 1285 1875 1362 
C 1683 1561 1459 1606 1190 1657 
C 838 1735 390 1825 390 2217 
C 390 2383 480 2737 1126 2737 
C 1811 2737 1850 2094 1862 1888 
C 1869 1856 1901 1849 1920 1849 
C 1978 1849 1978 1869 1978 1978 
L 1978 2697 
z
" transform="scale(0.015625)"/>
       <path id="CMR17-6e" d="M 2656 1933 
C 2656 2259 2592 2790 1837 2790 
C 1331 2790 1069 2400 973 2144 
L 966 2144 
L 966 2790 
L 211 2720 
L 211 2554 
C 589 2554 646 2515 646 2208 
L 646 428 
C 646 184 621 153 211 153 
L 211 -13 
C 365 0 646 0 813 0 
C 979 0 1267 0 1421 -13 
L 1421 153 
C 1011 153 986 178 986 428 
L 986 1658 
C 986 2247 1344 2688 1792 2688 
C 2266 2688 2317 2266 2317 1958 
L 2317 428 
C 2317 184 2291 153 1882 153 
L 1882 -13 
C 2035 0 2317 0 2483 0 
C 2650 0 2938 0 3091 -13 
L 3091 153 
C 2682 153 2656 178 2656 428 
L 2656 1933 
z
" transform="scale(0.015625)"/>
       <path id="CMR17-67" d="M 710 1164 
C 832 1068 1043 960 1299 960 
C 1805 960 2240 1357 2240 1888 
C 2240 2054 2189 2310 1997 2509 
C 2176 2692 2438 2752 2586 2752 
C 2611 2752 2650 2752 2682 2734 
C 2656 2728 2598 2703 2598 2605 
C 2598 2527 2656 2471 2739 2471 
C 2835 2471 2886 2533 2886 2614 
C 2886 2731 2790 2854 2586 2854 
C 2330 2854 2106 2738 1926 2580 
C 1734 2753 1504 2816 1299 2816 
C 794 2816 358 2419 358 1888 
C 358 1522 570 1292 634 1228 
C 442 1004 442 743 442 711 
C 442 545 506 302 723 168 
C 390 85 128 -169 128 -486 
C 128 -943 736 -1280 1466 -1280 
C 2170 -1280 2803 -956 2803 -479 
C 2803 384 1856 384 1363 384 
C 1216 384 954 384 922 391 
C 723 423 589 602 589 826 
C 589 883 589 1024 710 1164 
z
M 1299 1068 
C 736 1068 736 1760 736 1889 
C 736 2016 736 2708 1299 2708 
C 1862 2708 1862 2016 1862 1889 
C 1862 1760 1862 1068 1299 1068 
z
M 1466 -1171 
C 826 -1171 384 -835 384 -486 
C 384 -289 493 -105 634 -4 
C 794 104 858 104 1293 104 
C 1818 104 2547 104 2547 -486 
C 2547 -835 2106 -1171 1466 -1171 
z
" transform="scale(0.015625)"/>
       <path id="CMR17-45" d="M 3885 1615 
L 3770 1615 
C 3629 676 3546 166 2419 166 
L 1530 166 
C 1274 166 1261 197 1261 414 
L 1261 2176 
L 1862 2176 
C 2464 2176 2522 1960 2522 1430 
L 2637 1430 
L 2637 3081 
L 2522 3081 
C 2522 2557 2464 2342 1862 2342 
L 1261 2342 
L 1261 3913 
C 1261 4128 1274 4160 1530 4160 
L 2406 4160 
C 3398 4160 3514 3769 3603 2929 
L 3718 2929 
L 3565 4325 
L 326 4325 
L 326 4160 
C 768 4160 838 4160 838 3874 
L 838 451 
C 838 166 768 166 326 166 
L 326 0 
L 3654 0 
L 3885 1615 
z
" transform="scale(0.015625)"/>
       <path id="CMR17-65" d="M 2438 1472 
C 2464 1498 2464 1511 2464 1576 
C 2464 2238 2118 2816 1389 2816 
C 710 2816 173 2169 173 1383 
C 173 551 781 -64 1459 -64 
C 2176 -64 2458 607 2458 740 
C 2458 784 2419 784 2406 784 
C 2362 784 2355 771 2330 696 
C 2189 265 1837 51 1504 51 
C 1229 51 954 203 781 480 
C 582 803 582 1176 582 1472 
L 2438 1472 
z
M 589 1568 
C 634 2505 1126 2714 1382 2714 
C 1818 2714 2112 2297 2118 1568 
L 589 1568 
z
" transform="scale(0.015625)"/>
       <path id="CMR17-72" d="M 960 1497 
C 960 2112 1222 2688 1702 2688 
C 1747 2688 1792 2682 1837 2662 
C 1837 2662 1696 2617 1696 2452 
C 1696 2298 1818 2234 1914 2234 
C 1990 2234 2131 2279 2131 2458 
C 2131 2663 1926 2790 1709 2790 
C 1222 2790 1011 2317 947 2093 
L 941 2093 
L 941 2790 
L 198 2720 
L 198 2554 
C 576 2554 634 2515 634 2208 
L 634 428 
C 634 184 608 153 198 153 
L 198 -13 
C 352 0 646 0 813 0 
C 998 0 1325 0 1498 -13 
L 1498 153 
C 1037 153 960 153 960 440 
L 960 1497 
z
" transform="scale(0.015625)"/>
       <path id="CMR17-79" d="M 2496 2197 
C 2656 2586 2944 2586 3034 2586 
L 3034 2752 
C 2912 2752 2752 2752 2630 2752 
C 2496 2752 2285 2752 2157 2758 
L 2157 2592 
C 2400 2573 2406 2394 2406 2343 
C 2406 2280 2394 2248 2362 2171 
L 1664 449 
L 902 2306 
C 870 2382 870 2426 870 2433 
C 870 2573 1018 2586 1171 2586 
L 1171 2758 
C 1018 2752 742 2752 582 2752 
C 410 2752 205 2752 64 2758 
L 64 2586 
C 410 2586 448 2554 531 2350 
L 1485 15 
C 1197 -738 1030 -1178 627 -1178 
C 557 -1178 397 -1159 282 -1044 
C 429 -1031 493 -942 493 -833 
C 493 -725 416 -629 288 -629 
C 147 -629 77 -725 77 -840 
C 77 -1095 339 -1280 627 -1280 
C 998 -1280 1229 -922 1357 -604 
L 2496 2197 
z
" transform="scale(0.015625)"/>
       <path id="CMR17-28" d="M 1958 -1561 
C 1958 -1555 1958 -1542 1939 -1523 
C 1645 -1224 858 -407 858 1581 
C 858 3569 1632 4379 1946 4697 
C 1946 4704 1958 4717 1958 4736 
C 1958 4755 1939 4768 1914 4768 
C 1843 4768 1299 4296 986 3594 
C 666 2887 576 2199 576 1588 
C 576 1128 621 351 1005 -471 
C 1312 -1135 1837 -1600 1914 -1600 
C 1946 -1600 1958 -1587 1958 -1561 
z
" transform="scale(0.015625)"/>
       <path id="CMR17-47" d="M 3974 1233 
C 3974 1473 3994 1505 4390 1505 
L 4390 1670 
C 4237 1664 3891 1664 3718 1664 
C 3539 1664 3040 1664 2797 1664 
L 2797 1505 
L 2989 1505 
C 3539 1505 3552 1434 3552 1201 
L 3552 774 
C 3552 63 2720 63 2522 63 
C 1862 63 781 511 781 2160 
C 781 3808 1843 4250 2464 4250 
C 3187 4250 3712 3626 3834 2741 
C 3846 2664 3846 2651 3904 2651 
C 3974 2651 3974 2664 3974 2779 
L 3974 4288 
C 3974 4402 3968 4409 3930 4409 
C 3904 4409 3898 4402 3853 4326 
L 3571 3791 
C 3258 4187 2874 4416 2381 4416 
C 1286 4416 294 3456 294 2148 
C 294 845 1267 -128 2394 -128 
C 2912 -128 3418 56 3616 417 
C 3725 158 3904 -20 3936 -20 
C 3968 -20 3974 -13 3974 100 
L 3974 1233 
z
" transform="scale(0.015625)"/>
       <path id="CMR17-56" d="M 3776 3745 
C 3834 3886 3936 4160 4365 4160 
L 4365 4332 
C 4218 4319 4051 4319 3891 4319 
C 3738 4319 3475 4319 3328 4332 
L 3328 4160 
C 3648 4160 3661 3936 3661 3898 
C 3661 3827 3642 3783 3622 3732 
L 2362 446 
L 1043 3886 
C 1024 3931 1011 3963 1011 3994 
C 1011 4160 1267 4160 1402 4160 
L 1402 4319 
C 1197 4319 896 4319 685 4319 
C 518 4319 218 4319 64 4332 
L 64 4160 
C 435 4160 506 4135 582 3931 
L 2106 -26 
C 2138 -115 2144 -128 2214 -128 
C 2285 -128 2291 -115 2323 -26 
L 3776 3745 
z
" transform="scale(0.015625)"/>
       <path id="CMR17-29" d="M 1683 1581 
C 1683 2040 1638 2817 1254 3639 
C 947 4303 422 4768 346 4768 
C 326 4768 301 4761 301 4729 
C 301 4717 307 4710 314 4697 
C 621 4378 1402 3568 1402 1584 
C 1402 -407 627 -1217 314 -1537 
C 307 -1549 301 -1556 301 -1568 
C 301 -1600 326 -1600 346 -1600 
C 416 -1600 960 -1128 1274 -426 
C 1594 281 1683 969 1683 1581 
z
" transform="scale(0.015625)"/>
      </defs>
      <use xlink:href="#CMR17-4d" transform="scale(0.996264)"/>
      <use xlink:href="#CMR17-69" transform="translate(84.686941 0) scale(0.996264)"/>
      <use xlink:href="#CMR17-73" transform="translate(109.557999 0) scale(0.996264)"/>
      <use xlink:href="#CMR17-73" transform="translate(145.359337 0) scale(0.996264)"/>
      <use xlink:href="#CMR17-69" transform="translate(181.160674 0) scale(0.996264)"/>
      <use xlink:href="#CMR17-6e" transform="translate(206.031733 0) scale(0.996264)"/>
      <use xlink:href="#CMR17-67" transform="translate(256.927103 0) scale(0.996264)"/>
      <use xlink:href="#CMR17-45" transform="translate(332.693546 0) scale(0.996264)"/>
      <use xlink:href="#CMR17-6e" transform="translate(395.279847 0) scale(0.996264)"/>
      <use xlink:href="#CMR17-65" transform="translate(446.175216 0) scale(0.996264)"/>
      <use xlink:href="#CMR17-72" transform="translate(486.660877 0) scale(0.996264)"/>
      <use xlink:href="#CMR17-67" transform="translate(521.941645 0) scale(0.996264)"/>
      <use xlink:href="#CMR17-79" transform="translate(567.632122 0) scale(0.996264)"/>
      <use xlink:href="#CMR17-28" transform="translate(646.001004 0) scale(0.996264)"/>
      <use xlink:href="#CMR17-47" transform="translate(681.281772 0) scale(0.996264)"/>
      <use xlink:href="#CMR17-65" transform="translate(753.637118 0) scale(0.996264)"/>
      <use xlink:href="#CMR17-56" transform="translate(794.122778 0) scale(0.996264)"/>
      <use xlink:href="#CMR17-32" transform="translate(863.195208 41.137482) scale(0.697382)"/>
      <use xlink:href="#CMR17-29" transform="translate(895.676522 0) scale(0.996264)"/>
     </g>
    </g>
   </g>
   <g id="matplotlib.axis_2">
    <g id="ytick_1">
     <g id="line2d_91">
      <defs>
       <path id="md6a605d4a3" d="M 0 0 
L 4 0 
" style="stroke: #000000; stroke-width: 1.2"/>
      </defs>
      <g>
       <use xlink:href="#md6a605d4a3" x="38.759815" y="188.314587" style="stroke: #000000; stroke-width: 1.2"/>
      </g>
     </g>
     <g id="line2d_92">
      <defs>
       <path id="mc6e2256192" d="M 0 0 
L -4 0 
" style="stroke: #000000; stroke-width: 1.2"/>
      </defs>
      <g>
       <use xlink:href="#mc6e2256192" x="355.018665" y="188.314587" style="stroke: #000000; stroke-width: 1.2"/>
      </g>
     </g>
     <g id="text_11">
      <!-- $\mathdefault{0.0}$ -->
      <g transform="translate(22.529736 191.773836) scale(0.1 -0.1)">
       <use xlink:href="#CMR17-30" transform="scale(0.996264)"/>
       <use xlink:href="#CMMI12-3a" transform="translate(45.690477 0) scale(0.996264)"/>
       <use xlink:href="#CMR17-30" transform="translate(72.787654 0) scale(0.996264)"/>
      </g>
     </g>
    </g>
    <g id="ytick_2">
     <g id="line2d_93">
      <g>
       <use xlink:href="#md6a605d4a3" x="38.759815" y="167.380002" style="stroke: #000000; stroke-width: 1.2"/>
      </g>
     </g>
     <g id="line2d_94">
      <g>
       <use xlink:href="#mc6e2256192" x="355.018665" y="167.380002" style="stroke: #000000; stroke-width: 1.2"/>
      </g>
     </g>
     <g id="text_12">
      <!-- $\mathdefault{0.2}$ -->
      <g transform="translate(22.529736 170.839251) scale(0.1 -0.1)">
       <use xlink:href="#CMR17-30" transform="scale(0.996264)"/>
       <use xlink:href="#CMMI12-3a" transform="translate(45.690477 0) scale(0.996264)"/>
       <use xlink:href="#CMR17-32" transform="translate(72.787654 0) scale(0.996264)"/>
      </g>
     </g>
    </g>
    <g id="ytick_3">
     <g id="line2d_95">
      <g>
       <use xlink:href="#md6a605d4a3" x="38.759815" y="146.445417" style="stroke: #000000; stroke-width: 1.2"/>
      </g>
     </g>
     <g id="line2d_96">
      <g>
       <use xlink:href="#mc6e2256192" x="355.018665" y="146.445417" style="stroke: #000000; stroke-width: 1.2"/>
      </g>
     </g>
     <g id="text_13">
      <!-- $\mathdefault{0.4}$ -->
      <g transform="translate(22.529736 149.904666) scale(0.1 -0.1)">
       <defs>
        <path id="CMR17-34" d="M 2150 4122 
C 2150 4256 2144 4256 2029 4256 
L 128 1254 
L 128 1088 
L 1779 1088 
L 1779 457 
C 1779 224 1766 160 1318 160 
L 1197 160 
L 1197 0 
C 1402 0 1747 0 1965 0 
C 2182 0 2528 0 2733 0 
L 2733 160 
L 2611 160 
C 2163 160 2150 224 2150 457 
L 2150 1088 
L 2803 1088 
L 2803 1254 
L 2150 1254 
L 2150 4122 
z
M 1798 3703 
L 1798 1254 
L 256 1254 
L 1798 3703 
z
" transform="scale(0.015625)"/>
       </defs>
       <use xlink:href="#CMR17-30" transform="scale(0.996264)"/>
       <use xlink:href="#CMMI12-3a" transform="translate(45.690477 0) scale(0.996264)"/>
       <use xlink:href="#CMR17-34" transform="translate(72.787654 0) scale(0.996264)"/>
      </g>
     </g>
    </g>
    <g id="ytick_4">
     <g id="line2d_97">
      <g>
       <use xlink:href="#md6a605d4a3" x="38.759815" y="125.510832" style="stroke: #000000; stroke-width: 1.2"/>
      </g>
     </g>
     <g id="line2d_98">
      <g>
       <use xlink:href="#mc6e2256192" x="355.018665" y="125.510832" style="stroke: #000000; stroke-width: 1.2"/>
      </g>
     </g>
     <g id="text_14">
      <!-- $\mathdefault{0.6}$ -->
      <g transform="translate(22.529736 128.970081) scale(0.1 -0.1)">
       <defs>
        <path id="CMR17-36" d="M 678 2176 
C 678 3690 1395 4032 1811 4032 
C 1946 4032 2272 4009 2400 3776 
C 2298 3776 2106 3776 2106 3553 
C 2106 3381 2246 3323 2336 3323 
C 2394 3323 2566 3348 2566 3560 
C 2566 3954 2246 4179 1805 4179 
C 1043 4179 243 3390 243 1984 
C 243 253 966 -128 1478 -128 
C 2099 -128 2688 427 2688 1283 
C 2688 2081 2170 2662 1517 2662 
C 1126 2662 838 2407 678 1960 
L 678 2176 
z
M 1478 25 
C 691 25 691 1200 691 1436 
C 691 1896 909 2560 1504 2560 
C 1613 2560 1926 2560 2138 2120 
C 2253 1870 2253 1609 2253 1289 
C 2253 944 2253 690 2118 434 
C 1978 171 1773 25 1478 25 
z
" transform="scale(0.015625)"/>
       </defs>
       <use xlink:href="#CMR17-30" transform="scale(0.996264)"/>
       <use xlink:href="#CMMI12-3a" transform="translate(45.690477 0) scale(0.996264)"/>
       <use xlink:href="#CMR17-36" transform="translate(72.787654 0) scale(0.996264)"/>
      </g>
     </g>
    </g>
    <g id="ytick_5">
     <g id="line2d_99">
      <g>
       <use xlink:href="#md6a605d4a3" x="38.759815" y="104.576247" style="stroke: #000000; stroke-width: 1.2"/>
      </g>
     </g>
     <g id="line2d_100">
      <g>
       <use xlink:href="#mc6e2256192" x="355.018665" y="104.576247" style="stroke: #000000; stroke-width: 1.2"/>
      </g>
     </g>
     <g id="text_15">
      <!-- $\mathdefault{0.8}$ -->
      <g transform="translate(22.529736 108.035496) scale(0.1 -0.1)">
       <defs>
        <path id="CMR17-38" d="M 1741 2264 
C 2144 2467 2554 2773 2554 3263 
C 2554 3841 1990 4179 1472 4179 
C 890 4179 378 3759 378 3180 
C 378 3021 416 2747 666 2505 
C 730 2442 998 2251 1171 2130 
C 883 1983 211 1634 211 934 
C 211 279 838 -128 1459 -128 
C 2144 -128 2720 362 2720 1010 
C 2720 1590 2330 1857 2074 2029 
L 1741 2264 
z
M 902 2822 
C 851 2854 595 3051 595 3351 
C 595 3739 998 4032 1459 4032 
C 1965 4032 2336 3676 2336 3262 
C 2336 2669 1670 2331 1638 2331 
C 1632 2331 1626 2331 1574 2370 
L 902 2822 
z
M 2080 1519 
C 2176 1449 2483 1240 2483 851 
C 2483 381 2010 25 1472 25 
C 890 25 448 438 448 940 
C 448 1443 838 1862 1280 2060 
L 2080 1519 
z
" transform="scale(0.015625)"/>
       </defs>
       <use xlink:href="#CMR17-30" transform="scale(0.996264)"/>
       <use xlink:href="#CMMI12-3a" transform="translate(45.690477 0) scale(0.996264)"/>
       <use xlink:href="#CMR17-38" transform="translate(72.787654 0) scale(0.996264)"/>
      </g>
     </g>
    </g>
    <g id="ytick_6">
     <g id="line2d_101">
      <g>
       <use xlink:href="#md6a605d4a3" x="38.759815" y="83.641662" style="stroke: #000000; stroke-width: 1.2"/>
      </g>
     </g>
     <g id="line2d_102">
      <g>
       <use xlink:href="#mc6e2256192" x="355.018665" y="83.641662" style="stroke: #000000; stroke-width: 1.2"/>
      </g>
     </g>
     <g id="text_16">
      <!-- $\mathdefault{1.0}$ -->
      <g transform="translate(22.529736 87.100911) scale(0.1 -0.1)">
       <use xlink:href="#CMR17-31" transform="scale(0.996264)"/>
       <use xlink:href="#CMMI12-3a" transform="translate(45.690477 0) scale(0.996264)"/>
       <use xlink:href="#CMR17-30" transform="translate(72.787654 0) scale(0.996264)"/>
      </g>
     </g>
    </g>
    <g id="ytick_7">
     <g id="line2d_103">
      <g>
       <use xlink:href="#md6a605d4a3" x="38.759815" y="62.707077" style="stroke: #000000; stroke-width: 1.2"/>
      </g>
     </g>
     <g id="line2d_104">
      <g>
       <use xlink:href="#mc6e2256192" x="355.018665" y="62.707077" style="stroke: #000000; stroke-width: 1.2"/>
      </g>
     </g>
     <g id="text_17">
      <!-- $\mathdefault{1.2}$ -->
      <g transform="translate(22.529736 66.166326) scale(0.1 -0.1)">
       <use xlink:href="#CMR17-31" transform="scale(0.996264)"/>
       <use xlink:href="#CMMI12-3a" transform="translate(45.690477 0) scale(0.996264)"/>
       <use xlink:href="#CMR17-32" transform="translate(72.787654 0) scale(0.996264)"/>
      </g>
     </g>
    </g>
    <g id="ytick_8">
     <g id="line2d_105">
      <g>
       <use xlink:href="#md6a605d4a3" x="38.759815" y="41.772492" style="stroke: #000000; stroke-width: 1.2"/>
      </g>
     </g>
     <g id="line2d_106">
      <g>
       <use xlink:href="#mc6e2256192" x="355.018665" y="41.772492" style="stroke: #000000; stroke-width: 1.2"/>
      </g>
     </g>
     <g id="text_18">
      <!-- $\mathdefault{1.4}$ -->
      <g transform="translate(22.529736 45.231741) scale(0.1 -0.1)">
       <use xlink:href="#CMR17-31" transform="scale(0.996264)"/>
       <use xlink:href="#CMMI12-3a" transform="translate(45.690477 0) scale(0.996264)"/>
       <use xlink:href="#CMR17-34" transform="translate(72.787654 0) scale(0.996264)"/>
      </g>
     </g>
    </g>
    <g id="ytick_9">
     <g id="line2d_107">
      <g>
       <use xlink:href="#md6a605d4a3" x="38.759815" y="20.837907" style="stroke: #000000; stroke-width: 1.2"/>
      </g>
     </g>
     <g id="line2d_108">
      <g>
       <use xlink:href="#mc6e2256192" x="355.018665" y="20.837907" style="stroke: #000000; stroke-width: 1.2"/>
      </g>
     </g>
     <g id="text_19">
      <!-- $\mathdefault{1.6}$ -->
      <g transform="translate(22.529736 24.297156) scale(0.1 -0.1)">
       <use xlink:href="#CMR17-31" transform="scale(0.996264)"/>
       <use xlink:href="#CMMI12-3a" transform="translate(45.690477 0) scale(0.996264)"/>
       <use xlink:href="#CMR17-36" transform="translate(72.787654 0) scale(0.996264)"/>
      </g>
     </g>
    </g>
    <g id="ytick_10">
     <g id="line2d_109">
      <defs>
       <path id="m13946e7a02" d="M 0 0 
L 2.5 0 
" style="stroke: #000000; stroke-width: 0.8"/>
      </defs>
      <g>
       <use xlink:href="#m13946e7a02" x="38.759815" y="183.080941" style="stroke: #000000; stroke-width: 0.8"/>
      </g>
     </g>
     <g id="line2d_110">
      <defs>
       <path id="m73a62b7ad3" d="M 0 0 
L -2.5 0 
" style="stroke: #000000; stroke-width: 0.8"/>
      </defs>
      <g>
       <use xlink:href="#m73a62b7ad3" x="355.018665" y="183.080941" style="stroke: #000000; stroke-width: 0.8"/>
      </g>
     </g>
    </g>
    <g id="ytick_11">
     <g id="line2d_111">
      <g>
       <use xlink:href="#m13946e7a02" x="38.759815" y="177.847294" style="stroke: #000000; stroke-width: 0.8"/>
      </g>
     </g>
     <g id="line2d_112">
      <g>
       <use xlink:href="#m73a62b7ad3" x="355.018665" y="177.847294" style="stroke: #000000; stroke-width: 0.8"/>
      </g>
     </g>
    </g>
    <g id="ytick_12">
     <g id="line2d_113">
      <g>
       <use xlink:href="#m13946e7a02" x="38.759815" y="172.613648" style="stroke: #000000; stroke-width: 0.8"/>
      </g>
     </g>
     <g id="line2d_114">
      <g>
       <use xlink:href="#m73a62b7ad3" x="355.018665" y="172.613648" style="stroke: #000000; stroke-width: 0.8"/>
      </g>
     </g>
    </g>
    <g id="ytick_13">
     <g id="line2d_115">
      <g>
       <use xlink:href="#m13946e7a02" x="38.759815" y="162.146356" style="stroke: #000000; stroke-width: 0.8"/>
      </g>
     </g>
     <g id="line2d_116">
      <g>
       <use xlink:href="#m73a62b7ad3" x="355.018665" y="162.146356" style="stroke: #000000; stroke-width: 0.8"/>
      </g>
     </g>
    </g>
    <g id="ytick_14">
     <g id="line2d_117">
      <g>
       <use xlink:href="#m13946e7a02" x="38.759815" y="156.912709" style="stroke: #000000; stroke-width: 0.8"/>
      </g>
     </g>
     <g id="line2d_118">
      <g>
       <use xlink:href="#m73a62b7ad3" x="355.018665" y="156.912709" style="stroke: #000000; stroke-width: 0.8"/>
      </g>
     </g>
    </g>
    <g id="ytick_15">
     <g id="line2d_119">
      <g>
       <use xlink:href="#m13946e7a02" x="38.759815" y="151.679063" style="stroke: #000000; stroke-width: 0.8"/>
      </g>
     </g>
     <g id="line2d_120">
      <g>
       <use xlink:href="#m73a62b7ad3" x="355.018665" y="151.679063" style="stroke: #000000; stroke-width: 0.8"/>
      </g>
     </g>
    </g>
    <g id="ytick_16">
     <g id="line2d_121">
      <g>
       <use xlink:href="#m13946e7a02" x="38.759815" y="141.211771" style="stroke: #000000; stroke-width: 0.8"/>
      </g>
     </g>
     <g id="line2d_122">
      <g>
       <use xlink:href="#m73a62b7ad3" x="355.018665" y="141.211771" style="stroke: #000000; stroke-width: 0.8"/>
      </g>
     </g>
    </g>
    <g id="ytick_17">
     <g id="line2d_123">
      <g>
       <use xlink:href="#m13946e7a02" x="38.759815" y="135.978124" style="stroke: #000000; stroke-width: 0.8"/>
      </g>
     </g>
     <g id="line2d_124">
      <g>
       <use xlink:href="#m73a62b7ad3" x="355.018665" y="135.978124" style="stroke: #000000; stroke-width: 0.8"/>
      </g>
     </g>
    </g>
    <g id="ytick_18">
     <g id="line2d_125">
      <g>
       <use xlink:href="#m13946e7a02" x="38.759815" y="130.744478" style="stroke: #000000; stroke-width: 0.8"/>
      </g>
     </g>
     <g id="line2d_126">
      <g>
       <use xlink:href="#m73a62b7ad3" x="355.018665" y="130.744478" style="stroke: #000000; stroke-width: 0.8"/>
      </g>
     </g>
    </g>
    <g id="ytick_19">
     <g id="line2d_127">
      <g>
       <use xlink:href="#m13946e7a02" x="38.759815" y="120.277186" style="stroke: #000000; stroke-width: 0.8"/>
      </g>
     </g>
     <g id="line2d_128">
      <g>
       <use xlink:href="#m73a62b7ad3" x="355.018665" y="120.277186" style="stroke: #000000; stroke-width: 0.8"/>
      </g>
     </g>
    </g>
    <g id="ytick_20">
     <g id="line2d_129">
      <g>
       <use xlink:href="#m13946e7a02" x="38.759815" y="115.043539" style="stroke: #000000; stroke-width: 0.8"/>
      </g>
     </g>
     <g id="line2d_130">
      <g>
       <use xlink:href="#m73a62b7ad3" x="355.018665" y="115.043539" style="stroke: #000000; stroke-width: 0.8"/>
      </g>
     </g>
    </g>
    <g id="ytick_21">
     <g id="line2d_131">
      <g>
       <use xlink:href="#m13946e7a02" x="38.759815" y="109.809893" style="stroke: #000000; stroke-width: 0.8"/>
      </g>
     </g>
     <g id="line2d_132">
      <g>
       <use xlink:href="#m73a62b7ad3" x="355.018665" y="109.809893" style="stroke: #000000; stroke-width: 0.8"/>
      </g>
     </g>
    </g>
    <g id="ytick_22">
     <g id="line2d_133">
      <g>
       <use xlink:href="#m13946e7a02" x="38.759815" y="99.342601" style="stroke: #000000; stroke-width: 0.8"/>
      </g>
     </g>
     <g id="line2d_134">
      <g>
       <use xlink:href="#m73a62b7ad3" x="355.018665" y="99.342601" style="stroke: #000000; stroke-width: 0.8"/>
      </g>
     </g>
    </g>
    <g id="ytick_23">
     <g id="line2d_135">
      <g>
       <use xlink:href="#m13946e7a02" x="38.759815" y="94.108954" style="stroke: #000000; stroke-width: 0.8"/>
      </g>
     </g>
     <g id="line2d_136">
      <g>
       <use xlink:href="#m73a62b7ad3" x="355.018665" y="94.108954" style="stroke: #000000; stroke-width: 0.8"/>
      </g>
     </g>
    </g>
    <g id="ytick_24">
     <g id="line2d_137">
      <g>
       <use xlink:href="#m13946e7a02" x="38.759815" y="88.875308" style="stroke: #000000; stroke-width: 0.8"/>
      </g>
     </g>
     <g id="line2d_138">
      <g>
       <use xlink:href="#m73a62b7ad3" x="355.018665" y="88.875308" style="stroke: #000000; stroke-width: 0.8"/>
      </g>
     </g>
    </g>
    <g id="ytick_25">
     <g id="line2d_139">
      <g>
       <use xlink:href="#m13946e7a02" x="38.759815" y="78.408016" style="stroke: #000000; stroke-width: 0.8"/>
      </g>
     </g>
     <g id="line2d_140">
      <g>
       <use xlink:href="#m73a62b7ad3" x="355.018665" y="78.408016" style="stroke: #000000; stroke-width: 0.8"/>
      </g>
     </g>
    </g>
    <g id="ytick_26">
     <g id="line2d_141">
      <g>
       <use xlink:href="#m13946e7a02" x="38.759815" y="73.174369" style="stroke: #000000; stroke-width: 0.8"/>
      </g>
     </g>
     <g id="line2d_142">
      <g>
       <use xlink:href="#m73a62b7ad3" x="355.018665" y="73.174369" style="stroke: #000000; stroke-width: 0.8"/>
      </g>
     </g>
    </g>
    <g id="ytick_27">
     <g id="line2d_143">
      <g>
       <use xlink:href="#m13946e7a02" x="38.759815" y="67.940723" style="stroke: #000000; stroke-width: 0.8"/>
      </g>
     </g>
     <g id="line2d_144">
      <g>
       <use xlink:href="#m73a62b7ad3" x="355.018665" y="67.940723" style="stroke: #000000; stroke-width: 0.8"/>
      </g>
     </g>
    </g>
    <g id="ytick_28">
     <g id="line2d_145">
      <g>
       <use xlink:href="#m13946e7a02" x="38.759815" y="57.47343" style="stroke: #000000; stroke-width: 0.8"/>
      </g>
     </g>
     <g id="line2d_146">
      <g>
       <use xlink:href="#m73a62b7ad3" x="355.018665" y="57.47343" style="stroke: #000000; stroke-width: 0.8"/>
      </g>
     </g>
    </g>
    <g id="ytick_29">
     <g id="line2d_147">
      <g>
       <use xlink:href="#m13946e7a02" x="38.759815" y="52.239784" style="stroke: #000000; stroke-width: 0.8"/>
      </g>
     </g>
     <g id="line2d_148">
      <g>
       <use xlink:href="#m73a62b7ad3" x="355.018665" y="52.239784" style="stroke: #000000; stroke-width: 0.8"/>
      </g>
     </g>
    </g>
    <g id="ytick_30">
     <g id="line2d_149">
      <g>
       <use xlink:href="#m13946e7a02" x="38.759815" y="47.006138" style="stroke: #000000; stroke-width: 0.8"/>
      </g>
     </g>
     <g id="line2d_150">
      <g>
       <use xlink:href="#m73a62b7ad3" x="355.018665" y="47.006138" style="stroke: #000000; stroke-width: 0.8"/>
      </g>
     </g>
    </g>
    <g id="ytick_31">
     <g id="line2d_151">
      <g>
       <use xlink:href="#m13946e7a02" x="38.759815" y="36.538845" style="stroke: #000000; stroke-width: 0.8"/>
      </g>
     </g>
     <g id="line2d_152">
      <g>
       <use xlink:href="#m73a62b7ad3" x="355.018665" y="36.538845" style="stroke: #000000; stroke-width: 0.8"/>
      </g>
     </g>
    </g>
    <g id="ytick_32">
     <g id="line2d_153">
      <g>
       <use xlink:href="#m13946e7a02" x="38.759815" y="31.305199" style="stroke: #000000; stroke-width: 0.8"/>
      </g>
     </g>
     <g id="line2d_154">
      <g>
       <use xlink:href="#m73a62b7ad3" x="355.018665" y="31.305199" style="stroke: #000000; stroke-width: 0.8"/>
      </g>
     </g>
    </g>
    <g id="ytick_33">
     <g id="line2d_155">
      <g>
       <use xlink:href="#m13946e7a02" x="38.759815" y="26.071553" style="stroke: #000000; stroke-width: 0.8"/>
      </g>
     </g>
     <g id="line2d_156">
      <g>
       <use xlink:href="#m73a62b7ad3" x="355.018665" y="26.071553" style="stroke: #000000; stroke-width: 0.8"/>
      </g>
     </g>
    </g>
    <g id="ytick_34">
     <g id="line2d_157">
      <g>
       <use xlink:href="#m13946e7a02" x="38.759815" y="15.60426" style="stroke: #000000; stroke-width: 0.8"/>
      </g>
     </g>
     <g id="line2d_158">
      <g>
       <use xlink:href="#m73a62b7ad3" x="355.018665" y="15.60426" style="stroke: #000000; stroke-width: 0.8"/>
      </g>
     </g>
    </g>
    <g id="ytick_35">
     <g id="line2d_159">
      <g>
       <use xlink:href="#m13946e7a02" x="38.759815" y="10.370614" style="stroke: #000000; stroke-width: 0.8"/>
      </g>
     </g>
     <g id="line2d_160">
      <g>
       <use xlink:href="#m73a62b7ad3" x="355.018665" y="10.370614" style="stroke: #000000; stroke-width: 0.8"/>
      </g>
     </g>
    </g>
    <g id="text_20">
     <!-- Normalized Counts / 0.02 ($\text{GeV}^2$) -->
     <g transform="translate(16.039076 171.882241) rotate(-90) scale(0.1 -0.1)">
      <defs>
       <path id="CMR17-4e" d="M 1312 4250 
C 1267 4320 1261 4320 1139 4320 
L 326 4320 
L 326 4160 
L 448 4160 
C 704 4160 819 4129 838 4122 
L 838 610 
C 838 451 838 153 326 153 
L 326 -13 
C 474 0 742 0 902 0 
C 1062 0 1331 0 1478 -13 
L 1478 153 
C 966 153 966 451 966 610 
L 966 4033 
C 1011 3995 1011 3982 1056 3919 
L 3430 76 
C 3475 0 3494 0 3526 0 
C 3590 0 3590 19 3590 139 
L 3590 3705 
C 3590 3863 3590 4160 4102 4160 
L 4102 4326 
C 3955 4320 3686 4320 3526 4320 
C 3366 4320 3098 4320 2950 4326 
L 2950 4160 
C 3462 4160 3462 3862 3462 3703 
L 3462 763 
L 1312 4250 
z
" transform="scale(0.015625)"/>
       <path id="CMR17-6f" d="M 2758 1356 
C 2758 2176 2163 2816 1466 2816 
C 768 2816 173 2176 173 1356 
C 173 551 768 -64 1466 -64 
C 2163 -64 2758 551 2758 1356 
z
M 1466 51 
C 1165 51 909 230 762 480 
C 602 767 582 1126 582 1408 
C 582 1677 595 2010 762 2298 
C 890 2509 1139 2714 1466 2714 
C 1754 2714 1997 2554 2150 2330 
C 2349 2029 2349 1607 2349 1408 
C 2349 1158 2336 775 2163 467 
C 1984 173 1709 51 1466 51 
z
" transform="scale(0.015625)"/>
       <path id="CMR17-6d" d="M 4326 1933 
C 4326 2252 4269 2790 3507 2790 
C 3072 2790 2771 2496 2656 2151 
L 2650 2151 
C 2573 2676 2195 2790 1837 2790 
C 1331 2790 1069 2400 973 2144 
L 966 2144 
L 966 2790 
L 211 2720 
L 211 2554 
C 589 2554 646 2515 646 2208 
L 646 428 
C 646 184 621 153 211 153 
L 211 -13 
C 365 0 646 0 813 0 
C 979 0 1267 0 1421 -13 
L 1421 153 
C 1011 153 986 178 986 428 
L 986 1658 
C 986 2247 1344 2688 1792 2688 
C 2266 2688 2317 2266 2317 1958 
L 2317 428 
C 2317 184 2291 153 1882 153 
L 1882 -13 
C 2035 0 2317 0 2483 0 
C 2650 0 2938 0 3091 -13 
L 3091 153 
C 2682 153 2656 178 2656 428 
L 2656 1658 
C 2656 2247 3014 2688 3462 2688 
C 3936 2688 3987 2266 3987 1958 
L 3987 428 
C 3987 184 3962 153 3552 153 
L 3552 -13 
C 3706 0 3987 0 4154 0 
C 4320 0 4608 0 4762 -13 
L 4762 153 
C 4352 153 4326 178 4326 428 
L 4326 1933 
z
" transform="scale(0.015625)"/>
       <path id="CMR17-61" d="M 2304 1653 
C 2304 2072 2304 2294 2035 2543 
C 1798 2752 1523 2816 1306 2816 
C 800 2816 435 2407 435 1971 
C 435 1728 627 1728 666 1728 
C 749 1728 896 1778 896 1954 
C 896 2112 774 2181 666 2181 
C 640 2181 608 2174 589 2168 
C 723 2592 1069 2714 1293 2714 
C 1613 2714 1965 2429 1965 1885 
L 1965 1600 
C 1587 1600 1133 1549 774 1357 
C 371 1133 256 813 256 570 
C 256 77 832 -64 1171 -64 
C 1523 -64 1850 139 1990 511 
C 2003 233 2182 -18 2464 -18 
C 2598 -18 2938 70 2938 567 
L 2938 920 
L 2822 920 
L 2822 562 
C 2822 178 2650 128 2566 128 
C 2304 128 2304 458 2304 738 
L 2304 1653 
z
M 1965 870 
C 1965 317 1568 38 1216 38 
C 896 38 646 275 646 570 
C 646 761 730 1100 1101 1305 
C 1408 1478 1760 1504 1965 1504 
L 1965 870 
z
" transform="scale(0.015625)"/>
       <path id="CMR17-6c" d="M 979 4396 
L 218 4326 
L 218 4160 
C 595 4160 653 4122 653 3817 
L 653 426 
C 653 184 627 153 218 153 
L 218 -13 
C 371 0 653 0 813 0 
C 979 0 1261 0 1414 -13 
L 1414 153 
C 1005 153 979 178 979 426 
L 979 4396 
z
" transform="scale(0.015625)"/>
       <path id="CMR17-7a" d="M 2310 2605 
C 2362 2670 2362 2682 2362 2695 
C 2362 2752 2336 2752 2221 2752 
L 275 2752 
L 211 1760 
L 326 1760 
C 371 2381 442 2650 1178 2650 
L 1958 2650 
L 128 96 
C 128 0 134 0 269 0 
L 2291 0 
L 2381 1152 
L 2266 1152 
C 2214 442 2131 115 1350 115 
L 531 115 
L 2310 2605 
z
" transform="scale(0.015625)"/>
       <path id="CMR17-64" d="M 1869 4326 
L 1869 4160 
C 2246 4160 2304 4122 2304 3820 
L 2304 2345 
C 2278 2377 2016 2790 1498 2790 
C 845 2790 211 2208 211 1364 
C 211 525 806 -64 1434 -64 
C 1978 -64 2259 337 2291 380 
L 2291 -63 
L 3066 -63 
L 3066 128 
C 2688 128 2630 166 2630 473 
L 2630 4396 
L 1869 4326 
z
M 2291 755 
C 2291 563 2176 390 2029 262 
C 1811 70 1594 38 1472 38 
C 1286 38 621 134 621 1356 
C 621 2612 1363 2688 1530 2688 
C 1824 2688 2061 2522 2208 2291 
C 2291 2157 2291 2138 2291 2023 
L 2291 755 
z
" transform="scale(0.015625)"/>
       <path id="CMR17-43" d="M 3974 4289 
C 3974 4403 3968 4410 3930 4410 
C 3904 4410 3898 4403 3853 4327 
L 3571 3792 
C 3258 4187 2874 4416 2381 4416 
C 1286 4416 294 3456 294 2148 
C 294 826 1286 -128 2387 -128 
C 3366 -128 3974 730 3974 1461 
C 3974 1524 3974 1550 3917 1550 
C 3866 1550 3866 1531 3859 1474 
C 3808 585 3168 38 2477 38 
C 1824 38 781 495 781 2147 
C 781 3805 1843 4250 2464 4250 
C 3187 4250 3712 3628 3834 2745 
C 3846 2668 3846 2655 3904 2655 
C 3974 2655 3974 2668 3974 2783 
L 3974 4289 
z
" transform="scale(0.015625)"/>
       <path id="CMR17-75" d="M 1882 2693 
L 1882 2528 
C 2259 2528 2317 2489 2317 2186 
L 2317 1032 
C 2317 500 2029 38 1555 38 
C 1030 38 986 348 986 678 
L 986 2763 
L 211 2693 
L 211 2528 
C 467 2528 640 2528 646 2274 
L 646 1058 
C 646 633 646 361 813 183 
C 896 101 1056 -64 1517 -64 
C 2061 -64 2272 377 2323 506 
L 2330 506 
L 2330 -63 
L 3091 -63 
L 3091 128 
C 2714 128 2656 166 2656 473 
L 2656 2763 
L 1882 2693 
z
" transform="scale(0.015625)"/>
       <path id="CMR17-74" d="M 966 2560 
L 1862 2560 
L 1862 2725 
L 966 2725 
L 966 3904 
L 851 3904 
C 838 3245 614 2668 70 2668 
L 70 2560 
L 627 2560 
L 627 771 
C 627 650 627 -64 1370 -64 
C 1747 -64 1965 306 1965 777 
L 1965 1140 
L 1850 1140 
L 1850 783 
C 1850 344 1677 51 1408 51 
C 1222 51 966 178 966 758 
L 966 2560 
z
" transform="scale(0.015625)"/>
       <path id="CMR17-2f" d="M 2605 4545 
C 2637 4627 2637 4640 2637 4653 
C 2637 4729 2579 4768 2528 4768 
C 2451 4768 2426 4717 2400 4640 
L 326 -1377 
C 294 -1460 294 -1473 294 -1486 
C 294 -1562 352 -1600 403 -1600 
C 480 -1600 506 -1549 531 -1473 
L 2605 4545 
z
" transform="scale(0.015625)"/>
       <path id="CMR17-2e" d="M 1062 261 
C 1062 420 934 522 800 522 
C 672 522 538 420 538 261 
C 538 102 666 0 800 0 
C 928 0 1062 102 1062 261 
z
" transform="scale(0.015625)"/>
      </defs>
      <use xlink:href="#CMR17-4e" transform="scale(0.996264)"/>
      <use xlink:href="#CMR17-6f" transform="translate(69.07243 0) scale(0.996264)"/>
      <use xlink:href="#CMR17-72" transform="translate(114.762907 0) scale(0.996264)"/>
      <use xlink:href="#CMR17-6d" transform="translate(150.043675 0) scale(0.996264)"/>
      <use xlink:href="#CMR17-61" transform="translate(226.963265 0) scale(0.996264)"/>
      <use xlink:href="#CMR17-6c" transform="translate(272.653742 0) scale(0.996264)"/>
      <use xlink:href="#CMR17-69" transform="translate(297.5248 0) scale(0.996264)"/>
      <use xlink:href="#CMR17-7a" transform="translate(322.395859 0) scale(0.996264)"/>
      <use xlink:href="#CMR17-65" transform="translate(362.881519 0) scale(0.996264)"/>
      <use xlink:href="#CMR17-64" transform="translate(403.36718 0) scale(0.996264)"/>
      <use xlink:href="#CMR17-43" transform="translate(484.338516 0) scale(0.996264)"/>
      <use xlink:href="#CMR17-6f" transform="translate(550.848396 0) scale(0.996264)"/>
      <use xlink:href="#CMR17-75" transform="translate(596.538873 0) scale(0.996264)"/>
      <use xlink:href="#CMR17-6e" transform="translate(647.434243 0) scale(0.996264)"/>
      <use xlink:href="#CMR17-74" transform="translate(695.727159 0) scale(0.996264)"/>
      <use xlink:href="#CMR17-73" transform="translate(731.007927 0) scale(0.996264)"/>
      <use xlink:href="#CMR17-2f" transform="translate(796.885231 0) scale(0.996264)"/>
      <use xlink:href="#CMR17-30" transform="translate(872.651674 0) scale(0.996264)"/>
      <use xlink:href="#CMR17-2e" transform="translate(918.342151 0) scale(0.996264)"/>
      <use xlink:href="#CMR17-30" transform="translate(943.21321 0) scale(0.996264)"/>
      <use xlink:href="#CMR17-32" transform="translate(988.903687 0) scale(0.996264)"/>
      <use xlink:href="#CMR17-28" transform="translate(1064.67013 0) scale(0.996264)"/>
      <use xlink:href="#CMR17-47" transform="translate(1099.950898 0) scale(0.996264)"/>
      <use xlink:href="#CMR17-65" transform="translate(1172.306244 0) scale(0.996264)"/>
      <use xlink:href="#CMR17-56" transform="translate(1212.791905 0) scale(0.996264)"/>
      <use xlink:href="#CMR17-32" transform="translate(1281.864334 41.137482) scale(0.697382)"/>
      <use xlink:href="#CMR17-29" transform="translate(1314.345648 0) scale(0.996264)"/>
     </g>
    </g>
   </g>
   <g id="patch_3">
    <path d="M 53.135218 188.314587 
L 53.135218 183.470442 
L 58.885382 183.528155 
L 58.885382 183.12248 
L 61.760459 183.12248 
L 61.760459 182.591216 
L 67.510623 182.639198 
L 67.510623 181.973683 
L 70.385701 181.973683 
L 70.385701 181.661043 
L 73.260779 181.661043 
L 73.260779 181.167243 
L 76.135865 181.167243 
L 76.135865 180.579815 
L 81.88602 180.51452 
L 81.88602 179.886736 
L 84.761107 179.886736 
L 84.761107 179.383752 
L 87.636184 179.383752 
L 87.636184 178.872931 
L 90.511262 178.872931 
L 90.511262 178.316968 
L 93.38634 178.316968 
L 93.38634 177.359983 
L 99.136504 177.333976 
L 99.136504 176.391353 
L 102.011581 176.391353 
L 102.011581 175.425559 
L 104.886668 175.425559 
L 104.886668 174.673539 
L 107.761745 174.673539 
L 107.761745 173.308659 
L 110.636823 173.308659 
L 110.636823 172.843699 
L 113.511909 172.843699 
L 113.511909 171.746831 
L 116.386987 171.746831 
L 116.386987 170.640199 
L 119.262065 170.640199 
L 119.262065 169.056778 
L 122.137151 169.056778 
L 122.137151 167.439872 
L 125.012229 167.439872 
L 125.012229 166.557751 
L 127.887311 166.557751 
L 127.887311 164.542109 
L 130.762389 164.542109 
L 130.762389 163.222725 
L 133.637471 163.222725 
L 133.637471 161.694523 
L 136.512553 161.694523 
L 136.512553 159.024522 
L 139.38763 159.024522 
L 139.38763 157.031585 
L 142.262712 157.031585 
L 142.262712 154.719807 
L 145.13779 154.719807 
L 145.13779 151.855384 
L 148.012872 151.855384 
L 148.012872 148.687919 
L 150.887954 148.687919 
L 150.887954 145.708584 
L 153.763032 145.708584 
L 153.763032 142.862622 
L 156.638114 142.862622 
L 156.638114 139.002228 
L 159.513196 139.002228 
L 159.513196 135.424421 
L 162.388275 135.424421 
L 162.388275 131.353851 
L 165.263355 131.353851 
L 165.263355 126.851377 
L 168.138435 126.851377 
L 168.138435 123.480147 
L 171.013515 123.480147 
L 171.013515 118.905933 
L 173.888597 118.905933 
L 173.888597 113.372323 
L 176.763677 113.372323 
L 176.763677 110.28495 
L 179.638758 110.28495 
L 179.638758 105.410129 
L 182.513838 105.410129 
L 182.513838 101.717827 
L 185.388919 101.717827 
L 185.388919 97.56168 
L 188.263999 97.56168 
L 188.263999 93.961202 
L 191.139079 93.961202 
L 191.139079 92.422918 
L 194.01416 92.422918 
L 194.01416 89.725596 
L 196.88924 89.725596 
L 196.88924 88.568381 
L 199.76432 88.568381 
L 199.76432 87.286149 
L 202.639401 87.286149 
L 202.639401 86.230667 
L 205.514481 86.230667 
L 205.514481 87.049897 
L 208.389562 87.049897 
L 208.389562 86.585466 
L 211.264643 86.585466 
L 211.264643 86.901459 
L 214.139722 86.901459 
L 214.139722 87.366295 
L 217.014803 87.366295 
L 217.014803 86.56966 
L 219.889883 86.56966 
L 219.889883 88.101752 
L 222.764965 88.101752 
L 222.764965 89.177943 
L 225.640045 89.177943 
L 225.640045 89.841639 
L 228.515125 89.841639 
L 228.515125 89.496074 
L 231.390205 89.496074 
L 231.390205 90.679748 
L 234.265285 90.679748 
L 234.265285 90.944382 
L 237.140367 90.944382 
L 237.140367 91.609731 
L 240.015449 91.609731 
L 240.015449 92.596286 
L 242.890526 92.596286 
L 242.890526 97.097147 
L 245.765608 97.097147 
L 245.765608 101.603506 
L 248.64069 101.603506 
L 248.64069 104.824818 
L 251.515768 104.824818 
L 251.515768 107.856296 
L 254.39085 107.856296 
L 254.39085 110.66225 
L 257.265928 110.66225 
L 257.265928 113.020361 
L 260.14101 113.020361 
L 260.14101 115.630904 
L 263.016092 115.630904 
L 263.016092 116.796065 
L 265.891169 116.796065 
L 265.891169 119.574455 
L 268.766251 119.574455 
L 268.766251 121.207894 
L 271.641329 121.207894 
L 271.641329 122.219962 
L 274.516415 122.219962 
L 274.516415 125.087574 
L 277.391493 125.087574 
L 277.391493 126.525352 
L 280.266571 126.525352 
L 280.266571 127.741498 
L 283.141657 127.741498 
L 283.141657 129.586476 
L 286.016735 129.586476 
L 286.016735 131.073475 
L 288.891812 131.073475 
L 288.891812 132.804928 
L 291.766899 132.804928 
L 291.766899 133.119877 
L 294.641976 133.119877 
L 294.641976 134.935939 
L 297.517054 134.935939 
L 297.517054 136.576527 
L 300.39214 136.576527 
L 300.39214 138.093857 
L 303.267218 138.093857 
L 303.267218 139.363997 
L 306.142296 139.363997 
L 306.142296 140.60458 
L 309.017373 140.60458 
L 309.017373 141.012348 
L 311.89246 141.012348 
L 311.89246 142.510956 
L 314.767537 142.510956 
L 314.767537 144.215855 
L 317.642615 144.215855 
L 317.642615 145.106618 
L 320.517701 145.106618 
L 320.517701 145.340409 
L 323.392779 145.340409 
L 323.392779 146.658912 
L 326.267857 146.658912 
L 326.267857 147.546941 
L 329.142943 147.546941 
L 329.142943 148.422982 
L 332.018021 148.422982 
L 332.018021 149.755416 
L 334.893099 149.755416 
L 334.893099 150.768292 
L 337.768185 150.768292 
L 337.768185 152.149512 
L 340.643263 152.149512 
L 340.643263 188.314587 
L 340.643263 188.314587 
" clip-path="url(#p56feb3c8cf)" style="fill: none; stroke: #377eb8; stroke-linejoin: miter"/>
   </g>
   <g id="patch_4">
    <path d="M 53.135218 188.314587 
L 53.135218 181.430583 
L 56.010295 181.430583 
L 56.010295 180.800659 
L 58.885382 180.800659 
L 58.885382 180.540105 
L 61.760459 180.540105 
L 61.760459 179.959974 
L 64.635537 179.959974 
L 64.635537 179.705198 
L 67.510623 179.705198 
L 67.510623 178.969869 
L 70.385701 178.969869 
L 70.385701 178.719036 
L 76.135865 178.704959 
L 76.135865 178.014589 
L 79.010943 178.014589 
L 79.010943 176.923976 
L 84.761107 176.859649 
L 84.761107 175.773407 
L 87.636184 175.773407 
L 87.636184 175.144344 
L 90.511262 175.144344 
L 90.511262 174.546139 
L 93.38634 174.546139 
L 93.38634 173.768996 
L 96.261426 173.768996 
L 96.261426 172.780611 
L 99.136504 172.780611 
L 99.136504 171.837673 
L 102.011581 171.837673 
L 102.011581 170.934467 
L 104.886668 170.934467 
L 104.886668 169.938579 
L 107.761745 169.938579 
L 107.761745 168.529244 
L 110.636823 168.529244 
L 110.636823 166.885894 
L 113.511909 166.885894 
L 113.511909 165.36761 
L 116.386987 165.36761 
L 116.386987 164.205582 
L 119.262065 164.205582 
L 119.262065 162.226331 
L 122.137151 162.226331 
L 122.137151 160.69437 
L 125.012229 160.69437 
L 125.012229 158.293655 
L 127.887311 158.293655 
L 127.887311 156.811093 
L 130.762389 156.811093 
L 130.762389 153.900345 
L 133.637471 153.900345 
L 133.637471 151.853572 
L 136.512553 151.853572 
L 136.512553 147.677097 
L 139.38763 147.677097 
L 139.38763 144.568873 
L 142.262712 144.568873 
L 142.262712 141.048332 
L 145.13779 141.048332 
L 145.13779 138.433398 
L 148.012872 138.433398 
L 148.012872 133.626596 
L 150.887954 133.626596 
L 150.887954 128.267788 
L 153.763032 128.267788 
L 153.763032 122.351502 
L 156.638114 122.351502 
L 156.638114 117.155873 
L 159.513196 117.155873 
L 159.513196 109.968977 
L 162.388275 109.968977 
L 162.388275 103.293044 
L 165.263355 103.293044 
L 165.263355 94.639989 
L 168.138435 94.639989 
L 168.138435 85.689834 
L 171.013515 85.689834 
L 171.013515 77.764215 
L 173.888597 77.764215 
L 173.888597 68.22238 
L 176.763677 68.22238 
L 176.763677 57.922879 
L 179.638758 57.922879 
L 179.638758 49.382213 
L 182.513838 49.382213 
L 182.513838 38.344305 
L 185.388919 38.344305 
L 185.388919 31.768447 
L 188.263999 31.768447 
L 188.263999 23.287291 
L 191.139079 23.287291 
L 191.139079 18.364996 
L 194.01416 18.364996 
L 194.01416 16.517489 
L 196.88924 16.517489 
L 196.88924 15.824504 
L 199.76432 15.824504 
L 199.76432 19.265167 
L 202.639401 19.265167 
L 202.639401 22.099282 
L 205.514481 22.099282 
L 205.514481 31.550649 
L 208.389562 31.550649 
L 208.389562 38.823057 
L 211.264643 38.823057 
L 211.264643 47.93231 
L 214.139722 47.93231 
L 214.139722 56.990979 
L 217.014803 56.990979 
L 217.014803 66.753528 
L 219.889883 66.753528 
L 219.889883 76.234116 
L 222.764965 76.234116 
L 222.764965 85.439883 
L 225.640045 85.439883 
L 225.640045 92.894303 
L 228.515125 92.894303 
L 228.515125 100.37696 
L 231.390205 100.37696 
L 231.390205 107.977318 
L 234.265285 107.977318 
L 234.265285 114.004832 
L 237.140367 114.004832 
L 237.140367 119.522699 
L 240.015449 119.522699 
L 240.015449 125.54169 
L 242.890526 125.54169 
L 242.890526 131.235981 
L 245.765608 131.235981 
L 245.765608 135.729348 
L 248.64069 135.729348 
L 248.64069 139.58698 
L 251.515768 139.58698 
L 251.515768 143.301484 
L 254.39085 143.301484 
L 254.39085 147.065223 
L 257.265928 147.065223 
L 257.265928 149.888359 
L 260.14101 149.888359 
L 260.14101 153.037199 
L 263.016092 153.037199 
L 263.016092 155.707694 
L 265.891169 155.707694 
L 265.891169 157.683102 
L 268.766251 157.683102 
L 268.766251 159.855027 
L 271.641329 159.855027 
L 271.641329 162.155797 
L 274.516415 162.155797 
L 274.516415 163.895681 
L 277.391493 163.895681 
L 277.391493 165.88691 
L 280.266571 165.88691 
L 280.266571 167.009767 
L 283.141657 167.009767 
L 283.141657 168.785809 
L 286.016735 168.785809 
L 286.016735 170.013525 
L 288.891812 170.013525 
L 288.891812 170.973259 
L 291.766899 170.973259 
L 291.766899 172.479524 
L 294.641976 172.479524 
L 294.641976 173.213947 
L 297.517054 173.213947 
L 297.517054 173.880084 
L 300.39214 173.880084 
L 300.39214 174.927898 
L 303.267218 174.927898 
L 303.267218 175.625288 
L 306.142296 175.625288 
L 306.142296 176.803187 
L 309.017373 176.803187 
L 309.017373 177.013937 
L 311.89246 177.013937 
L 311.89246 177.608143 
L 314.767537 177.608143 
L 314.767537 178.265863 
L 317.642615 178.265863 
L 317.642615 178.801499 
L 320.517701 178.801499 
L 320.517701 179.442877 
L 323.392779 179.442877 
L 323.392779 179.782318 
L 326.267857 179.782318 
L 326.267857 180.06183 
L 329.142943 180.06183 
L 329.142943 180.561705 
L 332.018021 180.561705 
L 332.018021 180.872931 
L 334.893099 180.872931 
L 334.893099 181.407238 
L 337.768185 181.407238 
L 337.768185 181.605591 
L 340.643263 181.605591 
L 340.643263 188.314587 
L 340.643263 188.314587 
" clip-path="url(#p56feb3c8cf)" style="fill: none; stroke: #4daf4a; stroke-linejoin: miter"/>
   </g>
   <g id="patch_5">
    <path d="M 53.135218 188.314587 
L 53.135218 181.927926 
L 56.010295 181.927926 
L 56.010295 182.145962 
L 61.760459 182.107471 
L 61.760459 181.581661 
L 64.635537 181.581661 
L 64.635537 181.350838 
L 67.510623 181.350838 
L 67.510623 181.568836 
L 70.385701 181.568836 
L 70.385701 179.670793 
L 73.260779 179.670793 
L 73.260779 179.863187 
L 76.135865 179.863187 
L 76.135865 179.670792 
L 79.010943 179.670792 
L 79.010943 179.786214 
L 81.88602 179.786214 
L 81.88602 179.491274 
L 84.761107 179.491274 
L 84.761107 177.503431 
L 87.636184 177.503431 
L 87.636184 176.926324 
L 90.511262 176.926324 
L 90.511262 176.156847 
L 93.38634 176.156847 
L 93.38634 177.888201 
L 96.261426 177.888201 
L 96.261426 175.849055 
L 99.136504 175.849055 
L 99.136504 175.438668 
L 102.011581 175.438668 
L 102.011581 174.476863 
L 104.886668 174.476863 
L 104.886668 175.528439 
L 107.761745 175.528439 
L 107.761745 172.719847 
L 110.636823 172.719847 
L 110.636823 173.681738 
L 113.511909 173.681738 
L 113.511909 168.654442 
L 116.386987 168.654442 
L 116.386987 169.500868 
L 119.262065 169.500868 
L 119.262065 168.051745 
L 122.137151 168.051745 
L 122.137151 162.396027 
L 125.012229 162.396027 
L 125.012229 164.396704 
L 127.887311 164.396704 
L 127.887311 161.472655 
L 130.762389 161.472655 
L 130.762389 159.292511 
L 133.637471 159.292511 
L 133.637471 158.715407 
L 136.512553 158.715407 
L 136.512553 154.662783 
L 139.38763 154.662783 
L 139.38763 150.058801 
L 142.262712 150.058801 
L 142.262712 150.263937 
L 145.13779 150.263937 
L 145.13779 145.313694 
L 148.012872 145.313694 
L 148.012872 142.287094 
L 150.887954 142.287094 
L 150.887954 134.848739 
L 153.763032 134.848739 
L 153.763032 135.579821 
L 156.638114 135.579821 
L 156.638114 126.987341 
L 159.513196 126.987341 
L 159.513196 127.602877 
L 162.388275 127.602877 
L 162.388275 111.546462 
L 165.263355 111.546462 
L 165.263355 109.417584 
L 168.138435 109.417584 
L 168.138435 99.504147 
L 171.013515 99.504147 
L 171.013515 92.425042 
L 173.888597 92.425042 
L 173.888597 87.089929 
L 176.763677 87.089929 
L 176.763677 71.828682 
L 179.638758 71.828682 
L 179.638758 67.186136 
L 182.513838 67.186136 
L 182.513838 50.244879 
L 185.388919 50.244879 
L 185.388919 41.819076 
L 188.263999 41.819076 
L 188.263999 34.547522 
L 191.139079 34.547522 
L 191.139079 27.519633 
L 194.01416 27.519633 
L 194.01416 23.2747 
L 196.88924 23.2747 
L 196.88924 20.761071 
L 199.76432 20.761071 
L 199.76432 18.362881 
L 202.639401 18.362881 
L 202.639401 18.644991 
L 205.514481 18.644991 
L 205.514481 22.338516 
L 208.389562 22.338516 
L 208.389562 34.444951 
L 211.264643 34.444951 
L 211.264643 42.152482 
L 214.139722 42.152482 
L 214.139722 48.872633 
L 217.014803 48.872633 
L 217.014803 52.463469 
L 219.889883 52.463469 
L 219.889883 68.378914 
L 222.764965 68.378914 
L 222.764965 67.878665 
L 225.640045 67.878665 
L 225.640045 75.227167 
L 228.515125 75.227167 
L 228.515125 87.141234 
L 231.390205 87.141234 
L 231.390205 90.898848 
L 234.265285 90.898848 
L 234.265285 97.311216 
L 237.140367 97.311216 
L 237.140367 99.17078 
L 240.015449 99.17078 
L 240.015449 104.518514 
L 242.890526 104.518514 
L 242.890526 117.727975 
L 245.765608 117.727975 
L 245.765608 124.691734 
L 248.64069 124.691734 
L 248.64069 131.655409 
L 251.515768 131.655409 
L 251.515768 136.785335 
L 254.39085 136.785335 
L 254.39085 140.350506 
L 257.265928 140.350506 
L 257.265928 141.761282 
L 260.14101 141.761282 
L 260.14101 148.968708 
L 263.016092 148.968708 
L 263.016092 152.21328 
L 265.891169 152.21328 
L 265.891169 152.533948 
L 268.766251 152.533948 
L 268.766251 157.471373 
L 271.641329 157.471373 
L 271.641329 157.34322 
L 274.516415 157.34322 
L 274.516415 159.356592 
L 277.391493 159.356592 
L 277.391493 160.074772 
L 280.266571 160.074772 
L 280.266571 163.665738 
L 283.141657 163.665738 
L 283.141657 164.242773 
L 286.016735 164.242773 
L 286.016735 166.410133 
L 288.891812 166.410133 
L 288.891812 167.128378 
L 291.766899 167.128378 
L 291.766899 167.590001 
L 294.641976 167.590001 
L 294.641976 169.244376 
L 297.517054 169.244376 
L 297.517054 169.718942 
L 300.39214 169.718942 
L 300.39214 170.962875 
L 303.267218 170.962875 
L 303.267218 170.398591 
L 306.142296 170.398591 
L 306.142296 174.117732 
L 309.017373 174.117732 
L 309.017373 174.694881 
L 311.89246 174.694881 
L 311.89246 173.938187 
L 314.767537 173.938187 
L 314.767537 174.592242 
L 317.642615 174.592242 
L 317.642615 176.156884 
L 320.517701 176.156884 
L 320.517701 176.503111 
L 323.392779 176.503111 
L 323.392779 177.016095 
L 326.267857 177.016095 
L 326.267857 178.875694 
L 329.142943 178.875694 
L 329.142943 178.734594 
L 332.018021 178.734594 
L 332.018021 178.426804 
L 334.893099 178.426804 
L 334.893099 177.631709 
L 337.768185 177.631709 
L 337.768185 176.438988 
L 340.643263 176.438988 
L 340.643263 188.314587 
L 340.643263 188.314587 
" clip-path="url(#p56feb3c8cf)" style="fill: none; stroke: #e41a1c; stroke-linejoin: miter"/>
   </g>
   <g id="patch_6">
    <path d="M 38.759815 188.314587 
L 38.759815 7.2 
" style="fill: none; stroke: #000000; stroke-width: 0.8; stroke-linejoin: miter; stroke-linecap: square"/>
   </g>
   <g id="patch_7">
    <path d="M 355.018665 188.314587 
L 355.018665 7.2 
" style="fill: none; stroke: #000000; stroke-width: 0.8; stroke-linejoin: miter; stroke-linecap: square"/>
   </g>
   <g id="patch_8">
    <path d="M 38.759815 188.314587 
L 355.018665 188.314587 
" style="fill: none; stroke: #000000; stroke-width: 0.8; stroke-linejoin: miter; stroke-linecap: square"/>
   </g>
   <g id="patch_9">
    <path d="M 38.759815 7.2 
L 355.018665 7.2 
" style="fill: none; stroke: #000000; stroke-width: 0.8; stroke-linejoin: miter; stroke-linecap: square"/>
   </g>
   <g id="legend_1">
    <g id="patch_10">
     <path d="M 295.111296 39.500003 
L 350.818665 39.500003 
Q 352.018665 39.500003 352.018665 38.300003 
L 352.018665 11.4 
Q 352.018665 10.2 350.818665 10.2 
L 295.111296 10.2 
Q 293.911296 10.2 293.911296 11.4 
L 293.911296 38.300003 
Q 293.911296 39.500003 295.111296 39.500003 
z
" style="fill: #ffffff; opacity: 0.8; stroke: #cccccc; stroke-linejoin: miter"/>
    </g>
    <g id="patch_11">
     <path d="M 296.311296 16.8 
L 308.311296 16.8 
L 308.311296 12.6 
L 296.311296 12.6 
L 296.311296 16.8 
z
" style="fill: none; stroke: #377eb8; stroke-linejoin: miter"/>
    </g>
    <g id="text_21">
     <!-- Data -->
     <g transform="translate(313.111296 16.8) scale(0.06 -0.06)">
      <defs>
       <path id="CMR17-44" d="M 333 4352 
L 333 4186 
C 774 4186 845 4186 845 3900 
L 845 452 
C 845 166 774 166 333 166 
L 333 0 
L 2368 0 
C 3398 0 4224 943 4224 2141 
C 4224 3346 3411 4352 2368 4352 
L 333 4352 
z
M 1523 166 
C 1267 166 1254 197 1254 414 
L 1254 3938 
C 1254 4155 1267 4186 1523 4186 
L 2240 4186 
C 2771 4186 3750 3874 3750 2141 
C 3750 1242 3488 879 3366 707 
C 3213 510 2848 166 2240 166 
L 1523 166 
z
" transform="scale(0.015625)"/>
      </defs>
      <use xlink:href="#CMR17-44" transform="scale(0.996264)"/>
      <use xlink:href="#CMR17-61" transform="translate(70.393556 0) scale(0.996264)"/>
      <use xlink:href="#CMR17-74" transform="translate(116.084033 0) scale(0.996264)"/>
      <use xlink:href="#CMR17-61" transform="translate(151.364801 0) scale(0.996264)"/>
     </g>
    </g>
    <g id="patch_12">
     <path d="M 296.311296 26.680889 
L 308.311296 26.680889 
L 308.311296 22.480889 
L 296.311296 22.480889 
L 296.311296 26.680889 
z
" style="fill: none; stroke: #4daf4a; stroke-linejoin: miter"/>
    </g>
    <g id="text_22">
     <!-- $K_S^0 K_S^0$ MC -->
     <g transform="translate(313.111296 26.680889) scale(0.06 -0.06)">
      <defs>
       <path id="CMMI12-4b" d="M 3200 2571 
C 3194 2590 3168 2641 3168 2661 
C 3168 2667 3174 2673 3283 2756 
L 3904 3242 
C 4762 3905 5043 4128 5485 4167 
C 5530 4167 5594 4167 5594 4282 
C 5594 4320 5574 4352 5523 4352 
C 5453 4352 5376 4352 5306 4352 
L 5062 4352 
C 4864 4352 4653 4352 4461 4352 
C 4416 4352 4339 4352 4339 4237 
C 4339 4173 4384 4167 4422 4167 
C 4493 4160 4576 4135 4576 4046 
C 4576 3919 4384 3765 4333 3727 
L 1824 1784 
L 2355 3887 
C 2413 4103 2426 4167 2880 4167 
C 3002 4167 3059 4167 3059 4288 
C 3059 4352 2995 4352 2963 4352 
C 2848 4352 2714 4352 2592 4352 
L 1837 4352 
C 1722 4352 1581 4352 1466 4352 
C 1414 4352 1344 4352 1344 4231 
C 1344 4167 1402 4167 1498 4167 
C 1888 4167 1888 4116 1888 4046 
C 1888 4034 1888 3995 1862 3899 
L 998 472 
C 941 249 928 185 480 185 
C 358 185 294 185 294 70 
C 294 0 352 0 390 0 
C 512 0 640 0 762 0 
L 1510 0 
C 1632 0 1766 0 1888 0 
C 1939 0 2010 0 2010 121 
C 2010 185 1952 185 1856 185 
C 1466 185 1466 236 1466 300 
C 1466 345 1504 504 1530 606 
L 1779 1593 
L 2752 2351 
C 2938 1943 3277 1128 3539 505 
C 3558 466 3571 428 3571 383 
C 3571 185 3315 185 3258 185 
C 3200 185 3136 185 3136 64 
C 3136 0 3206 0 3226 0 
C 3450 0 3686 0 3910 0 
L 4218 0 
C 4314 0 4422 0 4518 0 
C 4557 0 4627 0 4627 121 
C 4627 185 4570 185 4506 185 
C 4269 185 4186 236 4090 466 
L 3200 2571 
z
" transform="scale(0.015625)"/>
       <path id="CMMI12-53" d="M 4064 4423 
C 4064 4480 4019 4480 4006 4480 
C 3981 4480 3974 4474 3898 4378 
C 3859 4333 3597 4001 3590 3995 
C 3379 4410 2957 4480 2688 4480 
C 1875 4480 1139 3743 1139 3025 
C 1139 2549 1427 2269 1741 2161 
C 1811 2135 2189 2033 2381 1989 
C 2707 1900 2790 1875 2925 1735 
C 2950 1703 3078 1557 3078 1258 
C 3078 667 2528 57 1888 57 
C 1363 57 781 280 781 991 
C 781 1112 806 1265 826 1328 
C 826 1348 832 1378 832 1391 
C 832 1417 819 1449 768 1449 
C 710 1449 704 1436 678 1328 
L 352 24 
C 352 18 326 -64 326 -71 
C 326 -128 378 -128 390 -128 
C 416 -128 422 -122 499 -26 
L 794 356 
C 947 126 1280 -128 1875 -128 
C 2701 -128 3456 666 3456 1460 
C 3456 1728 3392 1963 3149 2197 
C 3014 2331 2899 2363 2310 2516 
C 1882 2630 1824 2649 1709 2751 
C 1600 2858 1517 3011 1517 3227 
C 1517 3761 2061 4308 2669 4308 
C 3296 4308 3590 3926 3590 3323 
C 3590 3158 3558 2986 3558 2961 
C 3558 2903 3610 2903 3629 2903 
C 3686 2903 3693 2922 3718 3024 
L 4064 4423 
z
" transform="scale(0.015625)"/>
      </defs>
      <use xlink:href="#CMMI12-4b" transform="scale(0.996264)"/>
      <use xlink:href="#CMR17-30" transform="translate(90.147421 36.153639) scale(0.697382)"/>
      <use xlink:href="#CMMI12-53" transform="translate(82.992611 -27.44057) scale(0.697382)"/>
      <use xlink:href="#CMMI12-4b" transform="translate(129.54664 0) scale(0.996264)"/>
      <use xlink:href="#CMR17-30" transform="translate(219.694061 36.153639) scale(0.697382)"/>
      <use xlink:href="#CMMI12-53" transform="translate(212.539251 -27.44057) scale(0.697382)"/>
      <use xlink:href="#CMR17-4d" transform="translate(289.169247 0) scale(0.996264)"/>
      <use xlink:href="#CMR17-43" transform="translate(373.856187 0) scale(0.996264)"/>
     </g>
    </g>
    <g id="patch_13">
     <path d="M 296.311296 35.93769 
L 308.311296 35.93769 
L 308.311296 31.73769 
L 296.311296 31.73769 
L 296.311296 35.93769 
z
" style="fill: none; stroke: #e41a1c; stroke-linejoin: miter"/>
    </g>
    <g id="text_23">
     <!-- $4\pi$ MC -->
     <g transform="translate(313.111296 35.93769) scale(0.06 -0.06)">
      <defs>
       <path id="CMMI12-19" d="M 1658 2408 
L 2381 2408 
C 2208 1692 2099 1226 2099 716 
C 2099 626 2099 -64 2362 -64 
C 2496 -64 2611 57 2611 166 
C 2611 197 2611 210 2566 306 
C 2394 747 2394 1296 2394 1341 
C 2394 1379 2394 1832 2528 2408 
L 3245 2408 
C 3328 2408 3539 2408 3539 2612 
C 3539 2752 3418 2752 3302 2752 
L 1197 2752 
C 1050 2752 832 2752 538 2440 
C 371 2254 166 1916 166 1878 
C 166 1840 198 1827 237 1827 
C 282 1827 288 1846 320 1884 
C 653 2408 986 2408 1146 2408 
L 1510 2408 
C 1370 1929 1210 1373 685 256 
C 634 154 634 140 634 102 
C 634 -32 749 -64 806 -64 
C 992 -64 1043 102 1120 370 
C 1222 696 1222 709 1286 964 
L 1658 2408 
z
" transform="scale(0.015625)"/>
      </defs>
      <use xlink:href="#CMR17-34" transform="scale(0.996264)"/>
      <use xlink:href="#CMMI12-19" transform="translate(45.690477 0) scale(0.996264)"/>
      <use xlink:href="#CMR17-4d" transform="translate(134.677044 0) scale(0.996264)"/>
      <use xlink:href="#CMR17-43" transform="translate(219.363985 0) scale(0.996264)"/>
     </g>
    </g>
   </g>
  </g>
 </g>
 <defs>
  <clipPath id="p56feb3c8cf">
   <rect x="38.759815" y="7.2" width="316.258849" height="181.114587"/>
  </clipPath>
 </defs>
</svg>
