<?xml version="1.0" encoding="utf-8" standalone="no"?>
<!DOCTYPE svg PUBLIC "-//W3C//DTD SVG 1.1//EN"
  "http://www.w3.org/Graphics/SVG/1.1/DTD/svg11.dtd">
<svg xmlns:xlink="http://www.w3.org/1999/xlink" width="367.2pt" height="223.162828pt" viewBox="0 0 367.2 223.162828" xmlns="http://www.w3.org/2000/svg" version="1.1">
 <metadata>
  <rdf:RDF xmlns:dc="http://purl.org/dc/elements/1.1/" xmlns:cc="http://creativecommons.org/ns#" xmlns:rdf="http://www.w3.org/1999/02/22-rdf-syntax-ns#">
   <cc:Work>
    <dc:type rdf:resource="http://purl.org/dc/dcmitype/StillImage"/>
    <dc:date>2025-06-01T00:51:46.066493</dc:date>
    <dc:format>image/svg+xml</dc:format>
    <dc:creator>
     <cc:Agent>
      <dc:title>Matplotlib v3.10.3, https://matplotlib.org/</dc:title>
     </cc:Agent>
    </dc:creator>
   </cc:Work>
  </rdf:RDF>
 </metadata>
 <defs>
  <style type="text/css">*{stroke-linejoin: round; stroke-linecap: butt}</style>
 </defs>
 <g id="figure_1">
  <g id="patch_1">
   <path d="M -0 223.162828 
L 367.2 223.162828 
L 367.2 0 
L -0 0 
z
" style="fill: #ffffff"/>
  </g>
  <g id="axes_1">
   <g id="patch_2">
    <path d="M 38.759815 188.277415 
L 360 188.277415 
L 360 8.17476 
L 38.759815 8.17476 
z
" style="fill: #ffffff"/>
   </g>
   <g id="matplotlib.axis_1">
    <g id="xtick_1">
     <g id="line2d_1">
      <defs>
       <path id="m26e00283c3" d="M 0 0 
L 0 -4 
" style="stroke: #000000; stroke-width: 1.2"/>
      </defs>
      <g>
       <use xlink:href="#m26e00283c3" x="53.361642" y="188.277415" style="stroke: #000000; stroke-width: 1.2"/>
      </g>
     </g>
     <g id="line2d_2">
      <defs>
       <path id="mc07591c676" d="M 0 0 
L 0 4 
" style="stroke: #000000; stroke-width: 1.2"/>
      </defs>
      <g>
       <use xlink:href="#mc07591c676" x="53.361642" y="8.17476" style="stroke: #000000; stroke-width: 1.2"/>
      </g>
     </g>
     <g id="text_1">
      <!-- $\mathdefault{−1.00}$ -->
      <g transform="translate(40.631563 198.695913) scale(0.1 -0.1)">
       <defs>
        <path id="CMSY10-0" d="M 4218 1472 
C 4326 1472 4442 1472 4442 1600 
C 4442 1728 4326 1728 4218 1728 
L 755 1728 
C 646 1728 531 1728 531 1600 
C 531 1472 646 1472 755 1472 
L 4218 1472 
z
" transform="scale(0.015625)"/>
        <path id="CMR17-31" d="M 1702 4058 
C 1702 4192 1696 4192 1606 4192 
C 1357 3916 979 3827 621 3827 
C 602 3827 570 3827 563 3808 
C 557 3795 557 3782 557 3648 
C 755 3648 1088 3686 1344 3839 
L 1344 461 
C 1344 236 1331 160 781 160 
L 589 160 
L 589 0 
C 896 0 1216 0 1523 0 
C 1830 0 2150 0 2458 0 
L 2458 160 
L 2266 160 
C 1715 160 1702 230 1702 458 
L 1702 4058 
z
" transform="scale(0.015625)"/>
        <path id="CMMI12-3a" d="M 1178 307 
C 1178 492 1024 619 870 619 
C 685 619 557 466 557 313 
C 557 128 710 0 864 0 
C 1050 0 1178 153 1178 307 
z
" transform="scale(0.015625)"/>
        <path id="CMR17-30" d="M 2688 2025 
C 2688 2416 2682 3080 2413 3591 
C 2176 4039 1798 4198 1466 4198 
C 1158 4198 768 4058 525 3597 
C 269 3118 243 2524 243 2025 
C 243 1661 250 1106 448 619 
C 723 -39 1216 -128 1466 -128 
C 1760 -128 2208 -7 2470 600 
C 2662 1042 2688 1559 2688 2025 
z
M 1466 -26 
C 1056 -26 813 325 723 812 
C 653 1188 653 1738 653 2096 
C 653 2588 653 2997 736 3387 
C 858 3929 1216 4096 1466 4096 
C 1728 4096 2067 3923 2189 3400 
C 2272 3036 2278 2607 2278 2096 
C 2278 1680 2278 1169 2202 792 
C 2067 95 1690 -26 1466 -26 
z
" transform="scale(0.015625)"/>
       </defs>
       <use xlink:href="#CMSY10-0" transform="scale(0.996264)"/>
       <use xlink:href="#CMR17-31" transform="translate(77.487468 0) scale(0.996264)"/>
       <use xlink:href="#CMMI12-3a" transform="translate(123.177945 0) scale(0.996264)"/>
       <use xlink:href="#CMR17-30" transform="translate(150.275122 0) scale(0.996264)"/>
       <use xlink:href="#CMR17-30" transform="translate(195.965599 0) scale(0.996264)"/>
      </g>
     </g>
    </g>
    <g id="xtick_2">
     <g id="line2d_3">
      <g>
       <use xlink:href="#m26e00283c3" x="89.866208" y="188.277415" style="stroke: #000000; stroke-width: 1.2"/>
      </g>
     </g>
     <g id="line2d_4">
      <g>
       <use xlink:href="#mc07591c676" x="89.866208" y="8.17476" style="stroke: #000000; stroke-width: 1.2"/>
      </g>
     </g>
     <g id="text_2">
      <!-- $\mathdefault{−0.75}$ -->
      <g transform="translate(77.136129 198.695913) scale(0.1 -0.1)">
       <defs>
        <path id="CMR17-37" d="M 2886 3941 
L 2886 4081 
L 1382 4081 
C 634 4081 621 4165 595 4288 
L 480 4288 
L 294 3094 
L 410 3094 
C 429 3215 474 3540 550 3661 
C 589 3712 1062 3712 1171 3712 
L 2579 3712 
L 1869 2661 
C 1395 1954 1069 999 1069 165 
C 1069 89 1069 -128 1299 -128 
C 1530 -128 1530 89 1530 171 
L 1530 465 
C 1530 1508 1709 2196 2003 2636 
L 2886 3941 
z
" transform="scale(0.015625)"/>
        <path id="CMR17-35" d="M 730 3692 
C 794 3666 1056 3584 1325 3584 
C 1920 3584 2246 3911 2432 4100 
C 2432 4157 2432 4192 2394 4192 
C 2387 4192 2374 4192 2323 4163 
C 2099 4058 1837 3973 1517 3973 
C 1325 3973 1037 3999 723 4139 
C 653 4171 640 4171 634 4171 
C 602 4171 595 4164 595 4037 
L 595 2203 
C 595 2089 595 2057 659 2057 
C 691 2057 704 2070 736 2114 
C 941 2401 1222 2522 1542 2522 
C 1766 2522 2246 2382 2246 1289 
C 2246 1085 2246 715 2054 421 
C 1894 159 1645 25 1370 25 
C 947 25 518 320 403 814 
C 429 807 480 795 506 795 
C 589 795 749 840 749 1038 
C 749 1210 627 1280 506 1280 
C 358 1280 262 1190 262 1011 
C 262 454 704 -128 1382 -128 
C 2042 -128 2669 440 2669 1264 
C 2669 2030 2170 2624 1549 2624 
C 1222 2624 947 2503 730 2274 
L 730 3692 
z
" transform="scale(0.015625)"/>
       </defs>
       <use xlink:href="#CMSY10-0" transform="scale(0.996264)"/>
       <use xlink:href="#CMR17-30" transform="translate(77.487468 0) scale(0.996264)"/>
       <use xlink:href="#CMMI12-3a" transform="translate(123.177945 0) scale(0.996264)"/>
       <use xlink:href="#CMR17-37" transform="translate(150.275122 0) scale(0.996264)"/>
       <use xlink:href="#CMR17-35" transform="translate(195.965599 0) scale(0.996264)"/>
      </g>
     </g>
    </g>
    <g id="xtick_3">
     <g id="line2d_5">
      <g>
       <use xlink:href="#m26e00283c3" x="126.370775" y="188.277415" style="stroke: #000000; stroke-width: 1.2"/>
      </g>
     </g>
     <g id="line2d_6">
      <g>
       <use xlink:href="#mc07591c676" x="126.370775" y="8.17476" style="stroke: #000000; stroke-width: 1.2"/>
      </g>
     </g>
     <g id="text_3">
      <!-- $\mathdefault{−0.50}$ -->
      <g transform="translate(113.640696 198.695913) scale(0.1 -0.1)">
       <use xlink:href="#CMSY10-0" transform="scale(0.996264)"/>
       <use xlink:href="#CMR17-30" transform="translate(77.487468 0) scale(0.996264)"/>
       <use xlink:href="#CMMI12-3a" transform="translate(123.177945 0) scale(0.996264)"/>
       <use xlink:href="#CMR17-35" transform="translate(150.275122 0) scale(0.996264)"/>
       <use xlink:href="#CMR17-30" transform="translate(195.965599 0) scale(0.996264)"/>
      </g>
     </g>
    </g>
    <g id="xtick_4">
     <g id="line2d_7">
      <g>
       <use xlink:href="#m26e00283c3" x="162.875341" y="188.277415" style="stroke: #000000; stroke-width: 1.2"/>
      </g>
     </g>
     <g id="line2d_8">
      <g>
       <use xlink:href="#mc07591c676" x="162.875341" y="8.17476" style="stroke: #000000; stroke-width: 1.2"/>
      </g>
     </g>
     <g id="text_4">
      <!-- $\mathdefault{−0.25}$ -->
      <g transform="translate(150.145262 198.695913) scale(0.1 -0.1)">
       <defs>
        <path id="CMR17-32" d="M 2669 989 
L 2554 989 
C 2490 536 2438 459 2413 420 
C 2381 369 1920 369 1830 369 
L 602 369 
C 832 619 1280 1072 1824 1597 
C 2214 1967 2669 2402 2669 3035 
C 2669 3790 2067 4224 1395 4224 
C 691 4224 262 3604 262 3030 
C 262 2780 448 2748 525 2748 
C 589 2748 781 2787 781 3010 
C 781 3207 614 3264 525 3264 
C 486 3264 448 3258 422 3245 
C 544 3790 915 4058 1306 4058 
C 1862 4058 2227 3617 2227 3035 
C 2227 2479 1901 2000 1536 1584 
L 262 146 
L 262 0 
L 2515 0 
L 2669 989 
z
" transform="scale(0.015625)"/>
       </defs>
       <use xlink:href="#CMSY10-0" transform="scale(0.996264)"/>
       <use xlink:href="#CMR17-30" transform="translate(77.487468 0) scale(0.996264)"/>
       <use xlink:href="#CMMI12-3a" transform="translate(123.177945 0) scale(0.996264)"/>
       <use xlink:href="#CMR17-32" transform="translate(150.275122 0) scale(0.996264)"/>
       <use xlink:href="#CMR17-35" transform="translate(195.965599 0) scale(0.996264)"/>
      </g>
     </g>
    </g>
    <g id="xtick_5">
     <g id="line2d_9">
      <g>
       <use xlink:href="#m26e00283c3" x="199.379908" y="188.277415" style="stroke: #000000; stroke-width: 1.2"/>
      </g>
     </g>
     <g id="line2d_10">
      <g>
       <use xlink:href="#mc07591c676" x="199.379908" y="8.17476" style="stroke: #000000; stroke-width: 1.2"/>
      </g>
     </g>
     <g id="text_5">
      <!-- $\mathdefault{0.00}$ -->
      <g transform="translate(190.524201 198.695913) scale(0.1 -0.1)">
       <use xlink:href="#CMR17-30" transform="scale(0.996264)"/>
       <use xlink:href="#CMMI12-3a" transform="translate(45.690477 0) scale(0.996264)"/>
       <use xlink:href="#CMR17-30" transform="translate(72.787654 0) scale(0.996264)"/>
       <use xlink:href="#CMR17-30" transform="translate(118.478131 0) scale(0.996264)"/>
      </g>
     </g>
    </g>
    <g id="xtick_6">
     <g id="line2d_11">
      <g>
       <use xlink:href="#m26e00283c3" x="235.884474" y="188.277415" style="stroke: #000000; stroke-width: 1.2"/>
      </g>
     </g>
     <g id="line2d_12">
      <g>
       <use xlink:href="#mc07591c676" x="235.884474" y="8.17476" style="stroke: #000000; stroke-width: 1.2"/>
      </g>
     </g>
     <g id="text_6">
      <!-- $\mathdefault{0.25}$ -->
      <g transform="translate(227.028767 198.695913) scale(0.1 -0.1)">
       <use xlink:href="#CMR17-30" transform="scale(0.996264)"/>
       <use xlink:href="#CMMI12-3a" transform="translate(45.690477 0) scale(0.996264)"/>
       <use xlink:href="#CMR17-32" transform="translate(72.787654 0) scale(0.996264)"/>
       <use xlink:href="#CMR17-35" transform="translate(118.478131 0) scale(0.996264)"/>
      </g>
     </g>
    </g>
    <g id="xtick_7">
     <g id="line2d_13">
      <g>
       <use xlink:href="#m26e00283c3" x="272.389041" y="188.277415" style="stroke: #000000; stroke-width: 1.2"/>
      </g>
     </g>
     <g id="line2d_14">
      <g>
       <use xlink:href="#mc07591c676" x="272.389041" y="8.17476" style="stroke: #000000; stroke-width: 1.2"/>
      </g>
     </g>
     <g id="text_7">
      <!-- $\mathdefault{0.50}$ -->
      <g transform="translate(263.533333 198.695913) scale(0.1 -0.1)">
       <use xlink:href="#CMR17-30" transform="scale(0.996264)"/>
       <use xlink:href="#CMMI12-3a" transform="translate(45.690477 0) scale(0.996264)"/>
       <use xlink:href="#CMR17-35" transform="translate(72.787654 0) scale(0.996264)"/>
       <use xlink:href="#CMR17-30" transform="translate(118.478131 0) scale(0.996264)"/>
      </g>
     </g>
    </g>
    <g id="xtick_8">
     <g id="line2d_15">
      <g>
       <use xlink:href="#m26e00283c3" x="308.893607" y="188.277415" style="stroke: #000000; stroke-width: 1.2"/>
      </g>
     </g>
     <g id="line2d_16">
      <g>
       <use xlink:href="#mc07591c676" x="308.893607" y="8.17476" style="stroke: #000000; stroke-width: 1.2"/>
      </g>
     </g>
     <g id="text_8">
      <!-- $\mathdefault{0.75}$ -->
      <g transform="translate(300.0379 198.695913) scale(0.1 -0.1)">
       <use xlink:href="#CMR17-30" transform="scale(0.996264)"/>
       <use xlink:href="#CMMI12-3a" transform="translate(45.690477 0) scale(0.996264)"/>
       <use xlink:href="#CMR17-37" transform="translate(72.787654 0) scale(0.996264)"/>
       <use xlink:href="#CMR17-35" transform="translate(118.478131 0) scale(0.996264)"/>
      </g>
     </g>
    </g>
    <g id="xtick_9">
     <g id="line2d_17">
      <g>
       <use xlink:href="#m26e00283c3" x="345.398173" y="188.277415" style="stroke: #000000; stroke-width: 1.2"/>
      </g>
     </g>
     <g id="line2d_18">
      <g>
       <use xlink:href="#mc07591c676" x="345.398173" y="8.17476" style="stroke: #000000; stroke-width: 1.2"/>
      </g>
     </g>
     <g id="text_9">
      <!-- $\mathdefault{1.00}$ -->
      <g transform="translate(336.542466 198.695913) scale(0.1 -0.1)">
       <use xlink:href="#CMR17-31" transform="scale(0.996264)"/>
       <use xlink:href="#CMMI12-3a" transform="translate(45.690477 0) scale(0.996264)"/>
       <use xlink:href="#CMR17-30" transform="translate(72.787654 0) scale(0.996264)"/>
       <use xlink:href="#CMR17-30" transform="translate(118.478131 0) scale(0.996264)"/>
      </g>
     </g>
    </g>
    <g id="xtick_10">
     <g id="line2d_19">
      <defs>
       <path id="md186652d03" d="M 0 0 
L 0 -2.5 
" style="stroke: #000000; stroke-width: 0.8"/>
      </defs>
      <g>
       <use xlink:href="#md186652d03" x="38.759815" y="188.277415" style="stroke: #000000; stroke-width: 0.8"/>
      </g>
     </g>
     <g id="line2d_20">
      <defs>
       <path id="m3320cfbff5" d="M 0 0 
L 0 2.5 
" style="stroke: #000000; stroke-width: 0.8"/>
      </defs>
      <g>
       <use xlink:href="#m3320cfbff5" x="38.759815" y="8.17476" style="stroke: #000000; stroke-width: 0.8"/>
      </g>
     </g>
    </g>
    <g id="xtick_11">
     <g id="line2d_21">
      <g>
       <use xlink:href="#md186652d03" x="46.060729" y="188.277415" style="stroke: #000000; stroke-width: 0.8"/>
      </g>
     </g>
     <g id="line2d_22">
      <g>
       <use xlink:href="#m3320cfbff5" x="46.060729" y="8.17476" style="stroke: #000000; stroke-width: 0.8"/>
      </g>
     </g>
    </g>
    <g id="xtick_12">
     <g id="line2d_23">
      <g>
       <use xlink:href="#md186652d03" x="60.662555" y="188.277415" style="stroke: #000000; stroke-width: 0.8"/>
      </g>
     </g>
     <g id="line2d_24">
      <g>
       <use xlink:href="#m3320cfbff5" x="60.662555" y="8.17476" style="stroke: #000000; stroke-width: 0.8"/>
      </g>
     </g>
    </g>
    <g id="xtick_13">
     <g id="line2d_25">
      <g>
       <use xlink:href="#md186652d03" x="67.963469" y="188.277415" style="stroke: #000000; stroke-width: 0.8"/>
      </g>
     </g>
     <g id="line2d_26">
      <g>
       <use xlink:href="#m3320cfbff5" x="67.963469" y="8.17476" style="stroke: #000000; stroke-width: 0.8"/>
      </g>
     </g>
    </g>
    <g id="xtick_14">
     <g id="line2d_27">
      <g>
       <use xlink:href="#md186652d03" x="75.264382" y="188.277415" style="stroke: #000000; stroke-width: 0.8"/>
      </g>
     </g>
     <g id="line2d_28">
      <g>
       <use xlink:href="#m3320cfbff5" x="75.264382" y="8.17476" style="stroke: #000000; stroke-width: 0.8"/>
      </g>
     </g>
    </g>
    <g id="xtick_15">
     <g id="line2d_29">
      <g>
       <use xlink:href="#md186652d03" x="82.565295" y="188.277415" style="stroke: #000000; stroke-width: 0.8"/>
      </g>
     </g>
     <g id="line2d_30">
      <g>
       <use xlink:href="#m3320cfbff5" x="82.565295" y="8.17476" style="stroke: #000000; stroke-width: 0.8"/>
      </g>
     </g>
    </g>
    <g id="xtick_16">
     <g id="line2d_31">
      <g>
       <use xlink:href="#md186652d03" x="97.167122" y="188.277415" style="stroke: #000000; stroke-width: 0.8"/>
      </g>
     </g>
     <g id="line2d_32">
      <g>
       <use xlink:href="#m3320cfbff5" x="97.167122" y="8.17476" style="stroke: #000000; stroke-width: 0.8"/>
      </g>
     </g>
    </g>
    <g id="xtick_17">
     <g id="line2d_33">
      <g>
       <use xlink:href="#md186652d03" x="104.468035" y="188.277415" style="stroke: #000000; stroke-width: 0.8"/>
      </g>
     </g>
     <g id="line2d_34">
      <g>
       <use xlink:href="#m3320cfbff5" x="104.468035" y="8.17476" style="stroke: #000000; stroke-width: 0.8"/>
      </g>
     </g>
    </g>
    <g id="xtick_18">
     <g id="line2d_35">
      <g>
       <use xlink:href="#md186652d03" x="111.768948" y="188.277415" style="stroke: #000000; stroke-width: 0.8"/>
      </g>
     </g>
     <g id="line2d_36">
      <g>
       <use xlink:href="#m3320cfbff5" x="111.768948" y="8.17476" style="stroke: #000000; stroke-width: 0.8"/>
      </g>
     </g>
    </g>
    <g id="xtick_19">
     <g id="line2d_37">
      <g>
       <use xlink:href="#md186652d03" x="119.069862" y="188.277415" style="stroke: #000000; stroke-width: 0.8"/>
      </g>
     </g>
     <g id="line2d_38">
      <g>
       <use xlink:href="#m3320cfbff5" x="119.069862" y="8.17476" style="stroke: #000000; stroke-width: 0.8"/>
      </g>
     </g>
    </g>
    <g id="xtick_20">
     <g id="line2d_39">
      <g>
       <use xlink:href="#md186652d03" x="133.671688" y="188.277415" style="stroke: #000000; stroke-width: 0.8"/>
      </g>
     </g>
     <g id="line2d_40">
      <g>
       <use xlink:href="#m3320cfbff5" x="133.671688" y="8.17476" style="stroke: #000000; stroke-width: 0.8"/>
      </g>
     </g>
    </g>
    <g id="xtick_21">
     <g id="line2d_41">
      <g>
       <use xlink:href="#md186652d03" x="140.972601" y="188.277415" style="stroke: #000000; stroke-width: 0.8"/>
      </g>
     </g>
     <g id="line2d_42">
      <g>
       <use xlink:href="#m3320cfbff5" x="140.972601" y="8.17476" style="stroke: #000000; stroke-width: 0.8"/>
      </g>
     </g>
    </g>
    <g id="xtick_22">
     <g id="line2d_43">
      <g>
       <use xlink:href="#md186652d03" x="148.273515" y="188.277415" style="stroke: #000000; stroke-width: 0.8"/>
      </g>
     </g>
     <g id="line2d_44">
      <g>
       <use xlink:href="#m3320cfbff5" x="148.273515" y="8.17476" style="stroke: #000000; stroke-width: 0.8"/>
      </g>
     </g>
    </g>
    <g id="xtick_23">
     <g id="line2d_45">
      <g>
       <use xlink:href="#md186652d03" x="155.574428" y="188.277415" style="stroke: #000000; stroke-width: 0.8"/>
      </g>
     </g>
     <g id="line2d_46">
      <g>
       <use xlink:href="#m3320cfbff5" x="155.574428" y="8.17476" style="stroke: #000000; stroke-width: 0.8"/>
      </g>
     </g>
    </g>
    <g id="xtick_24">
     <g id="line2d_47">
      <g>
       <use xlink:href="#md186652d03" x="170.176255" y="188.277415" style="stroke: #000000; stroke-width: 0.8"/>
      </g>
     </g>
     <g id="line2d_48">
      <g>
       <use xlink:href="#m3320cfbff5" x="170.176255" y="8.17476" style="stroke: #000000; stroke-width: 0.8"/>
      </g>
     </g>
    </g>
    <g id="xtick_25">
     <g id="line2d_49">
      <g>
       <use xlink:href="#md186652d03" x="177.477168" y="188.277415" style="stroke: #000000; stroke-width: 0.8"/>
      </g>
     </g>
     <g id="line2d_50">
      <g>
       <use xlink:href="#m3320cfbff5" x="177.477168" y="8.17476" style="stroke: #000000; stroke-width: 0.8"/>
      </g>
     </g>
    </g>
    <g id="xtick_26">
     <g id="line2d_51">
      <g>
       <use xlink:href="#md186652d03" x="184.778081" y="188.277415" style="stroke: #000000; stroke-width: 0.8"/>
      </g>
     </g>
     <g id="line2d_52">
      <g>
       <use xlink:href="#m3320cfbff5" x="184.778081" y="8.17476" style="stroke: #000000; stroke-width: 0.8"/>
      </g>
     </g>
    </g>
    <g id="xtick_27">
     <g id="line2d_53">
      <g>
       <use xlink:href="#md186652d03" x="192.078994" y="188.277415" style="stroke: #000000; stroke-width: 0.8"/>
      </g>
     </g>
     <g id="line2d_54">
      <g>
       <use xlink:href="#m3320cfbff5" x="192.078994" y="8.17476" style="stroke: #000000; stroke-width: 0.8"/>
      </g>
     </g>
    </g>
    <g id="xtick_28">
     <g id="line2d_55">
      <g>
       <use xlink:href="#md186652d03" x="206.680821" y="188.277415" style="stroke: #000000; stroke-width: 0.8"/>
      </g>
     </g>
     <g id="line2d_56">
      <g>
       <use xlink:href="#m3320cfbff5" x="206.680821" y="8.17476" style="stroke: #000000; stroke-width: 0.8"/>
      </g>
     </g>
    </g>
    <g id="xtick_29">
     <g id="line2d_57">
      <g>
       <use xlink:href="#md186652d03" x="213.981734" y="188.277415" style="stroke: #000000; stroke-width: 0.8"/>
      </g>
     </g>
     <g id="line2d_58">
      <g>
       <use xlink:href="#m3320cfbff5" x="213.981734" y="8.17476" style="stroke: #000000; stroke-width: 0.8"/>
      </g>
     </g>
    </g>
    <g id="xtick_30">
     <g id="line2d_59">
      <g>
       <use xlink:href="#md186652d03" x="221.282648" y="188.277415" style="stroke: #000000; stroke-width: 0.8"/>
      </g>
     </g>
     <g id="line2d_60">
      <g>
       <use xlink:href="#m3320cfbff5" x="221.282648" y="8.17476" style="stroke: #000000; stroke-width: 0.8"/>
      </g>
     </g>
    </g>
    <g id="xtick_31">
     <g id="line2d_61">
      <g>
       <use xlink:href="#md186652d03" x="228.583561" y="188.277415" style="stroke: #000000; stroke-width: 0.8"/>
      </g>
     </g>
     <g id="line2d_62">
      <g>
       <use xlink:href="#m3320cfbff5" x="228.583561" y="8.17476" style="stroke: #000000; stroke-width: 0.8"/>
      </g>
     </g>
    </g>
    <g id="xtick_32">
     <g id="line2d_63">
      <g>
       <use xlink:href="#md186652d03" x="243.185387" y="188.277415" style="stroke: #000000; stroke-width: 0.8"/>
      </g>
     </g>
     <g id="line2d_64">
      <g>
       <use xlink:href="#m3320cfbff5" x="243.185387" y="8.17476" style="stroke: #000000; stroke-width: 0.8"/>
      </g>
     </g>
    </g>
    <g id="xtick_33">
     <g id="line2d_65">
      <g>
       <use xlink:href="#md186652d03" x="250.486301" y="188.277415" style="stroke: #000000; stroke-width: 0.8"/>
      </g>
     </g>
     <g id="line2d_66">
      <g>
       <use xlink:href="#m3320cfbff5" x="250.486301" y="8.17476" style="stroke: #000000; stroke-width: 0.8"/>
      </g>
     </g>
    </g>
    <g id="xtick_34">
     <g id="line2d_67">
      <g>
       <use xlink:href="#md186652d03" x="257.787214" y="188.277415" style="stroke: #000000; stroke-width: 0.8"/>
      </g>
     </g>
     <g id="line2d_68">
      <g>
       <use xlink:href="#m3320cfbff5" x="257.787214" y="8.17476" style="stroke: #000000; stroke-width: 0.8"/>
      </g>
     </g>
    </g>
    <g id="xtick_35">
     <g id="line2d_69">
      <g>
       <use xlink:href="#md186652d03" x="265.088127" y="188.277415" style="stroke: #000000; stroke-width: 0.8"/>
      </g>
     </g>
     <g id="line2d_70">
      <g>
       <use xlink:href="#m3320cfbff5" x="265.088127" y="8.17476" style="stroke: #000000; stroke-width: 0.8"/>
      </g>
     </g>
    </g>
    <g id="xtick_36">
     <g id="line2d_71">
      <g>
       <use xlink:href="#md186652d03" x="279.689954" y="188.277415" style="stroke: #000000; stroke-width: 0.8"/>
      </g>
     </g>
     <g id="line2d_72">
      <g>
       <use xlink:href="#m3320cfbff5" x="279.689954" y="8.17476" style="stroke: #000000; stroke-width: 0.8"/>
      </g>
     </g>
    </g>
    <g id="xtick_37">
     <g id="line2d_73">
      <g>
       <use xlink:href="#md186652d03" x="286.990867" y="188.277415" style="stroke: #000000; stroke-width: 0.8"/>
      </g>
     </g>
     <g id="line2d_74">
      <g>
       <use xlink:href="#m3320cfbff5" x="286.990867" y="8.17476" style="stroke: #000000; stroke-width: 0.8"/>
      </g>
     </g>
    </g>
    <g id="xtick_38">
     <g id="line2d_75">
      <g>
       <use xlink:href="#md186652d03" x="294.29178" y="188.277415" style="stroke: #000000; stroke-width: 0.8"/>
      </g>
     </g>
     <g id="line2d_76">
      <g>
       <use xlink:href="#m3320cfbff5" x="294.29178" y="8.17476" style="stroke: #000000; stroke-width: 0.8"/>
      </g>
     </g>
    </g>
    <g id="xtick_39">
     <g id="line2d_77">
      <g>
       <use xlink:href="#md186652d03" x="301.592694" y="188.277415" style="stroke: #000000; stroke-width: 0.8"/>
      </g>
     </g>
     <g id="line2d_78">
      <g>
       <use xlink:href="#m3320cfbff5" x="301.592694" y="8.17476" style="stroke: #000000; stroke-width: 0.8"/>
      </g>
     </g>
    </g>
    <g id="xtick_40">
     <g id="line2d_79">
      <g>
       <use xlink:href="#md186652d03" x="316.19452" y="188.277415" style="stroke: #000000; stroke-width: 0.8"/>
      </g>
     </g>
     <g id="line2d_80">
      <g>
       <use xlink:href="#m3320cfbff5" x="316.19452" y="8.17476" style="stroke: #000000; stroke-width: 0.8"/>
      </g>
     </g>
    </g>
    <g id="xtick_41">
     <g id="line2d_81">
      <g>
       <use xlink:href="#md186652d03" x="323.495434" y="188.277415" style="stroke: #000000; stroke-width: 0.8"/>
      </g>
     </g>
     <g id="line2d_82">
      <g>
       <use xlink:href="#m3320cfbff5" x="323.495434" y="8.17476" style="stroke: #000000; stroke-width: 0.8"/>
      </g>
     </g>
    </g>
    <g id="xtick_42">
     <g id="line2d_83">
      <g>
       <use xlink:href="#md186652d03" x="330.796347" y="188.277415" style="stroke: #000000; stroke-width: 0.8"/>
      </g>
     </g>
     <g id="line2d_84">
      <g>
       <use xlink:href="#m3320cfbff5" x="330.796347" y="8.17476" style="stroke: #000000; stroke-width: 0.8"/>
      </g>
     </g>
    </g>
    <g id="xtick_43">
     <g id="line2d_85">
      <g>
       <use xlink:href="#md186652d03" x="338.09726" y="188.277415" style="stroke: #000000; stroke-width: 0.8"/>
      </g>
     </g>
     <g id="line2d_86">
      <g>
       <use xlink:href="#m3320cfbff5" x="338.09726" y="8.17476" style="stroke: #000000; stroke-width: 0.8"/>
      </g>
     </g>
    </g>
    <g id="xtick_44">
     <g id="line2d_87">
      <g>
       <use xlink:href="#md186652d03" x="352.699087" y="188.277415" style="stroke: #000000; stroke-width: 0.8"/>
      </g>
     </g>
     <g id="line2d_88">
      <g>
       <use xlink:href="#m3320cfbff5" x="352.699087" y="8.17476" style="stroke: #000000; stroke-width: 0.8"/>
      </g>
     </g>
    </g>
    <g id="xtick_45">
     <g id="line2d_89">
      <g>
       <use xlink:href="#md186652d03" x="360" y="188.277415" style="stroke: #000000; stroke-width: 0.8"/>
      </g>
     </g>
     <g id="line2d_90">
      <g>
       <use xlink:href="#m3320cfbff5" x="360" y="8.17476" style="stroke: #000000; stroke-width: 0.8"/>
      </g>
     </g>
    </g>
    <g id="text_10">
     <!-- Missing Energy ($\text{{GeV}}^2$) -->
     <g transform="translate(148.127562 213.472168) scale(0.1 -0.1)">
      <defs>
       <path id="CMR17-4d" d="M 1338 4224 
C 1299 4320 1293 4320 1158 4320 
L 339 4320 
L 339 4160 
C 781 4160 851 4160 851 3875 
L 851 610 
C 851 451 851 153 339 153 
L 339 -13 
C 486 0 755 0 915 0 
C 1075 0 1344 0 1491 -13 
L 1491 153 
C 979 153 979 451 979 610 
L 979 4135 
L 986 4135 
L 2490 89 
C 2515 25 2528 -13 2579 -13 
C 2630 -13 2643 25 2669 89 
L 4186 4166 
L 4192 4166 
L 4192 438 
C 4192 153 4122 153 3680 153 
L 3680 -13 
C 3853 0 4198 0 4384 0 
C 4570 0 4922 0 5094 -13 
L 5094 153 
C 4653 153 4582 153 4582 438 
L 4582 3875 
C 4582 4160 4653 4160 5094 4160 
L 5094 4320 
L 4282 4320 
C 4147 4320 4141 4314 4102 4218 
L 2720 502 
L 1338 4224 
z
" transform="scale(0.015625)"/>
       <path id="CMR17-69" d="M 992 3909 
C 992 4049 877 4170 730 4170 
C 589 4170 467 4056 467 3909 
C 467 3769 582 3648 730 3648 
C 870 3648 992 3763 992 3909 
z
M 243 2706 
L 243 2541 
C 602 2541 653 2502 653 2197 
L 653 427 
C 653 184 627 153 218 153 
L 218 -13 
C 371 0 646 0 806 0 
C 960 0 1222 0 1370 -13 
L 1370 153 
C 992 153 979 191 979 420 
L 979 2776 
L 243 2706 
z
" transform="scale(0.015625)"/>
       <path id="CMR17-73" d="M 1978 2697 
C 1978 2813 1971 2819 1933 2819 
C 1907 2819 1901 2813 1824 2717 
C 1805 2691 1747 2626 1728 2601 
C 1523 2819 1235 2819 1126 2819 
C 416 2819 160 2447 160 2076 
C 160 1498 813 1365 998 1325 
C 1402 1243 1542 1217 1677 1101 
C 1760 1025 1901 884 1901 654 
C 1901 384 1747 38 1158 38 
C 602 38 403 460 288 1021 
C 269 1110 269 1117 218 1117 
C 166 1117 160 1110 160 983 
L 160 63 
C 160 -51 166 -58 205 -58 
C 237 -58 243 -51 275 0 
C 314 57 410 211 448 276 
C 576 103 800 -64 1158 -64 
C 1792 -64 2131 283 2131 784 
C 2131 1112 1958 1285 1875 1362 
C 1683 1561 1459 1606 1190 1657 
C 838 1735 390 1825 390 2217 
C 390 2383 480 2737 1126 2737 
C 1811 2737 1850 2094 1862 1888 
C 1869 1856 1901 1849 1920 1849 
C 1978 1849 1978 1869 1978 1978 
L 1978 2697 
z
" transform="scale(0.015625)"/>
       <path id="CMR17-6e" d="M 2656 1933 
C 2656 2259 2592 2790 1837 2790 
C 1331 2790 1069 2400 973 2144 
L 966 2144 
L 966 2790 
L 211 2720 
L 211 2554 
C 589 2554 646 2515 646 2208 
L 646 428 
C 646 184 621 153 211 153 
L 211 -13 
C 365 0 646 0 813 0 
C 979 0 1267 0 1421 -13 
L 1421 153 
C 1011 153 986 178 986 428 
L 986 1658 
C 986 2247 1344 2688 1792 2688 
C 2266 2688 2317 2266 2317 1958 
L 2317 428 
C 2317 184 2291 153 1882 153 
L 1882 -13 
C 2035 0 2317 0 2483 0 
C 2650 0 2938 0 3091 -13 
L 3091 153 
C 2682 153 2656 178 2656 428 
L 2656 1933 
z
" transform="scale(0.015625)"/>
       <path id="CMR17-67" d="M 710 1164 
C 832 1068 1043 960 1299 960 
C 1805 960 2240 1357 2240 1888 
C 2240 2054 2189 2310 1997 2509 
C 2176 2692 2438 2752 2586 2752 
C 2611 2752 2650 2752 2682 2734 
C 2656 2728 2598 2703 2598 2605 
C 2598 2527 2656 2471 2739 2471 
C 2835 2471 2886 2533 2886 2614 
C 2886 2731 2790 2854 2586 2854 
C 2330 2854 2106 2738 1926 2580 
C 1734 2753 1504 2816 1299 2816 
C 794 2816 358 2419 358 1888 
C 358 1522 570 1292 634 1228 
C 442 1004 442 743 442 711 
C 442 545 506 302 723 168 
C 390 85 128 -169 128 -486 
C 128 -943 736 -1280 1466 -1280 
C 2170 -1280 2803 -956 2803 -479 
C 2803 384 1856 384 1363 384 
C 1216 384 954 384 922 391 
C 723 423 589 602 589 826 
C 589 883 589 1024 710 1164 
z
M 1299 1068 
C 736 1068 736 1760 736 1889 
C 736 2016 736 2708 1299 2708 
C 1862 2708 1862 2016 1862 1889 
C 1862 1760 1862 1068 1299 1068 
z
M 1466 -1171 
C 826 -1171 384 -835 384 -486 
C 384 -289 493 -105 634 -4 
C 794 104 858 104 1293 104 
C 1818 104 2547 104 2547 -486 
C 2547 -835 2106 -1171 1466 -1171 
z
" transform="scale(0.015625)"/>
       <path id="CMR17-45" d="M 3885 1615 
L 3770 1615 
C 3629 676 3546 166 2419 166 
L 1530 166 
C 1274 166 1261 197 1261 414 
L 1261 2176 
L 1862 2176 
C 2464 2176 2522 1960 2522 1430 
L 2637 1430 
L 2637 3081 
L 2522 3081 
C 2522 2557 2464 2342 1862 2342 
L 1261 2342 
L 1261 3913 
C 1261 4128 1274 4160 1530 4160 
L 2406 4160 
C 3398 4160 3514 3769 3603 2929 
L 3718 2929 
L 3565 4325 
L 326 4325 
L 326 4160 
C 768 4160 838 4160 838 3874 
L 838 451 
C 838 166 768 166 326 166 
L 326 0 
L 3654 0 
L 3885 1615 
z
" transform="scale(0.015625)"/>
       <path id="CMR17-65" d="M 2438 1472 
C 2464 1498 2464 1511 2464 1576 
C 2464 2238 2118 2816 1389 2816 
C 710 2816 173 2169 173 1383 
C 173 551 781 -64 1459 -64 
C 2176 -64 2458 607 2458 740 
C 2458 784 2419 784 2406 784 
C 2362 784 2355 771 2330 696 
C 2189 265 1837 51 1504 51 
C 1229 51 954 203 781 480 
C 582 803 582 1176 582 1472 
L 2438 1472 
z
M 589 1568 
C 634 2505 1126 2714 1382 2714 
C 1818 2714 2112 2297 2118 1568 
L 589 1568 
z
" transform="scale(0.015625)"/>
       <path id="CMR17-72" d="M 960 1497 
C 960 2112 1222 2688 1702 2688 
C 1747 2688 1792 2682 1837 2662 
C 1837 2662 1696 2617 1696 2452 
C 1696 2298 1818 2234 1914 2234 
C 1990 2234 2131 2279 2131 2458 
C 2131 2663 1926 2790 1709 2790 
C 1222 2790 1011 2317 947 2093 
L 941 2093 
L 941 2790 
L 198 2720 
L 198 2554 
C 576 2554 634 2515 634 2208 
L 634 428 
C 634 184 608 153 198 153 
L 198 -13 
C 352 0 646 0 813 0 
C 998 0 1325 0 1498 -13 
L 1498 153 
C 1037 153 960 153 960 440 
L 960 1497 
z
" transform="scale(0.015625)"/>
       <path id="CMR17-79" d="M 2496 2197 
C 2656 2586 2944 2586 3034 2586 
L 3034 2752 
C 2912 2752 2752 2752 2630 2752 
C 2496 2752 2285 2752 2157 2758 
L 2157 2592 
C 2400 2573 2406 2394 2406 2343 
C 2406 2280 2394 2248 2362 2171 
L 1664 449 
L 902 2306 
C 870 2382 870 2426 870 2433 
C 870 2573 1018 2586 1171 2586 
L 1171 2758 
C 1018 2752 742 2752 582 2752 
C 410 2752 205 2752 64 2758 
L 64 2586 
C 410 2586 448 2554 531 2350 
L 1485 15 
C 1197 -738 1030 -1178 627 -1178 
C 557 -1178 397 -1159 282 -1044 
C 429 -1031 493 -942 493 -833 
C 493 -725 416 -629 288 -629 
C 147 -629 77 -725 77 -840 
C 77 -1095 339 -1280 627 -1280 
C 998 -1280 1229 -922 1357 -604 
L 2496 2197 
z
" transform="scale(0.015625)"/>
       <path id="CMR17-28" d="M 1958 -1561 
C 1958 -1555 1958 -1542 1939 -1523 
C 1645 -1224 858 -407 858 1581 
C 858 3569 1632 4379 1946 4697 
C 1946 4704 1958 4717 1958 4736 
C 1958 4755 1939 4768 1914 4768 
C 1843 4768 1299 4296 986 3594 
C 666 2887 576 2199 576 1588 
C 576 1128 621 351 1005 -471 
C 1312 -1135 1837 -1600 1914 -1600 
C 1946 -1600 1958 -1587 1958 -1561 
z
" transform="scale(0.015625)"/>
       <path id="CMR17-47" d="M 3974 1233 
C 3974 1473 3994 1505 4390 1505 
L 4390 1670 
C 4237 1664 3891 1664 3718 1664 
C 3539 1664 3040 1664 2797 1664 
L 2797 1505 
L 2989 1505 
C 3539 1505 3552 1434 3552 1201 
L 3552 774 
C 3552 63 2720 63 2522 63 
C 1862 63 781 511 781 2160 
C 781 3808 1843 4250 2464 4250 
C 3187 4250 3712 3626 3834 2741 
C 3846 2664 3846 2651 3904 2651 
C 3974 2651 3974 2664 3974 2779 
L 3974 4288 
C 3974 4402 3968 4409 3930 4409 
C 3904 4409 3898 4402 3853 4326 
L 3571 3791 
C 3258 4187 2874 4416 2381 4416 
C 1286 4416 294 3456 294 2148 
C 294 845 1267 -128 2394 -128 
C 2912 -128 3418 56 3616 417 
C 3725 158 3904 -20 3936 -20 
C 3968 -20 3974 -13 3974 100 
L 3974 1233 
z
" transform="scale(0.015625)"/>
       <path id="CMR17-56" d="M 3776 3745 
C 3834 3886 3936 4160 4365 4160 
L 4365 4332 
C 4218 4319 4051 4319 3891 4319 
C 3738 4319 3475 4319 3328 4332 
L 3328 4160 
C 3648 4160 3661 3936 3661 3898 
C 3661 3827 3642 3783 3622 3732 
L 2362 446 
L 1043 3886 
C 1024 3931 1011 3963 1011 3994 
C 1011 4160 1267 4160 1402 4160 
L 1402 4319 
C 1197 4319 896 4319 685 4319 
C 518 4319 218 4319 64 4332 
L 64 4160 
C 435 4160 506 4135 582 3931 
L 2106 -26 
C 2138 -115 2144 -128 2214 -128 
C 2285 -128 2291 -115 2323 -26 
L 3776 3745 
z
" transform="scale(0.015625)"/>
       <path id="CMR17-29" d="M 1683 1581 
C 1683 2040 1638 2817 1254 3639 
C 947 4303 422 4768 346 4768 
C 326 4768 301 4761 301 4729 
C 301 4717 307 4710 314 4697 
C 621 4378 1402 3568 1402 1584 
C 1402 -407 627 -1217 314 -1537 
C 307 -1549 301 -1556 301 -1568 
C 301 -1600 326 -1600 346 -1600 
C 416 -1600 960 -1128 1274 -426 
C 1594 281 1683 969 1683 1581 
z
" transform="scale(0.015625)"/>
      </defs>
      <use xlink:href="#CMR17-4d" transform="scale(0.996264)"/>
      <use xlink:href="#CMR17-69" transform="translate(84.686941 0) scale(0.996264)"/>
      <use xlink:href="#CMR17-73" transform="translate(109.557999 0) scale(0.996264)"/>
      <use xlink:href="#CMR17-73" transform="translate(145.359337 0) scale(0.996264)"/>
      <use xlink:href="#CMR17-69" transform="translate(181.160674 0) scale(0.996264)"/>
      <use xlink:href="#CMR17-6e" transform="translate(206.031733 0) scale(0.996264)"/>
      <use xlink:href="#CMR17-67" transform="translate(256.927103 0) scale(0.996264)"/>
      <use xlink:href="#CMR17-45" transform="translate(332.693546 0) scale(0.996264)"/>
      <use xlink:href="#CMR17-6e" transform="translate(395.279847 0) scale(0.996264)"/>
      <use xlink:href="#CMR17-65" transform="translate(446.175216 0) scale(0.996264)"/>
      <use xlink:href="#CMR17-72" transform="translate(486.660877 0) scale(0.996264)"/>
      <use xlink:href="#CMR17-67" transform="translate(521.941645 0) scale(0.996264)"/>
      <use xlink:href="#CMR17-79" transform="translate(567.632122 0) scale(0.996264)"/>
      <use xlink:href="#CMR17-28" transform="translate(646.001004 0) scale(0.996264)"/>
      <use xlink:href="#CMR17-47" transform="translate(681.281772 0) scale(0.996264)"/>
      <use xlink:href="#CMR17-65" transform="translate(753.637118 0) scale(0.996264)"/>
      <use xlink:href="#CMR17-56" transform="translate(794.122778 0) scale(0.996264)"/>
      <use xlink:href="#CMR17-32" transform="translate(863.195208 41.137482) scale(0.697382)"/>
      <use xlink:href="#CMR17-29" transform="translate(895.676522 0) scale(0.996264)"/>
     </g>
    </g>
   </g>
   <g id="matplotlib.axis_2">
    <g id="ytick_1">
     <g id="line2d_91">
      <defs>
       <path id="mca297eaf37" d="M 0 0 
L 4 0 
" style="stroke: #000000; stroke-width: 1.2"/>
      </defs>
      <g>
       <use xlink:href="#mca297eaf37" x="38.759815" y="188.277415" style="stroke: #000000; stroke-width: 1.2"/>
      </g>
     </g>
     <g id="line2d_92">
      <defs>
       <path id="mc99edf6ee1" d="M 0 0 
L -4 0 
" style="stroke: #000000; stroke-width: 1.2"/>
      </defs>
      <g>
       <use xlink:href="#mc99edf6ee1" x="360" y="188.277415" style="stroke: #000000; stroke-width: 1.2"/>
      </g>
     </g>
     <g id="text_11">
      <!-- $\mathdefault{0.0}$ -->
      <g transform="translate(22.529736 191.736664) scale(0.1 -0.1)">
       <use xlink:href="#CMR17-30" transform="scale(0.996264)"/>
       <use xlink:href="#CMMI12-3a" transform="translate(45.690477 0) scale(0.996264)"/>
       <use xlink:href="#CMR17-30" transform="translate(72.787654 0) scale(0.996264)"/>
      </g>
     </g>
    </g>
    <g id="ytick_2">
     <g id="line2d_93">
      <g>
       <use xlink:href="#mca297eaf37" x="38.759815" y="152.753781" style="stroke: #000000; stroke-width: 1.2"/>
      </g>
     </g>
     <g id="line2d_94">
      <g>
       <use xlink:href="#mc99edf6ee1" x="360" y="152.753781" style="stroke: #000000; stroke-width: 1.2"/>
      </g>
     </g>
     <g id="text_12">
      <!-- $\mathdefault{0.5}$ -->
      <g transform="translate(22.529736 156.213031) scale(0.1 -0.1)">
       <use xlink:href="#CMR17-30" transform="scale(0.996264)"/>
       <use xlink:href="#CMMI12-3a" transform="translate(45.690477 0) scale(0.996264)"/>
       <use xlink:href="#CMR17-35" transform="translate(72.787654 0) scale(0.996264)"/>
      </g>
     </g>
    </g>
    <g id="ytick_3">
     <g id="line2d_95">
      <g>
       <use xlink:href="#mca297eaf37" x="38.759815" y="117.230148" style="stroke: #000000; stroke-width: 1.2"/>
      </g>
     </g>
     <g id="line2d_96">
      <g>
       <use xlink:href="#mc99edf6ee1" x="360" y="117.230148" style="stroke: #000000; stroke-width: 1.2"/>
      </g>
     </g>
     <g id="text_13">
      <!-- $\mathdefault{1.0}$ -->
      <g transform="translate(22.529736 120.689398) scale(0.1 -0.1)">
       <use xlink:href="#CMR17-31" transform="scale(0.996264)"/>
       <use xlink:href="#CMMI12-3a" transform="translate(45.690477 0) scale(0.996264)"/>
       <use xlink:href="#CMR17-30" transform="translate(72.787654 0) scale(0.996264)"/>
      </g>
     </g>
    </g>
    <g id="ytick_4">
     <g id="line2d_97">
      <g>
       <use xlink:href="#mca297eaf37" x="38.759815" y="81.706515" style="stroke: #000000; stroke-width: 1.2"/>
      </g>
     </g>
     <g id="line2d_98">
      <g>
       <use xlink:href="#mc99edf6ee1" x="360" y="81.706515" style="stroke: #000000; stroke-width: 1.2"/>
      </g>
     </g>
     <g id="text_14">
      <!-- $\mathdefault{1.5}$ -->
      <g transform="translate(22.529736 85.165765) scale(0.1 -0.1)">
       <use xlink:href="#CMR17-31" transform="scale(0.996264)"/>
       <use xlink:href="#CMMI12-3a" transform="translate(45.690477 0) scale(0.996264)"/>
       <use xlink:href="#CMR17-35" transform="translate(72.787654 0) scale(0.996264)"/>
      </g>
     </g>
    </g>
    <g id="ytick_5">
     <g id="line2d_99">
      <g>
       <use xlink:href="#mca297eaf37" x="38.759815" y="46.182882" style="stroke: #000000; stroke-width: 1.2"/>
      </g>
     </g>
     <g id="line2d_100">
      <g>
       <use xlink:href="#mc99edf6ee1" x="360" y="46.182882" style="stroke: #000000; stroke-width: 1.2"/>
      </g>
     </g>
     <g id="text_15">
      <!-- $\mathdefault{2.0}$ -->
      <g transform="translate(22.529736 49.642131) scale(0.1 -0.1)">
       <use xlink:href="#CMR17-32" transform="scale(0.996264)"/>
       <use xlink:href="#CMMI12-3a" transform="translate(45.690477 0) scale(0.996264)"/>
       <use xlink:href="#CMR17-30" transform="translate(72.787654 0) scale(0.996264)"/>
      </g>
     </g>
    </g>
    <g id="ytick_6">
     <g id="line2d_101">
      <g>
       <use xlink:href="#mca297eaf37" x="38.759815" y="10.659249" style="stroke: #000000; stroke-width: 1.2"/>
      </g>
     </g>
     <g id="line2d_102">
      <g>
       <use xlink:href="#mc99edf6ee1" x="360" y="10.659249" style="stroke: #000000; stroke-width: 1.2"/>
      </g>
     </g>
     <g id="text_16">
      <!-- $\mathdefault{2.5}$ -->
      <g transform="translate(22.529736 14.118498) scale(0.1 -0.1)">
       <use xlink:href="#CMR17-32" transform="scale(0.996264)"/>
       <use xlink:href="#CMMI12-3a" transform="translate(45.690477 0) scale(0.996264)"/>
       <use xlink:href="#CMR17-35" transform="translate(72.787654 0) scale(0.996264)"/>
      </g>
     </g>
    </g>
    <g id="ytick_7">
     <g id="line2d_103">
      <defs>
       <path id="m12a7b070f4" d="M 0 0 
L 2.5 0 
" style="stroke: #000000; stroke-width: 0.8"/>
      </defs>
      <g>
       <use xlink:href="#m12a7b070f4" x="38.759815" y="181.172688" style="stroke: #000000; stroke-width: 0.8"/>
      </g>
     </g>
     <g id="line2d_104">
      <defs>
       <path id="md3c3eab81b" d="M 0 0 
L -2.5 0 
" style="stroke: #000000; stroke-width: 0.8"/>
      </defs>
      <g>
       <use xlink:href="#md3c3eab81b" x="360" y="181.172688" style="stroke: #000000; stroke-width: 0.8"/>
      </g>
     </g>
    </g>
    <g id="ytick_8">
     <g id="line2d_105">
      <g>
       <use xlink:href="#m12a7b070f4" x="38.759815" y="174.067961" style="stroke: #000000; stroke-width: 0.8"/>
      </g>
     </g>
     <g id="line2d_106">
      <g>
       <use xlink:href="#md3c3eab81b" x="360" y="174.067961" style="stroke: #000000; stroke-width: 0.8"/>
      </g>
     </g>
    </g>
    <g id="ytick_9">
     <g id="line2d_107">
      <g>
       <use xlink:href="#m12a7b070f4" x="38.759815" y="166.963235" style="stroke: #000000; stroke-width: 0.8"/>
      </g>
     </g>
     <g id="line2d_108">
      <g>
       <use xlink:href="#md3c3eab81b" x="360" y="166.963235" style="stroke: #000000; stroke-width: 0.8"/>
      </g>
     </g>
    </g>
    <g id="ytick_10">
     <g id="line2d_109">
      <g>
       <use xlink:href="#m12a7b070f4" x="38.759815" y="159.858508" style="stroke: #000000; stroke-width: 0.8"/>
      </g>
     </g>
     <g id="line2d_110">
      <g>
       <use xlink:href="#md3c3eab81b" x="360" y="159.858508" style="stroke: #000000; stroke-width: 0.8"/>
      </g>
     </g>
    </g>
    <g id="ytick_11">
     <g id="line2d_111">
      <g>
       <use xlink:href="#m12a7b070f4" x="38.759815" y="145.649055" style="stroke: #000000; stroke-width: 0.8"/>
      </g>
     </g>
     <g id="line2d_112">
      <g>
       <use xlink:href="#md3c3eab81b" x="360" y="145.649055" style="stroke: #000000; stroke-width: 0.8"/>
      </g>
     </g>
    </g>
    <g id="ytick_12">
     <g id="line2d_113">
      <g>
       <use xlink:href="#m12a7b070f4" x="38.759815" y="138.544328" style="stroke: #000000; stroke-width: 0.8"/>
      </g>
     </g>
     <g id="line2d_114">
      <g>
       <use xlink:href="#md3c3eab81b" x="360" y="138.544328" style="stroke: #000000; stroke-width: 0.8"/>
      </g>
     </g>
    </g>
    <g id="ytick_13">
     <g id="line2d_115">
      <g>
       <use xlink:href="#m12a7b070f4" x="38.759815" y="131.439602" style="stroke: #000000; stroke-width: 0.8"/>
      </g>
     </g>
     <g id="line2d_116">
      <g>
       <use xlink:href="#md3c3eab81b" x="360" y="131.439602" style="stroke: #000000; stroke-width: 0.8"/>
      </g>
     </g>
    </g>
    <g id="ytick_14">
     <g id="line2d_117">
      <g>
       <use xlink:href="#m12a7b070f4" x="38.759815" y="124.334875" style="stroke: #000000; stroke-width: 0.8"/>
      </g>
     </g>
     <g id="line2d_118">
      <g>
       <use xlink:href="#md3c3eab81b" x="360" y="124.334875" style="stroke: #000000; stroke-width: 0.8"/>
      </g>
     </g>
    </g>
    <g id="ytick_15">
     <g id="line2d_119">
      <g>
       <use xlink:href="#m12a7b070f4" x="38.759815" y="110.125422" style="stroke: #000000; stroke-width: 0.8"/>
      </g>
     </g>
     <g id="line2d_120">
      <g>
       <use xlink:href="#md3c3eab81b" x="360" y="110.125422" style="stroke: #000000; stroke-width: 0.8"/>
      </g>
     </g>
    </g>
    <g id="ytick_16">
     <g id="line2d_121">
      <g>
       <use xlink:href="#m12a7b070f4" x="38.759815" y="103.020695" style="stroke: #000000; stroke-width: 0.8"/>
      </g>
     </g>
     <g id="line2d_122">
      <g>
       <use xlink:href="#md3c3eab81b" x="360" y="103.020695" style="stroke: #000000; stroke-width: 0.8"/>
      </g>
     </g>
    </g>
    <g id="ytick_17">
     <g id="line2d_123">
      <g>
       <use xlink:href="#m12a7b070f4" x="38.759815" y="95.915969" style="stroke: #000000; stroke-width: 0.8"/>
      </g>
     </g>
     <g id="line2d_124">
      <g>
       <use xlink:href="#md3c3eab81b" x="360" y="95.915969" style="stroke: #000000; stroke-width: 0.8"/>
      </g>
     </g>
    </g>
    <g id="ytick_18">
     <g id="line2d_125">
      <g>
       <use xlink:href="#m12a7b070f4" x="38.759815" y="88.811242" style="stroke: #000000; stroke-width: 0.8"/>
      </g>
     </g>
     <g id="line2d_126">
      <g>
       <use xlink:href="#md3c3eab81b" x="360" y="88.811242" style="stroke: #000000; stroke-width: 0.8"/>
      </g>
     </g>
    </g>
    <g id="ytick_19">
     <g id="line2d_127">
      <g>
       <use xlink:href="#m12a7b070f4" x="38.759815" y="74.601789" style="stroke: #000000; stroke-width: 0.8"/>
      </g>
     </g>
     <g id="line2d_128">
      <g>
       <use xlink:href="#md3c3eab81b" x="360" y="74.601789" style="stroke: #000000; stroke-width: 0.8"/>
      </g>
     </g>
    </g>
    <g id="ytick_20">
     <g id="line2d_129">
      <g>
       <use xlink:href="#m12a7b070f4" x="38.759815" y="67.497062" style="stroke: #000000; stroke-width: 0.8"/>
      </g>
     </g>
     <g id="line2d_130">
      <g>
       <use xlink:href="#md3c3eab81b" x="360" y="67.497062" style="stroke: #000000; stroke-width: 0.8"/>
      </g>
     </g>
    </g>
    <g id="ytick_21">
     <g id="line2d_131">
      <g>
       <use xlink:href="#m12a7b070f4" x="38.759815" y="60.392335" style="stroke: #000000; stroke-width: 0.8"/>
      </g>
     </g>
     <g id="line2d_132">
      <g>
       <use xlink:href="#md3c3eab81b" x="360" y="60.392335" style="stroke: #000000; stroke-width: 0.8"/>
      </g>
     </g>
    </g>
    <g id="ytick_22">
     <g id="line2d_133">
      <g>
       <use xlink:href="#m12a7b070f4" x="38.759815" y="53.287609" style="stroke: #000000; stroke-width: 0.8"/>
      </g>
     </g>
     <g id="line2d_134">
      <g>
       <use xlink:href="#md3c3eab81b" x="360" y="53.287609" style="stroke: #000000; stroke-width: 0.8"/>
      </g>
     </g>
    </g>
    <g id="ytick_23">
     <g id="line2d_135">
      <g>
       <use xlink:href="#m12a7b070f4" x="38.759815" y="39.078156" style="stroke: #000000; stroke-width: 0.8"/>
      </g>
     </g>
     <g id="line2d_136">
      <g>
       <use xlink:href="#md3c3eab81b" x="360" y="39.078156" style="stroke: #000000; stroke-width: 0.8"/>
      </g>
     </g>
    </g>
    <g id="ytick_24">
     <g id="line2d_137">
      <g>
       <use xlink:href="#m12a7b070f4" x="38.759815" y="31.973429" style="stroke: #000000; stroke-width: 0.8"/>
      </g>
     </g>
     <g id="line2d_138">
      <g>
       <use xlink:href="#md3c3eab81b" x="360" y="31.973429" style="stroke: #000000; stroke-width: 0.8"/>
      </g>
     </g>
    </g>
    <g id="ytick_25">
     <g id="line2d_139">
      <g>
       <use xlink:href="#m12a7b070f4" x="38.759815" y="24.868702" style="stroke: #000000; stroke-width: 0.8"/>
      </g>
     </g>
     <g id="line2d_140">
      <g>
       <use xlink:href="#md3c3eab81b" x="360" y="24.868702" style="stroke: #000000; stroke-width: 0.8"/>
      </g>
     </g>
    </g>
    <g id="ytick_26">
     <g id="line2d_141">
      <g>
       <use xlink:href="#m12a7b070f4" x="38.759815" y="17.763976" style="stroke: #000000; stroke-width: 0.8"/>
      </g>
     </g>
     <g id="line2d_142">
      <g>
       <use xlink:href="#md3c3eab81b" x="360" y="17.763976" style="stroke: #000000; stroke-width: 0.8"/>
      </g>
     </g>
    </g>
    <g id="text_17">
     <!-- Normalized Counts / 0.02 ($\text{GeV}^2$) -->
     <g transform="translate(16.039076 172.351034) rotate(-90) scale(0.1 -0.1)">
      <defs>
       <path id="CMR17-4e" d="M 1312 4250 
C 1267 4320 1261 4320 1139 4320 
L 326 4320 
L 326 4160 
L 448 4160 
C 704 4160 819 4129 838 4122 
L 838 610 
C 838 451 838 153 326 153 
L 326 -13 
C 474 0 742 0 902 0 
C 1062 0 1331 0 1478 -13 
L 1478 153 
C 966 153 966 451 966 610 
L 966 4033 
C 1011 3995 1011 3982 1056 3919 
L 3430 76 
C 3475 0 3494 0 3526 0 
C 3590 0 3590 19 3590 139 
L 3590 3705 
C 3590 3863 3590 4160 4102 4160 
L 4102 4326 
C 3955 4320 3686 4320 3526 4320 
C 3366 4320 3098 4320 2950 4326 
L 2950 4160 
C 3462 4160 3462 3862 3462 3703 
L 3462 763 
L 1312 4250 
z
" transform="scale(0.015625)"/>
       <path id="CMR17-6f" d="M 2758 1356 
C 2758 2176 2163 2816 1466 2816 
C 768 2816 173 2176 173 1356 
C 173 551 768 -64 1466 -64 
C 2163 -64 2758 551 2758 1356 
z
M 1466 51 
C 1165 51 909 230 762 480 
C 602 767 582 1126 582 1408 
C 582 1677 595 2010 762 2298 
C 890 2509 1139 2714 1466 2714 
C 1754 2714 1997 2554 2150 2330 
C 2349 2029 2349 1607 2349 1408 
C 2349 1158 2336 775 2163 467 
C 1984 173 1709 51 1466 51 
z
" transform="scale(0.015625)"/>
       <path id="CMR17-6d" d="M 4326 1933 
C 4326 2252 4269 2790 3507 2790 
C 3072 2790 2771 2496 2656 2151 
L 2650 2151 
C 2573 2676 2195 2790 1837 2790 
C 1331 2790 1069 2400 973 2144 
L 966 2144 
L 966 2790 
L 211 2720 
L 211 2554 
C 589 2554 646 2515 646 2208 
L 646 428 
C 646 184 621 153 211 153 
L 211 -13 
C 365 0 646 0 813 0 
C 979 0 1267 0 1421 -13 
L 1421 153 
C 1011 153 986 178 986 428 
L 986 1658 
C 986 2247 1344 2688 1792 2688 
C 2266 2688 2317 2266 2317 1958 
L 2317 428 
C 2317 184 2291 153 1882 153 
L 1882 -13 
C 2035 0 2317 0 2483 0 
C 2650 0 2938 0 3091 -13 
L 3091 153 
C 2682 153 2656 178 2656 428 
L 2656 1658 
C 2656 2247 3014 2688 3462 2688 
C 3936 2688 3987 2266 3987 1958 
L 3987 428 
C 3987 184 3962 153 3552 153 
L 3552 -13 
C 3706 0 3987 0 4154 0 
C 4320 0 4608 0 4762 -13 
L 4762 153 
C 4352 153 4326 178 4326 428 
L 4326 1933 
z
" transform="scale(0.015625)"/>
       <path id="CMR17-61" d="M 2304 1653 
C 2304 2072 2304 2294 2035 2543 
C 1798 2752 1523 2816 1306 2816 
C 800 2816 435 2407 435 1971 
C 435 1728 627 1728 666 1728 
C 749 1728 896 1778 896 1954 
C 896 2112 774 2181 666 2181 
C 640 2181 608 2174 589 2168 
C 723 2592 1069 2714 1293 2714 
C 1613 2714 1965 2429 1965 1885 
L 1965 1600 
C 1587 1600 1133 1549 774 1357 
C 371 1133 256 813 256 570 
C 256 77 832 -64 1171 -64 
C 1523 -64 1850 139 1990 511 
C 2003 233 2182 -18 2464 -18 
C 2598 -18 2938 70 2938 567 
L 2938 920 
L 2822 920 
L 2822 562 
C 2822 178 2650 128 2566 128 
C 2304 128 2304 458 2304 738 
L 2304 1653 
z
M 1965 870 
C 1965 317 1568 38 1216 38 
C 896 38 646 275 646 570 
C 646 761 730 1100 1101 1305 
C 1408 1478 1760 1504 1965 1504 
L 1965 870 
z
" transform="scale(0.015625)"/>
       <path id="CMR17-6c" d="M 979 4396 
L 218 4326 
L 218 4160 
C 595 4160 653 4122 653 3817 
L 653 426 
C 653 184 627 153 218 153 
L 218 -13 
C 371 0 653 0 813 0 
C 979 0 1261 0 1414 -13 
L 1414 153 
C 1005 153 979 178 979 426 
L 979 4396 
z
" transform="scale(0.015625)"/>
       <path id="CMR17-7a" d="M 2310 2605 
C 2362 2670 2362 2682 2362 2695 
C 2362 2752 2336 2752 2221 2752 
L 275 2752 
L 211 1760 
L 326 1760 
C 371 2381 442 2650 1178 2650 
L 1958 2650 
L 128 96 
C 128 0 134 0 269 0 
L 2291 0 
L 2381 1152 
L 2266 1152 
C 2214 442 2131 115 1350 115 
L 531 115 
L 2310 2605 
z
" transform="scale(0.015625)"/>
       <path id="CMR17-64" d="M 1869 4326 
L 1869 4160 
C 2246 4160 2304 4122 2304 3820 
L 2304 2345 
C 2278 2377 2016 2790 1498 2790 
C 845 2790 211 2208 211 1364 
C 211 525 806 -64 1434 -64 
C 1978 -64 2259 337 2291 380 
L 2291 -63 
L 3066 -63 
L 3066 128 
C 2688 128 2630 166 2630 473 
L 2630 4396 
L 1869 4326 
z
M 2291 755 
C 2291 563 2176 390 2029 262 
C 1811 70 1594 38 1472 38 
C 1286 38 621 134 621 1356 
C 621 2612 1363 2688 1530 2688 
C 1824 2688 2061 2522 2208 2291 
C 2291 2157 2291 2138 2291 2023 
L 2291 755 
z
" transform="scale(0.015625)"/>
       <path id="CMR17-43" d="M 3974 4289 
C 3974 4403 3968 4410 3930 4410 
C 3904 4410 3898 4403 3853 4327 
L 3571 3792 
C 3258 4187 2874 4416 2381 4416 
C 1286 4416 294 3456 294 2148 
C 294 826 1286 -128 2387 -128 
C 3366 -128 3974 730 3974 1461 
C 3974 1524 3974 1550 3917 1550 
C 3866 1550 3866 1531 3859 1474 
C 3808 585 3168 38 2477 38 
C 1824 38 781 495 781 2147 
C 781 3805 1843 4250 2464 4250 
C 3187 4250 3712 3628 3834 2745 
C 3846 2668 3846 2655 3904 2655 
C 3974 2655 3974 2668 3974 2783 
L 3974 4289 
z
" transform="scale(0.015625)"/>
       <path id="CMR17-75" d="M 1882 2693 
L 1882 2528 
C 2259 2528 2317 2489 2317 2186 
L 2317 1032 
C 2317 500 2029 38 1555 38 
C 1030 38 986 348 986 678 
L 986 2763 
L 211 2693 
L 211 2528 
C 467 2528 640 2528 646 2274 
L 646 1058 
C 646 633 646 361 813 183 
C 896 101 1056 -64 1517 -64 
C 2061 -64 2272 377 2323 506 
L 2330 506 
L 2330 -63 
L 3091 -63 
L 3091 128 
C 2714 128 2656 166 2656 473 
L 2656 2763 
L 1882 2693 
z
" transform="scale(0.015625)"/>
       <path id="CMR17-74" d="M 966 2560 
L 1862 2560 
L 1862 2725 
L 966 2725 
L 966 3904 
L 851 3904 
C 838 3245 614 2668 70 2668 
L 70 2560 
L 627 2560 
L 627 771 
C 627 650 627 -64 1370 -64 
C 1747 -64 1965 306 1965 777 
L 1965 1140 
L 1850 1140 
L 1850 783 
C 1850 344 1677 51 1408 51 
C 1222 51 966 178 966 758 
L 966 2560 
z
" transform="scale(0.015625)"/>
       <path id="CMR17-2f" d="M 2605 4545 
C 2637 4627 2637 4640 2637 4653 
C 2637 4729 2579 4768 2528 4768 
C 2451 4768 2426 4717 2400 4640 
L 326 -1377 
C 294 -1460 294 -1473 294 -1486 
C 294 -1562 352 -1600 403 -1600 
C 480 -1600 506 -1549 531 -1473 
L 2605 4545 
z
" transform="scale(0.015625)"/>
       <path id="CMR17-2e" d="M 1062 261 
C 1062 420 934 522 800 522 
C 672 522 538 420 538 261 
C 538 102 666 0 800 0 
C 928 0 1062 102 1062 261 
z
" transform="scale(0.015625)"/>
      </defs>
      <use xlink:href="#CMR17-4e" transform="scale(0.996264)"/>
      <use xlink:href="#CMR17-6f" transform="translate(69.07243 0) scale(0.996264)"/>
      <use xlink:href="#CMR17-72" transform="translate(114.762907 0) scale(0.996264)"/>
      <use xlink:href="#CMR17-6d" transform="translate(150.043675 0) scale(0.996264)"/>
      <use xlink:href="#CMR17-61" transform="translate(226.963265 0) scale(0.996264)"/>
      <use xlink:href="#CMR17-6c" transform="translate(272.653742 0) scale(0.996264)"/>
      <use xlink:href="#CMR17-69" transform="translate(297.5248 0) scale(0.996264)"/>
      <use xlink:href="#CMR17-7a" transform="translate(322.395859 0) scale(0.996264)"/>
      <use xlink:href="#CMR17-65" transform="translate(362.881519 0) scale(0.996264)"/>
      <use xlink:href="#CMR17-64" transform="translate(403.36718 0) scale(0.996264)"/>
      <use xlink:href="#CMR17-43" transform="translate(484.338516 0) scale(0.996264)"/>
      <use xlink:href="#CMR17-6f" transform="translate(550.848396 0) scale(0.996264)"/>
      <use xlink:href="#CMR17-75" transform="translate(596.538873 0) scale(0.996264)"/>
      <use xlink:href="#CMR17-6e" transform="translate(647.434243 0) scale(0.996264)"/>
      <use xlink:href="#CMR17-74" transform="translate(695.727159 0) scale(0.996264)"/>
      <use xlink:href="#CMR17-73" transform="translate(731.007927 0) scale(0.996264)"/>
      <use xlink:href="#CMR17-2f" transform="translate(796.885231 0) scale(0.996264)"/>
      <use xlink:href="#CMR17-30" transform="translate(872.651674 0) scale(0.996264)"/>
      <use xlink:href="#CMR17-2e" transform="translate(918.342151 0) scale(0.996264)"/>
      <use xlink:href="#CMR17-30" transform="translate(943.21321 0) scale(0.996264)"/>
      <use xlink:href="#CMR17-32" transform="translate(988.903687 0) scale(0.996264)"/>
      <use xlink:href="#CMR17-28" transform="translate(1064.67013 0) scale(0.996264)"/>
      <use xlink:href="#CMR17-47" transform="translate(1099.950898 0) scale(0.996264)"/>
      <use xlink:href="#CMR17-65" transform="translate(1172.306244 0) scale(0.996264)"/>
      <use xlink:href="#CMR17-56" transform="translate(1212.791905 0) scale(0.996264)"/>
      <use xlink:href="#CMR17-32" transform="translate(1281.864334 41.137482) scale(0.697382)"/>
      <use xlink:href="#CMR17-29" transform="translate(1314.345648 0) scale(0.996264)"/>
     </g>
    </g>
   </g>
   <g id="patch_3">
    <path d="M 53.361642 188.277415 
L 53.361642 185.759532 
L 56.282004 185.759532 
L 56.282004 185.244837 
L 59.202376 185.244837 
L 59.202376 184.475759 
L 65.043101 184.514836 
L 65.043101 183.103701 
L 67.963472 183.103701 
L 67.963472 183.751068 
L 73.804197 183.754432 
L 73.804197 184.45285 
L 76.724568 184.45285 
L 76.724568 183.786259 
L 79.644931 183.786259 
L 79.644931 183.030482 
L 82.565293 183.030482 
L 82.565293 182.065313 
L 85.485665 182.065313 
L 85.485665 182.916491 
L 88.406027 182.916491 
L 88.406027 182.353203 
L 91.32639 182.353203 
L 91.32639 181.101763 
L 97.167123 181.102729 
L 97.167123 180.461818 
L 100.087486 180.461818 
L 100.087486 179.791547 
L 103.007848 179.791547 
L 103.007848 178.762282 
L 105.92822 178.762282 
L 105.92822 179.364293 
L 108.848582 179.364293 
L 108.848582 178.213994 
L 111.768945 178.213994 
L 111.768945 177.591445 
L 114.689316 177.591445 
L 114.689316 175.215303 
L 117.609679 175.215303 
L 117.609679 174.389937 
L 120.530041 174.389937 
L 120.530041 173.720089 
L 123.450412 173.720089 
L 123.450412 172.520529 
L 126.370775 172.520529 
L 126.370775 170.39961 
L 129.291142 170.39961 
L 129.291142 169.692432 
L 132.211504 169.692432 
L 132.211504 166.569702 
L 135.131871 166.569702 
L 135.131871 165.905739 
L 138.052238 165.905739 
L 138.052238 162.936816 
L 140.972601 162.936816 
L 140.972601 159.102659 
L 143.892967 159.102659 
L 143.892967 154.058003 
L 146.81333 154.058003 
L 146.81333 152.483368 
L 149.733697 152.483368 
L 149.733697 149.185669 
L 152.654064 149.185669 
L 152.654064 140.886455 
L 155.574426 140.886455 
L 155.574426 135.485406 
L 158.494793 135.485406 
L 158.494793 128.354507 
L 161.41516 128.354507 
L 161.41516 121.100511 
L 164.335525 121.100511 
L 164.335525 109.334738 
L 167.255889 109.334738 
L 167.255889 102.899008 
L 170.176254 102.899008 
L 170.176254 91.66209 
L 173.096619 91.66209 
L 173.096619 81.746502 
L 176.016986 81.746502 
L 176.016986 71.933259 
L 178.93735 71.933259 
L 178.93735 59.797159 
L 181.857716 59.797159 
L 181.857716 49.043311 
L 184.778081 49.043311 
L 184.778081 44.567217 
L 187.698447 44.567217 
L 187.698447 37.265054 
L 190.618812 37.265054 
L 190.618812 35.16363 
L 196.459542 35.227454 
L 196.459542 43.462619 
L 199.379908 43.462619 
L 199.379908 47.565974 
L 202.300273 47.565974 
L 202.300273 56.533645 
L 205.220638 56.533645 
L 205.220638 66.169631 
L 208.141003 66.169631 
L 208.141003 75.908188 
L 211.061369 75.908188 
L 211.061369 88.743051 
L 213.981734 88.743051 
L 213.981734 97.282389 
L 216.902099 97.282389 
L 216.902099 107.878167 
L 219.822465 107.878167 
L 219.822465 116.566833 
L 222.74283 116.566833 
L 222.74283 124.37091 
L 225.663197 124.37091 
L 225.663197 131.796378 
L 228.583561 131.796378 
L 228.583561 136.176185 
L 231.503926 136.176185 
L 231.503926 144.273183 
L 234.424291 144.273183 
L 234.424291 151.084759 
L 237.344655 151.084759 
L 237.344655 155.681597 
L 240.265022 155.681597 
L 240.265022 163.076795 
L 243.185389 163.076795 
L 243.185389 161.952616 
L 246.105752 161.952616 
L 246.105752 165.478088 
L 249.026119 165.478088 
L 249.026119 168.186 
L 251.946485 168.186 
L 251.946485 171.096525 
L 254.866848 171.096525 
L 254.866848 173.241111 
L 257.787215 173.241111 
L 257.787215 174.495703 
L 260.707577 174.495703 
L 260.707577 177.347681 
L 263.627944 177.347681 
L 263.627944 176.157181 
L 266.548311 176.157181 
L 266.548311 179.374377 
L 269.468674 179.374377 
L 269.468674 180.781045 
L 272.389041 180.781045 
L 272.389041 179.265479 
L 275.309403 179.265479 
L 275.309403 180.596721 
L 278.229774 180.596721 
L 278.229774 181.624503 
L 281.150137 181.624503 
L 281.150137 184.005812 
L 284.070499 184.005812 
L 284.070499 183.229903 
L 289.911233 183.206052 
L 289.911233 183.572044 
L 292.831596 183.572044 
L 292.831596 183.919158 
L 295.751967 183.919158 
L 295.751967 184.060793 
L 298.672329 184.060793 
L 298.672329 184.815791 
L 301.592692 184.815791 
L 301.592692 185.748954 
L 304.513063 185.748954 
L 304.513063 185.191001 
L 307.433426 185.191001 
L 307.433426 185.371341 
L 310.353788 185.371341 
L 310.353788 185.835082 
L 313.274151 185.835082 
L 313.274151 185.625061 
L 316.194522 185.625061 
L 316.194522 186.505878 
L 324.955618 186.398554 
L 324.955618 186.316107 
L 327.875981 186.316107 
L 327.875981 187.050211 
L 330.796343 187.050211 
L 330.796343 186.530469 
L 333.716715 186.530469 
L 333.716715 187.055742 
L 336.637077 187.055742 
L 336.637077 187.199429 
L 342.477811 187.293349 
L 342.477811 187.597206 
L 345.398173 187.597206 
L 345.398173 188.277415 
L 345.398173 188.277415 
" clip-path="url(#p603aeca160)" style="fill: none; stroke: #377eb8; stroke-linejoin: miter"/>
   </g>
   <g id="patch_4">
    <path d="M 53.361642 188.277415 
L 53.361642 185.797095 
L 56.282004 185.797095 
L 56.282004 185.661485 
L 59.202376 185.661485 
L 59.202376 185.502619 
L 65.043101 185.425323 
L 65.043101 185.264194 
L 67.963472 185.264194 
L 67.963472 185.036783 
L 70.883835 185.036783 
L 70.883835 184.842402 
L 73.804197 184.842402 
L 73.804197 184.670684 
L 76.724568 184.670684 
L 76.724568 184.461143 
L 79.644931 184.461143 
L 79.644931 184.22212 
L 82.565293 184.22212 
L 82.565293 183.965165 
L 85.485665 183.965165 
L 85.485665 183.71951 
L 88.406027 183.71951 
L 88.406027 183.442758 
L 91.32639 183.442758 
L 91.32639 183.107318 
L 94.246752 183.107318 
L 94.246752 182.678857 
L 97.167123 182.678857 
L 97.167123 182.422169 
L 100.087486 182.422169 
L 100.087486 181.870799 
L 103.007848 181.870799 
L 103.007848 181.341808 
L 105.92822 181.341808 
L 105.92822 180.875802 
L 108.848582 180.875802 
L 108.848582 180.261919 
L 111.768945 180.261919 
L 111.768945 179.53745 
L 114.689316 179.53745 
L 114.689316 178.958619 
L 117.609679 178.958619 
L 117.609679 178.16058 
L 120.530041 178.16058 
L 120.530041 177.23791 
L 123.450412 177.23791 
L 123.450412 176.17684 
L 126.370775 176.17684 
L 126.370775 175.039917 
L 129.291142 175.039917 
L 129.291142 173.89259 
L 132.211504 173.89259 
L 132.211504 172.449725 
L 135.131871 172.449725 
L 135.131871 170.721632 
L 138.052238 170.721632 
L 138.052238 168.937463 
L 140.972601 168.937463 
L 140.972601 166.649063 
L 143.892967 166.649063 
L 143.892967 164.099206 
L 146.81333 164.099206 
L 146.81333 161.107132 
L 149.733697 161.107132 
L 149.733697 157.79796 
L 152.654064 157.79796 
L 152.654064 153.813651 
L 155.574426 153.813651 
L 155.574426 149.557431 
L 158.494793 149.557431 
L 158.494793 144.06454 
L 161.41516 144.06454 
L 161.41516 137.846767 
L 164.335525 137.846767 
L 164.335525 130.929011 
L 167.255889 130.929011 
L 167.255889 122.496588 
L 170.176254 122.496588 
L 170.176254 112.824638 
L 173.096619 112.824638 
L 173.096619 101.913005 
L 176.016986 101.913005 
L 176.016986 89.827611 
L 178.93735 89.827611 
L 178.93735 77.278207 
L 181.857716 77.278207 
L 181.857716 63.658367 
L 184.778081 63.658367 
L 184.778081 49.959632 
L 187.698447 49.959632 
L 187.698447 37.087807 
L 190.618812 37.087807 
L 190.618812 27.063262 
L 193.539177 27.063262 
L 193.539177 19.630157 
L 196.459542 19.630157 
L 196.459542 16.751076 
L 199.379908 16.751076 
L 199.379908 19.448339 
L 202.300273 19.448339 
L 202.300273 25.515762 
L 205.220638 25.515762 
L 205.220638 35.483797 
L 208.141003 35.483797 
L 208.141003 47.860378 
L 211.061369 47.860378 
L 211.061369 62.302702 
L 213.981734 62.302702 
L 213.981734 76.00311 
L 216.902099 76.00311 
L 216.902099 89.676643 
L 219.822465 89.676643 
L 219.822465 102.436359 
L 222.74283 102.436359 
L 222.74283 113.563735 
L 225.663197 113.563735 
L 225.663197 123.69003 
L 228.583561 123.69003 
L 228.583561 132.500382 
L 231.503926 132.500382 
L 231.503926 139.72556 
L 234.424291 139.72556 
L 234.424291 146.477753 
L 237.344655 146.477753 
L 237.344655 151.903739 
L 240.265022 151.903739 
L 240.265022 156.572903 
L 243.185389 156.572903 
L 243.185389 160.741054 
L 246.105752 160.741054 
L 246.105752 164.273844 
L 249.026119 164.273844 
L 249.026119 167.32178 
L 251.946485 167.32178 
L 251.946485 169.672408 
L 254.866848 169.672408 
L 254.866848 171.902108 
L 257.787215 171.902108 
L 257.787215 173.962831 
L 260.707577 173.962831 
L 260.707577 175.376831 
L 263.627944 175.376831 
L 263.627944 176.958274 
L 266.548311 176.958274 
L 266.548311 178.020769 
L 269.468674 178.020769 
L 269.468674 179.155737 
L 272.389041 179.155737 
L 272.389041 180.038344 
L 275.309403 180.038344 
L 275.309403 180.864425 
L 278.229774 180.864425 
L 278.229774 181.652884 
L 281.150137 181.652884 
L 281.150137 182.311998 
L 284.070499 182.311998 
L 284.070499 182.792928 
L 286.990871 182.792928 
L 286.990871 183.349354 
L 289.911233 183.349354 
L 289.911233 183.83483 
L 292.831596 183.83483 
L 292.831596 184.139026 
L 295.751967 184.139026 
L 295.751967 184.519759 
L 298.672329 184.519759 
L 298.672329 184.900722 
L 301.592692 184.900722 
L 301.592692 185.154243 
L 304.513063 185.154243 
L 304.513063 185.425029 
L 307.433426 185.425029 
L 307.433426 185.686189 
L 310.353788 185.686189 
L 310.353788 185.833132 
L 313.274151 185.833132 
L 313.274151 186.084812 
L 316.194522 186.084812 
L 316.194522 186.234543 
L 319.114885 186.234543 
L 319.114885 186.424291 
L 322.035247 186.424291 
L 322.035247 186.570798 
L 324.955618 186.570798 
L 324.955618 186.703175 
L 330.796343 186.763261 
L 330.796343 186.86564 
L 333.716715 186.86564 
L 333.716715 187.029055 
L 339.55744 187.100982 
L 339.55744 187.196815 
L 342.477811 187.196815 
L 342.477811 187.317353 
L 345.398173 187.317353 
L 345.398173 188.277415 
L 345.398173 188.277415 
" clip-path="url(#p603aeca160)" style="fill: none; stroke: #4daf4a; stroke-linejoin: miter"/>
   </g>
   <g id="patch_5">
    <path d="M 53.361642 188.277415 
L 53.361642 183.773577 
L 56.282004 183.773577 
L 56.282004 184.270946 
L 62.122738 184.298565 
L 62.122738 184.795921 
L 65.043101 184.795921 
L 65.043101 184.381469 
L 67.963472 184.381469 
L 67.963472 185.486693 
L 70.883835 185.486693 
L 70.883835 184.022256 
L 73.804197 184.022256 
L 73.804197 184.657777 
L 79.644931 184.574873 
L 79.644931 184.326195 
L 82.565293 184.326195 
L 82.565293 184.630146 
L 85.485665 184.630146 
L 85.485665 183.138067 
L 88.406027 183.138067 
L 88.406027 183.85647 
L 91.32639 183.85647 
L 91.32639 181.922307 
L 94.246752 181.922307 
L 94.246752 183.828852 
L 97.167123 183.828852 
L 97.167123 181.286796 
L 100.087486 181.286796 
L 100.087486 181.673629 
L 103.007848 181.673629 
L 103.007848 180.540785 
L 105.92822 180.540785 
L 105.92822 178.855277 
L 108.848582 178.855277 
L 108.848582 178.136873 
L 114.689316 178.02638 
L 114.689316 178.523706 
L 117.609679 178.523706 
L 117.609679 176.036924 
L 120.530041 176.036924 
L 120.530041 178.219796 
L 123.450412 178.219796 
L 123.450412 177.086899 
L 126.370775 177.086899 
L 126.370775 170.289724 
L 129.291142 170.289724 
L 129.291142 173.46725 
L 132.211504 173.46725 
L 132.211504 168.438456 
L 138.052238 168.548979 
L 138.052238 167.112143 
L 140.972601 167.112143 
L 140.972601 164.155672 
L 143.892967 164.155672 
L 143.892967 163.65828 
L 146.81333 163.65828 
L 146.81333 161.254432 
L 149.733697 161.254432 
L 149.733697 159.955782 
L 152.654064 159.955782 
L 152.654064 155.479534 
L 155.574426 155.479534 
L 155.574426 150.533657 
L 158.494793 150.533657 
L 158.494793 145.256163 
L 161.41516 145.256163 
L 161.41516 139.28786 
L 164.335525 139.28786 
L 164.335525 130.50124 
L 167.255889 130.50124 
L 167.255889 124.118506 
L 170.176254 124.118506 
L 170.176254 112.789843 
L 173.096619 112.789843 
L 173.096619 103.257257 
L 176.016986 103.257257 
L 176.016986 97.758644 
L 178.93735 97.758644 
L 178.93735 77.781558 
L 181.857716 77.781558 
L 181.857716 69.74093 
L 184.778081 69.74093 
L 184.778081 57.583394 
L 187.698447 57.583394 
L 187.698447 44.237656 
L 190.618812 44.237656 
L 190.618812 27.880173 
L 193.539177 27.880173 
L 193.539177 29.56566 
L 196.459542 29.56566 
L 196.459542 21.414548 
L 199.379908 21.414548 
L 199.379908 29.316982 
L 202.300273 29.316982 
L 202.300273 31.278771 
L 205.220638 31.278771 
L 205.220638 37.136514 
L 208.141003 37.136514 
L 208.141003 50.951959 
L 211.061369 50.951959 
L 211.061369 54.101904 
L 213.981734 54.101904 
L 213.981734 68.000184 
L 216.902099 68.000184 
L 216.902099 82.976158 
L 219.822465 82.976158 
L 219.822465 99.195454 
L 222.74283 99.195454 
L 222.74283 116.547699 
L 225.663197 116.547699 
L 225.663197 121.438312 
L 228.583561 121.438312 
L 228.583561 137.049759 
L 231.503926 137.049759 
L 231.503926 132.932756 
L 234.424291 132.932756 
L 234.424291 147.632386 
L 237.344655 147.632386 
L 237.344655 149.400792 
L 240.265022 149.400792 
L 240.265022 155.203273 
L 243.185389 155.203273 
L 243.185389 162.331997 
L 246.105752 162.331997 
L 246.105752 163.962255 
L 249.026119 163.962255 
L 249.026119 165.481954 
L 251.946485 165.481954 
L 251.946485 170.262066 
L 254.866848 170.262066 
L 254.866848 171.919945 
L 257.787215 171.919945 
L 257.787215 169.267354 
L 260.707577 169.267354 
L 260.707577 173.246226 
L 263.627944 173.246226 
L 263.627944 175.788265 
L 266.548311 175.788265 
L 266.548311 178.523706 
L 269.468674 178.523706 
L 269.468674 177.252701 
L 272.389041 177.252701 
L 272.389041 179.905251 
L 275.309403 179.905251 
L 275.309403 181.424971 
L 278.229774 181.424971 
L 278.229774 180.153929 
L 281.150137 180.153929 
L 281.150137 181.39732 
L 284.070499 181.39732 
L 284.070499 182.72362 
L 286.990871 182.72362 
L 286.990871 183.442007 
L 289.911233 183.442007 
L 289.911233 181.342058 
L 292.831596 181.342058 
L 292.831596 184.436731 
L 295.751967 184.436731 
L 295.751967 184.823552 
L 298.672329 184.823552 
L 298.672329 185.155122 
L 307.433426 185.155122 
L 307.433426 185.403801 
L 310.353788 185.403801 
L 310.353788 186.674822 
L 313.274151 186.674822 
L 313.274151 186.177472 
L 316.194522 186.177472 
L 316.194522 185.293277 
L 319.114885 185.293277 
L 319.114885 185.818264 
L 322.035247 185.818264 
L 322.035247 187.227443 
L 324.955618 187.227443 
L 324.955618 186.453775 
L 327.875981 186.453775 
L 327.875981 188.001106 
L 330.796343 188.001106 
L 330.796343 186.287995 
L 333.716715 186.287995 
L 333.716715 187.420857 
L 336.637077 187.420857 
L 336.637077 186.647191 
L 345.398173 186.591929 
L 345.398173 188.277415 
L 345.398173 188.277415 
" clip-path="url(#p603aeca160)" style="fill: none; stroke: #e41a1c; stroke-linejoin: miter"/>
   </g>
   <g id="patch_6">
    <path d="M 38.759815 188.277415 
L 38.759815 8.17476 
" style="fill: none; stroke: #000000; stroke-width: 0.8; stroke-linejoin: miter; stroke-linecap: square"/>
   </g>
   <g id="patch_7">
    <path d="M 360 188.277415 
L 360 8.17476 
" style="fill: none; stroke: #000000; stroke-width: 0.8; stroke-linejoin: miter; stroke-linecap: square"/>
   </g>
   <g id="patch_8">
    <path d="M 38.759815 188.277415 
L 360 188.277415 
" style="fill: none; stroke: #000000; stroke-width: 0.8; stroke-linejoin: miter; stroke-linecap: square"/>
   </g>
   <g id="patch_9">
    <path d="M 38.759815 8.17476 
L 360 8.17476 
" style="fill: none; stroke: #000000; stroke-width: 0.8; stroke-linejoin: miter; stroke-linecap: square"/>
   </g>
   <g id="legend_1">
    <g id="patch_10">
     <path d="M 300.092631 40.474763 
L 355.8 40.474763 
Q 357 40.474763 357 39.274763 
L 357 12.37476 
Q 357 11.17476 355.8 11.17476 
L 300.092631 11.17476 
Q 298.892631 11.17476 298.892631 12.37476 
L 298.892631 39.274763 
Q 298.892631 40.474763 300.092631 40.474763 
z
" style="fill: #ffffff; opacity: 0.8; stroke: #cccccc; stroke-linejoin: miter"/>
    </g>
    <g id="patch_11">
     <path d="M 301.292631 17.77476 
L 313.292631 17.77476 
L 313.292631 13.57476 
L 301.292631 13.57476 
L 301.292631 17.77476 
z
" style="fill: none; stroke: #377eb8; stroke-linejoin: miter"/>
    </g>
    <g id="text_18">
     <!-- Data -->
     <g transform="translate(318.092631 17.77476) scale(0.06 -0.06)">
      <defs>
       <path id="CMR17-44" d="M 333 4352 
L 333 4186 
C 774 4186 845 4186 845 3900 
L 845 452 
C 845 166 774 166 333 166 
L 333 0 
L 2368 0 
C 3398 0 4224 943 4224 2141 
C 4224 3346 3411 4352 2368 4352 
L 333 4352 
z
M 1523 166 
C 1267 166 1254 197 1254 414 
L 1254 3938 
C 1254 4155 1267 4186 1523 4186 
L 2240 4186 
C 2771 4186 3750 3874 3750 2141 
C 3750 1242 3488 879 3366 707 
C 3213 510 2848 166 2240 166 
L 1523 166 
z
" transform="scale(0.015625)"/>
      </defs>
      <use xlink:href="#CMR17-44" transform="scale(0.996264)"/>
      <use xlink:href="#CMR17-61" transform="translate(70.393556 0) scale(0.996264)"/>
      <use xlink:href="#CMR17-74" transform="translate(116.084033 0) scale(0.996264)"/>
      <use xlink:href="#CMR17-61" transform="translate(151.364801 0) scale(0.996264)"/>
     </g>
    </g>
    <g id="patch_12">
     <path d="M 301.292631 27.655649 
L 313.292631 27.655649 
L 313.292631 23.455649 
L 301.292631 23.455649 
L 301.292631 27.655649 
z
" style="fill: none; stroke: #4daf4a; stroke-linejoin: miter"/>
    </g>
    <g id="text_19">
     <!-- $K_S^0 K_S^0$ MC -->
     <g transform="translate(318.092631 27.655649) scale(0.06 -0.06)">
      <defs>
       <path id="CMMI12-4b" d="M 3200 2571 
C 3194 2590 3168 2641 3168 2661 
C 3168 2667 3174 2673 3283 2756 
L 3904 3242 
C 4762 3905 5043 4128 5485 4167 
C 5530 4167 5594 4167 5594 4282 
C 5594 4320 5574 4352 5523 4352 
C 5453 4352 5376 4352 5306 4352 
L 5062 4352 
C 4864 4352 4653 4352 4461 4352 
C 4416 4352 4339 4352 4339 4237 
C 4339 4173 4384 4167 4422 4167 
C 4493 4160 4576 4135 4576 4046 
C 4576 3919 4384 3765 4333 3727 
L 1824 1784 
L 2355 3887 
C 2413 4103 2426 4167 2880 4167 
C 3002 4167 3059 4167 3059 4288 
C 3059 4352 2995 4352 2963 4352 
C 2848 4352 2714 4352 2592 4352 
L 1837 4352 
C 1722 4352 1581 4352 1466 4352 
C 1414 4352 1344 4352 1344 4231 
C 1344 4167 1402 4167 1498 4167 
C 1888 4167 1888 4116 1888 4046 
C 1888 4034 1888 3995 1862 3899 
L 998 472 
C 941 249 928 185 480 185 
C 358 185 294 185 294 70 
C 294 0 352 0 390 0 
C 512 0 640 0 762 0 
L 1510 0 
C 1632 0 1766 0 1888 0 
C 1939 0 2010 0 2010 121 
C 2010 185 1952 185 1856 185 
C 1466 185 1466 236 1466 300 
C 1466 345 1504 504 1530 606 
L 1779 1593 
L 2752 2351 
C 2938 1943 3277 1128 3539 505 
C 3558 466 3571 428 3571 383 
C 3571 185 3315 185 3258 185 
C 3200 185 3136 185 3136 64 
C 3136 0 3206 0 3226 0 
C 3450 0 3686 0 3910 0 
L 4218 0 
C 4314 0 4422 0 4518 0 
C 4557 0 4627 0 4627 121 
C 4627 185 4570 185 4506 185 
C 4269 185 4186 236 4090 466 
L 3200 2571 
z
" transform="scale(0.015625)"/>
       <path id="CMMI12-53" d="M 4064 4423 
C 4064 4480 4019 4480 4006 4480 
C 3981 4480 3974 4474 3898 4378 
C 3859 4333 3597 4001 3590 3995 
C 3379 4410 2957 4480 2688 4480 
C 1875 4480 1139 3743 1139 3025 
C 1139 2549 1427 2269 1741 2161 
C 1811 2135 2189 2033 2381 1989 
C 2707 1900 2790 1875 2925 1735 
C 2950 1703 3078 1557 3078 1258 
C 3078 667 2528 57 1888 57 
C 1363 57 781 280 781 991 
C 781 1112 806 1265 826 1328 
C 826 1348 832 1378 832 1391 
C 832 1417 819 1449 768 1449 
C 710 1449 704 1436 678 1328 
L 352 24 
C 352 18 326 -64 326 -71 
C 326 -128 378 -128 390 -128 
C 416 -128 422 -122 499 -26 
L 794 356 
C 947 126 1280 -128 1875 -128 
C 2701 -128 3456 666 3456 1460 
C 3456 1728 3392 1963 3149 2197 
C 3014 2331 2899 2363 2310 2516 
C 1882 2630 1824 2649 1709 2751 
C 1600 2858 1517 3011 1517 3227 
C 1517 3761 2061 4308 2669 4308 
C 3296 4308 3590 3926 3590 3323 
C 3590 3158 3558 2986 3558 2961 
C 3558 2903 3610 2903 3629 2903 
C 3686 2903 3693 2922 3718 3024 
L 4064 4423 
z
" transform="scale(0.015625)"/>
      </defs>
      <use xlink:href="#CMMI12-4b" transform="scale(0.996264)"/>
      <use xlink:href="#CMR17-30" transform="translate(90.147421 36.153639) scale(0.697382)"/>
      <use xlink:href="#CMMI12-53" transform="translate(82.992611 -27.44057) scale(0.697382)"/>
      <use xlink:href="#CMMI12-4b" transform="translate(129.54664 0) scale(0.996264)"/>
      <use xlink:href="#CMR17-30" transform="translate(219.694061 36.153639) scale(0.697382)"/>
      <use xlink:href="#CMMI12-53" transform="translate(212.539251 -27.44057) scale(0.697382)"/>
      <use xlink:href="#CMR17-4d" transform="translate(289.169247 0) scale(0.996264)"/>
      <use xlink:href="#CMR17-43" transform="translate(373.856187 0) scale(0.996264)"/>
     </g>
    </g>
    <g id="patch_13">
     <path d="M 301.292631 36.91245 
L 313.292631 36.91245 
L 313.292631 32.71245 
L 301.292631 32.71245 
L 301.292631 36.91245 
z
" style="fill: none; stroke: #e41a1c; stroke-linejoin: miter"/>
    </g>
    <g id="text_20">
     <!-- $4\pi$ MC -->
     <g transform="translate(318.092631 36.91245) scale(0.06 -0.06)">
      <defs>
       <path id="CMR17-34" d="M 2150 4122 
C 2150 4256 2144 4256 2029 4256 
L 128 1254 
L 128 1088 
L 1779 1088 
L 1779 457 
C 1779 224 1766 160 1318 160 
L 1197 160 
L 1197 0 
C 1402 0 1747 0 1965 0 
C 2182 0 2528 0 2733 0 
L 2733 160 
L 2611 160 
C 2163 160 2150 224 2150 457 
L 2150 1088 
L 2803 1088 
L 2803 1254 
L 2150 1254 
L 2150 4122 
z
M 1798 3703 
L 1798 1254 
L 256 1254 
L 1798 3703 
z
" transform="scale(0.015625)"/>
       <path id="CMMI12-19" d="M 1658 2408 
L 2381 2408 
C 2208 1692 2099 1226 2099 716 
C 2099 626 2099 -64 2362 -64 
C 2496 -64 2611 57 2611 166 
C 2611 197 2611 210 2566 306 
C 2394 747 2394 1296 2394 1341 
C 2394 1379 2394 1832 2528 2408 
L 3245 2408 
C 3328 2408 3539 2408 3539 2612 
C 3539 2752 3418 2752 3302 2752 
L 1197 2752 
C 1050 2752 832 2752 538 2440 
C 371 2254 166 1916 166 1878 
C 166 1840 198 1827 237 1827 
C 282 1827 288 1846 320 1884 
C 653 2408 986 2408 1146 2408 
L 1510 2408 
C 1370 1929 1210 1373 685 256 
C 634 154 634 140 634 102 
C 634 -32 749 -64 806 -64 
C 992 -64 1043 102 1120 370 
C 1222 696 1222 709 1286 964 
L 1658 2408 
z
" transform="scale(0.015625)"/>
      </defs>
      <use xlink:href="#CMR17-34" transform="scale(0.996264)"/>
      <use xlink:href="#CMMI12-19" transform="translate(45.690477 0) scale(0.996264)"/>
      <use xlink:href="#CMR17-4d" transform="translate(134.677044 0) scale(0.996264)"/>
      <use xlink:href="#CMR17-43" transform="translate(219.363985 0) scale(0.996264)"/>
     </g>
    </g>
   </g>
  </g>
 </g>
 <defs>
  <clipPath id="p603aeca160">
   <rect x="38.759815" y="8.17476" width="321.240185" height="180.102655"/>
  </clipPath>
 </defs>
</svg>
