<?xml version="1.0" encoding="utf-8" standalone="no"?>
<!DOCTYPE svg PUBLIC "-//W3C//DTD SVG 1.1//EN"
  "http://www.w3.org/Graphics/SVG/1.1/DTD/svg11.dtd">
<svg xmlns:xlink="http://www.w3.org/1999/xlink" width="367.2pt" height="223.2pt" viewBox="0 0 367.2 223.2" xmlns="http://www.w3.org/2000/svg" version="1.1">
 <metadata>
  <rdf:RDF xmlns:dc="http://purl.org/dc/elements/1.1/" xmlns:cc="http://creativecommons.org/ns#" xmlns:rdf="http://www.w3.org/1999/02/22-rdf-syntax-ns#">
   <cc:Work>
    <dc:type rdf:resource="http://purl.org/dc/dcmitype/StillImage"/>
    <dc:date>2025-06-01T00:51:20.584086</dc:date>
    <dc:format>image/svg+xml</dc:format>
    <dc:creator>
     <cc:Agent>
      <dc:title>Matplotlib v3.10.3, https://matplotlib.org/</dc:title>
     </cc:Agent>
    </dc:creator>
   </cc:Work>
  </rdf:RDF>
 </metadata>
 <defs>
  <style type="text/css">*{stroke-linejoin: round; stroke-linecap: butt}</style>
 </defs>
 <g id="figure_1">
  <g id="patch_1">
   <path d="M 0 223.2 
L 367.2 223.2 
L 367.2 0 
L 0 0 
z
" style="fill: #ffffff"/>
  </g>
  <g id="axes_1">
   <g id="patch_2">
    <path d="M 30.281614 145.89366 
L 360 145.89366 
L 360 17.202655 
L 30.281614 17.202655 
z
" style="fill: #ffffff"/>
   </g>
   <g id="patch_3">
    <path d="M 62.606946 145.89366 
L 66.647613 145.89366 
L 66.647613 74.950272 
L 62.606946 74.950272 
z
" clip-path="url(#p98c7fbe21e)" style="fill: #377eb8"/>
   </g>
   <g id="patch_4">
    <path d="M 66.647613 145.89366 
L 70.688279 145.89366 
L 70.688279 67.591461 
L 66.647613 67.591461 
z
" clip-path="url(#p98c7fbe21e)" style="fill: #377eb8"/>
   </g>
   <g id="patch_5">
    <path d="M 70.688279 145.89366 
L 74.728946 145.89366 
L 74.728946 63.069007 
L 70.688279 63.069007 
z
" clip-path="url(#p98c7fbe21e)" style="fill: #377eb8"/>
   </g>
   <g id="patch_6">
    <path d="M 74.728946 145.89366 
L 78.769612 145.89366 
L 78.769612 57.46495 
L 74.728946 57.46495 
z
" clip-path="url(#p98c7fbe21e)" style="fill: #377eb8"/>
   </g>
   <g id="patch_7">
    <path d="M 78.769612 145.89366 
L 82.810279 145.89366 
L 82.810279 53.286722 
L 78.769612 53.286722 
z
" clip-path="url(#p98c7fbe21e)" style="fill: #377eb8"/>
   </g>
   <g id="patch_8">
    <path d="M 82.810279 145.89366 
L 86.850945 145.89366 
L 86.850945 50.953198 
L 82.810279 50.953198 
z
" clip-path="url(#p98c7fbe21e)" style="fill: #377eb8"/>
   </g>
   <g id="patch_9">
    <path d="M 86.850945 145.89366 
L 90.891612 145.89366 
L 90.891612 45.783698 
L 86.850945 45.783698 
z
" clip-path="url(#p98c7fbe21e)" style="fill: #377eb8"/>
   </g>
   <g id="patch_10">
    <path d="M 90.891612 145.89366 
L 94.932278 145.89366 
L 94.932278 40.167689 
L 90.891612 40.167689 
z
" clip-path="url(#p98c7fbe21e)" style="fill: #377eb8"/>
   </g>
   <g id="patch_11">
    <path d="M 94.932278 145.89366 
L 98.972945 145.89366 
L 98.972945 37.932973 
L 94.932278 37.932973 
z
" clip-path="url(#p98c7fbe21e)" style="fill: #377eb8"/>
   </g>
   <g id="patch_12">
    <path d="M 98.972945 145.89366 
L 103.013611 145.89366 
L 103.013611 34.628801 
L 98.972945 34.628801 
z
" clip-path="url(#p98c7fbe21e)" style="fill: #377eb8"/>
   </g>
   <g id="patch_13">
    <path d="M 103.013611 145.89366 
L 107.054277 145.89366 
L 107.054277 35.304956 
L 103.013611 35.304956 
z
" clip-path="url(#p98c7fbe21e)" style="fill: #377eb8"/>
   </g>
   <g id="patch_14">
    <path d="M 107.054277 145.89366 
L 111.094944 145.89366 
L 111.094944 30.298811 
L 107.054277 30.298811 
z
" clip-path="url(#p98c7fbe21e)" style="fill: #377eb8"/>
   </g>
   <g id="patch_15">
    <path d="M 111.094944 145.89366 
L 115.13561 145.89366 
L 115.13561 26.136601 
L 111.094944 26.136601 
z
" clip-path="url(#p98c7fbe21e)" style="fill: #377eb8"/>
   </g>
   <g id="patch_16">
    <path d="M 115.13561 145.89366 
L 119.176277 145.89366 
L 119.176277 23.330799 
L 115.13561 23.330799 
z
" clip-path="url(#p98c7fbe21e)" style="fill: #377eb8"/>
   </g>
   <g id="patch_17">
    <path d="M 119.176277 145.89366 
L 123.216943 145.89366 
L 123.216943 27.754744 
L 119.176277 27.754744 
z
" clip-path="url(#p98c7fbe21e)" style="fill: #377eb8"/>
   </g>
   <g id="patch_18">
    <path d="M 123.216943 145.89366 
L 127.25761 145.89366 
L 127.25761 33.453864 
L 123.216943 33.453864 
z
" clip-path="url(#p98c7fbe21e)" style="fill: #377eb8"/>
   </g>
   <g id="patch_19">
    <path d="M 127.25761 145.89366 
L 131.298276 145.89366 
L 131.298276 43.770053 
L 127.25761 43.770053 
z
" clip-path="url(#p98c7fbe21e)" style="fill: #377eb8"/>
   </g>
   <g id="patch_20">
    <path d="M 131.298276 145.89366 
L 135.338943 145.89366 
L 135.338943 49.243668 
L 131.298276 49.243668 
z
" clip-path="url(#p98c7fbe21e)" style="fill: #377eb8"/>
   </g>
   <g id="patch_21">
    <path d="M 135.338943 145.89366 
L 139.379609 145.89366 
L 139.379609 54.956575 
L 135.338943 54.956575 
z
" clip-path="url(#p98c7fbe21e)" style="fill: #377eb8"/>
   </g>
   <g id="patch_22">
    <path d="M 139.379609 145.89366 
L 143.420276 145.89366 
L 143.420276 61.572221 
L 139.379609 61.572221 
z
" clip-path="url(#p98c7fbe21e)" style="fill: #377eb8"/>
   </g>
   <g id="patch_23">
    <path d="M 143.420276 145.89366 
L 147.460942 145.89366 
L 147.460942 60.584986 
L 143.420276 60.584986 
z
" clip-path="url(#p98c7fbe21e)" style="fill: #377eb8"/>
   </g>
   <g id="patch_24">
    <path d="M 147.460942 145.89366 
L 151.501609 145.89366 
L 151.501609 64.158577 
L 147.460942 64.158577 
z
" clip-path="url(#p98c7fbe21e)" style="fill: #377eb8"/>
   </g>
   <g id="patch_25">
    <path d="M 151.501609 145.89366 
L 155.542275 145.89366 
L 155.542275 64.911718 
L 151.501609 64.911718 
z
" clip-path="url(#p98c7fbe21e)" style="fill: #377eb8"/>
   </g>
   <g id="patch_26">
    <path d="M 155.542275 145.89366 
L 159.582942 145.89366 
L 159.582942 65.244816 
L 155.542275 65.244816 
z
" clip-path="url(#p98c7fbe21e)" style="fill: #377eb8"/>
   </g>
   <g id="patch_27">
    <path d="M 159.582942 145.89366 
L 163.623608 145.89366 
L 163.623608 65.527528 
L 159.582942 65.527528 
z
" clip-path="url(#p98c7fbe21e)" style="fill: #377eb8"/>
   </g>
   <g id="patch_28">
    <path d="M 163.623608 145.89366 
L 167.664275 145.89366 
L 167.664275 67.667226 
L 163.623608 67.667226 
z
" clip-path="url(#p98c7fbe21e)" style="fill: #377eb8"/>
   </g>
   <g id="patch_29">
    <path d="M 167.664275 145.89366 
L 171.704941 145.89366 
L 171.704941 76.16075 
L 167.664275 76.16075 
z
" clip-path="url(#p98c7fbe21e)" style="fill: #377eb8"/>
   </g>
   <g id="patch_30">
    <path d="M 171.704941 145.89366 
L 175.745608 145.89366 
L 175.745608 84.868539 
L 171.704941 84.868539 
z
" clip-path="url(#p98c7fbe21e)" style="fill: #377eb8"/>
   </g>
   <g id="patch_31">
    <path d="M 175.745608 145.89366 
L 179.786274 145.89366 
L 179.786274 88.617464 
L 175.745608 88.617464 
z
" clip-path="url(#p98c7fbe21e)" style="fill: #377eb8"/>
   </g>
   <g id="patch_32">
    <path d="M 179.786274 145.89366 
L 183.826941 145.89366 
L 183.826941 96.946822 
L 179.786274 96.946822 
z
" clip-path="url(#p98c7fbe21e)" style="fill: #377eb8"/>
   </g>
   <g id="patch_33">
    <path d="M 183.826941 145.89366 
L 187.867607 145.89366 
L 187.867607 102.989958 
L 183.826941 102.989958 
z
" clip-path="url(#p98c7fbe21e)" style="fill: #377eb8"/>
   </g>
   <g id="patch_34">
    <path d="M 187.867607 145.89366 
L 191.908274 145.89366 
L 191.908274 107.462005 
L 187.867607 107.462005 
z
" clip-path="url(#p98c7fbe21e)" style="fill: #377eb8"/>
   </g>
   <g id="patch_35">
    <path d="M 191.908274 145.89366 
L 195.94894 145.89366 
L 195.94894 108.805722 
L 191.908274 108.805722 
z
" clip-path="url(#p98c7fbe21e)" style="fill: #377eb8"/>
   </g>
   <g id="patch_36">
    <path d="M 195.94894 145.89366 
L 199.989607 145.89366 
L 199.989607 111.389123 
L 195.94894 111.389123 
z
" clip-path="url(#p98c7fbe21e)" style="fill: #377eb8"/>
   </g>
   <g id="patch_37">
    <path d="M 199.989607 145.89366 
L 204.030273 145.89366 
L 204.030273 114.867449 
L 199.989607 114.867449 
z
" clip-path="url(#p98c7fbe21e)" style="fill: #377eb8"/>
   </g>
   <g id="patch_38">
    <path d="M 204.030273 145.89366 
L 208.07094 145.89366 
L 208.07094 115.741882 
L 204.030273 115.741882 
z
" clip-path="url(#p98c7fbe21e)" style="fill: #377eb8"/>
   </g>
   <g id="patch_39">
    <path d="M 208.07094 145.89366 
L 212.111606 145.89366 
L 212.111606 117.21882 
L 208.07094 117.21882 
z
" clip-path="url(#p98c7fbe21e)" style="fill: #377eb8"/>
   </g>
   <g id="patch_40">
    <path d="M 212.111606 145.89366 
L 216.152273 145.89366 
L 216.152273 118.776769 
L 212.111606 118.776769 
z
" clip-path="url(#p98c7fbe21e)" style="fill: #377eb8"/>
   </g>
   <g id="patch_41">
    <path d="M 216.152273 145.89366 
L 220.192939 145.89366 
L 220.192939 120.016289 
L 216.152273 120.016289 
z
" clip-path="url(#p98c7fbe21e)" style="fill: #377eb8"/>
   </g>
   <g id="patch_42">
    <path d="M 220.192939 145.89366 
L 224.233606 145.89366 
L 224.233606 122.968458 
L 220.192939 122.968458 
z
" clip-path="url(#p98c7fbe21e)" style="fill: #377eb8"/>
   </g>
   <g id="patch_43">
    <path d="M 224.233606 145.89366 
L 228.274272 145.89366 
L 228.274272 126.38797 
L 224.233606 126.38797 
z
" clip-path="url(#p98c7fbe21e)" style="fill: #377eb8"/>
   </g>
   <g id="patch_44">
    <path d="M 228.274272 145.89366 
L 232.314939 145.89366 
L 232.314939 127.275446 
L 228.274272 127.275446 
z
" clip-path="url(#p98c7fbe21e)" style="fill: #377eb8"/>
   </g>
   <g id="patch_45">
    <path d="M 232.314939 145.89366 
L 236.355605 145.89366 
L 236.355605 128.27401 
L 232.314939 128.27401 
z
" clip-path="url(#p98c7fbe21e)" style="fill: #377eb8"/>
   </g>
   <g id="patch_46">
    <path d="M 236.355605 145.89366 
L 240.396272 145.89366 
L 240.396272 131.395379 
L 236.355605 131.395379 
z
" clip-path="url(#p98c7fbe21e)" style="fill: #377eb8"/>
   </g>
   <g id="patch_47">
    <path d="M 240.396272 145.89366 
L 244.436938 145.89366 
L 244.436938 133.178644 
L 240.396272 133.178644 
z
" clip-path="url(#p98c7fbe21e)" style="fill: #377eb8"/>
   </g>
   <g id="patch_48">
    <path d="M 244.436938 145.89366 
L 248.477605 145.89366 
L 248.477605 134.013871 
L 244.436938 134.013871 
z
" clip-path="url(#p98c7fbe21e)" style="fill: #377eb8"/>
   </g>
   <g id="patch_49">
    <path d="M 248.477605 145.89366 
L 252.518271 145.89366 
L 252.518271 135.266462 
L 248.477605 135.266462 
z
" clip-path="url(#p98c7fbe21e)" style="fill: #377eb8"/>
   </g>
   <g id="patch_50">
    <path d="M 252.518271 145.89366 
L 256.558938 145.89366 
L 256.558938 136.629111 
L 252.518271 136.629111 
z
" clip-path="url(#p98c7fbe21e)" style="fill: #377eb8"/>
   </g>
   <g id="patch_51">
    <path d="M 256.558938 145.89366 
L 260.599604 145.89366 
L 260.599604 137.651328 
L 256.558938 137.651328 
z
" clip-path="url(#p98c7fbe21e)" style="fill: #377eb8"/>
   </g>
   <g id="patch_52">
    <path d="M 260.599604 145.89366 
L 264.640271 145.89366 
L 264.640271 138.505534 
L 260.599604 138.505534 
z
" clip-path="url(#p98c7fbe21e)" style="fill: #377eb8"/>
   </g>
   <g id="matplotlib.axis_1">
    <g id="xtick_1">
     <g id="line2d_1">
      <defs>
       <path id="me9a6c8dbf9" d="M 0 0 
L 0 -4 
" style="stroke: #000000; stroke-width: 1.2"/>
      </defs>
      <g>
       <use xlink:href="#me9a6c8dbf9" x="62.606946" y="145.89366" style="stroke: #000000; stroke-width: 1.2"/>
      </g>
     </g>
     <g id="line2d_2">
      <defs>
       <path id="mb555c11183" d="M 0 0 
L 0 4 
" style="stroke: #000000; stroke-width: 1.2"/>
      </defs>
      <g>
       <use xlink:href="#mb555c11183" x="62.606946" y="17.202655" style="stroke: #000000; stroke-width: 1.2"/>
      </g>
     </g>
    </g>
    <g id="xtick_2">
     <g id="line2d_3">
      <g>
       <use xlink:href="#me9a6c8dbf9" x="103.013611" y="145.89366" style="stroke: #000000; stroke-width: 1.2"/>
      </g>
     </g>
     <g id="line2d_4">
      <g>
       <use xlink:href="#mb555c11183" x="103.013611" y="17.202655" style="stroke: #000000; stroke-width: 1.2"/>
      </g>
     </g>
    </g>
    <g id="xtick_3">
     <g id="line2d_5">
      <g>
       <use xlink:href="#me9a6c8dbf9" x="143.420276" y="145.89366" style="stroke: #000000; stroke-width: 1.2"/>
      </g>
     </g>
     <g id="line2d_6">
      <g>
       <use xlink:href="#mb555c11183" x="143.420276" y="17.202655" style="stroke: #000000; stroke-width: 1.2"/>
      </g>
     </g>
    </g>
    <g id="xtick_4">
     <g id="line2d_7">
      <g>
       <use xlink:href="#me9a6c8dbf9" x="183.826941" y="145.89366" style="stroke: #000000; stroke-width: 1.2"/>
      </g>
     </g>
     <g id="line2d_8">
      <g>
       <use xlink:href="#mb555c11183" x="183.826941" y="17.202655" style="stroke: #000000; stroke-width: 1.2"/>
      </g>
     </g>
    </g>
    <g id="xtick_5">
     <g id="line2d_9">
      <g>
       <use xlink:href="#me9a6c8dbf9" x="224.233606" y="145.89366" style="stroke: #000000; stroke-width: 1.2"/>
      </g>
     </g>
     <g id="line2d_10">
      <g>
       <use xlink:href="#mb555c11183" x="224.233606" y="17.202655" style="stroke: #000000; stroke-width: 1.2"/>
      </g>
     </g>
    </g>
    <g id="xtick_6">
     <g id="line2d_11">
      <g>
       <use xlink:href="#me9a6c8dbf9" x="264.640271" y="145.89366" style="stroke: #000000; stroke-width: 1.2"/>
      </g>
     </g>
     <g id="line2d_12">
      <g>
       <use xlink:href="#mb555c11183" x="264.640271" y="17.202655" style="stroke: #000000; stroke-width: 1.2"/>
      </g>
     </g>
    </g>
    <g id="xtick_7">
     <g id="line2d_13">
      <g>
       <use xlink:href="#me9a6c8dbf9" x="305.046936" y="145.89366" style="stroke: #000000; stroke-width: 1.2"/>
      </g>
     </g>
     <g id="line2d_14">
      <g>
       <use xlink:href="#mb555c11183" x="305.046936" y="17.202655" style="stroke: #000000; stroke-width: 1.2"/>
      </g>
     </g>
    </g>
    <g id="xtick_8">
     <g id="line2d_15">
      <g>
       <use xlink:href="#me9a6c8dbf9" x="345.453601" y="145.89366" style="stroke: #000000; stroke-width: 1.2"/>
      </g>
     </g>
     <g id="line2d_16">
      <g>
       <use xlink:href="#mb555c11183" x="345.453601" y="17.202655" style="stroke: #000000; stroke-width: 1.2"/>
      </g>
     </g>
    </g>
    <g id="xtick_9">
     <g id="line2d_17">
      <defs>
       <path id="m82646b00df" d="M 0 0 
L 0 -2.5 
" style="stroke: #000000; stroke-width: 0.8"/>
      </defs>
      <g>
       <use xlink:href="#m82646b00df" x="32.301947" y="145.89366" style="stroke: #000000; stroke-width: 0.8"/>
      </g>
     </g>
     <g id="line2d_18">
      <defs>
       <path id="me824fd75cf" d="M 0 0 
L 0 2.5 
" style="stroke: #000000; stroke-width: 0.8"/>
      </defs>
      <g>
       <use xlink:href="#me824fd75cf" x="32.301947" y="17.202655" style="stroke: #000000; stroke-width: 0.8"/>
      </g>
     </g>
    </g>
    <g id="xtick_10">
     <g id="line2d_19">
      <g>
       <use xlink:href="#m82646b00df" x="42.403614" y="145.89366" style="stroke: #000000; stroke-width: 0.8"/>
      </g>
     </g>
     <g id="line2d_20">
      <g>
       <use xlink:href="#me824fd75cf" x="42.403614" y="17.202655" style="stroke: #000000; stroke-width: 0.8"/>
      </g>
     </g>
    </g>
    <g id="xtick_11">
     <g id="line2d_21">
      <g>
       <use xlink:href="#m82646b00df" x="52.50528" y="145.89366" style="stroke: #000000; stroke-width: 0.8"/>
      </g>
     </g>
     <g id="line2d_22">
      <g>
       <use xlink:href="#me824fd75cf" x="52.50528" y="17.202655" style="stroke: #000000; stroke-width: 0.8"/>
      </g>
     </g>
    </g>
    <g id="xtick_12">
     <g id="line2d_23">
      <g>
       <use xlink:href="#m82646b00df" x="72.708612" y="145.89366" style="stroke: #000000; stroke-width: 0.8"/>
      </g>
     </g>
     <g id="line2d_24">
      <g>
       <use xlink:href="#me824fd75cf" x="72.708612" y="17.202655" style="stroke: #000000; stroke-width: 0.8"/>
      </g>
     </g>
    </g>
    <g id="xtick_13">
     <g id="line2d_25">
      <g>
       <use xlink:href="#m82646b00df" x="82.810279" y="145.89366" style="stroke: #000000; stroke-width: 0.8"/>
      </g>
     </g>
     <g id="line2d_26">
      <g>
       <use xlink:href="#me824fd75cf" x="82.810279" y="17.202655" style="stroke: #000000; stroke-width: 0.8"/>
      </g>
     </g>
    </g>
    <g id="xtick_14">
     <g id="line2d_27">
      <g>
       <use xlink:href="#m82646b00df" x="92.911945" y="145.89366" style="stroke: #000000; stroke-width: 0.8"/>
      </g>
     </g>
     <g id="line2d_28">
      <g>
       <use xlink:href="#me824fd75cf" x="92.911945" y="17.202655" style="stroke: #000000; stroke-width: 0.8"/>
      </g>
     </g>
    </g>
    <g id="xtick_15">
     <g id="line2d_29">
      <g>
       <use xlink:href="#m82646b00df" x="113.115277" y="145.89366" style="stroke: #000000; stroke-width: 0.8"/>
      </g>
     </g>
     <g id="line2d_30">
      <g>
       <use xlink:href="#me824fd75cf" x="113.115277" y="17.202655" style="stroke: #000000; stroke-width: 0.8"/>
      </g>
     </g>
    </g>
    <g id="xtick_16">
     <g id="line2d_31">
      <g>
       <use xlink:href="#m82646b00df" x="123.216943" y="145.89366" style="stroke: #000000; stroke-width: 0.8"/>
      </g>
     </g>
     <g id="line2d_32">
      <g>
       <use xlink:href="#me824fd75cf" x="123.216943" y="17.202655" style="stroke: #000000; stroke-width: 0.8"/>
      </g>
     </g>
    </g>
    <g id="xtick_17">
     <g id="line2d_33">
      <g>
       <use xlink:href="#m82646b00df" x="133.31861" y="145.89366" style="stroke: #000000; stroke-width: 0.8"/>
      </g>
     </g>
     <g id="line2d_34">
      <g>
       <use xlink:href="#me824fd75cf" x="133.31861" y="17.202655" style="stroke: #000000; stroke-width: 0.8"/>
      </g>
     </g>
    </g>
    <g id="xtick_18">
     <g id="line2d_35">
      <g>
       <use xlink:href="#m82646b00df" x="153.521942" y="145.89366" style="stroke: #000000; stroke-width: 0.8"/>
      </g>
     </g>
     <g id="line2d_36">
      <g>
       <use xlink:href="#me824fd75cf" x="153.521942" y="17.202655" style="stroke: #000000; stroke-width: 0.8"/>
      </g>
     </g>
    </g>
    <g id="xtick_19">
     <g id="line2d_37">
      <g>
       <use xlink:href="#m82646b00df" x="163.623608" y="145.89366" style="stroke: #000000; stroke-width: 0.8"/>
      </g>
     </g>
     <g id="line2d_38">
      <g>
       <use xlink:href="#me824fd75cf" x="163.623608" y="17.202655" style="stroke: #000000; stroke-width: 0.8"/>
      </g>
     </g>
    </g>
    <g id="xtick_20">
     <g id="line2d_39">
      <g>
       <use xlink:href="#m82646b00df" x="173.725275" y="145.89366" style="stroke: #000000; stroke-width: 0.8"/>
      </g>
     </g>
     <g id="line2d_40">
      <g>
       <use xlink:href="#me824fd75cf" x="173.725275" y="17.202655" style="stroke: #000000; stroke-width: 0.8"/>
      </g>
     </g>
    </g>
    <g id="xtick_21">
     <g id="line2d_41">
      <g>
       <use xlink:href="#m82646b00df" x="193.928607" y="145.89366" style="stroke: #000000; stroke-width: 0.8"/>
      </g>
     </g>
     <g id="line2d_42">
      <g>
       <use xlink:href="#me824fd75cf" x="193.928607" y="17.202655" style="stroke: #000000; stroke-width: 0.8"/>
      </g>
     </g>
    </g>
    <g id="xtick_22">
     <g id="line2d_43">
      <g>
       <use xlink:href="#m82646b00df" x="204.030273" y="145.89366" style="stroke: #000000; stroke-width: 0.8"/>
      </g>
     </g>
     <g id="line2d_44">
      <g>
       <use xlink:href="#me824fd75cf" x="204.030273" y="17.202655" style="stroke: #000000; stroke-width: 0.8"/>
      </g>
     </g>
    </g>
    <g id="xtick_23">
     <g id="line2d_45">
      <g>
       <use xlink:href="#m82646b00df" x="214.13194" y="145.89366" style="stroke: #000000; stroke-width: 0.8"/>
      </g>
     </g>
     <g id="line2d_46">
      <g>
       <use xlink:href="#me824fd75cf" x="214.13194" y="17.202655" style="stroke: #000000; stroke-width: 0.8"/>
      </g>
     </g>
    </g>
    <g id="xtick_24">
     <g id="line2d_47">
      <g>
       <use xlink:href="#m82646b00df" x="234.335272" y="145.89366" style="stroke: #000000; stroke-width: 0.8"/>
      </g>
     </g>
     <g id="line2d_48">
      <g>
       <use xlink:href="#me824fd75cf" x="234.335272" y="17.202655" style="stroke: #000000; stroke-width: 0.8"/>
      </g>
     </g>
    </g>
    <g id="xtick_25">
     <g id="line2d_49">
      <g>
       <use xlink:href="#m82646b00df" x="244.436938" y="145.89366" style="stroke: #000000; stroke-width: 0.8"/>
      </g>
     </g>
     <g id="line2d_50">
      <g>
       <use xlink:href="#me824fd75cf" x="244.436938" y="17.202655" style="stroke: #000000; stroke-width: 0.8"/>
      </g>
     </g>
    </g>
    <g id="xtick_26">
     <g id="line2d_51">
      <g>
       <use xlink:href="#m82646b00df" x="254.538605" y="145.89366" style="stroke: #000000; stroke-width: 0.8"/>
      </g>
     </g>
     <g id="line2d_52">
      <g>
       <use xlink:href="#me824fd75cf" x="254.538605" y="17.202655" style="stroke: #000000; stroke-width: 0.8"/>
      </g>
     </g>
    </g>
    <g id="xtick_27">
     <g id="line2d_53">
      <g>
       <use xlink:href="#m82646b00df" x="274.741937" y="145.89366" style="stroke: #000000; stroke-width: 0.8"/>
      </g>
     </g>
     <g id="line2d_54">
      <g>
       <use xlink:href="#me824fd75cf" x="274.741937" y="17.202655" style="stroke: #000000; stroke-width: 0.8"/>
      </g>
     </g>
    </g>
    <g id="xtick_28">
     <g id="line2d_55">
      <g>
       <use xlink:href="#m82646b00df" x="284.843603" y="145.89366" style="stroke: #000000; stroke-width: 0.8"/>
      </g>
     </g>
     <g id="line2d_56">
      <g>
       <use xlink:href="#me824fd75cf" x="284.843603" y="17.202655" style="stroke: #000000; stroke-width: 0.8"/>
      </g>
     </g>
    </g>
    <g id="xtick_29">
     <g id="line2d_57">
      <g>
       <use xlink:href="#m82646b00df" x="294.945269" y="145.89366" style="stroke: #000000; stroke-width: 0.8"/>
      </g>
     </g>
     <g id="line2d_58">
      <g>
       <use xlink:href="#me824fd75cf" x="294.945269" y="17.202655" style="stroke: #000000; stroke-width: 0.8"/>
      </g>
     </g>
    </g>
    <g id="xtick_30">
     <g id="line2d_59">
      <g>
       <use xlink:href="#m82646b00df" x="315.148602" y="145.89366" style="stroke: #000000; stroke-width: 0.8"/>
      </g>
     </g>
     <g id="line2d_60">
      <g>
       <use xlink:href="#me824fd75cf" x="315.148602" y="17.202655" style="stroke: #000000; stroke-width: 0.8"/>
      </g>
     </g>
    </g>
    <g id="xtick_31">
     <g id="line2d_61">
      <g>
       <use xlink:href="#m82646b00df" x="325.250268" y="145.89366" style="stroke: #000000; stroke-width: 0.8"/>
      </g>
     </g>
     <g id="line2d_62">
      <g>
       <use xlink:href="#me824fd75cf" x="325.250268" y="17.202655" style="stroke: #000000; stroke-width: 0.8"/>
      </g>
     </g>
    </g>
    <g id="xtick_32">
     <g id="line2d_63">
      <g>
       <use xlink:href="#m82646b00df" x="335.351934" y="145.89366" style="stroke: #000000; stroke-width: 0.8"/>
      </g>
     </g>
     <g id="line2d_64">
      <g>
       <use xlink:href="#me824fd75cf" x="335.351934" y="17.202655" style="stroke: #000000; stroke-width: 0.8"/>
      </g>
     </g>
    </g>
    <g id="xtick_33">
     <g id="line2d_65">
      <g>
       <use xlink:href="#m82646b00df" x="355.555267" y="145.89366" style="stroke: #000000; stroke-width: 0.8"/>
      </g>
     </g>
     <g id="line2d_66">
      <g>
       <use xlink:href="#me824fd75cf" x="355.555267" y="17.202655" style="stroke: #000000; stroke-width: 0.8"/>
      </g>
     </g>
    </g>
   </g>
   <g id="matplotlib.axis_2">
    <g id="ytick_1">
     <g id="line2d_67">
      <defs>
       <path id="m3677e5d727" d="M 0 0 
L 4 0 
" style="stroke: #000000; stroke-width: 1.2"/>
      </defs>
      <g>
       <use xlink:href="#m3677e5d727" x="30.281614" y="145.89366" style="stroke: #000000; stroke-width: 1.2"/>
      </g>
     </g>
     <g id="line2d_68">
      <defs>
       <path id="m7150c78cdb" d="M 0 0 
L -4 0 
" style="stroke: #000000; stroke-width: 1.2"/>
      </defs>
      <g>
       <use xlink:href="#m7150c78cdb" x="360" y="145.89366" style="stroke: #000000; stroke-width: 1.2"/>
      </g>
     </g>
     <g id="text_1">
      <!-- $\mathdefault{0}$ -->
      <g transform="translate(21.800279 149.352909) scale(0.1 -0.1)">
       <defs>
        <path id="CMR17-30" d="M 2688 2025 
C 2688 2416 2682 3080 2413 3591 
C 2176 4039 1798 4198 1466 4198 
C 1158 4198 768 4058 525 3597 
C 269 3118 243 2524 243 2025 
C 243 1661 250 1106 448 619 
C 723 -39 1216 -128 1466 -128 
C 1760 -128 2208 -7 2470 600 
C 2662 1042 2688 1559 2688 2025 
z
M 1466 -26 
C 1056 -26 813 325 723 812 
C 653 1188 653 1738 653 2096 
C 653 2588 653 2997 736 3387 
C 858 3929 1216 4096 1466 4096 
C 1728 4096 2067 3923 2189 3400 
C 2272 3036 2278 2607 2278 2096 
C 2278 1680 2278 1169 2202 792 
C 2067 95 1690 -26 1466 -26 
z
" transform="scale(0.015625)"/>
       </defs>
       <use xlink:href="#CMR17-30" transform="scale(0.996264)"/>
      </g>
     </g>
    </g>
    <g id="ytick_2">
     <g id="line2d_69">
      <g>
       <use xlink:href="#m3677e5d727" x="30.281614" y="115.219246" style="stroke: #000000; stroke-width: 1.2"/>
      </g>
     </g>
     <g id="line2d_70">
      <g>
       <use xlink:href="#m7150c78cdb" x="360" y="115.219246" style="stroke: #000000; stroke-width: 1.2"/>
      </g>
     </g>
     <g id="text_2">
      <!-- $\mathdefault{1}$ -->
      <g transform="translate(21.800279 118.678496) scale(0.1 -0.1)">
       <defs>
        <path id="CMR17-31" d="M 1702 4058 
C 1702 4192 1696 4192 1606 4192 
C 1357 3916 979 3827 621 3827 
C 602 3827 570 3827 563 3808 
C 557 3795 557 3782 557 3648 
C 755 3648 1088 3686 1344 3839 
L 1344 461 
C 1344 236 1331 160 781 160 
L 589 160 
L 589 0 
C 896 0 1216 0 1523 0 
C 1830 0 2150 0 2458 0 
L 2458 160 
L 2266 160 
C 1715 160 1702 230 1702 458 
L 1702 4058 
z
" transform="scale(0.015625)"/>
       </defs>
       <use xlink:href="#CMR17-31" transform="scale(0.996264)"/>
      </g>
     </g>
    </g>
    <g id="ytick_3">
     <g id="line2d_71">
      <g>
       <use xlink:href="#m3677e5d727" x="30.281614" y="84.544833" style="stroke: #000000; stroke-width: 1.2"/>
      </g>
     </g>
     <g id="line2d_72">
      <g>
       <use xlink:href="#m7150c78cdb" x="360" y="84.544833" style="stroke: #000000; stroke-width: 1.2"/>
      </g>
     </g>
     <g id="text_3">
      <!-- $\mathdefault{2}$ -->
      <g transform="translate(21.800279 88.004082) scale(0.1 -0.1)">
       <defs>
        <path id="CMR17-32" d="M 2669 989 
L 2554 989 
C 2490 536 2438 459 2413 420 
C 2381 369 1920 369 1830 369 
L 602 369 
C 832 619 1280 1072 1824 1597 
C 2214 1967 2669 2402 2669 3035 
C 2669 3790 2067 4224 1395 4224 
C 691 4224 262 3604 262 3030 
C 262 2780 448 2748 525 2748 
C 589 2748 781 2787 781 3010 
C 781 3207 614 3264 525 3264 
C 486 3264 448 3258 422 3245 
C 544 3790 915 4058 1306 4058 
C 1862 4058 2227 3617 2227 3035 
C 2227 2479 1901 2000 1536 1584 
L 262 146 
L 262 0 
L 2515 0 
L 2669 989 
z
" transform="scale(0.015625)"/>
       </defs>
       <use xlink:href="#CMR17-32" transform="scale(0.996264)"/>
      </g>
     </g>
    </g>
    <g id="ytick_4">
     <g id="line2d_73">
      <g>
       <use xlink:href="#m3677e5d727" x="30.281614" y="53.87042" style="stroke: #000000; stroke-width: 1.2"/>
      </g>
     </g>
     <g id="line2d_74">
      <g>
       <use xlink:href="#m7150c78cdb" x="360" y="53.87042" style="stroke: #000000; stroke-width: 1.2"/>
      </g>
     </g>
     <g id="text_4">
      <!-- $\mathdefault{3}$ -->
      <g transform="translate(21.800279 57.329669) scale(0.1 -0.1)">
       <defs>
        <path id="CMR17-33" d="M 1414 2157 
C 1984 2157 2234 1662 2234 1090 
C 2234 320 1824 25 1453 25 
C 1114 25 563 194 390 693 
C 422 680 454 680 486 680 
C 640 680 755 782 755 948 
C 755 1133 614 1216 486 1216 
C 378 1216 211 1165 211 926 
C 211 335 787 -128 1466 -128 
C 2176 -128 2720 430 2720 1085 
C 2720 1707 2208 2157 1600 2227 
C 2086 2328 2554 2756 2554 3329 
C 2554 3820 2048 4179 1472 4179 
C 890 4179 378 3829 378 3329 
C 378 3110 544 3072 627 3072 
C 762 3072 877 3155 877 3321 
C 877 3486 762 3569 627 3569 
C 602 3569 570 3569 544 3557 
C 730 3959 1235 4032 1459 4032 
C 1683 4032 2106 3925 2106 3320 
C 2106 3143 2080 2828 1862 2550 
C 1670 2304 1453 2304 1242 2284 
C 1210 2284 1062 2269 1037 2269 
C 992 2263 966 2257 966 2208 
C 966 2163 973 2157 1101 2157 
L 1414 2157 
z
" transform="scale(0.015625)"/>
       </defs>
       <use xlink:href="#CMR17-33" transform="scale(0.996264)"/>
      </g>
     </g>
    </g>
    <g id="ytick_5">
     <g id="line2d_75">
      <g>
       <use xlink:href="#m3677e5d727" x="30.281614" y="23.196006" style="stroke: #000000; stroke-width: 1.2"/>
      </g>
     </g>
     <g id="line2d_76">
      <g>
       <use xlink:href="#m7150c78cdb" x="360" y="23.196006" style="stroke: #000000; stroke-width: 1.2"/>
      </g>
     </g>
     <g id="text_5">
      <!-- $\mathdefault{4}$ -->
      <g transform="translate(21.800279 26.655256) scale(0.1 -0.1)">
       <defs>
        <path id="CMR17-34" d="M 2150 4122 
C 2150 4256 2144 4256 2029 4256 
L 128 1254 
L 128 1088 
L 1779 1088 
L 1779 457 
C 1779 224 1766 160 1318 160 
L 1197 160 
L 1197 0 
C 1402 0 1747 0 1965 0 
C 2182 0 2528 0 2733 0 
L 2733 160 
L 2611 160 
C 2163 160 2150 224 2150 457 
L 2150 1088 
L 2803 1088 
L 2803 1254 
L 2150 1254 
L 2150 4122 
z
M 1798 3703 
L 1798 1254 
L 256 1254 
L 1798 3703 
z
" transform="scale(0.015625)"/>
       </defs>
       <use xlink:href="#CMR17-34" transform="scale(0.996264)"/>
      </g>
     </g>
    </g>
    <g id="ytick_6">
     <g id="line2d_77">
      <defs>
       <path id="m15f001cc7c" d="M 0 0 
L 2.5 0 
" style="stroke: #000000; stroke-width: 0.8"/>
      </defs>
      <g>
       <use xlink:href="#m15f001cc7c" x="30.281614" y="139.758777" style="stroke: #000000; stroke-width: 0.8"/>
      </g>
     </g>
     <g id="line2d_78">
      <defs>
       <path id="mdba2a4db92" d="M 0 0 
L -2.5 0 
" style="stroke: #000000; stroke-width: 0.8"/>
      </defs>
      <g>
       <use xlink:href="#mdba2a4db92" x="360" y="139.758777" style="stroke: #000000; stroke-width: 0.8"/>
      </g>
     </g>
    </g>
    <g id="ytick_7">
     <g id="line2d_79">
      <g>
       <use xlink:href="#m15f001cc7c" x="30.281614" y="133.623894" style="stroke: #000000; stroke-width: 0.8"/>
      </g>
     </g>
     <g id="line2d_80">
      <g>
       <use xlink:href="#mdba2a4db92" x="360" y="133.623894" style="stroke: #000000; stroke-width: 0.8"/>
      </g>
     </g>
    </g>
    <g id="ytick_8">
     <g id="line2d_81">
      <g>
       <use xlink:href="#m15f001cc7c" x="30.281614" y="127.489012" style="stroke: #000000; stroke-width: 0.8"/>
      </g>
     </g>
     <g id="line2d_82">
      <g>
       <use xlink:href="#mdba2a4db92" x="360" y="127.489012" style="stroke: #000000; stroke-width: 0.8"/>
      </g>
     </g>
    </g>
    <g id="ytick_9">
     <g id="line2d_83">
      <g>
       <use xlink:href="#m15f001cc7c" x="30.281614" y="121.354129" style="stroke: #000000; stroke-width: 0.8"/>
      </g>
     </g>
     <g id="line2d_84">
      <g>
       <use xlink:href="#mdba2a4db92" x="360" y="121.354129" style="stroke: #000000; stroke-width: 0.8"/>
      </g>
     </g>
    </g>
    <g id="ytick_10">
     <g id="line2d_85">
      <g>
       <use xlink:href="#m15f001cc7c" x="30.281614" y="109.084364" style="stroke: #000000; stroke-width: 0.8"/>
      </g>
     </g>
     <g id="line2d_86">
      <g>
       <use xlink:href="#mdba2a4db92" x="360" y="109.084364" style="stroke: #000000; stroke-width: 0.8"/>
      </g>
     </g>
    </g>
    <g id="ytick_11">
     <g id="line2d_87">
      <g>
       <use xlink:href="#m15f001cc7c" x="30.281614" y="102.949481" style="stroke: #000000; stroke-width: 0.8"/>
      </g>
     </g>
     <g id="line2d_88">
      <g>
       <use xlink:href="#mdba2a4db92" x="360" y="102.949481" style="stroke: #000000; stroke-width: 0.8"/>
      </g>
     </g>
    </g>
    <g id="ytick_12">
     <g id="line2d_89">
      <g>
       <use xlink:href="#m15f001cc7c" x="30.281614" y="96.814598" style="stroke: #000000; stroke-width: 0.8"/>
      </g>
     </g>
     <g id="line2d_90">
      <g>
       <use xlink:href="#mdba2a4db92" x="360" y="96.814598" style="stroke: #000000; stroke-width: 0.8"/>
      </g>
     </g>
    </g>
    <g id="ytick_13">
     <g id="line2d_91">
      <g>
       <use xlink:href="#m15f001cc7c" x="30.281614" y="90.679716" style="stroke: #000000; stroke-width: 0.8"/>
      </g>
     </g>
     <g id="line2d_92">
      <g>
       <use xlink:href="#mdba2a4db92" x="360" y="90.679716" style="stroke: #000000; stroke-width: 0.8"/>
      </g>
     </g>
    </g>
    <g id="ytick_14">
     <g id="line2d_93">
      <g>
       <use xlink:href="#m15f001cc7c" x="30.281614" y="78.40995" style="stroke: #000000; stroke-width: 0.8"/>
      </g>
     </g>
     <g id="line2d_94">
      <g>
       <use xlink:href="#mdba2a4db92" x="360" y="78.40995" style="stroke: #000000; stroke-width: 0.8"/>
      </g>
     </g>
    </g>
    <g id="ytick_15">
     <g id="line2d_95">
      <g>
       <use xlink:href="#m15f001cc7c" x="30.281614" y="72.275068" style="stroke: #000000; stroke-width: 0.8"/>
      </g>
     </g>
     <g id="line2d_96">
      <g>
       <use xlink:href="#mdba2a4db92" x="360" y="72.275068" style="stroke: #000000; stroke-width: 0.8"/>
      </g>
     </g>
    </g>
    <g id="ytick_16">
     <g id="line2d_97">
      <g>
       <use xlink:href="#m15f001cc7c" x="30.281614" y="66.140185" style="stroke: #000000; stroke-width: 0.8"/>
      </g>
     </g>
     <g id="line2d_98">
      <g>
       <use xlink:href="#mdba2a4db92" x="360" y="66.140185" style="stroke: #000000; stroke-width: 0.8"/>
      </g>
     </g>
    </g>
    <g id="ytick_17">
     <g id="line2d_99">
      <g>
       <use xlink:href="#m15f001cc7c" x="30.281614" y="60.005302" style="stroke: #000000; stroke-width: 0.8"/>
      </g>
     </g>
     <g id="line2d_100">
      <g>
       <use xlink:href="#mdba2a4db92" x="360" y="60.005302" style="stroke: #000000; stroke-width: 0.8"/>
      </g>
     </g>
    </g>
    <g id="ytick_18">
     <g id="line2d_101">
      <g>
       <use xlink:href="#m15f001cc7c" x="30.281614" y="47.735537" style="stroke: #000000; stroke-width: 0.8"/>
      </g>
     </g>
     <g id="line2d_102">
      <g>
       <use xlink:href="#mdba2a4db92" x="360" y="47.735537" style="stroke: #000000; stroke-width: 0.8"/>
      </g>
     </g>
    </g>
    <g id="ytick_19">
     <g id="line2d_103">
      <g>
       <use xlink:href="#m15f001cc7c" x="30.281614" y="41.600654" style="stroke: #000000; stroke-width: 0.8"/>
      </g>
     </g>
     <g id="line2d_104">
      <g>
       <use xlink:href="#mdba2a4db92" x="360" y="41.600654" style="stroke: #000000; stroke-width: 0.8"/>
      </g>
     </g>
    </g>
    <g id="ytick_20">
     <g id="line2d_105">
      <g>
       <use xlink:href="#m15f001cc7c" x="30.281614" y="35.465772" style="stroke: #000000; stroke-width: 0.8"/>
      </g>
     </g>
     <g id="line2d_106">
      <g>
       <use xlink:href="#mdba2a4db92" x="360" y="35.465772" style="stroke: #000000; stroke-width: 0.8"/>
      </g>
     </g>
    </g>
    <g id="ytick_21">
     <g id="line2d_107">
      <g>
       <use xlink:href="#m15f001cc7c" x="30.281614" y="29.330889" style="stroke: #000000; stroke-width: 0.8"/>
      </g>
     </g>
     <g id="line2d_108">
      <g>
       <use xlink:href="#mdba2a4db92" x="360" y="29.330889" style="stroke: #000000; stroke-width: 0.8"/>
      </g>
     </g>
    </g>
    <g id="text_6">
     <!-- Counts / 20 (MeV/$c^2$) -->
     <g transform="translate(15.309619 130.659803) rotate(-90) scale(0.1 -0.1)">
      <defs>
       <path id="CMR17-43" d="M 3974 4289 
C 3974 4403 3968 4410 3930 4410 
C 3904 4410 3898 4403 3853 4327 
L 3571 3792 
C 3258 4187 2874 4416 2381 4416 
C 1286 4416 294 3456 294 2148 
C 294 826 1286 -128 2387 -128 
C 3366 -128 3974 730 3974 1461 
C 3974 1524 3974 1550 3917 1550 
C 3866 1550 3866 1531 3859 1474 
C 3808 585 3168 38 2477 38 
C 1824 38 781 495 781 2147 
C 781 3805 1843 4250 2464 4250 
C 3187 4250 3712 3628 3834 2745 
C 3846 2668 3846 2655 3904 2655 
C 3974 2655 3974 2668 3974 2783 
L 3974 4289 
z
" transform="scale(0.015625)"/>
       <path id="CMR17-6f" d="M 2758 1356 
C 2758 2176 2163 2816 1466 2816 
C 768 2816 173 2176 173 1356 
C 173 551 768 -64 1466 -64 
C 2163 -64 2758 551 2758 1356 
z
M 1466 51 
C 1165 51 909 230 762 480 
C 602 767 582 1126 582 1408 
C 582 1677 595 2010 762 2298 
C 890 2509 1139 2714 1466 2714 
C 1754 2714 1997 2554 2150 2330 
C 2349 2029 2349 1607 2349 1408 
C 2349 1158 2336 775 2163 467 
C 1984 173 1709 51 1466 51 
z
" transform="scale(0.015625)"/>
       <path id="CMR17-75" d="M 1882 2693 
L 1882 2528 
C 2259 2528 2317 2489 2317 2186 
L 2317 1032 
C 2317 500 2029 38 1555 38 
C 1030 38 986 348 986 678 
L 986 2763 
L 211 2693 
L 211 2528 
C 467 2528 640 2528 646 2274 
L 646 1058 
C 646 633 646 361 813 183 
C 896 101 1056 -64 1517 -64 
C 2061 -64 2272 377 2323 506 
L 2330 506 
L 2330 -63 
L 3091 -63 
L 3091 128 
C 2714 128 2656 166 2656 473 
L 2656 2763 
L 1882 2693 
z
" transform="scale(0.015625)"/>
       <path id="CMR17-6e" d="M 2656 1933 
C 2656 2259 2592 2790 1837 2790 
C 1331 2790 1069 2400 973 2144 
L 966 2144 
L 966 2790 
L 211 2720 
L 211 2554 
C 589 2554 646 2515 646 2208 
L 646 428 
C 646 184 621 153 211 153 
L 211 -13 
C 365 0 646 0 813 0 
C 979 0 1267 0 1421 -13 
L 1421 153 
C 1011 153 986 178 986 428 
L 986 1658 
C 986 2247 1344 2688 1792 2688 
C 2266 2688 2317 2266 2317 1958 
L 2317 428 
C 2317 184 2291 153 1882 153 
L 1882 -13 
C 2035 0 2317 0 2483 0 
C 2650 0 2938 0 3091 -13 
L 3091 153 
C 2682 153 2656 178 2656 428 
L 2656 1933 
z
" transform="scale(0.015625)"/>
       <path id="CMR17-74" d="M 966 2560 
L 1862 2560 
L 1862 2725 
L 966 2725 
L 966 3904 
L 851 3904 
C 838 3245 614 2668 70 2668 
L 70 2560 
L 627 2560 
L 627 771 
C 627 650 627 -64 1370 -64 
C 1747 -64 1965 306 1965 777 
L 1965 1140 
L 1850 1140 
L 1850 783 
C 1850 344 1677 51 1408 51 
C 1222 51 966 178 966 758 
L 966 2560 
z
" transform="scale(0.015625)"/>
       <path id="CMR17-73" d="M 1978 2697 
C 1978 2813 1971 2819 1933 2819 
C 1907 2819 1901 2813 1824 2717 
C 1805 2691 1747 2626 1728 2601 
C 1523 2819 1235 2819 1126 2819 
C 416 2819 160 2447 160 2076 
C 160 1498 813 1365 998 1325 
C 1402 1243 1542 1217 1677 1101 
C 1760 1025 1901 884 1901 654 
C 1901 384 1747 38 1158 38 
C 602 38 403 460 288 1021 
C 269 1110 269 1117 218 1117 
C 166 1117 160 1110 160 983 
L 160 63 
C 160 -51 166 -58 205 -58 
C 237 -58 243 -51 275 0 
C 314 57 410 211 448 276 
C 576 103 800 -64 1158 -64 
C 1792 -64 2131 283 2131 784 
C 2131 1112 1958 1285 1875 1362 
C 1683 1561 1459 1606 1190 1657 
C 838 1735 390 1825 390 2217 
C 390 2383 480 2737 1126 2737 
C 1811 2737 1850 2094 1862 1888 
C 1869 1856 1901 1849 1920 1849 
C 1978 1849 1978 1869 1978 1978 
L 1978 2697 
z
" transform="scale(0.015625)"/>
       <path id="CMR17-2f" d="M 2605 4545 
C 2637 4627 2637 4640 2637 4653 
C 2637 4729 2579 4768 2528 4768 
C 2451 4768 2426 4717 2400 4640 
L 326 -1377 
C 294 -1460 294 -1473 294 -1486 
C 294 -1562 352 -1600 403 -1600 
C 480 -1600 506 -1549 531 -1473 
L 2605 4545 
z
" transform="scale(0.015625)"/>
       <path id="CMR17-28" d="M 1958 -1561 
C 1958 -1555 1958 -1542 1939 -1523 
C 1645 -1224 858 -407 858 1581 
C 858 3569 1632 4379 1946 4697 
C 1946 4704 1958 4717 1958 4736 
C 1958 4755 1939 4768 1914 4768 
C 1843 4768 1299 4296 986 3594 
C 666 2887 576 2199 576 1588 
C 576 1128 621 351 1005 -471 
C 1312 -1135 1837 -1600 1914 -1600 
C 1946 -1600 1958 -1587 1958 -1561 
z
" transform="scale(0.015625)"/>
       <path id="CMR17-4d" d="M 1338 4224 
C 1299 4320 1293 4320 1158 4320 
L 339 4320 
L 339 4160 
C 781 4160 851 4160 851 3875 
L 851 610 
C 851 451 851 153 339 153 
L 339 -13 
C 486 0 755 0 915 0 
C 1075 0 1344 0 1491 -13 
L 1491 153 
C 979 153 979 451 979 610 
L 979 4135 
L 986 4135 
L 2490 89 
C 2515 25 2528 -13 2579 -13 
C 2630 -13 2643 25 2669 89 
L 4186 4166 
L 4192 4166 
L 4192 438 
C 4192 153 4122 153 3680 153 
L 3680 -13 
C 3853 0 4198 0 4384 0 
C 4570 0 4922 0 5094 -13 
L 5094 153 
C 4653 153 4582 153 4582 438 
L 4582 3875 
C 4582 4160 4653 4160 5094 4160 
L 5094 4320 
L 4282 4320 
C 4147 4320 4141 4314 4102 4218 
L 2720 502 
L 1338 4224 
z
" transform="scale(0.015625)"/>
       <path id="CMR17-65" d="M 2438 1472 
C 2464 1498 2464 1511 2464 1576 
C 2464 2238 2118 2816 1389 2816 
C 710 2816 173 2169 173 1383 
C 173 551 781 -64 1459 -64 
C 2176 -64 2458 607 2458 740 
C 2458 784 2419 784 2406 784 
C 2362 784 2355 771 2330 696 
C 2189 265 1837 51 1504 51 
C 1229 51 954 203 781 480 
C 582 803 582 1176 582 1472 
L 2438 1472 
z
M 589 1568 
C 634 2505 1126 2714 1382 2714 
C 1818 2714 2112 2297 2118 1568 
L 589 1568 
z
" transform="scale(0.015625)"/>
       <path id="CMR17-56" d="M 3776 3745 
C 3834 3886 3936 4160 4365 4160 
L 4365 4332 
C 4218 4319 4051 4319 3891 4319 
C 3738 4319 3475 4319 3328 4332 
L 3328 4160 
C 3648 4160 3661 3936 3661 3898 
C 3661 3827 3642 3783 3622 3732 
L 2362 446 
L 1043 3886 
C 1024 3931 1011 3963 1011 3994 
C 1011 4160 1267 4160 1402 4160 
L 1402 4319 
C 1197 4319 896 4319 685 4319 
C 518 4319 218 4319 64 4332 
L 64 4160 
C 435 4160 506 4135 582 3931 
L 2106 -26 
C 2138 -115 2144 -128 2214 -128 
C 2285 -128 2291 -115 2323 -26 
L 3776 3745 
z
" transform="scale(0.015625)"/>
       <path id="CMMI12-63" d="M 2502 2431 
C 2381 2431 2323 2431 2234 2355 
C 2195 2323 2125 2227 2125 2125 
C 2125 1997 2221 1920 2342 1920 
C 2496 1920 2669 2044 2669 2292 
C 2669 2588 2374 2816 1933 2816 
C 1094 2816 256 1903 256 996 
C 256 441 602 -64 1254 -64 
C 2125 -64 2675 622 2675 706 
C 2675 744 2637 776 2611 776 
C 2592 776 2586 770 2528 713 
C 2118 162 1510 64 1267 64 
C 826 64 685 446 685 764 
C 685 988 794 1605 1024 2039 
C 1190 2338 1536 2682 1939 2682 
C 2022 2682 2374 2682 2502 2431 
z
" transform="scale(0.015625)"/>
       <path id="CMR17-29" d="M 1683 1581 
C 1683 2040 1638 2817 1254 3639 
C 947 4303 422 4768 346 4768 
C 326 4768 301 4761 301 4729 
C 301 4717 307 4710 314 4697 
C 621 4378 1402 3568 1402 1584 
C 1402 -407 627 -1217 314 -1537 
C 307 -1549 301 -1556 301 -1568 
C 301 -1600 326 -1600 346 -1600 
C 416 -1600 960 -1128 1274 -426 
C 1594 281 1683 969 1683 1581 
z
" transform="scale(0.015625)"/>
      </defs>
      <use xlink:href="#CMR17-43" transform="scale(0.996264)"/>
      <use xlink:href="#CMR17-6f" transform="translate(66.509881 0) scale(0.996264)"/>
      <use xlink:href="#CMR17-75" transform="translate(112.200358 0) scale(0.996264)"/>
      <use xlink:href="#CMR17-6e" transform="translate(163.095727 0) scale(0.996264)"/>
      <use xlink:href="#CMR17-74" transform="translate(211.388643 0) scale(0.996264)"/>
      <use xlink:href="#CMR17-73" transform="translate(246.669411 0) scale(0.996264)"/>
      <use xlink:href="#CMR17-2f" transform="translate(312.546715 0) scale(0.996264)"/>
      <use xlink:href="#CMR17-32" transform="translate(388.313159 0) scale(0.996264)"/>
      <use xlink:href="#CMR17-30" transform="translate(434.003636 0) scale(0.996264)"/>
      <use xlink:href="#CMR17-28" transform="translate(509.770079 0) scale(0.996264)"/>
      <use xlink:href="#CMR17-4d" transform="translate(545.050847 0) scale(0.996264)"/>
      <use xlink:href="#CMR17-65" transform="translate(629.737787 0) scale(0.996264)"/>
      <use xlink:href="#CMR17-56" transform="translate(670.223448 0) scale(0.996264)"/>
      <use xlink:href="#CMR17-2f" transform="translate(739.295878 0) scale(0.996264)"/>
      <use xlink:href="#CMMI12-63" transform="translate(784.986355 0) scale(0.996264)"/>
      <use xlink:href="#CMR17-32" transform="translate(826.969589 36.153639) scale(0.697382)"/>
      <use xlink:href="#CMR17-29" transform="translate(859.450902 0) scale(0.996264)"/>
     </g>
    </g>
    <g id="text_7">
     <!-- $\times\mathdefault{10^{3}}\mathdefault{}$ -->
     <g transform="translate(30.281614 14.202655) scale(0.1 -0.1)">
      <defs>
       <path id="CMSY10-2" d="M 2490 1785 
L 1210 3059 
C 1133 3136 1120 3148 1069 3148 
C 1005 3148 941 3091 941 3020 
C 941 2976 954 2963 1024 2892 
L 2304 1606 
L 1024 320 
C 954 249 941 236 941 192 
C 941 121 1005 64 1069 64 
C 1120 64 1133 76 1210 153 
L 2483 1427 
L 3808 102 
C 3821 96 3866 64 3904 64 
C 3981 64 4032 121 4032 192 
C 4032 204 4032 230 4013 262 
C 4006 275 2989 1280 2669 1606 
L 3840 2777 
C 3872 2816 3968 2899 4000 2937 
C 4006 2950 4032 2976 4032 3020 
C 4032 3091 3981 3148 3904 3148 
C 3853 3148 3827 3123 3757 3052 
L 2490 1785 
z
" transform="scale(0.015625)"/>
      </defs>
      <use xlink:href="#CMSY10-2" transform="scale(0.996264)"/>
      <use xlink:href="#CMR17-31" transform="translate(77.487468 0) scale(0.996264)"/>
      <use xlink:href="#CMR17-30" transform="translate(123.177945 0) scale(0.996264)"/>
      <use xlink:href="#CMR17-33" transform="translate(168.868422 36.153639) scale(0.697382)"/>
     </g>
    </g>
   </g>
   <g id="patch_53">
    <path d="M 30.281614 145.89366 
L 30.281614 17.202655 
" style="fill: none; stroke: #000000; stroke-width: 0.8; stroke-linejoin: miter; stroke-linecap: square"/>
   </g>
   <g id="patch_54">
    <path d="M 360 145.89366 
L 360 17.202655 
" style="fill: none; stroke: #000000; stroke-width: 0.8; stroke-linejoin: miter; stroke-linecap: square"/>
   </g>
   <g id="patch_55">
    <path d="M 30.281614 145.89366 
L 360 145.89366 
" style="fill: none; stroke: #000000; stroke-width: 0.8; stroke-linejoin: miter; stroke-linecap: square"/>
   </g>
   <g id="patch_56">
    <path d="M 30.281614 17.202655 
L 360 17.202655 
" style="fill: none; stroke: #000000; stroke-width: 0.8; stroke-linejoin: miter; stroke-linecap: square"/>
   </g>
   <g id="legend_1">
    <g id="patch_57">
     <path d="M 329.175708 55.451908 
L 355.8 55.451908 
Q 357 55.451908 357 54.251908 
L 357 21.402655 
Q 357 20.202655 355.8 20.202655 
L 329.175708 20.202655 
Q 327.975708 20.202655 327.975708 21.402655 
L 327.975708 54.251908 
Q 327.975708 55.451908 329.175708 55.451908 
z
" style="fill: #ffffff; opacity: 0.8; stroke: #cccccc; stroke-linejoin: miter"/>
    </g>
    <g id="patch_58">
     <path d="M 330.375708 26.802655 
L 342.375708 26.802655 
L 342.375708 22.602655 
L 330.375708 22.602655 
z
" style="fill: #e41a1c; stroke: #e41a1c; stroke-linejoin: miter"/>
    </g>
    <g id="text_8">
     <!-- $f_0$ -->
     <g transform="translate(347.175708 26.802655) scale(0.06 -0.06)">
      <defs>
       <path id="CMMI12-66" d="M 2854 2566 
C 2982 2566 3034 2566 3034 2688 
C 3034 2752 2982 2752 2867 2752 
L 2349 2752 
C 2470 3429 2560 3897 2611 4107 
C 2650 4265 2784 4416 2950 4416 
C 3085 4416 3219 4358 3283 4298 
C 3034 4272 2957 4082 2957 3969 
C 2957 3837 3053 3759 3174 3759 
C 3302 3759 3494 3870 3494 4119 
C 3494 4393 3226 4544 2944 4544 
C 2669 4544 2400 4334 2272 4078 
C 2157 3848 2093 3611 1946 2752 
L 1517 2752 
C 1395 2752 1331 2752 1331 2637 
C 1331 2566 1370 2566 1498 2566 
L 1907 2566 
C 1792 1976 1530 542 1382 -137 
C 1274 -689 1178 -1152 858 -1152 
C 838 -1152 653 -1152 538 -1031 
C 864 -1005 864 -726 864 -720 
C 864 -593 768 -517 646 -517 
C 518 -517 326 -625 326 -867 
C 326 -1140 608 -1280 858 -1280 
C 1510 -1280 1779 -118 1850 199 
C 1965 688 2278 2376 2310 2566 
L 2854 2566 
z
" transform="scale(0.015625)"/>
      </defs>
      <use xlink:href="#CMMI12-66" transform="scale(0.996264)"/>
      <use xlink:href="#CMR17-30" transform="translate(48.083238 -14.943915) scale(0.697382)"/>
     </g>
    </g>
    <g id="patch_59">
     <path d="M 330.375708 35.164969 
L 342.375708 35.164969 
L 342.375708 30.964969 
L 330.375708 30.964969 
z
" style="fill: #4daf4a; stroke: #4daf4a; stroke-linejoin: miter"/>
    </g>
    <g id="text_9">
     <!-- $a_0$ -->
     <g transform="translate(347.175708 35.164969) scale(0.06 -0.06)">
      <defs>
       <path id="CMMI12-61" d="M 1926 760 
C 1894 651 1894 639 1805 517 
C 1664 338 1382 64 1082 64 
C 819 64 672 300 672 677 
C 672 1028 870 1743 992 2012 
C 1210 2459 1510 2689 1760 2689 
C 2182 2689 2266 2165 2266 2114 
C 2266 2108 2246 2024 2240 2012 
L 1926 760 
z
M 2336 2395 
C 2266 2561 2093 2816 1760 2816 
C 1037 2816 256 1884 256 939 
C 256 307 627 -64 1062 -64 
C 1414 -64 1715 211 1894 422 
C 1958 45 2259 -64 2451 -64 
C 2643 -64 2797 51 2912 281 
C 3014 498 3104 888 3104 913 
C 3104 945 3078 971 3040 971 
C 2982 971 2976 939 2950 843 
C 2854 466 2733 64 2470 64 
C 2285 64 2272 230 2272 358 
C 2272 505 2291 575 2349 824 
C 2394 984 2426 1124 2477 1309 
C 2714 2267 2771 2497 2771 2535 
C 2771 2625 2701 2695 2605 2695 
C 2400 2695 2349 2472 2336 2395 
z
" transform="scale(0.015625)"/>
      </defs>
      <use xlink:href="#CMMI12-61" transform="scale(0.996264)"/>
      <use xlink:href="#CMR17-30" transform="translate(51.207858 -14.943915) scale(0.697382)"/>
     </g>
    </g>
    <g id="patch_60">
     <path d="M 330.375708 43.527282 
L 342.375708 43.527282 
L 342.375708 39.327282 
L 330.375708 39.327282 
z
" style="fill: #ff7f00; stroke: #ff7f00; stroke-linejoin: miter"/>
    </g>
    <g id="text_10">
     <!-- $f_2$ -->
     <g transform="translate(347.175708 43.527282) scale(0.06 -0.06)">
      <use xlink:href="#CMMI12-66" transform="scale(0.996264)"/>
      <use xlink:href="#CMR17-32" transform="translate(48.083238 -14.943915) scale(0.697382)"/>
     </g>
    </g>
    <g id="patch_61">
     <path d="M 330.375708 51.889595 
L 342.375708 51.889595 
L 342.375708 47.689595 
L 330.375708 47.689595 
z
" style="fill: #984ea3; stroke: #984ea3; stroke-linejoin: miter"/>
    </g>
    <g id="text_11">
     <!-- $a_2$ -->
     <g transform="translate(347.175708 51.889595) scale(0.06 -0.06)">
      <use xlink:href="#CMMI12-61" transform="scale(0.996264)"/>
      <use xlink:href="#CMR17-32" transform="translate(51.207858 -14.943915) scale(0.697382)"/>
     </g>
    </g>
   </g>
  </g>
  <g id="axes_2">
   <g id="patch_62">
    <path d="M 30.281614 188.790661 
L 360 188.790661 
L 360 145.89366 
L 30.281614 145.89366 
z
" style="fill: #ffffff"/>
   </g>
   <g id="patch_63">
    <path d="M 50.484947 182.291115 
L 70.688279 182.291115 
L 70.688279 178.824691 
L 50.484947 178.824691 
z
" clip-path="url(#p8d91bcf2dd)" style="fill: #e41a1c; stroke: #e41a1c; stroke-linejoin: miter"/>
   </g>
   <g id="patch_64">
    <path d="M 82.810279 182.291115 
L 183.826941 182.291115 
L 183.826941 178.824691 
L 82.810279 178.824691 
z
" clip-path="url(#p8d91bcf2dd)" style="fill: #e41a1c; stroke: #e41a1c; stroke-linejoin: miter"/>
   </g>
   <g id="patch_65">
    <path d="M 157.158542 177.524782 
L 178.978141 177.524782 
L 178.978141 174.058358 
L 157.158542 174.058358 
z
" clip-path="url(#p8d91bcf2dd)" style="fill: #e41a1c; stroke: #e41a1c; stroke-linejoin: miter"/>
   </g>
   <g id="patch_66">
    <path d="M 195.544874 182.291115 
L 225.849872 182.291115 
L 225.849872 178.824691 
L 195.544874 178.824691 
z
" clip-path="url(#p8d91bcf2dd)" style="fill: #e41a1c; stroke: #e41a1c; stroke-linejoin: miter"/>
   </g>
   <g id="patch_67">
    <path d="M 204.73739 177.524782 
L 237.264755 177.524782 
L 237.264755 174.058358 
L 204.73739 174.058358 
L 204.73739 177.524782 
z
" clip-path="url(#p8d91bcf2dd)" style="fill: none; stroke: #e41a1c; stroke-linejoin: miter"/>
   </g>
   <g id="patch_68">
    <path d="M 216.556339 172.758448 
L 305.451002 172.758448 
L 305.451002 169.292024 
L 216.556339 169.292024 
z
" clip-path="url(#p8d91bcf2dd)" style="fill: #e41a1c; stroke: #e41a1c; stroke-linejoin: miter"/>
   </g>
   <g id="patch_69">
    <path d="M 254.841655 177.524782 
L 312.825219 177.524782 
L 312.825219 174.058358 
L 254.841655 174.058358 
z
" clip-path="url(#p8d91bcf2dd)" style="fill: #e41a1c; stroke: #e41a1c; stroke-linejoin: miter"/>
   </g>
   <g id="patch_70">
    <path d="M 281.207003 182.291115 
L 323.634002 182.291115 
L 323.634002 178.824691 
L 281.207003 178.824691 
L 281.207003 182.291115 
z
" clip-path="url(#p8d91bcf2dd)" style="fill: none; stroke: #e41a1c; stroke-linejoin: miter"/>
   </g>
   <g id="patch_71">
    <path d="M 48.464613 172.758448 
L 68.667946 172.758448 
L 68.667946 169.292024 
L 48.464613 169.292024 
z
" clip-path="url(#p8d91bcf2dd)" style="fill: #4daf4a; stroke: #4daf4a; stroke-linejoin: miter"/>
   </g>
   <g id="patch_72">
    <path d="M 125.237277 172.758448 
L 177.361874 172.758448 
L 177.361874 169.292024 
L 125.237277 169.292024 
z
" clip-path="url(#p8d91bcf2dd)" style="fill: #4daf4a; stroke: #4daf4a; stroke-linejoin: miter"/>
   </g>
   <g id="patch_73">
    <path d="M 195.847924 172.758448 
L 217.465489 172.758448 
L 217.465489 169.292024 
L 195.847924 169.292024 
L 195.847924 172.758448 
z
" clip-path="url(#p8d91bcf2dd)" style="fill: none; stroke: #4daf4a; stroke-linejoin: miter"/>
   </g>
   <g id="patch_74">
    <path d="M 99.397214 165.392297 
L 137.096633 165.392297 
L 137.096633 161.925872 
L 99.397214 161.925872 
z
" clip-path="url(#p8d91bcf2dd)" style="fill: #ff7f00; stroke: #ff7f00; stroke-linejoin: miter"/>
   </g>
   <g id="patch_75">
    <path d="M 148.168059 165.392297 
L 150.794492 165.392297 
L 150.794492 161.925872 
L 148.168059 161.925872 
L 148.168059 165.392297 
z
" clip-path="url(#p8d91bcf2dd)" style="fill: none; stroke: #ff7f00; stroke-linejoin: miter"/>
   </g>
   <g id="patch_76">
    <path d="M 159.845585 165.392297 
L 174.391985 165.392297 
L 174.391985 161.925872 
L 159.845585 161.925872 
z
" clip-path="url(#p8d91bcf2dd)" style="fill: #ff7f00; stroke: #ff7f00; stroke-linejoin: miter"/>
   </g>
   <g id="patch_77">
    <path d="M 164.633775 160.625963 
L 191.302174 160.625963 
L 191.302174 157.159539 
L 164.633775 157.159539 
z
" clip-path="url(#p8d91bcf2dd)" style="fill: #ff7f00; stroke: #ff7f00; stroke-linejoin: miter"/>
   </g>
   <g id="patch_78">
    <path d="M 181.604574 165.392297 
L 201.807907 165.392297 
L 201.807907 161.925872 
L 181.604574 161.925872 
L 181.604574 165.392297 
z
" clip-path="url(#p8d91bcf2dd)" style="fill: none; stroke: #ff7f00; stroke-linejoin: miter"/>
   </g>
   <g id="patch_79">
    <path d="M 207.363823 165.392297 
L 247.164388 165.392297 
L 247.164388 161.925872 
L 207.363823 161.925872 
L 207.363823 165.392297 
z
" clip-path="url(#p8d91bcf2dd)" style="fill: none; stroke: #ff7f00; stroke-linejoin: miter"/>
   </g>
   <g id="patch_80">
    <path d="M 204.838407 160.625963 
L 298.581869 160.625963 
L 298.581869 157.159539 
L 204.838407 157.159539 
z
" clip-path="url(#p8d91bcf2dd)" style="fill: #ff7f00; stroke: #ff7f00; stroke-linejoin: miter"/>
   </g>
   <g id="patch_81">
    <path d="M 246.457272 155.85963 
L 286.863936 155.85963 
L 286.863936 152.393205 
L 246.457272 152.393205 
z
" clip-path="url(#p8d91bcf2dd)" style="fill: #ff7f00; stroke: #ff7f00; stroke-linejoin: miter"/>
   </g>
   <g id="patch_82">
    <path d="M 281.00497 165.392297 
L 311.714035 165.392297 
L 311.714035 161.925872 
L 281.00497 161.925872 
L 281.00497 165.392297 
z
" clip-path="url(#p8d91bcf2dd)" style="fill: none; stroke: #ff7f00; stroke-linejoin: miter"/>
   </g>
   <g id="patch_83">
    <path d="M 115.782117 155.85963 
L 137.965376 155.85963 
L 137.965376 152.393205 
L 115.782117 152.393205 
z
" clip-path="url(#p8d91bcf2dd)" style="fill: #984ea3; stroke: #984ea3; stroke-linejoin: miter"/>
   </g>
   <g id="patch_84">
    <path d="M 166.856142 155.85963 
L 243.628805 155.85963 
L 243.628805 152.393205 
L 166.856142 152.393205 
z
" clip-path="url(#p8d91bcf2dd)" style="fill: #984ea3; stroke: #984ea3; stroke-linejoin: miter"/>
   </g>
   <g id="matplotlib.axis_3">
    <g id="xtick_34">
     <g id="line2d_109">
      <g>
       <use xlink:href="#me9a6c8dbf9" x="62.606946" y="188.790661" style="stroke: #000000; stroke-width: 1.2"/>
      </g>
     </g>
     <g id="line2d_110">
      <g>
       <use xlink:href="#mb555c11183" x="62.606946" y="145.89366" style="stroke: #000000; stroke-width: 1.2"/>
      </g>
     </g>
     <g id="text_12">
      <!-- $\mathdefault{1.0}$ -->
      <g transform="translate(56.241907 199.209159) scale(0.1 -0.1)">
       <defs>
        <path id="CMMI12-3a" d="M 1178 307 
C 1178 492 1024 619 870 619 
C 685 619 557 466 557 313 
C 557 128 710 0 864 0 
C 1050 0 1178 153 1178 307 
z
" transform="scale(0.015625)"/>
       </defs>
       <use xlink:href="#CMR17-31" transform="scale(0.996264)"/>
       <use xlink:href="#CMMI12-3a" transform="translate(45.690477 0) scale(0.996264)"/>
       <use xlink:href="#CMR17-30" transform="translate(72.787654 0) scale(0.996264)"/>
      </g>
     </g>
    </g>
    <g id="xtick_35">
     <g id="line2d_111">
      <g>
       <use xlink:href="#me9a6c8dbf9" x="103.013611" y="188.790661" style="stroke: #000000; stroke-width: 1.2"/>
      </g>
     </g>
     <g id="line2d_112">
      <g>
       <use xlink:href="#mb555c11183" x="103.013611" y="145.89366" style="stroke: #000000; stroke-width: 1.2"/>
      </g>
     </g>
     <g id="text_13">
      <!-- $\mathdefault{1.2}$ -->
      <g transform="translate(96.648572 199.209159) scale(0.1 -0.1)">
       <use xlink:href="#CMR17-31" transform="scale(0.996264)"/>
       <use xlink:href="#CMMI12-3a" transform="translate(45.690477 0) scale(0.996264)"/>
       <use xlink:href="#CMR17-32" transform="translate(72.787654 0) scale(0.996264)"/>
      </g>
     </g>
    </g>
    <g id="xtick_36">
     <g id="line2d_113">
      <g>
       <use xlink:href="#me9a6c8dbf9" x="143.420276" y="188.790661" style="stroke: #000000; stroke-width: 1.2"/>
      </g>
     </g>
     <g id="line2d_114">
      <g>
       <use xlink:href="#mb555c11183" x="143.420276" y="145.89366" style="stroke: #000000; stroke-width: 1.2"/>
      </g>
     </g>
     <g id="text_14">
      <!-- $\mathdefault{1.4}$ -->
      <g transform="translate(137.055236 199.209159) scale(0.1 -0.1)">
       <use xlink:href="#CMR17-31" transform="scale(0.996264)"/>
       <use xlink:href="#CMMI12-3a" transform="translate(45.690477 0) scale(0.996264)"/>
       <use xlink:href="#CMR17-34" transform="translate(72.787654 0) scale(0.996264)"/>
      </g>
     </g>
    </g>
    <g id="xtick_37">
     <g id="line2d_115">
      <g>
       <use xlink:href="#me9a6c8dbf9" x="183.826941" y="188.790661" style="stroke: #000000; stroke-width: 1.2"/>
      </g>
     </g>
     <g id="line2d_116">
      <g>
       <use xlink:href="#mb555c11183" x="183.826941" y="145.89366" style="stroke: #000000; stroke-width: 1.2"/>
      </g>
     </g>
     <g id="text_15">
      <!-- $\mathdefault{1.6}$ -->
      <g transform="translate(177.461901 199.209159) scale(0.1 -0.1)">
       <defs>
        <path id="CMR17-36" d="M 678 2176 
C 678 3690 1395 4032 1811 4032 
C 1946 4032 2272 4009 2400 3776 
C 2298 3776 2106 3776 2106 3553 
C 2106 3381 2246 3323 2336 3323 
C 2394 3323 2566 3348 2566 3560 
C 2566 3954 2246 4179 1805 4179 
C 1043 4179 243 3390 243 1984 
C 243 253 966 -128 1478 -128 
C 2099 -128 2688 427 2688 1283 
C 2688 2081 2170 2662 1517 2662 
C 1126 2662 838 2407 678 1960 
L 678 2176 
z
M 1478 25 
C 691 25 691 1200 691 1436 
C 691 1896 909 2560 1504 2560 
C 1613 2560 1926 2560 2138 2120 
C 2253 1870 2253 1609 2253 1289 
C 2253 944 2253 690 2118 434 
C 1978 171 1773 25 1478 25 
z
" transform="scale(0.015625)"/>
       </defs>
       <use xlink:href="#CMR17-31" transform="scale(0.996264)"/>
       <use xlink:href="#CMMI12-3a" transform="translate(45.690477 0) scale(0.996264)"/>
       <use xlink:href="#CMR17-36" transform="translate(72.787654 0) scale(0.996264)"/>
      </g>
     </g>
    </g>
    <g id="xtick_38">
     <g id="line2d_117">
      <g>
       <use xlink:href="#me9a6c8dbf9" x="224.233606" y="188.790661" style="stroke: #000000; stroke-width: 1.2"/>
      </g>
     </g>
     <g id="line2d_118">
      <g>
       <use xlink:href="#mb555c11183" x="224.233606" y="145.89366" style="stroke: #000000; stroke-width: 1.2"/>
      </g>
     </g>
     <g id="text_16">
      <!-- $\mathdefault{1.8}$ -->
      <g transform="translate(217.868566 199.209159) scale(0.1 -0.1)">
       <defs>
        <path id="CMR17-38" d="M 1741 2264 
C 2144 2467 2554 2773 2554 3263 
C 2554 3841 1990 4179 1472 4179 
C 890 4179 378 3759 378 3180 
C 378 3021 416 2747 666 2505 
C 730 2442 998 2251 1171 2130 
C 883 1983 211 1634 211 934 
C 211 279 838 -128 1459 -128 
C 2144 -128 2720 362 2720 1010 
C 2720 1590 2330 1857 2074 2029 
L 1741 2264 
z
M 902 2822 
C 851 2854 595 3051 595 3351 
C 595 3739 998 4032 1459 4032 
C 1965 4032 2336 3676 2336 3262 
C 2336 2669 1670 2331 1638 2331 
C 1632 2331 1626 2331 1574 2370 
L 902 2822 
z
M 2080 1519 
C 2176 1449 2483 1240 2483 851 
C 2483 381 2010 25 1472 25 
C 890 25 448 438 448 940 
C 448 1443 838 1862 1280 2060 
L 2080 1519 
z
" transform="scale(0.015625)"/>
       </defs>
       <use xlink:href="#CMR17-31" transform="scale(0.996264)"/>
       <use xlink:href="#CMMI12-3a" transform="translate(45.690477 0) scale(0.996264)"/>
       <use xlink:href="#CMR17-38" transform="translate(72.787654 0) scale(0.996264)"/>
      </g>
     </g>
    </g>
    <g id="xtick_39">
     <g id="line2d_119">
      <g>
       <use xlink:href="#me9a6c8dbf9" x="264.640271" y="188.790661" style="stroke: #000000; stroke-width: 1.2"/>
      </g>
     </g>
     <g id="line2d_120">
      <g>
       <use xlink:href="#mb555c11183" x="264.640271" y="145.89366" style="stroke: #000000; stroke-width: 1.2"/>
      </g>
     </g>
     <g id="text_17">
      <!-- $\mathdefault{2.0}$ -->
      <g transform="translate(258.275231 199.209159) scale(0.1 -0.1)">
       <use xlink:href="#CMR17-32" transform="scale(0.996264)"/>
       <use xlink:href="#CMMI12-3a" transform="translate(45.690477 0) scale(0.996264)"/>
       <use xlink:href="#CMR17-30" transform="translate(72.787654 0) scale(0.996264)"/>
      </g>
     </g>
    </g>
    <g id="xtick_40">
     <g id="line2d_121">
      <g>
       <use xlink:href="#me9a6c8dbf9" x="305.046936" y="188.790661" style="stroke: #000000; stroke-width: 1.2"/>
      </g>
     </g>
     <g id="line2d_122">
      <g>
       <use xlink:href="#mb555c11183" x="305.046936" y="145.89366" style="stroke: #000000; stroke-width: 1.2"/>
      </g>
     </g>
     <g id="text_18">
      <!-- $\mathdefault{2.2}$ -->
      <g transform="translate(298.681896 199.209159) scale(0.1 -0.1)">
       <use xlink:href="#CMR17-32" transform="scale(0.996264)"/>
       <use xlink:href="#CMMI12-3a" transform="translate(45.690477 0) scale(0.996264)"/>
       <use xlink:href="#CMR17-32" transform="translate(72.787654 0) scale(0.996264)"/>
      </g>
     </g>
    </g>
    <g id="xtick_41">
     <g id="line2d_123">
      <g>
       <use xlink:href="#me9a6c8dbf9" x="345.453601" y="188.790661" style="stroke: #000000; stroke-width: 1.2"/>
      </g>
     </g>
     <g id="line2d_124">
      <g>
       <use xlink:href="#mb555c11183" x="345.453601" y="145.89366" style="stroke: #000000; stroke-width: 1.2"/>
      </g>
     </g>
     <g id="text_19">
      <!-- $\mathdefault{2.4}$ -->
      <g transform="translate(339.088561 199.209159) scale(0.1 -0.1)">
       <use xlink:href="#CMR17-32" transform="scale(0.996264)"/>
       <use xlink:href="#CMMI12-3a" transform="translate(45.690477 0) scale(0.996264)"/>
       <use xlink:href="#CMR17-34" transform="translate(72.787654 0) scale(0.996264)"/>
      </g>
     </g>
    </g>
    <g id="xtick_42">
     <g id="line2d_125">
      <g>
       <use xlink:href="#m82646b00df" x="32.301947" y="188.790661" style="stroke: #000000; stroke-width: 0.8"/>
      </g>
     </g>
     <g id="line2d_126">
      <g>
       <use xlink:href="#me824fd75cf" x="32.301947" y="145.89366" style="stroke: #000000; stroke-width: 0.8"/>
      </g>
     </g>
    </g>
    <g id="xtick_43">
     <g id="line2d_127">
      <g>
       <use xlink:href="#m82646b00df" x="42.403614" y="188.790661" style="stroke: #000000; stroke-width: 0.8"/>
      </g>
     </g>
     <g id="line2d_128">
      <g>
       <use xlink:href="#me824fd75cf" x="42.403614" y="145.89366" style="stroke: #000000; stroke-width: 0.8"/>
      </g>
     </g>
    </g>
    <g id="xtick_44">
     <g id="line2d_129">
      <g>
       <use xlink:href="#m82646b00df" x="52.50528" y="188.790661" style="stroke: #000000; stroke-width: 0.8"/>
      </g>
     </g>
     <g id="line2d_130">
      <g>
       <use xlink:href="#me824fd75cf" x="52.50528" y="145.89366" style="stroke: #000000; stroke-width: 0.8"/>
      </g>
     </g>
    </g>
    <g id="xtick_45">
     <g id="line2d_131">
      <g>
       <use xlink:href="#m82646b00df" x="72.708612" y="188.790661" style="stroke: #000000; stroke-width: 0.8"/>
      </g>
     </g>
     <g id="line2d_132">
      <g>
       <use xlink:href="#me824fd75cf" x="72.708612" y="145.89366" style="stroke: #000000; stroke-width: 0.8"/>
      </g>
     </g>
    </g>
    <g id="xtick_46">
     <g id="line2d_133">
      <g>
       <use xlink:href="#m82646b00df" x="82.810279" y="188.790661" style="stroke: #000000; stroke-width: 0.8"/>
      </g>
     </g>
     <g id="line2d_134">
      <g>
       <use xlink:href="#me824fd75cf" x="82.810279" y="145.89366" style="stroke: #000000; stroke-width: 0.8"/>
      </g>
     </g>
    </g>
    <g id="xtick_47">
     <g id="line2d_135">
      <g>
       <use xlink:href="#m82646b00df" x="92.911945" y="188.790661" style="stroke: #000000; stroke-width: 0.8"/>
      </g>
     </g>
     <g id="line2d_136">
      <g>
       <use xlink:href="#me824fd75cf" x="92.911945" y="145.89366" style="stroke: #000000; stroke-width: 0.8"/>
      </g>
     </g>
    </g>
    <g id="xtick_48">
     <g id="line2d_137">
      <g>
       <use xlink:href="#m82646b00df" x="113.115277" y="188.790661" style="stroke: #000000; stroke-width: 0.8"/>
      </g>
     </g>
     <g id="line2d_138">
      <g>
       <use xlink:href="#me824fd75cf" x="113.115277" y="145.89366" style="stroke: #000000; stroke-width: 0.8"/>
      </g>
     </g>
    </g>
    <g id="xtick_49">
     <g id="line2d_139">
      <g>
       <use xlink:href="#m82646b00df" x="123.216943" y="188.790661" style="stroke: #000000; stroke-width: 0.8"/>
      </g>
     </g>
     <g id="line2d_140">
      <g>
       <use xlink:href="#me824fd75cf" x="123.216943" y="145.89366" style="stroke: #000000; stroke-width: 0.8"/>
      </g>
     </g>
    </g>
    <g id="xtick_50">
     <g id="line2d_141">
      <g>
       <use xlink:href="#m82646b00df" x="133.31861" y="188.790661" style="stroke: #000000; stroke-width: 0.8"/>
      </g>
     </g>
     <g id="line2d_142">
      <g>
       <use xlink:href="#me824fd75cf" x="133.31861" y="145.89366" style="stroke: #000000; stroke-width: 0.8"/>
      </g>
     </g>
    </g>
    <g id="xtick_51">
     <g id="line2d_143">
      <g>
       <use xlink:href="#m82646b00df" x="153.521942" y="188.790661" style="stroke: #000000; stroke-width: 0.8"/>
      </g>
     </g>
     <g id="line2d_144">
      <g>
       <use xlink:href="#me824fd75cf" x="153.521942" y="145.89366" style="stroke: #000000; stroke-width: 0.8"/>
      </g>
     </g>
    </g>
    <g id="xtick_52">
     <g id="line2d_145">
      <g>
       <use xlink:href="#m82646b00df" x="163.623608" y="188.790661" style="stroke: #000000; stroke-width: 0.8"/>
      </g>
     </g>
     <g id="line2d_146">
      <g>
       <use xlink:href="#me824fd75cf" x="163.623608" y="145.89366" style="stroke: #000000; stroke-width: 0.8"/>
      </g>
     </g>
    </g>
    <g id="xtick_53">
     <g id="line2d_147">
      <g>
       <use xlink:href="#m82646b00df" x="173.725275" y="188.790661" style="stroke: #000000; stroke-width: 0.8"/>
      </g>
     </g>
     <g id="line2d_148">
      <g>
       <use xlink:href="#me824fd75cf" x="173.725275" y="145.89366" style="stroke: #000000; stroke-width: 0.8"/>
      </g>
     </g>
    </g>
    <g id="xtick_54">
     <g id="line2d_149">
      <g>
       <use xlink:href="#m82646b00df" x="193.928607" y="188.790661" style="stroke: #000000; stroke-width: 0.8"/>
      </g>
     </g>
     <g id="line2d_150">
      <g>
       <use xlink:href="#me824fd75cf" x="193.928607" y="145.89366" style="stroke: #000000; stroke-width: 0.8"/>
      </g>
     </g>
    </g>
    <g id="xtick_55">
     <g id="line2d_151">
      <g>
       <use xlink:href="#m82646b00df" x="204.030273" y="188.790661" style="stroke: #000000; stroke-width: 0.8"/>
      </g>
     </g>
     <g id="line2d_152">
      <g>
       <use xlink:href="#me824fd75cf" x="204.030273" y="145.89366" style="stroke: #000000; stroke-width: 0.8"/>
      </g>
     </g>
    </g>
    <g id="xtick_56">
     <g id="line2d_153">
      <g>
       <use xlink:href="#m82646b00df" x="214.13194" y="188.790661" style="stroke: #000000; stroke-width: 0.8"/>
      </g>
     </g>
     <g id="line2d_154">
      <g>
       <use xlink:href="#me824fd75cf" x="214.13194" y="145.89366" style="stroke: #000000; stroke-width: 0.8"/>
      </g>
     </g>
    </g>
    <g id="xtick_57">
     <g id="line2d_155">
      <g>
       <use xlink:href="#m82646b00df" x="234.335272" y="188.790661" style="stroke: #000000; stroke-width: 0.8"/>
      </g>
     </g>
     <g id="line2d_156">
      <g>
       <use xlink:href="#me824fd75cf" x="234.335272" y="145.89366" style="stroke: #000000; stroke-width: 0.8"/>
      </g>
     </g>
    </g>
    <g id="xtick_58">
     <g id="line2d_157">
      <g>
       <use xlink:href="#m82646b00df" x="244.436938" y="188.790661" style="stroke: #000000; stroke-width: 0.8"/>
      </g>
     </g>
     <g id="line2d_158">
      <g>
       <use xlink:href="#me824fd75cf" x="244.436938" y="145.89366" style="stroke: #000000; stroke-width: 0.8"/>
      </g>
     </g>
    </g>
    <g id="xtick_59">
     <g id="line2d_159">
      <g>
       <use xlink:href="#m82646b00df" x="254.538605" y="188.790661" style="stroke: #000000; stroke-width: 0.8"/>
      </g>
     </g>
     <g id="line2d_160">
      <g>
       <use xlink:href="#me824fd75cf" x="254.538605" y="145.89366" style="stroke: #000000; stroke-width: 0.8"/>
      </g>
     </g>
    </g>
    <g id="xtick_60">
     <g id="line2d_161">
      <g>
       <use xlink:href="#m82646b00df" x="274.741937" y="188.790661" style="stroke: #000000; stroke-width: 0.8"/>
      </g>
     </g>
     <g id="line2d_162">
      <g>
       <use xlink:href="#me824fd75cf" x="274.741937" y="145.89366" style="stroke: #000000; stroke-width: 0.8"/>
      </g>
     </g>
    </g>
    <g id="xtick_61">
     <g id="line2d_163">
      <g>
       <use xlink:href="#m82646b00df" x="284.843603" y="188.790661" style="stroke: #000000; stroke-width: 0.8"/>
      </g>
     </g>
     <g id="line2d_164">
      <g>
       <use xlink:href="#me824fd75cf" x="284.843603" y="145.89366" style="stroke: #000000; stroke-width: 0.8"/>
      </g>
     </g>
    </g>
    <g id="xtick_62">
     <g id="line2d_165">
      <g>
       <use xlink:href="#m82646b00df" x="294.945269" y="188.790661" style="stroke: #000000; stroke-width: 0.8"/>
      </g>
     </g>
     <g id="line2d_166">
      <g>
       <use xlink:href="#me824fd75cf" x="294.945269" y="145.89366" style="stroke: #000000; stroke-width: 0.8"/>
      </g>
     </g>
    </g>
    <g id="xtick_63">
     <g id="line2d_167">
      <g>
       <use xlink:href="#m82646b00df" x="315.148602" y="188.790661" style="stroke: #000000; stroke-width: 0.8"/>
      </g>
     </g>
     <g id="line2d_168">
      <g>
       <use xlink:href="#me824fd75cf" x="315.148602" y="145.89366" style="stroke: #000000; stroke-width: 0.8"/>
      </g>
     </g>
    </g>
    <g id="xtick_64">
     <g id="line2d_169">
      <g>
       <use xlink:href="#m82646b00df" x="325.250268" y="188.790661" style="stroke: #000000; stroke-width: 0.8"/>
      </g>
     </g>
     <g id="line2d_170">
      <g>
       <use xlink:href="#me824fd75cf" x="325.250268" y="145.89366" style="stroke: #000000; stroke-width: 0.8"/>
      </g>
     </g>
    </g>
    <g id="xtick_65">
     <g id="line2d_171">
      <g>
       <use xlink:href="#m82646b00df" x="335.351934" y="188.790661" style="stroke: #000000; stroke-width: 0.8"/>
      </g>
     </g>
     <g id="line2d_172">
      <g>
       <use xlink:href="#me824fd75cf" x="335.351934" y="145.89366" style="stroke: #000000; stroke-width: 0.8"/>
      </g>
     </g>
    </g>
    <g id="xtick_66">
     <g id="line2d_173">
      <g>
       <use xlink:href="#m82646b00df" x="355.555267" y="188.790661" style="stroke: #000000; stroke-width: 0.8"/>
      </g>
     </g>
     <g id="line2d_174">
      <g>
       <use xlink:href="#me824fd75cf" x="355.555267" y="145.89366" style="stroke: #000000; stroke-width: 0.8"/>
      </g>
     </g>
    </g>
    <g id="text_20">
     <!-- Invariant Mass of $K_S^0K_S^0$ (GeV/$c^2$) -->
     <g transform="translate(118.990237 213.255957) scale(0.1 -0.1)">
      <defs>
       <path id="CMR17-49" d="M 1261 3905 
C 1261 4192 1338 4192 1798 4192 
L 1798 4352 
C 1594 4352 1267 4352 1050 4352 
C 832 4352 506 4352 301 4352 
L 301 4192 
C 762 4192 838 4192 838 3905 
L 838 447 
C 838 160 762 160 301 160 
L 301 0 
C 506 0 832 0 1050 0 
C 1267 0 1594 0 1798 0 
L 1798 160 
C 1338 160 1261 160 1261 447 
L 1261 3905 
z
" transform="scale(0.015625)"/>
       <path id="CMR17-76" d="M 2502 2163 
C 2560 2304 2662 2560 3034 2560 
L 3034 2726 
C 2912 2726 2752 2726 2630 2726 
C 2496 2726 2285 2726 2157 2732 
L 2157 2566 
C 2317 2553 2406 2477 2406 2311 
C 2406 2253 2406 2240 2368 2151 
L 1664 377 
L 902 2286 
C 864 2369 864 2381 864 2407 
C 864 2560 1075 2560 1171 2560 
L 1171 2732 
C 1018 2726 736 2726 576 2726 
C 403 2726 205 2726 64 2732 
L 64 2560 
C 307 2560 442 2560 518 2362 
L 1446 44 
C 1485 -51 1491 -64 1549 -64 
C 1606 -64 1613 -51 1651 44 
L 2502 2163 
z
" transform="scale(0.015625)"/>
       <path id="CMR17-61" d="M 2304 1653 
C 2304 2072 2304 2294 2035 2543 
C 1798 2752 1523 2816 1306 2816 
C 800 2816 435 2407 435 1971 
C 435 1728 627 1728 666 1728 
C 749 1728 896 1778 896 1954 
C 896 2112 774 2181 666 2181 
C 640 2181 608 2174 589 2168 
C 723 2592 1069 2714 1293 2714 
C 1613 2714 1965 2429 1965 1885 
L 1965 1600 
C 1587 1600 1133 1549 774 1357 
C 371 1133 256 813 256 570 
C 256 77 832 -64 1171 -64 
C 1523 -64 1850 139 1990 511 
C 2003 233 2182 -18 2464 -18 
C 2598 -18 2938 70 2938 567 
L 2938 920 
L 2822 920 
L 2822 562 
C 2822 178 2650 128 2566 128 
C 2304 128 2304 458 2304 738 
L 2304 1653 
z
M 1965 870 
C 1965 317 1568 38 1216 38 
C 896 38 646 275 646 570 
C 646 761 730 1100 1101 1305 
C 1408 1478 1760 1504 1965 1504 
L 1965 870 
z
" transform="scale(0.015625)"/>
       <path id="CMR17-72" d="M 960 1497 
C 960 2112 1222 2688 1702 2688 
C 1747 2688 1792 2682 1837 2662 
C 1837 2662 1696 2617 1696 2452 
C 1696 2298 1818 2234 1914 2234 
C 1990 2234 2131 2279 2131 2458 
C 2131 2663 1926 2790 1709 2790 
C 1222 2790 1011 2317 947 2093 
L 941 2093 
L 941 2790 
L 198 2720 
L 198 2554 
C 576 2554 634 2515 634 2208 
L 634 428 
C 634 184 608 153 198 153 
L 198 -13 
C 352 0 646 0 813 0 
C 998 0 1325 0 1498 -13 
L 1498 153 
C 1037 153 960 153 960 440 
L 960 1497 
z
" transform="scale(0.015625)"/>
       <path id="CMR17-69" d="M 992 3909 
C 992 4049 877 4170 730 4170 
C 589 4170 467 4056 467 3909 
C 467 3769 582 3648 730 3648 
C 870 3648 992 3763 992 3909 
z
M 243 2706 
L 243 2541 
C 602 2541 653 2502 653 2197 
L 653 427 
C 653 184 627 153 218 153 
L 218 -13 
C 371 0 646 0 806 0 
C 960 0 1222 0 1370 -13 
L 1370 153 
C 992 153 979 191 979 420 
L 979 2776 
L 243 2706 
z
" transform="scale(0.015625)"/>
       <path id="CMR17-66" d="M 979 2560 
L 1709 2560 
L 1709 2725 
L 966 2725 
L 966 3494 
C 966 4022 1235 4352 1510 4352 
C 1594 4352 1690 4327 1754 4282 
C 1702 4269 1568 4225 1568 4067 
C 1568 3901 1696 3850 1786 3850 
C 1875 3850 2003 3901 2003 4067 
C 2003 4308 1773 4454 1517 4454 
C 1152 4454 653 4156 653 3481 
L 653 2725 
L 141 2725 
L 141 2560 
L 653 2560 
L 653 427 
C 653 184 627 153 218 153 
L 218 -13 
C 371 0 666 0 832 0 
C 1018 0 1344 0 1517 -13 
L 1517 153 
C 1056 153 979 153 979 439 
L 979 2560 
z
" transform="scale(0.015625)"/>
       <path id="CMMI12-4b" d="M 3200 2571 
C 3194 2590 3168 2641 3168 2661 
C 3168 2667 3174 2673 3283 2756 
L 3904 3242 
C 4762 3905 5043 4128 5485 4167 
C 5530 4167 5594 4167 5594 4282 
C 5594 4320 5574 4352 5523 4352 
C 5453 4352 5376 4352 5306 4352 
L 5062 4352 
C 4864 4352 4653 4352 4461 4352 
C 4416 4352 4339 4352 4339 4237 
C 4339 4173 4384 4167 4422 4167 
C 4493 4160 4576 4135 4576 4046 
C 4576 3919 4384 3765 4333 3727 
L 1824 1784 
L 2355 3887 
C 2413 4103 2426 4167 2880 4167 
C 3002 4167 3059 4167 3059 4288 
C 3059 4352 2995 4352 2963 4352 
C 2848 4352 2714 4352 2592 4352 
L 1837 4352 
C 1722 4352 1581 4352 1466 4352 
C 1414 4352 1344 4352 1344 4231 
C 1344 4167 1402 4167 1498 4167 
C 1888 4167 1888 4116 1888 4046 
C 1888 4034 1888 3995 1862 3899 
L 998 472 
C 941 249 928 185 480 185 
C 358 185 294 185 294 70 
C 294 0 352 0 390 0 
C 512 0 640 0 762 0 
L 1510 0 
C 1632 0 1766 0 1888 0 
C 1939 0 2010 0 2010 121 
C 2010 185 1952 185 1856 185 
C 1466 185 1466 236 1466 300 
C 1466 345 1504 504 1530 606 
L 1779 1593 
L 2752 2351 
C 2938 1943 3277 1128 3539 505 
C 3558 466 3571 428 3571 383 
C 3571 185 3315 185 3258 185 
C 3200 185 3136 185 3136 64 
C 3136 0 3206 0 3226 0 
C 3450 0 3686 0 3910 0 
L 4218 0 
C 4314 0 4422 0 4518 0 
C 4557 0 4627 0 4627 121 
C 4627 185 4570 185 4506 185 
C 4269 185 4186 236 4090 466 
L 3200 2571 
z
" transform="scale(0.015625)"/>
       <path id="CMMI12-53" d="M 4064 4423 
C 4064 4480 4019 4480 4006 4480 
C 3981 4480 3974 4474 3898 4378 
C 3859 4333 3597 4001 3590 3995 
C 3379 4410 2957 4480 2688 4480 
C 1875 4480 1139 3743 1139 3025 
C 1139 2549 1427 2269 1741 2161 
C 1811 2135 2189 2033 2381 1989 
C 2707 1900 2790 1875 2925 1735 
C 2950 1703 3078 1557 3078 1258 
C 3078 667 2528 57 1888 57 
C 1363 57 781 280 781 991 
C 781 1112 806 1265 826 1328 
C 826 1348 832 1378 832 1391 
C 832 1417 819 1449 768 1449 
C 710 1449 704 1436 678 1328 
L 352 24 
C 352 18 326 -64 326 -71 
C 326 -128 378 -128 390 -128 
C 416 -128 422 -122 499 -26 
L 794 356 
C 947 126 1280 -128 1875 -128 
C 2701 -128 3456 666 3456 1460 
C 3456 1728 3392 1963 3149 2197 
C 3014 2331 2899 2363 2310 2516 
C 1882 2630 1824 2649 1709 2751 
C 1600 2858 1517 3011 1517 3227 
C 1517 3761 2061 4308 2669 4308 
C 3296 4308 3590 3926 3590 3323 
C 3590 3158 3558 2986 3558 2961 
C 3558 2903 3610 2903 3629 2903 
C 3686 2903 3693 2922 3718 3024 
L 4064 4423 
z
" transform="scale(0.015625)"/>
       <path id="CMR17-47" d="M 3974 1233 
C 3974 1473 3994 1505 4390 1505 
L 4390 1670 
C 4237 1664 3891 1664 3718 1664 
C 3539 1664 3040 1664 2797 1664 
L 2797 1505 
L 2989 1505 
C 3539 1505 3552 1434 3552 1201 
L 3552 774 
C 3552 63 2720 63 2522 63 
C 1862 63 781 511 781 2160 
C 781 3808 1843 4250 2464 4250 
C 3187 4250 3712 3626 3834 2741 
C 3846 2664 3846 2651 3904 2651 
C 3974 2651 3974 2664 3974 2779 
L 3974 4288 
C 3974 4402 3968 4409 3930 4409 
C 3904 4409 3898 4402 3853 4326 
L 3571 3791 
C 3258 4187 2874 4416 2381 4416 
C 1286 4416 294 3456 294 2148 
C 294 845 1267 -128 2394 -128 
C 2912 -128 3418 56 3616 417 
C 3725 158 3904 -20 3936 -20 
C 3968 -20 3974 -13 3974 100 
L 3974 1233 
z
" transform="scale(0.015625)"/>
      </defs>
      <use xlink:href="#CMR17-49" transform="scale(0.996264)"/>
      <use xlink:href="#CMR17-6e" transform="translate(32.638409 0) scale(0.996264)"/>
      <use xlink:href="#CMR17-76" transform="translate(80.931325 0) scale(0.996264)"/>
      <use xlink:href="#CMR17-61" transform="translate(124.019424 0) scale(0.996264)"/>
      <use xlink:href="#CMR17-72" transform="translate(169.709901 0) scale(0.996264)"/>
      <use xlink:href="#CMR17-69" transform="translate(204.990669 0) scale(0.996264)"/>
      <use xlink:href="#CMR17-61" transform="translate(229.861728 0) scale(0.996264)"/>
      <use xlink:href="#CMR17-6e" transform="translate(275.552205 0) scale(0.996264)"/>
      <use xlink:href="#CMR17-74" transform="translate(323.845121 0) scale(0.996264)"/>
      <use xlink:href="#CMR17-4d" transform="translate(389.201855 0) scale(0.996264)"/>
      <use xlink:href="#CMR17-61" transform="translate(473.888795 0) scale(0.996264)"/>
      <use xlink:href="#CMR17-73" transform="translate(519.579272 0) scale(0.996264)"/>
      <use xlink:href="#CMR17-73" transform="translate(555.38061 0) scale(0.996264)"/>
      <use xlink:href="#CMR17-6f" transform="translate(621.257914 0) scale(0.996264)"/>
      <use xlink:href="#CMR17-66" transform="translate(666.948391 0) scale(0.996264)"/>
      <use xlink:href="#CMMI12-4b" transform="translate(724.49787 0) scale(0.996264)"/>
      <use xlink:href="#CMR17-30" transform="translate(814.645291 36.153639) scale(0.697382)"/>
      <use xlink:href="#CMMI12-53" transform="translate(807.490481 -27.44057) scale(0.697382)"/>
      <use xlink:href="#CMMI12-4b" transform="translate(854.04451 0) scale(0.996264)"/>
      <use xlink:href="#CMR17-30" transform="translate(944.191931 36.153639) scale(0.697382)"/>
      <use xlink:href="#CMMI12-53" transform="translate(937.037121 -27.44057) scale(0.697382)"/>
      <use xlink:href="#CMR17-28" transform="translate(1013.667117 0) scale(0.996264)"/>
      <use xlink:href="#CMR17-47" transform="translate(1048.947885 0) scale(0.996264)"/>
      <use xlink:href="#CMR17-65" transform="translate(1121.303231 0) scale(0.996264)"/>
      <use xlink:href="#CMR17-56" transform="translate(1161.788891 0) scale(0.996264)"/>
      <use xlink:href="#CMR17-2f" transform="translate(1230.861321 0) scale(0.996264)"/>
      <use xlink:href="#CMMI12-63" transform="translate(1276.551798 0) scale(0.996264)"/>
      <use xlink:href="#CMR17-32" transform="translate(1318.535032 36.153639) scale(0.697382)"/>
      <use xlink:href="#CMR17-29" transform="translate(1351.016346 0) scale(0.996264)"/>
     </g>
    </g>
   </g>
   <g id="matplotlib.axis_4"/>
   <g id="line2d_175">
    <path d="M 30.281614 167.34216 
L 360 167.34216 
" clip-path="url(#p8d91bcf2dd)" style="fill: none; stroke-dasharray: 0.5,0.825; stroke-dashoffset: 0; stroke: #000000; stroke-width: 0.5"/>
   </g>
   <g id="patch_85">
    <path d="M 30.281614 188.790661 
L 360 188.790661 
" style="fill: none; stroke: #000000; stroke-width: 0.8; stroke-linejoin: miter; stroke-linecap: square"/>
   </g>
  </g>
 </g>
 <defs>
  <clipPath id="p98c7fbe21e">
   <rect x="30.281614" y="17.202655" width="329.718386" height="128.691004"/>
  </clipPath>
  <clipPath id="p8d91bcf2dd">
   <rect x="30.281614" y="145.89366" width="329.718386" height="42.897001"/>
  </clipPath>
 </defs>
</svg>
