<?xml version="1.0" encoding="utf-8" standalone="no"?>
<!DOCTYPE svg PUBLIC "-//W3C//DTD SVG 1.1//EN"
  "http://www.w3.org/Graphics/SVG/1.1/DTD/svg11.dtd">
<svg xmlns:xlink="http://www.w3.org/1999/xlink" width="367.2pt" height="223.2pt" viewBox="0 0 367.2 223.2" xmlns="http://www.w3.org/2000/svg" version="1.1">
 <metadata>
  <rdf:RDF xmlns:dc="http://purl.org/dc/elements/1.1/" xmlns:cc="http://creativecommons.org/ns#" xmlns:rdf="http://www.w3.org/1999/02/22-rdf-syntax-ns#">
   <cc:Work>
    <dc:type rdf:resource="http://purl.org/dc/dcmitype/StillImage"/>
    <dc:date>2025-05-27T13:06:28.581229</dc:date>
    <dc:format>image/svg+xml</dc:format>
    <dc:creator>
     <cc:Agent>
      <dc:title>Matplotlib v3.10.3, https://matplotlib.org/</dc:title>
     </cc:Agent>
    </dc:creator>
   </cc:Work>
  </rdf:RDF>
 </metadata>
 <defs>
  <style type="text/css">*{stroke-linejoin: round; stroke-linecap: butt}</style>
 </defs>
 <g id="figure_1">
  <g id="patch_1">
   <path d="M 0 223.2 
L 367.2 223.2 
L 367.2 0 
L 0 0 
z
" style="fill: #ffffff"/>
  </g>
  <g id="axes_1">
   <g id="patch_2">
    <path d="M 37.392719 189.681683 
L 360 189.681683 
L 360 17.202655 
L 37.392719 17.202655 
z
" style="fill: #ffffff"/>
   </g>
   <g id="patch_3">
    <path d="M 52.056686 189.681683 
L 52.056686 187.854677 
L 57.922273 187.854677 
L 57.922273 187.567231 
L 63.78786 187.567231 
L 63.78786 187.217263 
L 69.653447 187.217263 
L 69.653447 186.826006 
L 75.519034 186.826006 
L 75.519034 186.236279 
L 81.384621 186.236279 
L 81.384621 185.265342 
L 87.250208 185.265342 
L 87.250208 183.73452 
L 93.115795 183.73452 
L 93.115795 181.177675 
L 98.981382 181.177675 
L 98.981382 175.887596 
L 104.846969 175.887596 
L 104.846969 159.16461 
L 110.712556 159.16461 
L 110.712556 88.316697 
L 116.578143 88.316697 
L 116.578143 52.990586 
L 122.44373 52.990586 
L 122.44373 44.165986 
L 128.309316 44.165986 
L 128.309316 39.888502 
L 134.174903 39.888502 
L 134.174903 37.703937 
L 140.04049 37.703937 
L 140.04049 34.436914 
L 145.906077 34.436914 
L 145.906077 33.583025 
L 151.771664 33.583025 
L 151.771664 31.614803 
L 157.637251 31.614803 
L 157.637251 31.594807 
L 163.502838 31.594807 
L 163.502838 30.181046 
L 169.368425 30.181046 
L 169.368425 28.974914 
L 175.234012 28.974914 
L 175.234012 27.971585 
L 181.099599 27.971585 
L 181.099599 27.021532 
L 186.965186 27.021532 
L 186.965186 26.003682 
L 192.830773 26.003682 
L 192.830773 26.008442 
L 198.69636 26.008442 
L 198.69636 25.936255 
L 204.561946 25.936255 
L 204.561946 26.417534 
L 210.427533 26.417534 
L 210.427533 27.728036 
L 216.29312 27.728036 
L 216.29312 27.997897 
L 222.158707 27.997897 
L 222.158707 27.884494 
L 228.024294 27.884494 
L 228.024294 28.303654 
L 233.889881 28.303654 
L 233.889881 29.595666 
L 239.755468 29.595666 
L 239.755468 32.270801 
L 245.621055 32.270801 
L 245.621055 33.328451 
L 251.486642 33.328451 
L 251.486642 35.922237 
L 257.352229 35.922237 
L 257.352229 39.547309 
L 263.217816 39.547309 
L 263.217816 43.662236 
L 269.083403 43.662236 
L 269.083403 50.318744 
L 274.94899 50.318744 
L 274.94899 61.880865 
L 280.814577 61.880865 
L 280.814577 104.482195 
L 286.680163 104.482195 
L 286.680163 159.305739 
L 292.54575 159.305739 
L 292.54575 173.561461 
L 298.411337 173.561461 
L 298.411337 179.172694 
L 304.276924 179.172694 
L 304.276924 181.21754 
L 310.142511 181.21754 
L 310.142511 180.884129 
L 316.008098 180.884129 
L 316.008098 184.170906 
L 321.873685 184.170906 
L 321.873685 185.33309 
L 327.739272 185.33309 
L 327.739272 186.123517 
L 333.604859 186.123517 
L 333.604859 186.793678 
L 339.470446 186.793678 
L 339.470446 187.249913 
L 345.336033 187.249913 
L 345.336033 189.681683 
" clip-path="url(#p8a52fc6545)" style="fill: none; stroke: #377eb8; stroke-linejoin: miter"/>
   </g>
   <g id="matplotlib.axis_1">
    <g id="xtick_1">
     <g id="line2d_1">
      <defs>
       <path id="md165ca24eb" d="M 0 0 
L 0 -4 
" style="stroke: #000000; stroke-width: 1.2"/>
      </defs>
      <g>
       <use xlink:href="#md165ca24eb" x="52.056686" y="189.681683" style="stroke: #000000; stroke-width: 1.2"/>
      </g>
     </g>
     <g id="line2d_2">
      <defs>
       <path id="mca2976ddab" d="M 0 0 
L 0 4 
" style="stroke: #000000; stroke-width: 1.2"/>
      </defs>
      <g>
       <use xlink:href="#mca2976ddab" x="52.056686" y="17.202655" style="stroke: #000000; stroke-width: 1.2"/>
      </g>
     </g>
     <g id="text_1">
      <!-- $\mathdefault{40}$ -->
      <g transform="translate(47.075351 200.100182) scale(0.1 -0.1)">
       <defs>
        <path id="CMR17-34" d="M 2150 4122 
C 2150 4256 2144 4256 2029 4256 
L 128 1254 
L 128 1088 
L 1779 1088 
L 1779 457 
C 1779 224 1766 160 1318 160 
L 1197 160 
L 1197 0 
C 1402 0 1747 0 1965 0 
C 2182 0 2528 0 2733 0 
L 2733 160 
L 2611 160 
C 2163 160 2150 224 2150 457 
L 2150 1088 
L 2803 1088 
L 2803 1254 
L 2150 1254 
L 2150 4122 
z
M 1798 3703 
L 1798 1254 
L 256 1254 
L 1798 3703 
z
" transform="scale(0.015625)"/>
        <path id="CMR17-30" d="M 2688 2025 
C 2688 2416 2682 3080 2413 3591 
C 2176 4039 1798 4198 1466 4198 
C 1158 4198 768 4058 525 3597 
C 269 3118 243 2524 243 2025 
C 243 1661 250 1106 448 619 
C 723 -39 1216 -128 1466 -128 
C 1760 -128 2208 -7 2470 600 
C 2662 1042 2688 1559 2688 2025 
z
M 1466 -26 
C 1056 -26 813 325 723 812 
C 653 1188 653 1738 653 2096 
C 653 2588 653 2997 736 3387 
C 858 3929 1216 4096 1466 4096 
C 1728 4096 2067 3923 2189 3400 
C 2272 3036 2278 2607 2278 2096 
C 2278 1680 2278 1169 2202 792 
C 2067 95 1690 -26 1466 -26 
z
" transform="scale(0.015625)"/>
       </defs>
       <use xlink:href="#CMR17-34" transform="scale(0.996264)"/>
       <use xlink:href="#CMR17-30" transform="translate(45.690477 0) scale(0.996264)"/>
      </g>
     </g>
    </g>
    <g id="xtick_2">
     <g id="line2d_3">
      <g>
       <use xlink:href="#md165ca24eb" x="110.712556" y="189.681683" style="stroke: #000000; stroke-width: 1.2"/>
      </g>
     </g>
     <g id="line2d_4">
      <g>
       <use xlink:href="#mca2976ddab" x="110.712556" y="17.202655" style="stroke: #000000; stroke-width: 1.2"/>
      </g>
     </g>
     <g id="text_2">
      <!-- $\mathdefault{50}$ -->
      <g transform="translate(105.73122 200.100182) scale(0.1 -0.1)">
       <defs>
        <path id="CMR17-35" d="M 730 3692 
C 794 3666 1056 3584 1325 3584 
C 1920 3584 2246 3911 2432 4100 
C 2432 4157 2432 4192 2394 4192 
C 2387 4192 2374 4192 2323 4163 
C 2099 4058 1837 3973 1517 3973 
C 1325 3973 1037 3999 723 4139 
C 653 4171 640 4171 634 4171 
C 602 4171 595 4164 595 4037 
L 595 2203 
C 595 2089 595 2057 659 2057 
C 691 2057 704 2070 736 2114 
C 941 2401 1222 2522 1542 2522 
C 1766 2522 2246 2382 2246 1289 
C 2246 1085 2246 715 2054 421 
C 1894 159 1645 25 1370 25 
C 947 25 518 320 403 814 
C 429 807 480 795 506 795 
C 589 795 749 840 749 1038 
C 749 1210 627 1280 506 1280 
C 358 1280 262 1190 262 1011 
C 262 454 704 -128 1382 -128 
C 2042 -128 2669 440 2669 1264 
C 2669 2030 2170 2624 1549 2624 
C 1222 2624 947 2503 730 2274 
L 730 3692 
z
" transform="scale(0.015625)"/>
       </defs>
       <use xlink:href="#CMR17-35" transform="scale(0.996264)"/>
       <use xlink:href="#CMR17-30" transform="translate(45.690477 0) scale(0.996264)"/>
      </g>
     </g>
    </g>
    <g id="xtick_3">
     <g id="line2d_5">
      <g>
       <use xlink:href="#md165ca24eb" x="169.368425" y="189.681683" style="stroke: #000000; stroke-width: 1.2"/>
      </g>
     </g>
     <g id="line2d_6">
      <g>
       <use xlink:href="#mca2976ddab" x="169.368425" y="17.202655" style="stroke: #000000; stroke-width: 1.2"/>
      </g>
     </g>
     <g id="text_3">
      <!-- $\mathdefault{60}$ -->
      <g transform="translate(164.38709 200.100182) scale(0.1 -0.1)">
       <defs>
        <path id="CMR17-36" d="M 678 2176 
C 678 3690 1395 4032 1811 4032 
C 1946 4032 2272 4009 2400 3776 
C 2298 3776 2106 3776 2106 3553 
C 2106 3381 2246 3323 2336 3323 
C 2394 3323 2566 3348 2566 3560 
C 2566 3954 2246 4179 1805 4179 
C 1043 4179 243 3390 243 1984 
C 243 253 966 -128 1478 -128 
C 2099 -128 2688 427 2688 1283 
C 2688 2081 2170 2662 1517 2662 
C 1126 2662 838 2407 678 1960 
L 678 2176 
z
M 1478 25 
C 691 25 691 1200 691 1436 
C 691 1896 909 2560 1504 2560 
C 1613 2560 1926 2560 2138 2120 
C 2253 1870 2253 1609 2253 1289 
C 2253 944 2253 690 2118 434 
C 1978 171 1773 25 1478 25 
z
" transform="scale(0.015625)"/>
       </defs>
       <use xlink:href="#CMR17-36" transform="scale(0.996264)"/>
       <use xlink:href="#CMR17-30" transform="translate(45.690477 0) scale(0.996264)"/>
      </g>
     </g>
    </g>
    <g id="xtick_4">
     <g id="line2d_7">
      <g>
       <use xlink:href="#md165ca24eb" x="228.024294" y="189.681683" style="stroke: #000000; stroke-width: 1.2"/>
      </g>
     </g>
     <g id="line2d_8">
      <g>
       <use xlink:href="#mca2976ddab" x="228.024294" y="17.202655" style="stroke: #000000; stroke-width: 1.2"/>
      </g>
     </g>
     <g id="text_4">
      <!-- $\mathdefault{70}$ -->
      <g transform="translate(223.042959 200.100182) scale(0.1 -0.1)">
       <defs>
        <path id="CMR17-37" d="M 2886 3941 
L 2886 4081 
L 1382 4081 
C 634 4081 621 4165 595 4288 
L 480 4288 
L 294 3094 
L 410 3094 
C 429 3215 474 3540 550 3661 
C 589 3712 1062 3712 1171 3712 
L 2579 3712 
L 1869 2661 
C 1395 1954 1069 999 1069 165 
C 1069 89 1069 -128 1299 -128 
C 1530 -128 1530 89 1530 171 
L 1530 465 
C 1530 1508 1709 2196 2003 2636 
L 2886 3941 
z
" transform="scale(0.015625)"/>
       </defs>
       <use xlink:href="#CMR17-37" transform="scale(0.996264)"/>
       <use xlink:href="#CMR17-30" transform="translate(45.690477 0) scale(0.996264)"/>
      </g>
     </g>
    </g>
    <g id="xtick_5">
     <g id="line2d_9">
      <g>
       <use xlink:href="#md165ca24eb" x="286.680163" y="189.681683" style="stroke: #000000; stroke-width: 1.2"/>
      </g>
     </g>
     <g id="line2d_10">
      <g>
       <use xlink:href="#mca2976ddab" x="286.680163" y="17.202655" style="stroke: #000000; stroke-width: 1.2"/>
      </g>
     </g>
     <g id="text_5">
      <!-- $\mathdefault{80}$ -->
      <g transform="translate(281.698828 200.100182) scale(0.1 -0.1)">
       <defs>
        <path id="CMR17-38" d="M 1741 2264 
C 2144 2467 2554 2773 2554 3263 
C 2554 3841 1990 4179 1472 4179 
C 890 4179 378 3759 378 3180 
C 378 3021 416 2747 666 2505 
C 730 2442 998 2251 1171 2130 
C 883 1983 211 1634 211 934 
C 211 279 838 -128 1459 -128 
C 2144 -128 2720 362 2720 1010 
C 2720 1590 2330 1857 2074 2029 
L 1741 2264 
z
M 902 2822 
C 851 2854 595 3051 595 3351 
C 595 3739 998 4032 1459 4032 
C 1965 4032 2336 3676 2336 3262 
C 2336 2669 1670 2331 1638 2331 
C 1632 2331 1626 2331 1574 2370 
L 902 2822 
z
M 2080 1519 
C 2176 1449 2483 1240 2483 851 
C 2483 381 2010 25 1472 25 
C 890 25 448 438 448 940 
C 448 1443 838 1862 1280 2060 
L 2080 1519 
z
" transform="scale(0.015625)"/>
       </defs>
       <use xlink:href="#CMR17-38" transform="scale(0.996264)"/>
       <use xlink:href="#CMR17-30" transform="translate(45.690477 0) scale(0.996264)"/>
      </g>
     </g>
    </g>
    <g id="xtick_6">
     <g id="line2d_11">
      <g>
       <use xlink:href="#md165ca24eb" x="345.336033" y="189.681683" style="stroke: #000000; stroke-width: 1.2"/>
      </g>
     </g>
     <g id="line2d_12">
      <g>
       <use xlink:href="#mca2976ddab" x="345.336033" y="17.202655" style="stroke: #000000; stroke-width: 1.2"/>
      </g>
     </g>
     <g id="text_6">
      <!-- $\mathdefault{90}$ -->
      <g transform="translate(340.354697 200.100182) scale(0.1 -0.1)">
       <defs>
        <path id="CMR17-39" d="M 2253 1864 
C 2253 464 1670 31 1190 31 
C 1043 31 685 31 538 294 
C 704 268 826 357 826 518 
C 826 692 685 749 595 749 
C 538 749 365 723 365 506 
C 365 71 742 -128 1203 -128 
C 1939 -128 2688 674 2688 2073 
C 2688 3817 1971 4179 1485 4179 
C 851 4179 243 3628 243 2778 
C 243 1991 762 1408 1414 1408 
C 1952 1408 2189 1903 2253 2112 
L 2253 1864 
z
M 1427 1510 
C 1254 1510 1011 1542 813 1922 
C 678 2169 678 2461 678 2771 
C 678 3146 678 3405 858 3684 
C 947 3817 1114 4032 1485 4032 
C 2240 4032 2240 2885 2240 2632 
C 2240 2182 2035 1510 1427 1510 
z
" transform="scale(0.015625)"/>
       </defs>
       <use xlink:href="#CMR17-39" transform="scale(0.996264)"/>
       <use xlink:href="#CMR17-30" transform="translate(45.690477 0) scale(0.996264)"/>
      </g>
     </g>
    </g>
    <g id="xtick_7">
     <g id="line2d_13">
      <defs>
       <path id="m7aa724300c" d="M 0 0 
L 0 -2.5 
" style="stroke: #000000; stroke-width: 0.8"/>
      </defs>
      <g>
       <use xlink:href="#m7aa724300c" x="40.325513" y="189.681683" style="stroke: #000000; stroke-width: 0.8"/>
      </g>
     </g>
     <g id="line2d_14">
      <defs>
       <path id="md742ed7253" d="M 0 0 
L 0 2.5 
" style="stroke: #000000; stroke-width: 0.8"/>
      </defs>
      <g>
       <use xlink:href="#md742ed7253" x="40.325513" y="17.202655" style="stroke: #000000; stroke-width: 0.8"/>
      </g>
     </g>
    </g>
    <g id="xtick_8">
     <g id="line2d_15">
      <g>
       <use xlink:href="#m7aa724300c" x="63.78786" y="189.681683" style="stroke: #000000; stroke-width: 0.8"/>
      </g>
     </g>
     <g id="line2d_16">
      <g>
       <use xlink:href="#md742ed7253" x="63.78786" y="17.202655" style="stroke: #000000; stroke-width: 0.8"/>
      </g>
     </g>
    </g>
    <g id="xtick_9">
     <g id="line2d_17">
      <g>
       <use xlink:href="#m7aa724300c" x="75.519034" y="189.681683" style="stroke: #000000; stroke-width: 0.8"/>
      </g>
     </g>
     <g id="line2d_18">
      <g>
       <use xlink:href="#md742ed7253" x="75.519034" y="17.202655" style="stroke: #000000; stroke-width: 0.8"/>
      </g>
     </g>
    </g>
    <g id="xtick_10">
     <g id="line2d_19">
      <g>
       <use xlink:href="#m7aa724300c" x="87.250208" y="189.681683" style="stroke: #000000; stroke-width: 0.8"/>
      </g>
     </g>
     <g id="line2d_20">
      <g>
       <use xlink:href="#md742ed7253" x="87.250208" y="17.202655" style="stroke: #000000; stroke-width: 0.8"/>
      </g>
     </g>
    </g>
    <g id="xtick_11">
     <g id="line2d_21">
      <g>
       <use xlink:href="#m7aa724300c" x="98.981382" y="189.681683" style="stroke: #000000; stroke-width: 0.8"/>
      </g>
     </g>
     <g id="line2d_22">
      <g>
       <use xlink:href="#md742ed7253" x="98.981382" y="17.202655" style="stroke: #000000; stroke-width: 0.8"/>
      </g>
     </g>
    </g>
    <g id="xtick_12">
     <g id="line2d_23">
      <g>
       <use xlink:href="#m7aa724300c" x="122.44373" y="189.681683" style="stroke: #000000; stroke-width: 0.8"/>
      </g>
     </g>
     <g id="line2d_24">
      <g>
       <use xlink:href="#md742ed7253" x="122.44373" y="17.202655" style="stroke: #000000; stroke-width: 0.8"/>
      </g>
     </g>
    </g>
    <g id="xtick_13">
     <g id="line2d_25">
      <g>
       <use xlink:href="#m7aa724300c" x="134.174903" y="189.681683" style="stroke: #000000; stroke-width: 0.8"/>
      </g>
     </g>
     <g id="line2d_26">
      <g>
       <use xlink:href="#md742ed7253" x="134.174903" y="17.202655" style="stroke: #000000; stroke-width: 0.8"/>
      </g>
     </g>
    </g>
    <g id="xtick_14">
     <g id="line2d_27">
      <g>
       <use xlink:href="#m7aa724300c" x="145.906077" y="189.681683" style="stroke: #000000; stroke-width: 0.8"/>
      </g>
     </g>
     <g id="line2d_28">
      <g>
       <use xlink:href="#md742ed7253" x="145.906077" y="17.202655" style="stroke: #000000; stroke-width: 0.8"/>
      </g>
     </g>
    </g>
    <g id="xtick_15">
     <g id="line2d_29">
      <g>
       <use xlink:href="#m7aa724300c" x="157.637251" y="189.681683" style="stroke: #000000; stroke-width: 0.8"/>
      </g>
     </g>
     <g id="line2d_30">
      <g>
       <use xlink:href="#md742ed7253" x="157.637251" y="17.202655" style="stroke: #000000; stroke-width: 0.8"/>
      </g>
     </g>
    </g>
    <g id="xtick_16">
     <g id="line2d_31">
      <g>
       <use xlink:href="#m7aa724300c" x="181.099599" y="189.681683" style="stroke: #000000; stroke-width: 0.8"/>
      </g>
     </g>
     <g id="line2d_32">
      <g>
       <use xlink:href="#md742ed7253" x="181.099599" y="17.202655" style="stroke: #000000; stroke-width: 0.8"/>
      </g>
     </g>
    </g>
    <g id="xtick_17">
     <g id="line2d_33">
      <g>
       <use xlink:href="#m7aa724300c" x="192.830773" y="189.681683" style="stroke: #000000; stroke-width: 0.8"/>
      </g>
     </g>
     <g id="line2d_34">
      <g>
       <use xlink:href="#md742ed7253" x="192.830773" y="17.202655" style="stroke: #000000; stroke-width: 0.8"/>
      </g>
     </g>
    </g>
    <g id="xtick_18">
     <g id="line2d_35">
      <g>
       <use xlink:href="#m7aa724300c" x="204.561946" y="189.681683" style="stroke: #000000; stroke-width: 0.8"/>
      </g>
     </g>
     <g id="line2d_36">
      <g>
       <use xlink:href="#md742ed7253" x="204.561946" y="17.202655" style="stroke: #000000; stroke-width: 0.8"/>
      </g>
     </g>
    </g>
    <g id="xtick_19">
     <g id="line2d_37">
      <g>
       <use xlink:href="#m7aa724300c" x="216.29312" y="189.681683" style="stroke: #000000; stroke-width: 0.8"/>
      </g>
     </g>
     <g id="line2d_38">
      <g>
       <use xlink:href="#md742ed7253" x="216.29312" y="17.202655" style="stroke: #000000; stroke-width: 0.8"/>
      </g>
     </g>
    </g>
    <g id="xtick_20">
     <g id="line2d_39">
      <g>
       <use xlink:href="#m7aa724300c" x="239.755468" y="189.681683" style="stroke: #000000; stroke-width: 0.8"/>
      </g>
     </g>
     <g id="line2d_40">
      <g>
       <use xlink:href="#md742ed7253" x="239.755468" y="17.202655" style="stroke: #000000; stroke-width: 0.8"/>
      </g>
     </g>
    </g>
    <g id="xtick_21">
     <g id="line2d_41">
      <g>
       <use xlink:href="#m7aa724300c" x="251.486642" y="189.681683" style="stroke: #000000; stroke-width: 0.8"/>
      </g>
     </g>
     <g id="line2d_42">
      <g>
       <use xlink:href="#md742ed7253" x="251.486642" y="17.202655" style="stroke: #000000; stroke-width: 0.8"/>
      </g>
     </g>
    </g>
    <g id="xtick_22">
     <g id="line2d_43">
      <g>
       <use xlink:href="#m7aa724300c" x="263.217816" y="189.681683" style="stroke: #000000; stroke-width: 0.8"/>
      </g>
     </g>
     <g id="line2d_44">
      <g>
       <use xlink:href="#md742ed7253" x="263.217816" y="17.202655" style="stroke: #000000; stroke-width: 0.8"/>
      </g>
     </g>
    </g>
    <g id="xtick_23">
     <g id="line2d_45">
      <g>
       <use xlink:href="#m7aa724300c" x="274.94899" y="189.681683" style="stroke: #000000; stroke-width: 0.8"/>
      </g>
     </g>
     <g id="line2d_46">
      <g>
       <use xlink:href="#md742ed7253" x="274.94899" y="17.202655" style="stroke: #000000; stroke-width: 0.8"/>
      </g>
     </g>
    </g>
    <g id="xtick_24">
     <g id="line2d_47">
      <g>
       <use xlink:href="#m7aa724300c" x="298.411337" y="189.681683" style="stroke: #000000; stroke-width: 0.8"/>
      </g>
     </g>
     <g id="line2d_48">
      <g>
       <use xlink:href="#md742ed7253" x="298.411337" y="17.202655" style="stroke: #000000; stroke-width: 0.8"/>
      </g>
     </g>
    </g>
    <g id="xtick_25">
     <g id="line2d_49">
      <g>
       <use xlink:href="#m7aa724300c" x="310.142511" y="189.681683" style="stroke: #000000; stroke-width: 0.8"/>
      </g>
     </g>
     <g id="line2d_50">
      <g>
       <use xlink:href="#md742ed7253" x="310.142511" y="17.202655" style="stroke: #000000; stroke-width: 0.8"/>
      </g>
     </g>
    </g>
    <g id="xtick_26">
     <g id="line2d_51">
      <g>
       <use xlink:href="#m7aa724300c" x="321.873685" y="189.681683" style="stroke: #000000; stroke-width: 0.8"/>
      </g>
     </g>
     <g id="line2d_52">
      <g>
       <use xlink:href="#md742ed7253" x="321.873685" y="17.202655" style="stroke: #000000; stroke-width: 0.8"/>
      </g>
     </g>
    </g>
    <g id="xtick_27">
     <g id="line2d_53">
      <g>
       <use xlink:href="#m7aa724300c" x="333.604859" y="189.681683" style="stroke: #000000; stroke-width: 0.8"/>
      </g>
     </g>
     <g id="line2d_54">
      <g>
       <use xlink:href="#md742ed7253" x="333.604859" y="17.202655" style="stroke: #000000; stroke-width: 0.8"/>
      </g>
     </g>
    </g>
    <g id="xtick_28">
     <g id="line2d_55">
      <g>
       <use xlink:href="#m7aa724300c" x="357.067207" y="189.681683" style="stroke: #000000; stroke-width: 0.8"/>
      </g>
     </g>
     <g id="line2d_56">
      <g>
       <use xlink:href="#md742ed7253" x="357.067207" y="17.202655" style="stroke: #000000; stroke-width: 0.8"/>
      </g>
     </g>
    </g>
    <g id="text_7">
     <!-- Proton $z$-vertex (cm) -->
     <g transform="translate(152.477225 213.50934) scale(0.1 -0.1)">
      <defs>
       <path id="CMR17-50" d="M 1267 2042 
L 2291 2042 
C 3117 2042 3718 2578 3718 3184 
C 3718 3791 3130 4352 2291 4352 
L 333 4352 
L 333 4186 
C 774 4186 845 4186 845 3899 
L 845 446 
C 845 160 774 160 333 160 
L 333 0 
C 518 0 858 0 1056 0 
C 1254 0 1594 0 1779 0 
L 1779 160 
C 1338 160 1267 160 1267 446 
L 1267 2042 
z
M 1254 2176 
L 1254 3938 
C 1254 4155 1267 4186 1523 4186 
L 2170 4186 
C 2995 4186 3232 3714 3232 3184 
C 3232 2604 2950 2176 2170 2176 
L 1254 2176 
z
" transform="scale(0.015625)"/>
       <path id="CMR17-72" d="M 960 1497 
C 960 2112 1222 2688 1702 2688 
C 1747 2688 1792 2682 1837 2662 
C 1837 2662 1696 2617 1696 2452 
C 1696 2298 1818 2234 1914 2234 
C 1990 2234 2131 2279 2131 2458 
C 2131 2663 1926 2790 1709 2790 
C 1222 2790 1011 2317 947 2093 
L 941 2093 
L 941 2790 
L 198 2720 
L 198 2554 
C 576 2554 634 2515 634 2208 
L 634 428 
C 634 184 608 153 198 153 
L 198 -13 
C 352 0 646 0 813 0 
C 998 0 1325 0 1498 -13 
L 1498 153 
C 1037 153 960 153 960 440 
L 960 1497 
z
" transform="scale(0.015625)"/>
       <path id="CMR17-6f" d="M 2758 1356 
C 2758 2176 2163 2816 1466 2816 
C 768 2816 173 2176 173 1356 
C 173 551 768 -64 1466 -64 
C 2163 -64 2758 551 2758 1356 
z
M 1466 51 
C 1165 51 909 230 762 480 
C 602 767 582 1126 582 1408 
C 582 1677 595 2010 762 2298 
C 890 2509 1139 2714 1466 2714 
C 1754 2714 1997 2554 2150 2330 
C 2349 2029 2349 1607 2349 1408 
C 2349 1158 2336 775 2163 467 
C 1984 173 1709 51 1466 51 
z
" transform="scale(0.015625)"/>
       <path id="CMR17-74" d="M 966 2560 
L 1862 2560 
L 1862 2725 
L 966 2725 
L 966 3904 
L 851 3904 
C 838 3245 614 2668 70 2668 
L 70 2560 
L 627 2560 
L 627 771 
C 627 650 627 -64 1370 -64 
C 1747 -64 1965 306 1965 777 
L 1965 1140 
L 1850 1140 
L 1850 783 
C 1850 344 1677 51 1408 51 
C 1222 51 966 178 966 758 
L 966 2560 
z
" transform="scale(0.015625)"/>
       <path id="CMR17-6e" d="M 2656 1933 
C 2656 2259 2592 2790 1837 2790 
C 1331 2790 1069 2400 973 2144 
L 966 2144 
L 966 2790 
L 211 2720 
L 211 2554 
C 589 2554 646 2515 646 2208 
L 646 428 
C 646 184 621 153 211 153 
L 211 -13 
C 365 0 646 0 813 0 
C 979 0 1267 0 1421 -13 
L 1421 153 
C 1011 153 986 178 986 428 
L 986 1658 
C 986 2247 1344 2688 1792 2688 
C 2266 2688 2317 2266 2317 1958 
L 2317 428 
C 2317 184 2291 153 1882 153 
L 1882 -13 
C 2035 0 2317 0 2483 0 
C 2650 0 2938 0 3091 -13 
L 3091 153 
C 2682 153 2656 178 2656 428 
L 2656 1933 
z
" transform="scale(0.015625)"/>
       <path id="CMMI12-7a" d="M 813 486 
C 1088 803 1312 1004 1632 1296 
C 2016 1632 2182 1793 2272 1891 
C 2720 2338 2944 2713 2944 2764 
C 2944 2816 2893 2816 2880 2816 
C 2835 2816 2822 2793 2790 2750 
C 2630 2494 2477 2367 2310 2367 
C 2176 2367 2106 2421 1984 2565 
C 1850 2715 1741 2816 1555 2816 
C 1088 2816 806 2257 806 2128 
C 806 2108 813 2068 870 2068 
C 922 2068 928 2091 947 2133 
C 1056 2372 1363 2414 1485 2414 
C 1619 2414 1747 2376 1882 2327 
C 2125 2240 2227 2240 2291 2240 
C 2336 2240 2362 2240 2394 2246 
C 2182 1994 1837 1683 1549 1418 
L 902 816 
C 512 415 275 33 275 -12 
C 275 -51 307 -64 346 -64 
C 384 -64 390 -57 435 14 
C 538 163 742 384 979 384 
C 1114 384 1178 342 1306 193 
C 1427 61 1536 -64 1741 -64 
C 2368 -64 2726 732 2726 876 
C 2726 903 2720 942 2656 942 
C 2605 942 2598 917 2579 855 
C 2438 488 2061 338 1811 338 
C 1677 338 1549 376 1414 425 
C 1158 512 1088 512 1005 512 
C 941 512 870 512 813 486 
z
" transform="scale(0.015625)"/>
       <path id="CMR17-2d" d="M 1632 1216 
L 1632 1496 
L 26 1496 
L 26 1216 
L 1632 1216 
z
" transform="scale(0.015625)"/>
       <path id="CMR17-76" d="M 2502 2163 
C 2560 2304 2662 2560 3034 2560 
L 3034 2726 
C 2912 2726 2752 2726 2630 2726 
C 2496 2726 2285 2726 2157 2732 
L 2157 2566 
C 2317 2553 2406 2477 2406 2311 
C 2406 2253 2406 2240 2368 2151 
L 1664 377 
L 902 2286 
C 864 2369 864 2381 864 2407 
C 864 2560 1075 2560 1171 2560 
L 1171 2732 
C 1018 2726 736 2726 576 2726 
C 403 2726 205 2726 64 2732 
L 64 2560 
C 307 2560 442 2560 518 2362 
L 1446 44 
C 1485 -51 1491 -64 1549 -64 
C 1606 -64 1613 -51 1651 44 
L 2502 2163 
z
" transform="scale(0.015625)"/>
       <path id="CMR17-65" d="M 2438 1472 
C 2464 1498 2464 1511 2464 1576 
C 2464 2238 2118 2816 1389 2816 
C 710 2816 173 2169 173 1383 
C 173 551 781 -64 1459 -64 
C 2176 -64 2458 607 2458 740 
C 2458 784 2419 784 2406 784 
C 2362 784 2355 771 2330 696 
C 2189 265 1837 51 1504 51 
C 1229 51 954 203 781 480 
C 582 803 582 1176 582 1472 
L 2438 1472 
z
M 589 1568 
C 634 2505 1126 2714 1382 2714 
C 1818 2714 2112 2297 2118 1568 
L 589 1568 
z
" transform="scale(0.015625)"/>
       <path id="CMR17-78" d="M 1664 1477 
C 1856 1726 2074 2006 2253 2216 
C 2464 2458 2707 2560 2989 2560 
L 2989 2726 
C 2880 2726 2656 2726 2541 2726 
C 2368 2726 2170 2726 2022 2732 
L 2022 2566 
C 2112 2553 2163 2489 2163 2400 
C 2163 2285 2099 2215 2067 2171 
L 1594 1573 
L 1030 2306 
C 973 2376 973 2388 973 2420 
C 973 2497 1037 2560 1146 2560 
L 1146 2732 
C 992 2726 717 2726 557 2726 
C 384 2726 179 2726 38 2732 
L 38 2560 
C 384 2560 461 2534 614 2343 
L 1350 1395 
C 1363 1382 1395 1344 1395 1325 
C 1395 1299 838 619 768 530 
C 480 185 179 160 6 160 
L 6 0 
C 115 0 339 0 454 0 
C 582 0 864 0 979 -6 
L 979 160 
C 941 166 838 179 838 325 
C 838 440 890 510 947 586 
L 1478 1236 
L 2035 512 
C 2086 442 2163 346 2163 301 
C 2163 211 2086 160 1984 160 
L 1984 -6 
C 2138 0 2413 0 2573 0 
C 2746 0 2950 0 3091 -6 
L 3091 160 
C 2771 160 2675 172 2522 370 
L 1664 1477 
z
" transform="scale(0.015625)"/>
       <path id="CMR17-28" d="M 1958 -1561 
C 1958 -1555 1958 -1542 1939 -1523 
C 1645 -1224 858 -407 858 1581 
C 858 3569 1632 4379 1946 4697 
C 1946 4704 1958 4717 1958 4736 
C 1958 4755 1939 4768 1914 4768 
C 1843 4768 1299 4296 986 3594 
C 666 2887 576 2199 576 1588 
C 576 1128 621 351 1005 -471 
C 1312 -1135 1837 -1600 1914 -1600 
C 1946 -1600 1958 -1587 1958 -1561 
z
" transform="scale(0.015625)"/>
       <path id="CMR17-63" d="M 2234 2240 
C 2112 2240 1933 2240 1933 2017 
C 1933 1838 2080 1787 2163 1787 
C 2208 1787 2394 1807 2394 2024 
C 2394 2467 1958 2803 1466 2803 
C 787 2803 211 2178 211 1363 
C 211 516 813 -64 1466 -64 
C 2259 -64 2458 677 2458 748 
C 2458 774 2451 793 2406 793 
C 2362 793 2355 787 2330 703 
C 2163 180 1798 51 1523 51 
C 1114 51 621 427 621 1369 
C 621 2338 1094 2688 1472 2688 
C 1722 2688 2093 2573 2234 2240 
z
" transform="scale(0.015625)"/>
       <path id="CMR17-6d" d="M 4326 1933 
C 4326 2252 4269 2790 3507 2790 
C 3072 2790 2771 2496 2656 2151 
L 2650 2151 
C 2573 2676 2195 2790 1837 2790 
C 1331 2790 1069 2400 973 2144 
L 966 2144 
L 966 2790 
L 211 2720 
L 211 2554 
C 589 2554 646 2515 646 2208 
L 646 428 
C 646 184 621 153 211 153 
L 211 -13 
C 365 0 646 0 813 0 
C 979 0 1267 0 1421 -13 
L 1421 153 
C 1011 153 986 178 986 428 
L 986 1658 
C 986 2247 1344 2688 1792 2688 
C 2266 2688 2317 2266 2317 1958 
L 2317 428 
C 2317 184 2291 153 1882 153 
L 1882 -13 
C 2035 0 2317 0 2483 0 
C 2650 0 2938 0 3091 -13 
L 3091 153 
C 2682 153 2656 178 2656 428 
L 2656 1658 
C 2656 2247 3014 2688 3462 2688 
C 3936 2688 3987 2266 3987 1958 
L 3987 428 
C 3987 184 3962 153 3552 153 
L 3552 -13 
C 3706 0 3987 0 4154 0 
C 4320 0 4608 0 4762 -13 
L 4762 153 
C 4352 153 4326 178 4326 428 
L 4326 1933 
z
" transform="scale(0.015625)"/>
       <path id="CMR17-29" d="M 1683 1581 
C 1683 2040 1638 2817 1254 3639 
C 947 4303 422 4768 346 4768 
C 326 4768 301 4761 301 4729 
C 301 4717 307 4710 314 4697 
C 621 4378 1402 3568 1402 1584 
C 1402 -407 627 -1217 314 -1537 
C 307 -1549 301 -1556 301 -1568 
C 301 -1600 326 -1600 346 -1600 
C 416 -1600 960 -1128 1274 -426 
C 1594 281 1683 969 1683 1581 
z
" transform="scale(0.015625)"/>
      </defs>
      <use xlink:href="#CMR17-50" transform="scale(0.996264)"/>
      <use xlink:href="#CMR17-72" transform="translate(62.586301 0) scale(0.996264)"/>
      <use xlink:href="#CMR17-6f" transform="translate(97.867068 0) scale(0.996264)"/>
      <use xlink:href="#CMR17-74" transform="translate(143.557545 0) scale(0.996264)"/>
      <use xlink:href="#CMR17-6f" transform="translate(178.838313 0) scale(0.996264)"/>
      <use xlink:href="#CMR17-6e" transform="translate(224.52879 0) scale(0.996264)"/>
      <use xlink:href="#CMMI12-7a" transform="translate(305.500126 0) scale(0.996264)"/>
      <use xlink:href="#CMR17-2d" transform="translate(355.255271 0) scale(0.996264)"/>
      <use xlink:href="#CMR17-76" transform="translate(385.331238 0) scale(0.996264)"/>
      <use xlink:href="#CMR17-65" transform="translate(431.0217 0) scale(0.996264)"/>
      <use xlink:href="#CMR17-72" transform="translate(471.50736 0) scale(0.996264)"/>
      <use xlink:href="#CMR17-74" transform="translate(506.788128 0) scale(0.996264)"/>
      <use xlink:href="#CMR17-65" transform="translate(542.068896 0) scale(0.996264)"/>
      <use xlink:href="#CMR17-78" transform="translate(582.554556 0) scale(0.996264)"/>
      <use xlink:href="#CMR17-28" transform="translate(660.923438 0) scale(0.996264)"/>
      <use xlink:href="#CMR17-63" transform="translate(696.204206 0) scale(0.996264)"/>
      <use xlink:href="#CMR17-6d" transform="translate(736.689867 0) scale(0.996264)"/>
      <use xlink:href="#CMR17-29" transform="translate(813.609456 0) scale(0.996264)"/>
     </g>
    </g>
   </g>
   <g id="matplotlib.axis_2">
    <g id="ytick_1">
     <g id="line2d_57">
      <defs>
       <path id="mea06ed9217" d="M 0 0 
L 4 0 
" style="stroke: #000000; stroke-width: 1.2"/>
      </defs>
      <g>
       <use xlink:href="#mea06ed9217" x="37.392719" y="189.681683" style="stroke: #000000; stroke-width: 1.2"/>
      </g>
     </g>
     <g id="line2d_58">
      <defs>
       <path id="mcb92d0c0c4" d="M 0 0 
L -4 0 
" style="stroke: #000000; stroke-width: 1.2"/>
      </defs>
      <g>
       <use xlink:href="#mcb92d0c0c4" x="360" y="189.681683" style="stroke: #000000; stroke-width: 1.2"/>
      </g>
     </g>
     <g id="text_8">
      <!-- $\mathdefault{0.0}$ -->
      <g transform="translate(21.16264 193.140932) scale(0.1 -0.1)">
       <defs>
        <path id="CMMI12-3a" d="M 1178 307 
C 1178 492 1024 619 870 619 
C 685 619 557 466 557 313 
C 557 128 710 0 864 0 
C 1050 0 1178 153 1178 307 
z
" transform="scale(0.015625)"/>
       </defs>
       <use xlink:href="#CMR17-30" transform="scale(0.996264)"/>
       <use xlink:href="#CMMI12-3a" transform="translate(45.690477 0) scale(0.996264)"/>
       <use xlink:href="#CMR17-30" transform="translate(72.787654 0) scale(0.996264)"/>
      </g>
     </g>
    </g>
    <g id="ytick_2">
     <g id="line2d_59">
      <g>
       <use xlink:href="#mea06ed9217" x="37.392719" y="148.84773" style="stroke: #000000; stroke-width: 1.2"/>
      </g>
     </g>
     <g id="line2d_60">
      <g>
       <use xlink:href="#mcb92d0c0c4" x="360" y="148.84773" style="stroke: #000000; stroke-width: 1.2"/>
      </g>
     </g>
     <g id="text_9">
      <!-- $\mathdefault{0.5}$ -->
      <g transform="translate(21.16264 152.306979) scale(0.1 -0.1)">
       <use xlink:href="#CMR17-30" transform="scale(0.996264)"/>
       <use xlink:href="#CMMI12-3a" transform="translate(45.690477 0) scale(0.996264)"/>
       <use xlink:href="#CMR17-35" transform="translate(72.787654 0) scale(0.996264)"/>
      </g>
     </g>
    </g>
    <g id="ytick_3">
     <g id="line2d_61">
      <g>
       <use xlink:href="#mea06ed9217" x="37.392719" y="108.013777" style="stroke: #000000; stroke-width: 1.2"/>
      </g>
     </g>
     <g id="line2d_62">
      <g>
       <use xlink:href="#mcb92d0c0c4" x="360" y="108.013777" style="stroke: #000000; stroke-width: 1.2"/>
      </g>
     </g>
     <g id="text_10">
      <!-- $\mathdefault{1.0}$ -->
      <g transform="translate(21.16264 111.473026) scale(0.1 -0.1)">
       <defs>
        <path id="CMR17-31" d="M 1702 4058 
C 1702 4192 1696 4192 1606 4192 
C 1357 3916 979 3827 621 3827 
C 602 3827 570 3827 563 3808 
C 557 3795 557 3782 557 3648 
C 755 3648 1088 3686 1344 3839 
L 1344 461 
C 1344 236 1331 160 781 160 
L 589 160 
L 589 0 
C 896 0 1216 0 1523 0 
C 1830 0 2150 0 2458 0 
L 2458 160 
L 2266 160 
C 1715 160 1702 230 1702 458 
L 1702 4058 
z
" transform="scale(0.015625)"/>
       </defs>
       <use xlink:href="#CMR17-31" transform="scale(0.996264)"/>
       <use xlink:href="#CMMI12-3a" transform="translate(45.690477 0) scale(0.996264)"/>
       <use xlink:href="#CMR17-30" transform="translate(72.787654 0) scale(0.996264)"/>
      </g>
     </g>
    </g>
    <g id="ytick_4">
     <g id="line2d_63">
      <g>
       <use xlink:href="#mea06ed9217" x="37.392719" y="67.179824" style="stroke: #000000; stroke-width: 1.2"/>
      </g>
     </g>
     <g id="line2d_64">
      <g>
       <use xlink:href="#mcb92d0c0c4" x="360" y="67.179824" style="stroke: #000000; stroke-width: 1.2"/>
      </g>
     </g>
     <g id="text_11">
      <!-- $\mathdefault{1.5}$ -->
      <g transform="translate(21.16264 70.639073) scale(0.1 -0.1)">
       <use xlink:href="#CMR17-31" transform="scale(0.996264)"/>
       <use xlink:href="#CMMI12-3a" transform="translate(45.690477 0) scale(0.996264)"/>
       <use xlink:href="#CMR17-35" transform="translate(72.787654 0) scale(0.996264)"/>
      </g>
     </g>
    </g>
    <g id="ytick_5">
     <g id="line2d_65">
      <g>
       <use xlink:href="#mea06ed9217" x="37.392719" y="26.345871" style="stroke: #000000; stroke-width: 1.2"/>
      </g>
     </g>
     <g id="line2d_66">
      <g>
       <use xlink:href="#mcb92d0c0c4" x="360" y="26.345871" style="stroke: #000000; stroke-width: 1.2"/>
      </g>
     </g>
     <g id="text_12">
      <!-- $\mathdefault{2.0}$ -->
      <g transform="translate(21.16264 29.80512) scale(0.1 -0.1)">
       <defs>
        <path id="CMR17-32" d="M 2669 989 
L 2554 989 
C 2490 536 2438 459 2413 420 
C 2381 369 1920 369 1830 369 
L 602 369 
C 832 619 1280 1072 1824 1597 
C 2214 1967 2669 2402 2669 3035 
C 2669 3790 2067 4224 1395 4224 
C 691 4224 262 3604 262 3030 
C 262 2780 448 2748 525 2748 
C 589 2748 781 2787 781 3010 
C 781 3207 614 3264 525 3264 
C 486 3264 448 3258 422 3245 
C 544 3790 915 4058 1306 4058 
C 1862 4058 2227 3617 2227 3035 
C 2227 2479 1901 2000 1536 1584 
L 262 146 
L 262 0 
L 2515 0 
L 2669 989 
z
" transform="scale(0.015625)"/>
       </defs>
       <use xlink:href="#CMR17-32" transform="scale(0.996264)"/>
       <use xlink:href="#CMMI12-3a" transform="translate(45.690477 0) scale(0.996264)"/>
       <use xlink:href="#CMR17-30" transform="translate(72.787654 0) scale(0.996264)"/>
      </g>
     </g>
    </g>
    <g id="ytick_6">
     <g id="line2d_67">
      <defs>
       <path id="mf151d9d35b" d="M 0 0 
L 2.5 0 
" style="stroke: #000000; stroke-width: 0.8"/>
      </defs>
      <g>
       <use xlink:href="#mf151d9d35b" x="37.392719" y="181.514893" style="stroke: #000000; stroke-width: 0.8"/>
      </g>
     </g>
     <g id="line2d_68">
      <defs>
       <path id="mb679ff7309" d="M 0 0 
L -2.5 0 
" style="stroke: #000000; stroke-width: 0.8"/>
      </defs>
      <g>
       <use xlink:href="#mb679ff7309" x="360" y="181.514893" style="stroke: #000000; stroke-width: 0.8"/>
      </g>
     </g>
    </g>
    <g id="ytick_7">
     <g id="line2d_69">
      <g>
       <use xlink:href="#mf151d9d35b" x="37.392719" y="173.348102" style="stroke: #000000; stroke-width: 0.8"/>
      </g>
     </g>
     <g id="line2d_70">
      <g>
       <use xlink:href="#mb679ff7309" x="360" y="173.348102" style="stroke: #000000; stroke-width: 0.8"/>
      </g>
     </g>
    </g>
    <g id="ytick_8">
     <g id="line2d_71">
      <g>
       <use xlink:href="#mf151d9d35b" x="37.392719" y="165.181311" style="stroke: #000000; stroke-width: 0.8"/>
      </g>
     </g>
     <g id="line2d_72">
      <g>
       <use xlink:href="#mb679ff7309" x="360" y="165.181311" style="stroke: #000000; stroke-width: 0.8"/>
      </g>
     </g>
    </g>
    <g id="ytick_9">
     <g id="line2d_73">
      <g>
       <use xlink:href="#mf151d9d35b" x="37.392719" y="157.014521" style="stroke: #000000; stroke-width: 0.8"/>
      </g>
     </g>
     <g id="line2d_74">
      <g>
       <use xlink:href="#mb679ff7309" x="360" y="157.014521" style="stroke: #000000; stroke-width: 0.8"/>
      </g>
     </g>
    </g>
    <g id="ytick_10">
     <g id="line2d_75">
      <g>
       <use xlink:href="#mf151d9d35b" x="37.392719" y="140.680939" style="stroke: #000000; stroke-width: 0.8"/>
      </g>
     </g>
     <g id="line2d_76">
      <g>
       <use xlink:href="#mb679ff7309" x="360" y="140.680939" style="stroke: #000000; stroke-width: 0.8"/>
      </g>
     </g>
    </g>
    <g id="ytick_11">
     <g id="line2d_77">
      <g>
       <use xlink:href="#mf151d9d35b" x="37.392719" y="132.514149" style="stroke: #000000; stroke-width: 0.8"/>
      </g>
     </g>
     <g id="line2d_78">
      <g>
       <use xlink:href="#mb679ff7309" x="360" y="132.514149" style="stroke: #000000; stroke-width: 0.8"/>
      </g>
     </g>
    </g>
    <g id="ytick_12">
     <g id="line2d_79">
      <g>
       <use xlink:href="#mf151d9d35b" x="37.392719" y="124.347358" style="stroke: #000000; stroke-width: 0.8"/>
      </g>
     </g>
     <g id="line2d_80">
      <g>
       <use xlink:href="#mb679ff7309" x="360" y="124.347358" style="stroke: #000000; stroke-width: 0.8"/>
      </g>
     </g>
    </g>
    <g id="ytick_13">
     <g id="line2d_81">
      <g>
       <use xlink:href="#mf151d9d35b" x="37.392719" y="116.180568" style="stroke: #000000; stroke-width: 0.8"/>
      </g>
     </g>
     <g id="line2d_82">
      <g>
       <use xlink:href="#mb679ff7309" x="360" y="116.180568" style="stroke: #000000; stroke-width: 0.8"/>
      </g>
     </g>
    </g>
    <g id="ytick_14">
     <g id="line2d_83">
      <g>
       <use xlink:href="#mf151d9d35b" x="37.392719" y="99.846986" style="stroke: #000000; stroke-width: 0.8"/>
      </g>
     </g>
     <g id="line2d_84">
      <g>
       <use xlink:href="#mb679ff7309" x="360" y="99.846986" style="stroke: #000000; stroke-width: 0.8"/>
      </g>
     </g>
    </g>
    <g id="ytick_15">
     <g id="line2d_85">
      <g>
       <use xlink:href="#mf151d9d35b" x="37.392719" y="91.680196" style="stroke: #000000; stroke-width: 0.8"/>
      </g>
     </g>
     <g id="line2d_86">
      <g>
       <use xlink:href="#mb679ff7309" x="360" y="91.680196" style="stroke: #000000; stroke-width: 0.8"/>
      </g>
     </g>
    </g>
    <g id="ytick_16">
     <g id="line2d_87">
      <g>
       <use xlink:href="#mf151d9d35b" x="37.392719" y="83.513405" style="stroke: #000000; stroke-width: 0.8"/>
      </g>
     </g>
     <g id="line2d_88">
      <g>
       <use xlink:href="#mb679ff7309" x="360" y="83.513405" style="stroke: #000000; stroke-width: 0.8"/>
      </g>
     </g>
    </g>
    <g id="ytick_17">
     <g id="line2d_89">
      <g>
       <use xlink:href="#mf151d9d35b" x="37.392719" y="75.346614" style="stroke: #000000; stroke-width: 0.8"/>
      </g>
     </g>
     <g id="line2d_90">
      <g>
       <use xlink:href="#mb679ff7309" x="360" y="75.346614" style="stroke: #000000; stroke-width: 0.8"/>
      </g>
     </g>
    </g>
    <g id="ytick_18">
     <g id="line2d_91">
      <g>
       <use xlink:href="#mf151d9d35b" x="37.392719" y="59.013033" style="stroke: #000000; stroke-width: 0.8"/>
      </g>
     </g>
     <g id="line2d_92">
      <g>
       <use xlink:href="#mb679ff7309" x="360" y="59.013033" style="stroke: #000000; stroke-width: 0.8"/>
      </g>
     </g>
    </g>
    <g id="ytick_19">
     <g id="line2d_93">
      <g>
       <use xlink:href="#mf151d9d35b" x="37.392719" y="50.846242" style="stroke: #000000; stroke-width: 0.8"/>
      </g>
     </g>
     <g id="line2d_94">
      <g>
       <use xlink:href="#mb679ff7309" x="360" y="50.846242" style="stroke: #000000; stroke-width: 0.8"/>
      </g>
     </g>
    </g>
    <g id="ytick_20">
     <g id="line2d_95">
      <g>
       <use xlink:href="#mf151d9d35b" x="37.392719" y="42.679452" style="stroke: #000000; stroke-width: 0.8"/>
      </g>
     </g>
     <g id="line2d_96">
      <g>
       <use xlink:href="#mb679ff7309" x="360" y="42.679452" style="stroke: #000000; stroke-width: 0.8"/>
      </g>
     </g>
    </g>
    <g id="ytick_21">
     <g id="line2d_97">
      <g>
       <use xlink:href="#mf151d9d35b" x="37.392719" y="34.512661" style="stroke: #000000; stroke-width: 0.8"/>
      </g>
     </g>
     <g id="line2d_98">
      <g>
       <use xlink:href="#mb679ff7309" x="360" y="34.512661" style="stroke: #000000; stroke-width: 0.8"/>
      </g>
     </g>
    </g>
    <g id="ytick_22">
     <g id="line2d_99">
      <g>
       <use xlink:href="#mf151d9d35b" x="37.392719" y="18.17908" style="stroke: #000000; stroke-width: 0.8"/>
      </g>
     </g>
     <g id="line2d_100">
      <g>
       <use xlink:href="#mb679ff7309" x="360" y="18.17908" style="stroke: #000000; stroke-width: 0.8"/>
      </g>
     </g>
    </g>
    <g id="text_13">
     <!-- Counts / 1 (cm) -->
     <g transform="translate(14.67198 139.030994) rotate(-90) scale(0.1 -0.1)">
      <defs>
       <path id="CMR17-43" d="M 3974 4289 
C 3974 4403 3968 4410 3930 4410 
C 3904 4410 3898 4403 3853 4327 
L 3571 3792 
C 3258 4187 2874 4416 2381 4416 
C 1286 4416 294 3456 294 2148 
C 294 826 1286 -128 2387 -128 
C 3366 -128 3974 730 3974 1461 
C 3974 1524 3974 1550 3917 1550 
C 3866 1550 3866 1531 3859 1474 
C 3808 585 3168 38 2477 38 
C 1824 38 781 495 781 2147 
C 781 3805 1843 4250 2464 4250 
C 3187 4250 3712 3628 3834 2745 
C 3846 2668 3846 2655 3904 2655 
C 3974 2655 3974 2668 3974 2783 
L 3974 4289 
z
" transform="scale(0.015625)"/>
       <path id="CMR17-75" d="M 1882 2693 
L 1882 2528 
C 2259 2528 2317 2489 2317 2186 
L 2317 1032 
C 2317 500 2029 38 1555 38 
C 1030 38 986 348 986 678 
L 986 2763 
L 211 2693 
L 211 2528 
C 467 2528 640 2528 646 2274 
L 646 1058 
C 646 633 646 361 813 183 
C 896 101 1056 -64 1517 -64 
C 2061 -64 2272 377 2323 506 
L 2330 506 
L 2330 -63 
L 3091 -63 
L 3091 128 
C 2714 128 2656 166 2656 473 
L 2656 2763 
L 1882 2693 
z
" transform="scale(0.015625)"/>
       <path id="CMR17-73" d="M 1978 2697 
C 1978 2813 1971 2819 1933 2819 
C 1907 2819 1901 2813 1824 2717 
C 1805 2691 1747 2626 1728 2601 
C 1523 2819 1235 2819 1126 2819 
C 416 2819 160 2447 160 2076 
C 160 1498 813 1365 998 1325 
C 1402 1243 1542 1217 1677 1101 
C 1760 1025 1901 884 1901 654 
C 1901 384 1747 38 1158 38 
C 602 38 403 460 288 1021 
C 269 1110 269 1117 218 1117 
C 166 1117 160 1110 160 983 
L 160 63 
C 160 -51 166 -58 205 -58 
C 237 -58 243 -51 275 0 
C 314 57 410 211 448 276 
C 576 103 800 -64 1158 -64 
C 1792 -64 2131 283 2131 784 
C 2131 1112 1958 1285 1875 1362 
C 1683 1561 1459 1606 1190 1657 
C 838 1735 390 1825 390 2217 
C 390 2383 480 2737 1126 2737 
C 1811 2737 1850 2094 1862 1888 
C 1869 1856 1901 1849 1920 1849 
C 1978 1849 1978 1869 1978 1978 
L 1978 2697 
z
" transform="scale(0.015625)"/>
       <path id="CMR17-2f" d="M 2605 4545 
C 2637 4627 2637 4640 2637 4653 
C 2637 4729 2579 4768 2528 4768 
C 2451 4768 2426 4717 2400 4640 
L 326 -1377 
C 294 -1460 294 -1473 294 -1486 
C 294 -1562 352 -1600 403 -1600 
C 480 -1600 506 -1549 531 -1473 
L 2605 4545 
z
" transform="scale(0.015625)"/>
      </defs>
      <use xlink:href="#CMR17-43" transform="scale(0.996264)"/>
      <use xlink:href="#CMR17-6f" transform="translate(66.509881 0) scale(0.996264)"/>
      <use xlink:href="#CMR17-75" transform="translate(112.200358 0) scale(0.996264)"/>
      <use xlink:href="#CMR17-6e" transform="translate(163.095727 0) scale(0.996264)"/>
      <use xlink:href="#CMR17-74" transform="translate(211.388643 0) scale(0.996264)"/>
      <use xlink:href="#CMR17-73" transform="translate(246.669411 0) scale(0.996264)"/>
      <use xlink:href="#CMR17-2f" transform="translate(312.546715 0) scale(0.996264)"/>
      <use xlink:href="#CMR17-31" transform="translate(388.313159 0) scale(0.996264)"/>
      <use xlink:href="#CMR17-28" transform="translate(464.079602 0) scale(0.996264)"/>
      <use xlink:href="#CMR17-63" transform="translate(499.36037 0) scale(0.996264)"/>
      <use xlink:href="#CMR17-6d" transform="translate(539.84603 0) scale(0.996264)"/>
      <use xlink:href="#CMR17-29" transform="translate(616.76562 0) scale(0.996264)"/>
     </g>
    </g>
    <g id="text_14">
     <!-- $\times\mathdefault{10^{5}}\mathdefault{}$ -->
     <g transform="translate(37.392719 14.202655) scale(0.1 -0.1)">
      <defs>
       <path id="CMSY10-2" d="M 2490 1785 
L 1210 3059 
C 1133 3136 1120 3148 1069 3148 
C 1005 3148 941 3091 941 3020 
C 941 2976 954 2963 1024 2892 
L 2304 1606 
L 1024 320 
C 954 249 941 236 941 192 
C 941 121 1005 64 1069 64 
C 1120 64 1133 76 1210 153 
L 2483 1427 
L 3808 102 
C 3821 96 3866 64 3904 64 
C 3981 64 4032 121 4032 192 
C 4032 204 4032 230 4013 262 
C 4006 275 2989 1280 2669 1606 
L 3840 2777 
C 3872 2816 3968 2899 4000 2937 
C 4006 2950 4032 2976 4032 3020 
C 4032 3091 3981 3148 3904 3148 
C 3853 3148 3827 3123 3757 3052 
L 2490 1785 
z
" transform="scale(0.015625)"/>
      </defs>
      <use xlink:href="#CMSY10-2" transform="scale(0.996264)"/>
      <use xlink:href="#CMR17-31" transform="translate(77.487468 0) scale(0.996264)"/>
      <use xlink:href="#CMR17-30" transform="translate(123.177945 0) scale(0.996264)"/>
      <use xlink:href="#CMR17-35" transform="translate(168.868422 36.153639) scale(0.697382)"/>
     </g>
    </g>
   </g>
   <g id="LineCollection_1">
    <path d="M 54.98948 187.91229 
L 54.98948 187.797063 
" clip-path="url(#p8a52fc6545)" style="fill: none; stroke: #377eb8; stroke-width: 0.5"/>
    <path d="M 60.855067 187.629136 
L 60.855067 187.505326 
" clip-path="url(#p8a52fc6545)" style="fill: none; stroke: #377eb8; stroke-width: 0.5"/>
    <path d="M 66.720654 187.283487 
L 66.720654 187.151039 
" clip-path="url(#p8a52fc6545)" style="fill: none; stroke: #377eb8; stroke-width: 0.5"/>
    <path d="M 72.586241 186.897726 
L 72.586241 186.754287 
" clip-path="url(#p8a52fc6545)" style="fill: none; stroke: #377eb8; stroke-width: 0.5"/>
    <path d="M 78.451828 186.315202 
L 78.451828 186.157355 
" clip-path="url(#p8a52fc6545)" style="fill: none; stroke: #377eb8; stroke-width: 0.5"/>
    <path d="M 84.317414 185.353794 
L 84.317414 185.176889 
" clip-path="url(#p8a52fc6545)" style="fill: none; stroke: #377eb8; stroke-width: 0.5"/>
    <path d="M 90.183001 183.836955 
L 90.183001 183.632085 
" clip-path="url(#p8a52fc6545)" style="fill: none; stroke: #377eb8; stroke-width: 0.5"/>
    <path d="M 96.048588 181.299679 
L 96.048588 181.055672 
" clip-path="url(#p8a52fc6545)" style="fill: none; stroke: #377eb8; stroke-width: 0.5"/>
    <path d="M 101.914175 176.041593 
L 101.914175 175.733598 
" clip-path="url(#p8a52fc6545)" style="fill: none; stroke: #377eb8; stroke-width: 0.5"/>
    <path d="M 107.779762 159.391196 
L 107.779762 158.938025 
" clip-path="url(#p8a52fc6545)" style="fill: none; stroke: #377eb8; stroke-width: 0.5"/>
    <path d="M 113.645349 88.727384 
L 113.645349 87.906009 
" clip-path="url(#p8a52fc6545)" style="fill: none; stroke: #377eb8; stroke-width: 0.5"/>
    <path d="M 119.510936 53.467229 
L 119.510936 52.513944 
" clip-path="url(#p8a52fc6545)" style="fill: none; stroke: #377eb8; stroke-width: 0.5"/>
    <path d="M 125.376523 44.657896 
L 125.376523 43.674077 
" clip-path="url(#p8a52fc6545)" style="fill: none; stroke: #377eb8; stroke-width: 0.5"/>
    <path d="M 131.24211 40.387358 
L 131.24211 39.389646 
" clip-path="url(#p8a52fc6545)" style="fill: none; stroke: #377eb8; stroke-width: 0.5"/>
    <path d="M 137.107697 38.207211 
L 137.107697 37.200663 
" clip-path="url(#p8a52fc6545)" style="fill: none; stroke: #377eb8; stroke-width: 0.5"/>
    <path d="M 142.973284 34.944124 
L 142.973284 33.929704 
" clip-path="url(#p8a52fc6545)" style="fill: none; stroke: #377eb8; stroke-width: 0.5"/>
    <path d="M 148.838871 34.092452 
L 148.838871 33.073599 
" clip-path="url(#p8a52fc6545)" style="fill: none; stroke: #377eb8; stroke-width: 0.5"/>
    <path d="M 154.704458 32.126816 
L 154.704458 31.10279 
" clip-path="url(#p8a52fc6545)" style="fill: none; stroke: #377eb8; stroke-width: 0.5"/>
    <path d="M 160.570045 32.108075 
L 160.570045 31.08154 
" clip-path="url(#p8a52fc6545)" style="fill: none; stroke: #377eb8; stroke-width: 0.5"/>
    <path d="M 166.435631 30.696214 
L 166.435631 29.665879 
" clip-path="url(#p8a52fc6545)" style="fill: none; stroke: #377eb8; stroke-width: 0.5"/>
    <path d="M 172.301218 29.491599 
L 172.301218 28.458228 
" clip-path="url(#p8a52fc6545)" style="fill: none; stroke: #377eb8; stroke-width: 0.5"/>
    <path d="M 178.166805 28.489601 
L 178.166805 27.45357 
" clip-path="url(#p8a52fc6545)" style="fill: none; stroke: #377eb8; stroke-width: 0.5"/>
    <path d="M 184.032392 27.540598 
L 184.032392 26.502467 
" clip-path="url(#p8a52fc6545)" style="fill: none; stroke: #377eb8; stroke-width: 0.5"/>
    <path d="M 189.897979 26.523841 
L 189.897979 25.483523 
" clip-path="url(#p8a52fc6545)" style="fill: none; stroke: #377eb8; stroke-width: 0.5"/>
    <path d="M 195.763566 26.528655 
L 195.763566 25.488228 
" clip-path="url(#p8a52fc6545)" style="fill: none; stroke: #377eb8; stroke-width: 0.5"/>
    <path d="M 201.629153 26.456567 
L 201.629153 25.415942 
" clip-path="url(#p8a52fc6545)" style="fill: none; stroke: #377eb8; stroke-width: 0.5"/>
    <path d="M 207.49474 26.937372 
L 207.49474 25.897697 
" clip-path="url(#p8a52fc6545)" style="fill: none; stroke: #377eb8; stroke-width: 0.5"/>
    <path d="M 213.360327 28.246385 
L 213.360327 27.209688 
" clip-path="url(#p8a52fc6545)" style="fill: none; stroke: #377eb8; stroke-width: 0.5"/>
    <path d="M 219.225914 28.515734 
L 219.225914 27.480061 
" clip-path="url(#p8a52fc6545)" style="fill: none; stroke: #377eb8; stroke-width: 0.5"/>
    <path d="M 225.091501 28.401997 
L 225.091501 27.366991 
" clip-path="url(#p8a52fc6545)" style="fill: none; stroke: #377eb8; stroke-width: 0.5"/>
    <path d="M 230.957088 28.819906 
L 230.957088 27.787403 
" clip-path="url(#p8a52fc6545)" style="fill: none; stroke: #377eb8; stroke-width: 0.5"/>
    <path d="M 236.822675 30.109924 
L 236.822675 29.081409 
" clip-path="url(#p8a52fc6545)" style="fill: none; stroke: #377eb8; stroke-width: 0.5"/>
    <path d="M 242.688261 32.781312 
L 242.688261 31.76029 
" clip-path="url(#p8a52fc6545)" style="fill: none; stroke: #377eb8; stroke-width: 0.5"/>
    <path d="M 248.553848 33.83618 
L 248.553848 32.820722 
" clip-path="url(#p8a52fc6545)" style="fill: none; stroke: #377eb8; stroke-width: 0.5"/>
    <path d="M 254.419435 36.42552 
L 254.419435 35.418953 
" clip-path="url(#p8a52fc6545)" style="fill: none; stroke: #377eb8; stroke-width: 0.5"/>
    <path d="M 260.285022 40.044776 
L 260.285022 39.049842 
" clip-path="url(#p8a52fc6545)" style="fill: none; stroke: #377eb8; stroke-width: 0.5"/>
    <path d="M 266.150609 44.152403 
L 266.150609 43.172068 
" clip-path="url(#p8a52fc6545)" style="fill: none; stroke: #377eb8; stroke-width: 0.5"/>
    <path d="M 272.016196 50.797852 
L 272.016196 49.839637 
" clip-path="url(#p8a52fc6545)" style="fill: none; stroke: #377eb8; stroke-width: 0.5"/>
    <path d="M 277.881783 62.340013 
L 277.881783 61.421718 
" clip-path="url(#p8a52fc6545)" style="fill: none; stroke: #377eb8; stroke-width: 0.5"/>
    <path d="M 283.74737 104.857756 
L 283.74737 104.106634 
" clip-path="url(#p8a52fc6545)" style="fill: none; stroke: #377eb8; stroke-width: 0.5"/>
    <path d="M 289.612957 159.532005 
L 289.612957 159.079474 
" clip-path="url(#p8a52fc6545)" style="fill: none; stroke: #377eb8; stroke-width: 0.5"/>
    <path d="M 295.478544 173.728338 
L 295.478544 173.394584 
" clip-path="url(#p8a52fc6545)" style="fill: none; stroke: #377eb8; stroke-width: 0.5"/>
    <path d="M 301.344131 179.309595 
L 301.344131 179.035794 
" clip-path="url(#p8a52fc6545)" style="fill: none; stroke: #377eb8; stroke-width: 0.5"/>
    <path d="M 307.209718 181.340663 
L 307.209718 181.094417 
" clip-path="url(#p8a52fc6545)" style="fill: none; stroke: #377eb8; stroke-width: 0.5"/>
    <path d="M 313.075305 181.009494 
L 313.075305 180.758765 
" clip-path="url(#p8a52fc6545)" style="fill: none; stroke: #377eb8; stroke-width: 0.5"/>
    <path d="M 318.940892 184.270958 
L 318.940892 184.070853 
" clip-path="url(#p8a52fc6545)" style="fill: none; stroke: #377eb8; stroke-width: 0.5"/>
    <path d="M 324.806478 185.422803 
L 324.806478 185.243378 
" clip-path="url(#p8a52fc6545)" style="fill: none; stroke: #377eb8; stroke-width: 0.5"/>
    <path d="M 330.672065 186.204094 
L 330.672065 186.042941 
" clip-path="url(#p8a52fc6545)" style="fill: none; stroke: #377eb8; stroke-width: 0.5"/>
    <path d="M 336.537652 186.867167 
L 336.537652 186.720189 
" clip-path="url(#p8a52fc6545)" style="fill: none; stroke: #377eb8; stroke-width: 0.5"/>
    <path d="M 342.403239 187.317465 
L 342.403239 187.182361 
" clip-path="url(#p8a52fc6545)" style="fill: none; stroke: #377eb8; stroke-width: 0.5"/>
   </g>
   <g id="line2d_101">
    <defs>
     <path id="m2b59c63a3a" d="M 1 0 
L -1 -0 
" style="stroke: #377eb8"/>
    </defs>
    <g clip-path="url(#p8a52fc6545)">
     <use xlink:href="#m2b59c63a3a" x="54.98948" y="187.91229" style="fill: #377eb8; stroke: #377eb8"/>
     <use xlink:href="#m2b59c63a3a" x="60.855067" y="187.629136" style="fill: #377eb8; stroke: #377eb8"/>
     <use xlink:href="#m2b59c63a3a" x="66.720654" y="187.283487" style="fill: #377eb8; stroke: #377eb8"/>
     <use xlink:href="#m2b59c63a3a" x="72.586241" y="186.897726" style="fill: #377eb8; stroke: #377eb8"/>
     <use xlink:href="#m2b59c63a3a" x="78.451828" y="186.315202" style="fill: #377eb8; stroke: #377eb8"/>
     <use xlink:href="#m2b59c63a3a" x="84.317414" y="185.353794" style="fill: #377eb8; stroke: #377eb8"/>
     <use xlink:href="#m2b59c63a3a" x="90.183001" y="183.836955" style="fill: #377eb8; stroke: #377eb8"/>
     <use xlink:href="#m2b59c63a3a" x="96.048588" y="181.299679" style="fill: #377eb8; stroke: #377eb8"/>
     <use xlink:href="#m2b59c63a3a" x="101.914175" y="176.041593" style="fill: #377eb8; stroke: #377eb8"/>
     <use xlink:href="#m2b59c63a3a" x="107.779762" y="159.391196" style="fill: #377eb8; stroke: #377eb8"/>
     <use xlink:href="#m2b59c63a3a" x="113.645349" y="88.727384" style="fill: #377eb8; stroke: #377eb8"/>
     <use xlink:href="#m2b59c63a3a" x="119.510936" y="53.467229" style="fill: #377eb8; stroke: #377eb8"/>
     <use xlink:href="#m2b59c63a3a" x="125.376523" y="44.657896" style="fill: #377eb8; stroke: #377eb8"/>
     <use xlink:href="#m2b59c63a3a" x="131.24211" y="40.387358" style="fill: #377eb8; stroke: #377eb8"/>
     <use xlink:href="#m2b59c63a3a" x="137.107697" y="38.207211" style="fill: #377eb8; stroke: #377eb8"/>
     <use xlink:href="#m2b59c63a3a" x="142.973284" y="34.944124" style="fill: #377eb8; stroke: #377eb8"/>
     <use xlink:href="#m2b59c63a3a" x="148.838871" y="34.092452" style="fill: #377eb8; stroke: #377eb8"/>
     <use xlink:href="#m2b59c63a3a" x="154.704458" y="32.126816" style="fill: #377eb8; stroke: #377eb8"/>
     <use xlink:href="#m2b59c63a3a" x="160.570045" y="32.108075" style="fill: #377eb8; stroke: #377eb8"/>
     <use xlink:href="#m2b59c63a3a" x="166.435631" y="30.696214" style="fill: #377eb8; stroke: #377eb8"/>
     <use xlink:href="#m2b59c63a3a" x="172.301218" y="29.491599" style="fill: #377eb8; stroke: #377eb8"/>
     <use xlink:href="#m2b59c63a3a" x="178.166805" y="28.489601" style="fill: #377eb8; stroke: #377eb8"/>
     <use xlink:href="#m2b59c63a3a" x="184.032392" y="27.540598" style="fill: #377eb8; stroke: #377eb8"/>
     <use xlink:href="#m2b59c63a3a" x="189.897979" y="26.523841" style="fill: #377eb8; stroke: #377eb8"/>
     <use xlink:href="#m2b59c63a3a" x="195.763566" y="26.528655" style="fill: #377eb8; stroke: #377eb8"/>
     <use xlink:href="#m2b59c63a3a" x="201.629153" y="26.456567" style="fill: #377eb8; stroke: #377eb8"/>
     <use xlink:href="#m2b59c63a3a" x="207.49474" y="26.937372" style="fill: #377eb8; stroke: #377eb8"/>
     <use xlink:href="#m2b59c63a3a" x="213.360327" y="28.246385" style="fill: #377eb8; stroke: #377eb8"/>
     <use xlink:href="#m2b59c63a3a" x="219.225914" y="28.515734" style="fill: #377eb8; stroke: #377eb8"/>
     <use xlink:href="#m2b59c63a3a" x="225.091501" y="28.401997" style="fill: #377eb8; stroke: #377eb8"/>
     <use xlink:href="#m2b59c63a3a" x="230.957088" y="28.819906" style="fill: #377eb8; stroke: #377eb8"/>
     <use xlink:href="#m2b59c63a3a" x="236.822675" y="30.109924" style="fill: #377eb8; stroke: #377eb8"/>
     <use xlink:href="#m2b59c63a3a" x="242.688261" y="32.781312" style="fill: #377eb8; stroke: #377eb8"/>
     <use xlink:href="#m2b59c63a3a" x="248.553848" y="33.83618" style="fill: #377eb8; stroke: #377eb8"/>
     <use xlink:href="#m2b59c63a3a" x="254.419435" y="36.42552" style="fill: #377eb8; stroke: #377eb8"/>
     <use xlink:href="#m2b59c63a3a" x="260.285022" y="40.044776" style="fill: #377eb8; stroke: #377eb8"/>
     <use xlink:href="#m2b59c63a3a" x="266.150609" y="44.152403" style="fill: #377eb8; stroke: #377eb8"/>
     <use xlink:href="#m2b59c63a3a" x="272.016196" y="50.797852" style="fill: #377eb8; stroke: #377eb8"/>
     <use xlink:href="#m2b59c63a3a" x="277.881783" y="62.340013" style="fill: #377eb8; stroke: #377eb8"/>
     <use xlink:href="#m2b59c63a3a" x="283.74737" y="104.857756" style="fill: #377eb8; stroke: #377eb8"/>
     <use xlink:href="#m2b59c63a3a" x="289.612957" y="159.532005" style="fill: #377eb8; stroke: #377eb8"/>
     <use xlink:href="#m2b59c63a3a" x="295.478544" y="173.728338" style="fill: #377eb8; stroke: #377eb8"/>
     <use xlink:href="#m2b59c63a3a" x="301.344131" y="179.309595" style="fill: #377eb8; stroke: #377eb8"/>
     <use xlink:href="#m2b59c63a3a" x="307.209718" y="181.340663" style="fill: #377eb8; stroke: #377eb8"/>
     <use xlink:href="#m2b59c63a3a" x="313.075305" y="181.009494" style="fill: #377eb8; stroke: #377eb8"/>
     <use xlink:href="#m2b59c63a3a" x="318.940892" y="184.270958" style="fill: #377eb8; stroke: #377eb8"/>
     <use xlink:href="#m2b59c63a3a" x="324.806478" y="185.422803" style="fill: #377eb8; stroke: #377eb8"/>
     <use xlink:href="#m2b59c63a3a" x="330.672065" y="186.204094" style="fill: #377eb8; stroke: #377eb8"/>
     <use xlink:href="#m2b59c63a3a" x="336.537652" y="186.867167" style="fill: #377eb8; stroke: #377eb8"/>
     <use xlink:href="#m2b59c63a3a" x="342.403239" y="187.317465" style="fill: #377eb8; stroke: #377eb8"/>
    </g>
   </g>
   <g id="line2d_102">
    <g clip-path="url(#p8a52fc6545)">
     <use xlink:href="#m2b59c63a3a" x="54.98948" y="187.797063" style="fill: #377eb8; stroke: #377eb8"/>
     <use xlink:href="#m2b59c63a3a" x="60.855067" y="187.505326" style="fill: #377eb8; stroke: #377eb8"/>
     <use xlink:href="#m2b59c63a3a" x="66.720654" y="187.151039" style="fill: #377eb8; stroke: #377eb8"/>
     <use xlink:href="#m2b59c63a3a" x="72.586241" y="186.754287" style="fill: #377eb8; stroke: #377eb8"/>
     <use xlink:href="#m2b59c63a3a" x="78.451828" y="186.157355" style="fill: #377eb8; stroke: #377eb8"/>
     <use xlink:href="#m2b59c63a3a" x="84.317414" y="185.176889" style="fill: #377eb8; stroke: #377eb8"/>
     <use xlink:href="#m2b59c63a3a" x="90.183001" y="183.632085" style="fill: #377eb8; stroke: #377eb8"/>
     <use xlink:href="#m2b59c63a3a" x="96.048588" y="181.055672" style="fill: #377eb8; stroke: #377eb8"/>
     <use xlink:href="#m2b59c63a3a" x="101.914175" y="175.733598" style="fill: #377eb8; stroke: #377eb8"/>
     <use xlink:href="#m2b59c63a3a" x="107.779762" y="158.938025" style="fill: #377eb8; stroke: #377eb8"/>
     <use xlink:href="#m2b59c63a3a" x="113.645349" y="87.906009" style="fill: #377eb8; stroke: #377eb8"/>
     <use xlink:href="#m2b59c63a3a" x="119.510936" y="52.513944" style="fill: #377eb8; stroke: #377eb8"/>
     <use xlink:href="#m2b59c63a3a" x="125.376523" y="43.674077" style="fill: #377eb8; stroke: #377eb8"/>
     <use xlink:href="#m2b59c63a3a" x="131.24211" y="39.389646" style="fill: #377eb8; stroke: #377eb8"/>
     <use xlink:href="#m2b59c63a3a" x="137.107697" y="37.200663" style="fill: #377eb8; stroke: #377eb8"/>
     <use xlink:href="#m2b59c63a3a" x="142.973284" y="33.929704" style="fill: #377eb8; stroke: #377eb8"/>
     <use xlink:href="#m2b59c63a3a" x="148.838871" y="33.073599" style="fill: #377eb8; stroke: #377eb8"/>
     <use xlink:href="#m2b59c63a3a" x="154.704458" y="31.10279" style="fill: #377eb8; stroke: #377eb8"/>
     <use xlink:href="#m2b59c63a3a" x="160.570045" y="31.08154" style="fill: #377eb8; stroke: #377eb8"/>
     <use xlink:href="#m2b59c63a3a" x="166.435631" y="29.665879" style="fill: #377eb8; stroke: #377eb8"/>
     <use xlink:href="#m2b59c63a3a" x="172.301218" y="28.458228" style="fill: #377eb8; stroke: #377eb8"/>
     <use xlink:href="#m2b59c63a3a" x="178.166805" y="27.45357" style="fill: #377eb8; stroke: #377eb8"/>
     <use xlink:href="#m2b59c63a3a" x="184.032392" y="26.502467" style="fill: #377eb8; stroke: #377eb8"/>
     <use xlink:href="#m2b59c63a3a" x="189.897979" y="25.483523" style="fill: #377eb8; stroke: #377eb8"/>
     <use xlink:href="#m2b59c63a3a" x="195.763566" y="25.488228" style="fill: #377eb8; stroke: #377eb8"/>
     <use xlink:href="#m2b59c63a3a" x="201.629153" y="25.415942" style="fill: #377eb8; stroke: #377eb8"/>
     <use xlink:href="#m2b59c63a3a" x="207.49474" y="25.897697" style="fill: #377eb8; stroke: #377eb8"/>
     <use xlink:href="#m2b59c63a3a" x="213.360327" y="27.209688" style="fill: #377eb8; stroke: #377eb8"/>
     <use xlink:href="#m2b59c63a3a" x="219.225914" y="27.480061" style="fill: #377eb8; stroke: #377eb8"/>
     <use xlink:href="#m2b59c63a3a" x="225.091501" y="27.366991" style="fill: #377eb8; stroke: #377eb8"/>
     <use xlink:href="#m2b59c63a3a" x="230.957088" y="27.787403" style="fill: #377eb8; stroke: #377eb8"/>
     <use xlink:href="#m2b59c63a3a" x="236.822675" y="29.081409" style="fill: #377eb8; stroke: #377eb8"/>
     <use xlink:href="#m2b59c63a3a" x="242.688261" y="31.76029" style="fill: #377eb8; stroke: #377eb8"/>
     <use xlink:href="#m2b59c63a3a" x="248.553848" y="32.820722" style="fill: #377eb8; stroke: #377eb8"/>
     <use xlink:href="#m2b59c63a3a" x="254.419435" y="35.418953" style="fill: #377eb8; stroke: #377eb8"/>
     <use xlink:href="#m2b59c63a3a" x="260.285022" y="39.049842" style="fill: #377eb8; stroke: #377eb8"/>
     <use xlink:href="#m2b59c63a3a" x="266.150609" y="43.172068" style="fill: #377eb8; stroke: #377eb8"/>
     <use xlink:href="#m2b59c63a3a" x="272.016196" y="49.839637" style="fill: #377eb8; stroke: #377eb8"/>
     <use xlink:href="#m2b59c63a3a" x="277.881783" y="61.421718" style="fill: #377eb8; stroke: #377eb8"/>
     <use xlink:href="#m2b59c63a3a" x="283.74737" y="104.106634" style="fill: #377eb8; stroke: #377eb8"/>
     <use xlink:href="#m2b59c63a3a" x="289.612957" y="159.079474" style="fill: #377eb8; stroke: #377eb8"/>
     <use xlink:href="#m2b59c63a3a" x="295.478544" y="173.394584" style="fill: #377eb8; stroke: #377eb8"/>
     <use xlink:href="#m2b59c63a3a" x="301.344131" y="179.035794" style="fill: #377eb8; stroke: #377eb8"/>
     <use xlink:href="#m2b59c63a3a" x="307.209718" y="181.094417" style="fill: #377eb8; stroke: #377eb8"/>
     <use xlink:href="#m2b59c63a3a" x="313.075305" y="180.758765" style="fill: #377eb8; stroke: #377eb8"/>
     <use xlink:href="#m2b59c63a3a" x="318.940892" y="184.070853" style="fill: #377eb8; stroke: #377eb8"/>
     <use xlink:href="#m2b59c63a3a" x="324.806478" y="185.243378" style="fill: #377eb8; stroke: #377eb8"/>
     <use xlink:href="#m2b59c63a3a" x="330.672065" y="186.042941" style="fill: #377eb8; stroke: #377eb8"/>
     <use xlink:href="#m2b59c63a3a" x="336.537652" y="186.720189" style="fill: #377eb8; stroke: #377eb8"/>
     <use xlink:href="#m2b59c63a3a" x="342.403239" y="187.182361" style="fill: #377eb8; stroke: #377eb8"/>
    </g>
   </g>
   <g id="patch_4">
    <path d="M 37.392719 189.681683 
L 37.392719 17.202655 
" style="fill: none; stroke: #000000; stroke-width: 0.8; stroke-linejoin: miter; stroke-linecap: square"/>
   </g>
   <g id="patch_5">
    <path d="M 360 189.681683 
L 360 17.202655 
" style="fill: none; stroke: #000000; stroke-width: 0.8; stroke-linejoin: miter; stroke-linecap: square"/>
   </g>
   <g id="patch_6">
    <path d="M 37.392719 189.681683 
L 360 189.681683 
" style="fill: none; stroke: #000000; stroke-width: 0.8; stroke-linejoin: miter; stroke-linecap: square"/>
   </g>
   <g id="patch_7">
    <path d="M 37.392719 17.202655 
L 360 17.202655 
" style="fill: none; stroke: #000000; stroke-width: 0.8; stroke-linejoin: miter; stroke-linecap: square"/>
   </g>
  </g>
 </g>
 <defs>
  <clipPath id="p8a52fc6545">
   <rect x="37.392719" y="17.202655" width="322.607281" height="172.479028"/>
  </clipPath>
 </defs>
</svg>
