<?xml version="1.0" encoding="utf-8" standalone="no"?>
<!DOCTYPE svg PUBLIC "-//W3C//DTD SVG 1.1//EN"
  "http://www.w3.org/Graphics/SVG/1.1/DTD/svg11.dtd">
<svg xmlns:xlink="http://www.w3.org/1999/xlink" width="367.2pt" height="223.2pt" viewBox="0 0 367.2 223.2" xmlns="http://www.w3.org/2000/svg" version="1.1">
 <metadata>
  <rdf:RDF xmlns:dc="http://purl.org/dc/elements/1.1/" xmlns:cc="http://creativecommons.org/ns#" xmlns:rdf="http://www.w3.org/1999/02/22-rdf-syntax-ns#">
   <cc:Work>
    <dc:type rdf:resource="http://purl.org/dc/dcmitype/StillImage"/>
    <dc:date>2025-05-27T13:12:00.517637</dc:date>
    <dc:format>image/svg+xml</dc:format>
    <dc:creator>
     <cc:Agent>
      <dc:title>Matplotlib v3.10.3, https://matplotlib.org/</dc:title>
     </cc:Agent>
    </dc:creator>
   </cc:Work>
  </rdf:RDF>
 </metadata>
 <defs>
  <style type="text/css">*{stroke-linejoin: round; stroke-linecap: butt}</style>
 </defs>
 <g id="figure_1">
  <g id="patch_1">
   <path d="M 0 223.2 
L 367.2 223.2 
L 367.2 0 
L 0 0 
z
" style="fill: #ffffff"/>
  </g>
  <g id="axes_1">
   <g id="patch_2">
    <path d="M 29.643975 189.681683 
L 360 189.681683 
L 360 17.202655 
L 29.643975 17.202655 
z
" style="fill: #ffffff"/>
   </g>
   <g id="patch_3">
    <path d="M 44.660158 189.681683 
L 44.660158 187.95555 
L 50.666631 187.95555 
L 50.666631 187.69449 
L 56.673105 187.69449 
L 56.673105 187.218135 
L 62.679578 187.218135 
L 62.679578 186.78086 
L 68.686051 186.78086 
L 68.686051 186.541546 
L 74.692524 186.541546 
L 74.692524 185.232033 
L 80.698997 185.232033 
L 80.698997 183.406307 
L 86.705471 183.406307 
L 86.705471 181.060258 
L 92.711944 181.060258 
L 92.711944 174.896256 
L 98.718417 174.896256 
L 98.718417 159.742534 
L 104.72489 159.742534 
L 104.72489 87.664311 
L 110.731363 87.664311 
L 110.731363 54.078694 
L 116.737836 54.078694 
L 116.737836 44.701441 
L 122.74431 44.701441 
L 122.74431 40.116344 
L 128.750783 40.116344 
L 128.750783 39.104122 
L 134.757256 39.104122 
L 134.757256 33.982494 
L 140.763729 33.982494 
L 140.763729 33.715827 
L 146.770202 33.715827 
L 146.770202 32.170975 
L 152.776675 32.170975 
L 152.776675 33.196544 
L 158.783149 33.196544 
L 158.783149 30.16386 
L 164.789622 30.16386 
L 164.789622 30.152303 
L 170.796095 30.152303 
L 170.796095 27.864549 
L 176.802568 27.864549 
L 176.802568 27.627535 
L 182.809041 27.627535 
L 182.809041 26.314678 
L 188.815515 26.314678 
L 188.815515 26.252671 
L 194.821988 26.252671 
L 194.821988 27.33948 
L 200.828461 27.33948 
L 200.828461 27.905887 
L 206.834934 27.905887 
L 206.834934 28.312378 
L 212.841407 28.312378 
L 212.841407 29.170645 
L 218.84788 29.170645 
L 218.84788 28.391809 
L 224.854354 28.391809 
L 224.854354 28.989116 
L 230.860827 28.989116 
L 230.860827 29.293892 
L 236.8673 29.293892 
L 236.8673 32.565045 
L 242.873773 32.565045 
L 242.873773 32.107705 
L 248.880246 32.107705 
L 248.880246 35.095327 
L 254.886719 35.095327 
L 254.886719 37.576822 
L 260.893193 37.576822 
L 260.893193 43.024375 
L 266.899666 43.024375 
L 266.899666 48.226745 
L 272.906139 48.226745 
L 272.906139 59.165314 
L 278.912612 59.165314 
L 278.912612 101.150315 
L 284.919085 101.150315 
L 284.919085 158.857948 
L 290.925558 158.857948 
L 290.925558 173.337483 
L 296.932032 173.337483 
L 296.932032 179.007985 
L 302.938505 179.007985 
L 302.938505 181.473796 
L 308.944978 181.473796 
L 308.944978 180.703002 
L 314.951451 180.703002 
L 314.951451 184.218975 
L 320.957924 184.218975 
L 320.957924 185.506028 
L 326.964398 185.506028 
L 326.964398 186.143448 
L 332.970871 186.143448 
L 332.970871 186.665979 
L 338.977344 186.665979 
L 338.977344 187.13162 
L 344.983817 187.13162 
L 344.983817 189.681683 
" clip-path="url(#p41ce6cf437)" style="fill: none; stroke: #377eb8; stroke-linejoin: miter"/>
   </g>
   <g id="matplotlib.axis_1">
    <g id="xtick_1">
     <g id="line2d_1">
      <defs>
       <path id="m6c919bf6b3" d="M 0 0 
L 0 -4 
" style="stroke: #000000; stroke-width: 1.2"/>
      </defs>
      <g>
       <use xlink:href="#m6c919bf6b3" x="44.660158" y="189.681683" style="stroke: #000000; stroke-width: 1.2"/>
      </g>
     </g>
     <g id="line2d_2">
      <defs>
       <path id="me96af84e35" d="M 0 0 
L 0 4 
" style="stroke: #000000; stroke-width: 1.2"/>
      </defs>
      <g>
       <use xlink:href="#me96af84e35" x="44.660158" y="17.202655" style="stroke: #000000; stroke-width: 1.2"/>
      </g>
     </g>
     <g id="text_1">
      <!-- $\mathdefault{40}$ -->
      <g transform="translate(39.678823 200.100182) scale(0.1 -0.1)">
       <defs>
        <path id="CMR17-34" d="M 2150 4122 
C 2150 4256 2144 4256 2029 4256 
L 128 1254 
L 128 1088 
L 1779 1088 
L 1779 457 
C 1779 224 1766 160 1318 160 
L 1197 160 
L 1197 0 
C 1402 0 1747 0 1965 0 
C 2182 0 2528 0 2733 0 
L 2733 160 
L 2611 160 
C 2163 160 2150 224 2150 457 
L 2150 1088 
L 2803 1088 
L 2803 1254 
L 2150 1254 
L 2150 4122 
z
M 1798 3703 
L 1798 1254 
L 256 1254 
L 1798 3703 
z
" transform="scale(0.015625)"/>
        <path id="CMR17-30" d="M 2688 2025 
C 2688 2416 2682 3080 2413 3591 
C 2176 4039 1798 4198 1466 4198 
C 1158 4198 768 4058 525 3597 
C 269 3118 243 2524 243 2025 
C 243 1661 250 1106 448 619 
C 723 -39 1216 -128 1466 -128 
C 1760 -128 2208 -7 2470 600 
C 2662 1042 2688 1559 2688 2025 
z
M 1466 -26 
C 1056 -26 813 325 723 812 
C 653 1188 653 1738 653 2096 
C 653 2588 653 2997 736 3387 
C 858 3929 1216 4096 1466 4096 
C 1728 4096 2067 3923 2189 3400 
C 2272 3036 2278 2607 2278 2096 
C 2278 1680 2278 1169 2202 792 
C 2067 95 1690 -26 1466 -26 
z
" transform="scale(0.015625)"/>
       </defs>
       <use xlink:href="#CMR17-34" transform="scale(0.996264)"/>
       <use xlink:href="#CMR17-30" transform="translate(45.690477 0) scale(0.996264)"/>
      </g>
     </g>
    </g>
    <g id="xtick_2">
     <g id="line2d_3">
      <g>
       <use xlink:href="#m6c919bf6b3" x="104.72489" y="189.681683" style="stroke: #000000; stroke-width: 1.2"/>
      </g>
     </g>
     <g id="line2d_4">
      <g>
       <use xlink:href="#me96af84e35" x="104.72489" y="17.202655" style="stroke: #000000; stroke-width: 1.2"/>
      </g>
     </g>
     <g id="text_2">
      <!-- $\mathdefault{50}$ -->
      <g transform="translate(99.743555 200.100182) scale(0.1 -0.1)">
       <defs>
        <path id="CMR17-35" d="M 730 3692 
C 794 3666 1056 3584 1325 3584 
C 1920 3584 2246 3911 2432 4100 
C 2432 4157 2432 4192 2394 4192 
C 2387 4192 2374 4192 2323 4163 
C 2099 4058 1837 3973 1517 3973 
C 1325 3973 1037 3999 723 4139 
C 653 4171 640 4171 634 4171 
C 602 4171 595 4164 595 4037 
L 595 2203 
C 595 2089 595 2057 659 2057 
C 691 2057 704 2070 736 2114 
C 941 2401 1222 2522 1542 2522 
C 1766 2522 2246 2382 2246 1289 
C 2246 1085 2246 715 2054 421 
C 1894 159 1645 25 1370 25 
C 947 25 518 320 403 814 
C 429 807 480 795 506 795 
C 589 795 749 840 749 1038 
C 749 1210 627 1280 506 1280 
C 358 1280 262 1190 262 1011 
C 262 454 704 -128 1382 -128 
C 2042 -128 2669 440 2669 1264 
C 2669 2030 2170 2624 1549 2624 
C 1222 2624 947 2503 730 2274 
L 730 3692 
z
" transform="scale(0.015625)"/>
       </defs>
       <use xlink:href="#CMR17-35" transform="scale(0.996264)"/>
       <use xlink:href="#CMR17-30" transform="translate(45.690477 0) scale(0.996264)"/>
      </g>
     </g>
    </g>
    <g id="xtick_3">
     <g id="line2d_5">
      <g>
       <use xlink:href="#m6c919bf6b3" x="164.789622" y="189.681683" style="stroke: #000000; stroke-width: 1.2"/>
      </g>
     </g>
     <g id="line2d_6">
      <g>
       <use xlink:href="#me96af84e35" x="164.789622" y="17.202655" style="stroke: #000000; stroke-width: 1.2"/>
      </g>
     </g>
     <g id="text_3">
      <!-- $\mathdefault{60}$ -->
      <g transform="translate(159.808287 200.100182) scale(0.1 -0.1)">
       <defs>
        <path id="CMR17-36" d="M 678 2176 
C 678 3690 1395 4032 1811 4032 
C 1946 4032 2272 4009 2400 3776 
C 2298 3776 2106 3776 2106 3553 
C 2106 3381 2246 3323 2336 3323 
C 2394 3323 2566 3348 2566 3560 
C 2566 3954 2246 4179 1805 4179 
C 1043 4179 243 3390 243 1984 
C 243 253 966 -128 1478 -128 
C 2099 -128 2688 427 2688 1283 
C 2688 2081 2170 2662 1517 2662 
C 1126 2662 838 2407 678 1960 
L 678 2176 
z
M 1478 25 
C 691 25 691 1200 691 1436 
C 691 1896 909 2560 1504 2560 
C 1613 2560 1926 2560 2138 2120 
C 2253 1870 2253 1609 2253 1289 
C 2253 944 2253 690 2118 434 
C 1978 171 1773 25 1478 25 
z
" transform="scale(0.015625)"/>
       </defs>
       <use xlink:href="#CMR17-36" transform="scale(0.996264)"/>
       <use xlink:href="#CMR17-30" transform="translate(45.690477 0) scale(0.996264)"/>
      </g>
     </g>
    </g>
    <g id="xtick_4">
     <g id="line2d_7">
      <g>
       <use xlink:href="#m6c919bf6b3" x="224.854354" y="189.681683" style="stroke: #000000; stroke-width: 1.2"/>
      </g>
     </g>
     <g id="line2d_8">
      <g>
       <use xlink:href="#me96af84e35" x="224.854354" y="17.202655" style="stroke: #000000; stroke-width: 1.2"/>
      </g>
     </g>
     <g id="text_4">
      <!-- $\mathdefault{70}$ -->
      <g transform="translate(219.873018 200.100182) scale(0.1 -0.1)">
       <defs>
        <path id="CMR17-37" d="M 2886 3941 
L 2886 4081 
L 1382 4081 
C 634 4081 621 4165 595 4288 
L 480 4288 
L 294 3094 
L 410 3094 
C 429 3215 474 3540 550 3661 
C 589 3712 1062 3712 1171 3712 
L 2579 3712 
L 1869 2661 
C 1395 1954 1069 999 1069 165 
C 1069 89 1069 -128 1299 -128 
C 1530 -128 1530 89 1530 171 
L 1530 465 
C 1530 1508 1709 2196 2003 2636 
L 2886 3941 
z
" transform="scale(0.015625)"/>
       </defs>
       <use xlink:href="#CMR17-37" transform="scale(0.996264)"/>
       <use xlink:href="#CMR17-30" transform="translate(45.690477 0) scale(0.996264)"/>
      </g>
     </g>
    </g>
    <g id="xtick_5">
     <g id="line2d_9">
      <g>
       <use xlink:href="#m6c919bf6b3" x="284.919085" y="189.681683" style="stroke: #000000; stroke-width: 1.2"/>
      </g>
     </g>
     <g id="line2d_10">
      <g>
       <use xlink:href="#me96af84e35" x="284.919085" y="17.202655" style="stroke: #000000; stroke-width: 1.2"/>
      </g>
     </g>
     <g id="text_5">
      <!-- $\mathdefault{80}$ -->
      <g transform="translate(279.93775 200.100182) scale(0.1 -0.1)">
       <defs>
        <path id="CMR17-38" d="M 1741 2264 
C 2144 2467 2554 2773 2554 3263 
C 2554 3841 1990 4179 1472 4179 
C 890 4179 378 3759 378 3180 
C 378 3021 416 2747 666 2505 
C 730 2442 998 2251 1171 2130 
C 883 1983 211 1634 211 934 
C 211 279 838 -128 1459 -128 
C 2144 -128 2720 362 2720 1010 
C 2720 1590 2330 1857 2074 2029 
L 1741 2264 
z
M 902 2822 
C 851 2854 595 3051 595 3351 
C 595 3739 998 4032 1459 4032 
C 1965 4032 2336 3676 2336 3262 
C 2336 2669 1670 2331 1638 2331 
C 1632 2331 1626 2331 1574 2370 
L 902 2822 
z
M 2080 1519 
C 2176 1449 2483 1240 2483 851 
C 2483 381 2010 25 1472 25 
C 890 25 448 438 448 940 
C 448 1443 838 1862 1280 2060 
L 2080 1519 
z
" transform="scale(0.015625)"/>
       </defs>
       <use xlink:href="#CMR17-38" transform="scale(0.996264)"/>
       <use xlink:href="#CMR17-30" transform="translate(45.690477 0) scale(0.996264)"/>
      </g>
     </g>
    </g>
    <g id="xtick_6">
     <g id="line2d_11">
      <g>
       <use xlink:href="#m6c919bf6b3" x="344.983817" y="189.681683" style="stroke: #000000; stroke-width: 1.2"/>
      </g>
     </g>
     <g id="line2d_12">
      <g>
       <use xlink:href="#me96af84e35" x="344.983817" y="17.202655" style="stroke: #000000; stroke-width: 1.2"/>
      </g>
     </g>
     <g id="text_6">
      <!-- $\mathdefault{90}$ -->
      <g transform="translate(340.002482 200.100182) scale(0.1 -0.1)">
       <defs>
        <path id="CMR17-39" d="M 2253 1864 
C 2253 464 1670 31 1190 31 
C 1043 31 685 31 538 294 
C 704 268 826 357 826 518 
C 826 692 685 749 595 749 
C 538 749 365 723 365 506 
C 365 71 742 -128 1203 -128 
C 1939 -128 2688 674 2688 2073 
C 2688 3817 1971 4179 1485 4179 
C 851 4179 243 3628 243 2778 
C 243 1991 762 1408 1414 1408 
C 1952 1408 2189 1903 2253 2112 
L 2253 1864 
z
M 1427 1510 
C 1254 1510 1011 1542 813 1922 
C 678 2169 678 2461 678 2771 
C 678 3146 678 3405 858 3684 
C 947 3817 1114 4032 1485 4032 
C 2240 4032 2240 2885 2240 2632 
C 2240 2182 2035 1510 1427 1510 
z
" transform="scale(0.015625)"/>
       </defs>
       <use xlink:href="#CMR17-39" transform="scale(0.996264)"/>
       <use xlink:href="#CMR17-30" transform="translate(45.690477 0) scale(0.996264)"/>
      </g>
     </g>
    </g>
    <g id="xtick_7">
     <g id="line2d_13">
      <defs>
       <path id="mee0d9a69cc" d="M 0 0 
L 0 -2.5 
" style="stroke: #000000; stroke-width: 0.8"/>
      </defs>
      <g>
       <use xlink:href="#mee0d9a69cc" x="32.647212" y="189.681683" style="stroke: #000000; stroke-width: 0.8"/>
      </g>
     </g>
     <g id="line2d_14">
      <defs>
       <path id="meac9d61898" d="M 0 0 
L 0 2.5 
" style="stroke: #000000; stroke-width: 0.8"/>
      </defs>
      <g>
       <use xlink:href="#meac9d61898" x="32.647212" y="17.202655" style="stroke: #000000; stroke-width: 0.8"/>
      </g>
     </g>
    </g>
    <g id="xtick_8">
     <g id="line2d_15">
      <g>
       <use xlink:href="#mee0d9a69cc" x="56.673105" y="189.681683" style="stroke: #000000; stroke-width: 0.8"/>
      </g>
     </g>
     <g id="line2d_16">
      <g>
       <use xlink:href="#meac9d61898" x="56.673105" y="17.202655" style="stroke: #000000; stroke-width: 0.8"/>
      </g>
     </g>
    </g>
    <g id="xtick_9">
     <g id="line2d_17">
      <g>
       <use xlink:href="#mee0d9a69cc" x="68.686051" y="189.681683" style="stroke: #000000; stroke-width: 0.8"/>
      </g>
     </g>
     <g id="line2d_18">
      <g>
       <use xlink:href="#meac9d61898" x="68.686051" y="17.202655" style="stroke: #000000; stroke-width: 0.8"/>
      </g>
     </g>
    </g>
    <g id="xtick_10">
     <g id="line2d_19">
      <g>
       <use xlink:href="#mee0d9a69cc" x="80.698997" y="189.681683" style="stroke: #000000; stroke-width: 0.8"/>
      </g>
     </g>
     <g id="line2d_20">
      <g>
       <use xlink:href="#meac9d61898" x="80.698997" y="17.202655" style="stroke: #000000; stroke-width: 0.8"/>
      </g>
     </g>
    </g>
    <g id="xtick_11">
     <g id="line2d_21">
      <g>
       <use xlink:href="#mee0d9a69cc" x="92.711944" y="189.681683" style="stroke: #000000; stroke-width: 0.8"/>
      </g>
     </g>
     <g id="line2d_22">
      <g>
       <use xlink:href="#meac9d61898" x="92.711944" y="17.202655" style="stroke: #000000; stroke-width: 0.8"/>
      </g>
     </g>
    </g>
    <g id="xtick_12">
     <g id="line2d_23">
      <g>
       <use xlink:href="#mee0d9a69cc" x="116.737836" y="189.681683" style="stroke: #000000; stroke-width: 0.8"/>
      </g>
     </g>
     <g id="line2d_24">
      <g>
       <use xlink:href="#meac9d61898" x="116.737836" y="17.202655" style="stroke: #000000; stroke-width: 0.8"/>
      </g>
     </g>
    </g>
    <g id="xtick_13">
     <g id="line2d_25">
      <g>
       <use xlink:href="#mee0d9a69cc" x="128.750783" y="189.681683" style="stroke: #000000; stroke-width: 0.8"/>
      </g>
     </g>
     <g id="line2d_26">
      <g>
       <use xlink:href="#meac9d61898" x="128.750783" y="17.202655" style="stroke: #000000; stroke-width: 0.8"/>
      </g>
     </g>
    </g>
    <g id="xtick_14">
     <g id="line2d_27">
      <g>
       <use xlink:href="#mee0d9a69cc" x="140.763729" y="189.681683" style="stroke: #000000; stroke-width: 0.8"/>
      </g>
     </g>
     <g id="line2d_28">
      <g>
       <use xlink:href="#meac9d61898" x="140.763729" y="17.202655" style="stroke: #000000; stroke-width: 0.8"/>
      </g>
     </g>
    </g>
    <g id="xtick_15">
     <g id="line2d_29">
      <g>
       <use xlink:href="#mee0d9a69cc" x="152.776675" y="189.681683" style="stroke: #000000; stroke-width: 0.8"/>
      </g>
     </g>
     <g id="line2d_30">
      <g>
       <use xlink:href="#meac9d61898" x="152.776675" y="17.202655" style="stroke: #000000; stroke-width: 0.8"/>
      </g>
     </g>
    </g>
    <g id="xtick_16">
     <g id="line2d_31">
      <g>
       <use xlink:href="#mee0d9a69cc" x="176.802568" y="189.681683" style="stroke: #000000; stroke-width: 0.8"/>
      </g>
     </g>
     <g id="line2d_32">
      <g>
       <use xlink:href="#meac9d61898" x="176.802568" y="17.202655" style="stroke: #000000; stroke-width: 0.8"/>
      </g>
     </g>
    </g>
    <g id="xtick_17">
     <g id="line2d_33">
      <g>
       <use xlink:href="#mee0d9a69cc" x="188.815515" y="189.681683" style="stroke: #000000; stroke-width: 0.8"/>
      </g>
     </g>
     <g id="line2d_34">
      <g>
       <use xlink:href="#meac9d61898" x="188.815515" y="17.202655" style="stroke: #000000; stroke-width: 0.8"/>
      </g>
     </g>
    </g>
    <g id="xtick_18">
     <g id="line2d_35">
      <g>
       <use xlink:href="#mee0d9a69cc" x="200.828461" y="189.681683" style="stroke: #000000; stroke-width: 0.8"/>
      </g>
     </g>
     <g id="line2d_36">
      <g>
       <use xlink:href="#meac9d61898" x="200.828461" y="17.202655" style="stroke: #000000; stroke-width: 0.8"/>
      </g>
     </g>
    </g>
    <g id="xtick_19">
     <g id="line2d_37">
      <g>
       <use xlink:href="#mee0d9a69cc" x="212.841407" y="189.681683" style="stroke: #000000; stroke-width: 0.8"/>
      </g>
     </g>
     <g id="line2d_38">
      <g>
       <use xlink:href="#meac9d61898" x="212.841407" y="17.202655" style="stroke: #000000; stroke-width: 0.8"/>
      </g>
     </g>
    </g>
    <g id="xtick_20">
     <g id="line2d_39">
      <g>
       <use xlink:href="#mee0d9a69cc" x="236.8673" y="189.681683" style="stroke: #000000; stroke-width: 0.8"/>
      </g>
     </g>
     <g id="line2d_40">
      <g>
       <use xlink:href="#meac9d61898" x="236.8673" y="17.202655" style="stroke: #000000; stroke-width: 0.8"/>
      </g>
     </g>
    </g>
    <g id="xtick_21">
     <g id="line2d_41">
      <g>
       <use xlink:href="#mee0d9a69cc" x="248.880246" y="189.681683" style="stroke: #000000; stroke-width: 0.8"/>
      </g>
     </g>
     <g id="line2d_42">
      <g>
       <use xlink:href="#meac9d61898" x="248.880246" y="17.202655" style="stroke: #000000; stroke-width: 0.8"/>
      </g>
     </g>
    </g>
    <g id="xtick_22">
     <g id="line2d_43">
      <g>
       <use xlink:href="#mee0d9a69cc" x="260.893193" y="189.681683" style="stroke: #000000; stroke-width: 0.8"/>
      </g>
     </g>
     <g id="line2d_44">
      <g>
       <use xlink:href="#meac9d61898" x="260.893193" y="17.202655" style="stroke: #000000; stroke-width: 0.8"/>
      </g>
     </g>
    </g>
    <g id="xtick_23">
     <g id="line2d_45">
      <g>
       <use xlink:href="#mee0d9a69cc" x="272.906139" y="189.681683" style="stroke: #000000; stroke-width: 0.8"/>
      </g>
     </g>
     <g id="line2d_46">
      <g>
       <use xlink:href="#meac9d61898" x="272.906139" y="17.202655" style="stroke: #000000; stroke-width: 0.8"/>
      </g>
     </g>
    </g>
    <g id="xtick_24">
     <g id="line2d_47">
      <g>
       <use xlink:href="#mee0d9a69cc" x="296.932032" y="189.681683" style="stroke: #000000; stroke-width: 0.8"/>
      </g>
     </g>
     <g id="line2d_48">
      <g>
       <use xlink:href="#meac9d61898" x="296.932032" y="17.202655" style="stroke: #000000; stroke-width: 0.8"/>
      </g>
     </g>
    </g>
    <g id="xtick_25">
     <g id="line2d_49">
      <g>
       <use xlink:href="#mee0d9a69cc" x="308.944978" y="189.681683" style="stroke: #000000; stroke-width: 0.8"/>
      </g>
     </g>
     <g id="line2d_50">
      <g>
       <use xlink:href="#meac9d61898" x="308.944978" y="17.202655" style="stroke: #000000; stroke-width: 0.8"/>
      </g>
     </g>
    </g>
    <g id="xtick_26">
     <g id="line2d_51">
      <g>
       <use xlink:href="#mee0d9a69cc" x="320.957924" y="189.681683" style="stroke: #000000; stroke-width: 0.8"/>
      </g>
     </g>
     <g id="line2d_52">
      <g>
       <use xlink:href="#meac9d61898" x="320.957924" y="17.202655" style="stroke: #000000; stroke-width: 0.8"/>
      </g>
     </g>
    </g>
    <g id="xtick_27">
     <g id="line2d_53">
      <g>
       <use xlink:href="#mee0d9a69cc" x="332.970871" y="189.681683" style="stroke: #000000; stroke-width: 0.8"/>
      </g>
     </g>
     <g id="line2d_54">
      <g>
       <use xlink:href="#meac9d61898" x="332.970871" y="17.202655" style="stroke: #000000; stroke-width: 0.8"/>
      </g>
     </g>
    </g>
    <g id="xtick_28">
     <g id="line2d_55">
      <g>
       <use xlink:href="#mee0d9a69cc" x="356.996763" y="189.681683" style="stroke: #000000; stroke-width: 0.8"/>
      </g>
     </g>
     <g id="line2d_56">
      <g>
       <use xlink:href="#meac9d61898" x="356.996763" y="17.202655" style="stroke: #000000; stroke-width: 0.8"/>
      </g>
     </g>
    </g>
    <g id="text_7">
     <!-- Proton $z$-vertex (cm) -->
     <g transform="translate(148.602853 213.50934) scale(0.1 -0.1)">
      <defs>
       <path id="CMR17-50" d="M 1267 2042 
L 2291 2042 
C 3117 2042 3718 2578 3718 3184 
C 3718 3791 3130 4352 2291 4352 
L 333 4352 
L 333 4186 
C 774 4186 845 4186 845 3899 
L 845 446 
C 845 160 774 160 333 160 
L 333 0 
C 518 0 858 0 1056 0 
C 1254 0 1594 0 1779 0 
L 1779 160 
C 1338 160 1267 160 1267 446 
L 1267 2042 
z
M 1254 2176 
L 1254 3938 
C 1254 4155 1267 4186 1523 4186 
L 2170 4186 
C 2995 4186 3232 3714 3232 3184 
C 3232 2604 2950 2176 2170 2176 
L 1254 2176 
z
" transform="scale(0.015625)"/>
       <path id="CMR17-72" d="M 960 1497 
C 960 2112 1222 2688 1702 2688 
C 1747 2688 1792 2682 1837 2662 
C 1837 2662 1696 2617 1696 2452 
C 1696 2298 1818 2234 1914 2234 
C 1990 2234 2131 2279 2131 2458 
C 2131 2663 1926 2790 1709 2790 
C 1222 2790 1011 2317 947 2093 
L 941 2093 
L 941 2790 
L 198 2720 
L 198 2554 
C 576 2554 634 2515 634 2208 
L 634 428 
C 634 184 608 153 198 153 
L 198 -13 
C 352 0 646 0 813 0 
C 998 0 1325 0 1498 -13 
L 1498 153 
C 1037 153 960 153 960 440 
L 960 1497 
z
" transform="scale(0.015625)"/>
       <path id="CMR17-6f" d="M 2758 1356 
C 2758 2176 2163 2816 1466 2816 
C 768 2816 173 2176 173 1356 
C 173 551 768 -64 1466 -64 
C 2163 -64 2758 551 2758 1356 
z
M 1466 51 
C 1165 51 909 230 762 480 
C 602 767 582 1126 582 1408 
C 582 1677 595 2010 762 2298 
C 890 2509 1139 2714 1466 2714 
C 1754 2714 1997 2554 2150 2330 
C 2349 2029 2349 1607 2349 1408 
C 2349 1158 2336 775 2163 467 
C 1984 173 1709 51 1466 51 
z
" transform="scale(0.015625)"/>
       <path id="CMR17-74" d="M 966 2560 
L 1862 2560 
L 1862 2725 
L 966 2725 
L 966 3904 
L 851 3904 
C 838 3245 614 2668 70 2668 
L 70 2560 
L 627 2560 
L 627 771 
C 627 650 627 -64 1370 -64 
C 1747 -64 1965 306 1965 777 
L 1965 1140 
L 1850 1140 
L 1850 783 
C 1850 344 1677 51 1408 51 
C 1222 51 966 178 966 758 
L 966 2560 
z
" transform="scale(0.015625)"/>
       <path id="CMR17-6e" d="M 2656 1933 
C 2656 2259 2592 2790 1837 2790 
C 1331 2790 1069 2400 973 2144 
L 966 2144 
L 966 2790 
L 211 2720 
L 211 2554 
C 589 2554 646 2515 646 2208 
L 646 428 
C 646 184 621 153 211 153 
L 211 -13 
C 365 0 646 0 813 0 
C 979 0 1267 0 1421 -13 
L 1421 153 
C 1011 153 986 178 986 428 
L 986 1658 
C 986 2247 1344 2688 1792 2688 
C 2266 2688 2317 2266 2317 1958 
L 2317 428 
C 2317 184 2291 153 1882 153 
L 1882 -13 
C 2035 0 2317 0 2483 0 
C 2650 0 2938 0 3091 -13 
L 3091 153 
C 2682 153 2656 178 2656 428 
L 2656 1933 
z
" transform="scale(0.015625)"/>
       <path id="CMMI12-7a" d="M 813 486 
C 1088 803 1312 1004 1632 1296 
C 2016 1632 2182 1793 2272 1891 
C 2720 2338 2944 2713 2944 2764 
C 2944 2816 2893 2816 2880 2816 
C 2835 2816 2822 2793 2790 2750 
C 2630 2494 2477 2367 2310 2367 
C 2176 2367 2106 2421 1984 2565 
C 1850 2715 1741 2816 1555 2816 
C 1088 2816 806 2257 806 2128 
C 806 2108 813 2068 870 2068 
C 922 2068 928 2091 947 2133 
C 1056 2372 1363 2414 1485 2414 
C 1619 2414 1747 2376 1882 2327 
C 2125 2240 2227 2240 2291 2240 
C 2336 2240 2362 2240 2394 2246 
C 2182 1994 1837 1683 1549 1418 
L 902 816 
C 512 415 275 33 275 -12 
C 275 -51 307 -64 346 -64 
C 384 -64 390 -57 435 14 
C 538 163 742 384 979 384 
C 1114 384 1178 342 1306 193 
C 1427 61 1536 -64 1741 -64 
C 2368 -64 2726 732 2726 876 
C 2726 903 2720 942 2656 942 
C 2605 942 2598 917 2579 855 
C 2438 488 2061 338 1811 338 
C 1677 338 1549 376 1414 425 
C 1158 512 1088 512 1005 512 
C 941 512 870 512 813 486 
z
" transform="scale(0.015625)"/>
       <path id="CMR17-2d" d="M 1632 1216 
L 1632 1496 
L 26 1496 
L 26 1216 
L 1632 1216 
z
" transform="scale(0.015625)"/>
       <path id="CMR17-76" d="M 2502 2163 
C 2560 2304 2662 2560 3034 2560 
L 3034 2726 
C 2912 2726 2752 2726 2630 2726 
C 2496 2726 2285 2726 2157 2732 
L 2157 2566 
C 2317 2553 2406 2477 2406 2311 
C 2406 2253 2406 2240 2368 2151 
L 1664 377 
L 902 2286 
C 864 2369 864 2381 864 2407 
C 864 2560 1075 2560 1171 2560 
L 1171 2732 
C 1018 2726 736 2726 576 2726 
C 403 2726 205 2726 64 2732 
L 64 2560 
C 307 2560 442 2560 518 2362 
L 1446 44 
C 1485 -51 1491 -64 1549 -64 
C 1606 -64 1613 -51 1651 44 
L 2502 2163 
z
" transform="scale(0.015625)"/>
       <path id="CMR17-65" d="M 2438 1472 
C 2464 1498 2464 1511 2464 1576 
C 2464 2238 2118 2816 1389 2816 
C 710 2816 173 2169 173 1383 
C 173 551 781 -64 1459 -64 
C 2176 -64 2458 607 2458 740 
C 2458 784 2419 784 2406 784 
C 2362 784 2355 771 2330 696 
C 2189 265 1837 51 1504 51 
C 1229 51 954 203 781 480 
C 582 803 582 1176 582 1472 
L 2438 1472 
z
M 589 1568 
C 634 2505 1126 2714 1382 2714 
C 1818 2714 2112 2297 2118 1568 
L 589 1568 
z
" transform="scale(0.015625)"/>
       <path id="CMR17-78" d="M 1664 1477 
C 1856 1726 2074 2006 2253 2216 
C 2464 2458 2707 2560 2989 2560 
L 2989 2726 
C 2880 2726 2656 2726 2541 2726 
C 2368 2726 2170 2726 2022 2732 
L 2022 2566 
C 2112 2553 2163 2489 2163 2400 
C 2163 2285 2099 2215 2067 2171 
L 1594 1573 
L 1030 2306 
C 973 2376 973 2388 973 2420 
C 973 2497 1037 2560 1146 2560 
L 1146 2732 
C 992 2726 717 2726 557 2726 
C 384 2726 179 2726 38 2732 
L 38 2560 
C 384 2560 461 2534 614 2343 
L 1350 1395 
C 1363 1382 1395 1344 1395 1325 
C 1395 1299 838 619 768 530 
C 480 185 179 160 6 160 
L 6 0 
C 115 0 339 0 454 0 
C 582 0 864 0 979 -6 
L 979 160 
C 941 166 838 179 838 325 
C 838 440 890 510 947 586 
L 1478 1236 
L 2035 512 
C 2086 442 2163 346 2163 301 
C 2163 211 2086 160 1984 160 
L 1984 -6 
C 2138 0 2413 0 2573 0 
C 2746 0 2950 0 3091 -6 
L 3091 160 
C 2771 160 2675 172 2522 370 
L 1664 1477 
z
" transform="scale(0.015625)"/>
       <path id="CMR17-28" d="M 1958 -1561 
C 1958 -1555 1958 -1542 1939 -1523 
C 1645 -1224 858 -407 858 1581 
C 858 3569 1632 4379 1946 4697 
C 1946 4704 1958 4717 1958 4736 
C 1958 4755 1939 4768 1914 4768 
C 1843 4768 1299 4296 986 3594 
C 666 2887 576 2199 576 1588 
C 576 1128 621 351 1005 -471 
C 1312 -1135 1837 -1600 1914 -1600 
C 1946 -1600 1958 -1587 1958 -1561 
z
" transform="scale(0.015625)"/>
       <path id="CMR17-63" d="M 2234 2240 
C 2112 2240 1933 2240 1933 2017 
C 1933 1838 2080 1787 2163 1787 
C 2208 1787 2394 1807 2394 2024 
C 2394 2467 1958 2803 1466 2803 
C 787 2803 211 2178 211 1363 
C 211 516 813 -64 1466 -64 
C 2259 -64 2458 677 2458 748 
C 2458 774 2451 793 2406 793 
C 2362 793 2355 787 2330 703 
C 2163 180 1798 51 1523 51 
C 1114 51 621 427 621 1369 
C 621 2338 1094 2688 1472 2688 
C 1722 2688 2093 2573 2234 2240 
z
" transform="scale(0.015625)"/>
       <path id="CMR17-6d" d="M 4326 1933 
C 4326 2252 4269 2790 3507 2790 
C 3072 2790 2771 2496 2656 2151 
L 2650 2151 
C 2573 2676 2195 2790 1837 2790 
C 1331 2790 1069 2400 973 2144 
L 966 2144 
L 966 2790 
L 211 2720 
L 211 2554 
C 589 2554 646 2515 646 2208 
L 646 428 
C 646 184 621 153 211 153 
L 211 -13 
C 365 0 646 0 813 0 
C 979 0 1267 0 1421 -13 
L 1421 153 
C 1011 153 986 178 986 428 
L 986 1658 
C 986 2247 1344 2688 1792 2688 
C 2266 2688 2317 2266 2317 1958 
L 2317 428 
C 2317 184 2291 153 1882 153 
L 1882 -13 
C 2035 0 2317 0 2483 0 
C 2650 0 2938 0 3091 -13 
L 3091 153 
C 2682 153 2656 178 2656 428 
L 2656 1658 
C 2656 2247 3014 2688 3462 2688 
C 3936 2688 3987 2266 3987 1958 
L 3987 428 
C 3987 184 3962 153 3552 153 
L 3552 -13 
C 3706 0 3987 0 4154 0 
C 4320 0 4608 0 4762 -13 
L 4762 153 
C 4352 153 4326 178 4326 428 
L 4326 1933 
z
" transform="scale(0.015625)"/>
       <path id="CMR17-29" d="M 1683 1581 
C 1683 2040 1638 2817 1254 3639 
C 947 4303 422 4768 346 4768 
C 326 4768 301 4761 301 4729 
C 301 4717 307 4710 314 4697 
C 621 4378 1402 3568 1402 1584 
C 1402 -407 627 -1217 314 -1537 
C 307 -1549 301 -1556 301 -1568 
C 301 -1600 326 -1600 346 -1600 
C 416 -1600 960 -1128 1274 -426 
C 1594 281 1683 969 1683 1581 
z
" transform="scale(0.015625)"/>
      </defs>
      <use xlink:href="#CMR17-50" transform="scale(0.996264)"/>
      <use xlink:href="#CMR17-72" transform="translate(62.586301 0) scale(0.996264)"/>
      <use xlink:href="#CMR17-6f" transform="translate(97.867068 0) scale(0.996264)"/>
      <use xlink:href="#CMR17-74" transform="translate(143.557545 0) scale(0.996264)"/>
      <use xlink:href="#CMR17-6f" transform="translate(178.838313 0) scale(0.996264)"/>
      <use xlink:href="#CMR17-6e" transform="translate(224.52879 0) scale(0.996264)"/>
      <use xlink:href="#CMMI12-7a" transform="translate(305.500126 0) scale(0.996264)"/>
      <use xlink:href="#CMR17-2d" transform="translate(355.255271 0) scale(0.996264)"/>
      <use xlink:href="#CMR17-76" transform="translate(385.331238 0) scale(0.996264)"/>
      <use xlink:href="#CMR17-65" transform="translate(431.0217 0) scale(0.996264)"/>
      <use xlink:href="#CMR17-72" transform="translate(471.50736 0) scale(0.996264)"/>
      <use xlink:href="#CMR17-74" transform="translate(506.788128 0) scale(0.996264)"/>
      <use xlink:href="#CMR17-65" transform="translate(542.068896 0) scale(0.996264)"/>
      <use xlink:href="#CMR17-78" transform="translate(582.554556 0) scale(0.996264)"/>
      <use xlink:href="#CMR17-28" transform="translate(660.923438 0) scale(0.996264)"/>
      <use xlink:href="#CMR17-63" transform="translate(696.204206 0) scale(0.996264)"/>
      <use xlink:href="#CMR17-6d" transform="translate(736.689867 0) scale(0.996264)"/>
      <use xlink:href="#CMR17-29" transform="translate(813.609456 0) scale(0.996264)"/>
     </g>
    </g>
   </g>
   <g id="matplotlib.axis_2">
    <g id="ytick_1">
     <g id="line2d_57">
      <defs>
       <path id="m7cea3d142a" d="M 0 0 
L 4 0 
" style="stroke: #000000; stroke-width: 1.2"/>
      </defs>
      <g>
       <use xlink:href="#m7cea3d142a" x="29.643975" y="189.681683" style="stroke: #000000; stroke-width: 1.2"/>
      </g>
     </g>
     <g id="line2d_58">
      <defs>
       <path id="m10ce687c98" d="M 0 0 
L -4 0 
" style="stroke: #000000; stroke-width: 1.2"/>
      </defs>
      <g>
       <use xlink:href="#m10ce687c98" x="360" y="189.681683" style="stroke: #000000; stroke-width: 1.2"/>
      </g>
     </g>
     <g id="text_8">
      <!-- $\mathdefault{0}$ -->
      <g transform="translate(21.16264 193.140932) scale(0.1 -0.1)">
       <use xlink:href="#CMR17-30" transform="scale(0.996264)"/>
      </g>
     </g>
    </g>
    <g id="ytick_2">
     <g id="line2d_59">
      <g>
       <use xlink:href="#m7cea3d142a" x="29.643975" y="148.759298" style="stroke: #000000; stroke-width: 1.2"/>
      </g>
     </g>
     <g id="line2d_60">
      <g>
       <use xlink:href="#m10ce687c98" x="360" y="148.759298" style="stroke: #000000; stroke-width: 1.2"/>
      </g>
     </g>
     <g id="text_9">
      <!-- $\mathdefault{2}$ -->
      <g transform="translate(21.16264 152.218547) scale(0.1 -0.1)">
       <defs>
        <path id="CMR17-32" d="M 2669 989 
L 2554 989 
C 2490 536 2438 459 2413 420 
C 2381 369 1920 369 1830 369 
L 602 369 
C 832 619 1280 1072 1824 1597 
C 2214 1967 2669 2402 2669 3035 
C 2669 3790 2067 4224 1395 4224 
C 691 4224 262 3604 262 3030 
C 262 2780 448 2748 525 2748 
C 589 2748 781 2787 781 3010 
C 781 3207 614 3264 525 3264 
C 486 3264 448 3258 422 3245 
C 544 3790 915 4058 1306 4058 
C 1862 4058 2227 3617 2227 3035 
C 2227 2479 1901 2000 1536 1584 
L 262 146 
L 262 0 
L 2515 0 
L 2669 989 
z
" transform="scale(0.015625)"/>
       </defs>
       <use xlink:href="#CMR17-32" transform="scale(0.996264)"/>
      </g>
     </g>
    </g>
    <g id="ytick_3">
     <g id="line2d_61">
      <g>
       <use xlink:href="#m7cea3d142a" x="29.643975" y="107.836913" style="stroke: #000000; stroke-width: 1.2"/>
      </g>
     </g>
     <g id="line2d_62">
      <g>
       <use xlink:href="#m10ce687c98" x="360" y="107.836913" style="stroke: #000000; stroke-width: 1.2"/>
      </g>
     </g>
     <g id="text_10">
      <!-- $\mathdefault{4}$ -->
      <g transform="translate(21.16264 111.296162) scale(0.1 -0.1)">
       <use xlink:href="#CMR17-34" transform="scale(0.996264)"/>
      </g>
     </g>
    </g>
    <g id="ytick_4">
     <g id="line2d_63">
      <g>
       <use xlink:href="#m7cea3d142a" x="29.643975" y="66.914528" style="stroke: #000000; stroke-width: 1.2"/>
      </g>
     </g>
     <g id="line2d_64">
      <g>
       <use xlink:href="#m10ce687c98" x="360" y="66.914528" style="stroke: #000000; stroke-width: 1.2"/>
      </g>
     </g>
     <g id="text_11">
      <!-- $\mathdefault{6}$ -->
      <g transform="translate(21.16264 70.373777) scale(0.1 -0.1)">
       <use xlink:href="#CMR17-36" transform="scale(0.996264)"/>
      </g>
     </g>
    </g>
    <g id="ytick_5">
     <g id="line2d_65">
      <g>
       <use xlink:href="#m7cea3d142a" x="29.643975" y="25.992142" style="stroke: #000000; stroke-width: 1.2"/>
      </g>
     </g>
     <g id="line2d_66">
      <g>
       <use xlink:href="#m10ce687c98" x="360" y="25.992142" style="stroke: #000000; stroke-width: 1.2"/>
      </g>
     </g>
     <g id="text_12">
      <!-- $\mathdefault{8}$ -->
      <g transform="translate(21.16264 29.451392) scale(0.1 -0.1)">
       <use xlink:href="#CMR17-38" transform="scale(0.996264)"/>
      </g>
     </g>
    </g>
    <g id="ytick_6">
     <g id="line2d_67">
      <defs>
       <path id="m5f5700ded5" d="M 0 0 
L 2.5 0 
" style="stroke: #000000; stroke-width: 0.8"/>
      </defs>
      <g>
       <use xlink:href="#m5f5700ded5" x="29.643975" y="179.451087" style="stroke: #000000; stroke-width: 0.8"/>
      </g>
     </g>
     <g id="line2d_68">
      <defs>
       <path id="mfbf3d26941" d="M 0 0 
L -2.5 0 
" style="stroke: #000000; stroke-width: 0.8"/>
      </defs>
      <g>
       <use xlink:href="#mfbf3d26941" x="360" y="179.451087" style="stroke: #000000; stroke-width: 0.8"/>
      </g>
     </g>
    </g>
    <g id="ytick_7">
     <g id="line2d_69">
      <g>
       <use xlink:href="#m5f5700ded5" x="29.643975" y="169.220491" style="stroke: #000000; stroke-width: 0.8"/>
      </g>
     </g>
     <g id="line2d_70">
      <g>
       <use xlink:href="#mfbf3d26941" x="360" y="169.220491" style="stroke: #000000; stroke-width: 0.8"/>
      </g>
     </g>
    </g>
    <g id="ytick_8">
     <g id="line2d_71">
      <g>
       <use xlink:href="#m5f5700ded5" x="29.643975" y="158.989894" style="stroke: #000000; stroke-width: 0.8"/>
      </g>
     </g>
     <g id="line2d_72">
      <g>
       <use xlink:href="#mfbf3d26941" x="360" y="158.989894" style="stroke: #000000; stroke-width: 0.8"/>
      </g>
     </g>
    </g>
    <g id="ytick_9">
     <g id="line2d_73">
      <g>
       <use xlink:href="#m5f5700ded5" x="29.643975" y="138.528702" style="stroke: #000000; stroke-width: 0.8"/>
      </g>
     </g>
     <g id="line2d_74">
      <g>
       <use xlink:href="#mfbf3d26941" x="360" y="138.528702" style="stroke: #000000; stroke-width: 0.8"/>
      </g>
     </g>
    </g>
    <g id="ytick_10">
     <g id="line2d_75">
      <g>
       <use xlink:href="#m5f5700ded5" x="29.643975" y="128.298105" style="stroke: #000000; stroke-width: 0.8"/>
      </g>
     </g>
     <g id="line2d_76">
      <g>
       <use xlink:href="#mfbf3d26941" x="360" y="128.298105" style="stroke: #000000; stroke-width: 0.8"/>
      </g>
     </g>
    </g>
    <g id="ytick_11">
     <g id="line2d_77">
      <g>
       <use xlink:href="#m5f5700ded5" x="29.643975" y="118.067509" style="stroke: #000000; stroke-width: 0.8"/>
      </g>
     </g>
     <g id="line2d_78">
      <g>
       <use xlink:href="#mfbf3d26941" x="360" y="118.067509" style="stroke: #000000; stroke-width: 0.8"/>
      </g>
     </g>
    </g>
    <g id="ytick_12">
     <g id="line2d_79">
      <g>
       <use xlink:href="#m5f5700ded5" x="29.643975" y="97.606317" style="stroke: #000000; stroke-width: 0.8"/>
      </g>
     </g>
     <g id="line2d_80">
      <g>
       <use xlink:href="#mfbf3d26941" x="360" y="97.606317" style="stroke: #000000; stroke-width: 0.8"/>
      </g>
     </g>
    </g>
    <g id="ytick_13">
     <g id="line2d_81">
      <g>
       <use xlink:href="#m5f5700ded5" x="29.643975" y="87.37572" style="stroke: #000000; stroke-width: 0.8"/>
      </g>
     </g>
     <g id="line2d_82">
      <g>
       <use xlink:href="#mfbf3d26941" x="360" y="87.37572" style="stroke: #000000; stroke-width: 0.8"/>
      </g>
     </g>
    </g>
    <g id="ytick_14">
     <g id="line2d_83">
      <g>
       <use xlink:href="#m5f5700ded5" x="29.643975" y="77.145124" style="stroke: #000000; stroke-width: 0.8"/>
      </g>
     </g>
     <g id="line2d_84">
      <g>
       <use xlink:href="#mfbf3d26941" x="360" y="77.145124" style="stroke: #000000; stroke-width: 0.8"/>
      </g>
     </g>
    </g>
    <g id="ytick_15">
     <g id="line2d_85">
      <g>
       <use xlink:href="#m5f5700ded5" x="29.643975" y="56.683931" style="stroke: #000000; stroke-width: 0.8"/>
      </g>
     </g>
     <g id="line2d_86">
      <g>
       <use xlink:href="#mfbf3d26941" x="360" y="56.683931" style="stroke: #000000; stroke-width: 0.8"/>
      </g>
     </g>
    </g>
    <g id="ytick_16">
     <g id="line2d_87">
      <g>
       <use xlink:href="#m5f5700ded5" x="29.643975" y="46.453335" style="stroke: #000000; stroke-width: 0.8"/>
      </g>
     </g>
     <g id="line2d_88">
      <g>
       <use xlink:href="#mfbf3d26941" x="360" y="46.453335" style="stroke: #000000; stroke-width: 0.8"/>
      </g>
     </g>
    </g>
    <g id="ytick_17">
     <g id="line2d_89">
      <g>
       <use xlink:href="#m5f5700ded5" x="29.643975" y="36.222739" style="stroke: #000000; stroke-width: 0.8"/>
      </g>
     </g>
     <g id="line2d_90">
      <g>
       <use xlink:href="#mfbf3d26941" x="360" y="36.222739" style="stroke: #000000; stroke-width: 0.8"/>
      </g>
     </g>
    </g>
    <g id="text_13">
     <!-- Counts / 1 (cm) -->
     <g transform="translate(14.67198 139.030994) rotate(-90) scale(0.1 -0.1)">
      <defs>
       <path id="CMR17-43" d="M 3974 4289 
C 3974 4403 3968 4410 3930 4410 
C 3904 4410 3898 4403 3853 4327 
L 3571 3792 
C 3258 4187 2874 4416 2381 4416 
C 1286 4416 294 3456 294 2148 
C 294 826 1286 -128 2387 -128 
C 3366 -128 3974 730 3974 1461 
C 3974 1524 3974 1550 3917 1550 
C 3866 1550 3866 1531 3859 1474 
C 3808 585 3168 38 2477 38 
C 1824 38 781 495 781 2147 
C 781 3805 1843 4250 2464 4250 
C 3187 4250 3712 3628 3834 2745 
C 3846 2668 3846 2655 3904 2655 
C 3974 2655 3974 2668 3974 2783 
L 3974 4289 
z
" transform="scale(0.015625)"/>
       <path id="CMR17-75" d="M 1882 2693 
L 1882 2528 
C 2259 2528 2317 2489 2317 2186 
L 2317 1032 
C 2317 500 2029 38 1555 38 
C 1030 38 986 348 986 678 
L 986 2763 
L 211 2693 
L 211 2528 
C 467 2528 640 2528 646 2274 
L 646 1058 
C 646 633 646 361 813 183 
C 896 101 1056 -64 1517 -64 
C 2061 -64 2272 377 2323 506 
L 2330 506 
L 2330 -63 
L 3091 -63 
L 3091 128 
C 2714 128 2656 166 2656 473 
L 2656 2763 
L 1882 2693 
z
" transform="scale(0.015625)"/>
       <path id="CMR17-73" d="M 1978 2697 
C 1978 2813 1971 2819 1933 2819 
C 1907 2819 1901 2813 1824 2717 
C 1805 2691 1747 2626 1728 2601 
C 1523 2819 1235 2819 1126 2819 
C 416 2819 160 2447 160 2076 
C 160 1498 813 1365 998 1325 
C 1402 1243 1542 1217 1677 1101 
C 1760 1025 1901 884 1901 654 
C 1901 384 1747 38 1158 38 
C 602 38 403 460 288 1021 
C 269 1110 269 1117 218 1117 
C 166 1117 160 1110 160 983 
L 160 63 
C 160 -51 166 -58 205 -58 
C 237 -58 243 -51 275 0 
C 314 57 410 211 448 276 
C 576 103 800 -64 1158 -64 
C 1792 -64 2131 283 2131 784 
C 2131 1112 1958 1285 1875 1362 
C 1683 1561 1459 1606 1190 1657 
C 838 1735 390 1825 390 2217 
C 390 2383 480 2737 1126 2737 
C 1811 2737 1850 2094 1862 1888 
C 1869 1856 1901 1849 1920 1849 
C 1978 1849 1978 1869 1978 1978 
L 1978 2697 
z
" transform="scale(0.015625)"/>
       <path id="CMR17-2f" d="M 2605 4545 
C 2637 4627 2637 4640 2637 4653 
C 2637 4729 2579 4768 2528 4768 
C 2451 4768 2426 4717 2400 4640 
L 326 -1377 
C 294 -1460 294 -1473 294 -1486 
C 294 -1562 352 -1600 403 -1600 
C 480 -1600 506 -1549 531 -1473 
L 2605 4545 
z
" transform="scale(0.015625)"/>
       <path id="CMR17-31" d="M 1702 4058 
C 1702 4192 1696 4192 1606 4192 
C 1357 3916 979 3827 621 3827 
C 602 3827 570 3827 563 3808 
C 557 3795 557 3782 557 3648 
C 755 3648 1088 3686 1344 3839 
L 1344 461 
C 1344 236 1331 160 781 160 
L 589 160 
L 589 0 
C 896 0 1216 0 1523 0 
C 1830 0 2150 0 2458 0 
L 2458 160 
L 2266 160 
C 1715 160 1702 230 1702 458 
L 1702 4058 
z
" transform="scale(0.015625)"/>
      </defs>
      <use xlink:href="#CMR17-43" transform="scale(0.996264)"/>
      <use xlink:href="#CMR17-6f" transform="translate(66.509881 0) scale(0.996264)"/>
      <use xlink:href="#CMR17-75" transform="translate(112.200358 0) scale(0.996264)"/>
      <use xlink:href="#CMR17-6e" transform="translate(163.095727 0) scale(0.996264)"/>
      <use xlink:href="#CMR17-74" transform="translate(211.388643 0) scale(0.996264)"/>
      <use xlink:href="#CMR17-73" transform="translate(246.669411 0) scale(0.996264)"/>
      <use xlink:href="#CMR17-2f" transform="translate(312.546715 0) scale(0.996264)"/>
      <use xlink:href="#CMR17-31" transform="translate(388.313159 0) scale(0.996264)"/>
      <use xlink:href="#CMR17-28" transform="translate(464.079602 0) scale(0.996264)"/>
      <use xlink:href="#CMR17-63" transform="translate(499.36037 0) scale(0.996264)"/>
      <use xlink:href="#CMR17-6d" transform="translate(539.84603 0) scale(0.996264)"/>
      <use xlink:href="#CMR17-29" transform="translate(616.76562 0) scale(0.996264)"/>
     </g>
    </g>
    <g id="text_14">
     <!-- $\times\mathdefault{10^{4}}\mathdefault{}$ -->
     <g transform="translate(29.643975 14.202655) scale(0.1 -0.1)">
      <defs>
       <path id="CMSY10-2" d="M 2490 1785 
L 1210 3059 
C 1133 3136 1120 3148 1069 3148 
C 1005 3148 941 3091 941 3020 
C 941 2976 954 2963 1024 2892 
L 2304 1606 
L 1024 320 
C 954 249 941 236 941 192 
C 941 121 1005 64 1069 64 
C 1120 64 1133 76 1210 153 
L 2483 1427 
L 3808 102 
C 3821 96 3866 64 3904 64 
C 3981 64 4032 121 4032 192 
C 4032 204 4032 230 4013 262 
C 4006 275 2989 1280 2669 1606 
L 3840 2777 
C 3872 2816 3968 2899 4000 2937 
C 4006 2950 4032 2976 4032 3020 
C 4032 3091 3981 3148 3904 3148 
C 3853 3148 3827 3123 3757 3052 
L 2490 1785 
z
" transform="scale(0.015625)"/>
      </defs>
      <use xlink:href="#CMSY10-2" transform="scale(0.996264)"/>
      <use xlink:href="#CMR17-31" transform="translate(77.487468 0) scale(0.996264)"/>
      <use xlink:href="#CMR17-30" transform="translate(123.177945 0) scale(0.996264)"/>
      <use xlink:href="#CMR17-34" transform="translate(168.868422 36.153639) scale(0.697382)"/>
     </g>
    </g>
   </g>
   <g id="LineCollection_1">
    <path d="M 47.663395 188.048087 
L 47.663395 187.863013 
" clip-path="url(#p41ce6cf437)" style="fill: none; stroke: #377eb8; stroke-width: 0.5"/>
    <path d="M 53.669868 187.793978 
L 53.669868 187.595001 
" clip-path="url(#p41ce6cf437)" style="fill: none; stroke: #377eb8; stroke-width: 0.5"/>
    <path d="M 59.676341 187.32556 
L 59.676341 187.11071 
" clip-path="url(#p41ce6cf437)" style="fill: none; stroke: #377eb8; stroke-width: 0.5"/>
    <path d="M 65.682814 186.89791 
L 65.682814 186.663811 
" clip-path="url(#p41ce6cf437)" style="fill: none; stroke: #377eb8; stroke-width: 0.5"/>
    <path d="M 71.689288 186.668248 
L 71.689288 186.414844 
" clip-path="url(#p41ce6cf437)" style="fill: none; stroke: #377eb8; stroke-width: 0.5"/>
    <path d="M 77.695761 185.377202 
L 77.695761 185.086863 
" clip-path="url(#p41ce6cf437)" style="fill: none; stroke: #377eb8; stroke-width: 0.5"/>
    <path d="M 83.702234 183.576829 
L 83.702234 183.235786 
" clip-path="url(#p41ce6cf437)" style="fill: none; stroke: #377eb8; stroke-width: 0.5"/>
    <path d="M 89.708707 181.262589 
L 89.708707 180.857926 
" clip-path="url(#p41ce6cf437)" style="fill: none; stroke: #377eb8; stroke-width: 0.5"/>
    <path d="M 95.71518 175.154827 
L 95.71518 174.637684 
" clip-path="url(#p41ce6cf437)" style="fill: none; stroke: #377eb8; stroke-width: 0.5"/>
    <path d="M 101.721653 160.107014 
L 101.721653 159.378055 
" clip-path="url(#p41ce6cf437)" style="fill: none; stroke: #377eb8; stroke-width: 0.5"/>
    <path d="M 107.728127 88.32803 
L 107.728127 87.000592 
" clip-path="url(#p41ce6cf437)" style="fill: none; stroke: #377eb8; stroke-width: 0.5"/>
    <path d="M 113.7346 54.843552 
L 113.7346 53.313836 
" clip-path="url(#p41ce6cf437)" style="fill: none; stroke: #377eb8; stroke-width: 0.5"/>
    <path d="M 119.741073 45.492252 
L 119.741073 43.910631 
" clip-path="url(#p41ce6cf437)" style="fill: none; stroke: #377eb8; stroke-width: 0.5"/>
    <path d="M 125.747546 40.91911 
L 125.747546 39.313578 
" clip-path="url(#p41ce6cf437)" style="fill: none; stroke: #377eb8; stroke-width: 0.5"/>
    <path d="M 131.754019 39.913308 
L 131.754019 38.294937 
" clip-path="url(#p41ce6cf437)" style="fill: none; stroke: #377eb8; stroke-width: 0.5"/>
    <path d="M 137.760493 34.800015 
L 137.760493 33.164972 
" clip-path="url(#p41ce6cf437)" style="fill: none; stroke: #377eb8; stroke-width: 0.5"/>
    <path d="M 143.766966 34.535781 
L 143.766966 32.895873 
" clip-path="url(#p41ce6cf437)" style="fill: none; stroke: #377eb8; stroke-width: 0.5"/>
    <path d="M 149.773439 32.994516 
L 149.773439 31.347434 
" clip-path="url(#p41ce6cf437)" style="fill: none; stroke: #377eb8; stroke-width: 0.5"/>
    <path d="M 155.779912 34.020694 
L 155.779912 32.372394 
" clip-path="url(#p41ce6cf437)" style="fill: none; stroke: #377eb8; stroke-width: 0.5"/>
    <path d="M 161.786385 30.993156 
L 161.786385 29.334564 
" clip-path="url(#p41ce6cf437)" style="fill: none; stroke: #377eb8; stroke-width: 0.5"/>
    <path d="M 167.792858 30.982589 
L 167.792858 29.322016 
" clip-path="url(#p41ce6cf437)" style="fill: none; stroke: #377eb8; stroke-width: 0.5"/>
    <path d="M 173.799332 28.697557 
L 173.799332 27.031542 
" clip-path="url(#p41ce6cf437)" style="fill: none; stroke: #377eb8; stroke-width: 0.5"/>
    <path d="M 179.805805 28.461875 
L 179.805805 26.793196 
" clip-path="url(#p41ce6cf437)" style="fill: none; stroke: #377eb8; stroke-width: 0.5"/>
    <path d="M 185.812278 27.15092 
L 185.812278 25.478436 
" clip-path="url(#p41ce6cf437)" style="fill: none; stroke: #377eb8; stroke-width: 0.5"/>
    <path d="M 191.818751 27.089399 
L 191.818751 25.415942 
" clip-path="url(#p41ce6cf437)" style="fill: none; stroke: #377eb8; stroke-width: 0.5"/>
    <path d="M 197.825224 28.175057 
L 197.825224 26.503903 
" clip-path="url(#p41ce6cf437)" style="fill: none; stroke: #377eb8; stroke-width: 0.5"/>
    <path d="M 203.831697 28.740802 
L 203.831697 27.070973 
" clip-path="url(#p41ce6cf437)" style="fill: none; stroke: #377eb8; stroke-width: 0.5"/>
    <path d="M 209.838171 29.145149 
L 209.838171 27.479606 
" clip-path="url(#p41ce6cf437)" style="fill: none; stroke: #377eb8; stroke-width: 0.5"/>
    <path d="M 215.844644 30.002153 
L 215.844644 28.339137 
" clip-path="url(#p41ce6cf437)" style="fill: none; stroke: #377eb8; stroke-width: 0.5"/>
    <path d="M 221.851117 29.223646 
L 221.851117 27.559971 
" clip-path="url(#p41ce6cf437)" style="fill: none; stroke: #377eb8; stroke-width: 0.5"/>
    <path d="M 227.85759 29.819228 
L 227.85759 28.159003 
" clip-path="url(#p41ce6cf437)" style="fill: none; stroke: #377eb8; stroke-width: 0.5"/>
    <path d="M 233.864063 30.122136 
L 233.864063 28.465647 
" clip-path="url(#p41ce6cf437)" style="fill: none; stroke: #377eb8; stroke-width: 0.5"/>
    <path d="M 239.870536 33.387523 
L 239.870536 31.742566 
" clip-path="url(#p41ce6cf437)" style="fill: none; stroke: #377eb8; stroke-width: 0.5"/>
    <path d="M 245.87701 32.927377 
L 245.87701 31.288033 
" clip-path="url(#p41ce6cf437)" style="fill: none; stroke: #377eb8; stroke-width: 0.5"/>
    <path d="M 251.883483 35.907735 
L 251.883483 34.282919 
" clip-path="url(#p41ce6cf437)" style="fill: none; stroke: #377eb8; stroke-width: 0.5"/>
    <path d="M 257.889956 38.381985 
L 257.889956 36.771659 
" clip-path="url(#p41ce6cf437)" style="fill: none; stroke: #377eb8; stroke-width: 0.5"/>
    <path d="M 263.896429 43.815999 
L 263.896429 42.232751 
" clip-path="url(#p41ce6cf437)" style="fill: none; stroke: #377eb8; stroke-width: 0.5"/>
    <path d="M 269.902902 49.002884 
L 269.902902 47.450606 
" clip-path="url(#p41ce6cf437)" style="fill: none; stroke: #377eb8; stroke-width: 0.5"/>
    <path d="M 275.909376 59.911183 
L 275.909376 58.419446 
" clip-path="url(#p41ce6cf437)" style="fill: none; stroke: #377eb8; stroke-width: 0.5"/>
    <path d="M 281.915849 101.765282 
L 281.915849 100.535348 
" clip-path="url(#p41ce6cf437)" style="fill: none; stroke: #377eb8; stroke-width: 0.5"/>
    <path d="M 287.922322 159.228322 
L 287.922322 158.487573 
" clip-path="url(#p41ce6cf437)" style="fill: none; stroke: #377eb8; stroke-width: 0.5"/>
    <path d="M 293.928795 173.610023 
L 293.928795 173.064943 
" clip-path="url(#p41ce6cf437)" style="fill: none; stroke: #377eb8; stroke-width: 0.5"/>
    <path d="M 299.935268 179.230503 
L 299.935268 178.785468 
" clip-path="url(#p41ce6cf437)" style="fill: none; stroke: #377eb8; stroke-width: 0.5"/>
    <path d="M 305.941741 181.670942 
L 305.941741 181.276649 
" clip-path="url(#p41ce6cf437)" style="fill: none; stroke: #377eb8; stroke-width: 0.5"/>
    <path d="M 311.948215 180.908391 
L 311.948215 180.497613 
" clip-path="url(#p41ce6cf437)" style="fill: none; stroke: #377eb8; stroke-width: 0.5"/>
    <path d="M 317.954688 184.379727 
L 317.954688 184.058223 
" clip-path="url(#p41ce6cf437)" style="fill: none; stroke: #377eb8; stroke-width: 0.5"/>
    <path d="M 323.961161 185.64993 
L 323.961161 185.362126 
" clip-path="url(#p41ce6cf437)" style="fill: none; stroke: #377eb8; stroke-width: 0.5"/>
    <path d="M 329.967634 186.272833 
L 329.967634 186.014063 
" clip-path="url(#p41ce6cf437)" style="fill: none; stroke: #377eb8; stroke-width: 0.5"/>
    <path d="M 335.974107 186.785527 
L 335.974107 186.546431 
" clip-path="url(#p41ce6cf437)" style="fill: none; stroke: #377eb8; stroke-width: 0.5"/>
    <path d="M 341.98058 187.241978 
L 341.98058 187.021263 
" clip-path="url(#p41ce6cf437)" style="fill: none; stroke: #377eb8; stroke-width: 0.5"/>
   </g>
   <g id="line2d_91">
    <defs>
     <path id="md827a0d1d4" d="M 1 0 
L -1 -0 
" style="stroke: #377eb8"/>
    </defs>
    <g clip-path="url(#p41ce6cf437)">
     <use xlink:href="#md827a0d1d4" x="47.663395" y="188.048087" style="fill: #377eb8; stroke: #377eb8"/>
     <use xlink:href="#md827a0d1d4" x="53.669868" y="187.793978" style="fill: #377eb8; stroke: #377eb8"/>
     <use xlink:href="#md827a0d1d4" x="59.676341" y="187.32556" style="fill: #377eb8; stroke: #377eb8"/>
     <use xlink:href="#md827a0d1d4" x="65.682814" y="186.89791" style="fill: #377eb8; stroke: #377eb8"/>
     <use xlink:href="#md827a0d1d4" x="71.689288" y="186.668248" style="fill: #377eb8; stroke: #377eb8"/>
     <use xlink:href="#md827a0d1d4" x="77.695761" y="185.377202" style="fill: #377eb8; stroke: #377eb8"/>
     <use xlink:href="#md827a0d1d4" x="83.702234" y="183.576829" style="fill: #377eb8; stroke: #377eb8"/>
     <use xlink:href="#md827a0d1d4" x="89.708707" y="181.262589" style="fill: #377eb8; stroke: #377eb8"/>
     <use xlink:href="#md827a0d1d4" x="95.71518" y="175.154827" style="fill: #377eb8; stroke: #377eb8"/>
     <use xlink:href="#md827a0d1d4" x="101.721653" y="160.107014" style="fill: #377eb8; stroke: #377eb8"/>
     <use xlink:href="#md827a0d1d4" x="107.728127" y="88.32803" style="fill: #377eb8; stroke: #377eb8"/>
     <use xlink:href="#md827a0d1d4" x="113.7346" y="54.843552" style="fill: #377eb8; stroke: #377eb8"/>
     <use xlink:href="#md827a0d1d4" x="119.741073" y="45.492252" style="fill: #377eb8; stroke: #377eb8"/>
     <use xlink:href="#md827a0d1d4" x="125.747546" y="40.91911" style="fill: #377eb8; stroke: #377eb8"/>
     <use xlink:href="#md827a0d1d4" x="131.754019" y="39.913308" style="fill: #377eb8; stroke: #377eb8"/>
     <use xlink:href="#md827a0d1d4" x="137.760493" y="34.800015" style="fill: #377eb8; stroke: #377eb8"/>
     <use xlink:href="#md827a0d1d4" x="143.766966" y="34.535781" style="fill: #377eb8; stroke: #377eb8"/>
     <use xlink:href="#md827a0d1d4" x="149.773439" y="32.994516" style="fill: #377eb8; stroke: #377eb8"/>
     <use xlink:href="#md827a0d1d4" x="155.779912" y="34.020694" style="fill: #377eb8; stroke: #377eb8"/>
     <use xlink:href="#md827a0d1d4" x="161.786385" y="30.993156" style="fill: #377eb8; stroke: #377eb8"/>
     <use xlink:href="#md827a0d1d4" x="167.792858" y="30.982589" style="fill: #377eb8; stroke: #377eb8"/>
     <use xlink:href="#md827a0d1d4" x="173.799332" y="28.697557" style="fill: #377eb8; stroke: #377eb8"/>
     <use xlink:href="#md827a0d1d4" x="179.805805" y="28.461875" style="fill: #377eb8; stroke: #377eb8"/>
     <use xlink:href="#md827a0d1d4" x="185.812278" y="27.15092" style="fill: #377eb8; stroke: #377eb8"/>
     <use xlink:href="#md827a0d1d4" x="191.818751" y="27.089399" style="fill: #377eb8; stroke: #377eb8"/>
     <use xlink:href="#md827a0d1d4" x="197.825224" y="28.175057" style="fill: #377eb8; stroke: #377eb8"/>
     <use xlink:href="#md827a0d1d4" x="203.831697" y="28.740802" style="fill: #377eb8; stroke: #377eb8"/>
     <use xlink:href="#md827a0d1d4" x="209.838171" y="29.145149" style="fill: #377eb8; stroke: #377eb8"/>
     <use xlink:href="#md827a0d1d4" x="215.844644" y="30.002153" style="fill: #377eb8; stroke: #377eb8"/>
     <use xlink:href="#md827a0d1d4" x="221.851117" y="29.223646" style="fill: #377eb8; stroke: #377eb8"/>
     <use xlink:href="#md827a0d1d4" x="227.85759" y="29.819228" style="fill: #377eb8; stroke: #377eb8"/>
     <use xlink:href="#md827a0d1d4" x="233.864063" y="30.122136" style="fill: #377eb8; stroke: #377eb8"/>
     <use xlink:href="#md827a0d1d4" x="239.870536" y="33.387523" style="fill: #377eb8; stroke: #377eb8"/>
     <use xlink:href="#md827a0d1d4" x="245.87701" y="32.927377" style="fill: #377eb8; stroke: #377eb8"/>
     <use xlink:href="#md827a0d1d4" x="251.883483" y="35.907735" style="fill: #377eb8; stroke: #377eb8"/>
     <use xlink:href="#md827a0d1d4" x="257.889956" y="38.381985" style="fill: #377eb8; stroke: #377eb8"/>
     <use xlink:href="#md827a0d1d4" x="263.896429" y="43.815999" style="fill: #377eb8; stroke: #377eb8"/>
     <use xlink:href="#md827a0d1d4" x="269.902902" y="49.002884" style="fill: #377eb8; stroke: #377eb8"/>
     <use xlink:href="#md827a0d1d4" x="275.909376" y="59.911183" style="fill: #377eb8; stroke: #377eb8"/>
     <use xlink:href="#md827a0d1d4" x="281.915849" y="101.765282" style="fill: #377eb8; stroke: #377eb8"/>
     <use xlink:href="#md827a0d1d4" x="287.922322" y="159.228322" style="fill: #377eb8; stroke: #377eb8"/>
     <use xlink:href="#md827a0d1d4" x="293.928795" y="173.610023" style="fill: #377eb8; stroke: #377eb8"/>
     <use xlink:href="#md827a0d1d4" x="299.935268" y="179.230503" style="fill: #377eb8; stroke: #377eb8"/>
     <use xlink:href="#md827a0d1d4" x="305.941741" y="181.670942" style="fill: #377eb8; stroke: #377eb8"/>
     <use xlink:href="#md827a0d1d4" x="311.948215" y="180.908391" style="fill: #377eb8; stroke: #377eb8"/>
     <use xlink:href="#md827a0d1d4" x="317.954688" y="184.379727" style="fill: #377eb8; stroke: #377eb8"/>
     <use xlink:href="#md827a0d1d4" x="323.961161" y="185.64993" style="fill: #377eb8; stroke: #377eb8"/>
     <use xlink:href="#md827a0d1d4" x="329.967634" y="186.272833" style="fill: #377eb8; stroke: #377eb8"/>
     <use xlink:href="#md827a0d1d4" x="335.974107" y="186.785527" style="fill: #377eb8; stroke: #377eb8"/>
     <use xlink:href="#md827a0d1d4" x="341.98058" y="187.241978" style="fill: #377eb8; stroke: #377eb8"/>
    </g>
   </g>
   <g id="line2d_92">
    <g clip-path="url(#p41ce6cf437)">
     <use xlink:href="#md827a0d1d4" x="47.663395" y="187.863013" style="fill: #377eb8; stroke: #377eb8"/>
     <use xlink:href="#md827a0d1d4" x="53.669868" y="187.595001" style="fill: #377eb8; stroke: #377eb8"/>
     <use xlink:href="#md827a0d1d4" x="59.676341" y="187.11071" style="fill: #377eb8; stroke: #377eb8"/>
     <use xlink:href="#md827a0d1d4" x="65.682814" y="186.663811" style="fill: #377eb8; stroke: #377eb8"/>
     <use xlink:href="#md827a0d1d4" x="71.689288" y="186.414844" style="fill: #377eb8; stroke: #377eb8"/>
     <use xlink:href="#md827a0d1d4" x="77.695761" y="185.086863" style="fill: #377eb8; stroke: #377eb8"/>
     <use xlink:href="#md827a0d1d4" x="83.702234" y="183.235786" style="fill: #377eb8; stroke: #377eb8"/>
     <use xlink:href="#md827a0d1d4" x="89.708707" y="180.857926" style="fill: #377eb8; stroke: #377eb8"/>
     <use xlink:href="#md827a0d1d4" x="95.71518" y="174.637684" style="fill: #377eb8; stroke: #377eb8"/>
     <use xlink:href="#md827a0d1d4" x="101.721653" y="159.378055" style="fill: #377eb8; stroke: #377eb8"/>
     <use xlink:href="#md827a0d1d4" x="107.728127" y="87.000592" style="fill: #377eb8; stroke: #377eb8"/>
     <use xlink:href="#md827a0d1d4" x="113.7346" y="53.313836" style="fill: #377eb8; stroke: #377eb8"/>
     <use xlink:href="#md827a0d1d4" x="119.741073" y="43.910631" style="fill: #377eb8; stroke: #377eb8"/>
     <use xlink:href="#md827a0d1d4" x="125.747546" y="39.313578" style="fill: #377eb8; stroke: #377eb8"/>
     <use xlink:href="#md827a0d1d4" x="131.754019" y="38.294937" style="fill: #377eb8; stroke: #377eb8"/>
     <use xlink:href="#md827a0d1d4" x="137.760493" y="33.164972" style="fill: #377eb8; stroke: #377eb8"/>
     <use xlink:href="#md827a0d1d4" x="143.766966" y="32.895873" style="fill: #377eb8; stroke: #377eb8"/>
     <use xlink:href="#md827a0d1d4" x="149.773439" y="31.347434" style="fill: #377eb8; stroke: #377eb8"/>
     <use xlink:href="#md827a0d1d4" x="155.779912" y="32.372394" style="fill: #377eb8; stroke: #377eb8"/>
     <use xlink:href="#md827a0d1d4" x="161.786385" y="29.334564" style="fill: #377eb8; stroke: #377eb8"/>
     <use xlink:href="#md827a0d1d4" x="167.792858" y="29.322016" style="fill: #377eb8; stroke: #377eb8"/>
     <use xlink:href="#md827a0d1d4" x="173.799332" y="27.031542" style="fill: #377eb8; stroke: #377eb8"/>
     <use xlink:href="#md827a0d1d4" x="179.805805" y="26.793196" style="fill: #377eb8; stroke: #377eb8"/>
     <use xlink:href="#md827a0d1d4" x="185.812278" y="25.478436" style="fill: #377eb8; stroke: #377eb8"/>
     <use xlink:href="#md827a0d1d4" x="191.818751" y="25.415942" style="fill: #377eb8; stroke: #377eb8"/>
     <use xlink:href="#md827a0d1d4" x="197.825224" y="26.503903" style="fill: #377eb8; stroke: #377eb8"/>
     <use xlink:href="#md827a0d1d4" x="203.831697" y="27.070973" style="fill: #377eb8; stroke: #377eb8"/>
     <use xlink:href="#md827a0d1d4" x="209.838171" y="27.479606" style="fill: #377eb8; stroke: #377eb8"/>
     <use xlink:href="#md827a0d1d4" x="215.844644" y="28.339137" style="fill: #377eb8; stroke: #377eb8"/>
     <use xlink:href="#md827a0d1d4" x="221.851117" y="27.559971" style="fill: #377eb8; stroke: #377eb8"/>
     <use xlink:href="#md827a0d1d4" x="227.85759" y="28.159003" style="fill: #377eb8; stroke: #377eb8"/>
     <use xlink:href="#md827a0d1d4" x="233.864063" y="28.465647" style="fill: #377eb8; stroke: #377eb8"/>
     <use xlink:href="#md827a0d1d4" x="239.870536" y="31.742566" style="fill: #377eb8; stroke: #377eb8"/>
     <use xlink:href="#md827a0d1d4" x="245.87701" y="31.288033" style="fill: #377eb8; stroke: #377eb8"/>
     <use xlink:href="#md827a0d1d4" x="251.883483" y="34.282919" style="fill: #377eb8; stroke: #377eb8"/>
     <use xlink:href="#md827a0d1d4" x="257.889956" y="36.771659" style="fill: #377eb8; stroke: #377eb8"/>
     <use xlink:href="#md827a0d1d4" x="263.896429" y="42.232751" style="fill: #377eb8; stroke: #377eb8"/>
     <use xlink:href="#md827a0d1d4" x="269.902902" y="47.450606" style="fill: #377eb8; stroke: #377eb8"/>
     <use xlink:href="#md827a0d1d4" x="275.909376" y="58.419446" style="fill: #377eb8; stroke: #377eb8"/>
     <use xlink:href="#md827a0d1d4" x="281.915849" y="100.535348" style="fill: #377eb8; stroke: #377eb8"/>
     <use xlink:href="#md827a0d1d4" x="287.922322" y="158.487573" style="fill: #377eb8; stroke: #377eb8"/>
     <use xlink:href="#md827a0d1d4" x="293.928795" y="173.064943" style="fill: #377eb8; stroke: #377eb8"/>
     <use xlink:href="#md827a0d1d4" x="299.935268" y="178.785468" style="fill: #377eb8; stroke: #377eb8"/>
     <use xlink:href="#md827a0d1d4" x="305.941741" y="181.276649" style="fill: #377eb8; stroke: #377eb8"/>
     <use xlink:href="#md827a0d1d4" x="311.948215" y="180.497613" style="fill: #377eb8; stroke: #377eb8"/>
     <use xlink:href="#md827a0d1d4" x="317.954688" y="184.058223" style="fill: #377eb8; stroke: #377eb8"/>
     <use xlink:href="#md827a0d1d4" x="323.961161" y="185.362126" style="fill: #377eb8; stroke: #377eb8"/>
     <use xlink:href="#md827a0d1d4" x="329.967634" y="186.014063" style="fill: #377eb8; stroke: #377eb8"/>
     <use xlink:href="#md827a0d1d4" x="335.974107" y="186.546431" style="fill: #377eb8; stroke: #377eb8"/>
     <use xlink:href="#md827a0d1d4" x="341.98058" y="187.021263" style="fill: #377eb8; stroke: #377eb8"/>
    </g>
   </g>
   <g id="patch_4">
    <path d="M 29.643975 189.681683 
L 29.643975 17.202655 
" style="fill: none; stroke: #000000; stroke-width: 0.8; stroke-linejoin: miter; stroke-linecap: square"/>
   </g>
   <g id="patch_5">
    <path d="M 360 189.681683 
L 360 17.202655 
" style="fill: none; stroke: #000000; stroke-width: 0.8; stroke-linejoin: miter; stroke-linecap: square"/>
   </g>
   <g id="patch_6">
    <path d="M 29.643975 189.681683 
L 360 189.681683 
" style="fill: none; stroke: #000000; stroke-width: 0.8; stroke-linejoin: miter; stroke-linecap: square"/>
   </g>
   <g id="patch_7">
    <path d="M 29.643975 17.202655 
L 360 17.202655 
" style="fill: none; stroke: #000000; stroke-width: 0.8; stroke-linejoin: miter; stroke-linecap: square"/>
   </g>
  </g>
 </g>
 <defs>
  <clipPath id="p41ce6cf437">
   <rect x="29.643975" y="17.202655" width="330.356025" height="172.479028"/>
  </clipPath>
 </defs>
</svg>
