<?xml version="1.0" encoding="utf-8" standalone="no"?>
<!DOCTYPE svg PUBLIC "-//W3C//DTD SVG 1.1//EN"
  "http://www.w3.org/Graphics/SVG/1.1/DTD/svg11.dtd">
<svg xmlns:xlink="http://www.w3.org/1999/xlink" width="209.042212pt" height="203.943717pt" viewBox="0 0 209.042212 203.943717" xmlns="http://www.w3.org/2000/svg" version="1.1">
 <metadata>
  <rdf:RDF xmlns:dc="http://purl.org/dc/elements/1.1/" xmlns:cc="http://creativecommons.org/ns#" xmlns:rdf="http://www.w3.org/1999/02/22-rdf-syntax-ns#">
   <cc:Work>
    <dc:type rdf:resource="http://purl.org/dc/dcmitype/StillImage"/>
    <dc:date>2025-05-28T00:53:08.947176</dc:date>
    <dc:format>image/svg+xml</dc:format>
    <dc:creator>
     <cc:Agent>
      <dc:title>Matplotlib v3.10.3, https://matplotlib.org/</dc:title>
     </cc:Agent>
    </dc:creator>
   </cc:Work>
  </rdf:RDF>
 </metadata>
 <defs>
  <style type="text/css">*{stroke-linejoin: round; stroke-linecap: butt}</style>
 </defs>
 <g id="figure_1">
  <g id="patch_1">
   <path d="M 0 203.943717 
L 209.042212 203.943717 
L 209.042212 0 
L 0 0 
z
" style="fill: #ffffff"/>
  </g>
  <g id="patch_2">
   <path d="M 7.2 184.608 
L 184.608 184.608 
L 184.608 7.2 
L 7.2 7.2 
z
" style="fill: #ffffff"/>
  </g>
  <g id="pane3d_1">
   <g id="patch_3">
    <path d="M 20.595527 140.864873 
L 79.181443 91.756997 
L 78.367043 20.934661 
L 16.977489 65.733961 
" style="fill: none; opacity: 0"/>
   </g>
  </g>
  <g id="pane3d_2">
   <g id="patch_4">
    <path d="M 79.181443 91.756997 
L 173.190934 119.081844 
L 176.545801 45.820114 
L 78.367043 20.934661 
" style="fill: none; opacity: 0"/>
   </g>
  </g>
  <g id="pane3d_3">
   <g id="patch_5">
    <path d="M 20.595527 140.864873 
L 120.250179 173.412082 
L 173.190934 119.081844 
L 79.181443 91.756997 
" style="fill: #ececec; opacity: 0.5; stroke: #ececec; stroke-linejoin: miter"/>
   </g>
  </g>
  <g id="axis3d_1">
   <g id="line2d_1">
    <path d="M 20.595527 140.864873 
L 120.250179 173.412082 
" style="fill: none; stroke: #000000; stroke-width: 0.8; stroke-linecap: square"/>
   </g>
   <g id="xtick_1">
    <g id="line2d_2">
     <path d="M 27.138528 142.405779 
L 25.614176 143.698595 
" style="fill: none; stroke: #000000; stroke-width: 1.2; stroke-linecap: square"/>
    </g>
    <g id="text_1">
     <!-- $\mathdefault{−1.0}$ -->
     <g transform="translate(8.848655 165.494567) scale(0.1 -0.1)">
      <defs>
       <path id="CMSY10-0" d="M 4218 1472 
C 4326 1472 4442 1472 4442 1600 
C 4442 1728 4326 1728 4218 1728 
L 755 1728 
C 646 1728 531 1728 531 1600 
C 531 1472 646 1472 755 1472 
L 4218 1472 
z
" transform="scale(0.015625)"/>
       <path id="CMR17-31" d="M 1702 4058 
C 1702 4192 1696 4192 1606 4192 
C 1357 3916 979 3827 621 3827 
C 602 3827 570 3827 563 3808 
C 557 3795 557 3782 557 3648 
C 755 3648 1088 3686 1344 3839 
L 1344 461 
C 1344 236 1331 160 781 160 
L 589 160 
L 589 0 
C 896 0 1216 0 1523 0 
C 1830 0 2150 0 2458 0 
L 2458 160 
L 2266 160 
C 1715 160 1702 230 1702 458 
L 1702 4058 
z
" transform="scale(0.015625)"/>
       <path id="CMMI12-3a" d="M 1178 307 
C 1178 492 1024 619 870 619 
C 685 619 557 466 557 313 
C 557 128 710 0 864 0 
C 1050 0 1178 153 1178 307 
z
" transform="scale(0.015625)"/>
       <path id="CMR17-30" d="M 2688 2025 
C 2688 2416 2682 3080 2413 3591 
C 2176 4039 1798 4198 1466 4198 
C 1158 4198 768 4058 525 3597 
C 269 3118 243 2524 243 2025 
C 243 1661 250 1106 448 619 
C 723 -39 1216 -128 1466 -128 
C 1760 -128 2208 -7 2470 600 
C 2662 1042 2688 1559 2688 2025 
z
M 1466 -26 
C 1056 -26 813 325 723 812 
C 653 1188 653 1738 653 2096 
C 653 2588 653 2997 736 3387 
C 858 3929 1216 4096 1466 4096 
C 1728 4096 2067 3923 2189 3400 
C 2272 3036 2278 2607 2278 2096 
C 2278 1680 2278 1169 2202 792 
C 2067 95 1690 -26 1466 -26 
z
" transform="scale(0.015625)"/>
      </defs>
      <use xlink:href="#CMSY10-0" transform="scale(0.996264)"/>
      <use xlink:href="#CMR17-31" transform="translate(77.487468 0) scale(0.996264)"/>
      <use xlink:href="#CMMI12-3a" transform="translate(123.177945 0) scale(0.996264)"/>
      <use xlink:href="#CMR17-30" transform="translate(150.275122 0) scale(0.996264)"/>
     </g>
    </g>
   </g>
   <g id="xtick_2">
    <g id="line2d_3">
     <path d="M 48.126646 149.253725 
L 46.630476 150.576125 
" style="fill: none; stroke: #000000; stroke-width: 1.2; stroke-linecap: square"/>
    </g>
    <g id="text_2">
     <!-- $\mathdefault{−0.5}$ -->
     <g transform="translate(29.878529 172.571123) scale(0.1 -0.1)">
      <defs>
       <path id="CMR17-35" d="M 730 3692 
C 794 3666 1056 3584 1325 3584 
C 1920 3584 2246 3911 2432 4100 
C 2432 4157 2432 4192 2394 4192 
C 2387 4192 2374 4192 2323 4163 
C 2099 4058 1837 3973 1517 3973 
C 1325 3973 1037 3999 723 4139 
C 653 4171 640 4171 634 4171 
C 602 4171 595 4164 595 4037 
L 595 2203 
C 595 2089 595 2057 659 2057 
C 691 2057 704 2070 736 2114 
C 941 2401 1222 2522 1542 2522 
C 1766 2522 2246 2382 2246 1289 
C 2246 1085 2246 715 2054 421 
C 1894 159 1645 25 1370 25 
C 947 25 518 320 403 814 
C 429 807 480 795 506 795 
C 589 795 749 840 749 1038 
C 749 1210 627 1280 506 1280 
C 358 1280 262 1190 262 1011 
C 262 454 704 -128 1382 -128 
C 2042 -128 2669 440 2669 1264 
C 2669 2030 2170 2624 1549 2624 
C 1222 2624 947 2503 730 2274 
L 730 3692 
z
" transform="scale(0.015625)"/>
      </defs>
      <use xlink:href="#CMSY10-0" transform="scale(0.996264)"/>
      <use xlink:href="#CMR17-30" transform="translate(77.487468 0) scale(0.996264)"/>
      <use xlink:href="#CMMI12-3a" transform="translate(123.177945 0) scale(0.996264)"/>
      <use xlink:href="#CMR17-35" transform="translate(150.275122 0) scale(0.996264)"/>
     </g>
    </g>
   </g>
   <g id="xtick_3">
    <g id="line2d_4">
     <path d="M 69.5973 156.259111 
L 68.131021 157.612123 
" style="fill: none; stroke: #000000; stroke-width: 1.2; stroke-linecap: square"/>
    </g>
    <g id="text_3">
     <!-- $\mathdefault{0.0}$ -->
     <g transform="translate(55.26939 179.811425) scale(0.1 -0.1)">
      <use xlink:href="#CMR17-30" transform="scale(0.996264)"/>
      <use xlink:href="#CMMI12-3a" transform="translate(45.690477 0) scale(0.996264)"/>
      <use xlink:href="#CMR17-30" transform="translate(72.787654 0) scale(0.996264)"/>
     </g>
    </g>
   </g>
   <g id="xtick_4">
    <g id="line2d_5">
     <path d="M 91.567325 163.42743 
L 90.132743 164.812129 
" style="fill: none; stroke: #000000; stroke-width: 1.2; stroke-linecap: square"/>
    </g>
    <g id="text_4">
     <!-- $\mathdefault{0.5}$ -->
     <g transform="translate(77.289581 187.221223) scale(0.1 -0.1)">
      <use xlink:href="#CMR17-30" transform="scale(0.996264)"/>
      <use xlink:href="#CMMI12-3a" transform="translate(45.690477 0) scale(0.996264)"/>
      <use xlink:href="#CMR17-35" transform="translate(72.787654 0) scale(0.996264)"/>
     </g>
    </g>
   </g>
   <g id="xtick_5">
    <g id="line2d_6">
     <path d="M 114.054348 170.764434 
L 112.653371 172.181946 
" style="fill: none; stroke: #000000; stroke-width: 1.2; stroke-linecap: square"/>
    </g>
    <g id="text_5">
     <!-- $\mathdefault{1.0}$ -->
     <g transform="translate(99.831373 194.806539) scale(0.1 -0.1)">
      <use xlink:href="#CMR17-31" transform="scale(0.996264)"/>
      <use xlink:href="#CMMI12-3a" transform="translate(45.690477 0) scale(0.996264)"/>
      <use xlink:href="#CMR17-30" transform="translate(72.787654 0) scale(0.996264)"/>
     </g>
    </g>
   </g>
   <g id="xtick_6">
    <g id="line2d_7">
     <path d="M 22.99738 141.054617 
L 21.467589 142.341635 
" style="fill: none; stroke: #000000; stroke-width: 0.8; stroke-linecap: square"/>
    </g>
   </g>
   <g id="xtick_7">
    <g id="line2d_8">
     <path d="M 31.298331 143.763029 
L 29.779483 145.061681 
" style="fill: none; stroke: #000000; stroke-width: 0.8; stroke-linecap: square"/>
    </g>
   </g>
   <g id="xtick_8">
    <g id="line2d_9">
     <path d="M 35.476916 145.126406 
L 33.963638 146.430935 
" style="fill: none; stroke: #000000; stroke-width: 0.8; stroke-linecap: square"/>
    </g>
   </g>
   <g id="xtick_9">
    <g id="line2d_10">
     <path d="M 39.674411 146.495953 
L 38.166769 147.806399 
" style="fill: none; stroke: #000000; stroke-width: 0.8; stroke-linecap: square"/>
    </g>
   </g>
   <g id="xtick_10">
    <g id="line2d_11">
     <path d="M 43.890944 147.871712 
L 42.389004 149.188114 
" style="fill: none; stroke: #000000; stroke-width: 0.8; stroke-linecap: square"/>
    </g>
   </g>
   <g id="xtick_11">
    <g id="line2d_12">
     <path d="M 52.381646 150.642035 
L 50.891314 151.970473 
" style="fill: none; stroke: #000000; stroke-width: 0.8; stroke-linecap: square"/>
    </g>
   </g>
   <g id="xtick_12">
    <g id="line2d_13">
     <path d="M 56.656077 152.036684 
L 55.171654 153.371203 
" style="fill: none; stroke: #000000; stroke-width: 0.8; stroke-linecap: square"/>
    </g>
   </g>
   <g id="xtick_13">
    <g id="line2d_14">
     <path d="M 60.950074 153.437718 
L 59.471627 154.778358 
" style="fill: none; stroke: #000000; stroke-width: 0.8; stroke-linecap: square"/>
    </g>
   </g>
   <g id="xtick_14">
    <g id="line2d_15">
     <path d="M 65.263769 154.845178 
L 63.791371 156.191983 
" style="fill: none; stroke: #000000; stroke-width: 0.8; stroke-linecap: square"/>
    </g>
   </g>
   <g id="xtick_15">
    <g id="line2d_16">
     <path d="M 73.950803 157.67956 
L 72.490716 159.038821 
" style="fill: none; stroke: #000000; stroke-width: 0.8; stroke-linecap: square"/>
    </g>
   </g>
   <g id="xtick_16">
    <g id="line2d_17">
     <path d="M 78.324416 159.10657 
L 76.870594 160.472125 
" style="fill: none; stroke: #000000; stroke-width: 0.8; stroke-linecap: square"/>
    </g>
   </g>
   <g id="xtick_17">
    <g id="line2d_18">
     <path d="M 82.71828 160.540188 
L 81.270796 161.91208 
" style="fill: none; stroke: #000000; stroke-width: 0.8; stroke-linecap: square"/>
    </g>
   </g>
   <g id="xtick_18">
    <g id="line2d_19">
     <path d="M 87.132536 161.980459 
L 85.691465 163.358732 
" style="fill: none; stroke: #000000; stroke-width: 0.8; stroke-linecap: square"/>
    </g>
   </g>
   <g id="xtick_19">
    <g id="line2d_20">
     <path d="M 96.022791 164.881148 
L 94.594774 166.272317 
" style="fill: none; stroke: #000000; stroke-width: 0.8; stroke-linecap: square"/>
    </g>
   </g>
   <g id="xtick_20">
    <g id="line2d_21">
     <path d="M 100.49908 166.341659 
L 99.077704 167.739345 
" style="fill: none; stroke: #000000; stroke-width: 0.8; stroke-linecap: square"/>
    </g>
   </g>
   <g id="xtick_21">
    <g id="line2d_22">
     <path d="M 104.996336 167.809011 
L 103.581681 169.213259 
" style="fill: none; stroke: #000000; stroke-width: 0.8; stroke-linecap: square"/>
    </g>
   </g>
   <g id="xtick_22">
    <g id="line2d_23">
     <path d="M 109.514709 169.283254 
L 108.106854 170.69411 
" style="fill: none; stroke: #000000; stroke-width: 0.8; stroke-linecap: square"/>
    </g>
   </g>
   <g id="xtick_23">
    <g id="line2d_24">
     <path d="M 118.615402 172.252602 
L 117.221385 173.676817 
" style="fill: none; stroke: #000000; stroke-width: 0.8; stroke-linecap: square"/>
    </g>
   </g>
   <g id="text_6">
    <!-- $\cos\theta$ -->
    <g transform="translate(42.624665 191.441799) rotate(-341.912962) scale(0.1 -0.1)">
     <defs>
      <path id="CMR17-63" d="M 2234 2240 
C 2112 2240 1933 2240 1933 2017 
C 1933 1838 2080 1787 2163 1787 
C 2208 1787 2394 1807 2394 2024 
C 2394 2467 1958 2803 1466 2803 
C 787 2803 211 2178 211 1363 
C 211 516 813 -64 1466 -64 
C 2259 -64 2458 677 2458 748 
C 2458 774 2451 793 2406 793 
C 2362 793 2355 787 2330 703 
C 2163 180 1798 51 1523 51 
C 1114 51 621 427 621 1369 
C 621 2338 1094 2688 1472 2688 
C 1722 2688 2093 2573 2234 2240 
z
" transform="scale(0.015625)"/>
      <path id="CMR17-6f" d="M 2758 1356 
C 2758 2176 2163 2816 1466 2816 
C 768 2816 173 2176 173 1356 
C 173 551 768 -64 1466 -64 
C 2163 -64 2758 551 2758 1356 
z
M 1466 51 
C 1165 51 909 230 762 480 
C 602 767 582 1126 582 1408 
C 582 1677 595 2010 762 2298 
C 890 2509 1139 2714 1466 2714 
C 1754 2714 1997 2554 2150 2330 
C 2349 2029 2349 1607 2349 1408 
C 2349 1158 2336 775 2163 467 
C 1984 173 1709 51 1466 51 
z
" transform="scale(0.015625)"/>
      <path id="CMR17-73" d="M 1978 2697 
C 1978 2813 1971 2819 1933 2819 
C 1907 2819 1901 2813 1824 2717 
C 1805 2691 1747 2626 1728 2601 
C 1523 2819 1235 2819 1126 2819 
C 416 2819 160 2447 160 2076 
C 160 1498 813 1365 998 1325 
C 1402 1243 1542 1217 1677 1101 
C 1760 1025 1901 884 1901 654 
C 1901 384 1747 38 1158 38 
C 602 38 403 460 288 1021 
C 269 1110 269 1117 218 1117 
C 166 1117 160 1110 160 983 
L 160 63 
C 160 -51 166 -58 205 -58 
C 237 -58 243 -51 275 0 
C 314 57 410 211 448 276 
C 576 103 800 -64 1158 -64 
C 1792 -64 2131 283 2131 784 
C 2131 1112 1958 1285 1875 1362 
C 1683 1561 1459 1606 1190 1657 
C 838 1735 390 1825 390 2217 
C 390 2383 480 2737 1126 2737 
C 1811 2737 1850 2094 1862 1888 
C 1869 1856 1901 1849 1920 1849 
C 1978 1849 1978 1869 1978 1978 
L 1978 2697 
z
" transform="scale(0.015625)"/>
      <path id="CMMI12-12" d="M 2835 3200 
C 2835 3850 2630 4480 2106 4480 
C 1210 4480 256 2615 256 1216 
C 256 923 320 -64 992 -64 
C 1862 -64 2835 1756 2835 3200 
z
M 896 2304 
C 992 2679 1126 3214 1382 3665 
C 1594 4047 1818 4352 2099 4352 
C 2310 4352 2451 4174 2451 3564 
C 2451 3334 2432 3017 2246 2304 
L 896 2304 
z
M 2202 2113 
C 2042 1490 1907 1088 1677 687 
C 1491 363 1267 64 998 64 
C 800 64 640 217 640 846 
C 640 1260 742 1693 845 2113 
L 2202 2113 
z
" transform="scale(0.015625)"/>
     </defs>
     <use xlink:href="#CMR17-63" transform="scale(0.996264)"/>
     <use xlink:href="#CMR17-6f" transform="translate(40.48566 0) scale(0.996264)"/>
     <use xlink:href="#CMR17-73" transform="translate(86.176138 0) scale(0.996264)"/>
     <use xlink:href="#CMMI12-12" transform="translate(138.58188 0) scale(0.996264)"/>
    </g>
   </g>
  </g>
  <g id="axis3d_2">
   <g id="line2d_25">
    <path d="M 173.190934 119.081844 
L 120.250179 173.412082 
" style="fill: none; stroke: #000000; stroke-width: 0.8; stroke-linecap: square"/>
   </g>
   <g id="xtick_24">
    <g id="line2d_26">
     <path d="M 123.076629 169.381736 
L 125.588716 170.195779 
" style="fill: none; stroke: #000000; stroke-width: 1.2; stroke-linecap: square"/>
    </g>
    <g id="text_7">
     <!-- $S_0$ -->
     <g transform="translate(131.757626 189.998661) scale(0.1 -0.1)">
      <defs>
       <path id="CMMI12-53" d="M 4064 4423 
C 4064 4480 4019 4480 4006 4480 
C 3981 4480 3974 4474 3898 4378 
C 3859 4333 3597 4001 3590 3995 
C 3379 4410 2957 4480 2688 4480 
C 1875 4480 1139 3743 1139 3025 
C 1139 2549 1427 2269 1741 2161 
C 1811 2135 2189 2033 2381 1989 
C 2707 1900 2790 1875 2925 1735 
C 2950 1703 3078 1557 3078 1258 
C 3078 667 2528 57 1888 57 
C 1363 57 781 280 781 991 
C 781 1112 806 1265 826 1328 
C 826 1348 832 1378 832 1391 
C 832 1417 819 1449 768 1449 
C 710 1449 704 1436 678 1328 
L 352 24 
C 352 18 326 -64 326 -71 
C 326 -128 378 -128 390 -128 
C 416 -128 422 -122 499 -26 
L 794 356 
C 947 126 1280 -128 1875 -128 
C 2701 -128 3456 666 3456 1460 
C 3456 1728 3392 1963 3149 2197 
C 3014 2331 2899 2363 2310 2516 
C 1882 2630 1824 2649 1709 2751 
C 1600 2858 1517 3011 1517 3227 
C 1517 3761 2061 4308 2669 4308 
C 3296 4308 3590 3926 3590 3323 
C 3590 3158 3558 2986 3558 2961 
C 3558 2903 3610 2903 3629 2903 
C 3686 2903 3693 2922 3718 3024 
L 4064 4423 
z
" transform="scale(0.015625)"/>
      </defs>
      <use xlink:href="#CMMI12-53" transform="scale(0.996264)"/>
      <use xlink:href="#CMR17-30" transform="translate(59.994488 -14.943915) scale(0.697382)"/>
     </g>
    </g>
   </g>
   <g id="xtick_25">
    <g id="line2d_27">
     <path d="M 139.298522 152.763904 
L 141.764636 153.53551 
" style="fill: none; stroke: #000000; stroke-width: 1.2; stroke-linecap: square"/>
    </g>
    <g id="text_8">
     <!-- $D_0$ -->
     <g transform="translate(146.568251 172.997252) scale(0.1 -0.1)">
      <defs>
       <path id="CMMI12-44" d="M 1005 472 
C 947 249 934 185 486 185 
C 365 185 301 185 301 70 
C 301 0 339 0 467 0 
L 2496 0 
C 3789 0 5050 1332 5050 2753 
C 5050 3671 4499 4352 3584 4352 
L 1530 4352 
C 1408 4352 1350 4352 1350 4231 
C 1350 4167 1408 4167 1504 4167 
C 1894 4167 1894 4116 1894 4046 
C 1894 4034 1894 3995 1869 3899 
L 1005 472 
z
M 2355 3931 
C 2413 4167 2438 4167 2688 4167 
L 3392 4167 
C 3994 4167 4544 3842 4544 2963 
C 4544 2644 4416 1536 3795 835 
C 3616 625 3130 185 2394 185 
L 1664 185 
C 1574 185 1562 185 1523 192 
C 1453 198 1446 211 1446 262 
C 1446 307 1459 345 1472 402 
L 2355 3931 
z
" transform="scale(0.015625)"/>
      </defs>
      <use xlink:href="#CMMI12-44" transform="scale(0.996264)"/>
      <use xlink:href="#CMR17-30" transform="translate(80.99423 -14.943915) scale(0.697382)"/>
     </g>
    </g>
   </g>
   <g id="xtick_26">
    <g id="line2d_28">
     <path d="M 154.686019 137.000834 
L 157.107504 137.733238 
" style="fill: none; stroke: #000000; stroke-width: 1.2; stroke-linecap: square"/>
    </g>
    <g id="text_9">
     <!-- $D_1$ -->
     <g transform="translate(161.630622 156.871439) scale(0.1 -0.1)">
      <use xlink:href="#CMMI12-44" transform="scale(0.996264)"/>
      <use xlink:href="#CMR17-31" transform="translate(80.99423 -14.943915) scale(0.697382)"/>
     </g>
    </g>
   </g>
   <g id="xtick_27">
    <g id="line2d_29">
     <path d="M 169.301883 122.02823 
L 171.680057 122.724346 
" style="fill: none; stroke: #000000; stroke-width: 1.2; stroke-linecap: square"/>
    </g>
    <g id="text_10">
     <!-- $D_2$ -->
     <g transform="translate(175.936735 141.555277) scale(0.1 -0.1)">
      <defs>
       <path id="CMR17-32" d="M 2669 989 
L 2554 989 
C 2490 536 2438 459 2413 420 
C 2381 369 1920 369 1830 369 
L 602 369 
C 832 619 1280 1072 1824 1597 
C 2214 1967 2669 2402 2669 3035 
C 2669 3790 2067 4224 1395 4224 
C 691 4224 262 3604 262 3030 
C 262 2780 448 2748 525 2748 
C 589 2748 781 2787 781 3010 
C 781 3207 614 3264 525 3264 
C 486 3264 448 3258 422 3245 
C 544 3790 915 4058 1306 4058 
C 1862 4058 2227 3617 2227 3035 
C 2227 2479 1901 2000 1536 1584 
L 262 146 
L 262 0 
L 2515 0 
L 2669 989 
z
" transform="scale(0.015625)"/>
      </defs>
      <use xlink:href="#CMMI12-44" transform="scale(0.996264)"/>
      <use xlink:href="#CMR17-32" transform="translate(80.99423 -14.943915) scale(0.697382)"/>
     </g>
    </g>
   </g>
   <g id="xtick_28">
    <g id="line2d_30">
     <path d="M 119.726117 172.814026 
L 122.247562 173.636975 
" style="fill: none; stroke: #000000; stroke-width: 0.8; stroke-linecap: square"/>
    </g>
   </g>
   <g id="xtick_29">
    <g id="line2d_31">
     <path d="M 126.390999 165.986469 
L 128.893783 166.791749 
" style="fill: none; stroke: #000000; stroke-width: 0.8; stroke-linecap: square"/>
    </g>
   </g>
   <g id="xtick_30">
    <g id="line2d_32">
     <path d="M 129.669811 162.62763 
L 132.163346 163.424287 
" style="fill: none; stroke: #000000; stroke-width: 0.8; stroke-linecap: square"/>
    </g>
   </g>
   <g id="xtick_31">
    <g id="line2d_33">
     <path d="M 132.913632 159.304634 
L 135.397973 160.092808 
" style="fill: none; stroke: #000000; stroke-width: 0.8; stroke-linecap: square"/>
    </g>
   </g>
   <g id="xtick_32">
    <g id="line2d_34">
     <path d="M 136.123021 156.016912 
L 138.598221 156.796736 
" style="fill: none; stroke: #000000; stroke-width: 0.8; stroke-linecap: square"/>
    </g>
   </g>
   <g id="xtick_33">
    <g id="line2d_35">
     <path d="M 142.44067 149.545063 
L 144.897752 150.308582 
" style="fill: none; stroke: #000000; stroke-width: 0.8; stroke-linecap: square"/>
    </g>
   </g>
   <g id="xtick_34">
    <g id="line2d_36">
     <path d="M 145.549987 146.359855 
L 147.998089 147.115412 
" style="fill: none; stroke: #000000; stroke-width: 0.8; stroke-linecap: square"/>
    </g>
   </g>
   <g id="xtick_35">
    <g id="line2d_37">
     <path d="M 148.626985 143.207755 
L 151.066162 143.955473 
" style="fill: none; stroke: #000000; stroke-width: 0.8; stroke-linecap: square"/>
    </g>
   </g>
   <g id="xtick_36">
    <g id="line2d_38">
     <path d="M 151.672166 140.088248 
L 154.10247 140.828251 
" style="fill: none; stroke: #000000; stroke-width: 0.8; stroke-linecap: square"/>
    </g>
   </g>
   <g id="xtick_37">
    <g id="line2d_39">
     <path d="M 157.669027 133.945017 
L 160.081746 134.66994 
" style="fill: none; stroke: #000000; stroke-width: 0.8; stroke-linecap: square"/>
    </g>
   </g>
   <g id="xtick_38">
    <g id="line2d_40">
     <path d="M 160.621661 130.920317 
L 163.025665 131.637873 
" style="fill: none; stroke: #000000; stroke-width: 0.8; stroke-linecap: square"/>
    </g>
   </g>
   <g id="xtick_39">
    <g id="line2d_41">
     <path d="M 163.544381 127.92626 
L 165.939723 128.63656 
" style="fill: none; stroke: #000000; stroke-width: 0.8; stroke-linecap: square"/>
    </g>
   </g>
   <g id="xtick_40">
    <g id="line2d_42">
     <path d="M 166.437641 124.962382 
L 168.824373 125.665537 
" style="fill: none; stroke: #000000; stroke-width: 0.8; stroke-linecap: square"/>
    </g>
   </g>
   <g id="xtick_41">
    <g id="line2d_43">
     <path d="M 172.137542 119.123359 
L 174.507209 119.812542 
" style="fill: none; stroke: #000000; stroke-width: 0.8; stroke-linecap: square"/>
    </g>
   </g>
  </g>
  <g id="axis3d_3">
   <g id="line2d_44">
    <path d="M 173.190934 119.081844 
L 176.545801 45.820114 
" style="fill: none; stroke: #000000; stroke-width: 0.8; stroke-linecap: square"/>
   </g>
   <g id="xtick_42">
    <g id="line2d_45">
     <path d="M 172.465508 117.449259 
L 174.836491 118.136718 
" style="fill: none; stroke: #000000; stroke-width: 1.2; stroke-linecap: square"/>
    </g>
    <g id="text_11">
     <!-- $\mathdefault{0.0}$ -->
     <g transform="translate(185.126773 121.999717) scale(0.1 -0.1)">
      <use xlink:href="#CMR17-30" transform="scale(0.996264)"/>
      <use xlink:href="#CMMI12-3a" transform="translate(45.690477 0) scale(0.996264)"/>
      <use xlink:href="#CMR17-30" transform="translate(72.787654 0) scale(0.996264)"/>
     </g>
    </g>
   </g>
   <g id="xtick_43">
    <g id="line2d_46">
     <path d="M 173.081407 103.854492 
L 175.472842 104.531352 
" style="fill: none; stroke: #000000; stroke-width: 1.2; stroke-linecap: square"/>
    </g>
    <g id="text_12">
     <!-- $\mathdefault{0.5}$ -->
     <g transform="translate(185.897477 108.441562) scale(0.1 -0.1)">
      <use xlink:href="#CMR17-30" transform="scale(0.996264)"/>
      <use xlink:href="#CMMI12-3a" transform="translate(45.690477 0) scale(0.996264)"/>
      <use xlink:href="#CMR17-35" transform="translate(72.787654 0) scale(0.996264)"/>
     </g>
    </g>
   </g>
   <g id="xtick_44">
    <g id="line2d_47">
     <path d="M 173.707621 90.032038 
L 176.119864 90.697845 
" style="fill: none; stroke: #000000; stroke-width: 1.2; stroke-linecap: square"/>
    </g>
    <g id="text_13">
     <!-- $\mathdefault{1.0}$ -->
     <g transform="translate(186.681036 94.65728) scale(0.1 -0.1)">
      <use xlink:href="#CMR17-31" transform="scale(0.996264)"/>
      <use xlink:href="#CMMI12-3a" transform="translate(45.690477 0) scale(0.996264)"/>
      <use xlink:href="#CMR17-30" transform="translate(72.787654 0) scale(0.996264)"/>
     </g>
    </g>
   </g>
   <g id="xtick_45">
    <g id="line2d_48">
     <path d="M 174.344411 75.976128 
L 176.777828 76.630411 
" style="fill: none; stroke: #000000; stroke-width: 1.2; stroke-linecap: square"/>
    </g>
    <g id="text_14">
     <!-- $\mathdefault{1.5}$ -->
     <g transform="translate(187.477772 80.641166) scale(0.1 -0.1)">
      <use xlink:href="#CMR17-31" transform="scale(0.996264)"/>
      <use xlink:href="#CMMI12-3a" transform="translate(45.690477 0) scale(0.996264)"/>
      <use xlink:href="#CMR17-35" transform="translate(72.787654 0) scale(0.996264)"/>
     </g>
    </g>
   </g>
   <g id="xtick_46">
    <g id="line2d_49">
     <path d="M 174.992048 61.680798 
L 177.447012 62.323066 
" style="fill: none; stroke: #000000; stroke-width: 1.2; stroke-linecap: square"/>
    </g>
    <g id="text_15">
     <!-- $\mathdefault{2.0}$ -->
     <g transform="translate(188.288023 66.387321) scale(0.1 -0.1)">
      <use xlink:href="#CMR17-32" transform="scale(0.996264)"/>
      <use xlink:href="#CMMI12-3a" transform="translate(45.690477 0) scale(0.996264)"/>
      <use xlink:href="#CMR17-30" transform="translate(72.787654 0) scale(0.996264)"/>
     </g>
    </g>
   </g>
   <g id="xtick_47">
    <g id="line2d_50">
     <path d="M 175.650812 47.139877 
L 178.127707 47.769618 
" style="fill: none; stroke: #000000; stroke-width: 1.2; stroke-linecap: square"/>
    </g>
    <g id="text_16">
     <!-- $\mathdefault{2.5}$ -->
     <g transform="translate(189.112133 51.889645) scale(0.1 -0.1)">
      <use xlink:href="#CMR17-32" transform="scale(0.996264)"/>
      <use xlink:href="#CMMI12-3a" transform="translate(45.690477 0) scale(0.996264)"/>
      <use xlink:href="#CMR17-35" transform="translate(72.787654 0) scale(0.996264)"/>
     </g>
    </g>
   </g>
   <g id="text_17">
    <!-- $|Y_\ell^m|^2$ -->
    <g transform="translate(217.141726 90.50567) rotate(-87.378092) scale(0.1 -0.1)">
     <defs>
      <path id="CMSY10-6a" d="M 1018 4570 
C 1018 4685 1018 4800 890 4800 
C 762 4800 762 4685 762 4570 
L 762 -1370 
C 762 -1485 762 -1600 890 -1600 
C 1018 -1600 1018 -1485 1018 -1370 
L 1018 4570 
z
" transform="scale(0.015625)"/>
      <path id="CMMI12-59" d="M 3763 3645 
L 3910 3791 
C 4192 4078 4429 4149 4653 4167 
C 4723 4173 4781 4179 4781 4288 
C 4781 4352 4717 4352 4704 4352 
C 4627 4352 4544 4352 4467 4352 
L 4205 4352 
C 4019 4352 3821 4352 3642 4352 
C 3597 4352 3526 4352 3526 4226 
C 3526 4166 3590 4160 3610 4160 
C 3802 4160 3802 4064 3802 4026 
C 3802 3956 3750 3860 3622 3713 
L 2099 1969 
L 1376 3911 
C 1338 4000 1338 4013 1338 4026 
C 1338 4160 1600 4160 1677 4160 
C 1754 4160 1824 4160 1824 4279 
C 1824 4352 1766 4352 1728 4352 
C 1619 4352 1491 4352 1382 4352 
L 672 4352 
C 557 4352 435 4352 326 4352 
C 282 4352 211 4352 211 4226 
C 211 4160 269 4160 365 4160 
C 678 4160 736 4102 794 3956 
L 1587 1835 
C 1594 1816 1613 1745 1613 1726 
C 1613 1707 1299 452 1280 388 
C 1229 217 1165 185 755 185 
C 646 185 595 185 595 64 
C 595 0 666 0 685 0 
C 800 0 934 0 1056 0 
L 1811 0 
C 1926 0 2061 0 2176 0 
C 2221 0 2298 0 2298 115 
C 2298 185 2253 185 2144 185 
C 1747 185 1747 230 1747 300 
C 1747 345 1798 548 1830 676 
L 2061 1594 
C 2099 1727 2099 1739 2157 1803 
L 3763 3645 
z
" transform="scale(0.015625)"/>
      <path id="CMMI12-6d" d="M 1318 1871 
C 1331 1910 1491 2229 1728 2433 
C 1894 2586 2112 2689 2362 2689 
C 2618 2689 2707 2497 2707 2242 
C 2707 2203 2707 2076 2630 1775 
L 2470 1118 
C 2419 926 2298 453 2285 383 
C 2259 287 2221 121 2221 96 
C 2221 6 2291 -64 2387 -64 
C 2579 -64 2611 83 2669 313 
L 3053 1839 
C 3066 1890 3398 2689 4102 2689 
C 4358 2689 4448 2497 4448 2242 
C 4448 1884 4198 1188 4058 805 
C 4000 651 3968 568 3968 453 
C 3968 166 4166 -64 4474 -64 
C 5069 -64 5293 875 5293 913 
C 5293 945 5267 971 5229 971 
C 5171 971 5165 952 5133 843 
C 4986 332 4749 64 4493 64 
C 4429 64 4326 64 4326 269 
C 4326 436 4403 640 4429 710 
C 4544 1018 4832 1773 4832 2145 
C 4832 2528 4608 2816 4122 2816 
C 3693 2816 3347 2574 3091 2197 
C 3072 2542 2861 2816 2381 2816 
C 1811 2816 1510 2415 1395 2255 
C 1376 2618 1114 2816 832 2816 
C 646 2816 499 2727 378 2484 
C 262 2254 173 1865 173 1839 
C 173 1814 198 1782 243 1782 
C 294 1782 301 1788 339 1935 
C 435 2312 557 2689 813 2689 
C 960 2689 1011 2586 1011 2395 
C 1011 2254 947 2005 902 1807 
L 723 1118 
C 698 996 627 709 595 594 
C 550 428 480 128 480 96 
C 480 6 550 -64 646 -64 
C 723 -64 813 -26 864 70 
C 877 102 934 326 966 453 
L 1107 1028 
L 1318 1871 
z
" transform="scale(0.015625)"/>
      <path id="CMMI12-60" d="M 589 1088 
C 186 692 83 597 83 572 
C 83 546 109 501 154 501 
C 186 501 550 851 602 909 
C 640 482 800 -73 1299 -73 
C 1555 -73 1786 86 1888 163 
C 1971 227 2278 488 2278 546 
C 2278 578 2246 616 2214 616 
C 2189 616 2093 520 2067 495 
C 1843 278 1562 55 1306 55 
C 960 55 915 552 915 897 
C 915 960 915 1228 960 1279 
C 1338 1667 2522 2886 2522 4014 
C 2522 4269 2426 4492 2150 4492 
C 1555 4492 1037 3178 947 2936 
C 922 2873 550 1891 589 1088 
z
M 973 1471 
C 979 1509 1267 3186 1805 4082 
C 1914 4255 2022 4364 2150 4364 
C 2368 4364 2381 4159 2381 4018 
C 2381 3794 2317 3218 1760 2412 
C 1594 2175 1338 1855 973 1471 
z
" transform="scale(0.015625)"/>
     </defs>
     <use xlink:href="#CMSY10-6a" transform="scale(0.996264)"/>
     <use xlink:href="#CMMI12-59" transform="translate(27.674085 0) scale(0.996264)"/>
     <use xlink:href="#CMMI12-6d" transform="translate(105.950434 36.153639) scale(0.697382)"/>
     <use xlink:href="#CMMI12-60" transform="translate(84.272692 -28.21539) scale(0.697382)"/>
     <use xlink:href="#CMSY10-6a" transform="translate(166.177357 0) scale(0.996264)"/>
     <use xlink:href="#CMR17-32" transform="translate(193.851441 36.153639) scale(0.697382)"/>
    </g>
   </g>
  </g>
  <g id="axes_1">
   <g id="line2d_51">
    <path d="M 30.004656 124.089334 
L 30.848607 124.355912 
L 31.69333 124.622734 
L 32.538823 124.889799 
L 33.38509 125.157108 
L 34.23213 125.424662 
L 35.079945 125.69246 
L 35.928536 125.960504 
L 36.777903 126.228793 
L 37.628049 126.497327 
L 38.478973 126.766108 
L 39.330678 127.035135 
L 40.183164 127.304408 
L 41.036432 127.573929 
L 41.890483 127.843697 
L 42.745319 128.113713 
L 43.60094 128.383978 
L 44.457348 128.65449 
L 45.314543 128.925251 
L 46.172527 129.196262 
L 47.031301 129.467522 
L 47.890866 129.739032 
L 48.751223 130.010792 
L 49.612373 130.282802 
L 50.474317 130.555063 
L 51.337056 130.827576 
L 52.200592 131.10034 
L 53.064925 131.373356 
L 53.930057 131.646624 
L 54.795989 131.920145 
L 55.662721 132.193919 
L 56.530255 132.467946 
L 57.398593 132.742227 
L 58.267734 133.016761 
L 59.137681 133.291551 
L 60.008434 133.566594 
L 60.879995 133.841893 
L 61.752364 134.117448 
L 62.625543 134.393258 
L 63.499533 134.669324 
L 64.374335 134.945647 
L 65.24995 135.222226 
L 66.12638 135.499063 
L 67.003625 135.776157 
L 67.881686 136.05351 
L 68.760565 136.33112 
L 69.640263 136.608989 
L 70.520781 136.887118 
L 71.40212 137.165505 
L 72.284282 137.444153 
L 73.167266 137.72306 
L 74.051076 138.002228 
L 74.935711 138.281657 
L 75.821173 138.561347 
L 76.707463 138.841298 
L 77.594582 139.121511 
L 78.482532 139.401987 
L 79.371314 139.682726 
L 80.260928 139.963727 
L 81.151376 140.244992 
L 82.042659 140.52652 
L 82.934778 140.808313 
L 83.827735 141.09037 
L 84.72153 141.372692 
L 85.616165 141.65528 
L 86.511641 141.938133 
L 87.407959 142.221252 
L 88.305121 142.504637 
L 89.203127 142.788289 
L 90.101979 143.072209 
L 91.001677 143.356396 
L 91.902224 143.64085 
L 92.80362 143.925573 
L 93.705867 144.210565 
L 94.608965 144.495826 
L 95.512917 144.781356 
L 96.417722 145.067156 
L 97.323383 145.353226 
L 98.229901 145.639566 
L 99.137276 145.926178 
L 100.04551 146.213061 
L 100.954604 146.500216 
L 101.86456 146.787642 
L 102.775379 147.075342 
L 103.687061 147.363314 
L 104.599609 147.651559 
L 105.513023 147.940078 
L 106.427304 148.228871 
L 107.342455 148.517939 
L 108.258475 148.807281 
L 109.175367 149.096899 
L 110.093131 149.386792 
L 111.011769 149.676961 
L 111.931282 149.967407 
L 112.851672 150.258129 
L 113.772939 150.549129 
L 114.695085 150.840406 
L 115.618111 151.131961 
L 116.542018 151.423794 
L 117.466808 151.715907 
" clip-path="url(#pb933f3996c)" style="fill: none; stroke: #377eb8; stroke-width: 0.5; stroke-linecap: square"/>
   </g>
   <g id="line2d_52">
    <path d="M 46.235899 52.157715 
L 47.351747 60.946759 
L 48.4374 68.978187 
L 49.495439 76.302079 
L 50.528245 82.964902 
L 51.538017 89.009887 
L 52.52679 94.477358 
L 53.496448 99.405032 
L 54.448739 103.828267 
L 55.385287 107.7803 
L 56.3076 111.292442 
L 57.217082 114.394263 
L 58.115039 117.113743 
L 59.002686 119.477423 
L 59.881156 121.510518 
L 60.751503 123.237036 
L 61.61471 124.679873 
L 62.47169 125.860896 
L 63.323293 126.801023 
L 64.170307 127.520286 
L 65.013466 128.037891 
L 65.853447 128.372269 
L 66.690877 128.541116 
L 67.526335 128.561436 
L 68.360352 128.449567 
L 69.193414 128.221213 
L 70.025967 127.89146 
L 70.858414 127.474799 
L 71.691119 126.985138 
L 72.524411 126.435811 
L 73.358579 125.839589 
L 74.19388 125.208679 
L 75.030539 124.554733 
L 75.868745 123.888844 
L 76.708662 123.221544 
L 77.55042 122.562803 
L 78.394124 121.922024 
L 79.239852 121.308034 
L 80.087658 120.729081 
L 80.93757 120.192827 
L 81.789597 119.706337 
L 82.643724 119.276076 
L 83.499918 118.907896 
L 84.35813 118.607031 
L 85.218291 118.378091 
L 86.080321 118.225053 
L 86.944125 118.151254 
L 87.809597 118.159388 
L 88.67662 118.251498 
L 89.54507 118.428976 
L 90.414817 118.692556 
L 91.285726 119.042313 
L 92.157658 119.477666 
L 93.030473 119.997371 
L 93.904034 120.599528 
L 94.778202 121.281578 
L 95.652845 122.040312 
L 96.527838 122.871868 
L 97.403059 123.77174 
L 98.278401 124.734781 
L 99.153764 125.75521 
L 100.029063 126.826617 
L 100.904226 127.941969 
L 101.779198 129.093618 
L 102.653943 130.273304 
L 103.528443 131.472163 
L 104.402703 132.680733 
L 105.276749 133.888955 
L 106.150634 135.08618 
L 107.024435 136.261168 
L 107.898259 137.40209 
L 108.772241 138.496525 
L 109.646549 139.531458 
L 110.521383 140.493273 
L 111.396979 141.367744 
L 112.273608 142.140019 
L 113.151582 142.794611 
L 114.031253 143.315371 
L 114.913016 143.685466 
L 115.797311 143.88735 
L 116.684627 143.902726 
L 117.575502 143.712507 
L 118.470528 143.296766 
L 119.370355 142.634678 
L 120.275691 141.704458 
L 121.18731 140.483288 
L 122.106053 138.947226 
L 123.032835 137.071118 
L 123.968648 134.828482 
L 124.91457 132.191386 
L 125.871768 129.130308 
L 126.84151 125.613978 
L 127.825167 121.609192 
L 128.82423 117.080617 
L 129.840314 111.990549 
L 130.875174 106.298659 
L 131.930717 99.961691 
L 133.00902 92.933124 
L 134.112344 85.162785 
L 135.243157 76.596406 
" clip-path="url(#pb933f3996c)" style="fill: none; stroke: #e41a1c; stroke-width: 0.5; stroke-linecap: square"/>
   </g>
   <g id="line2d_53">
    <path d="M 65.337942 108.595711 
L 66.073448 104.986439 
L 66.820526 101.749876 
L 67.578369 98.871715 
L 68.346192 96.337281 
L 69.12323 94.13161 
L 69.908745 92.239512 
L 70.702023 90.645642 
L 71.502379 89.334562 
L 72.309156 88.2908 
L 73.121729 87.498908 
L 73.939502 86.943511 
L 74.761911 86.609358 
L 75.588423 86.481368 
L 76.418538 86.544664 
L 77.251788 86.784618 
L 78.087736 87.186879 
L 78.925977 87.737405 
L 79.766138 88.422487 
L 80.607876 89.228775 
L 81.450877 90.143296 
L 82.294859 91.153471 
L 83.139566 92.247131 
L 83.984771 93.412525 
L 84.830274 94.638333 
L 85.6759 95.913674 
L 86.5215 97.228106 
L 87.366949 98.571635 
L 88.212142 99.934715 
L 89.056999 101.308249 
L 89.90146 102.683587 
L 90.745482 104.052528 
L 91.589045 105.407311 
L 92.432142 106.740622 
L 93.274785 108.04558 
L 94.117 109.315738 
L 94.958827 110.54508 
L 95.80032 111.72801 
L 96.641545 112.859356 
L 97.482577 113.934356 
L 98.323504 114.94866 
L 99.16442 115.898323 
L 100.005429 116.779799 
L 100.846642 117.58994 
L 101.688173 118.325991 
L 102.530144 118.985585 
L 103.372681 119.566743 
L 104.215911 120.06787 
L 105.059963 120.487755 
L 105.90497 120.825565 
L 106.751062 121.08085 
L 107.59837 121.253541 
L 108.447021 121.343948 
L 109.297141 121.352764 
L 110.148851 121.281067 
L 111.002268 121.130318 
L 111.857502 120.902369 
L 112.714657 120.599465 
L 113.573828 120.224244 
L 114.435101 119.779747 
L 115.298553 119.26942 
L 116.164246 118.69712 
L 117.032234 118.067118 
L 117.902555 117.38411 
L 118.77523 116.653218 
L 119.650267 115.88 
L 120.527654 115.070453 
L 121.407363 114.231022 
L 122.289343 113.368605 
L 123.173523 112.490558 
L 124.059808 111.604702 
L 124.948081 110.719324 
L 125.838197 109.843188 
L 126.729986 108.98553 
L 127.623248 108.156066 
L 128.517756 107.364992 
L 129.413249 106.62298 
L 130.309436 105.94118 
L 131.20599 105.331213 
L 132.102553 104.805168 
L 132.998728 104.375591 
L 133.894082 104.055474 
L 134.788144 103.858245 
L 135.680404 103.797745 
L 136.570312 103.888216 
L 137.457279 104.14427 
L 138.340675 104.580869 
L 139.219829 105.213287 
L 140.094027 106.057083 
L 140.962517 107.128056 
L 141.824505 108.442203 
L 142.679158 110.015674 
L 143.525603 111.864716 
L 144.36293 114.005618 
L 145.190193 116.454649 
L 146.006411 119.227995 
L 146.81057 122.341685 
L 147.60163 125.81152 
L 148.378519 129.652994 
L 149.140147 133.881214 
" clip-path="url(#pb933f3996c)" style="fill: none; stroke: #4daf4a; stroke-width: 0.5; stroke-linecap: square"/>
   </g>
   <g id="line2d_54">
    <path d="M 81.463033 94.953778 
L 82.260769 95.147412 
L 83.058519 95.265566 
L 83.856432 95.312878 
L 84.654649 95.293876 
L 85.453303 95.212984 
L 86.252514 95.074526 
L 87.052397 94.882724 
L 87.853058 94.641705 
L 88.654592 94.355504 
L 89.457088 94.028061 
L 90.260628 93.663226 
L 91.065283 93.264761 
L 91.871119 92.83634 
L 92.678195 92.381548 
L 93.486561 91.903887 
L 94.296261 91.40677 
L 95.107333 90.893526 
L 95.919807 90.3674 
L 96.733707 89.83155 
L 97.549052 89.28905 
L 98.365854 88.742887 
L 99.184118 88.195964 
L 100.003847 87.651095 
L 100.825034 87.11101 
L 101.647671 86.57835 
L 102.471742 86.055666 
L 103.297228 85.545423 
L 104.124104 85.049993 
L 104.952342 84.571658 
L 105.781909 84.112608 
L 106.612768 83.67494 
L 107.44488 83.260656 
L 108.278199 82.871665 
L 109.112679 82.509776 
L 109.94827 82.176704 
L 110.784918 81.874064 
L 111.622569 81.603372 
L 112.461164 81.366043 
L 113.300644 81.163391 
L 114.140948 80.996628 
L 114.982011 80.866862 
L 115.82377 80.775097 
L 116.666159 80.722232 
L 117.509113 80.709059 
L 118.352565 80.736267 
L 119.196448 80.804433 
L 120.040696 80.914031 
L 120.885242 81.065425 
L 121.730021 81.258869 
L 122.574968 81.494509 
L 123.42002 81.772385 
L 124.265114 82.092423 
L 125.110191 82.454442 
L 125.955192 82.858151 
L 126.800062 83.303151 
L 127.644746 83.788932 
L 128.489195 84.314876 
L 129.333362 84.880255 
L 130.177201 85.484235 
L 131.020675 86.125873 
L 131.863745 86.804118 
L 132.70638 87.517812 
L 133.548552 88.265692 
L 134.39024 89.046388 
L 135.231425 89.858427 
L 136.072094 90.70023 
L 136.912241 91.570116 
L 137.751865 92.4663 
L 138.590971 93.386897 
L 139.42957 94.329919 
L 140.26768 95.29328 
L 141.105327 96.274794 
L 141.94254 97.272175 
L 142.779361 98.283041 
L 143.615835 99.304914 
L 144.452018 100.335216 
L 145.287971 101.371276 
L 146.123765 102.410329 
L 146.959481 103.449513 
L 147.795206 104.485872 
L 148.631038 105.516357 
L 149.467083 106.537826 
L 150.303458 107.547041 
L 151.140289 108.540672 
L 151.977713 109.515294 
L 152.815876 110.467389 
L 153.654935 111.393343 
L 154.49506 112.289444 
L 155.33643 113.151888 
L 156.179237 113.976769 
L 157.023684 114.760083 
L 157.869987 115.497724 
L 158.718374 116.185484 
L 159.569088 116.819048 
L 160.422384 117.393994 
L 161.27853 117.905788 
L 162.137811 118.349781 
L 163.000525 118.721206 
L 163.866986 119.015175 
" clip-path="url(#pb933f3996c)" style="fill: none; stroke: #984ea3; stroke-width: 0.5; stroke-linecap: square"/>
   </g>
   <g id="Poly3DCollection_1">
    <defs>
     <path id="mb5b8769003" d="M 81.463033 -108.98994 
L 82.260769 -108.796306 
L 83.058519 -108.678152 
L 83.856432 -108.63084 
L 84.654649 -108.649842 
L 85.453303 -108.730733 
L 86.252514 -108.869192 
L 87.052397 -109.060994 
L 87.853058 -109.302012 
L 88.654592 -109.588213 
L 89.457088 -109.915657 
L 90.260628 -110.280492 
L 91.065283 -110.678956 
L 91.871119 -111.107378 
L 92.678195 -111.562169 
L 93.486561 -112.039831 
L 94.296261 -112.536948 
L 95.107333 -113.050191 
L 95.919807 -113.576317 
L 96.733707 -114.112167 
L 97.549052 -114.654667 
L 98.365854 -115.20083 
L 99.184118 -115.747754 
L 100.003847 -116.292622 
L 100.825034 -116.832707 
L 101.647671 -117.365368 
L 102.471742 -117.888051 
L 103.297228 -118.398295 
L 104.124104 -118.893725 
L 104.952342 -119.37206 
L 105.781909 -119.83111 
L 106.612768 -120.268778 
L 107.44488 -120.683061 
L 108.278199 -121.072053 
L 109.112679 -121.433941 
L 109.94827 -121.767013 
L 110.784918 -122.069653 
L 111.622569 -122.340346 
L 112.461164 -122.577674 
L 113.300644 -122.780326 
L 114.140948 -122.947089 
L 114.982011 -123.076855 
L 115.82377 -123.16862 
L 116.666159 -123.221486 
L 117.509113 -123.234658 
L 118.352565 -123.207451 
L 119.196448 -123.139284 
L 120.040696 -123.029686 
L 120.885242 -122.878293 
L 121.730021 -122.684849 
L 122.574968 -122.449208 
L 123.42002 -122.171333 
L 124.265114 -121.851295 
L 125.110191 -121.489276 
L 125.955192 -121.085566 
L 126.800062 -120.640567 
L 127.644746 -120.154786 
L 128.489195 -119.628842 
L 129.333362 -119.063462 
L 130.177201 -118.459482 
L 131.020675 -117.817844 
L 131.863745 -117.1396 
L 132.70638 -116.425906 
L 133.548552 -115.678026 
L 134.39024 -114.897329 
L 135.231425 -114.08529 
L 136.072094 -113.243487 
L 136.912241 -112.373601 
L 137.751865 -111.477417 
L 138.590971 -110.55682 
L 139.42957 -109.613798 
L 140.26768 -108.650437 
L 141.105327 -107.668924 
L 141.94254 -106.671542 
L 142.779361 -105.660676 
L 143.615835 -104.638804 
L 144.452018 -103.608502 
L 145.287971 -102.572441 
L 146.123765 -101.533388 
L 146.959481 -100.494205 
L 147.795206 -99.457846 
L 148.631038 -98.42736 
L 149.467083 -97.405892 
L 150.303458 -96.396677 
L 151.140289 -95.403045 
L 151.977713 -94.428423 
L 152.815876 -93.476328 
L 153.654935 -92.550375 
L 154.49506 -91.654273 
L 155.33643 -90.791829 
L 156.179237 -89.966948 
L 157.023684 -89.183635 
L 157.869987 -88.445993 
L 158.718374 -87.758233 
L 159.569088 -87.124669 
L 160.422384 -86.549723 
L 161.27853 -86.03793 
L 162.137811 -85.593937 
L 163.000525 -85.222511 
L 163.866986 -84.928542 
L 163.866986 -84.928542 
L 162.998923 -85.182011 
L 162.13162 -85.435257 
L 161.265076 -85.688283 
L 160.399289 -85.941086 
L 159.534258 -86.19367 
L 158.669983 -86.446032 
L 157.806462 -86.698174 
L 156.943695 -86.950096 
L 156.081681 -87.201799 
L 155.220418 -87.453282 
L 154.359906 -87.704545 
L 153.500143 -87.95559 
L 152.641129 -88.206417 
L 151.782862 -88.457025 
L 150.925342 -88.707415 
L 150.068568 -88.957587 
L 149.212538 -89.207542 
L 148.357253 -89.45728 
L 147.50271 -89.7068 
L 146.648908 -89.956105 
L 145.795848 -90.205192 
L 144.943528 -90.454064 
L 144.091946 -90.70272 
L 143.241102 -90.951161 
L 142.390996 -91.199386 
L 141.541625 -91.447397 
L 140.69299 -91.695193 
L 139.845088 -91.942774 
L 138.99792 -92.190141 
L 138.151484 -92.437295 
L 137.305779 -92.684235 
L 136.460805 -92.930962 
L 135.61656 -93.177476 
L 134.773043 -93.423777 
L 133.930254 -93.669866 
L 133.088192 -93.915742 
L 132.246855 -94.161407 
L 131.406243 -94.40686 
L 130.566354 -94.652102 
L 129.727189 -94.897132 
L 128.888745 -95.141952 
L 128.051022 -95.386562 
L 127.214019 -95.630961 
L 126.377735 -95.87515 
L 125.54217 -96.11913 
L 124.707321 -96.3629 
L 123.873189 -96.606461 
L 123.039773 -96.849813 
L 122.20707 -97.092956 
L 121.375082 -97.335891 
L 120.543806 -97.578618 
L 119.713241 -97.821137 
L 118.883388 -98.063449 
L 118.054244 -98.305553 
L 117.22581 -98.54745 
L 116.398083 -98.789141 
L 115.571064 -99.030625 
L 114.744751 -99.271903 
L 113.919143 -99.512975 
L 113.09424 -99.753841 
L 112.27004 -99.994502 
L 111.446543 -100.234957 
L 110.623748 -100.475208 
L 109.801653 -100.715254 
L 108.980259 -100.955096 
L 108.159563 -101.194733 
L 107.339566 -101.434167 
L 106.520266 -101.673397 
L 105.701663 -101.912423 
L 104.883754 -102.151247 
L 104.066541 -102.389868 
L 103.250021 -102.628286 
L 102.434195 -102.866502 
L 101.61906 -103.104516 
L 100.804616 -103.342328 
L 99.990862 -103.579939 
L 99.177798 -103.817348 
L 98.365422 -104.054556 
L 97.553734 -104.291563 
L 96.742733 -104.52837 
L 95.932417 -104.764977 
L 95.122787 -105.001384 
L 94.31384 -105.237591 
L 93.505577 -105.473598 
L 92.697996 -105.709406 
L 91.891097 -105.945015 
L 91.084878 -106.180426 
L 90.279339 -106.415638 
L 89.474479 -106.650651 
L 88.670297 -106.885467 
L 87.866793 -107.120085 
L 87.063964 -107.354505 
L 86.261812 -107.588729 
L 85.460333 -107.822755 
L 84.659529 -108.056584 
L 83.859398 -108.290217 
L 83.059938 -108.523654 
L 82.26115 -108.756895 
L 81.463033 -108.98994 
z
" style="stroke: #984ea3; stroke-opacity: 0.2"/>
    </defs>
    <g clip-path="url(#pb933f3996c)">
     <use xlink:href="#mb5b8769003" x="0" y="203.943717" style="fill: #984ea3; fill-opacity: 0.2; stroke: #984ea3; stroke-opacity: 0.2"/>
    </g>
   </g>
   <g id="Poly3DCollection_2">
    <defs>
     <path id="mac606f53c3" d="M 65.337942 -95.348006 
L 66.073448 -98.957279 
L 66.820526 -102.193841 
L 67.578369 -105.072003 
L 68.346192 -107.606436 
L 69.12323 -109.812107 
L 69.908745 -111.704206 
L 70.702023 -113.298076 
L 71.502379 -114.609156 
L 72.309156 -115.652918 
L 73.121729 -116.44481 
L 73.939502 -117.000207 
L 74.761911 -117.334359 
L 75.588423 -117.46235 
L 76.418538 -117.399053 
L 77.251788 -117.159099 
L 78.087736 -116.756838 
L 78.925977 -116.206313 
L 79.766138 -115.521231 
L 80.607876 -114.714943 
L 81.450877 -113.800422 
L 82.294859 -112.790246 
L 83.139566 -111.696587 
L 83.984771 -110.531193 
L 84.830274 -109.305384 
L 85.6759 -108.030044 
L 86.5215 -106.715612 
L 87.366949 -105.372082 
L 88.212142 -104.009002 
L 89.056999 -102.635468 
L 89.90146 -101.26013 
L 90.745482 -99.89119 
L 91.589045 -98.536406 
L 92.432142 -97.203095 
L 93.274785 -95.898138 
L 94.117 -94.627979 
L 94.958827 -93.398638 
L 95.80032 -92.215707 
L 96.641545 -91.084362 
L 97.482577 -90.009361 
L 98.323504 -88.995057 
L 99.16442 -88.045394 
L 100.005429 -87.163918 
L 100.846642 -86.353777 
L 101.688173 -85.617727 
L 102.530144 -84.958133 
L 103.372681 -84.376975 
L 104.215911 -83.875847 
L 105.059963 -83.455963 
L 105.90497 -83.118153 
L 106.751062 -82.862867 
L 107.59837 -82.690177 
L 108.447021 -82.59977 
L 109.297141 -82.590953 
L 110.148851 -82.662651 
L 111.002268 -82.8134 
L 111.857502 -83.041348 
L 112.714657 -83.344253 
L 113.573828 -83.719474 
L 114.435101 -84.16397 
L 115.298553 -84.674297 
L 116.164246 -85.246597 
L 117.032234 -85.876599 
L 117.902555 -86.559607 
L 118.77523 -87.290499 
L 119.650267 -88.063717 
L 120.527654 -88.873264 
L 121.407363 -89.712695 
L 122.289343 -90.575112 
L 123.173523 -91.453159 
L 124.059808 -92.339016 
L 124.948081 -93.224393 
L 125.838197 -94.10053 
L 126.729986 -94.958188 
L 127.623248 -95.787651 
L 128.517756 -96.578726 
L 129.413249 -97.320738 
L 130.309436 -98.002538 
L 131.20599 -98.612505 
L 132.102553 -99.138549 
L 132.998728 -99.568127 
L 133.894082 -99.888243 
L 134.788144 -100.085473 
L 135.680404 -100.145972 
L 136.570312 -100.055501 
L 137.457279 -99.799447 
L 138.340675 -99.362849 
L 139.219829 -98.73043 
L 140.094027 -97.886634 
L 140.962517 -96.815662 
L 141.824505 -95.501514 
L 142.679158 -93.928043 
L 143.525603 -92.079002 
L 144.36293 -89.9381 
L 145.190193 -87.489068 
L 146.006411 -84.715722 
L 146.81057 -81.602032 
L 147.60163 -78.132198 
L 148.378519 -74.290724 
L 149.140147 -70.062503 
L 149.140147 -70.062503 
L 148.256424 -70.329148 
L 147.373493 -70.595553 
L 146.491355 -70.861719 
L 145.610007 -71.127647 
L 144.729449 -71.393336 
L 143.84968 -71.658787 
L 142.970699 -71.924001 
L 142.092504 -72.188977 
L 141.215095 -72.453716 
L 140.33847 -72.718219 
L 139.462629 -72.982485 
L 138.58757 -73.246515 
L 137.713293 -73.510309 
L 136.839795 -73.773868 
L 135.967078 -74.037192 
L 135.095138 -74.300281 
L 134.223976 -74.563135 
L 133.353589 -74.825756 
L 132.483978 -75.088142 
L 131.615141 -75.350295 
L 130.747077 -75.612214 
L 129.879785 -75.873901 
L 129.013264 -76.135355 
L 128.147513 -76.396576 
L 127.282531 -76.657566 
L 126.418317 -76.918324 
L 125.55487 -77.17885 
L 124.692189 -77.439146 
L 123.830272 -77.699211 
L 122.96912 -77.959045 
L 122.10873 -78.218649 
L 121.249102 -78.478023 
L 120.390234 -78.737168 
L 119.532127 -78.996083 
L 118.674778 -79.254769 
L 117.818187 -79.513227 
L 116.962353 -79.771457 
L 116.107275 -80.029458 
L 115.252951 -80.287232 
L 114.399382 -80.544778 
L 113.546564 -80.802097 
L 112.694499 -81.059189 
L 111.843185 -81.316055 
L 110.99262 -81.572695 
L 110.142804 -81.829108 
L 109.293736 -82.085296 
L 108.445415 -82.341259 
L 107.597839 -82.596996 
L 106.751009 -82.852509 
L 105.904922 -83.107797 
L 105.059578 -83.362862 
L 104.214977 -83.617702 
L 103.371116 -83.872319 
L 102.527995 -84.126712 
L 101.685613 -84.380883 
L 100.843969 -84.634831 
L 100.003062 -84.888556 
L 99.162891 -85.142059 
L 98.323455 -85.395341 
L 97.484754 -85.648401 
L 96.646786 -85.90124 
L 95.809549 -86.153858 
L 94.973045 -86.406255 
L 94.13727 -86.658432 
L 93.302225 -86.910389 
L 92.467908 -87.162126 
L 91.634319 -87.413643 
L 90.801456 -87.664942 
L 89.969319 -87.916021 
L 89.137906 -88.166882 
L 88.307217 -88.417524 
L 87.477251 -88.667949 
L 86.648007 -88.918155 
L 85.819483 -89.168144 
L 84.991679 -89.417916 
L 84.164594 -89.667471 
L 83.338228 -89.916809 
L 82.512578 -90.165931 
L 81.687644 -90.414837 
L 80.863426 -90.663527 
L 80.039922 -90.912002 
L 79.217131 -91.160261 
L 78.395053 -91.408305 
L 77.573686 -91.656135 
L 76.75303 -91.90375 
L 75.933084 -92.151152 
L 75.113846 -92.398339 
L 74.295316 -92.645313 
L 73.477493 -92.892073 
L 72.660376 -93.13862 
L 71.843964 -93.384955 
L 71.028256 -93.631077 
L 70.213251 -93.876987 
L 69.398949 -94.122685 
L 68.585348 -94.368172 
L 67.772448 -94.613447 
L 66.960248 -94.858511 
L 66.148746 -95.103364 
L 65.337942 -95.348006 
z
" style="stroke: #4daf4a; stroke-opacity: 0.2"/>
    </defs>
    <g clip-path="url(#pb933f3996c)">
     <use xlink:href="#mac606f53c3" x="0" y="203.943717" style="fill: #4daf4a; fill-opacity: 0.2; stroke: #4daf4a; stroke-opacity: 0.2"/>
    </g>
   </g>
   <g id="Poly3DCollection_3">
    <defs>
     <path id="m594472b9bd" d="M 30.004656 -79.854383 
L 30.848607 -79.587805 
L 31.69333 -79.320984 
L 32.538823 -79.053918 
L 33.38509 -78.786609 
L 34.23213 -78.519055 
L 35.079945 -78.251257 
L 35.928536 -77.983214 
L 36.777903 -77.714925 
L 37.628049 -77.44639 
L 38.478973 -77.17761 
L 39.330678 -76.908583 
L 40.183164 -76.639309 
L 41.036432 -76.369788 
L 41.890483 -76.10002 
L 42.745319 -75.830004 
L 43.60094 -75.55974 
L 44.457348 -75.289227 
L 45.314543 -75.018466 
L 46.172527 -74.747456 
L 47.031301 -74.476196 
L 47.890866 -74.204686 
L 48.751223 -73.932926 
L 49.612373 -73.660915 
L 50.474317 -73.388654 
L 51.337056 -73.116142 
L 52.200592 -72.843377 
L 53.064925 -72.570361 
L 53.930057 -72.297093 
L 54.795989 -72.023572 
L 55.662721 -71.749799 
L 56.530255 -71.475772 
L 57.398593 -71.201491 
L 58.267734 -70.926956 
L 59.137681 -70.652167 
L 60.008434 -70.377123 
L 60.879995 -70.101824 
L 61.752364 -69.82627 
L 62.625543 -69.55046 
L 63.499533 -69.274394 
L 64.374335 -68.998071 
L 65.24995 -68.721491 
L 66.12638 -68.444654 
L 67.003625 -68.16756 
L 67.881686 -67.890208 
L 68.760565 -67.612597 
L 69.640263 -67.334728 
L 70.520781 -67.0566 
L 71.40212 -66.778212 
L 72.284282 -66.499565 
L 73.167266 -66.220657 
L 74.051076 -65.941489 
L 74.935711 -65.662061 
L 75.821173 -65.382371 
L 76.707463 -65.102419 
L 77.594582 -64.822206 
L 78.482532 -64.54173 
L 79.371314 -64.260992 
L 80.260928 -63.97999 
L 81.151376 -63.698726 
L 82.042659 -63.417197 
L 82.934778 -63.135404 
L 83.827735 -62.853347 
L 84.72153 -62.571025 
L 85.616165 -62.288438 
L 86.511641 -62.005585 
L 87.407959 -61.722466 
L 88.305121 -61.43908 
L 89.203127 -61.155428 
L 90.101979 -60.871509 
L 91.001677 -60.587322 
L 91.902224 -60.302867 
L 92.80362 -60.018144 
L 93.705867 -59.733152 
L 94.608965 -59.447892 
L 95.512917 -59.162362 
L 96.417722 -58.876562 
L 97.323383 -58.590492 
L 98.229901 -58.304151 
L 99.137276 -58.017539 
L 100.04551 -57.730656 
L 100.954604 -57.443502 
L 101.86456 -57.156075 
L 102.775379 -56.868376 
L 103.687061 -56.580404 
L 104.599609 -56.292158 
L 105.513023 -56.003639 
L 106.427304 -55.714846 
L 107.342455 -55.425779 
L 108.258475 -55.136436 
L 109.175367 -54.846819 
L 110.093131 -54.556926 
L 111.011769 -54.266756 
L 111.931282 -53.976311 
L 112.851672 -53.685588 
L 113.772939 -53.394589 
L 114.695085 -53.103312 
L 115.618111 -52.811756 
L 116.542018 -52.519923 
L 117.466808 -52.227811 
L 117.295683 -37.91704 
L 116.379228 -38.213316 
L 115.463639 -38.509312 
L 114.548916 -38.805029 
L 113.635057 -39.100466 
L 112.722062 -39.395624 
L 111.809928 -39.690503 
L 110.898656 -39.985104 
L 109.988242 -40.279427 
L 109.078687 -40.573473 
L 108.169989 -40.867242 
L 107.262147 -41.160734 
L 106.35516 -41.453949 
L 105.449025 -41.746889 
L 104.543744 -42.039553 
L 103.639313 -42.331942 
L 102.735732 -42.624057 
L 101.833 -42.915897 
L 100.931115 -43.207463 
L 100.030076 -43.498755 
L 99.129882 -43.789774 
L 98.230533 -44.080521 
L 97.332026 -44.370995 
L 96.43436 -44.661197 
L 95.537535 -44.951127 
L 94.641549 -45.240786 
L 93.746401 -45.530174 
L 92.85209 -45.819292 
L 91.958614 -46.10814 
L 91.065973 -46.396717 
L 90.174165 -46.685026 
L 89.283189 -46.973065 
L 88.393044 -47.260836 
L 87.503729 -47.548338 
L 86.615242 -47.835573 
L 85.727583 -48.12254 
L 84.84075 -48.40924 
L 83.954743 -48.695673 
L 83.069559 -48.981839 
L 82.185198 -49.26774 
L 81.301659 -49.553375 
L 80.418941 -49.838745 
L 79.537042 -50.12385 
L 78.655961 -50.40869 
L 77.775698 -50.693267 
L 76.89625 -50.977579 
L 76.017617 -51.261628 
L 75.139798 -51.545414 
L 74.262792 -51.828937 
L 73.386597 -52.112198 
L 72.511213 -52.395197 
L 71.636637 -52.677934 
L 70.76287 -52.96041 
L 69.88991 -53.242625 
L 69.017756 -53.52458 
L 68.146406 -53.806274 
L 67.27586 -54.087709 
L 66.406117 -54.368884 
L 65.537175 -54.6498 
L 64.669033 -54.930458 
L 63.801691 -55.210856 
L 62.935146 -55.490997 
L 62.069399 -55.770881 
L 61.204448 -56.050507 
L 60.340291 -56.329876 
L 59.476928 -56.608988 
L 58.614358 -56.887844 
L 57.752579 -57.166445 
L 56.891591 -57.44479 
L 56.031392 -57.722879 
L 55.171982 -58.000714 
L 54.313358 -58.278294 
L 53.455521 -58.55562 
L 52.598469 -58.832693 
L 51.7422 -59.109511 
L 50.886715 -59.386077 
L 50.032011 -59.66239 
L 49.178088 -59.938451 
L 48.324945 -60.21426 
L 47.47258 -60.489816 
L 46.620993 -60.765122 
L 45.770183 -61.040176 
L 44.920147 -61.31498 
L 44.070886 -61.589534 
L 43.222399 -61.863837 
L 42.374683 -62.137891 
L 41.527739 -62.411696 
L 40.681565 -62.685251 
L 39.83616 -62.958558 
L 38.991523 -63.231617 
L 38.147653 -63.504427 
L 37.304549 -63.776991 
L 36.46221 -64.049306 
L 35.620635 -64.321375 
L 34.779822 -64.593197 
L 33.939772 -64.864773 
L 33.100482 -65.136103 
L 32.261951 -65.407188 
L 31.42418 -65.678027 
L 30.587166 -65.948621 
z
" style="stroke: #377eb8; stroke-opacity: 0.2"/>
    </defs>
    <g clip-path="url(#pb933f3996c)">
     <use xlink:href="#m594472b9bd" x="0" y="203.943717" style="fill: #377eb8; fill-opacity: 0.2; stroke: #377eb8; stroke-opacity: 0.2"/>
    </g>
   </g>
   <g id="Poly3DCollection_4">
    <defs>
     <path id="m3c6d26dc97" d="M 46.235899 -151.786003 
L 47.351747 -142.996959 
L 48.4374 -134.965531 
L 49.495439 -127.641638 
L 50.528245 -120.978815 
L 51.538017 -114.933831 
L 52.52679 -109.466359 
L 53.496448 -104.538686 
L 54.448739 -100.11545 
L 55.385287 -96.163418 
L 56.3076 -92.651275 
L 57.217082 -89.549455 
L 58.115039 -86.829974 
L 59.002686 -84.466295 
L 59.881156 -82.4332 
L 60.751503 -80.706681 
L 61.61471 -79.263844 
L 62.47169 -78.082821 
L 63.323293 -77.142694 
L 64.170307 -76.423431 
L 65.013466 -75.905826 
L 65.853447 -75.571449 
L 66.690877 -75.402602 
L 67.526335 -75.382282 
L 68.360352 -75.49415 
L 69.193414 -75.722505 
L 70.025967 -76.052258 
L 70.858414 -76.468918 
L 71.691119 -76.958579 
L 72.524411 -77.507906 
L 73.358579 -78.104129 
L 74.19388 -78.735038 
L 75.030539 -79.388984 
L 75.868745 -80.054873 
L 76.708662 -80.722173 
L 77.55042 -81.380914 
L 78.394124 -82.021694 
L 79.239852 -82.635684 
L 80.087658 -83.214637 
L 80.93757 -83.750891 
L 81.789597 -84.23738 
L 82.643724 -84.667641 
L 83.499918 -85.035822 
L 84.35813 -85.336686 
L 85.218291 -85.565626 
L 86.080321 -85.718664 
L 86.944125 -85.792463 
L 87.809597 -85.78433 
L 88.67662 -85.692219 
L 89.54507 -85.514742 
L 90.414817 -85.251162 
L 91.285726 -84.901404 
L 92.157658 -84.466051 
L 93.030473 -83.946346 
L 93.904034 -83.34419 
L 94.778202 -82.662139 
L 95.652845 -81.903406 
L 96.527838 -81.07185 
L 97.403059 -80.171978 
L 98.278401 -79.208937 
L 99.153764 -78.188507 
L 100.029063 -77.1171 
L 100.904226 -76.001748 
L 101.779198 -74.850099 
L 102.653943 -73.670413 
L 103.528443 -72.471554 
L 104.402703 -71.262984 
L 105.276749 -70.054762 
L 106.150634 -68.857537 
L 107.024435 -67.682549 
L 107.898259 -66.541628 
L 108.772241 -65.447193 
L 109.646549 -64.412259 
L 110.521383 -63.450444 
L 111.396979 -62.575974 
L 112.273608 -61.803698 
L 113.151582 -61.149106 
L 114.031253 -60.628347 
L 114.913016 -60.258251 
L 115.797311 -60.056368 
L 116.684627 -60.040991 
L 117.575502 -60.23121 
L 118.470528 -60.646952 
L 119.370355 -61.30904 
L 120.275691 -62.239259 
L 121.18731 -63.46043 
L 122.106053 -64.996491 
L 123.032835 -66.872599 
L 123.968648 -69.115235 
L 124.91457 -71.752332 
L 125.871768 -74.813409 
L 126.84151 -78.32974 
L 127.825167 -82.334525 
L 128.82423 -86.863101 
L 129.840314 -91.953169 
L 130.875174 -97.645059 
L 131.930717 -103.982026 
L 133.00902 -111.010593 
L 134.112344 -118.780933 
L 135.243157 -127.347312 
L 133.637374 -54.413195 
L 132.737522 -54.69407 
L 131.838499 -54.974687 
L 130.940304 -55.255045 
L 130.042935 -55.535146 
L 129.146391 -55.814988 
L 128.250672 -56.094574 
L 127.355775 -56.373902 
L 126.461701 -56.652974 
L 125.568447 -56.93179 
L 124.676013 -57.21035 
L 123.784397 -57.488655 
L 122.893598 -57.766704 
L 122.003616 -58.044499 
L 121.114449 -58.322039 
L 120.226097 -58.599325 
L 119.338557 -58.876357 
L 118.451828 -59.153136 
L 117.565911 -59.429662 
L 116.680803 -59.705935 
L 115.796503 -59.981956 
L 114.913011 -60.257725 
L 114.030325 -60.533242 
L 113.148444 -60.808508 
L 112.267367 -61.083523 
L 111.387093 -61.358288 
L 110.507621 -61.632802 
L 109.62895 -61.907066 
L 108.751078 -62.18108 
L 107.874005 -62.454846 
L 106.997729 -62.728362 
L 106.12225 -63.00163 
L 105.247566 -63.274649 
L 104.373676 -63.547421 
L 103.50058 -63.819945 
L 102.628275 -64.092222 
L 101.756762 -64.364252 
L 100.886038 -64.636035 
L 100.016103 -64.907572 
L 99.146956 -65.178863 
L 98.278595 -65.449909 
L 97.411021 -65.72071 
L 96.54423 -65.991265 
L 95.678224 -66.261576 
L 94.812999 -66.531643 
L 93.948556 -66.801466 
L 93.084893 -67.071046 
L 92.22201 -67.340382 
L 91.359905 -67.609475 
L 90.498577 -67.878326 
L 89.638025 -68.146934 
L 88.778248 -68.415301 
L 87.919245 -68.683426 
L 87.061015 -68.951309 
L 86.203557 -69.218952 
L 85.346869 -69.486354 
L 84.490952 -69.753516 
L 83.635803 -70.020438 
L 82.781423 -70.28712 
L 81.927809 -70.553563 
L 81.07496 -70.819767 
L 80.222876 -71.085732 
L 79.371556 -71.351459 
L 78.520999 -71.616947 
L 77.671203 -71.882199 
L 76.822167 -72.147212 
L 75.973892 -72.411989 
L 75.126374 -72.676529 
L 74.279615 -72.940832 
L 73.433611 -73.204899 
L 72.588364 -73.468731 
L 71.74387 -73.732327 
L 70.90013 -73.995688 
L 70.057143 -74.258814 
L 69.214907 -74.521705 
L 68.373421 -74.784362 
L 67.532685 -75.046785 
L 66.692698 -75.308975 
L 65.853457 -75.570931 
L 65.014964 -75.832654 
L 64.177215 -76.094145 
L 63.340211 -76.355403 
L 62.503951 -76.616429 
L 61.668433 -76.877224 
L 60.833656 -77.137787 
L 59.99962 -77.398119 
L 59.166324 -77.65822 
L 58.333766 -77.91809 
L 57.501946 -78.177731 
L 56.670862 -78.437141 
L 55.840513 -78.696322 
L 55.0109 -78.955273 
L 54.18202 -79.213996 
L 53.353872 -79.47249 
L 52.526457 -79.730755 
L 51.699772 -79.988792 
L 50.873817 -80.246602 
L 50.04859 -80.504184 
L 49.224092 -80.761539 
L 48.40032 -81.018667 
z
" style="stroke: #e41a1c; stroke-opacity: 0.2"/>
    </defs>
    <g clip-path="url(#pb933f3996c)">
     <use xlink:href="#m3c6d26dc97" x="0" y="203.943717" style="fill: #e41a1c; fill-opacity: 0.2; stroke: #e41a1c; stroke-opacity: 0.2"/>
    </g>
   </g>
  </g>
 </g>
 <defs>
  <clipPath id="pb933f3996c">
   <rect x="7.2" y="7.2" width="177.408" height="177.408"/>
  </clipPath>
 </defs>
</svg>
