<?xml version="1.0" encoding="utf-8" standalone="no"?>
<!DOCTYPE svg PUBLIC "-//W3C//DTD SVG 1.1//EN"
  "http://www.w3.org/Graphics/SVG/1.1/DTD/svg11.dtd">
<svg xmlns:xlink="http://www.w3.org/1999/xlink" width="367.2pt" height="223.2pt" viewBox="0 0 367.2 223.2" xmlns="http://www.w3.org/2000/svg" version="1.1">
 <metadata>
  <rdf:RDF xmlns:dc="http://purl.org/dc/elements/1.1/" xmlns:cc="http://creativecommons.org/ns#" xmlns:rdf="http://www.w3.org/1999/02/22-rdf-syntax-ns#">
   <cc:Work>
    <dc:type rdf:resource="http://purl.org/dc/dcmitype/StillImage"/>
    <dc:date>2025-06-01T00:51:49.308866</dc:date>
    <dc:format>image/svg+xml</dc:format>
    <dc:creator>
     <cc:Agent>
      <dc:title>Matplotlib v3.10.3, https://matplotlib.org/</dc:title>
     </cc:Agent>
    </dc:creator>
   </cc:Work>
  </rdf:RDF>
 </metadata>
 <defs>
  <style type="text/css">*{stroke-linejoin: round; stroke-linecap: butt}</style>
 </defs>
 <g id="figure_1">
  <g id="patch_1">
   <path d="M 0 223.2 
L 367.2 223.2 
L 367.2 0 
L 0 0 
z
" style="fill: #ffffff"/>
  </g>
  <g id="axes_1">
   <g id="patch_2">
    <path d="M 38.596548 188.790661 
L 360 188.790661 
L 360 7.2 
L 38.596548 7.2 
z
" style="fill: #ffffff"/>
   </g>
   <g id="matplotlib.axis_1">
    <g id="xtick_1">
     <g id="line2d_1">
      <defs>
       <path id="ma1898b4499" d="M 0 0 
L 0 -4 
" style="stroke: #000000; stroke-width: 1.2"/>
      </defs>
      <g>
       <use xlink:href="#ma1898b4499" x="53.205796" y="188.790661" style="stroke: #000000; stroke-width: 1.2"/>
      </g>
     </g>
     <g id="line2d_2">
      <defs>
       <path id="mc845863452" d="M 0 0 
L 0 4 
" style="stroke: #000000; stroke-width: 1.2"/>
      </defs>
      <g>
       <use xlink:href="#mc845863452" x="53.205796" y="7.2" style="stroke: #000000; stroke-width: 1.2"/>
      </g>
     </g>
     <g id="text_1">
      <!-- $\mathdefault{0.000}$ -->
      <g transform="translate(41.859421 199.209159) scale(0.1 -0.1)">
       <defs>
        <path id="CMR17-30" d="M 2688 2025 
C 2688 2416 2682 3080 2413 3591 
C 2176 4039 1798 4198 1466 4198 
C 1158 4198 768 4058 525 3597 
C 269 3118 243 2524 243 2025 
C 243 1661 250 1106 448 619 
C 723 -39 1216 -128 1466 -128 
C 1760 -128 2208 -7 2470 600 
C 2662 1042 2688 1559 2688 2025 
z
M 1466 -26 
C 1056 -26 813 325 723 812 
C 653 1188 653 1738 653 2096 
C 653 2588 653 2997 736 3387 
C 858 3929 1216 4096 1466 4096 
C 1728 4096 2067 3923 2189 3400 
C 2272 3036 2278 2607 2278 2096 
C 2278 1680 2278 1169 2202 792 
C 2067 95 1690 -26 1466 -26 
z
" transform="scale(0.015625)"/>
        <path id="CMMI12-3a" d="M 1178 307 
C 1178 492 1024 619 870 619 
C 685 619 557 466 557 313 
C 557 128 710 0 864 0 
C 1050 0 1178 153 1178 307 
z
" transform="scale(0.015625)"/>
       </defs>
       <use xlink:href="#CMR17-30" transform="scale(0.996264)"/>
       <use xlink:href="#CMMI12-3a" transform="translate(45.690477 0) scale(0.996264)"/>
       <use xlink:href="#CMR17-30" transform="translate(72.787654 0) scale(0.996264)"/>
       <use xlink:href="#CMR17-30" transform="translate(118.478131 0) scale(0.996264)"/>
       <use xlink:href="#CMR17-30" transform="translate(164.168608 0) scale(0.996264)"/>
      </g>
     </g>
    </g>
    <g id="xtick_2">
     <g id="line2d_3">
      <g>
       <use xlink:href="#ma1898b4499" x="89.728915" y="188.790661" style="stroke: #000000; stroke-width: 1.2"/>
      </g>
     </g>
     <g id="line2d_4">
      <g>
       <use xlink:href="#mc845863452" x="89.728915" y="7.2" style="stroke: #000000; stroke-width: 1.2"/>
      </g>
     </g>
     <g id="text_2">
      <!-- $\mathdefault{0.025}$ -->
      <g transform="translate(78.38254 199.209159) scale(0.1 -0.1)">
       <defs>
        <path id="CMR17-32" d="M 2669 989 
L 2554 989 
C 2490 536 2438 459 2413 420 
C 2381 369 1920 369 1830 369 
L 602 369 
C 832 619 1280 1072 1824 1597 
C 2214 1967 2669 2402 2669 3035 
C 2669 3790 2067 4224 1395 4224 
C 691 4224 262 3604 262 3030 
C 262 2780 448 2748 525 2748 
C 589 2748 781 2787 781 3010 
C 781 3207 614 3264 525 3264 
C 486 3264 448 3258 422 3245 
C 544 3790 915 4058 1306 4058 
C 1862 4058 2227 3617 2227 3035 
C 2227 2479 1901 2000 1536 1584 
L 262 146 
L 262 0 
L 2515 0 
L 2669 989 
z
" transform="scale(0.015625)"/>
        <path id="CMR17-35" d="M 730 3692 
C 794 3666 1056 3584 1325 3584 
C 1920 3584 2246 3911 2432 4100 
C 2432 4157 2432 4192 2394 4192 
C 2387 4192 2374 4192 2323 4163 
C 2099 4058 1837 3973 1517 3973 
C 1325 3973 1037 3999 723 4139 
C 653 4171 640 4171 634 4171 
C 602 4171 595 4164 595 4037 
L 595 2203 
C 595 2089 595 2057 659 2057 
C 691 2057 704 2070 736 2114 
C 941 2401 1222 2522 1542 2522 
C 1766 2522 2246 2382 2246 1289 
C 2246 1085 2246 715 2054 421 
C 1894 159 1645 25 1370 25 
C 947 25 518 320 403 814 
C 429 807 480 795 506 795 
C 589 795 749 840 749 1038 
C 749 1210 627 1280 506 1280 
C 358 1280 262 1190 262 1011 
C 262 454 704 -128 1382 -128 
C 2042 -128 2669 440 2669 1264 
C 2669 2030 2170 2624 1549 2624 
C 1222 2624 947 2503 730 2274 
L 730 3692 
z
" transform="scale(0.015625)"/>
       </defs>
       <use xlink:href="#CMR17-30" transform="scale(0.996264)"/>
       <use xlink:href="#CMMI12-3a" transform="translate(45.690477 0) scale(0.996264)"/>
       <use xlink:href="#CMR17-30" transform="translate(72.787654 0) scale(0.996264)"/>
       <use xlink:href="#CMR17-32" transform="translate(118.478131 0) scale(0.996264)"/>
       <use xlink:href="#CMR17-35" transform="translate(164.168608 0) scale(0.996264)"/>
      </g>
     </g>
    </g>
    <g id="xtick_3">
     <g id="line2d_5">
      <g>
       <use xlink:href="#ma1898b4499" x="126.252034" y="188.790661" style="stroke: #000000; stroke-width: 1.2"/>
      </g>
     </g>
     <g id="line2d_6">
      <g>
       <use xlink:href="#mc845863452" x="126.252034" y="7.2" style="stroke: #000000; stroke-width: 1.2"/>
      </g>
     </g>
     <g id="text_3">
      <!-- $\mathdefault{0.050}$ -->
      <g transform="translate(114.905659 199.209159) scale(0.1 -0.1)">
       <use xlink:href="#CMR17-30" transform="scale(0.996264)"/>
       <use xlink:href="#CMMI12-3a" transform="translate(45.690477 0) scale(0.996264)"/>
       <use xlink:href="#CMR17-30" transform="translate(72.787654 0) scale(0.996264)"/>
       <use xlink:href="#CMR17-35" transform="translate(118.478131 0) scale(0.996264)"/>
       <use xlink:href="#CMR17-30" transform="translate(164.168608 0) scale(0.996264)"/>
      </g>
     </g>
    </g>
    <g id="xtick_4">
     <g id="line2d_7">
      <g>
       <use xlink:href="#ma1898b4499" x="162.775153" y="188.790661" style="stroke: #000000; stroke-width: 1.2"/>
      </g>
     </g>
     <g id="line2d_8">
      <g>
       <use xlink:href="#mc845863452" x="162.775153" y="7.2" style="stroke: #000000; stroke-width: 1.2"/>
      </g>
     </g>
     <g id="text_4">
      <!-- $\mathdefault{0.075}$ -->
      <g transform="translate(151.428778 199.209159) scale(0.1 -0.1)">
       <defs>
        <path id="CMR17-37" d="M 2886 3941 
L 2886 4081 
L 1382 4081 
C 634 4081 621 4165 595 4288 
L 480 4288 
L 294 3094 
L 410 3094 
C 429 3215 474 3540 550 3661 
C 589 3712 1062 3712 1171 3712 
L 2579 3712 
L 1869 2661 
C 1395 1954 1069 999 1069 165 
C 1069 89 1069 -128 1299 -128 
C 1530 -128 1530 89 1530 171 
L 1530 465 
C 1530 1508 1709 2196 2003 2636 
L 2886 3941 
z
" transform="scale(0.015625)"/>
       </defs>
       <use xlink:href="#CMR17-30" transform="scale(0.996264)"/>
       <use xlink:href="#CMMI12-3a" transform="translate(45.690477 0) scale(0.996264)"/>
       <use xlink:href="#CMR17-30" transform="translate(72.787654 0) scale(0.996264)"/>
       <use xlink:href="#CMR17-37" transform="translate(118.478131 0) scale(0.996264)"/>
       <use xlink:href="#CMR17-35" transform="translate(164.168608 0) scale(0.996264)"/>
      </g>
     </g>
    </g>
    <g id="xtick_5">
     <g id="line2d_9">
      <g>
       <use xlink:href="#ma1898b4499" x="199.298272" y="188.790661" style="stroke: #000000; stroke-width: 1.2"/>
      </g>
     </g>
     <g id="line2d_10">
      <g>
       <use xlink:href="#mc845863452" x="199.298272" y="7.2" style="stroke: #000000; stroke-width: 1.2"/>
      </g>
     </g>
     <g id="text_5">
      <!-- $\mathdefault{0.100}$ -->
      <g transform="translate(187.951897 199.209159) scale(0.1 -0.1)">
       <defs>
        <path id="CMR17-31" d="M 1702 4058 
C 1702 4192 1696 4192 1606 4192 
C 1357 3916 979 3827 621 3827 
C 602 3827 570 3827 563 3808 
C 557 3795 557 3782 557 3648 
C 755 3648 1088 3686 1344 3839 
L 1344 461 
C 1344 236 1331 160 781 160 
L 589 160 
L 589 0 
C 896 0 1216 0 1523 0 
C 1830 0 2150 0 2458 0 
L 2458 160 
L 2266 160 
C 1715 160 1702 230 1702 458 
L 1702 4058 
z
" transform="scale(0.015625)"/>
       </defs>
       <use xlink:href="#CMR17-30" transform="scale(0.996264)"/>
       <use xlink:href="#CMMI12-3a" transform="translate(45.690477 0) scale(0.996264)"/>
       <use xlink:href="#CMR17-31" transform="translate(72.787654 0) scale(0.996264)"/>
       <use xlink:href="#CMR17-30" transform="translate(118.478131 0) scale(0.996264)"/>
       <use xlink:href="#CMR17-30" transform="translate(164.168608 0) scale(0.996264)"/>
      </g>
     </g>
    </g>
    <g id="xtick_6">
     <g id="line2d_11">
      <g>
       <use xlink:href="#ma1898b4499" x="235.821391" y="188.790661" style="stroke: #000000; stroke-width: 1.2"/>
      </g>
     </g>
     <g id="line2d_12">
      <g>
       <use xlink:href="#mc845863452" x="235.821391" y="7.2" style="stroke: #000000; stroke-width: 1.2"/>
      </g>
     </g>
     <g id="text_6">
      <!-- $\mathdefault{0.125}$ -->
      <g transform="translate(224.475016 199.209159) scale(0.1 -0.1)">
       <use xlink:href="#CMR17-30" transform="scale(0.996264)"/>
       <use xlink:href="#CMMI12-3a" transform="translate(45.690477 0) scale(0.996264)"/>
       <use xlink:href="#CMR17-31" transform="translate(72.787654 0) scale(0.996264)"/>
       <use xlink:href="#CMR17-32" transform="translate(118.478131 0) scale(0.996264)"/>
       <use xlink:href="#CMR17-35" transform="translate(164.168608 0) scale(0.996264)"/>
      </g>
     </g>
    </g>
    <g id="xtick_7">
     <g id="line2d_13">
      <g>
       <use xlink:href="#ma1898b4499" x="272.34451" y="188.790661" style="stroke: #000000; stroke-width: 1.2"/>
      </g>
     </g>
     <g id="line2d_14">
      <g>
       <use xlink:href="#mc845863452" x="272.34451" y="7.2" style="stroke: #000000; stroke-width: 1.2"/>
      </g>
     </g>
     <g id="text_7">
      <!-- $\mathdefault{0.150}$ -->
      <g transform="translate(260.998135 199.209159) scale(0.1 -0.1)">
       <use xlink:href="#CMR17-30" transform="scale(0.996264)"/>
       <use xlink:href="#CMMI12-3a" transform="translate(45.690477 0) scale(0.996264)"/>
       <use xlink:href="#CMR17-31" transform="translate(72.787654 0) scale(0.996264)"/>
       <use xlink:href="#CMR17-35" transform="translate(118.478131 0) scale(0.996264)"/>
       <use xlink:href="#CMR17-30" transform="translate(164.168608 0) scale(0.996264)"/>
      </g>
     </g>
    </g>
    <g id="xtick_8">
     <g id="line2d_15">
      <g>
       <use xlink:href="#ma1898b4499" x="308.867629" y="188.790661" style="stroke: #000000; stroke-width: 1.2"/>
      </g>
     </g>
     <g id="line2d_16">
      <g>
       <use xlink:href="#mc845863452" x="308.867629" y="7.2" style="stroke: #000000; stroke-width: 1.2"/>
      </g>
     </g>
     <g id="text_8">
      <!-- $\mathdefault{0.175}$ -->
      <g transform="translate(297.521254 199.209159) scale(0.1 -0.1)">
       <use xlink:href="#CMR17-30" transform="scale(0.996264)"/>
       <use xlink:href="#CMMI12-3a" transform="translate(45.690477 0) scale(0.996264)"/>
       <use xlink:href="#CMR17-31" transform="translate(72.787654 0) scale(0.996264)"/>
       <use xlink:href="#CMR17-37" transform="translate(118.478131 0) scale(0.996264)"/>
       <use xlink:href="#CMR17-35" transform="translate(164.168608 0) scale(0.996264)"/>
      </g>
     </g>
    </g>
    <g id="xtick_9">
     <g id="line2d_17">
      <g>
       <use xlink:href="#ma1898b4499" x="345.390748" y="188.790661" style="stroke: #000000; stroke-width: 1.2"/>
      </g>
     </g>
     <g id="line2d_18">
      <g>
       <use xlink:href="#mc845863452" x="345.390748" y="7.2" style="stroke: #000000; stroke-width: 1.2"/>
      </g>
     </g>
     <g id="text_9">
      <!-- $\mathdefault{0.200}$ -->
      <g transform="translate(334.044373 199.209159) scale(0.1 -0.1)">
       <use xlink:href="#CMR17-30" transform="scale(0.996264)"/>
       <use xlink:href="#CMMI12-3a" transform="translate(45.690477 0) scale(0.996264)"/>
       <use xlink:href="#CMR17-32" transform="translate(72.787654 0) scale(0.996264)"/>
       <use xlink:href="#CMR17-30" transform="translate(118.478131 0) scale(0.996264)"/>
       <use xlink:href="#CMR17-30" transform="translate(164.168608 0) scale(0.996264)"/>
      </g>
     </g>
    </g>
    <g id="xtick_10">
     <g id="line2d_19">
      <defs>
       <path id="m3e88398e21" d="M 0 0 
L 0 -2.5 
" style="stroke: #000000; stroke-width: 0.8"/>
      </defs>
      <g>
       <use xlink:href="#m3e88398e21" x="38.596548" y="188.790661" style="stroke: #000000; stroke-width: 0.8"/>
      </g>
     </g>
     <g id="line2d_20">
      <defs>
       <path id="m62976bfcc4" d="M 0 0 
L 0 2.5 
" style="stroke: #000000; stroke-width: 0.8"/>
      </defs>
      <g>
       <use xlink:href="#m62976bfcc4" x="38.596548" y="7.2" style="stroke: #000000; stroke-width: 0.8"/>
      </g>
     </g>
    </g>
    <g id="xtick_11">
     <g id="line2d_21">
      <g>
       <use xlink:href="#m3e88398e21" x="45.901172" y="188.790661" style="stroke: #000000; stroke-width: 0.8"/>
      </g>
     </g>
     <g id="line2d_22">
      <g>
       <use xlink:href="#m62976bfcc4" x="45.901172" y="7.2" style="stroke: #000000; stroke-width: 0.8"/>
      </g>
     </g>
    </g>
    <g id="xtick_12">
     <g id="line2d_23">
      <g>
       <use xlink:href="#m3e88398e21" x="60.51042" y="188.790661" style="stroke: #000000; stroke-width: 0.8"/>
      </g>
     </g>
     <g id="line2d_24">
      <g>
       <use xlink:href="#m62976bfcc4" x="60.51042" y="7.2" style="stroke: #000000; stroke-width: 0.8"/>
      </g>
     </g>
    </g>
    <g id="xtick_13">
     <g id="line2d_25">
      <g>
       <use xlink:href="#m3e88398e21" x="67.815044" y="188.790661" style="stroke: #000000; stroke-width: 0.8"/>
      </g>
     </g>
     <g id="line2d_26">
      <g>
       <use xlink:href="#m62976bfcc4" x="67.815044" y="7.2" style="stroke: #000000; stroke-width: 0.8"/>
      </g>
     </g>
    </g>
    <g id="xtick_14">
     <g id="line2d_27">
      <g>
       <use xlink:href="#m3e88398e21" x="75.119667" y="188.790661" style="stroke: #000000; stroke-width: 0.8"/>
      </g>
     </g>
     <g id="line2d_28">
      <g>
       <use xlink:href="#m62976bfcc4" x="75.119667" y="7.2" style="stroke: #000000; stroke-width: 0.8"/>
      </g>
     </g>
    </g>
    <g id="xtick_15">
     <g id="line2d_29">
      <g>
       <use xlink:href="#m3e88398e21" x="82.424291" y="188.790661" style="stroke: #000000; stroke-width: 0.8"/>
      </g>
     </g>
     <g id="line2d_30">
      <g>
       <use xlink:href="#m62976bfcc4" x="82.424291" y="7.2" style="stroke: #000000; stroke-width: 0.8"/>
      </g>
     </g>
    </g>
    <g id="xtick_16">
     <g id="line2d_31">
      <g>
       <use xlink:href="#m3e88398e21" x="97.033539" y="188.790661" style="stroke: #000000; stroke-width: 0.8"/>
      </g>
     </g>
     <g id="line2d_32">
      <g>
       <use xlink:href="#m62976bfcc4" x="97.033539" y="7.2" style="stroke: #000000; stroke-width: 0.8"/>
      </g>
     </g>
    </g>
    <g id="xtick_17">
     <g id="line2d_33">
      <g>
       <use xlink:href="#m3e88398e21" x="104.338163" y="188.790661" style="stroke: #000000; stroke-width: 0.8"/>
      </g>
     </g>
     <g id="line2d_34">
      <g>
       <use xlink:href="#m62976bfcc4" x="104.338163" y="7.2" style="stroke: #000000; stroke-width: 0.8"/>
      </g>
     </g>
    </g>
    <g id="xtick_18">
     <g id="line2d_35">
      <g>
       <use xlink:href="#m3e88398e21" x="111.642786" y="188.790661" style="stroke: #000000; stroke-width: 0.8"/>
      </g>
     </g>
     <g id="line2d_36">
      <g>
       <use xlink:href="#m62976bfcc4" x="111.642786" y="7.2" style="stroke: #000000; stroke-width: 0.8"/>
      </g>
     </g>
    </g>
    <g id="xtick_19">
     <g id="line2d_37">
      <g>
       <use xlink:href="#m3e88398e21" x="118.94741" y="188.790661" style="stroke: #000000; stroke-width: 0.8"/>
      </g>
     </g>
     <g id="line2d_38">
      <g>
       <use xlink:href="#m62976bfcc4" x="118.94741" y="7.2" style="stroke: #000000; stroke-width: 0.8"/>
      </g>
     </g>
    </g>
    <g id="xtick_20">
     <g id="line2d_39">
      <g>
       <use xlink:href="#m3e88398e21" x="133.556658" y="188.790661" style="stroke: #000000; stroke-width: 0.8"/>
      </g>
     </g>
     <g id="line2d_40">
      <g>
       <use xlink:href="#m62976bfcc4" x="133.556658" y="7.2" style="stroke: #000000; stroke-width: 0.8"/>
      </g>
     </g>
    </g>
    <g id="xtick_21">
     <g id="line2d_41">
      <g>
       <use xlink:href="#m3e88398e21" x="140.861282" y="188.790661" style="stroke: #000000; stroke-width: 0.8"/>
      </g>
     </g>
     <g id="line2d_42">
      <g>
       <use xlink:href="#m62976bfcc4" x="140.861282" y="7.2" style="stroke: #000000; stroke-width: 0.8"/>
      </g>
     </g>
    </g>
    <g id="xtick_22">
     <g id="line2d_43">
      <g>
       <use xlink:href="#m3e88398e21" x="148.165905" y="188.790661" style="stroke: #000000; stroke-width: 0.8"/>
      </g>
     </g>
     <g id="line2d_44">
      <g>
       <use xlink:href="#m62976bfcc4" x="148.165905" y="7.2" style="stroke: #000000; stroke-width: 0.8"/>
      </g>
     </g>
    </g>
    <g id="xtick_23">
     <g id="line2d_45">
      <g>
       <use xlink:href="#m3e88398e21" x="155.470529" y="188.790661" style="stroke: #000000; stroke-width: 0.8"/>
      </g>
     </g>
     <g id="line2d_46">
      <g>
       <use xlink:href="#m62976bfcc4" x="155.470529" y="7.2" style="stroke: #000000; stroke-width: 0.8"/>
      </g>
     </g>
    </g>
    <g id="xtick_24">
     <g id="line2d_47">
      <g>
       <use xlink:href="#m3e88398e21" x="170.079777" y="188.790661" style="stroke: #000000; stroke-width: 0.8"/>
      </g>
     </g>
     <g id="line2d_48">
      <g>
       <use xlink:href="#m62976bfcc4" x="170.079777" y="7.2" style="stroke: #000000; stroke-width: 0.8"/>
      </g>
     </g>
    </g>
    <g id="xtick_25">
     <g id="line2d_49">
      <g>
       <use xlink:href="#m3e88398e21" x="177.384401" y="188.790661" style="stroke: #000000; stroke-width: 0.8"/>
      </g>
     </g>
     <g id="line2d_50">
      <g>
       <use xlink:href="#m62976bfcc4" x="177.384401" y="7.2" style="stroke: #000000; stroke-width: 0.8"/>
      </g>
     </g>
    </g>
    <g id="xtick_26">
     <g id="line2d_51">
      <g>
       <use xlink:href="#m3e88398e21" x="184.689024" y="188.790661" style="stroke: #000000; stroke-width: 0.8"/>
      </g>
     </g>
     <g id="line2d_52">
      <g>
       <use xlink:href="#m62976bfcc4" x="184.689024" y="7.2" style="stroke: #000000; stroke-width: 0.8"/>
      </g>
     </g>
    </g>
    <g id="xtick_27">
     <g id="line2d_53">
      <g>
       <use xlink:href="#m3e88398e21" x="191.993648" y="188.790661" style="stroke: #000000; stroke-width: 0.8"/>
      </g>
     </g>
     <g id="line2d_54">
      <g>
       <use xlink:href="#m62976bfcc4" x="191.993648" y="7.2" style="stroke: #000000; stroke-width: 0.8"/>
      </g>
     </g>
    </g>
    <g id="xtick_28">
     <g id="line2d_55">
      <g>
       <use xlink:href="#m3e88398e21" x="206.602896" y="188.790661" style="stroke: #000000; stroke-width: 0.8"/>
      </g>
     </g>
     <g id="line2d_56">
      <g>
       <use xlink:href="#m62976bfcc4" x="206.602896" y="7.2" style="stroke: #000000; stroke-width: 0.8"/>
      </g>
     </g>
    </g>
    <g id="xtick_29">
     <g id="line2d_57">
      <g>
       <use xlink:href="#m3e88398e21" x="213.90752" y="188.790661" style="stroke: #000000; stroke-width: 0.8"/>
      </g>
     </g>
     <g id="line2d_58">
      <g>
       <use xlink:href="#m62976bfcc4" x="213.90752" y="7.2" style="stroke: #000000; stroke-width: 0.8"/>
      </g>
     </g>
    </g>
    <g id="xtick_30">
     <g id="line2d_59">
      <g>
       <use xlink:href="#m3e88398e21" x="221.212143" y="188.790661" style="stroke: #000000; stroke-width: 0.8"/>
      </g>
     </g>
     <g id="line2d_60">
      <g>
       <use xlink:href="#m62976bfcc4" x="221.212143" y="7.2" style="stroke: #000000; stroke-width: 0.8"/>
      </g>
     </g>
    </g>
    <g id="xtick_31">
     <g id="line2d_61">
      <g>
       <use xlink:href="#m3e88398e21" x="228.516767" y="188.790661" style="stroke: #000000; stroke-width: 0.8"/>
      </g>
     </g>
     <g id="line2d_62">
      <g>
       <use xlink:href="#m62976bfcc4" x="228.516767" y="7.2" style="stroke: #000000; stroke-width: 0.8"/>
      </g>
     </g>
    </g>
    <g id="xtick_32">
     <g id="line2d_63">
      <g>
       <use xlink:href="#m3e88398e21" x="243.126015" y="188.790661" style="stroke: #000000; stroke-width: 0.8"/>
      </g>
     </g>
     <g id="line2d_64">
      <g>
       <use xlink:href="#m62976bfcc4" x="243.126015" y="7.2" style="stroke: #000000; stroke-width: 0.8"/>
      </g>
     </g>
    </g>
    <g id="xtick_33">
     <g id="line2d_65">
      <g>
       <use xlink:href="#m3e88398e21" x="250.430639" y="188.790661" style="stroke: #000000; stroke-width: 0.8"/>
      </g>
     </g>
     <g id="line2d_66">
      <g>
       <use xlink:href="#m62976bfcc4" x="250.430639" y="7.2" style="stroke: #000000; stroke-width: 0.8"/>
      </g>
     </g>
    </g>
    <g id="xtick_34">
     <g id="line2d_67">
      <g>
       <use xlink:href="#m3e88398e21" x="257.735262" y="188.790661" style="stroke: #000000; stroke-width: 0.8"/>
      </g>
     </g>
     <g id="line2d_68">
      <g>
       <use xlink:href="#m62976bfcc4" x="257.735262" y="7.2" style="stroke: #000000; stroke-width: 0.8"/>
      </g>
     </g>
    </g>
    <g id="xtick_35">
     <g id="line2d_69">
      <g>
       <use xlink:href="#m3e88398e21" x="265.039886" y="188.790661" style="stroke: #000000; stroke-width: 0.8"/>
      </g>
     </g>
     <g id="line2d_70">
      <g>
       <use xlink:href="#m62976bfcc4" x="265.039886" y="7.2" style="stroke: #000000; stroke-width: 0.8"/>
      </g>
     </g>
    </g>
    <g id="xtick_36">
     <g id="line2d_71">
      <g>
       <use xlink:href="#m3e88398e21" x="279.649134" y="188.790661" style="stroke: #000000; stroke-width: 0.8"/>
      </g>
     </g>
     <g id="line2d_72">
      <g>
       <use xlink:href="#m62976bfcc4" x="279.649134" y="7.2" style="stroke: #000000; stroke-width: 0.8"/>
      </g>
     </g>
    </g>
    <g id="xtick_37">
     <g id="line2d_73">
      <g>
       <use xlink:href="#m3e88398e21" x="286.953757" y="188.790661" style="stroke: #000000; stroke-width: 0.8"/>
      </g>
     </g>
     <g id="line2d_74">
      <g>
       <use xlink:href="#m62976bfcc4" x="286.953757" y="7.2" style="stroke: #000000; stroke-width: 0.8"/>
      </g>
     </g>
    </g>
    <g id="xtick_38">
     <g id="line2d_75">
      <g>
       <use xlink:href="#m3e88398e21" x="294.258381" y="188.790661" style="stroke: #000000; stroke-width: 0.8"/>
      </g>
     </g>
     <g id="line2d_76">
      <g>
       <use xlink:href="#m62976bfcc4" x="294.258381" y="7.2" style="stroke: #000000; stroke-width: 0.8"/>
      </g>
     </g>
    </g>
    <g id="xtick_39">
     <g id="line2d_77">
      <g>
       <use xlink:href="#m3e88398e21" x="301.563005" y="188.790661" style="stroke: #000000; stroke-width: 0.8"/>
      </g>
     </g>
     <g id="line2d_78">
      <g>
       <use xlink:href="#m62976bfcc4" x="301.563005" y="7.2" style="stroke: #000000; stroke-width: 0.8"/>
      </g>
     </g>
    </g>
    <g id="xtick_40">
     <g id="line2d_79">
      <g>
       <use xlink:href="#m3e88398e21" x="316.172253" y="188.790661" style="stroke: #000000; stroke-width: 0.8"/>
      </g>
     </g>
     <g id="line2d_80">
      <g>
       <use xlink:href="#m62976bfcc4" x="316.172253" y="7.2" style="stroke: #000000; stroke-width: 0.8"/>
      </g>
     </g>
    </g>
    <g id="xtick_41">
     <g id="line2d_81">
      <g>
       <use xlink:href="#m3e88398e21" x="323.476876" y="188.790661" style="stroke: #000000; stroke-width: 0.8"/>
      </g>
     </g>
     <g id="line2d_82">
      <g>
       <use xlink:href="#m62976bfcc4" x="323.476876" y="7.2" style="stroke: #000000; stroke-width: 0.8"/>
      </g>
     </g>
    </g>
    <g id="xtick_42">
     <g id="line2d_83">
      <g>
       <use xlink:href="#m3e88398e21" x="330.7815" y="188.790661" style="stroke: #000000; stroke-width: 0.8"/>
      </g>
     </g>
     <g id="line2d_84">
      <g>
       <use xlink:href="#m62976bfcc4" x="330.7815" y="7.2" style="stroke: #000000; stroke-width: 0.8"/>
      </g>
     </g>
    </g>
    <g id="xtick_43">
     <g id="line2d_85">
      <g>
       <use xlink:href="#m3e88398e21" x="338.086124" y="188.790661" style="stroke: #000000; stroke-width: 0.8"/>
      </g>
     </g>
     <g id="line2d_86">
      <g>
       <use xlink:href="#m62976bfcc4" x="338.086124" y="7.2" style="stroke: #000000; stroke-width: 0.8"/>
      </g>
     </g>
    </g>
    <g id="xtick_44">
     <g id="line2d_87">
      <g>
       <use xlink:href="#m3e88398e21" x="352.695372" y="188.790661" style="stroke: #000000; stroke-width: 0.8"/>
      </g>
     </g>
     <g id="line2d_88">
      <g>
       <use xlink:href="#m62976bfcc4" x="352.695372" y="7.2" style="stroke: #000000; stroke-width: 0.8"/>
      </g>
     </g>
    </g>
    <g id="xtick_45">
     <g id="line2d_89">
      <g>
       <use xlink:href="#m3e88398e21" x="359.999995" y="188.790661" style="stroke: #000000; stroke-width: 0.8"/>
      </g>
     </g>
     <g id="line2d_90">
      <g>
       <use xlink:href="#m62976bfcc4" x="359.999995" y="7.2" style="stroke: #000000; stroke-width: 0.8"/>
      </g>
     </g>
    </g>
    <g id="text_10">
     <!-- $K_S^0$ Rest Frame Lifetime (ns) -->
     <g transform="translate(135.588478 213.255957) scale(0.1 -0.1)">
      <defs>
       <path id="CMMI12-4b" d="M 3200 2571 
C 3194 2590 3168 2641 3168 2661 
C 3168 2667 3174 2673 3283 2756 
L 3904 3242 
C 4762 3905 5043 4128 5485 4167 
C 5530 4167 5594 4167 5594 4282 
C 5594 4320 5574 4352 5523 4352 
C 5453 4352 5376 4352 5306 4352 
L 5062 4352 
C 4864 4352 4653 4352 4461 4352 
C 4416 4352 4339 4352 4339 4237 
C 4339 4173 4384 4167 4422 4167 
C 4493 4160 4576 4135 4576 4046 
C 4576 3919 4384 3765 4333 3727 
L 1824 1784 
L 2355 3887 
C 2413 4103 2426 4167 2880 4167 
C 3002 4167 3059 4167 3059 4288 
C 3059 4352 2995 4352 2963 4352 
C 2848 4352 2714 4352 2592 4352 
L 1837 4352 
C 1722 4352 1581 4352 1466 4352 
C 1414 4352 1344 4352 1344 4231 
C 1344 4167 1402 4167 1498 4167 
C 1888 4167 1888 4116 1888 4046 
C 1888 4034 1888 3995 1862 3899 
L 998 472 
C 941 249 928 185 480 185 
C 358 185 294 185 294 70 
C 294 0 352 0 390 0 
C 512 0 640 0 762 0 
L 1510 0 
C 1632 0 1766 0 1888 0 
C 1939 0 2010 0 2010 121 
C 2010 185 1952 185 1856 185 
C 1466 185 1466 236 1466 300 
C 1466 345 1504 504 1530 606 
L 1779 1593 
L 2752 2351 
C 2938 1943 3277 1128 3539 505 
C 3558 466 3571 428 3571 383 
C 3571 185 3315 185 3258 185 
C 3200 185 3136 185 3136 64 
C 3136 0 3206 0 3226 0 
C 3450 0 3686 0 3910 0 
L 4218 0 
C 4314 0 4422 0 4518 0 
C 4557 0 4627 0 4627 121 
C 4627 185 4570 185 4506 185 
C 4269 185 4186 236 4090 466 
L 3200 2571 
z
" transform="scale(0.015625)"/>
       <path id="CMMI12-53" d="M 4064 4423 
C 4064 4480 4019 4480 4006 4480 
C 3981 4480 3974 4474 3898 4378 
C 3859 4333 3597 4001 3590 3995 
C 3379 4410 2957 4480 2688 4480 
C 1875 4480 1139 3743 1139 3025 
C 1139 2549 1427 2269 1741 2161 
C 1811 2135 2189 2033 2381 1989 
C 2707 1900 2790 1875 2925 1735 
C 2950 1703 3078 1557 3078 1258 
C 3078 667 2528 57 1888 57 
C 1363 57 781 280 781 991 
C 781 1112 806 1265 826 1328 
C 826 1348 832 1378 832 1391 
C 832 1417 819 1449 768 1449 
C 710 1449 704 1436 678 1328 
L 352 24 
C 352 18 326 -64 326 -71 
C 326 -128 378 -128 390 -128 
C 416 -128 422 -122 499 -26 
L 794 356 
C 947 126 1280 -128 1875 -128 
C 2701 -128 3456 666 3456 1460 
C 3456 1728 3392 1963 3149 2197 
C 3014 2331 2899 2363 2310 2516 
C 1882 2630 1824 2649 1709 2751 
C 1600 2858 1517 3011 1517 3227 
C 1517 3761 2061 4308 2669 4308 
C 3296 4308 3590 3926 3590 3323 
C 3590 3158 3558 2986 3558 2961 
C 3558 2903 3610 2903 3629 2903 
C 3686 2903 3693 2922 3718 3024 
L 4064 4423 
z
" transform="scale(0.015625)"/>
       <path id="CMR17-52" d="M 2509 2146 
C 3117 2268 3629 2676 3629 3186 
C 3629 3785 2950 4326 2054 4326 
L 333 4326 
L 333 4160 
C 774 4160 845 4160 845 3873 
L 845 415 
C 845 128 774 128 333 128 
L 333 -26 
C 518 -26 851 -26 1050 -26 
C 1248 -26 1581 -26 1766 -26 
L 1766 128 
C 1325 128 1254 128 1254 417 
L 1254 2112 
L 2003 2112 
C 2368 2112 2573 1964 2662 1881 
C 2918 1632 2918 1459 2918 1024 
C 2918 595 2918 377 3110 160 
C 3354 -102 3680 -128 3821 -128 
C 4294 -128 4365 396 4365 503 
C 4365 540 4365 585 4307 585 
C 4256 585 4250 547 4250 522 
C 4218 112 4032 -26 3834 -26 
C 3482 -26 3443 375 3405 764 
C 3386 898 3373 993 3360 1133 
C 3322 1452 3270 1917 2509 2146 
z
M 1984 2214 
L 1254 2214 
L 1254 3913 
C 1254 4129 1267 4160 1523 4160 
L 1990 4160 
C 2522 4160 3142 3977 3142 3190 
C 3142 2372 2464 2214 1984 2214 
z
" transform="scale(0.015625)"/>
       <path id="CMR17-65" d="M 2438 1472 
C 2464 1498 2464 1511 2464 1576 
C 2464 2238 2118 2816 1389 2816 
C 710 2816 173 2169 173 1383 
C 173 551 781 -64 1459 -64 
C 2176 -64 2458 607 2458 740 
C 2458 784 2419 784 2406 784 
C 2362 784 2355 771 2330 696 
C 2189 265 1837 51 1504 51 
C 1229 51 954 203 781 480 
C 582 803 582 1176 582 1472 
L 2438 1472 
z
M 589 1568 
C 634 2505 1126 2714 1382 2714 
C 1818 2714 2112 2297 2118 1568 
L 589 1568 
z
" transform="scale(0.015625)"/>
       <path id="CMR17-73" d="M 1978 2697 
C 1978 2813 1971 2819 1933 2819 
C 1907 2819 1901 2813 1824 2717 
C 1805 2691 1747 2626 1728 2601 
C 1523 2819 1235 2819 1126 2819 
C 416 2819 160 2447 160 2076 
C 160 1498 813 1365 998 1325 
C 1402 1243 1542 1217 1677 1101 
C 1760 1025 1901 884 1901 654 
C 1901 384 1747 38 1158 38 
C 602 38 403 460 288 1021 
C 269 1110 269 1117 218 1117 
C 166 1117 160 1110 160 983 
L 160 63 
C 160 -51 166 -58 205 -58 
C 237 -58 243 -51 275 0 
C 314 57 410 211 448 276 
C 576 103 800 -64 1158 -64 
C 1792 -64 2131 283 2131 784 
C 2131 1112 1958 1285 1875 1362 
C 1683 1561 1459 1606 1190 1657 
C 838 1735 390 1825 390 2217 
C 390 2383 480 2737 1126 2737 
C 1811 2737 1850 2094 1862 1888 
C 1869 1856 1901 1849 1920 1849 
C 1978 1849 1978 1869 1978 1978 
L 1978 2697 
z
" transform="scale(0.015625)"/>
       <path id="CMR17-74" d="M 966 2560 
L 1862 2560 
L 1862 2725 
L 966 2725 
L 966 3904 
L 851 3904 
C 838 3245 614 2668 70 2668 
L 70 2560 
L 627 2560 
L 627 771 
C 627 650 627 -64 1370 -64 
C 1747 -64 1965 306 1965 777 
L 1965 1140 
L 1850 1140 
L 1850 783 
C 1850 344 1677 51 1408 51 
C 1222 51 966 178 966 758 
L 966 2560 
z
" transform="scale(0.015625)"/>
       <path id="CMR17-46" d="M 3482 4325 
L 326 4325 
L 326 4160 
C 768 4160 838 4160 838 3874 
L 838 446 
C 838 160 768 160 326 160 
L 326 0 
C 512 0 870 0 1069 0 
C 1331 0 1638 0 1901 0 
L 1901 160 
L 1760 160 
C 1274 160 1261 223 1261 452 
L 1261 2075 
L 1837 2075 
C 2432 2075 2490 1865 2490 1332 
L 2605 1332 
L 2605 2987 
L 2490 2987 
C 2490 2450 2432 2240 1837 2240 
L 1261 2240 
L 1261 3911 
C 1261 4128 1274 4160 1530 4160 
L 2355 4160 
C 3322 4160 3430 3765 3520 2916 
L 3635 2916 
L 3482 4325 
z
" transform="scale(0.015625)"/>
       <path id="CMR17-72" d="M 960 1497 
C 960 2112 1222 2688 1702 2688 
C 1747 2688 1792 2682 1837 2662 
C 1837 2662 1696 2617 1696 2452 
C 1696 2298 1818 2234 1914 2234 
C 1990 2234 2131 2279 2131 2458 
C 2131 2663 1926 2790 1709 2790 
C 1222 2790 1011 2317 947 2093 
L 941 2093 
L 941 2790 
L 198 2720 
L 198 2554 
C 576 2554 634 2515 634 2208 
L 634 428 
C 634 184 608 153 198 153 
L 198 -13 
C 352 0 646 0 813 0 
C 998 0 1325 0 1498 -13 
L 1498 153 
C 1037 153 960 153 960 440 
L 960 1497 
z
" transform="scale(0.015625)"/>
       <path id="CMR17-61" d="M 2304 1653 
C 2304 2072 2304 2294 2035 2543 
C 1798 2752 1523 2816 1306 2816 
C 800 2816 435 2407 435 1971 
C 435 1728 627 1728 666 1728 
C 749 1728 896 1778 896 1954 
C 896 2112 774 2181 666 2181 
C 640 2181 608 2174 589 2168 
C 723 2592 1069 2714 1293 2714 
C 1613 2714 1965 2429 1965 1885 
L 1965 1600 
C 1587 1600 1133 1549 774 1357 
C 371 1133 256 813 256 570 
C 256 77 832 -64 1171 -64 
C 1523 -64 1850 139 1990 511 
C 2003 233 2182 -18 2464 -18 
C 2598 -18 2938 70 2938 567 
L 2938 920 
L 2822 920 
L 2822 562 
C 2822 178 2650 128 2566 128 
C 2304 128 2304 458 2304 738 
L 2304 1653 
z
M 1965 870 
C 1965 317 1568 38 1216 38 
C 896 38 646 275 646 570 
C 646 761 730 1100 1101 1305 
C 1408 1478 1760 1504 1965 1504 
L 1965 870 
z
" transform="scale(0.015625)"/>
       <path id="CMR17-6d" d="M 4326 1933 
C 4326 2252 4269 2790 3507 2790 
C 3072 2790 2771 2496 2656 2151 
L 2650 2151 
C 2573 2676 2195 2790 1837 2790 
C 1331 2790 1069 2400 973 2144 
L 966 2144 
L 966 2790 
L 211 2720 
L 211 2554 
C 589 2554 646 2515 646 2208 
L 646 428 
C 646 184 621 153 211 153 
L 211 -13 
C 365 0 646 0 813 0 
C 979 0 1267 0 1421 -13 
L 1421 153 
C 1011 153 986 178 986 428 
L 986 1658 
C 986 2247 1344 2688 1792 2688 
C 2266 2688 2317 2266 2317 1958 
L 2317 428 
C 2317 184 2291 153 1882 153 
L 1882 -13 
C 2035 0 2317 0 2483 0 
C 2650 0 2938 0 3091 -13 
L 3091 153 
C 2682 153 2656 178 2656 428 
L 2656 1658 
C 2656 2247 3014 2688 3462 2688 
C 3936 2688 3987 2266 3987 1958 
L 3987 428 
C 3987 184 3962 153 3552 153 
L 3552 -13 
C 3706 0 3987 0 4154 0 
C 4320 0 4608 0 4762 -13 
L 4762 153 
C 4352 153 4326 178 4326 428 
L 4326 1933 
z
" transform="scale(0.015625)"/>
       <path id="CMR17-4c" d="M 3469 1615 
L 3354 1615 
C 3302 983 3219 166 2125 166 
L 1530 166 
C 1274 166 1261 197 1261 414 
L 1261 3898 
C 1261 4129 1274 4192 1760 4192 
L 1901 4192 
L 1901 4352 
C 1638 4352 1331 4352 1069 4352 
C 870 4352 512 4352 326 4352 
L 326 4192 
C 768 4192 838 4192 838 3905 
L 838 452 
C 838 166 768 166 326 166 
L 326 0 
L 3315 0 
L 3469 1615 
z
" transform="scale(0.015625)"/>
       <path id="CMR17-69" d="M 992 3909 
C 992 4049 877 4170 730 4170 
C 589 4170 467 4056 467 3909 
C 467 3769 582 3648 730 3648 
C 870 3648 992 3763 992 3909 
z
M 243 2706 
L 243 2541 
C 602 2541 653 2502 653 2197 
L 653 427 
C 653 184 627 153 218 153 
L 218 -13 
C 371 0 646 0 806 0 
C 960 0 1222 0 1370 -13 
L 1370 153 
C 992 153 979 191 979 420 
L 979 2776 
L 243 2706 
z
" transform="scale(0.015625)"/>
       <path id="CMR17-66" d="M 979 2560 
L 1709 2560 
L 1709 2725 
L 966 2725 
L 966 3494 
C 966 4022 1235 4352 1510 4352 
C 1594 4352 1690 4327 1754 4282 
C 1702 4269 1568 4225 1568 4067 
C 1568 3901 1696 3850 1786 3850 
C 1875 3850 2003 3901 2003 4067 
C 2003 4308 1773 4454 1517 4454 
C 1152 4454 653 4156 653 3481 
L 653 2725 
L 141 2725 
L 141 2560 
L 653 2560 
L 653 427 
C 653 184 627 153 218 153 
L 218 -13 
C 371 0 666 0 832 0 
C 1018 0 1344 0 1517 -13 
L 1517 153 
C 1056 153 979 153 979 439 
L 979 2560 
z
" transform="scale(0.015625)"/>
       <path id="CMR17-28" d="M 1958 -1561 
C 1958 -1555 1958 -1542 1939 -1523 
C 1645 -1224 858 -407 858 1581 
C 858 3569 1632 4379 1946 4697 
C 1946 4704 1958 4717 1958 4736 
C 1958 4755 1939 4768 1914 4768 
C 1843 4768 1299 4296 986 3594 
C 666 2887 576 2199 576 1588 
C 576 1128 621 351 1005 -471 
C 1312 -1135 1837 -1600 1914 -1600 
C 1946 -1600 1958 -1587 1958 -1561 
z
" transform="scale(0.015625)"/>
       <path id="CMR17-6e" d="M 2656 1933 
C 2656 2259 2592 2790 1837 2790 
C 1331 2790 1069 2400 973 2144 
L 966 2144 
L 966 2790 
L 211 2720 
L 211 2554 
C 589 2554 646 2515 646 2208 
L 646 428 
C 646 184 621 153 211 153 
L 211 -13 
C 365 0 646 0 813 0 
C 979 0 1267 0 1421 -13 
L 1421 153 
C 1011 153 986 178 986 428 
L 986 1658 
C 986 2247 1344 2688 1792 2688 
C 2266 2688 2317 2266 2317 1958 
L 2317 428 
C 2317 184 2291 153 1882 153 
L 1882 -13 
C 2035 0 2317 0 2483 0 
C 2650 0 2938 0 3091 -13 
L 3091 153 
C 2682 153 2656 178 2656 428 
L 2656 1933 
z
" transform="scale(0.015625)"/>
       <path id="CMR17-29" d="M 1683 1581 
C 1683 2040 1638 2817 1254 3639 
C 947 4303 422 4768 346 4768 
C 326 4768 301 4761 301 4729 
C 301 4717 307 4710 314 4697 
C 621 4378 1402 3568 1402 1584 
C 1402 -407 627 -1217 314 -1537 
C 307 -1549 301 -1556 301 -1568 
C 301 -1600 326 -1600 346 -1600 
C 416 -1600 960 -1128 1274 -426 
C 1594 281 1683 969 1683 1581 
z
" transform="scale(0.015625)"/>
      </defs>
      <use xlink:href="#CMMI12-4b" transform="scale(0.996264)"/>
      <use xlink:href="#CMR17-30" transform="translate(90.147421 36.153639) scale(0.697382)"/>
      <use xlink:href="#CMMI12-53" transform="translate(82.992611 -27.44057) scale(0.697382)"/>
      <use xlink:href="#CMR17-52" transform="translate(159.622607 0) scale(0.996264)"/>
      <use xlink:href="#CMR17-65" transform="translate(227.413709 0) scale(0.996264)"/>
      <use xlink:href="#CMR17-73" transform="translate(267.899369 0) scale(0.996264)"/>
      <use xlink:href="#CMR17-74" transform="translate(303.700707 0) scale(0.996264)"/>
      <use xlink:href="#CMR17-46" transform="translate(369.057441 0) scale(0.996264)"/>
      <use xlink:href="#CMR17-72" transform="translate(421.234032 0) scale(0.996264)"/>
      <use xlink:href="#CMR17-61" transform="translate(456.5148 0) scale(0.996264)"/>
      <use xlink:href="#CMR17-6d" transform="translate(502.205277 0) scale(0.996264)"/>
      <use xlink:href="#CMR17-65" transform="translate(579.124867 0) scale(0.996264)"/>
      <use xlink:href="#CMR17-4c" transform="translate(649.686494 0) scale(0.996264)"/>
      <use xlink:href="#CMR17-69" transform="translate(707.067901 0) scale(0.996264)"/>
      <use xlink:href="#CMR17-66" transform="translate(731.93896 0) scale(0.996264)"/>
      <use xlink:href="#CMR17-65" transform="translate(759.412472 0) scale(0.996264)"/>
      <use xlink:href="#CMR17-74" transform="translate(799.898133 0) scale(0.996264)"/>
      <use xlink:href="#CMR17-69" transform="translate(835.178901 0) scale(0.996264)"/>
      <use xlink:href="#CMR17-6d" transform="translate(860.049959 0) scale(0.996264)"/>
      <use xlink:href="#CMR17-65" transform="translate(936.969549 0) scale(0.996264)"/>
      <use xlink:href="#CMR17-28" transform="translate(1007.531176 0) scale(0.996264)"/>
      <use xlink:href="#CMR17-6e" transform="translate(1042.811944 0) scale(0.996264)"/>
      <use xlink:href="#CMR17-73" transform="translate(1093.707313 0) scale(0.996264)"/>
      <use xlink:href="#CMR17-29" transform="translate(1129.508651 0) scale(0.996264)"/>
     </g>
    </g>
   </g>
   <g id="matplotlib.axis_2">
    <g id="ytick_1">
     <g id="line2d_91">
      <defs>
       <path id="m1f7a56652b" d="M 0 0 
L 4 0 
" style="stroke: #000000; stroke-width: 1.2"/>
      </defs>
      <g>
       <use xlink:href="#m1f7a56652b" x="38.596548" y="188.790661" style="stroke: #000000; stroke-width: 1.2"/>
      </g>
     </g>
     <g id="line2d_92">
      <defs>
       <path id="m9c435eb31c" d="M 0 0 
L -4 0 
" style="stroke: #000000; stroke-width: 1.2"/>
      </defs>
      <g>
       <use xlink:href="#m9c435eb31c" x="360" y="188.790661" style="stroke: #000000; stroke-width: 1.2"/>
      </g>
     </g>
     <g id="text_11">
      <!-- $\mathdefault{10^{1}}$ -->
      <g transform="translate(21.16264 192.24991) scale(0.1 -0.1)">
       <use xlink:href="#CMR17-31" transform="scale(0.996264)"/>
       <use xlink:href="#CMR17-30" transform="translate(45.690477 0) scale(0.996264)"/>
       <use xlink:href="#CMR17-31" transform="translate(91.380954 36.153639) scale(0.697382)"/>
      </g>
     </g>
    </g>
    <g id="ytick_2">
     <g id="line2d_93">
      <g>
       <use xlink:href="#m1f7a56652b" x="38.596548" y="132.057497" style="stroke: #000000; stroke-width: 1.2"/>
      </g>
     </g>
     <g id="line2d_94">
      <g>
       <use xlink:href="#m9c435eb31c" x="360" y="132.057497" style="stroke: #000000; stroke-width: 1.2"/>
      </g>
     </g>
     <g id="text_12">
      <!-- $\mathdefault{10^{2}}$ -->
      <g transform="translate(21.16264 135.516747) scale(0.1 -0.1)">
       <use xlink:href="#CMR17-31" transform="scale(0.996264)"/>
       <use xlink:href="#CMR17-30" transform="translate(45.690477 0) scale(0.996264)"/>
       <use xlink:href="#CMR17-32" transform="translate(91.380954 36.153639) scale(0.697382)"/>
      </g>
     </g>
    </g>
    <g id="ytick_3">
     <g id="line2d_95">
      <g>
       <use xlink:href="#m1f7a56652b" x="38.596548" y="75.324334" style="stroke: #000000; stroke-width: 1.2"/>
      </g>
     </g>
     <g id="line2d_96">
      <g>
       <use xlink:href="#m9c435eb31c" x="360" y="75.324334" style="stroke: #000000; stroke-width: 1.2"/>
      </g>
     </g>
     <g id="text_13">
      <!-- $\mathdefault{10^{3}}$ -->
      <g transform="translate(21.16264 78.783583) scale(0.1 -0.1)">
       <defs>
        <path id="CMR17-33" d="M 1414 2157 
C 1984 2157 2234 1662 2234 1090 
C 2234 320 1824 25 1453 25 
C 1114 25 563 194 390 693 
C 422 680 454 680 486 680 
C 640 680 755 782 755 948 
C 755 1133 614 1216 486 1216 
C 378 1216 211 1165 211 926 
C 211 335 787 -128 1466 -128 
C 2176 -128 2720 430 2720 1085 
C 2720 1707 2208 2157 1600 2227 
C 2086 2328 2554 2756 2554 3329 
C 2554 3820 2048 4179 1472 4179 
C 890 4179 378 3829 378 3329 
C 378 3110 544 3072 627 3072 
C 762 3072 877 3155 877 3321 
C 877 3486 762 3569 627 3569 
C 602 3569 570 3569 544 3557 
C 730 3959 1235 4032 1459 4032 
C 1683 4032 2106 3925 2106 3320 
C 2106 3143 2080 2828 1862 2550 
C 1670 2304 1453 2304 1242 2284 
C 1210 2284 1062 2269 1037 2269 
C 992 2263 966 2257 966 2208 
C 966 2163 973 2157 1101 2157 
L 1414 2157 
z
" transform="scale(0.015625)"/>
       </defs>
       <use xlink:href="#CMR17-31" transform="scale(0.996264)"/>
       <use xlink:href="#CMR17-30" transform="translate(45.690477 0) scale(0.996264)"/>
       <use xlink:href="#CMR17-33" transform="translate(91.380954 36.153639) scale(0.697382)"/>
      </g>
     </g>
    </g>
    <g id="ytick_4">
     <g id="line2d_97">
      <g>
       <use xlink:href="#m1f7a56652b" x="38.596548" y="18.59117" style="stroke: #000000; stroke-width: 1.2"/>
      </g>
     </g>
     <g id="line2d_98">
      <g>
       <use xlink:href="#m9c435eb31c" x="360" y="18.59117" style="stroke: #000000; stroke-width: 1.2"/>
      </g>
     </g>
     <g id="text_14">
      <!-- $\mathdefault{10^{4}}$ -->
      <g transform="translate(21.16264 22.050419) scale(0.1 -0.1)">
       <defs>
        <path id="CMR17-34" d="M 2150 4122 
C 2150 4256 2144 4256 2029 4256 
L 128 1254 
L 128 1088 
L 1779 1088 
L 1779 457 
C 1779 224 1766 160 1318 160 
L 1197 160 
L 1197 0 
C 1402 0 1747 0 1965 0 
C 2182 0 2528 0 2733 0 
L 2733 160 
L 2611 160 
C 2163 160 2150 224 2150 457 
L 2150 1088 
L 2803 1088 
L 2803 1254 
L 2150 1254 
L 2150 4122 
z
M 1798 3703 
L 1798 1254 
L 256 1254 
L 1798 3703 
z
" transform="scale(0.015625)"/>
       </defs>
       <use xlink:href="#CMR17-31" transform="scale(0.996264)"/>
       <use xlink:href="#CMR17-30" transform="translate(45.690477 0) scale(0.996264)"/>
       <use xlink:href="#CMR17-34" transform="translate(91.380954 36.153639) scale(0.697382)"/>
      </g>
     </g>
    </g>
    <g id="ytick_5">
     <g id="line2d_99">
      <defs>
       <path id="m1dbf91c5f8" d="M 0 0 
L 2.5 0 
" style="stroke: #000000; stroke-width: 0.8"/>
      </defs>
      <g>
       <use xlink:href="#m1dbf91c5f8" x="38.596548" y="171.712277" style="stroke: #000000; stroke-width: 0.8"/>
      </g>
     </g>
     <g id="line2d_100">
      <defs>
       <path id="m3f5ae9d9f7" d="M 0 0 
L -2.5 0 
" style="stroke: #000000; stroke-width: 0.8"/>
      </defs>
      <g>
       <use xlink:href="#m3f5ae9d9f7" x="360" y="171.712277" style="stroke: #000000; stroke-width: 0.8"/>
      </g>
     </g>
    </g>
    <g id="ytick_6">
     <g id="line2d_101">
      <g>
       <use xlink:href="#m1dbf91c5f8" x="38.596548" y="161.722063" style="stroke: #000000; stroke-width: 0.8"/>
      </g>
     </g>
     <g id="line2d_102">
      <g>
       <use xlink:href="#m3f5ae9d9f7" x="360" y="161.722063" style="stroke: #000000; stroke-width: 0.8"/>
      </g>
     </g>
    </g>
    <g id="ytick_7">
     <g id="line2d_103">
      <g>
       <use xlink:href="#m1dbf91c5f8" x="38.596548" y="154.633893" style="stroke: #000000; stroke-width: 0.8"/>
      </g>
     </g>
     <g id="line2d_104">
      <g>
       <use xlink:href="#m3f5ae9d9f7" x="360" y="154.633893" style="stroke: #000000; stroke-width: 0.8"/>
      </g>
     </g>
    </g>
    <g id="ytick_8">
     <g id="line2d_105">
      <g>
       <use xlink:href="#m1dbf91c5f8" x="38.596548" y="149.135881" style="stroke: #000000; stroke-width: 0.8"/>
      </g>
     </g>
     <g id="line2d_106">
      <g>
       <use xlink:href="#m3f5ae9d9f7" x="360" y="149.135881" style="stroke: #000000; stroke-width: 0.8"/>
      </g>
     </g>
    </g>
    <g id="ytick_9">
     <g id="line2d_107">
      <g>
       <use xlink:href="#m1dbf91c5f8" x="38.596548" y="144.643679" style="stroke: #000000; stroke-width: 0.8"/>
      </g>
     </g>
     <g id="line2d_108">
      <g>
       <use xlink:href="#m3f5ae9d9f7" x="360" y="144.643679" style="stroke: #000000; stroke-width: 0.8"/>
      </g>
     </g>
    </g>
    <g id="ytick_10">
     <g id="line2d_109">
      <g>
       <use xlink:href="#m1dbf91c5f8" x="38.596548" y="140.845576" style="stroke: #000000; stroke-width: 0.8"/>
      </g>
     </g>
     <g id="line2d_110">
      <g>
       <use xlink:href="#m3f5ae9d9f7" x="360" y="140.845576" style="stroke: #000000; stroke-width: 0.8"/>
      </g>
     </g>
    </g>
    <g id="ytick_11">
     <g id="line2d_111">
      <g>
       <use xlink:href="#m1dbf91c5f8" x="38.596548" y="137.555509" style="stroke: #000000; stroke-width: 0.8"/>
      </g>
     </g>
     <g id="line2d_112">
      <g>
       <use xlink:href="#m3f5ae9d9f7" x="360" y="137.555509" style="stroke: #000000; stroke-width: 0.8"/>
      </g>
     </g>
    </g>
    <g id="ytick_12">
     <g id="line2d_113">
      <g>
       <use xlink:href="#m1dbf91c5f8" x="38.596548" y="134.653465" style="stroke: #000000; stroke-width: 0.8"/>
      </g>
     </g>
     <g id="line2d_114">
      <g>
       <use xlink:href="#m3f5ae9d9f7" x="360" y="134.653465" style="stroke: #000000; stroke-width: 0.8"/>
      </g>
     </g>
    </g>
    <g id="ytick_13">
     <g id="line2d_115">
      <g>
       <use xlink:href="#m1dbf91c5f8" x="38.596548" y="114.979113" style="stroke: #000000; stroke-width: 0.8"/>
      </g>
     </g>
     <g id="line2d_116">
      <g>
       <use xlink:href="#m3f5ae9d9f7" x="360" y="114.979113" style="stroke: #000000; stroke-width: 0.8"/>
      </g>
     </g>
    </g>
    <g id="ytick_14">
     <g id="line2d_117">
      <g>
       <use xlink:href="#m1dbf91c5f8" x="38.596548" y="104.988899" style="stroke: #000000; stroke-width: 0.8"/>
      </g>
     </g>
     <g id="line2d_118">
      <g>
       <use xlink:href="#m3f5ae9d9f7" x="360" y="104.988899" style="stroke: #000000; stroke-width: 0.8"/>
      </g>
     </g>
    </g>
    <g id="ytick_15">
     <g id="line2d_119">
      <g>
       <use xlink:href="#m1dbf91c5f8" x="38.596548" y="97.900729" style="stroke: #000000; stroke-width: 0.8"/>
      </g>
     </g>
     <g id="line2d_120">
      <g>
       <use xlink:href="#m3f5ae9d9f7" x="360" y="97.900729" style="stroke: #000000; stroke-width: 0.8"/>
      </g>
     </g>
    </g>
    <g id="ytick_16">
     <g id="line2d_121">
      <g>
       <use xlink:href="#m1dbf91c5f8" x="38.596548" y="92.402718" style="stroke: #000000; stroke-width: 0.8"/>
      </g>
     </g>
     <g id="line2d_122">
      <g>
       <use xlink:href="#m3f5ae9d9f7" x="360" y="92.402718" style="stroke: #000000; stroke-width: 0.8"/>
      </g>
     </g>
    </g>
    <g id="ytick_17">
     <g id="line2d_123">
      <g>
       <use xlink:href="#m1dbf91c5f8" x="38.596548" y="87.910515" style="stroke: #000000; stroke-width: 0.8"/>
      </g>
     </g>
     <g id="line2d_124">
      <g>
       <use xlink:href="#m3f5ae9d9f7" x="360" y="87.910515" style="stroke: #000000; stroke-width: 0.8"/>
      </g>
     </g>
    </g>
    <g id="ytick_18">
     <g id="line2d_125">
      <g>
       <use xlink:href="#m1dbf91c5f8" x="38.596548" y="84.112412" style="stroke: #000000; stroke-width: 0.8"/>
      </g>
     </g>
     <g id="line2d_126">
      <g>
       <use xlink:href="#m3f5ae9d9f7" x="360" y="84.112412" style="stroke: #000000; stroke-width: 0.8"/>
      </g>
     </g>
    </g>
    <g id="ytick_19">
     <g id="line2d_127">
      <g>
       <use xlink:href="#m1dbf91c5f8" x="38.596548" y="80.822345" style="stroke: #000000; stroke-width: 0.8"/>
      </g>
     </g>
     <g id="line2d_128">
      <g>
       <use xlink:href="#m3f5ae9d9f7" x="360" y="80.822345" style="stroke: #000000; stroke-width: 0.8"/>
      </g>
     </g>
    </g>
    <g id="ytick_20">
     <g id="line2d_129">
      <g>
       <use xlink:href="#m1dbf91c5f8" x="38.596548" y="77.920301" style="stroke: #000000; stroke-width: 0.8"/>
      </g>
     </g>
     <g id="line2d_130">
      <g>
       <use xlink:href="#m3f5ae9d9f7" x="360" y="77.920301" style="stroke: #000000; stroke-width: 0.8"/>
      </g>
     </g>
    </g>
    <g id="ytick_21">
     <g id="line2d_131">
      <g>
       <use xlink:href="#m1dbf91c5f8" x="38.596548" y="58.24595" style="stroke: #000000; stroke-width: 0.8"/>
      </g>
     </g>
     <g id="line2d_132">
      <g>
       <use xlink:href="#m3f5ae9d9f7" x="360" y="58.24595" style="stroke: #000000; stroke-width: 0.8"/>
      </g>
     </g>
    </g>
    <g id="ytick_22">
     <g id="line2d_133">
      <g>
       <use xlink:href="#m1dbf91c5f8" x="38.596548" y="48.255736" style="stroke: #000000; stroke-width: 0.8"/>
      </g>
     </g>
     <g id="line2d_134">
      <g>
       <use xlink:href="#m3f5ae9d9f7" x="360" y="48.255736" style="stroke: #000000; stroke-width: 0.8"/>
      </g>
     </g>
    </g>
    <g id="ytick_23">
     <g id="line2d_135">
      <g>
       <use xlink:href="#m1dbf91c5f8" x="38.596548" y="41.167566" style="stroke: #000000; stroke-width: 0.8"/>
      </g>
     </g>
     <g id="line2d_136">
      <g>
       <use xlink:href="#m3f5ae9d9f7" x="360" y="41.167566" style="stroke: #000000; stroke-width: 0.8"/>
      </g>
     </g>
    </g>
    <g id="ytick_24">
     <g id="line2d_137">
      <g>
       <use xlink:href="#m1dbf91c5f8" x="38.596548" y="35.669554" style="stroke: #000000; stroke-width: 0.8"/>
      </g>
     </g>
     <g id="line2d_138">
      <g>
       <use xlink:href="#m3f5ae9d9f7" x="360" y="35.669554" style="stroke: #000000; stroke-width: 0.8"/>
      </g>
     </g>
    </g>
    <g id="ytick_25">
     <g id="line2d_139">
      <g>
       <use xlink:href="#m1dbf91c5f8" x="38.596548" y="31.177352" style="stroke: #000000; stroke-width: 0.8"/>
      </g>
     </g>
     <g id="line2d_140">
      <g>
       <use xlink:href="#m3f5ae9d9f7" x="360" y="31.177352" style="stroke: #000000; stroke-width: 0.8"/>
      </g>
     </g>
    </g>
    <g id="ytick_26">
     <g id="line2d_141">
      <g>
       <use xlink:href="#m1dbf91c5f8" x="38.596548" y="27.379248" style="stroke: #000000; stroke-width: 0.8"/>
      </g>
     </g>
     <g id="line2d_142">
      <g>
       <use xlink:href="#m3f5ae9d9f7" x="360" y="27.379248" style="stroke: #000000; stroke-width: 0.8"/>
      </g>
     </g>
    </g>
    <g id="ytick_27">
     <g id="line2d_143">
      <g>
       <use xlink:href="#m1dbf91c5f8" x="38.596548" y="24.089182" style="stroke: #000000; stroke-width: 0.8"/>
      </g>
     </g>
     <g id="line2d_144">
      <g>
       <use xlink:href="#m3f5ae9d9f7" x="360" y="24.089182" style="stroke: #000000; stroke-width: 0.8"/>
      </g>
     </g>
    </g>
    <g id="ytick_28">
     <g id="line2d_145">
      <g>
       <use xlink:href="#m1dbf91c5f8" x="38.596548" y="21.187137" style="stroke: #000000; stroke-width: 0.8"/>
      </g>
     </g>
     <g id="line2d_146">
      <g>
       <use xlink:href="#m3f5ae9d9f7" x="360" y="21.187137" style="stroke: #000000; stroke-width: 0.8"/>
      </g>
     </g>
    </g>
    <g id="text_15">
     <!-- Counts / 2 (ps) -->
     <g transform="translate(14.67198 131.951385) rotate(-90) scale(0.1 -0.1)">
      <defs>
       <path id="CMR17-43" d="M 3974 4289 
C 3974 4403 3968 4410 3930 4410 
C 3904 4410 3898 4403 3853 4327 
L 3571 3792 
C 3258 4187 2874 4416 2381 4416 
C 1286 4416 294 3456 294 2148 
C 294 826 1286 -128 2387 -128 
C 3366 -128 3974 730 3974 1461 
C 3974 1524 3974 1550 3917 1550 
C 3866 1550 3866 1531 3859 1474 
C 3808 585 3168 38 2477 38 
C 1824 38 781 495 781 2147 
C 781 3805 1843 4250 2464 4250 
C 3187 4250 3712 3628 3834 2745 
C 3846 2668 3846 2655 3904 2655 
C 3974 2655 3974 2668 3974 2783 
L 3974 4289 
z
" transform="scale(0.015625)"/>
       <path id="CMR17-6f" d="M 2758 1356 
C 2758 2176 2163 2816 1466 2816 
C 768 2816 173 2176 173 1356 
C 173 551 768 -64 1466 -64 
C 2163 -64 2758 551 2758 1356 
z
M 1466 51 
C 1165 51 909 230 762 480 
C 602 767 582 1126 582 1408 
C 582 1677 595 2010 762 2298 
C 890 2509 1139 2714 1466 2714 
C 1754 2714 1997 2554 2150 2330 
C 2349 2029 2349 1607 2349 1408 
C 2349 1158 2336 775 2163 467 
C 1984 173 1709 51 1466 51 
z
" transform="scale(0.015625)"/>
       <path id="CMR17-75" d="M 1882 2693 
L 1882 2528 
C 2259 2528 2317 2489 2317 2186 
L 2317 1032 
C 2317 500 2029 38 1555 38 
C 1030 38 986 348 986 678 
L 986 2763 
L 211 2693 
L 211 2528 
C 467 2528 640 2528 646 2274 
L 646 1058 
C 646 633 646 361 813 183 
C 896 101 1056 -64 1517 -64 
C 2061 -64 2272 377 2323 506 
L 2330 506 
L 2330 -63 
L 3091 -63 
L 3091 128 
C 2714 128 2656 166 2656 473 
L 2656 2763 
L 1882 2693 
z
" transform="scale(0.015625)"/>
       <path id="CMR17-2f" d="M 2605 4545 
C 2637 4627 2637 4640 2637 4653 
C 2637 4729 2579 4768 2528 4768 
C 2451 4768 2426 4717 2400 4640 
L 326 -1377 
C 294 -1460 294 -1473 294 -1486 
C 294 -1562 352 -1600 403 -1600 
C 480 -1600 506 -1549 531 -1473 
L 2605 4545 
z
" transform="scale(0.015625)"/>
       <path id="CMR17-70" d="M 1408 -1063 
C 998 -1063 973 -1037 973 -789 
L 973 402 
C 1158 134 1427 -38 1766 -38 
C 2406 -38 3053 523 3053 1388 
C 3053 2191 2496 2802 1837 2802 
C 1453 2802 1139 2592 960 2338 
L 960 2802 
L 198 2732 
L 198 2567 
C 576 2567 634 2528 634 2223 
L 634 -789 
C 634 -1031 608 -1063 198 -1063 
L 198 -1228 
C 352 -1216 634 -1216 800 -1216 
C 966 -1216 1254 -1216 1408 -1228 
L 1408 -1063 
z
M 973 2012 
C 973 2102 973 2235 1222 2471 
C 1254 2497 1472 2688 1792 2688 
C 2259 2688 2643 2108 2643 1382 
C 2643 656 2234 64 1728 64 
C 1498 64 1248 172 1056 472 
C 973 612 973 650 973 752 
L 973 2012 
z
" transform="scale(0.015625)"/>
      </defs>
      <use xlink:href="#CMR17-43" transform="scale(0.996264)"/>
      <use xlink:href="#CMR17-6f" transform="translate(66.509881 0) scale(0.996264)"/>
      <use xlink:href="#CMR17-75" transform="translate(112.200358 0) scale(0.996264)"/>
      <use xlink:href="#CMR17-6e" transform="translate(163.095727 0) scale(0.996264)"/>
      <use xlink:href="#CMR17-74" transform="translate(211.388643 0) scale(0.996264)"/>
      <use xlink:href="#CMR17-73" transform="translate(246.669411 0) scale(0.996264)"/>
      <use xlink:href="#CMR17-2f" transform="translate(312.546715 0) scale(0.996264)"/>
      <use xlink:href="#CMR17-32" transform="translate(388.313159 0) scale(0.996264)"/>
      <use xlink:href="#CMR17-28" transform="translate(464.079602 0) scale(0.996264)"/>
      <use xlink:href="#CMR17-70" transform="translate(499.36037 0) scale(0.996264)"/>
      <use xlink:href="#CMR17-73" transform="translate(550.25574 0) scale(0.996264)"/>
      <use xlink:href="#CMR17-29" transform="translate(586.057077 0) scale(0.996264)"/>
     </g>
    </g>
   </g>
   <g id="patch_3">
    <path d="M 53.205796 224.2 
L 53.205796 10.899646 
L 56.127646 10.899646 
L 56.127646 14.083156 
L 59.049495 14.083156 
L 59.049495 19.046038 
L 61.971345 19.046038 
L 61.971345 24.102705 
L 64.893195 24.102705 
L 64.893195 29.932239 
L 67.815043 29.932239 
L 67.815043 35.047377 
L 70.736893 35.047377 
L 70.736893 41.209113 
L 73.658743 41.209113 
L 73.658743 46.23525 
L 76.580593 46.23525 
L 76.580593 50.095465 
L 79.502441 50.095465 
L 79.502441 54.452684 
L 82.424291 54.452684 
L 82.424291 56.790947 
L 85.346141 56.790947 
L 85.346141 60.767633 
L 88.267991 60.767633 
L 88.267991 62.853225 
L 91.189841 62.853225 
L 91.189841 66.557909 
L 94.111691 66.557909 
L 94.111691 68.223843 
L 97.033538 68.223843 
L 97.033538 69.184136 
L 99.955391 69.184136 
L 99.955391 72.462831 
L 102.877241 72.462831 
L 102.877241 74.144534 
L 105.799085 74.144534 
L 105.799085 75.733524 
L 108.720935 75.733524 
L 108.720935 77.188903 
L 111.642785 77.188903 
L 111.642785 76.764039 
L 114.564635 76.764039 
L 114.564635 77.865854 
L 117.486485 77.865854 
L 117.486485 79.239704 
L 120.408335 79.239704 
L 120.408335 79.669484 
L 123.330185 79.669484 
L 123.330185 80.577672 
L 126.252035 80.577672 
L 126.252035 80.346969 
L 129.173885 80.346969 
L 129.173885 81.939728 
L 132.095735 81.939728 
L 132.095735 84.422864 
L 135.017585 84.422864 
L 135.017585 83.652638 
L 137.93943 83.652638 
L 137.93943 86.013252 
L 140.86128 86.013252 
L 140.86128 84.883327 
L 143.78313 84.883327 
L 143.78313 86.605227 
L 146.704985 86.605227 
L 146.704985 87.625682 
L 149.62683 87.625682 
L 149.62683 86.300538 
L 152.548685 86.300538 
L 152.548685 87.849782 
L 155.47053 87.849782 
L 155.47053 88.251539 
L 158.392374 88.251539 
L 158.392374 88.404219 
L 161.31423 88.404219 
L 161.31423 90.222392 
L 164.236074 90.222392 
L 164.236074 90.750768 
L 167.15793 90.750768 
L 167.15793 89.98199 
L 170.079774 89.98199 
L 170.079774 92.663548 
L 173.00163 92.663548 
L 173.00163 92.160787 
L 175.923474 92.160787 
L 175.923474 90.961535 
L 178.84533 90.961535 
L 178.84533 91.972426 
L 181.767174 91.972426 
L 181.767174 93.550024 
L 184.68903 93.550024 
L 184.68903 91.517559 
L 187.610874 91.517559 
L 187.610874 95.416604 
L 190.532719 95.416604 
L 190.532719 96.454371 
L 193.454574 96.454371 
L 193.454574 99.730745 
L 196.376419 99.730745 
L 196.376419 98.096106 
L 199.298274 98.096106 
L 199.298274 97.589941 
L 202.220119 97.589941 
L 202.220119 96.298212 
L 205.141974 96.298212 
L 205.141974 102.813594 
L 208.063819 102.813594 
L 208.063819 97.47292 
L 210.985674 97.47292 
L 210.985674 102.80586 
L 213.907519 102.80586 
L 213.907519 99.572408 
L 216.829374 99.572408 
L 216.829374 102.853927 
L 219.751219 102.853927 
L 219.751219 103.818214 
L 222.673063 103.818214 
L 222.673063 105.15085 
L 225.594919 105.15085 
L 225.594919 105.647034 
L 231.438619 105.733883 
L 231.438619 104.251438 
L 234.360463 104.251438 
L 234.360463 103.821938 
L 237.282319 103.821938 
L 237.282319 102.435896 
L 240.204174 102.435896 
L 240.204174 107.239617 
L 243.126008 107.239617 
L 243.126008 105.303969 
L 246.047863 105.303969 
L 246.047863 107.791028 
L 248.969719 107.791028 
L 248.969719 107.407881 
L 251.891574 107.407881 
L 251.891574 107.770708 
L 254.813408 107.770708 
L 254.813408 107.398811 
L 257.735263 107.398811 
L 257.735263 106.893999 
L 260.657119 106.893999 
L 260.657119 111.321116 
L 263.578952 111.321116 
L 263.578952 113.012012 
L 266.500808 113.012012 
L 266.500808 111.169686 
L 269.422663 111.169686 
L 269.422663 109.671423 
L 272.344519 109.671423 
L 272.344519 115.64546 
L 275.266352 115.64546 
L 275.266352 113.654277 
L 278.188208 113.654277 
L 278.188208 112.793619 
L 281.110063 112.793619 
L 281.110063 113.514994 
L 284.031919 113.514994 
L 284.031919 115.714282 
L 286.953752 115.714282 
L 286.953752 114.26001 
L 289.875608 114.26001 
L 289.875608 119.342683 
L 292.797463 119.342683 
L 292.797463 115.077346 
L 295.719297 115.077346 
L 295.719297 118.875525 
L 298.641152 118.875525 
L 298.641152 120.913621 
L 301.563008 120.913621 
L 301.563008 117.242786 
L 304.484863 117.242786 
L 304.484863 116.959392 
L 307.406697 116.959392 
L 307.406697 124.103337 
L 310.328552 124.103337 
L 310.328552 118.015198 
L 313.250408 118.015198 
L 313.250408 125.951463 
L 316.172263 125.951463 
L 316.172263 121.365703 
L 319.094097 121.365703 
L 319.094097 124.161326 
L 322.015952 124.161326 
L 322.015952 122.808061 
L 324.937808 122.808061 
L 324.937808 125.021636 
L 327.859641 125.021636 
L 327.859641 123.868954 
L 330.781497 123.868954 
L 330.781497 124.641123 
L 333.703352 124.641123 
L 333.703352 125.463805 
L 336.625208 125.463805 
L 336.625208 132.203338 
L 339.547041 132.203338 
L 339.547041 127.261483 
L 342.468897 127.261483 
L 342.468897 130.955905 
L 345.390752 130.955905 
L 345.390752 224.2 
L 345.390752 224.2 
" clip-path="url(#p03edcf6a5c)" style="fill: none; stroke: #377eb8; stroke-linejoin: miter"/>
   </g>
   <g id="line2d_147">
    <path d="M 53.205796 73.56195 
L 63.150029 73.515452 
L 63.442506 73.711868 
L 66.074803 73.691199 
L 66.36728 73.919736 
L 68.999577 74.000145 
L 69.584532 74.071249 
L 70.461964 74.071249 
L 70.754442 74.335243 
L 71.924352 74.335243 
L 72.216829 74.520208 
L 73.386739 74.520208 
L 73.679216 74.720304 
L 74.849126 74.720304 
L 75.141603 74.935561 
L 76.311513 74.935561 
L 76.896468 75.0507 
L 77.7739 75.0507 
L 78.066378 75.364018 
L 80.698674 75.463617 
L 80.991152 75.811495 
L 83.623449 75.92068 
L 83.915926 76.142583 
L 85.085836 76.142583 
L 85.378313 76.352427 
L 86.548223 76.352427 
L 86.8407 76.778036 
L 88.01061 76.778036 
L 88.595565 76.891065 
L 89.472997 76.891065 
L 89.765475 77.042562 
L 90.935384 77.042562 
L 91.227862 77.371746 
L 92.397772 77.371746 
L 92.690249 77.550418 
L 93.860159 77.550418 
L 94.152636 77.84288 
L 95.322546 77.84288 
L 95.615023 78.210484 
L 96.784933 78.210484 
L 97.07741 78.468077 
L 98.24732 78.468077 
L 98.539798 78.593416 
L 99.709707 78.593416 
L 100.002185 78.84655 
L 101.172094 78.84655 
L 101.464572 79.215026 
L 102.634482 79.215026 
L 102.926959 79.376241 
L 104.096869 79.376241 
L 104.389346 79.601183 
L 105.559256 79.601183 
L 105.851733 79.864679 
L 107.021643 79.864679 
L 107.31412 80.17994 
L 108.48403 80.17994 
L 108.776508 80.421063 
L 109.946417 80.421063 
L 110.238895 80.632688 
L 111.408804 80.632688 
L 111.701282 80.964231 
L 112.871192 80.964231 
L 113.163669 81.280621 
L 115.795966 81.309175 
L 116.088443 81.866576 
L 117.258353 81.866576 
L 117.55083 82.129974 
L 120.183127 82.117331 
L 120.475605 82.487892 
L 121.645514 82.487892 
L 121.937992 82.840466 
L 123.107902 82.840466 
L 123.400379 83.112581 
L 124.570289 83.112581 
L 124.862766 83.285817 
L 126.032676 83.285817 
L 126.325153 83.697731 
L 127.495063 83.697731 
L 127.78754 83.831808 
L 128.95745 83.831808 
L 129.249928 84.313754 
L 130.419837 84.313754 
L 130.712315 84.484668 
L 131.882224 84.484668 
L 132.174702 84.670378 
L 133.344612 84.670378 
L 133.637089 85.054625 
L 134.806999 85.054625 
L 135.099476 85.220853 
L 136.269386 85.220853 
L 136.561863 85.676889 
L 139.19416 85.784697 
L 139.486638 86.118362 
L 142.118935 86.205829 
L 142.411412 86.626724 
L 143.581322 86.626724 
L 143.873799 86.887824 
L 145.043709 86.887824 
L 145.336186 87.276152 
L 146.506096 87.276152 
L 146.798573 87.51113 
L 147.968483 87.51113 
L 148.260961 87.686271 
L 149.43087 87.686271 
L 149.723348 87.904735 
L 150.893257 87.904735 
L 151.185735 88.515329 
L 152.355645 88.515329 
L 152.648122 88.669966 
L 153.818032 88.669966 
L 154.110509 88.833147 
L 155.280419 88.833147 
L 155.572896 89.340976 
L 156.742806 89.340976 
L 157.035283 89.63866 
L 159.66758 89.719328 
L 159.960058 89.98525 
L 161.129967 89.98525 
L 161.422445 90.448013 
L 162.592355 90.448013 
L 162.884832 90.744082 
L 165.517129 90.835291 
L 165.809606 91.263019 
L 168.441903 91.352185 
L 168.734381 91.715453 
L 169.90429 91.715453 
L 170.196768 92.025802 
L 171.366677 92.025802 
L 171.659155 92.493719 
L 174.291452 92.517407 
L 174.583929 93.080254 
L 175.753839 93.080254 
L 176.046316 93.524372 
L 180.141 93.564583 
L 180.433478 93.982359 
L 181.603387 93.982359 
L 181.895865 94.298033 
L 183.065775 94.298033 
L 183.358252 94.612151 
L 184.528162 94.612151 
L 184.820639 94.920502 
L 185.990549 94.920502 
L 186.283026 95.252564 
L 187.452936 95.252564 
L 187.745413 95.524194 
L 188.915323 95.524194 
L 189.207801 95.945594 
L 191.840097 96.01262 
L 192.132575 96.592244 
L 193.302485 96.592244 
L 193.887439 96.472925 
L 194.764872 96.472925 
L 195.057349 96.869756 
L 196.227259 96.869756 
L 196.519736 97.340048 
L 197.689646 97.340048 
L 197.982124 97.718572 
L 199.152033 97.718572 
L 199.444511 97.990063 
L 200.61442 97.990063 
L 200.906898 98.398291 
L 202.076808 98.398291 
L 202.369285 98.67761 
L 203.539195 98.67761 
L 203.831672 98.820482 
L 205.001582 98.820482 
L 205.294059 99.298182 
L 206.463969 99.298182 
L 206.756446 99.738214 
L 209.388743 99.728498 
L 209.681221 100.289134 
L 210.85113 100.289134 
L 211.143608 100.158614 
L 212.313518 100.158614 
L 212.605995 100.702593 
L 213.775905 100.702593 
L 214.068382 100.962352 
L 215.238292 100.962352 
L 215.530769 101.154887 
L 216.700679 101.154887 
L 216.993156 101.701754 
L 218.163066 101.701754 
L 218.455544 102.053672 
L 219.625453 102.053672 
L 219.917931 102.387172 
L 221.08784 102.387172 
L 221.380318 102.552311 
L 222.550228 102.552311 
L 222.842705 103.061774 
L 224.012615 103.061774 
L 224.305092 103.240025 
L 225.475002 103.240025 
L 225.767479 103.422615 
L 226.937389 103.422615 
L 227.229866 103.753416 
L 228.399776 103.753416 
L 228.692254 104.430889 
L 229.862163 104.430889 
L 230.154641 104.658118 
L 232.786938 104.755492 
L 233.079415 105.482484 
L 234.249325 105.482484 
L 234.541802 105.223768 
L 235.711712 105.223768 
L 236.004189 105.704929 
L 237.174099 105.704929 
L 237.466576 106.132795 
L 238.636486 106.132795 
L 238.928964 106.38206 
L 241.56126 106.304826 
L 241.853738 107.058858 
L 243.023648 107.058858 
L 243.316125 107.303829 
L 244.486035 107.303829 
L 244.778512 107.599209 
L 245.948422 107.599209 
L 246.240899 107.851365 
L 247.410809 107.851365 
L 247.703286 108.400009 
L 248.873196 108.400009 
L 249.165674 108.521391 
L 250.335583 108.521391 
L 250.628061 108.875464 
L 251.79797 108.875464 
L 252.090448 109.097905 
L 253.260358 109.097905 
L 253.552835 109.649834 
L 254.722745 109.649834 
L 255.015222 109.946239 
L 256.185132 109.946239 
L 256.477609 110.093701 
L 257.647519 110.093701 
L 257.939996 110.700909 
L 259.109906 110.700909 
L 259.402384 110.874091 
L 262.034681 110.877819 
L 262.327158 111.308327 
L 263.497068 111.308327 
L 263.789545 111.863519 
L 264.959455 111.863519 
L 265.251932 112.421106 
L 267.884229 112.440914 
L 268.176707 112.720538 
L 269.346616 112.720538 
L 269.639094 113.040723 
L 270.809003 113.040723 
L 271.101481 113.304148 
L 272.271391 113.304148 
L 272.563868 113.715911 
L 273.733778 113.715911 
L 274.026255 114.605936 
L 275.196165 114.605936 
L 275.488642 114.259958 
L 276.658552 114.259958 
L 276.951029 114.489844 
L 278.120939 114.489844 
L 278.413417 115.143511 
L 279.583326 115.143511 
L 279.875804 115.622023 
L 282.508101 115.586457 
L 282.800578 115.853303 
L 283.970488 115.853303 
L 284.262965 116.174349 
L 285.432875 116.174349 
L 285.725352 116.511222 
L 286.895262 116.511222 
L 287.187739 117.065827 
L 288.357649 117.065827 
L 288.650127 117.224125 
L 291.282423 117.286004 
L 291.574901 117.688914 
L 292.744811 117.688914 
L 293.037288 117.985436 
L 294.207198 117.985436 
L 294.499675 118.740471 
L 295.669585 118.740471 
L 295.962062 119.419413 
L 297.131972 119.419413 
L 297.424449 119.229386 
L 298.594359 119.229386 
L 298.886837 119.071376 
L 300.056746 119.071376 
L 300.349224 120.132033 
L 301.519133 120.132033 
L 301.811611 120.466595 
L 302.981521 120.466595 
L 303.273998 120.113229 
L 304.443908 120.113229 
L 304.736385 120.807154 
L 305.906295 120.807154 
L 306.198772 121.136884 
L 307.368682 121.136884 
L 307.661159 121.495415 
L 308.831069 121.495415 
L 309.123547 121.80061 
L 310.293456 121.80061 
L 310.585934 122.22447 
L 311.755843 122.22447 
L 312.048321 122.694928 
L 313.218231 122.694928 
L 313.510708 123.131699 
L 314.680618 123.131699 
L 314.973095 122.989184 
L 316.143005 122.989184 
L 316.435482 123.224208 
L 317.605392 123.224208 
L 317.897869 123.85123 
L 319.067779 123.85123 
L 319.652734 123.739453 
L 320.530166 123.739453 
L 320.822644 124.590693 
L 321.992553 124.590693 
L 322.285031 124.733856 
L 323.454941 124.733856 
L 323.747418 125.136635 
L 324.917328 125.136635 
L 325.209805 125.416517 
L 326.379715 125.416517 
L 326.672192 125.884276 
L 327.842102 125.884276 
L 328.13458 126.157539 
L 329.304489 126.157539 
L 329.596967 126.427607 
L 332.229264 126.486921 
L 332.521741 127.158438 
L 335.154038 127.219533 
L 335.446515 127.607871 
L 336.616425 127.607871 
L 336.908902 127.767447 
L 338.078812 127.767447 
L 338.37129 128.672804 
L 339.541199 128.672804 
L 339.833677 128.453708 
L 341.003586 128.453708 
L 341.296064 129.234989 
L 342.465974 129.234989 
L 342.758451 129.620676 
L 345.390748 129.660495 
L 345.390748 129.660495 
" clip-path="url(#p03edcf6a5c)" style="fill: none; stroke: #4daf4a; stroke-width: 0.5; stroke-linecap: square"/>
   </g>
   <g id="line2d_148">
    <path d="M 53.205796 42.226132 
L 189.483973 224.2 
L 189.483973 224.2 
" clip-path="url(#p03edcf6a5c)" style="fill: none; stroke: #e41a1c; stroke-width: 0.5; stroke-linecap: square"/>
   </g>
   <g id="line2d_149">
    <path d="M 53.205796 18.065614 
L 138.025763 224.2 
L 138.025763 224.2 
" clip-path="url(#p03edcf6a5c)" style="fill: none; stroke: #e41a1c; stroke-width: 0.5; stroke-linecap: square"/>
   </g>
   <g id="line2d_150">
    <path d="M 53.205796 8.402136 
L 57.885435 17.423505 
L 61.980119 24.848594 
L 66.36728 32.33123 
L 70.169487 38.281464 
L 75.141603 45.486691 
L 79.528765 51.071733 
L 84.500881 56.619968 
L 86.548223 58.628884 
L 87.133178 59.357977 
L 92.982726 64.377085 
L 93.860159 64.974515 
L 94.445114 65.537303 
L 95.322546 66.099098 
L 95.615023 66.510493 
L 96.784933 67.220491 
L 97.369888 67.727579 
L 99.709707 69.088504 
L 100.002185 69.411153 
L 101.172094 69.992703 
L 101.464572 70.390916 
L 104.096869 71.691977 
L 104.389346 71.979628 
L 105.559256 72.453975 
L 105.851733 72.765888 
L 107.021643 73.208704 
L 107.31412 73.556506 
L 108.48403 73.970357 
L 108.776508 74.257818 
L 109.946417 74.643547 
L 110.238895 74.904131 
L 111.408804 75.263167 
L 111.701282 75.61665 
L 112.871192 75.952042 
L 113.163669 76.291315 
L 115.795966 76.992678 
L 116.088443 77.530479 
L 117.258353 77.802743 
L 117.55083 78.091889 
L 120.183127 78.629394 
L 120.475605 79.007614 
L 121.645514 79.226233 
L 121.937992 79.587963 
L 123.107902 79.792177 
L 123.400379 80.081976 
L 124.570289 80.272188 
L 124.862766 80.47245 
L 126.032676 80.648986 
L 126.325153 81.061796 
L 127.495063 81.22707 
L 128.080018 81.427419 
L 128.95745 81.54136 
L 129.249928 82.017568 
L 130.419837 82.16136 
L 130.712315 82.352667 
L 131.882224 82.486119 
L 132.174702 82.689566 
L 133.344612 82.813491 
L 133.637089 83.199821 
L 134.806999 83.315768 
L 135.099476 83.498641 
L 136.269386 83.606244 
L 136.561863 84.059382 
L 139.19416 84.37956 
L 139.486638 84.717346 
L 142.118935 84.9895 
L 142.411412 85.409681 
L 143.581322 85.48547 
L 143.873799 85.753071 
L 145.043709 85.823693 
L 145.336186 86.212695 
L 146.506096 86.278833 
L 146.798573 86.520471 
L 147.968483 86.582048 
L 148.260961 86.765571 
L 149.43087 86.822771 
L 149.723348 87.04753 
L 150.893257 87.100758 
L 151.185735 87.704603 
L 152.355645 87.754908 
L 152.648122 87.916983 
L 153.818032 87.963684 
L 154.110509 88.133525 
L 155.280419 88.176898 
L 155.572896 88.681871 
L 156.742806 88.722709 
L 157.035283 89.022894 
L 159.66758 89.18432 
L 159.960058 89.453069 
L 161.129967 89.486002 
L 161.422445 89.947452 
L 162.592355 89.978415 
L 162.884832 90.276385 
L 165.517129 90.428662 
L 165.809606 90.855874 
L 168.441903 90.998195 
L 168.734381 91.361923 
L 169.90429 91.383755 
L 170.196768 91.695237 
L 171.366677 91.715645 
L 171.659155 92.182647 
L 174.291452 92.247612 
L 174.583929 92.808618 
L 175.753839 92.825374 
L 176.046316 93.268977 
L 180.141 93.359854 
L 180.433478 93.777429 
L 181.603387 93.79006 
L 181.895865 94.106337 
L 183.065775 94.11815 
L 183.358252 94.432841 
L 184.528162 94.443889 
L 184.820639 94.752816 
L 185.990549 94.763145 
L 186.283026 95.095594 
L 187.452936 95.105262 
L 187.745413 95.377611 
L 188.915323 95.386638 
L 189.207801 95.807878 
L 191.840097 95.892927 
L 192.132575 96.47164 
L 193.302485 96.479064 
L 193.887439 96.363812 
L 194.764872 96.368889 
L 195.057349 96.7657 
L 196.227259 96.772104 
L 196.519736 97.242086 
L 197.689646 97.248115 
L 197.982124 97.626688 
L 199.152033 97.632342 
L 199.444511 97.904252 
L 200.61442 97.909532 
L 200.906898 98.317706 
L 202.076808 98.322663 
L 202.369285 98.602326 
L 203.539195 98.606957 
L 203.831672 98.750538 
L 205.001582 98.75484 
L 205.294059 99.23231 
L 206.463969 99.236361 
L 206.756446 99.676272 
L 209.388743 99.67482 
L 209.681221 100.235087 
L 210.85113 100.23841 
L 211.143608 100.108952 
L 212.313518 100.112006 
L 212.605995 100.655695 
L 213.775905 100.658579 
L 214.068382 100.918572 
L 215.238292 100.921264 
L 215.530769 101.114128 
L 216.700679 101.116634 
L 216.993156 101.663259 
L 218.163066 101.665625 
L 218.455544 102.017601 
L 219.625453 102.019819 
L 219.917931 102.353397 
L 221.08784 102.355474 
L 221.380318 102.520901 
L 222.550228 102.522832 
L 222.842705 103.032153 
L 224.012615 103.033974 
L 224.305092 103.212464 
L 225.475002 103.214158 
L 225.767479 103.396966 
L 226.937389 103.398542 
L 227.229866 103.729402 
L 228.399776 103.730878 
L 228.692254 104.408087 
L 229.862163 104.409489 
L 230.154641 104.63686 
L 232.786938 104.736988 
L 233.079415 105.463726 
L 234.249325 105.464879 
L 234.541802 105.206621 
L 235.711712 105.207674 
L 236.004189 105.688776 
L 237.174099 105.689769 
L 237.466576 106.117612 
L 238.636486 106.118545 
L 238.928964 106.367892 
L 241.56126 106.29258 
L 241.853738 107.04643 
L 243.023648 107.047194 
L 243.316125 107.292233 
L 244.486035 107.292946 
L 244.778512 107.588368 
L 245.948422 107.589034 
L 246.240899 107.841248 
L 247.410809 107.841869 
L 247.703286 108.390452 
L 248.873196 108.391039 
L 249.165674 108.512519 
L 250.335583 108.513064 
L 250.628061 108.867149 
L 251.79797 108.86766 
L 252.090448 109.090154 
L 253.260358 109.09063 
L 253.552835 109.642511 
L 254.722745 109.642961 
L 255.015222 109.939393 
L 256.185132 109.939814 
L 256.477609 110.087339 
L 257.647519 110.08773 
L 257.939996 110.694885 
L 259.109906 110.695255 
L 259.402384 110.868487 
L 262.034681 110.872959 
L 262.327158 111.303459 
L 263.497068 111.303759 
L 263.789545 111.85892 
L 264.959455 111.859203 
L 265.251932 112.41676 
L 267.884229 112.437142 
L 268.176707 112.716784 
L 269.346616 112.717014 
L 269.639094 113.037209 
L 270.809003 113.037425 
L 271.101481 113.300867 
L 272.271391 113.301069 
L 272.563868 113.71283 
L 273.733778 113.713019 
L 274.026255 114.602984 
L 275.196165 114.603166 
L 275.488642 114.257269 
L 276.658552 114.257435 
L 276.951029 114.487337 
L 278.120939 114.487491 
L 278.413417 115.141133 
L 279.583326 115.141279 
L 279.875804 115.619783 
L 282.508101 115.584517 
L 282.800578 115.851373 
L 283.970488 115.851492 
L 284.262965 116.172543 
L 285.432875 116.172654 
L 285.725352 116.509531 
L 286.895262 116.509635 
L 287.187739 117.064229 
L 288.357649 117.064327 
L 288.650127 117.222639 
L 291.282423 117.284712 
L 291.574901 117.687622 
L 292.744811 117.687701 
L 293.037288 117.984228 
L 294.207198 117.984302 
L 294.499675 118.73932 
L 295.669585 118.739391 
L 295.962062 119.41832 
L 297.131972 119.418387 
L 297.424449 119.228384 
L 298.594359 119.228445 
L 298.886837 119.070457 
L 300.056746 119.070513 
L 300.349224 120.131146 
L 301.519133 120.1312 
L 301.811611 120.465764 
L 302.981521 120.465815 
L 303.273998 120.112472 
L 304.443908 120.112519 
L 304.736385 120.806435 
L 305.906295 120.806479 
L 306.198772 121.136211 
L 307.368682 121.136253 
L 307.661159 121.494784 
L 308.831069 121.494823 
L 309.123547 121.80002 
L 310.293456 121.800057 
L 310.585934 122.223916 
L 311.755843 122.22395 
L 312.048321 122.694406 
L 313.218231 122.694438 
L 313.510708 123.131208 
L 314.680618 123.131238 
L 314.973095 122.988733 
L 316.143005 122.988761 
L 316.435482 123.223788 
L 317.605392 123.223813 
L 317.897869 123.850832 
L 319.067779 123.850856 
L 319.652734 123.739092 
L 320.530166 123.739109 
L 320.822644 124.590343 
L 321.992553 124.590364 
L 322.285031 124.73353 
L 323.454941 124.73355 
L 323.747418 125.136329 
L 324.917328 125.136348 
L 325.209805 125.416231 
L 326.379715 125.416249 
L 326.672192 125.884007 
L 327.842102 125.884023 
L 328.13458 126.157288 
L 329.304489 126.157303 
L 329.596967 126.427372 
L 332.229264 126.486717 
L 332.521741 127.158232 
L 335.154038 127.219354 
L 335.446515 127.607691 
L 336.616425 127.607702 
L 336.908902 127.76728 
L 338.078812 127.76729 
L 338.37129 128.672644 
L 339.541199 128.672654 
L 339.833677 128.453562 
L 341.003586 128.453571 
L 341.296064 129.234849 
L 342.465974 129.234858 
L 342.758451 129.620545 
L 345.390748 129.660382 
L 345.390748 129.660382 
" clip-path="url(#p03edcf6a5c)" style="fill: none; stroke: #984ea3; stroke-width: 0.5; stroke-linecap: square"/>
   </g>
   <g id="patch_4">
    <path d="M 38.596548 188.790661 
L 38.596548 7.2 
" style="fill: none; stroke: #000000; stroke-width: 0.8; stroke-linejoin: miter; stroke-linecap: square"/>
   </g>
   <g id="patch_5">
    <path d="M 360 188.790661 
L 360 7.2 
" style="fill: none; stroke: #000000; stroke-width: 0.8; stroke-linejoin: miter; stroke-linecap: square"/>
   </g>
   <g id="patch_6">
    <path d="M 38.596548 188.790661 
L 360 188.790661 
" style="fill: none; stroke: #000000; stroke-width: 0.8; stroke-linejoin: miter; stroke-linecap: square"/>
   </g>
   <g id="patch_7">
    <path d="M 38.596548 7.2 
L 360 7.2 
" style="fill: none; stroke: #000000; stroke-width: 0.8; stroke-linejoin: miter; stroke-linecap: square"/>
   </g>
   <g id="legend_1">
    <g id="patch_8">
     <path d="M 259.396046 37.086939 
L 355.8 37.086939 
Q 357 37.086939 357 35.886939 
L 357 11.4 
Q 357 10.2 355.8 10.2 
L 259.396046 10.2 
Q 258.196046 10.2 258.196046 11.4 
L 258.196046 35.886939 
Q 258.196046 37.086939 259.396046 37.086939 
z
" style="fill: #ffffff; opacity: 0.8; stroke: #cccccc; stroke-linejoin: miter"/>
    </g>
    <g id="line2d_151">
     <path d="M 260.596046 14.7 
L 266.596046 14.7 
L 272.596046 14.7 
" style="fill: none; stroke: #4daf4a; stroke-width: 0.5; stroke-linecap: square"/>
    </g>
    <g id="text_16">
     <!-- Signal Component -->
     <g transform="translate(277.396046 16.8) scale(0.06 -0.06)">
      <defs>
       <path id="CMR17-53" d="M 2803 4290 
C 2803 4404 2797 4411 2758 4411 
C 2720 4411 2707 4385 2682 4328 
L 2490 3907 
C 2246 4257 1875 4416 1472 4416 
C 819 4416 294 3901 294 3253 
C 294 3056 339 2776 557 2510 
C 794 2218 1018 2167 1530 2033 
C 1722 1982 2042 1899 2106 1874 
C 2470 1722 2662 1341 2662 985 
C 2662 527 2336 38 1779 38 
C 1094 38 454 419 410 1311 
C 403 1413 397 1419 352 1419 
C 301 1419 294 1413 294 1285 
L 294 -1 
C 294 -115 301 -122 339 -122 
C 384 -122 397 -90 486 108 
C 493 127 493 140 614 381 
C 934 -39 1472 -128 1779 -128 
C 2477 -128 2970 451 2970 1124 
C 2970 1454 2848 1708 2778 1823 
C 2509 2230 2221 2306 1914 2382 
C 1869 2402 1856 2402 1498 2490 
C 1152 2579 1005 2624 845 2796 
C 666 2992 602 3196 602 3399 
C 602 3812 934 4263 1478 4263 
C 2157 4263 2579 3786 2675 2993 
C 2694 2878 2701 2872 2746 2872 
C 2803 2872 2803 2891 2803 2999 
L 2803 4290 
z
" transform="scale(0.015625)"/>
       <path id="CMR17-67" d="M 710 1164 
C 832 1068 1043 960 1299 960 
C 1805 960 2240 1357 2240 1888 
C 2240 2054 2189 2310 1997 2509 
C 2176 2692 2438 2752 2586 2752 
C 2611 2752 2650 2752 2682 2734 
C 2656 2728 2598 2703 2598 2605 
C 2598 2527 2656 2471 2739 2471 
C 2835 2471 2886 2533 2886 2614 
C 2886 2731 2790 2854 2586 2854 
C 2330 2854 2106 2738 1926 2580 
C 1734 2753 1504 2816 1299 2816 
C 794 2816 358 2419 358 1888 
C 358 1522 570 1292 634 1228 
C 442 1004 442 743 442 711 
C 442 545 506 302 723 168 
C 390 85 128 -169 128 -486 
C 128 -943 736 -1280 1466 -1280 
C 2170 -1280 2803 -956 2803 -479 
C 2803 384 1856 384 1363 384 
C 1216 384 954 384 922 391 
C 723 423 589 602 589 826 
C 589 883 589 1024 710 1164 
z
M 1299 1068 
C 736 1068 736 1760 736 1889 
C 736 2016 736 2708 1299 2708 
C 1862 2708 1862 2016 1862 1889 
C 1862 1760 1862 1068 1299 1068 
z
M 1466 -1171 
C 826 -1171 384 -835 384 -486 
C 384 -289 493 -105 634 -4 
C 794 104 858 104 1293 104 
C 1818 104 2547 104 2547 -486 
C 2547 -835 2106 -1171 1466 -1171 
z
" transform="scale(0.015625)"/>
       <path id="CMR17-6c" d="M 979 4396 
L 218 4326 
L 218 4160 
C 595 4160 653 4122 653 3817 
L 653 426 
C 653 184 627 153 218 153 
L 218 -13 
C 371 0 653 0 813 0 
C 979 0 1261 0 1414 -13 
L 1414 153 
C 1005 153 979 178 979 426 
L 979 4396 
z
" transform="scale(0.015625)"/>
      </defs>
      <use xlink:href="#CMR17-53" transform="scale(0.996264)"/>
      <use xlink:href="#CMR17-69" transform="translate(50.89537 0) scale(0.996264)"/>
      <use xlink:href="#CMR17-67" transform="translate(75.766428 0) scale(0.996264)"/>
      <use xlink:href="#CMR17-6e" transform="translate(121.456905 0) scale(0.996264)"/>
      <use xlink:href="#CMR17-61" transform="translate(172.352275 0) scale(0.996264)"/>
      <use xlink:href="#CMR17-6c" transform="translate(218.042752 0) scale(0.996264)"/>
      <use xlink:href="#CMR17-43" transform="translate(272.989777 0) scale(0.996264)"/>
      <use xlink:href="#CMR17-6f" transform="translate(339.499658 0) scale(0.996264)"/>
      <use xlink:href="#CMR17-6d" transform="translate(385.190135 0) scale(0.996264)"/>
      <use xlink:href="#CMR17-70" transform="translate(462.109725 0) scale(0.996264)"/>
      <use xlink:href="#CMR17-6f" transform="translate(515.607533 0) scale(0.996264)"/>
      <use xlink:href="#CMR17-6e" transform="translate(561.29801 0) scale(0.996264)"/>
      <use xlink:href="#CMR17-65" transform="translate(612.19338 0) scale(0.996264)"/>
      <use xlink:href="#CMR17-6e" transform="translate(652.679041 0) scale(0.996264)"/>
      <use xlink:href="#CMR17-74" transform="translate(700.971956 0) scale(0.996264)"/>
     </g>
    </g>
    <g id="line2d_152">
     <path d="M 260.596046 23.062313 
L 266.596046 23.062313 
L 272.596046 23.062313 
" style="fill: none; stroke: #e41a1c; stroke-width: 0.5; stroke-linecap: square"/>
    </g>
    <g id="text_17">
     <!-- Background Component -->
     <g transform="translate(277.396046 25.162313) scale(0.06 -0.06)">
      <defs>
       <path id="CMR17-42" d="M 333 4352 
L 333 4186 
C 774 4186 845 4186 845 3900 
L 845 452 
C 845 166 774 166 333 166 
L 333 0 
L 2534 0 
C 3354 0 3885 583 3885 1164 
C 3885 1741 3360 2233 2675 2233 
C 3290 2356 3718 2771 3718 3264 
C 3718 3802 3194 4352 2368 4352 
L 333 4352 
z
M 1248 2304 
L 1248 3937 
C 1248 4155 1261 4186 1517 4186 
L 2336 4186 
C 2970 4186 3251 3674 3251 3277 
C 3251 2791 2861 2304 2170 2304 
L 1248 2304 
z
M 1517 166 
C 1261 166 1248 197 1248 413 
L 1248 2202 
L 2432 2202 
C 3091 2202 3411 1625 3411 1162 
C 3411 699 3046 166 2349 166 
L 1517 166 
z
" transform="scale(0.015625)"/>
       <path id="CMR17-63" d="M 2234 2240 
C 2112 2240 1933 2240 1933 2017 
C 1933 1838 2080 1787 2163 1787 
C 2208 1787 2394 1807 2394 2024 
C 2394 2467 1958 2803 1466 2803 
C 787 2803 211 2178 211 1363 
C 211 516 813 -64 1466 -64 
C 2259 -64 2458 677 2458 748 
C 2458 774 2451 793 2406 793 
C 2362 793 2355 787 2330 703 
C 2163 180 1798 51 1523 51 
C 1114 51 621 427 621 1369 
C 621 2338 1094 2688 1472 2688 
C 1722 2688 2093 2573 2234 2240 
z
" transform="scale(0.015625)"/>
       <path id="CMR17-6b" d="M 1670 1673 
C 1664 1686 1632 1724 1632 1743 
C 1632 1756 2086 2171 2144 2222 
C 2509 2528 2739 2560 2906 2560 
L 2906 2733 
C 2867 2733 2854 2733 2848 2720 
L 2534 2720 
C 2355 2720 2080 2720 1907 2733 
L 1907 2566 
C 1997 2559 2061 2508 2061 2419 
C 2061 2291 1933 2170 1926 2170 
L 960 1289 
L 960 4396 
L 198 4326 
L 198 4160 
C 576 4160 634 4122 634 3817 
L 634 426 
C 634 184 608 153 198 153 
L 198 -13 
C 352 0 634 0 794 0 
C 954 0 1235 0 1389 -13 
L 1389 153 
C 979 153 954 178 954 428 
L 954 1130 
L 1395 1532 
L 2042 574 
C 2118 459 2182 369 2182 286 
C 2182 172 2067 153 1990 153 
L 1990 -13 
C 2144 0 2419 0 2579 0 
C 2694 0 2931 0 3040 0 
L 3040 153 
C 2739 153 2669 210 2477 491 
L 1670 1673 
z
" transform="scale(0.015625)"/>
       <path id="CMR17-64" d="M 1869 4326 
L 1869 4160 
C 2246 4160 2304 4122 2304 3820 
L 2304 2345 
C 2278 2377 2016 2790 1498 2790 
C 845 2790 211 2208 211 1364 
C 211 525 806 -64 1434 -64 
C 1978 -64 2259 337 2291 380 
L 2291 -63 
L 3066 -63 
L 3066 128 
C 2688 128 2630 166 2630 473 
L 2630 4396 
L 1869 4326 
z
M 2291 755 
C 2291 563 2176 390 2029 262 
C 1811 70 1594 38 1472 38 
C 1286 38 621 134 621 1356 
C 621 2612 1363 2688 1530 2688 
C 1824 2688 2061 2522 2208 2291 
C 2291 2157 2291 2138 2291 2023 
L 2291 755 
z
" transform="scale(0.015625)"/>
      </defs>
      <use xlink:href="#CMR17-42" transform="scale(0.996264)"/>
      <use xlink:href="#CMR17-61" transform="translate(65.188754 0) scale(0.996264)"/>
      <use xlink:href="#CMR17-63" transform="translate(110.879232 0) scale(0.996264)"/>
      <use xlink:href="#CMR17-6b" transform="translate(148.762438 0) scale(0.996264)"/>
      <use xlink:href="#CMR17-67" transform="translate(197.055354 0) scale(0.996264)"/>
      <use xlink:href="#CMR17-72" transform="translate(242.745831 0) scale(0.996264)"/>
      <use xlink:href="#CMR17-6f" transform="translate(278.026599 0) scale(0.996264)"/>
      <use xlink:href="#CMR17-75" transform="translate(323.717076 0) scale(0.996264)"/>
      <use xlink:href="#CMR17-6e" transform="translate(374.612446 0) scale(0.996264)"/>
      <use xlink:href="#CMR17-64" transform="translate(425.507816 0) scale(0.996264)"/>
      <use xlink:href="#CMR17-43" transform="translate(506.479152 0) scale(0.996264)"/>
      <use xlink:href="#CMR17-6f" transform="translate(572.989032 0) scale(0.996264)"/>
      <use xlink:href="#CMR17-6d" transform="translate(618.679509 0) scale(0.996264)"/>
      <use xlink:href="#CMR17-70" transform="translate(695.599099 0) scale(0.996264)"/>
      <use xlink:href="#CMR17-6f" transform="translate(749.096908 0) scale(0.996264)"/>
      <use xlink:href="#CMR17-6e" transform="translate(794.787385 0) scale(0.996264)"/>
      <use xlink:href="#CMR17-65" transform="translate(845.682755 0) scale(0.996264)"/>
      <use xlink:href="#CMR17-6e" transform="translate(886.168415 0) scale(0.996264)"/>
      <use xlink:href="#CMR17-74" transform="translate(934.461331 0) scale(0.996264)"/>
     </g>
    </g>
    <g id="line2d_153">
     <path d="M 260.596046 31.424626 
L 266.596046 31.424626 
L 272.596046 31.424626 
" style="fill: none; stroke: #984ea3; stroke-width: 0.5; stroke-linecap: square"/>
    </g>
    <g id="text_18">
     <!-- Fit Total -->
     <g transform="translate(277.396046 33.524626) scale(0.06 -0.06)">
      <defs>
       <path id="CMR17-54" d="M 3981 4326 
L 288 4326 
L 179 2918 
L 294 2918 
C 378 3976 467 4160 1453 4160 
C 1568 4160 1754 4160 1805 4154 
C 1926 4135 1926 4058 1926 3912 
L 1926 459 
C 1926 230 1907 160 1376 160 
L 1197 160 
L 1197 0 
C 1504 0 1824 0 2138 0 
C 2451 0 2771 0 3078 0 
L 3078 160 
L 2899 160 
C 2368 160 2349 230 2349 459 
L 2349 3912 
C 2349 4052 2349 4129 2464 4154 
C 2515 4160 2701 4160 2816 4160 
C 3795 4160 3891 3976 3974 2918 
L 4090 2918 
L 3981 4326 
z
" transform="scale(0.015625)"/>
      </defs>
      <use xlink:href="#CMR17-46" transform="scale(0.996264)"/>
      <use xlink:href="#CMR17-69" transform="translate(59.983847 0) scale(0.996264)"/>
      <use xlink:href="#CMR17-74" transform="translate(84.854905 0) scale(0.996264)"/>
      <use xlink:href="#CMR17-54" transform="translate(150.211639 0) scale(0.996264)"/>
      <use xlink:href="#CMR17-6f" transform="translate(208.914264 0) scale(0.996264)"/>
      <use xlink:href="#CMR17-74" transform="translate(254.604741 0) scale(0.996264)"/>
      <use xlink:href="#CMR17-61" transform="translate(289.885509 0) scale(0.996264)"/>
      <use xlink:href="#CMR17-6c" transform="translate(335.575986 0) scale(0.996264)"/>
     </g>
    </g>
   </g>
  </g>
 </g>
 <defs>
  <clipPath id="p03edcf6a5c">
   <rect x="38.596548" y="7.2" width="321.403452" height="181.590661"/>
  </clipPath>
 </defs>
</svg>
