<?xml version="1.0" encoding="utf-8" standalone="no"?>
<!DOCTYPE svg PUBLIC "-//W3C//DTD SVG 1.1//EN"
  "http://www.w3.org/Graphics/SVG/1.1/DTD/svg11.dtd">
<svg xmlns:xlink="http://www.w3.org/1999/xlink" width="367.2pt" height="223.2pt" viewBox="0 0 367.2 223.2" xmlns="http://www.w3.org/2000/svg" version="1.1">
 <metadata>
  <rdf:RDF xmlns:dc="http://purl.org/dc/elements/1.1/" xmlns:cc="http://creativecommons.org/ns#" xmlns:rdf="http://www.w3.org/1999/02/22-rdf-syntax-ns#">
   <cc:Work>
    <dc:type rdf:resource="http://purl.org/dc/dcmitype/StillImage"/>
    <dc:date>2025-06-01T01:16:25.171550</dc:date>
    <dc:format>image/svg+xml</dc:format>
    <dc:creator>
     <cc:Agent>
      <dc:title>Matplotlib v3.10.3, https://matplotlib.org/</dc:title>
     </cc:Agent>
    </dc:creator>
   </cc:Work>
  </rdf:RDF>
 </metadata>
 <defs>
  <style type="text/css">*{stroke-linejoin: round; stroke-linecap: butt}</style>
 </defs>
 <g id="figure_1">
  <g id="patch_1">
   <path d="M 0 223.2 
L 367.2 223.2 
L 367.2 0 
L 0 0 
z
" style="fill: #ffffff"/>
  </g>
  <g id="axes_1">
   <g id="patch_2">
    <path d="M 38.596548 188.790661 
L 360 188.790661 
L 360 7.2 
L 38.596548 7.2 
z
" style="fill: #ffffff"/>
   </g>
   <g id="matplotlib.axis_1">
    <g id="xtick_1">
     <g id="line2d_1">
      <defs>
       <path id="m06af83f321" d="M 0 0 
L 0 -4 
" style="stroke: #000000; stroke-width: 1.2"/>
      </defs>
      <g>
       <use xlink:href="#m06af83f321" x="53.205796" y="188.790661" style="stroke: #000000; stroke-width: 1.2"/>
      </g>
     </g>
     <g id="line2d_2">
      <defs>
       <path id="m248ffaa007" d="M 0 0 
L 0 4 
" style="stroke: #000000; stroke-width: 1.2"/>
      </defs>
      <g>
       <use xlink:href="#m248ffaa007" x="53.205796" y="7.2" style="stroke: #000000; stroke-width: 1.2"/>
      </g>
     </g>
     <g id="text_1">
      <!-- $\mathdefault{0.000}$ -->
      <g transform="translate(41.859421 199.209159) scale(0.1 -0.1)">
       <defs>
        <path id="CMR17-30" d="M 2688 2025 
C 2688 2416 2682 3080 2413 3591 
C 2176 4039 1798 4198 1466 4198 
C 1158 4198 768 4058 525 3597 
C 269 3118 243 2524 243 2025 
C 243 1661 250 1106 448 619 
C 723 -39 1216 -128 1466 -128 
C 1760 -128 2208 -7 2470 600 
C 2662 1042 2688 1559 2688 2025 
z
M 1466 -26 
C 1056 -26 813 325 723 812 
C 653 1188 653 1738 653 2096 
C 653 2588 653 2997 736 3387 
C 858 3929 1216 4096 1466 4096 
C 1728 4096 2067 3923 2189 3400 
C 2272 3036 2278 2607 2278 2096 
C 2278 1680 2278 1169 2202 792 
C 2067 95 1690 -26 1466 -26 
z
" transform="scale(0.015625)"/>
        <path id="CMMI12-3a" d="M 1178 307 
C 1178 492 1024 619 870 619 
C 685 619 557 466 557 313 
C 557 128 710 0 864 0 
C 1050 0 1178 153 1178 307 
z
" transform="scale(0.015625)"/>
       </defs>
       <use xlink:href="#CMR17-30" transform="scale(0.996264)"/>
       <use xlink:href="#CMMI12-3a" transform="translate(45.690477 0) scale(0.996264)"/>
       <use xlink:href="#CMR17-30" transform="translate(72.787654 0) scale(0.996264)"/>
       <use xlink:href="#CMR17-30" transform="translate(118.478131 0) scale(0.996264)"/>
       <use xlink:href="#CMR17-30" transform="translate(164.168608 0) scale(0.996264)"/>
      </g>
     </g>
    </g>
    <g id="xtick_2">
     <g id="line2d_3">
      <g>
       <use xlink:href="#m06af83f321" x="89.728915" y="188.790661" style="stroke: #000000; stroke-width: 1.2"/>
      </g>
     </g>
     <g id="line2d_4">
      <g>
       <use xlink:href="#m248ffaa007" x="89.728915" y="7.2" style="stroke: #000000; stroke-width: 1.2"/>
      </g>
     </g>
     <g id="text_2">
      <!-- $\mathdefault{0.025}$ -->
      <g transform="translate(78.38254 199.209159) scale(0.1 -0.1)">
       <defs>
        <path id="CMR17-32" d="M 2669 989 
L 2554 989 
C 2490 536 2438 459 2413 420 
C 2381 369 1920 369 1830 369 
L 602 369 
C 832 619 1280 1072 1824 1597 
C 2214 1967 2669 2402 2669 3035 
C 2669 3790 2067 4224 1395 4224 
C 691 4224 262 3604 262 3030 
C 262 2780 448 2748 525 2748 
C 589 2748 781 2787 781 3010 
C 781 3207 614 3264 525 3264 
C 486 3264 448 3258 422 3245 
C 544 3790 915 4058 1306 4058 
C 1862 4058 2227 3617 2227 3035 
C 2227 2479 1901 2000 1536 1584 
L 262 146 
L 262 0 
L 2515 0 
L 2669 989 
z
" transform="scale(0.015625)"/>
        <path id="CMR17-35" d="M 730 3692 
C 794 3666 1056 3584 1325 3584 
C 1920 3584 2246 3911 2432 4100 
C 2432 4157 2432 4192 2394 4192 
C 2387 4192 2374 4192 2323 4163 
C 2099 4058 1837 3973 1517 3973 
C 1325 3973 1037 3999 723 4139 
C 653 4171 640 4171 634 4171 
C 602 4171 595 4164 595 4037 
L 595 2203 
C 595 2089 595 2057 659 2057 
C 691 2057 704 2070 736 2114 
C 941 2401 1222 2522 1542 2522 
C 1766 2522 2246 2382 2246 1289 
C 2246 1085 2246 715 2054 421 
C 1894 159 1645 25 1370 25 
C 947 25 518 320 403 814 
C 429 807 480 795 506 795 
C 589 795 749 840 749 1038 
C 749 1210 627 1280 506 1280 
C 358 1280 262 1190 262 1011 
C 262 454 704 -128 1382 -128 
C 2042 -128 2669 440 2669 1264 
C 2669 2030 2170 2624 1549 2624 
C 1222 2624 947 2503 730 2274 
L 730 3692 
z
" transform="scale(0.015625)"/>
       </defs>
       <use xlink:href="#CMR17-30" transform="scale(0.996264)"/>
       <use xlink:href="#CMMI12-3a" transform="translate(45.690477 0) scale(0.996264)"/>
       <use xlink:href="#CMR17-30" transform="translate(72.787654 0) scale(0.996264)"/>
       <use xlink:href="#CMR17-32" transform="translate(118.478131 0) scale(0.996264)"/>
       <use xlink:href="#CMR17-35" transform="translate(164.168608 0) scale(0.996264)"/>
      </g>
     </g>
    </g>
    <g id="xtick_3">
     <g id="line2d_5">
      <g>
       <use xlink:href="#m06af83f321" x="126.252034" y="188.790661" style="stroke: #000000; stroke-width: 1.2"/>
      </g>
     </g>
     <g id="line2d_6">
      <g>
       <use xlink:href="#m248ffaa007" x="126.252034" y="7.2" style="stroke: #000000; stroke-width: 1.2"/>
      </g>
     </g>
     <g id="text_3">
      <!-- $\mathdefault{0.050}$ -->
      <g transform="translate(114.905659 199.209159) scale(0.1 -0.1)">
       <use xlink:href="#CMR17-30" transform="scale(0.996264)"/>
       <use xlink:href="#CMMI12-3a" transform="translate(45.690477 0) scale(0.996264)"/>
       <use xlink:href="#CMR17-30" transform="translate(72.787654 0) scale(0.996264)"/>
       <use xlink:href="#CMR17-35" transform="translate(118.478131 0) scale(0.996264)"/>
       <use xlink:href="#CMR17-30" transform="translate(164.168608 0) scale(0.996264)"/>
      </g>
     </g>
    </g>
    <g id="xtick_4">
     <g id="line2d_7">
      <g>
       <use xlink:href="#m06af83f321" x="162.775153" y="188.790661" style="stroke: #000000; stroke-width: 1.2"/>
      </g>
     </g>
     <g id="line2d_8">
      <g>
       <use xlink:href="#m248ffaa007" x="162.775153" y="7.2" style="stroke: #000000; stroke-width: 1.2"/>
      </g>
     </g>
     <g id="text_4">
      <!-- $\mathdefault{0.075}$ -->
      <g transform="translate(151.428778 199.209159) scale(0.1 -0.1)">
       <defs>
        <path id="CMR17-37" d="M 2886 3941 
L 2886 4081 
L 1382 4081 
C 634 4081 621 4165 595 4288 
L 480 4288 
L 294 3094 
L 410 3094 
C 429 3215 474 3540 550 3661 
C 589 3712 1062 3712 1171 3712 
L 2579 3712 
L 1869 2661 
C 1395 1954 1069 999 1069 165 
C 1069 89 1069 -128 1299 -128 
C 1530 -128 1530 89 1530 171 
L 1530 465 
C 1530 1508 1709 2196 2003 2636 
L 2886 3941 
z
" transform="scale(0.015625)"/>
       </defs>
       <use xlink:href="#CMR17-30" transform="scale(0.996264)"/>
       <use xlink:href="#CMMI12-3a" transform="translate(45.690477 0) scale(0.996264)"/>
       <use xlink:href="#CMR17-30" transform="translate(72.787654 0) scale(0.996264)"/>
       <use xlink:href="#CMR17-37" transform="translate(118.478131 0) scale(0.996264)"/>
       <use xlink:href="#CMR17-35" transform="translate(164.168608 0) scale(0.996264)"/>
      </g>
     </g>
    </g>
    <g id="xtick_5">
     <g id="line2d_9">
      <g>
       <use xlink:href="#m06af83f321" x="199.298272" y="188.790661" style="stroke: #000000; stroke-width: 1.2"/>
      </g>
     </g>
     <g id="line2d_10">
      <g>
       <use xlink:href="#m248ffaa007" x="199.298272" y="7.2" style="stroke: #000000; stroke-width: 1.2"/>
      </g>
     </g>
     <g id="text_5">
      <!-- $\mathdefault{0.100}$ -->
      <g transform="translate(187.951897 199.209159) scale(0.1 -0.1)">
       <defs>
        <path id="CMR17-31" d="M 1702 4058 
C 1702 4192 1696 4192 1606 4192 
C 1357 3916 979 3827 621 3827 
C 602 3827 570 3827 563 3808 
C 557 3795 557 3782 557 3648 
C 755 3648 1088 3686 1344 3839 
L 1344 461 
C 1344 236 1331 160 781 160 
L 589 160 
L 589 0 
C 896 0 1216 0 1523 0 
C 1830 0 2150 0 2458 0 
L 2458 160 
L 2266 160 
C 1715 160 1702 230 1702 458 
L 1702 4058 
z
" transform="scale(0.015625)"/>
       </defs>
       <use xlink:href="#CMR17-30" transform="scale(0.996264)"/>
       <use xlink:href="#CMMI12-3a" transform="translate(45.690477 0) scale(0.996264)"/>
       <use xlink:href="#CMR17-31" transform="translate(72.787654 0) scale(0.996264)"/>
       <use xlink:href="#CMR17-30" transform="translate(118.478131 0) scale(0.996264)"/>
       <use xlink:href="#CMR17-30" transform="translate(164.168608 0) scale(0.996264)"/>
      </g>
     </g>
    </g>
    <g id="xtick_6">
     <g id="line2d_11">
      <g>
       <use xlink:href="#m06af83f321" x="235.821391" y="188.790661" style="stroke: #000000; stroke-width: 1.2"/>
      </g>
     </g>
     <g id="line2d_12">
      <g>
       <use xlink:href="#m248ffaa007" x="235.821391" y="7.2" style="stroke: #000000; stroke-width: 1.2"/>
      </g>
     </g>
     <g id="text_6">
      <!-- $\mathdefault{0.125}$ -->
      <g transform="translate(224.475016 199.209159) scale(0.1 -0.1)">
       <use xlink:href="#CMR17-30" transform="scale(0.996264)"/>
       <use xlink:href="#CMMI12-3a" transform="translate(45.690477 0) scale(0.996264)"/>
       <use xlink:href="#CMR17-31" transform="translate(72.787654 0) scale(0.996264)"/>
       <use xlink:href="#CMR17-32" transform="translate(118.478131 0) scale(0.996264)"/>
       <use xlink:href="#CMR17-35" transform="translate(164.168608 0) scale(0.996264)"/>
      </g>
     </g>
    </g>
    <g id="xtick_7">
     <g id="line2d_13">
      <g>
       <use xlink:href="#m06af83f321" x="272.34451" y="188.790661" style="stroke: #000000; stroke-width: 1.2"/>
      </g>
     </g>
     <g id="line2d_14">
      <g>
       <use xlink:href="#m248ffaa007" x="272.34451" y="7.2" style="stroke: #000000; stroke-width: 1.2"/>
      </g>
     </g>
     <g id="text_7">
      <!-- $\mathdefault{0.150}$ -->
      <g transform="translate(260.998135 199.209159) scale(0.1 -0.1)">
       <use xlink:href="#CMR17-30" transform="scale(0.996264)"/>
       <use xlink:href="#CMMI12-3a" transform="translate(45.690477 0) scale(0.996264)"/>
       <use xlink:href="#CMR17-31" transform="translate(72.787654 0) scale(0.996264)"/>
       <use xlink:href="#CMR17-35" transform="translate(118.478131 0) scale(0.996264)"/>
       <use xlink:href="#CMR17-30" transform="translate(164.168608 0) scale(0.996264)"/>
      </g>
     </g>
    </g>
    <g id="xtick_8">
     <g id="line2d_15">
      <g>
       <use xlink:href="#m06af83f321" x="308.867629" y="188.790661" style="stroke: #000000; stroke-width: 1.2"/>
      </g>
     </g>
     <g id="line2d_16">
      <g>
       <use xlink:href="#m248ffaa007" x="308.867629" y="7.2" style="stroke: #000000; stroke-width: 1.2"/>
      </g>
     </g>
     <g id="text_8">
      <!-- $\mathdefault{0.175}$ -->
      <g transform="translate(297.521254 199.209159) scale(0.1 -0.1)">
       <use xlink:href="#CMR17-30" transform="scale(0.996264)"/>
       <use xlink:href="#CMMI12-3a" transform="translate(45.690477 0) scale(0.996264)"/>
       <use xlink:href="#CMR17-31" transform="translate(72.787654 0) scale(0.996264)"/>
       <use xlink:href="#CMR17-37" transform="translate(118.478131 0) scale(0.996264)"/>
       <use xlink:href="#CMR17-35" transform="translate(164.168608 0) scale(0.996264)"/>
      </g>
     </g>
    </g>
    <g id="xtick_9">
     <g id="line2d_17">
      <g>
       <use xlink:href="#m06af83f321" x="345.390748" y="188.790661" style="stroke: #000000; stroke-width: 1.2"/>
      </g>
     </g>
     <g id="line2d_18">
      <g>
       <use xlink:href="#m248ffaa007" x="345.390748" y="7.2" style="stroke: #000000; stroke-width: 1.2"/>
      </g>
     </g>
     <g id="text_9">
      <!-- $\mathdefault{0.200}$ -->
      <g transform="translate(334.044373 199.209159) scale(0.1 -0.1)">
       <use xlink:href="#CMR17-30" transform="scale(0.996264)"/>
       <use xlink:href="#CMMI12-3a" transform="translate(45.690477 0) scale(0.996264)"/>
       <use xlink:href="#CMR17-32" transform="translate(72.787654 0) scale(0.996264)"/>
       <use xlink:href="#CMR17-30" transform="translate(118.478131 0) scale(0.996264)"/>
       <use xlink:href="#CMR17-30" transform="translate(164.168608 0) scale(0.996264)"/>
      </g>
     </g>
    </g>
    <g id="xtick_10">
     <g id="line2d_19">
      <defs>
       <path id="m51fd78c04c" d="M 0 0 
L 0 -2.5 
" style="stroke: #000000; stroke-width: 0.8"/>
      </defs>
      <g>
       <use xlink:href="#m51fd78c04c" x="38.596548" y="188.790661" style="stroke: #000000; stroke-width: 0.8"/>
      </g>
     </g>
     <g id="line2d_20">
      <defs>
       <path id="m0afccf682c" d="M 0 0 
L 0 2.5 
" style="stroke: #000000; stroke-width: 0.8"/>
      </defs>
      <g>
       <use xlink:href="#m0afccf682c" x="38.596548" y="7.2" style="stroke: #000000; stroke-width: 0.8"/>
      </g>
     </g>
    </g>
    <g id="xtick_11">
     <g id="line2d_21">
      <g>
       <use xlink:href="#m51fd78c04c" x="45.901172" y="188.790661" style="stroke: #000000; stroke-width: 0.8"/>
      </g>
     </g>
     <g id="line2d_22">
      <g>
       <use xlink:href="#m0afccf682c" x="45.901172" y="7.2" style="stroke: #000000; stroke-width: 0.8"/>
      </g>
     </g>
    </g>
    <g id="xtick_12">
     <g id="line2d_23">
      <g>
       <use xlink:href="#m51fd78c04c" x="60.51042" y="188.790661" style="stroke: #000000; stroke-width: 0.8"/>
      </g>
     </g>
     <g id="line2d_24">
      <g>
       <use xlink:href="#m0afccf682c" x="60.51042" y="7.2" style="stroke: #000000; stroke-width: 0.8"/>
      </g>
     </g>
    </g>
    <g id="xtick_13">
     <g id="line2d_25">
      <g>
       <use xlink:href="#m51fd78c04c" x="67.815044" y="188.790661" style="stroke: #000000; stroke-width: 0.8"/>
      </g>
     </g>
     <g id="line2d_26">
      <g>
       <use xlink:href="#m0afccf682c" x="67.815044" y="7.2" style="stroke: #000000; stroke-width: 0.8"/>
      </g>
     </g>
    </g>
    <g id="xtick_14">
     <g id="line2d_27">
      <g>
       <use xlink:href="#m51fd78c04c" x="75.119667" y="188.790661" style="stroke: #000000; stroke-width: 0.8"/>
      </g>
     </g>
     <g id="line2d_28">
      <g>
       <use xlink:href="#m0afccf682c" x="75.119667" y="7.2" style="stroke: #000000; stroke-width: 0.8"/>
      </g>
     </g>
    </g>
    <g id="xtick_15">
     <g id="line2d_29">
      <g>
       <use xlink:href="#m51fd78c04c" x="82.424291" y="188.790661" style="stroke: #000000; stroke-width: 0.8"/>
      </g>
     </g>
     <g id="line2d_30">
      <g>
       <use xlink:href="#m0afccf682c" x="82.424291" y="7.2" style="stroke: #000000; stroke-width: 0.8"/>
      </g>
     </g>
    </g>
    <g id="xtick_16">
     <g id="line2d_31">
      <g>
       <use xlink:href="#m51fd78c04c" x="97.033539" y="188.790661" style="stroke: #000000; stroke-width: 0.8"/>
      </g>
     </g>
     <g id="line2d_32">
      <g>
       <use xlink:href="#m0afccf682c" x="97.033539" y="7.2" style="stroke: #000000; stroke-width: 0.8"/>
      </g>
     </g>
    </g>
    <g id="xtick_17">
     <g id="line2d_33">
      <g>
       <use xlink:href="#m51fd78c04c" x="104.338163" y="188.790661" style="stroke: #000000; stroke-width: 0.8"/>
      </g>
     </g>
     <g id="line2d_34">
      <g>
       <use xlink:href="#m0afccf682c" x="104.338163" y="7.2" style="stroke: #000000; stroke-width: 0.8"/>
      </g>
     </g>
    </g>
    <g id="xtick_18">
     <g id="line2d_35">
      <g>
       <use xlink:href="#m51fd78c04c" x="111.642786" y="188.790661" style="stroke: #000000; stroke-width: 0.8"/>
      </g>
     </g>
     <g id="line2d_36">
      <g>
       <use xlink:href="#m0afccf682c" x="111.642786" y="7.2" style="stroke: #000000; stroke-width: 0.8"/>
      </g>
     </g>
    </g>
    <g id="xtick_19">
     <g id="line2d_37">
      <g>
       <use xlink:href="#m51fd78c04c" x="118.94741" y="188.790661" style="stroke: #000000; stroke-width: 0.8"/>
      </g>
     </g>
     <g id="line2d_38">
      <g>
       <use xlink:href="#m0afccf682c" x="118.94741" y="7.2" style="stroke: #000000; stroke-width: 0.8"/>
      </g>
     </g>
    </g>
    <g id="xtick_20">
     <g id="line2d_39">
      <g>
       <use xlink:href="#m51fd78c04c" x="133.556658" y="188.790661" style="stroke: #000000; stroke-width: 0.8"/>
      </g>
     </g>
     <g id="line2d_40">
      <g>
       <use xlink:href="#m0afccf682c" x="133.556658" y="7.2" style="stroke: #000000; stroke-width: 0.8"/>
      </g>
     </g>
    </g>
    <g id="xtick_21">
     <g id="line2d_41">
      <g>
       <use xlink:href="#m51fd78c04c" x="140.861282" y="188.790661" style="stroke: #000000; stroke-width: 0.8"/>
      </g>
     </g>
     <g id="line2d_42">
      <g>
       <use xlink:href="#m0afccf682c" x="140.861282" y="7.2" style="stroke: #000000; stroke-width: 0.8"/>
      </g>
     </g>
    </g>
    <g id="xtick_22">
     <g id="line2d_43">
      <g>
       <use xlink:href="#m51fd78c04c" x="148.165905" y="188.790661" style="stroke: #000000; stroke-width: 0.8"/>
      </g>
     </g>
     <g id="line2d_44">
      <g>
       <use xlink:href="#m0afccf682c" x="148.165905" y="7.2" style="stroke: #000000; stroke-width: 0.8"/>
      </g>
     </g>
    </g>
    <g id="xtick_23">
     <g id="line2d_45">
      <g>
       <use xlink:href="#m51fd78c04c" x="155.470529" y="188.790661" style="stroke: #000000; stroke-width: 0.8"/>
      </g>
     </g>
     <g id="line2d_46">
      <g>
       <use xlink:href="#m0afccf682c" x="155.470529" y="7.2" style="stroke: #000000; stroke-width: 0.8"/>
      </g>
     </g>
    </g>
    <g id="xtick_24">
     <g id="line2d_47">
      <g>
       <use xlink:href="#m51fd78c04c" x="170.079777" y="188.790661" style="stroke: #000000; stroke-width: 0.8"/>
      </g>
     </g>
     <g id="line2d_48">
      <g>
       <use xlink:href="#m0afccf682c" x="170.079777" y="7.2" style="stroke: #000000; stroke-width: 0.8"/>
      </g>
     </g>
    </g>
    <g id="xtick_25">
     <g id="line2d_49">
      <g>
       <use xlink:href="#m51fd78c04c" x="177.384401" y="188.790661" style="stroke: #000000; stroke-width: 0.8"/>
      </g>
     </g>
     <g id="line2d_50">
      <g>
       <use xlink:href="#m0afccf682c" x="177.384401" y="7.2" style="stroke: #000000; stroke-width: 0.8"/>
      </g>
     </g>
    </g>
    <g id="xtick_26">
     <g id="line2d_51">
      <g>
       <use xlink:href="#m51fd78c04c" x="184.689024" y="188.790661" style="stroke: #000000; stroke-width: 0.8"/>
      </g>
     </g>
     <g id="line2d_52">
      <g>
       <use xlink:href="#m0afccf682c" x="184.689024" y="7.2" style="stroke: #000000; stroke-width: 0.8"/>
      </g>
     </g>
    </g>
    <g id="xtick_27">
     <g id="line2d_53">
      <g>
       <use xlink:href="#m51fd78c04c" x="191.993648" y="188.790661" style="stroke: #000000; stroke-width: 0.8"/>
      </g>
     </g>
     <g id="line2d_54">
      <g>
       <use xlink:href="#m0afccf682c" x="191.993648" y="7.2" style="stroke: #000000; stroke-width: 0.8"/>
      </g>
     </g>
    </g>
    <g id="xtick_28">
     <g id="line2d_55">
      <g>
       <use xlink:href="#m51fd78c04c" x="206.602896" y="188.790661" style="stroke: #000000; stroke-width: 0.8"/>
      </g>
     </g>
     <g id="line2d_56">
      <g>
       <use xlink:href="#m0afccf682c" x="206.602896" y="7.2" style="stroke: #000000; stroke-width: 0.8"/>
      </g>
     </g>
    </g>
    <g id="xtick_29">
     <g id="line2d_57">
      <g>
       <use xlink:href="#m51fd78c04c" x="213.90752" y="188.790661" style="stroke: #000000; stroke-width: 0.8"/>
      </g>
     </g>
     <g id="line2d_58">
      <g>
       <use xlink:href="#m0afccf682c" x="213.90752" y="7.2" style="stroke: #000000; stroke-width: 0.8"/>
      </g>
     </g>
    </g>
    <g id="xtick_30">
     <g id="line2d_59">
      <g>
       <use xlink:href="#m51fd78c04c" x="221.212143" y="188.790661" style="stroke: #000000; stroke-width: 0.8"/>
      </g>
     </g>
     <g id="line2d_60">
      <g>
       <use xlink:href="#m0afccf682c" x="221.212143" y="7.2" style="stroke: #000000; stroke-width: 0.8"/>
      </g>
     </g>
    </g>
    <g id="xtick_31">
     <g id="line2d_61">
      <g>
       <use xlink:href="#m51fd78c04c" x="228.516767" y="188.790661" style="stroke: #000000; stroke-width: 0.8"/>
      </g>
     </g>
     <g id="line2d_62">
      <g>
       <use xlink:href="#m0afccf682c" x="228.516767" y="7.2" style="stroke: #000000; stroke-width: 0.8"/>
      </g>
     </g>
    </g>
    <g id="xtick_32">
     <g id="line2d_63">
      <g>
       <use xlink:href="#m51fd78c04c" x="243.126015" y="188.790661" style="stroke: #000000; stroke-width: 0.8"/>
      </g>
     </g>
     <g id="line2d_64">
      <g>
       <use xlink:href="#m0afccf682c" x="243.126015" y="7.2" style="stroke: #000000; stroke-width: 0.8"/>
      </g>
     </g>
    </g>
    <g id="xtick_33">
     <g id="line2d_65">
      <g>
       <use xlink:href="#m51fd78c04c" x="250.430639" y="188.790661" style="stroke: #000000; stroke-width: 0.8"/>
      </g>
     </g>
     <g id="line2d_66">
      <g>
       <use xlink:href="#m0afccf682c" x="250.430639" y="7.2" style="stroke: #000000; stroke-width: 0.8"/>
      </g>
     </g>
    </g>
    <g id="xtick_34">
     <g id="line2d_67">
      <g>
       <use xlink:href="#m51fd78c04c" x="257.735262" y="188.790661" style="stroke: #000000; stroke-width: 0.8"/>
      </g>
     </g>
     <g id="line2d_68">
      <g>
       <use xlink:href="#m0afccf682c" x="257.735262" y="7.2" style="stroke: #000000; stroke-width: 0.8"/>
      </g>
     </g>
    </g>
    <g id="xtick_35">
     <g id="line2d_69">
      <g>
       <use xlink:href="#m51fd78c04c" x="265.039886" y="188.790661" style="stroke: #000000; stroke-width: 0.8"/>
      </g>
     </g>
     <g id="line2d_70">
      <g>
       <use xlink:href="#m0afccf682c" x="265.039886" y="7.2" style="stroke: #000000; stroke-width: 0.8"/>
      </g>
     </g>
    </g>
    <g id="xtick_36">
     <g id="line2d_71">
      <g>
       <use xlink:href="#m51fd78c04c" x="279.649134" y="188.790661" style="stroke: #000000; stroke-width: 0.8"/>
      </g>
     </g>
     <g id="line2d_72">
      <g>
       <use xlink:href="#m0afccf682c" x="279.649134" y="7.2" style="stroke: #000000; stroke-width: 0.8"/>
      </g>
     </g>
    </g>
    <g id="xtick_37">
     <g id="line2d_73">
      <g>
       <use xlink:href="#m51fd78c04c" x="286.953757" y="188.790661" style="stroke: #000000; stroke-width: 0.8"/>
      </g>
     </g>
     <g id="line2d_74">
      <g>
       <use xlink:href="#m0afccf682c" x="286.953757" y="7.2" style="stroke: #000000; stroke-width: 0.8"/>
      </g>
     </g>
    </g>
    <g id="xtick_38">
     <g id="line2d_75">
      <g>
       <use xlink:href="#m51fd78c04c" x="294.258381" y="188.790661" style="stroke: #000000; stroke-width: 0.8"/>
      </g>
     </g>
     <g id="line2d_76">
      <g>
       <use xlink:href="#m0afccf682c" x="294.258381" y="7.2" style="stroke: #000000; stroke-width: 0.8"/>
      </g>
     </g>
    </g>
    <g id="xtick_39">
     <g id="line2d_77">
      <g>
       <use xlink:href="#m51fd78c04c" x="301.563005" y="188.790661" style="stroke: #000000; stroke-width: 0.8"/>
      </g>
     </g>
     <g id="line2d_78">
      <g>
       <use xlink:href="#m0afccf682c" x="301.563005" y="7.2" style="stroke: #000000; stroke-width: 0.8"/>
      </g>
     </g>
    </g>
    <g id="xtick_40">
     <g id="line2d_79">
      <g>
       <use xlink:href="#m51fd78c04c" x="316.172253" y="188.790661" style="stroke: #000000; stroke-width: 0.8"/>
      </g>
     </g>
     <g id="line2d_80">
      <g>
       <use xlink:href="#m0afccf682c" x="316.172253" y="7.2" style="stroke: #000000; stroke-width: 0.8"/>
      </g>
     </g>
    </g>
    <g id="xtick_41">
     <g id="line2d_81">
      <g>
       <use xlink:href="#m51fd78c04c" x="323.476876" y="188.790661" style="stroke: #000000; stroke-width: 0.8"/>
      </g>
     </g>
     <g id="line2d_82">
      <g>
       <use xlink:href="#m0afccf682c" x="323.476876" y="7.2" style="stroke: #000000; stroke-width: 0.8"/>
      </g>
     </g>
    </g>
    <g id="xtick_42">
     <g id="line2d_83">
      <g>
       <use xlink:href="#m51fd78c04c" x="330.7815" y="188.790661" style="stroke: #000000; stroke-width: 0.8"/>
      </g>
     </g>
     <g id="line2d_84">
      <g>
       <use xlink:href="#m0afccf682c" x="330.7815" y="7.2" style="stroke: #000000; stroke-width: 0.8"/>
      </g>
     </g>
    </g>
    <g id="xtick_43">
     <g id="line2d_85">
      <g>
       <use xlink:href="#m51fd78c04c" x="338.086124" y="188.790661" style="stroke: #000000; stroke-width: 0.8"/>
      </g>
     </g>
     <g id="line2d_86">
      <g>
       <use xlink:href="#m0afccf682c" x="338.086124" y="7.2" style="stroke: #000000; stroke-width: 0.8"/>
      </g>
     </g>
    </g>
    <g id="xtick_44">
     <g id="line2d_87">
      <g>
       <use xlink:href="#m51fd78c04c" x="352.695372" y="188.790661" style="stroke: #000000; stroke-width: 0.8"/>
      </g>
     </g>
     <g id="line2d_88">
      <g>
       <use xlink:href="#m0afccf682c" x="352.695372" y="7.2" style="stroke: #000000; stroke-width: 0.8"/>
      </g>
     </g>
    </g>
    <g id="xtick_45">
     <g id="line2d_89">
      <g>
       <use xlink:href="#m51fd78c04c" x="359.999995" y="188.790661" style="stroke: #000000; stroke-width: 0.8"/>
      </g>
     </g>
     <g id="line2d_90">
      <g>
       <use xlink:href="#m0afccf682c" x="359.999995" y="7.2" style="stroke: #000000; stroke-width: 0.8"/>
      </g>
     </g>
    </g>
    <g id="text_10">
     <!-- $K_S^0$ Rest Frame Lifetime (ns) -->
     <g transform="translate(135.588478 213.255957) scale(0.1 -0.1)">
      <defs>
       <path id="CMMI12-4b" d="M 3200 2571 
C 3194 2590 3168 2641 3168 2661 
C 3168 2667 3174 2673 3283 2756 
L 3904 3242 
C 4762 3905 5043 4128 5485 4167 
C 5530 4167 5594 4167 5594 4282 
C 5594 4320 5574 4352 5523 4352 
C 5453 4352 5376 4352 5306 4352 
L 5062 4352 
C 4864 4352 4653 4352 4461 4352 
C 4416 4352 4339 4352 4339 4237 
C 4339 4173 4384 4167 4422 4167 
C 4493 4160 4576 4135 4576 4046 
C 4576 3919 4384 3765 4333 3727 
L 1824 1784 
L 2355 3887 
C 2413 4103 2426 4167 2880 4167 
C 3002 4167 3059 4167 3059 4288 
C 3059 4352 2995 4352 2963 4352 
C 2848 4352 2714 4352 2592 4352 
L 1837 4352 
C 1722 4352 1581 4352 1466 4352 
C 1414 4352 1344 4352 1344 4231 
C 1344 4167 1402 4167 1498 4167 
C 1888 4167 1888 4116 1888 4046 
C 1888 4034 1888 3995 1862 3899 
L 998 472 
C 941 249 928 185 480 185 
C 358 185 294 185 294 70 
C 294 0 352 0 390 0 
C 512 0 640 0 762 0 
L 1510 0 
C 1632 0 1766 0 1888 0 
C 1939 0 2010 0 2010 121 
C 2010 185 1952 185 1856 185 
C 1466 185 1466 236 1466 300 
C 1466 345 1504 504 1530 606 
L 1779 1593 
L 2752 2351 
C 2938 1943 3277 1128 3539 505 
C 3558 466 3571 428 3571 383 
C 3571 185 3315 185 3258 185 
C 3200 185 3136 185 3136 64 
C 3136 0 3206 0 3226 0 
C 3450 0 3686 0 3910 0 
L 4218 0 
C 4314 0 4422 0 4518 0 
C 4557 0 4627 0 4627 121 
C 4627 185 4570 185 4506 185 
C 4269 185 4186 236 4090 466 
L 3200 2571 
z
" transform="scale(0.015625)"/>
       <path id="CMMI12-53" d="M 4064 4423 
C 4064 4480 4019 4480 4006 4480 
C 3981 4480 3974 4474 3898 4378 
C 3859 4333 3597 4001 3590 3995 
C 3379 4410 2957 4480 2688 4480 
C 1875 4480 1139 3743 1139 3025 
C 1139 2549 1427 2269 1741 2161 
C 1811 2135 2189 2033 2381 1989 
C 2707 1900 2790 1875 2925 1735 
C 2950 1703 3078 1557 3078 1258 
C 3078 667 2528 57 1888 57 
C 1363 57 781 280 781 991 
C 781 1112 806 1265 826 1328 
C 826 1348 832 1378 832 1391 
C 832 1417 819 1449 768 1449 
C 710 1449 704 1436 678 1328 
L 352 24 
C 352 18 326 -64 326 -71 
C 326 -128 378 -128 390 -128 
C 416 -128 422 -122 499 -26 
L 794 356 
C 947 126 1280 -128 1875 -128 
C 2701 -128 3456 666 3456 1460 
C 3456 1728 3392 1963 3149 2197 
C 3014 2331 2899 2363 2310 2516 
C 1882 2630 1824 2649 1709 2751 
C 1600 2858 1517 3011 1517 3227 
C 1517 3761 2061 4308 2669 4308 
C 3296 4308 3590 3926 3590 3323 
C 3590 3158 3558 2986 3558 2961 
C 3558 2903 3610 2903 3629 2903 
C 3686 2903 3693 2922 3718 3024 
L 4064 4423 
z
" transform="scale(0.015625)"/>
       <path id="CMR17-52" d="M 2509 2146 
C 3117 2268 3629 2676 3629 3186 
C 3629 3785 2950 4326 2054 4326 
L 333 4326 
L 333 4160 
C 774 4160 845 4160 845 3873 
L 845 415 
C 845 128 774 128 333 128 
L 333 -26 
C 518 -26 851 -26 1050 -26 
C 1248 -26 1581 -26 1766 -26 
L 1766 128 
C 1325 128 1254 128 1254 417 
L 1254 2112 
L 2003 2112 
C 2368 2112 2573 1964 2662 1881 
C 2918 1632 2918 1459 2918 1024 
C 2918 595 2918 377 3110 160 
C 3354 -102 3680 -128 3821 -128 
C 4294 -128 4365 396 4365 503 
C 4365 540 4365 585 4307 585 
C 4256 585 4250 547 4250 522 
C 4218 112 4032 -26 3834 -26 
C 3482 -26 3443 375 3405 764 
C 3386 898 3373 993 3360 1133 
C 3322 1452 3270 1917 2509 2146 
z
M 1984 2214 
L 1254 2214 
L 1254 3913 
C 1254 4129 1267 4160 1523 4160 
L 1990 4160 
C 2522 4160 3142 3977 3142 3190 
C 3142 2372 2464 2214 1984 2214 
z
" transform="scale(0.015625)"/>
       <path id="CMR17-65" d="M 2438 1472 
C 2464 1498 2464 1511 2464 1576 
C 2464 2238 2118 2816 1389 2816 
C 710 2816 173 2169 173 1383 
C 173 551 781 -64 1459 -64 
C 2176 -64 2458 607 2458 740 
C 2458 784 2419 784 2406 784 
C 2362 784 2355 771 2330 696 
C 2189 265 1837 51 1504 51 
C 1229 51 954 203 781 480 
C 582 803 582 1176 582 1472 
L 2438 1472 
z
M 589 1568 
C 634 2505 1126 2714 1382 2714 
C 1818 2714 2112 2297 2118 1568 
L 589 1568 
z
" transform="scale(0.015625)"/>
       <path id="CMR17-73" d="M 1978 2697 
C 1978 2813 1971 2819 1933 2819 
C 1907 2819 1901 2813 1824 2717 
C 1805 2691 1747 2626 1728 2601 
C 1523 2819 1235 2819 1126 2819 
C 416 2819 160 2447 160 2076 
C 160 1498 813 1365 998 1325 
C 1402 1243 1542 1217 1677 1101 
C 1760 1025 1901 884 1901 654 
C 1901 384 1747 38 1158 38 
C 602 38 403 460 288 1021 
C 269 1110 269 1117 218 1117 
C 166 1117 160 1110 160 983 
L 160 63 
C 160 -51 166 -58 205 -58 
C 237 -58 243 -51 275 0 
C 314 57 410 211 448 276 
C 576 103 800 -64 1158 -64 
C 1792 -64 2131 283 2131 784 
C 2131 1112 1958 1285 1875 1362 
C 1683 1561 1459 1606 1190 1657 
C 838 1735 390 1825 390 2217 
C 390 2383 480 2737 1126 2737 
C 1811 2737 1850 2094 1862 1888 
C 1869 1856 1901 1849 1920 1849 
C 1978 1849 1978 1869 1978 1978 
L 1978 2697 
z
" transform="scale(0.015625)"/>
       <path id="CMR17-74" d="M 966 2560 
L 1862 2560 
L 1862 2725 
L 966 2725 
L 966 3904 
L 851 3904 
C 838 3245 614 2668 70 2668 
L 70 2560 
L 627 2560 
L 627 771 
C 627 650 627 -64 1370 -64 
C 1747 -64 1965 306 1965 777 
L 1965 1140 
L 1850 1140 
L 1850 783 
C 1850 344 1677 51 1408 51 
C 1222 51 966 178 966 758 
L 966 2560 
z
" transform="scale(0.015625)"/>
       <path id="CMR17-46" d="M 3482 4325 
L 326 4325 
L 326 4160 
C 768 4160 838 4160 838 3874 
L 838 446 
C 838 160 768 160 326 160 
L 326 0 
C 512 0 870 0 1069 0 
C 1331 0 1638 0 1901 0 
L 1901 160 
L 1760 160 
C 1274 160 1261 223 1261 452 
L 1261 2075 
L 1837 2075 
C 2432 2075 2490 1865 2490 1332 
L 2605 1332 
L 2605 2987 
L 2490 2987 
C 2490 2450 2432 2240 1837 2240 
L 1261 2240 
L 1261 3911 
C 1261 4128 1274 4160 1530 4160 
L 2355 4160 
C 3322 4160 3430 3765 3520 2916 
L 3635 2916 
L 3482 4325 
z
" transform="scale(0.015625)"/>
       <path id="CMR17-72" d="M 960 1497 
C 960 2112 1222 2688 1702 2688 
C 1747 2688 1792 2682 1837 2662 
C 1837 2662 1696 2617 1696 2452 
C 1696 2298 1818 2234 1914 2234 
C 1990 2234 2131 2279 2131 2458 
C 2131 2663 1926 2790 1709 2790 
C 1222 2790 1011 2317 947 2093 
L 941 2093 
L 941 2790 
L 198 2720 
L 198 2554 
C 576 2554 634 2515 634 2208 
L 634 428 
C 634 184 608 153 198 153 
L 198 -13 
C 352 0 646 0 813 0 
C 998 0 1325 0 1498 -13 
L 1498 153 
C 1037 153 960 153 960 440 
L 960 1497 
z
" transform="scale(0.015625)"/>
       <path id="CMR17-61" d="M 2304 1653 
C 2304 2072 2304 2294 2035 2543 
C 1798 2752 1523 2816 1306 2816 
C 800 2816 435 2407 435 1971 
C 435 1728 627 1728 666 1728 
C 749 1728 896 1778 896 1954 
C 896 2112 774 2181 666 2181 
C 640 2181 608 2174 589 2168 
C 723 2592 1069 2714 1293 2714 
C 1613 2714 1965 2429 1965 1885 
L 1965 1600 
C 1587 1600 1133 1549 774 1357 
C 371 1133 256 813 256 570 
C 256 77 832 -64 1171 -64 
C 1523 -64 1850 139 1990 511 
C 2003 233 2182 -18 2464 -18 
C 2598 -18 2938 70 2938 567 
L 2938 920 
L 2822 920 
L 2822 562 
C 2822 178 2650 128 2566 128 
C 2304 128 2304 458 2304 738 
L 2304 1653 
z
M 1965 870 
C 1965 317 1568 38 1216 38 
C 896 38 646 275 646 570 
C 646 761 730 1100 1101 1305 
C 1408 1478 1760 1504 1965 1504 
L 1965 870 
z
" transform="scale(0.015625)"/>
       <path id="CMR17-6d" d="M 4326 1933 
C 4326 2252 4269 2790 3507 2790 
C 3072 2790 2771 2496 2656 2151 
L 2650 2151 
C 2573 2676 2195 2790 1837 2790 
C 1331 2790 1069 2400 973 2144 
L 966 2144 
L 966 2790 
L 211 2720 
L 211 2554 
C 589 2554 646 2515 646 2208 
L 646 428 
C 646 184 621 153 211 153 
L 211 -13 
C 365 0 646 0 813 0 
C 979 0 1267 0 1421 -13 
L 1421 153 
C 1011 153 986 178 986 428 
L 986 1658 
C 986 2247 1344 2688 1792 2688 
C 2266 2688 2317 2266 2317 1958 
L 2317 428 
C 2317 184 2291 153 1882 153 
L 1882 -13 
C 2035 0 2317 0 2483 0 
C 2650 0 2938 0 3091 -13 
L 3091 153 
C 2682 153 2656 178 2656 428 
L 2656 1658 
C 2656 2247 3014 2688 3462 2688 
C 3936 2688 3987 2266 3987 1958 
L 3987 428 
C 3987 184 3962 153 3552 153 
L 3552 -13 
C 3706 0 3987 0 4154 0 
C 4320 0 4608 0 4762 -13 
L 4762 153 
C 4352 153 4326 178 4326 428 
L 4326 1933 
z
" transform="scale(0.015625)"/>
       <path id="CMR17-4c" d="M 3469 1615 
L 3354 1615 
C 3302 983 3219 166 2125 166 
L 1530 166 
C 1274 166 1261 197 1261 414 
L 1261 3898 
C 1261 4129 1274 4192 1760 4192 
L 1901 4192 
L 1901 4352 
C 1638 4352 1331 4352 1069 4352 
C 870 4352 512 4352 326 4352 
L 326 4192 
C 768 4192 838 4192 838 3905 
L 838 452 
C 838 166 768 166 326 166 
L 326 0 
L 3315 0 
L 3469 1615 
z
" transform="scale(0.015625)"/>
       <path id="CMR17-69" d="M 992 3909 
C 992 4049 877 4170 730 4170 
C 589 4170 467 4056 467 3909 
C 467 3769 582 3648 730 3648 
C 870 3648 992 3763 992 3909 
z
M 243 2706 
L 243 2541 
C 602 2541 653 2502 653 2197 
L 653 427 
C 653 184 627 153 218 153 
L 218 -13 
C 371 0 646 0 806 0 
C 960 0 1222 0 1370 -13 
L 1370 153 
C 992 153 979 191 979 420 
L 979 2776 
L 243 2706 
z
" transform="scale(0.015625)"/>
       <path id="CMR17-66" d="M 979 2560 
L 1709 2560 
L 1709 2725 
L 966 2725 
L 966 3494 
C 966 4022 1235 4352 1510 4352 
C 1594 4352 1690 4327 1754 4282 
C 1702 4269 1568 4225 1568 4067 
C 1568 3901 1696 3850 1786 3850 
C 1875 3850 2003 3901 2003 4067 
C 2003 4308 1773 4454 1517 4454 
C 1152 4454 653 4156 653 3481 
L 653 2725 
L 141 2725 
L 141 2560 
L 653 2560 
L 653 427 
C 653 184 627 153 218 153 
L 218 -13 
C 371 0 666 0 832 0 
C 1018 0 1344 0 1517 -13 
L 1517 153 
C 1056 153 979 153 979 439 
L 979 2560 
z
" transform="scale(0.015625)"/>
       <path id="CMR17-28" d="M 1958 -1561 
C 1958 -1555 1958 -1542 1939 -1523 
C 1645 -1224 858 -407 858 1581 
C 858 3569 1632 4379 1946 4697 
C 1946 4704 1958 4717 1958 4736 
C 1958 4755 1939 4768 1914 4768 
C 1843 4768 1299 4296 986 3594 
C 666 2887 576 2199 576 1588 
C 576 1128 621 351 1005 -471 
C 1312 -1135 1837 -1600 1914 -1600 
C 1946 -1600 1958 -1587 1958 -1561 
z
" transform="scale(0.015625)"/>
       <path id="CMR17-6e" d="M 2656 1933 
C 2656 2259 2592 2790 1837 2790 
C 1331 2790 1069 2400 973 2144 
L 966 2144 
L 966 2790 
L 211 2720 
L 211 2554 
C 589 2554 646 2515 646 2208 
L 646 428 
C 646 184 621 153 211 153 
L 211 -13 
C 365 0 646 0 813 0 
C 979 0 1267 0 1421 -13 
L 1421 153 
C 1011 153 986 178 986 428 
L 986 1658 
C 986 2247 1344 2688 1792 2688 
C 2266 2688 2317 2266 2317 1958 
L 2317 428 
C 2317 184 2291 153 1882 153 
L 1882 -13 
C 2035 0 2317 0 2483 0 
C 2650 0 2938 0 3091 -13 
L 3091 153 
C 2682 153 2656 178 2656 428 
L 2656 1933 
z
" transform="scale(0.015625)"/>
       <path id="CMR17-29" d="M 1683 1581 
C 1683 2040 1638 2817 1254 3639 
C 947 4303 422 4768 346 4768 
C 326 4768 301 4761 301 4729 
C 301 4717 307 4710 314 4697 
C 621 4378 1402 3568 1402 1584 
C 1402 -407 627 -1217 314 -1537 
C 307 -1549 301 -1556 301 -1568 
C 301 -1600 326 -1600 346 -1600 
C 416 -1600 960 -1128 1274 -426 
C 1594 281 1683 969 1683 1581 
z
" transform="scale(0.015625)"/>
      </defs>
      <use xlink:href="#CMMI12-4b" transform="scale(0.996264)"/>
      <use xlink:href="#CMR17-30" transform="translate(90.147421 36.153639) scale(0.697382)"/>
      <use xlink:href="#CMMI12-53" transform="translate(82.992611 -27.44057) scale(0.697382)"/>
      <use xlink:href="#CMR17-52" transform="translate(159.622607 0) scale(0.996264)"/>
      <use xlink:href="#CMR17-65" transform="translate(227.413709 0) scale(0.996264)"/>
      <use xlink:href="#CMR17-73" transform="translate(267.899369 0) scale(0.996264)"/>
      <use xlink:href="#CMR17-74" transform="translate(303.700707 0) scale(0.996264)"/>
      <use xlink:href="#CMR17-46" transform="translate(369.057441 0) scale(0.996264)"/>
      <use xlink:href="#CMR17-72" transform="translate(421.234032 0) scale(0.996264)"/>
      <use xlink:href="#CMR17-61" transform="translate(456.5148 0) scale(0.996264)"/>
      <use xlink:href="#CMR17-6d" transform="translate(502.205277 0) scale(0.996264)"/>
      <use xlink:href="#CMR17-65" transform="translate(579.124867 0) scale(0.996264)"/>
      <use xlink:href="#CMR17-4c" transform="translate(649.686494 0) scale(0.996264)"/>
      <use xlink:href="#CMR17-69" transform="translate(707.067901 0) scale(0.996264)"/>
      <use xlink:href="#CMR17-66" transform="translate(731.93896 0) scale(0.996264)"/>
      <use xlink:href="#CMR17-65" transform="translate(759.412472 0) scale(0.996264)"/>
      <use xlink:href="#CMR17-74" transform="translate(799.898133 0) scale(0.996264)"/>
      <use xlink:href="#CMR17-69" transform="translate(835.178901 0) scale(0.996264)"/>
      <use xlink:href="#CMR17-6d" transform="translate(860.049959 0) scale(0.996264)"/>
      <use xlink:href="#CMR17-65" transform="translate(936.969549 0) scale(0.996264)"/>
      <use xlink:href="#CMR17-28" transform="translate(1007.531176 0) scale(0.996264)"/>
      <use xlink:href="#CMR17-6e" transform="translate(1042.811944 0) scale(0.996264)"/>
      <use xlink:href="#CMR17-73" transform="translate(1093.707313 0) scale(0.996264)"/>
      <use xlink:href="#CMR17-29" transform="translate(1129.508651 0) scale(0.996264)"/>
     </g>
    </g>
   </g>
   <g id="matplotlib.axis_2">
    <g id="ytick_1">
     <g id="line2d_91">
      <defs>
       <path id="md42a5fb7d6" d="M 0 0 
L 4 0 
" style="stroke: #000000; stroke-width: 1.2"/>
      </defs>
      <g>
       <use xlink:href="#md42a5fb7d6" x="38.596548" y="188.790661" style="stroke: #000000; stroke-width: 1.2"/>
      </g>
     </g>
     <g id="line2d_92">
      <defs>
       <path id="mf500d1f1c9" d="M 0 0 
L -4 0 
" style="stroke: #000000; stroke-width: 1.2"/>
      </defs>
      <g>
       <use xlink:href="#mf500d1f1c9" x="360" y="188.790661" style="stroke: #000000; stroke-width: 1.2"/>
      </g>
     </g>
     <g id="text_11">
      <!-- $\mathdefault{10^{1}}$ -->
      <g transform="translate(21.16264 192.24991) scale(0.1 -0.1)">
       <use xlink:href="#CMR17-31" transform="scale(0.996264)"/>
       <use xlink:href="#CMR17-30" transform="translate(45.690477 0) scale(0.996264)"/>
       <use xlink:href="#CMR17-31" transform="translate(91.380954 36.153639) scale(0.697382)"/>
      </g>
     </g>
    </g>
    <g id="ytick_2">
     <g id="line2d_93">
      <g>
       <use xlink:href="#md42a5fb7d6" x="38.596548" y="125.226323" style="stroke: #000000; stroke-width: 1.2"/>
      </g>
     </g>
     <g id="line2d_94">
      <g>
       <use xlink:href="#mf500d1f1c9" x="360" y="125.226323" style="stroke: #000000; stroke-width: 1.2"/>
      </g>
     </g>
     <g id="text_12">
      <!-- $\mathdefault{10^{2}}$ -->
      <g transform="translate(21.16264 128.685572) scale(0.1 -0.1)">
       <use xlink:href="#CMR17-31" transform="scale(0.996264)"/>
       <use xlink:href="#CMR17-30" transform="translate(45.690477 0) scale(0.996264)"/>
       <use xlink:href="#CMR17-32" transform="translate(91.380954 36.153639) scale(0.697382)"/>
      </g>
     </g>
    </g>
    <g id="ytick_3">
     <g id="line2d_95">
      <g>
       <use xlink:href="#md42a5fb7d6" x="38.596548" y="61.661985" style="stroke: #000000; stroke-width: 1.2"/>
      </g>
     </g>
     <g id="line2d_96">
      <g>
       <use xlink:href="#mf500d1f1c9" x="360" y="61.661985" style="stroke: #000000; stroke-width: 1.2"/>
      </g>
     </g>
     <g id="text_13">
      <!-- $\mathdefault{10^{3}}$ -->
      <g transform="translate(21.16264 65.121234) scale(0.1 -0.1)">
       <defs>
        <path id="CMR17-33" d="M 1414 2157 
C 1984 2157 2234 1662 2234 1090 
C 2234 320 1824 25 1453 25 
C 1114 25 563 194 390 693 
C 422 680 454 680 486 680 
C 640 680 755 782 755 948 
C 755 1133 614 1216 486 1216 
C 378 1216 211 1165 211 926 
C 211 335 787 -128 1466 -128 
C 2176 -128 2720 430 2720 1085 
C 2720 1707 2208 2157 1600 2227 
C 2086 2328 2554 2756 2554 3329 
C 2554 3820 2048 4179 1472 4179 
C 890 4179 378 3829 378 3329 
C 378 3110 544 3072 627 3072 
C 762 3072 877 3155 877 3321 
C 877 3486 762 3569 627 3569 
C 602 3569 570 3569 544 3557 
C 730 3959 1235 4032 1459 4032 
C 1683 4032 2106 3925 2106 3320 
C 2106 3143 2080 2828 1862 2550 
C 1670 2304 1453 2304 1242 2284 
C 1210 2284 1062 2269 1037 2269 
C 992 2263 966 2257 966 2208 
C 966 2163 973 2157 1101 2157 
L 1414 2157 
z
" transform="scale(0.015625)"/>
       </defs>
       <use xlink:href="#CMR17-31" transform="scale(0.996264)"/>
       <use xlink:href="#CMR17-30" transform="translate(45.690477 0) scale(0.996264)"/>
       <use xlink:href="#CMR17-33" transform="translate(91.380954 36.153639) scale(0.697382)"/>
      </g>
     </g>
    </g>
    <g id="ytick_4">
     <g id="line2d_97">
      <defs>
       <path id="m6cef1f7644" d="M 0 0 
L 2.5 0 
" style="stroke: #000000; stroke-width: 0.8"/>
      </defs>
      <g>
       <use xlink:href="#m6cef1f7644" x="38.596548" y="169.655889" style="stroke: #000000; stroke-width: 0.8"/>
      </g>
     </g>
     <g id="line2d_98">
      <defs>
       <path id="m616458a2e4" d="M 0 0 
L -2.5 0 
" style="stroke: #000000; stroke-width: 0.8"/>
      </defs>
      <g>
       <use xlink:href="#m616458a2e4" x="360" y="169.655889" style="stroke: #000000; stroke-width: 0.8"/>
      </g>
     </g>
    </g>
    <g id="ytick_5">
     <g id="line2d_99">
      <g>
       <use xlink:href="#m6cef1f7644" x="38.596548" y="158.462764" style="stroke: #000000; stroke-width: 0.8"/>
      </g>
     </g>
     <g id="line2d_100">
      <g>
       <use xlink:href="#m616458a2e4" x="360" y="158.462764" style="stroke: #000000; stroke-width: 0.8"/>
      </g>
     </g>
    </g>
    <g id="ytick_6">
     <g id="line2d_101">
      <g>
       <use xlink:href="#m6cef1f7644" x="38.596548" y="150.521116" style="stroke: #000000; stroke-width: 0.8"/>
      </g>
     </g>
     <g id="line2d_102">
      <g>
       <use xlink:href="#m616458a2e4" x="360" y="150.521116" style="stroke: #000000; stroke-width: 0.8"/>
      </g>
     </g>
    </g>
    <g id="ytick_7">
     <g id="line2d_103">
      <g>
       <use xlink:href="#m6cef1f7644" x="38.596548" y="144.361096" style="stroke: #000000; stroke-width: 0.8"/>
      </g>
     </g>
     <g id="line2d_104">
      <g>
       <use xlink:href="#m616458a2e4" x="360" y="144.361096" style="stroke: #000000; stroke-width: 0.8"/>
      </g>
     </g>
    </g>
    <g id="ytick_8">
     <g id="line2d_105">
      <g>
       <use xlink:href="#m6cef1f7644" x="38.596548" y="139.327992" style="stroke: #000000; stroke-width: 0.8"/>
      </g>
     </g>
     <g id="line2d_106">
      <g>
       <use xlink:href="#m616458a2e4" x="360" y="139.327992" style="stroke: #000000; stroke-width: 0.8"/>
      </g>
     </g>
    </g>
    <g id="ytick_9">
     <g id="line2d_107">
      <g>
       <use xlink:href="#m6cef1f7644" x="38.596548" y="135.072564" style="stroke: #000000; stroke-width: 0.8"/>
      </g>
     </g>
     <g id="line2d_108">
      <g>
       <use xlink:href="#m616458a2e4" x="360" y="135.072564" style="stroke: #000000; stroke-width: 0.8"/>
      </g>
     </g>
    </g>
    <g id="ytick_10">
     <g id="line2d_109">
      <g>
       <use xlink:href="#m6cef1f7644" x="38.596548" y="131.386344" style="stroke: #000000; stroke-width: 0.8"/>
      </g>
     </g>
     <g id="line2d_110">
      <g>
       <use xlink:href="#m616458a2e4" x="360" y="131.386344" style="stroke: #000000; stroke-width: 0.8"/>
      </g>
     </g>
    </g>
    <g id="ytick_11">
     <g id="line2d_111">
      <g>
       <use xlink:href="#m6cef1f7644" x="38.596548" y="128.134868" style="stroke: #000000; stroke-width: 0.8"/>
      </g>
     </g>
     <g id="line2d_112">
      <g>
       <use xlink:href="#m616458a2e4" x="360" y="128.134868" style="stroke: #000000; stroke-width: 0.8"/>
      </g>
     </g>
    </g>
    <g id="ytick_12">
     <g id="line2d_113">
      <g>
       <use xlink:href="#m6cef1f7644" x="38.596548" y="106.091551" style="stroke: #000000; stroke-width: 0.8"/>
      </g>
     </g>
     <g id="line2d_114">
      <g>
       <use xlink:href="#m616458a2e4" x="360" y="106.091551" style="stroke: #000000; stroke-width: 0.8"/>
      </g>
     </g>
    </g>
    <g id="ytick_13">
     <g id="line2d_115">
      <g>
       <use xlink:href="#m6cef1f7644" x="38.596548" y="94.898426" style="stroke: #000000; stroke-width: 0.8"/>
      </g>
     </g>
     <g id="line2d_116">
      <g>
       <use xlink:href="#m616458a2e4" x="360" y="94.898426" style="stroke: #000000; stroke-width: 0.8"/>
      </g>
     </g>
    </g>
    <g id="ytick_14">
     <g id="line2d_117">
      <g>
       <use xlink:href="#m6cef1f7644" x="38.596548" y="86.956778" style="stroke: #000000; stroke-width: 0.8"/>
      </g>
     </g>
     <g id="line2d_118">
      <g>
       <use xlink:href="#m616458a2e4" x="360" y="86.956778" style="stroke: #000000; stroke-width: 0.8"/>
      </g>
     </g>
    </g>
    <g id="ytick_15">
     <g id="line2d_119">
      <g>
       <use xlink:href="#m6cef1f7644" x="38.596548" y="80.796758" style="stroke: #000000; stroke-width: 0.8"/>
      </g>
     </g>
     <g id="line2d_120">
      <g>
       <use xlink:href="#m616458a2e4" x="360" y="80.796758" style="stroke: #000000; stroke-width: 0.8"/>
      </g>
     </g>
    </g>
    <g id="ytick_16">
     <g id="line2d_121">
      <g>
       <use xlink:href="#m6cef1f7644" x="38.596548" y="75.763654" style="stroke: #000000; stroke-width: 0.8"/>
      </g>
     </g>
     <g id="line2d_122">
      <g>
       <use xlink:href="#m616458a2e4" x="360" y="75.763654" style="stroke: #000000; stroke-width: 0.8"/>
      </g>
     </g>
    </g>
    <g id="ytick_17">
     <g id="line2d_123">
      <g>
       <use xlink:href="#m6cef1f7644" x="38.596548" y="71.508226" style="stroke: #000000; stroke-width: 0.8"/>
      </g>
     </g>
     <g id="line2d_124">
      <g>
       <use xlink:href="#m616458a2e4" x="360" y="71.508226" style="stroke: #000000; stroke-width: 0.8"/>
      </g>
     </g>
    </g>
    <g id="ytick_18">
     <g id="line2d_125">
      <g>
       <use xlink:href="#m6cef1f7644" x="38.596548" y="67.822006" style="stroke: #000000; stroke-width: 0.8"/>
      </g>
     </g>
     <g id="line2d_126">
      <g>
       <use xlink:href="#m616458a2e4" x="360" y="67.822006" style="stroke: #000000; stroke-width: 0.8"/>
      </g>
     </g>
    </g>
    <g id="ytick_19">
     <g id="line2d_127">
      <g>
       <use xlink:href="#m6cef1f7644" x="38.596548" y="64.57053" style="stroke: #000000; stroke-width: 0.8"/>
      </g>
     </g>
     <g id="line2d_128">
      <g>
       <use xlink:href="#m616458a2e4" x="360" y="64.57053" style="stroke: #000000; stroke-width: 0.8"/>
      </g>
     </g>
    </g>
    <g id="ytick_20">
     <g id="line2d_129">
      <g>
       <use xlink:href="#m6cef1f7644" x="38.596548" y="42.527213" style="stroke: #000000; stroke-width: 0.8"/>
      </g>
     </g>
     <g id="line2d_130">
      <g>
       <use xlink:href="#m616458a2e4" x="360" y="42.527213" style="stroke: #000000; stroke-width: 0.8"/>
      </g>
     </g>
    </g>
    <g id="ytick_21">
     <g id="line2d_131">
      <g>
       <use xlink:href="#m6cef1f7644" x="38.596548" y="31.334088" style="stroke: #000000; stroke-width: 0.8"/>
      </g>
     </g>
     <g id="line2d_132">
      <g>
       <use xlink:href="#m616458a2e4" x="360" y="31.334088" style="stroke: #000000; stroke-width: 0.8"/>
      </g>
     </g>
    </g>
    <g id="ytick_22">
     <g id="line2d_133">
      <g>
       <use xlink:href="#m6cef1f7644" x="38.596548" y="23.39244" style="stroke: #000000; stroke-width: 0.8"/>
      </g>
     </g>
     <g id="line2d_134">
      <g>
       <use xlink:href="#m616458a2e4" x="360" y="23.39244" style="stroke: #000000; stroke-width: 0.8"/>
      </g>
     </g>
    </g>
    <g id="ytick_23">
     <g id="line2d_135">
      <g>
       <use xlink:href="#m6cef1f7644" x="38.596548" y="17.23242" style="stroke: #000000; stroke-width: 0.8"/>
      </g>
     </g>
     <g id="line2d_136">
      <g>
       <use xlink:href="#m616458a2e4" x="360" y="17.23242" style="stroke: #000000; stroke-width: 0.8"/>
      </g>
     </g>
    </g>
    <g id="ytick_24">
     <g id="line2d_137">
      <g>
       <use xlink:href="#m6cef1f7644" x="38.596548" y="12.199316" style="stroke: #000000; stroke-width: 0.8"/>
      </g>
     </g>
     <g id="line2d_138">
      <g>
       <use xlink:href="#m616458a2e4" x="360" y="12.199316" style="stroke: #000000; stroke-width: 0.8"/>
      </g>
     </g>
    </g>
    <g id="ytick_25">
     <g id="line2d_139">
      <g>
       <use xlink:href="#m6cef1f7644" x="38.596548" y="7.943888" style="stroke: #000000; stroke-width: 0.8"/>
      </g>
     </g>
     <g id="line2d_140">
      <g>
       <use xlink:href="#m616458a2e4" x="360" y="7.943888" style="stroke: #000000; stroke-width: 0.8"/>
      </g>
     </g>
    </g>
    <g id="text_14">
     <!-- Counts / 2 (ps) -->
     <g transform="translate(14.67198 131.951385) rotate(-90) scale(0.1 -0.1)">
      <defs>
       <path id="CMR17-43" d="M 3974 4289 
C 3974 4403 3968 4410 3930 4410 
C 3904 4410 3898 4403 3853 4327 
L 3571 3792 
C 3258 4187 2874 4416 2381 4416 
C 1286 4416 294 3456 294 2148 
C 294 826 1286 -128 2387 -128 
C 3366 -128 3974 730 3974 1461 
C 3974 1524 3974 1550 3917 1550 
C 3866 1550 3866 1531 3859 1474 
C 3808 585 3168 38 2477 38 
C 1824 38 781 495 781 2147 
C 781 3805 1843 4250 2464 4250 
C 3187 4250 3712 3628 3834 2745 
C 3846 2668 3846 2655 3904 2655 
C 3974 2655 3974 2668 3974 2783 
L 3974 4289 
z
" transform="scale(0.015625)"/>
       <path id="CMR17-6f" d="M 2758 1356 
C 2758 2176 2163 2816 1466 2816 
C 768 2816 173 2176 173 1356 
C 173 551 768 -64 1466 -64 
C 2163 -64 2758 551 2758 1356 
z
M 1466 51 
C 1165 51 909 230 762 480 
C 602 767 582 1126 582 1408 
C 582 1677 595 2010 762 2298 
C 890 2509 1139 2714 1466 2714 
C 1754 2714 1997 2554 2150 2330 
C 2349 2029 2349 1607 2349 1408 
C 2349 1158 2336 775 2163 467 
C 1984 173 1709 51 1466 51 
z
" transform="scale(0.015625)"/>
       <path id="CMR17-75" d="M 1882 2693 
L 1882 2528 
C 2259 2528 2317 2489 2317 2186 
L 2317 1032 
C 2317 500 2029 38 1555 38 
C 1030 38 986 348 986 678 
L 986 2763 
L 211 2693 
L 211 2528 
C 467 2528 640 2528 646 2274 
L 646 1058 
C 646 633 646 361 813 183 
C 896 101 1056 -64 1517 -64 
C 2061 -64 2272 377 2323 506 
L 2330 506 
L 2330 -63 
L 3091 -63 
L 3091 128 
C 2714 128 2656 166 2656 473 
L 2656 2763 
L 1882 2693 
z
" transform="scale(0.015625)"/>
       <path id="CMR17-2f" d="M 2605 4545 
C 2637 4627 2637 4640 2637 4653 
C 2637 4729 2579 4768 2528 4768 
C 2451 4768 2426 4717 2400 4640 
L 326 -1377 
C 294 -1460 294 -1473 294 -1486 
C 294 -1562 352 -1600 403 -1600 
C 480 -1600 506 -1549 531 -1473 
L 2605 4545 
z
" transform="scale(0.015625)"/>
       <path id="CMR17-70" d="M 1408 -1063 
C 998 -1063 973 -1037 973 -789 
L 973 402 
C 1158 134 1427 -38 1766 -38 
C 2406 -38 3053 523 3053 1388 
C 3053 2191 2496 2802 1837 2802 
C 1453 2802 1139 2592 960 2338 
L 960 2802 
L 198 2732 
L 198 2567 
C 576 2567 634 2528 634 2223 
L 634 -789 
C 634 -1031 608 -1063 198 -1063 
L 198 -1228 
C 352 -1216 634 -1216 800 -1216 
C 966 -1216 1254 -1216 1408 -1228 
L 1408 -1063 
z
M 973 2012 
C 973 2102 973 2235 1222 2471 
C 1254 2497 1472 2688 1792 2688 
C 2259 2688 2643 2108 2643 1382 
C 2643 656 2234 64 1728 64 
C 1498 64 1248 172 1056 472 
C 973 612 973 650 973 752 
L 973 2012 
z
" transform="scale(0.015625)"/>
      </defs>
      <use xlink:href="#CMR17-43" transform="scale(0.996264)"/>
      <use xlink:href="#CMR17-6f" transform="translate(66.509881 0) scale(0.996264)"/>
      <use xlink:href="#CMR17-75" transform="translate(112.200358 0) scale(0.996264)"/>
      <use xlink:href="#CMR17-6e" transform="translate(163.095727 0) scale(0.996264)"/>
      <use xlink:href="#CMR17-74" transform="translate(211.388643 0) scale(0.996264)"/>
      <use xlink:href="#CMR17-73" transform="translate(246.669411 0) scale(0.996264)"/>
      <use xlink:href="#CMR17-2f" transform="translate(312.546715 0) scale(0.996264)"/>
      <use xlink:href="#CMR17-32" transform="translate(388.313159 0) scale(0.996264)"/>
      <use xlink:href="#CMR17-28" transform="translate(464.079602 0) scale(0.996264)"/>
      <use xlink:href="#CMR17-70" transform="translate(499.36037 0) scale(0.996264)"/>
      <use xlink:href="#CMR17-73" transform="translate(550.25574 0) scale(0.996264)"/>
      <use xlink:href="#CMR17-29" transform="translate(586.057077 0) scale(0.996264)"/>
     </g>
    </g>
   </g>
   <g id="patch_3">
    <path d="M 53.205796 224.2 
L 53.205796 10.832516 
L 56.127646 10.832516 
L 56.127646 14.122181 
L 59.049495 14.122181 
L 59.049495 20.521794 
L 61.971345 20.521794 
L 61.971345 26.489503 
L 64.893195 26.489503 
L 64.893195 33.882733 
L 67.815043 33.882733 
L 67.815043 39.915228 
L 70.736893 39.915228 
L 70.736893 45.386815 
L 73.658743 45.386815 
L 73.658743 51.452903 
L 76.580593 51.452903 
L 76.580593 54.914744 
L 79.502441 54.914744 
L 79.502441 58.87229 
L 82.424291 58.87229 
L 82.424291 61.271272 
L 85.346141 61.271272 
L 85.346141 65.288921 
L 88.267991 65.288921 
L 88.267991 68.948629 
L 91.189841 68.948629 
L 91.189841 70.372593 
L 94.111691 70.372593 
L 94.111691 73.844193 
L 97.033538 73.844193 
L 97.033538 72.683878 
L 99.955391 72.683878 
L 99.955391 76.013574 
L 102.877241 76.013574 
L 102.877241 76.832097 
L 105.799085 76.832097 
L 105.799085 78.449474 
L 108.720935 78.449474 
L 108.720935 77.599035 
L 111.642785 77.599035 
L 111.642785 79.307824 
L 114.564635 79.307824 
L 114.564635 81.805902 
L 120.408335 81.753808 
L 120.408335 81.663996 
L 123.330185 81.663996 
L 123.330185 83.524578 
L 126.252035 83.524578 
L 126.252035 82.315888 
L 129.173885 82.315888 
L 129.173885 84.153476 
L 132.095735 84.153476 
L 132.095735 86.046199 
L 135.017585 86.046199 
L 135.017585 85.400589 
L 137.93943 85.400589 
L 137.93943 86.079802 
L 140.86128 86.079802 
L 140.86128 87.149632 
L 143.78313 87.149632 
L 143.78313 89.313248 
L 146.704985 89.313248 
L 146.704985 89.494017 
L 149.62683 89.494017 
L 149.62683 89.67566 
L 152.548685 89.67566 
L 152.548685 89.944398 
L 155.47053 89.944398 
L 155.47053 89.11063 
L 158.392374 89.11063 
L 158.392374 91.56569 
L 161.31423 91.56569 
L 161.31423 92.167656 
L 164.236074 92.167656 
L 164.236074 94.639291 
L 167.15793 94.639291 
L 167.15793 90.459525 
L 170.079774 90.459525 
L 170.079774 95.393363 
L 175.923474 95.426765 
L 175.923474 91.546396 
L 178.84533 91.546396 
L 178.84533 94.342365 
L 181.767174 94.342365 
L 181.767174 96.426142 
L 184.68903 96.426142 
L 184.68903 93.761903 
L 187.610874 93.761903 
L 187.610874 98.856847 
L 190.532719 98.856847 
L 190.532719 97.966211 
L 193.454574 97.966211 
L 193.454574 101.217637 
L 196.376419 101.217637 
L 196.376419 100.096956 
L 199.298274 100.096956 
L 199.298274 100.912433 
L 202.220119 100.912433 
L 202.220119 99.873651 
L 205.141974 99.873651 
L 205.141974 106.211727 
L 208.063819 106.211727 
L 208.063819 102.218288 
L 210.985674 102.218288 
L 210.985674 107.569539 
L 213.907519 107.569539 
L 213.907519 104.661455 
L 216.829374 104.661455 
L 216.829374 103.609779 
L 219.751219 103.609779 
L 219.751219 106.936286 
L 222.673063 106.936286 
L 222.673063 107.565048 
L 225.594919 107.565048 
L 225.594919 108.698641 
L 228.516763 108.698641 
L 228.516763 110.046708 
L 231.438619 110.046708 
L 231.438619 107.938326 
L 234.360463 107.938326 
L 234.360463 106.786016 
L 237.282319 106.786016 
L 237.282319 104.63371 
L 240.204174 104.63371 
L 240.204174 109.722774 
L 243.126008 109.722774 
L 243.126008 108.951248 
L 246.047863 108.951248 
L 246.047863 113.661986 
L 248.969719 113.661986 
L 248.969719 110.973383 
L 251.891574 110.973383 
L 251.891574 113.333262 
L 254.813408 113.333262 
L 254.813408 110.185324 
L 257.735263 110.185324 
L 257.735263 112.06577 
L 260.657119 112.06577 
L 260.657119 116.379975 
L 263.578952 116.379975 
L 263.578952 114.730788 
L 266.500808 114.730788 
L 266.500808 114.057975 
L 269.422663 114.057975 
L 269.422663 113.252257 
L 272.344519 113.252257 
L 272.344519 117.631152 
L 275.266352 117.631152 
L 275.266352 117.96726 
L 278.188208 117.96726 
L 278.188208 116.822957 
L 281.110063 116.822957 
L 281.110063 120.59833 
L 284.031919 120.59833 
L 284.031919 121.903687 
L 286.953752 121.903687 
L 286.953752 118.887923 
L 289.875608 118.887923 
L 289.875608 122.070859 
L 292.797463 122.070859 
L 292.797463 116.60894 
L 295.719297 116.60894 
L 295.719297 122.976222 
L 298.641152 122.976222 
L 298.641152 127.277038 
L 301.563008 127.277038 
L 301.563008 124.479772 
L 304.484863 124.479772 
L 304.484863 124.869868 
L 307.406697 124.869868 
L 307.406697 132.721181 
L 310.328552 132.721181 
L 310.328552 123.910001 
L 313.250408 123.910001 
L 313.250408 133.205967 
L 316.172263 133.205967 
L 316.172263 124.609298 
L 319.094097 124.609298 
L 319.094097 130.297405 
L 322.015952 130.297405 
L 322.015952 128.67776 
L 324.937808 128.67776 
L 324.937808 131.874053 
L 327.859641 131.874053 
L 327.859641 132.00712 
L 330.781497 132.00712 
L 330.781497 132.612614 
L 333.703352 132.612614 
L 333.703352 129.675863 
L 336.625208 129.675863 
L 336.625208 136.758919 
L 339.547041 136.758919 
L 339.547041 133.499379 
L 342.468897 133.499379 
L 342.468897 137.043427 
L 345.390752 137.043427 
L 345.390752 224.2 
L 345.390752 224.2 
" clip-path="url(#p28b2596cd6)" style="fill: none; stroke: #377eb8; stroke-linejoin: miter"/>
   </g>
   <g id="line2d_141">
    <path d="M 53.205796 72.517271 
L 54.375706 72.517271 
L 54.668183 72.645284 
L 63.150029 72.594292 
L 63.442506 72.762804 
L 66.074803 72.816836 
L 66.36728 73.072139 
L 67.53719 73.072139 
L 67.829667 73.192888 
L 70.461964 73.20541 
L 70.754442 73.466741 
L 71.924352 73.466741 
L 72.216829 73.714769 
L 73.386739 73.714769 
L 73.679216 73.98444 
L 74.849126 73.98444 
L 75.141603 74.216257 
L 76.311513 74.216257 
L 76.60399 74.337891 
L 77.7739 74.337891 
L 78.066378 74.769471 
L 80.698674 74.831645 
L 80.991152 75.292337 
L 82.161062 75.292337 
L 82.453539 75.45196 
L 83.623449 75.45196 
L 83.915926 75.658826 
L 85.085836 75.658826 
L 85.378313 75.850109 
L 86.548223 75.850109 
L 86.8407 76.365693 
L 89.472997 76.453585 
L 90.057952 76.523596 
L 90.935384 76.523596 
L 91.227862 77.028343 
L 92.397772 77.028343 
L 92.690249 77.237599 
L 93.860159 77.237599 
L 94.152636 77.545081 
L 95.322546 77.545081 
L 95.615023 77.975138 
L 96.784933 77.975138 
L 97.07741 78.287305 
L 99.709707 78.285921 
L 100.002185 78.660178 
L 101.172094 78.660178 
L 101.464572 79.066081 
L 102.634482 79.066081 
L 102.926959 79.325552 
L 104.096869 79.325552 
L 104.389346 79.544118 
L 105.559256 79.544118 
L 105.851733 79.852409 
L 107.021643 79.852409 
L 107.31412 80.216115 
L 108.48403 80.216115 
L 108.776508 80.437322 
L 109.946417 80.437322 
L 110.238895 80.675051 
L 111.408804 80.675051 
L 111.701282 80.944774 
L 112.871192 80.944774 
L 113.163669 81.440974 
L 115.795966 81.394415 
L 116.088443 82.091365 
L 117.258353 82.091365 
L 117.55083 82.255899 
L 120.183127 82.365549 
L 120.475605 82.703932 
L 121.645514 82.703932 
L 121.937992 83.099663 
L 123.107902 83.099663 
L 123.400379 83.468255 
L 124.570289 83.468255 
L 124.862766 83.683496 
L 126.032676 83.683496 
L 126.325153 84.150408 
L 127.495063 84.150408 
L 127.78754 84.313336 
L 128.95745 84.313336 
L 129.249928 84.83136 
L 130.419837 84.83136 
L 130.712315 85.023474 
L 131.882224 85.023474 
L 132.174702 85.194405 
L 133.344612 85.194405 
L 133.637089 85.664191 
L 134.806999 85.664191 
L 135.099476 85.845127 
L 136.269386 85.845127 
L 136.561863 86.296482 
L 137.731773 86.296482 
L 138.024251 86.521412 
L 139.19416 86.521412 
L 139.486638 86.841549 
L 142.118935 86.912429 
L 142.411412 87.414764 
L 143.581322 87.414764 
L 143.873799 87.688314 
L 145.043709 87.688314 
L 145.336186 88.274427 
L 147.968483 88.308901 
L 148.260961 88.52134 
L 149.43087 88.52134 
L 149.723348 88.868943 
L 150.893257 88.868943 
L 151.185735 89.438104 
L 152.355645 89.438104 
L 152.648122 89.646747 
L 155.280419 89.740644 
L 155.572896 90.389921 
L 156.742806 90.389921 
L 157.035283 90.983261 
L 159.66758 91.013896 
L 159.960058 91.232657 
L 161.129967 91.232657 
L 161.422445 91.656549 
L 162.592355 91.656549 
L 162.884832 92.048152 
L 165.517129 92.074342 
L 165.809606 92.686854 
L 168.441903 92.669274 
L 168.734381 93.062696 
L 169.90429 93.062696 
L 170.196768 93.40459 
L 171.366677 93.40459 
L 171.659155 93.959719 
L 174.291452 93.888497 
L 174.583929 94.628143 
L 175.753839 94.628143 
L 176.046316 95.10275 
L 180.141 95.062729 
L 180.433478 95.4576 
L 181.603387 95.4576 
L 181.895865 95.949517 
L 183.065775 95.949517 
L 183.358252 96.168198 
L 184.528162 96.168198 
L 184.820639 96.728581 
L 185.990549 96.728581 
L 186.283026 97.139984 
L 187.452936 97.139984 
L 187.745413 97.305432 
L 188.915323 97.305432 
L 189.207801 97.974034 
L 191.840097 97.920161 
L 192.132575 98.499669 
L 194.764872 98.468877 
L 195.057349 98.853757 
L 196.227259 98.853757 
L 196.519736 99.433375 
L 197.689646 99.433375 
L 197.982124 99.651174 
L 199.152033 99.651174 
L 199.444511 99.969599 
L 200.61442 99.969599 
L 200.906898 100.523201 
L 202.076808 100.523201 
L 202.369285 100.930863 
L 203.539195 100.930863 
L 203.831672 101.076715 
L 205.001582 101.076715 
L 205.294059 101.571049 
L 206.463969 101.571049 
L 206.756446 102.039773 
L 209.388743 102.034686 
L 209.681221 102.497803 
L 212.313518 102.530367 
L 212.605995 103.220839 
L 213.775905 103.220839 
L 214.068382 103.342378 
L 215.238292 103.342378 
L 215.530769 103.617585 
L 216.700679 103.617585 
L 216.993156 104.195079 
L 218.163066 104.195079 
L 218.455544 104.561159 
L 219.625453 104.561159 
L 219.917931 105.009872 
L 222.550228 105.016998 
L 222.842705 105.787674 
L 225.475002 105.812931 
L 225.767479 106.117953 
L 226.937389 106.117953 
L 227.229866 106.501582 
L 228.399776 106.501582 
L 228.692254 107.378904 
L 229.862163 107.378904 
L 230.154641 107.625193 
L 232.786938 107.650811 
L 233.079415 108.566346 
L 234.249325 108.566346 
L 234.541802 108.12987 
L 235.711712 108.12987 
L 236.004189 108.6174 
L 237.174099 108.6174 
L 237.466576 109.182405 
L 240.098873 109.22978 
L 240.391351 109.358184 
L 241.56126 109.358184 
L 241.853738 110.297494 
L 243.023648 110.297494 
L 243.316125 110.512949 
L 244.486035 110.512949 
L 244.778512 110.801414 
L 245.948422 110.801414 
L 246.240899 111.07645 
L 247.410809 111.07645 
L 247.703286 111.630638 
L 248.873196 111.630638 
L 249.165674 111.88155 
L 250.335583 111.88155 
L 250.628061 112.354986 
L 251.79797 112.354986 
L 252.090448 112.581818 
L 253.260358 112.581818 
L 253.552835 113.469322 
L 257.647519 113.428892 
L 257.939996 114.512514 
L 259.109906 114.512514 
L 259.402384 114.701949 
L 260.572293 114.701949 
L 260.864771 114.575614 
L 262.034681 114.575614 
L 262.327158 115.11336 
L 263.497068 115.11336 
L 263.789545 115.649048 
L 264.959455 115.649048 
L 265.251932 116.215053 
L 266.421842 116.215053 
L 266.714319 116.36843 
L 267.884229 116.36843 
L 268.176707 116.588627 
L 269.346616 116.588627 
L 269.639094 116.94695 
L 270.809003 116.94695 
L 271.101481 117.255368 
L 272.271391 117.255368 
L 272.563868 117.781524 
L 273.733778 117.781524 
L 274.026255 118.755224 
L 275.196165 118.755224 
L 275.488642 118.252599 
L 276.658552 118.252599 
L 276.951029 118.783186 
L 278.120939 118.783186 
L 278.413417 119.509724 
L 279.583326 119.509724 
L 279.875804 120.027318 
L 281.045713 120.027318 
L 281.338191 119.635541 
L 282.508101 119.635541 
L 282.800578 120.158426 
L 283.970488 120.158426 
L 284.262965 120.746936 
L 285.432875 120.746936 
L 285.725352 120.978629 
L 286.895262 120.978629 
L 287.187739 121.377553 
L 288.357649 121.377553 
L 288.650127 121.80622 
L 291.282423 121.897307 
L 291.574901 122.340083 
L 292.744811 122.340083 
L 293.037288 122.682048 
L 294.207198 122.682048 
L 294.499675 123.525002 
L 295.669585 123.525002 
L 295.962062 124.316722 
L 297.131972 124.316722 
L 297.424449 123.709766 
L 298.594359 123.709766 
L 298.886837 123.872916 
L 300.056746 123.872916 
L 300.349224 124.675696 
L 301.519133 124.675696 
L 301.811611 125.251646 
L 302.981521 125.251646 
L 303.273998 124.68382 
L 304.443908 124.68382 
L 304.736385 125.7113 
L 305.906295 125.7113 
L 306.198772 126.073675 
L 307.368682 126.073675 
L 307.661159 126.518942 
L 308.831069 126.518942 
L 309.123547 126.674798 
L 310.293456 126.674798 
L 310.585934 127.466615 
L 311.755843 127.466615 
L 312.048321 127.836195 
L 313.218231 127.836195 
L 313.510708 128.231683 
L 316.143005 128.283291 
L 316.435482 128.428472 
L 317.605392 128.428472 
L 317.897869 129.134912 
L 320.530166 129.185718 
L 320.822644 129.963357 
L 321.992553 129.963357 
L 322.285031 130.251228 
L 323.454941 130.251228 
L 323.747418 130.755025 
L 324.917328 130.755025 
L 325.209805 131.027623 
L 326.379715 131.027623 
L 326.672192 131.353675 
L 327.842102 131.353675 
L 328.13458 131.605766 
L 329.304489 131.605766 
L 329.596967 131.981489 
L 332.229264 132.010476 
L 332.521741 132.665707 
L 333.691651 132.665707 
L 333.984128 132.952168 
L 335.154038 132.952168 
L 335.446515 132.828961 
L 336.616425 132.828961 
L 336.908902 133.490792 
L 338.078812 133.490792 
L 338.37129 134.462569 
L 339.541199 134.462569 
L 339.833677 134.304546 
L 341.003586 134.304546 
L 341.296064 134.965722 
L 342.465974 134.965722 
L 342.758451 135.626593 
L 345.390748 135.534555 
L 345.390748 135.534555 
" clip-path="url(#p28b2596cd6)" style="fill: none; stroke: #4daf4a; stroke-width: 0.5; stroke-linecap: square"/>
   </g>
   <g id="line2d_142">
    <path d="M 53.205796 50.971681 
L 130.919162 224.2 
L 130.919162 224.2 
" clip-path="url(#p28b2596cd6)" style="fill: none; stroke: #e41a1c; stroke-width: 0.5; stroke-linecap: square"/>
   </g>
   <g id="line2d_143">
    <path d="M 53.205796 52.503798 
L 130.570322 224.2 
L 130.570322 224.2 
" clip-path="url(#p28b2596cd6)" style="fill: none; stroke: #e41a1c; stroke-width: 0.5; stroke-linecap: square"/>
   </g>
   <g id="line2d_144">
    <path d="M 53.205796 51.546867 
L 128.466914 224.2 
L 128.466914 224.2 
" clip-path="url(#p28b2596cd6)" style="fill: none; stroke: #e41a1c; stroke-width: 0.5; stroke-linecap: square"/>
   </g>
   <g id="line2d_145">
    <path d="M 53.205796 72.287412 
L 120.160045 224.2 
L 120.160045 224.2 
" clip-path="url(#p28b2596cd6)" style="fill: none; stroke: #e41a1c; stroke-width: 0.5; stroke-linecap: square"/>
   </g>
   <g id="line2d_146">
    <path d="M 53.205796 56.988315 
L 120.024372 224.2 
L 120.024372 224.2 
" clip-path="url(#p28b2596cd6)" style="fill: none; stroke: #e41a1c; stroke-width: 0.5; stroke-linecap: square"/>
   </g>
   <g id="line2d_147">
    <path d="M 53.205796 8.546884 
L 58.47039 19.208202 
L 62.565074 27.027217 
L 67.244713 35.477268 
L 71.631874 42.720468 
L 76.60399 50.198993 
L 81.868584 57.071865 
L 88.01061 63.6644 
L 88.888042 64.444305 
L 90.935384 66.054197 
L 91.227862 66.610521 
L 93.860159 68.516805 
L 94.152636 68.921536 
L 95.322546 69.613582 
L 95.615023 70.102889 
L 96.784933 70.742136 
L 97.07741 71.135906 
L 99.709707 72.395802 
L 100.002185 72.826199 
L 101.172094 73.3154 
L 101.464572 73.767183 
L 102.634482 74.215282 
L 102.926959 74.540089 
L 104.096869 74.948065 
L 104.389346 75.23198 
L 105.559256 75.602364 
L 105.851733 75.958142 
L 107.021643 76.294847 
L 107.31412 76.695056 
L 108.48403 77.001288 
L 108.776508 77.271145 
L 109.946417 77.548056 
L 110.238895 77.828128 
L 111.408804 78.078371 
L 111.701282 78.383501 
L 112.871192 78.609647 
L 113.163669 79.119627 
L 115.795966 79.514407 
L 116.088443 80.209342 
L 117.258353 80.377281 
L 117.55083 80.571761 
L 120.183127 80.996897 
L 120.475605 81.351038 
L 121.645514 81.47275 
L 121.937992 81.88021 
L 123.107902 81.990139 
L 123.400379 82.370379 
L 124.570289 82.46953 
L 124.862766 82.700649 
L 126.032676 82.789565 
L 126.325153 83.262785 
L 127.495063 83.343199 
L 127.78754 83.520481 
L 128.95745 83.59241 
L 129.249928 84.114221 
L 130.419837 84.179351 
L 130.712315 84.382417 
L 131.882224 84.440702 
L 132.174702 84.621866 
L 133.344612 84.673971 
L 133.637089 85.14739 
L 134.806999 85.194459 
L 135.099476 85.383491 
L 136.269386 85.425568 
L 136.561863 85.88013 
L 137.731773 85.918101 
L 138.024251 86.148972 
L 139.19416 86.182958 
L 139.486638 86.507266 
L 142.118935 86.642251 
L 142.411412 87.146161 
L 143.581322 87.170703 
L 143.873799 87.447668 
L 145.043709 87.469663 
L 145.336186 88.056391 
L 147.968483 88.132958 
L 148.260961 88.348242 
L 149.43087 88.364074 
L 149.723348 88.713464 
L 150.893257 88.727686 
L 151.185735 89.297329 
L 152.355645 89.310208 
L 152.648122 89.520938 
L 155.280419 89.638921 
L 155.572896 90.288251 
L 156.742806 90.297554 
L 157.035283 90.891128 
L 159.66758 90.939574 
L 159.960058 91.159521 
L 161.129967 91.166214 
L 161.422445 91.590678 
L 162.592355 91.596706 
L 162.884832 91.988895 
L 165.517129 92.026548 
L 165.809606 92.639148 
L 168.441903 92.630856 
L 168.734381 93.024652 
L 169.90429 93.028133 
L 170.196768 93.370425 
L 171.366677 93.373551 
L 171.659155 93.9288 
L 174.291452 93.863646 
L 174.583929 94.603222 
L 175.753839 94.605502 
L 176.046316 95.080262 
L 180.141 95.046678 
L 180.433478 95.441703 
L 181.603387 95.443157 
L 181.895865 95.935162 
L 183.065775 95.936475 
L 183.358252 96.155364 
L 184.528162 96.156537 
L 184.820639 96.716964 
L 185.990549 96.718026 
L 186.283026 97.129523 
L 187.452936 97.13048 
L 187.745413 97.296097 
L 188.915323 97.29695 
L 189.207801 97.96555 
L 191.840097 97.913336 
L 192.132575 98.492865 
L 194.764872 98.463398 
L 195.057349 98.848333 
L 196.227259 98.848829 
L 196.519736 99.428461 
L 197.689646 99.42891 
L 197.982124 99.64678 
L 199.152033 99.647181 
L 199.444511 99.965656 
L 200.61442 99.966016 
L 200.906898 100.519632 
L 202.076808 100.519958 
L 202.369285 100.927649 
L 203.539195 100.927943 
L 203.831672 101.073849 
L 205.001582 101.07411 
L 205.294059 101.56846 
L 206.463969 101.568696 
L 206.756446 102.037436 
L 209.388743 102.032803 
L 209.681221 102.495933 
L 212.313518 102.528857 
L 212.605995 103.219328 
L 213.775905 103.219466 
L 214.068382 103.341031 
L 215.238292 103.341154 
L 215.530769 103.616378 
L 216.700679 103.616488 
L 216.993156 104.193986 
L 218.163066 104.194085 
L 218.455544 104.560176 
L 219.625453 104.560266 
L 219.917931 105.008985 
L 222.550228 105.016283 
L 222.842705 105.786956 
L 225.475002 105.812352 
L 225.767479 106.117381 
L 226.937389 106.117433 
L 227.229866 106.501068 
L 228.399776 106.501115 
L 228.692254 107.378433 
L 229.862163 107.378476 
L 230.154641 107.624771 
L 232.786938 107.65047 
L 233.079415 108.566002 
L 234.249325 108.566033 
L 234.541802 108.12957 
L 235.711712 108.129597 
L 236.004189 108.617129 
L 237.174099 108.617154 
L 237.466576 109.182159 
L 240.098873 109.229581 
L 240.391351 109.357989 
L 241.56126 109.358007 
L 241.853738 110.297315 
L 243.023648 110.297332 
L 243.316125 110.512789 
L 244.486035 110.512804 
L 244.778512 110.80127 
L 245.948422 110.801283 
L 246.240899 111.076322 
L 247.410809 111.076333 
L 247.703286 111.630521 
L 248.873196 111.630532 
L 249.165674 111.881446 
L 250.335583 111.881456 
L 250.628061 112.354892 
L 251.79797 112.354901 
L 252.090448 112.581734 
L 253.260358 112.581741 
L 253.552835 113.469245 
L 257.647519 113.428837 
L 257.939996 114.512458 
L 259.109906 114.512463 
L 259.402384 114.701899 
L 260.572293 114.701903 
L 260.864771 114.575569 
L 262.034681 114.575573 
L 262.327158 115.11332 
L 263.497068 115.113323 
L 263.789545 115.649012 
L 264.959455 115.649015 
L 265.251932 116.21502 
L 266.421842 116.215023 
L 266.714319 116.368401 
L 267.884229 116.368403 
L 268.176707 116.588601 
L 269.346616 116.588604 
L 269.639094 116.946926 
L 270.809003 116.946928 
L 271.101481 117.255347 
L 272.271391 117.255349 
L 272.563868 117.781505 
L 273.733778 117.781506 
L 274.026255 118.755207 
L 275.196165 118.755208 
L 275.488642 118.252584 
L 276.658552 118.252586 
L 276.951029 118.783172 
L 278.120939 118.783173 
L 278.413417 119.509711 
L 279.583326 119.509712 
L 279.875804 120.027306 
L 281.045713 120.027307 
L 281.338191 119.635531 
L 282.508101 119.635532 
L 282.800578 120.158417 
L 283.970488 120.158417 
L 284.262965 120.746928 
L 285.432875 120.746929 
L 285.725352 120.978621 
L 286.895262 120.978622 
L 287.187739 121.377546 
L 288.357649 121.377547 
L 288.650127 121.806214 
L 291.282423 121.897302 
L 291.574901 122.340078 
L 292.744811 122.340079 
L 293.037288 122.682044 
L 294.207198 122.682044 
L 294.499675 123.524998 
L 295.669585 123.524999 
L 295.962062 124.316719 
L 297.131972 124.316719 
L 297.424449 123.709763 
L 298.594359 123.709763 
L 298.886837 123.872913 
L 300.056746 123.872914 
L 300.349224 124.675694 
L 301.519133 124.675694 
L 301.811611 125.251644 
L 302.981521 125.251644 
L 303.273998 124.683818 
L 304.443908 124.683818 
L 304.736385 125.711298 
L 305.906295 125.711298 
L 306.198772 126.073673 
L 307.368682 126.073673 
L 307.661159 126.51894 
L 308.831069 126.51894 
L 309.123547 126.674797 
L 310.293456 126.674797 
L 310.585934 127.466613 
L 311.755843 127.466613 
L 312.048321 127.836194 
L 313.218231 127.836194 
L 313.510708 128.231682 
L 316.143005 128.28329 
L 316.435482 128.428471 
L 317.605392 128.428471 
L 317.897869 129.134911 
L 320.530166 129.185717 
L 320.822644 129.963357 
L 321.992553 129.963357 
L 322.285031 130.251228 
L 323.454941 130.251228 
L 323.747418 130.755025 
L 324.917328 130.755025 
L 325.209805 131.027622 
L 326.379715 131.027623 
L 326.672192 131.353675 
L 327.842102 131.353675 
L 328.13458 131.605766 
L 329.304489 131.605766 
L 329.596967 131.981489 
L 332.229264 132.010476 
L 332.521741 132.665706 
L 333.691651 132.665706 
L 333.984128 132.952167 
L 335.154038 132.952167 
L 335.446515 132.828961 
L 336.616425 132.828961 
L 336.908902 133.490792 
L 338.078812 133.490792 
L 338.37129 134.462569 
L 339.541199 134.462569 
L 339.833677 134.304546 
L 341.003586 134.304546 
L 341.296064 134.965722 
L 342.465974 134.965722 
L 342.758451 135.626593 
L 345.390748 135.534555 
L 345.390748 135.534555 
" clip-path="url(#p28b2596cd6)" style="fill: none; stroke: #984ea3; stroke-width: 0.5; stroke-linecap: square"/>
   </g>
   <g id="patch_4">
    <path d="M 38.596548 188.790661 
L 38.596548 7.2 
" style="fill: none; stroke: #000000; stroke-width: 0.8; stroke-linejoin: miter; stroke-linecap: square"/>
   </g>
   <g id="patch_5">
    <path d="M 360 188.790661 
L 360 7.2 
" style="fill: none; stroke: #000000; stroke-width: 0.8; stroke-linejoin: miter; stroke-linecap: square"/>
   </g>
   <g id="patch_6">
    <path d="M 38.596548 188.790661 
L 360 188.790661 
" style="fill: none; stroke: #000000; stroke-width: 0.8; stroke-linejoin: miter; stroke-linecap: square"/>
   </g>
   <g id="patch_7">
    <path d="M 38.596548 7.2 
L 360 7.2 
" style="fill: none; stroke: #000000; stroke-width: 0.8; stroke-linejoin: miter; stroke-linecap: square"/>
   </g>
   <g id="legend_1">
    <g id="patch_8">
     <path d="M 259.396046 37.086939 
L 355.8 37.086939 
Q 357 37.086939 357 35.886939 
L 357 11.4 
Q 357 10.2 355.8 10.2 
L 259.396046 10.2 
Q 258.196046 10.2 258.196046 11.4 
L 258.196046 35.886939 
Q 258.196046 37.086939 259.396046 37.086939 
z
" style="fill: #ffffff; opacity: 0.8; stroke: #cccccc; stroke-linejoin: miter"/>
    </g>
    <g id="line2d_148">
     <path d="M 260.596046 14.7 
L 266.596046 14.7 
L 272.596046 14.7 
" style="fill: none; stroke: #4daf4a; stroke-width: 0.5; stroke-linecap: square"/>
    </g>
    <g id="text_15">
     <!-- Signal Component -->
     <g transform="translate(277.396046 16.8) scale(0.06 -0.06)">
      <defs>
       <path id="CMR17-53" d="M 2803 4290 
C 2803 4404 2797 4411 2758 4411 
C 2720 4411 2707 4385 2682 4328 
L 2490 3907 
C 2246 4257 1875 4416 1472 4416 
C 819 4416 294 3901 294 3253 
C 294 3056 339 2776 557 2510 
C 794 2218 1018 2167 1530 2033 
C 1722 1982 2042 1899 2106 1874 
C 2470 1722 2662 1341 2662 985 
C 2662 527 2336 38 1779 38 
C 1094 38 454 419 410 1311 
C 403 1413 397 1419 352 1419 
C 301 1419 294 1413 294 1285 
L 294 -1 
C 294 -115 301 -122 339 -122 
C 384 -122 397 -90 486 108 
C 493 127 493 140 614 381 
C 934 -39 1472 -128 1779 -128 
C 2477 -128 2970 451 2970 1124 
C 2970 1454 2848 1708 2778 1823 
C 2509 2230 2221 2306 1914 2382 
C 1869 2402 1856 2402 1498 2490 
C 1152 2579 1005 2624 845 2796 
C 666 2992 602 3196 602 3399 
C 602 3812 934 4263 1478 4263 
C 2157 4263 2579 3786 2675 2993 
C 2694 2878 2701 2872 2746 2872 
C 2803 2872 2803 2891 2803 2999 
L 2803 4290 
z
" transform="scale(0.015625)"/>
       <path id="CMR17-67" d="M 710 1164 
C 832 1068 1043 960 1299 960 
C 1805 960 2240 1357 2240 1888 
C 2240 2054 2189 2310 1997 2509 
C 2176 2692 2438 2752 2586 2752 
C 2611 2752 2650 2752 2682 2734 
C 2656 2728 2598 2703 2598 2605 
C 2598 2527 2656 2471 2739 2471 
C 2835 2471 2886 2533 2886 2614 
C 2886 2731 2790 2854 2586 2854 
C 2330 2854 2106 2738 1926 2580 
C 1734 2753 1504 2816 1299 2816 
C 794 2816 358 2419 358 1888 
C 358 1522 570 1292 634 1228 
C 442 1004 442 743 442 711 
C 442 545 506 302 723 168 
C 390 85 128 -169 128 -486 
C 128 -943 736 -1280 1466 -1280 
C 2170 -1280 2803 -956 2803 -479 
C 2803 384 1856 384 1363 384 
C 1216 384 954 384 922 391 
C 723 423 589 602 589 826 
C 589 883 589 1024 710 1164 
z
M 1299 1068 
C 736 1068 736 1760 736 1889 
C 736 2016 736 2708 1299 2708 
C 1862 2708 1862 2016 1862 1889 
C 1862 1760 1862 1068 1299 1068 
z
M 1466 -1171 
C 826 -1171 384 -835 384 -486 
C 384 -289 493 -105 634 -4 
C 794 104 858 104 1293 104 
C 1818 104 2547 104 2547 -486 
C 2547 -835 2106 -1171 1466 -1171 
z
" transform="scale(0.015625)"/>
       <path id="CMR17-6c" d="M 979 4396 
L 218 4326 
L 218 4160 
C 595 4160 653 4122 653 3817 
L 653 426 
C 653 184 627 153 218 153 
L 218 -13 
C 371 0 653 0 813 0 
C 979 0 1261 0 1414 -13 
L 1414 153 
C 1005 153 979 178 979 426 
L 979 4396 
z
" transform="scale(0.015625)"/>
      </defs>
      <use xlink:href="#CMR17-53" transform="scale(0.996264)"/>
      <use xlink:href="#CMR17-69" transform="translate(50.89537 0) scale(0.996264)"/>
      <use xlink:href="#CMR17-67" transform="translate(75.766428 0) scale(0.996264)"/>
      <use xlink:href="#CMR17-6e" transform="translate(121.456905 0) scale(0.996264)"/>
      <use xlink:href="#CMR17-61" transform="translate(172.352275 0) scale(0.996264)"/>
      <use xlink:href="#CMR17-6c" transform="translate(218.042752 0) scale(0.996264)"/>
      <use xlink:href="#CMR17-43" transform="translate(272.989777 0) scale(0.996264)"/>
      <use xlink:href="#CMR17-6f" transform="translate(339.499658 0) scale(0.996264)"/>
      <use xlink:href="#CMR17-6d" transform="translate(385.190135 0) scale(0.996264)"/>
      <use xlink:href="#CMR17-70" transform="translate(462.109725 0) scale(0.996264)"/>
      <use xlink:href="#CMR17-6f" transform="translate(515.607533 0) scale(0.996264)"/>
      <use xlink:href="#CMR17-6e" transform="translate(561.29801 0) scale(0.996264)"/>
      <use xlink:href="#CMR17-65" transform="translate(612.19338 0) scale(0.996264)"/>
      <use xlink:href="#CMR17-6e" transform="translate(652.679041 0) scale(0.996264)"/>
      <use xlink:href="#CMR17-74" transform="translate(700.971956 0) scale(0.996264)"/>
     </g>
    </g>
    <g id="line2d_149">
     <path d="M 260.596046 23.062313 
L 266.596046 23.062313 
L 272.596046 23.062313 
" style="fill: none; stroke: #e41a1c; stroke-width: 0.5; stroke-linecap: square"/>
    </g>
    <g id="text_16">
     <!-- Background Component -->
     <g transform="translate(277.396046 25.162313) scale(0.06 -0.06)">
      <defs>
       <path id="CMR17-42" d="M 333 4352 
L 333 4186 
C 774 4186 845 4186 845 3900 
L 845 452 
C 845 166 774 166 333 166 
L 333 0 
L 2534 0 
C 3354 0 3885 583 3885 1164 
C 3885 1741 3360 2233 2675 2233 
C 3290 2356 3718 2771 3718 3264 
C 3718 3802 3194 4352 2368 4352 
L 333 4352 
z
M 1248 2304 
L 1248 3937 
C 1248 4155 1261 4186 1517 4186 
L 2336 4186 
C 2970 4186 3251 3674 3251 3277 
C 3251 2791 2861 2304 2170 2304 
L 1248 2304 
z
M 1517 166 
C 1261 166 1248 197 1248 413 
L 1248 2202 
L 2432 2202 
C 3091 2202 3411 1625 3411 1162 
C 3411 699 3046 166 2349 166 
L 1517 166 
z
" transform="scale(0.015625)"/>
       <path id="CMR17-63" d="M 2234 2240 
C 2112 2240 1933 2240 1933 2017 
C 1933 1838 2080 1787 2163 1787 
C 2208 1787 2394 1807 2394 2024 
C 2394 2467 1958 2803 1466 2803 
C 787 2803 211 2178 211 1363 
C 211 516 813 -64 1466 -64 
C 2259 -64 2458 677 2458 748 
C 2458 774 2451 793 2406 793 
C 2362 793 2355 787 2330 703 
C 2163 180 1798 51 1523 51 
C 1114 51 621 427 621 1369 
C 621 2338 1094 2688 1472 2688 
C 1722 2688 2093 2573 2234 2240 
z
" transform="scale(0.015625)"/>
       <path id="CMR17-6b" d="M 1670 1673 
C 1664 1686 1632 1724 1632 1743 
C 1632 1756 2086 2171 2144 2222 
C 2509 2528 2739 2560 2906 2560 
L 2906 2733 
C 2867 2733 2854 2733 2848 2720 
L 2534 2720 
C 2355 2720 2080 2720 1907 2733 
L 1907 2566 
C 1997 2559 2061 2508 2061 2419 
C 2061 2291 1933 2170 1926 2170 
L 960 1289 
L 960 4396 
L 198 4326 
L 198 4160 
C 576 4160 634 4122 634 3817 
L 634 426 
C 634 184 608 153 198 153 
L 198 -13 
C 352 0 634 0 794 0 
C 954 0 1235 0 1389 -13 
L 1389 153 
C 979 153 954 178 954 428 
L 954 1130 
L 1395 1532 
L 2042 574 
C 2118 459 2182 369 2182 286 
C 2182 172 2067 153 1990 153 
L 1990 -13 
C 2144 0 2419 0 2579 0 
C 2694 0 2931 0 3040 0 
L 3040 153 
C 2739 153 2669 210 2477 491 
L 1670 1673 
z
" transform="scale(0.015625)"/>
       <path id="CMR17-64" d="M 1869 4326 
L 1869 4160 
C 2246 4160 2304 4122 2304 3820 
L 2304 2345 
C 2278 2377 2016 2790 1498 2790 
C 845 2790 211 2208 211 1364 
C 211 525 806 -64 1434 -64 
C 1978 -64 2259 337 2291 380 
L 2291 -63 
L 3066 -63 
L 3066 128 
C 2688 128 2630 166 2630 473 
L 2630 4396 
L 1869 4326 
z
M 2291 755 
C 2291 563 2176 390 2029 262 
C 1811 70 1594 38 1472 38 
C 1286 38 621 134 621 1356 
C 621 2612 1363 2688 1530 2688 
C 1824 2688 2061 2522 2208 2291 
C 2291 2157 2291 2138 2291 2023 
L 2291 755 
z
" transform="scale(0.015625)"/>
      </defs>
      <use xlink:href="#CMR17-42" transform="scale(0.996264)"/>
      <use xlink:href="#CMR17-61" transform="translate(65.188754 0) scale(0.996264)"/>
      <use xlink:href="#CMR17-63" transform="translate(110.879232 0) scale(0.996264)"/>
      <use xlink:href="#CMR17-6b" transform="translate(148.762438 0) scale(0.996264)"/>
      <use xlink:href="#CMR17-67" transform="translate(197.055354 0) scale(0.996264)"/>
      <use xlink:href="#CMR17-72" transform="translate(242.745831 0) scale(0.996264)"/>
      <use xlink:href="#CMR17-6f" transform="translate(278.026599 0) scale(0.996264)"/>
      <use xlink:href="#CMR17-75" transform="translate(323.717076 0) scale(0.996264)"/>
      <use xlink:href="#CMR17-6e" transform="translate(374.612446 0) scale(0.996264)"/>
      <use xlink:href="#CMR17-64" transform="translate(425.507816 0) scale(0.996264)"/>
      <use xlink:href="#CMR17-43" transform="translate(506.479152 0) scale(0.996264)"/>
      <use xlink:href="#CMR17-6f" transform="translate(572.989032 0) scale(0.996264)"/>
      <use xlink:href="#CMR17-6d" transform="translate(618.679509 0) scale(0.996264)"/>
      <use xlink:href="#CMR17-70" transform="translate(695.599099 0) scale(0.996264)"/>
      <use xlink:href="#CMR17-6f" transform="translate(749.096908 0) scale(0.996264)"/>
      <use xlink:href="#CMR17-6e" transform="translate(794.787385 0) scale(0.996264)"/>
      <use xlink:href="#CMR17-65" transform="translate(845.682755 0) scale(0.996264)"/>
      <use xlink:href="#CMR17-6e" transform="translate(886.168415 0) scale(0.996264)"/>
      <use xlink:href="#CMR17-74" transform="translate(934.461331 0) scale(0.996264)"/>
     </g>
    </g>
    <g id="line2d_150">
     <path d="M 260.596046 31.424626 
L 266.596046 31.424626 
L 272.596046 31.424626 
" style="fill: none; stroke: #984ea3; stroke-width: 0.5; stroke-linecap: square"/>
    </g>
    <g id="text_17">
     <!-- Fit Total -->
     <g transform="translate(277.396046 33.524626) scale(0.06 -0.06)">
      <defs>
       <path id="CMR17-54" d="M 3981 4326 
L 288 4326 
L 179 2918 
L 294 2918 
C 378 3976 467 4160 1453 4160 
C 1568 4160 1754 4160 1805 4154 
C 1926 4135 1926 4058 1926 3912 
L 1926 459 
C 1926 230 1907 160 1376 160 
L 1197 160 
L 1197 0 
C 1504 0 1824 0 2138 0 
C 2451 0 2771 0 3078 0 
L 3078 160 
L 2899 160 
C 2368 160 2349 230 2349 459 
L 2349 3912 
C 2349 4052 2349 4129 2464 4154 
C 2515 4160 2701 4160 2816 4160 
C 3795 4160 3891 3976 3974 2918 
L 4090 2918 
L 3981 4326 
z
" transform="scale(0.015625)"/>
      </defs>
      <use xlink:href="#CMR17-46" transform="scale(0.996264)"/>
      <use xlink:href="#CMR17-69" transform="translate(59.983847 0) scale(0.996264)"/>
      <use xlink:href="#CMR17-74" transform="translate(84.854905 0) scale(0.996264)"/>
      <use xlink:href="#CMR17-54" transform="translate(150.211639 0) scale(0.996264)"/>
      <use xlink:href="#CMR17-6f" transform="translate(208.914264 0) scale(0.996264)"/>
      <use xlink:href="#CMR17-74" transform="translate(254.604741 0) scale(0.996264)"/>
      <use xlink:href="#CMR17-61" transform="translate(289.885509 0) scale(0.996264)"/>
      <use xlink:href="#CMR17-6c" transform="translate(335.575986 0) scale(0.996264)"/>
     </g>
    </g>
   </g>
  </g>
 </g>
 <defs>
  <clipPath id="p28b2596cd6">
   <rect x="38.596548" y="7.2" width="321.403452" height="181.590661"/>
  </clipPath>
 </defs>
</svg>
